<?xml version="1.0" encoding="UTF-8"?><svg xmlns="http://www.w3.org/2000/svg" viewBox="0 0 82.23 74.13"><defs><style>.d{fill:#d6d5da;}.e{fill:#59b37d;}</style></defs><g id="a"/><g id="b"><g id="c"><g><path class="e" d="M56.25,0H25.99c-3.88,0-7.46,2.07-9.4,5.43L1.45,31.64c-1.94,3.36-1.94,7.5,0,10.85l15.13,26.21c1.94,3.36,5.52,5.43,9.4,5.43h30.26c3.88,0,7.46-2.07,9.4-5.43l15.13-26.21c1.94-3.36,1.94-7.5,0-10.85l-15.13-26.21c-1.94-3.36-5.52-5.43-9.4-5.43Z"/><path class="d" d="M26.62,66.01c-.92,0-1.78-.5-2.24-1.29l-14.5-25.11c-.46-.8-.46-1.79,0-2.59L24.38,11.9c.46-.8,1.32-1.29,2.24-1.29h29c.92,0,1.78,.5,2.24,1.29l14.5,25.11c.46,.8,.46,1.79,0,2.59l-14.5,25.11c-.46,.8-1.32,1.29-2.24,1.29H26.62Z"/></g></g></g></svg>