<?xml version="1.0" encoding="UTF-8"?><svg xmlns="http://www.w3.org/2000/svg" viewBox="0 0 82.23 74.13"><defs><style>.d{fill:#d6d5da;}.e{fill:none;stroke:#19192d;stroke-linecap:round;stroke-linejoin:round;stroke-width:3px;}</style></defs><g id="a"/><g id="b"><g id="c"><g><path class="d" d="M56.25,0H25.99c-3.88,0-7.46,2.07-9.4,5.43L1.45,31.64c-1.94,3.36-1.94,7.5,0,10.85l15.13,26.21c1.94,3.36,5.52,5.43,9.4,5.43h30.26c3.88,0,7.46-2.07,9.4-5.43l15.13-26.21c1.94-3.36,1.94-7.5,0-10.85"/><g><line class="e" x1="40.88" y1="21.55" x2="40.88" y2="56.53"/><line class="e" x1="30.96" y1="28.39" x2="30.96" y2="49.69"/><line class="e" x1="50.85" y1="28.39" x2="50.85" y2="49.69"/><line class="e" x1="22.08" y1="35.24" x2="22.08" y2="42.84"/><line class="e" x1="60.58" y1="35.24" x2="60.58" y2="42.84"/></g></g></g></g></svg>