<?xml version="1.0" encoding="UTF-8"?><svg id="Layer_2" xmlns="http://www.w3.org/2000/svg" viewBox="0 0 359.48 376.62"><defs><style>.cls-1{fill:#407756;}.cls-2{fill:#19192c;}.cls-3{fill:#4ce58a;}.cls-4{fill:none;stroke:#fff;stroke-linecap:round;stroke-linejoin:round;stroke-width:4.32px;}.cls-5{opacity:.3;}</style></defs><g id="Layer_2-2"><g><rect class="cls-1" width="359.48" height="376.62" rx="38.98" ry="38.98"/><path class="cls-3" d="M354.59,339.24V57.21c0-20.94-16.98-37.92-37.92-37.92H42.81C21.86,19.29,4.89,36.27,4.89,57.21V345.83c0,5.94,1.52,13,6.09,18.91,7.09,7.32,17.01,11.88,28.01,11.88H320.5c9.5,0,18.21-3.4,24.97-9.05,6.8-6.95,9.13-17.06,9.13-28.33Z"/><g><g><path class="cls-2" d="M117.16,220.24h7.08v36.49h-5.38l-15.38-22.31v22.31h-7.08v-36.49h5.38l15.39,22.23v-22.23Z"/><path class="cls-2" d="M152.44,253.47c-2.63,2.66-5.84,3.99-9.64,3.99s-7-1.33-9.61-3.99-3.92-5.92-3.92-9.77,1.31-7.12,3.92-9.77,5.82-3.99,9.61-3.99,7.01,1.33,9.64,3.99c2.63,2.66,3.95,5.92,3.95,9.77s-1.32,7.12-3.95,9.77Zm-14.59-4.61c1.32,1.36,2.96,2.03,4.95,2.03s3.64-.68,4.97-2.03c1.33-1.36,2-3.08,2-5.16s-.67-3.8-2-5.16c-1.33-1.36-2.99-2.03-4.97-2.03s-3.63,.68-4.95,2.03c-1.32,1.36-1.97,3.08-1.97,5.16s.66,3.8,1.97,5.16Z"/><path class="cls-2" d="M167.66,235.15c.62-1.67,1.63-2.92,3.05-3.75,1.42-.83,3-1.25,4.74-1.25v7.51c-2.02-.24-3.82,.17-5.41,1.25-1.59,1.08-2.38,2.87-2.38,5.37v12.46h-6.61v-26.06h6.61v4.48Z"/><path class="cls-2" d="M207.65,229.93c2.94,0,5.29,.97,7.05,2.92,1.76,1.95,2.64,4.55,2.64,7.82v16.05h-6.61v-15.58c0-1.56-.38-2.78-1.13-3.65-.75-.87-1.81-1.3-3.18-1.3-1.5,0-2.67,.5-3.51,1.51-.84,1.01-1.26,2.47-1.26,4.38v14.65h-6.61v-15.58c0-1.56-.38-2.78-1.13-3.65-.75-.87-1.81-1.3-3.18-1.3-1.47,0-2.64,.5-3.51,1.51s-1.31,2.47-1.31,4.38v14.65h-6.61v-26.06h6.61v2.76c1.54-2.33,3.91-3.49,7.13-3.49s5.47,1.25,6.97,3.75c1.71-2.5,4.26-3.75,7.64-3.75Z"/><path class="cls-2" d="M242.46,230.66h6.61v26.06h-6.61v-3.08c-1.98,2.54-4.77,3.8-8.36,3.8s-6.35-1.33-8.79-3.99c-2.44-2.66-3.67-5.92-3.67-9.77s1.22-7.12,3.67-9.77c2.44-2.66,5.37-3.99,8.79-3.99,3.59,0,6.37,1.27,8.36,3.8v-3.08Zm-12.2,18.32c1.33,1.37,3.02,2.06,5.08,2.06s3.75-.69,5.1-2.06c1.35-1.37,2.02-3.14,2.02-5.29s-.68-3.92-2.02-5.29c-1.35-1.37-3.05-2.06-5.1-2.06s-3.74,.69-5.08,2.06c-1.33,1.37-2,3.14-2,5.29s.67,3.92,2,5.29Z"/><path class="cls-2" d="M255.07,256.73v-38.05h6.61v38.05h-6.61Z"/></g><circle class="cls-5" cx="183" cy="170.48" r="31.12"/><polyline class="cls-4" points="168.3 172.76 177.56 182.02 197.7 161.87"/></g></g></g></svg>