<?xml version="1.0" encoding="UTF-8"?><svg id="Layer_2" xmlns="http://www.w3.org/2000/svg" viewBox="0 0 359.48 376.62"><defs><style>.cls-1{fill:#ec752f;}.cls-2{fill:#fff;}.cls-3{fill:#7f223f;}.cls-4{fill:#c43554;}</style></defs><g id="Layer_2-2"><g><rect class="cls-3" width="359.48" height="376.62" rx="38.98" ry="38.98"/><path class="cls-4" d="M354.59,339.24V57.21c0-20.94-16.98-37.92-37.92-37.92H42.81C21.86,19.29,4.89,36.27,4.89,57.21V345.83c0,5.94,1.52,13,6.09,18.91,7.09,7.32,17.01,11.88,28.01,11.88H320.5c9.5,0,18.21-3.4,24.97-9.05,6.8-6.95,9.13-17.06,9.13-28.33Z"/><g><path class="cls-2" d="M138.7,228.51h-13.16v7.8h12.79v6.21h-12.79v12.69h-6.49v-32.91h19.65v6.21Z"/><path class="cls-2" d="M161.03,231.71h6.06v23.5h-6.06v-2.77c-1.82,2.29-4.37,3.43-7.66,3.43s-5.82-1.2-8.06-3.6c-2.24-2.4-3.36-5.33-3.36-8.81s1.12-6.42,3.36-8.81c2.24-2.4,4.93-3.6,8.06-3.6,3.29,0,5.84,1.14,7.66,3.43v-2.77Zm-11.19,16.52c1.22,1.24,2.77,1.86,4.65,1.86s3.44-.62,4.68-1.86,1.86-2.83,1.86-4.77-.62-3.53-1.86-4.77-2.8-1.86-4.68-1.86-3.43,.62-4.65,1.86c-1.22,1.24-1.83,2.83-1.83,4.77s.61,3.53,1.83,4.77Z"/><path class="cls-2" d="M188.11,231.71h6.06v23.5h-6.06v-2.63c-1.47,2.19-3.81,3.29-7,3.29-2.57,0-4.69-.86-6.37-2.59-1.68-1.72-2.51-4.11-2.51-7.14v-14.43h6.06v13.68c0,1.57,.42,2.77,1.27,3.6,.85,.83,1.97,1.25,3.38,1.25,1.57,0,2.82-.49,3.76-1.46,.94-.97,1.41-2.43,1.41-4.37v-12.69Z"/><path class="cls-2" d="M199.72,255.21v-34.32h6.06v34.32h-6.06Z"/><path class="cls-2" d="M224.77,237.54h-5.31v9.78c0,.82,.2,1.41,.61,1.79,.41,.38,1,.59,1.79,.63s1.75,.04,2.92-.02v5.5c-4.17,.47-7.11,.08-8.81-1.18s-2.56-3.49-2.56-6.72v-9.78h-4.09v-5.83h4.09v-4.75l6.06-1.83v6.58h5.31v5.83Z"/><path class="cls-2" d="M244.89,231.71h6.49l-8.57,23.54c-1.22,3.36-2.84,5.79-4.86,7.32s-4.53,2.2-7.54,2.05v-5.64c1.63,.03,2.92-.31,3.88-1.03,.96-.72,1.72-1.88,2.28-3.48l-9.64-22.75h6.63l6.13,15.8,5.2-15.8Z"/></g><circle class="cls-1" cx="181.16" cy="167.99" r="31.12"/><path class="cls-2" d="M183.95,183.56c-.78,.78-1.72,1.18-2.82,1.18s-2.04-.39-2.82-1.18c-.78-.78-1.17-1.72-1.17-2.82s.39-2.04,1.17-2.82c.78-.78,1.72-1.17,2.82-1.17s2.04,.39,2.82,1.17c.78,.79,1.17,1.72,1.17,2.82s-.39,2.04-1.17,2.82Zm-5.22-10.48l-1.27-12.46v-9.4h7.29v9.4l-1.22,12.46h-4.79Z"/></g></g></svg>