<?xml version="1.0" encoding="utf-8"?>
<!-- Generator: Adobe Illustrator 26.3.1, SVG Export Plug-In . SVG Version: 6.00 Build 0)  -->
<svg version="1.1" id="Layer_1" xmlns="http://www.w3.org/2000/svg" xmlns:xlink="http://www.w3.org/1999/xlink" x="0px" y="0px"
	 viewBox="0 0 1920 1080" style="enable-background:new 0 0 1920 1080;" xml:space="preserve">
<style type="text/css">
	.st0{fill:#32315B;}
	.st1{fill:#FFFFFF;}
	.st2{fill:none;stroke:#FFFFFF;stroke-width:5;stroke-miterlimit:10;}
	.st3{opacity:0.3;}
	.st4{fill:#19192D;}
	.st5{fill:#D5D4D9;}
	.st6{fill:none;stroke:#B6B6B6;stroke-width:11;stroke-miterlimit:10;}
	.st7{fill:none;stroke:#19192D;stroke-width:14;stroke-miterlimit:10;}
	.st8{fill:#BC9835;}
	.st9{fill:#D0B04E;}
	.st10{fill:#B6B6B6;}
	.st11{opacity:0.51;clip-path:url(#SVGID_00000002359930980461235190000008838781475121498539_);}
	.st12{fill:none;stroke:#D5D4D9;stroke-width:2;stroke-miterlimit:10;}
	.st13{opacity:0.51;clip-path:url(#SVGID_00000181797260411735214260000005396357033963774904_);}
	.st14{clip-path:url(#SVGID_00000096027688262079021590000001463404623221066896_);}
	.st15{opacity:0.3;fill:#19192D;enable-background:new    ;}
	.st16{fill:#FC6D02;}
	.st17{fill:#E4E4E4;}
	.st18{fill:none;stroke:#FC6D02;stroke-width:2;stroke-miterlimit:10;}
	.st19{clip-path:url(#SVGID_00000177466701685170345280000001488372283203541888_);}
	.st20{enable-background:new    ;}
	.st21{fill:#393866;}
	.st22{fill:none;stroke:#393866;stroke-width:2;stroke-miterlimit:10;}
	.st23{opacity:0.51;clip-path:url(#SVGID_00000092438566592991786570000015635302329123036571_);}
	.st24{fill:none;stroke:#D5D4D9;stroke-width:3;stroke-miterlimit:10;}
	.st25{opacity:0.51;clip-path:url(#SVGID_00000005973320384877941400000013216577373348084881_);}
	.st26{opacity:0.51;clip-path:url(#SVGID_00000098911138432984948770000016491018269727771268_);}
	.st27{opacity:0.59;fill:#B6B6B6;enable-background:new    ;}
	.st28{fill:none;stroke:#FFFFFF;stroke-width:6;stroke-miterlimit:10;}
	.st29{opacity:0.23;fill:#FFFFFF;}
	.st30{fill:#E5E5E5;}
	.st31{fill:#19192C;}
	.st32{opacity:0.8;fill:#2D2D4A;}
	.st33{clip-path:url(#SVGID_00000099630531509039109170000002306642405254357388_);}
	.st34{fill:none;stroke:#6DB6AF;stroke-width:0.8283;stroke-miterlimit:10;}
	.st35{fill:none;stroke:#6DB6AF;stroke-width:2.2089;stroke-miterlimit:10;}
	.st36{clip-path:url(#SVGID_00000163056597287754449600000008712594630242077616_);}
	.st37{opacity:0.6;}
	.st38{clip-path:url(#SVGID_00000102534631428127555390000004886101476784764814_);}
	.st39{fill:none;stroke:#6DB6AF;stroke-width:0.4747;stroke-miterlimit:10;}
	.st40{fill:none;stroke:#FFFFFF;stroke-width:3.7976;stroke-miterlimit:10;}
	.st41{opacity:0.8;fill:none;stroke:#6DB6AF;stroke-width:1.2659;stroke-miterlimit:10;}
	.st42{fill:none;stroke:#FFFFFF;stroke-width:1.2659;stroke-miterlimit:10;}
	.st43{fill:none;stroke:#FF884D;stroke-width:3.3133;stroke-miterlimit:10;stroke-dasharray:7.5953;}
	.st44{fill:none;stroke:#D30741;stroke-width:3.3133;stroke-miterlimit:10;}
	.st45{fill:none;stroke:#D30741;stroke-width:3.3133;stroke-miterlimit:10;stroke-dasharray:7.5738,7.5738;}
	.st46{fill:none;stroke:#6DB6AF;stroke-width:2.5318;stroke-miterlimit:10;}
	.st47{opacity:0.8;}
	.st48{fill:none;stroke:#6DB6AF;stroke-width:3.3133;stroke-miterlimit:10;}
</style>
<g>
	<rect x="-40.8" y="-22.7" class="st0" width="1997.9" height="1123.3"/>
	<circle class="st1" cx="1883.2" cy="1040.4" r="8.6"/>
	<circle class="st1" cx="1883.2" cy="29.1" r="8.6"/>
	
		<ellipse transform="matrix(1.817843e-02 -0.9998 0.9998 1.817843e-02 -1008.079 1054.2235)" class="st1" cx="32.7" cy="1040.4" rx="8.6" ry="8.6"/>
	<circle class="st1" cx="32.7" cy="34.8" r="8.6"/>
</g>
<line class="st2" x1="812.3" y1="265" x2="1921" y2="265"/>
<g class="st3">
	<path class="st4" d="M545.7,1065.7V737.2h8.4v-12.5h0.1v-67.1h-0.1v-12.8h-42.2V637h-7.4v-9.7v-0.5V577l-5.9-22.2
		c3.9-37.6,15.5-71.1,46-84.3c13.7-5.9,28.7-7.7,42.4-4.9c21.4,4.3,41.9,20.3,56.1,43.8c34,56.1,40.1,127,46.1,195.4
		c1.9,22.4,3.8,43.5,6.6,64.2c5.3,39.9,11.7,82.2,25.2,122c16.8,49.7,40.6,82.8,72.7,101.3c21,12.1,41.8,18.1,62.3,18.1
		c11.7,0,23.4-2,34.8-6c71.7-24.9,119.8-122.3,142-178.2c31.4-78.6,132.1-308.2,160-400c29.5-96.8,69.8-311.3,71.8-429l-14-0.2
		c-2.1,117.2-42.7,328.9-71.8,425.2c-34.9,115.7-128.1,321.1-159,398.8c-10.6,26.6-28.2,65.4-52.2,99.7
		c-25.8,36.9-53.2,60.6-81.5,70.5c-27.5,9.5-56.2,5.8-85.5-11.1c-29-16.7-50.8-47.4-66.5-93.7c-13.1-38.7-19.3-80.2-24.6-119.4
		c-2.7-20.4-4.6-41.4-6.5-63.6c-6-70-12.3-142.5-48-201.4c-16.3-26.8-40.1-45.2-65.3-50.2c-16.4-3.3-34.4-1.3-50.7,5.8
		c-36.4,15.7-49.8,53.2-54.3,94.5h-0.5l-6.6,23.5v51.1v0.5v9.7h-7.4v7.8H428v12.8h-0.8v67.1h0.8v12.5h11v1l0,0v11l0,0v7.9l0,0v11
		l0,0v7.9l0,0v11l0,0v7.9l0,0v11l0,0v7.9l0,0v11l0,0v7.9l0,0v11l0,0v7.9l0,0v11l0,0v8l0,0v11l0,0v7.9l0,0v11l0,0v7.9l0,0v11l0,0v7.9
		l0,0v11l0,0v7.9l0,0v11l0,0v7.9l0,0v11l0,0v7.9l0,0v11l0,0v7.9l0,0v11l0,0v7.9l0,0v11l0,0v7.9l0,0v11l0,0v7.9l0,0v11l0,0v7.9l0,0
		v-27.9l0,0v7.9l0,0v11l0,0v7.9l0,0v49.9l0,0v-62.4"/>
</g>
<path class="st5" d="M506.8,1064.4h-93.4c-2.6-2.6-4-4-6.6-6.6V710.5h106.7v347.3C510.9,1060.3,509.4,1061.8,506.8,1064.4z"/>
<g>
	<line class="st6" x1="513.4" y1="1066.1" x2="406.8" y2="1066.1"/>
	<line class="st6" x1="513.4" y1="1047.1" x2="406.8" y2="1047.1"/>
	<line class="st6" x1="513.4" y1="1028.2" x2="406.8" y2="1028.2"/>
	<line class="st6" x1="513.4" y1="1009.3" x2="406.8" y2="1009.3"/>
	<line class="st6" x1="513.4" y1="990.3" x2="406.8" y2="990.3"/>
	<line class="st6" x1="513.4" y1="971.4" x2="406.8" y2="971.4"/>
	<line class="st6" x1="513.4" y1="952.4" x2="406.8" y2="952.4"/>
	<line class="st6" x1="513.4" y1="933.5" x2="406.8" y2="933.5"/>
	<line class="st6" x1="513.4" y1="914.6" x2="406.8" y2="914.6"/>
	<line class="st6" x1="513.4" y1="895.6" x2="406.8" y2="895.6"/>
	<line class="st6" x1="513.4" y1="876.7" x2="406.8" y2="876.7"/>
	<line class="st6" x1="513.4" y1="857.7" x2="406.8" y2="857.7"/>
</g>
<g>
	<line class="st6" x1="513.4" y1="838.7" x2="406.8" y2="838.7"/>
	<line class="st6" x1="513.4" y1="819.8" x2="406.8" y2="819.8"/>
	<line class="st6" x1="513.4" y1="800.8" x2="406.8" y2="800.8"/>
	<line class="st6" x1="513.4" y1="781.9" x2="406.8" y2="781.9"/>
	<line class="st6" x1="513.4" y1="762.9" x2="406.8" y2="762.9"/>
	<line class="st6" x1="513.4" y1="744" x2="406.8" y2="744"/>
	<line class="st6" x1="513.4" y1="725.1" x2="406.8" y2="725.1"/>
</g>
<path class="st7" d="M1230.7-9.7c-1,148.6-36.2,313.7-89.3,465.7c-41.5,119-86,237.1-139.2,351.4
	c-38.7,83.2-121.2,227.2-237.4,160.2c-69.1-39.8-85-147.4-94.5-218.2c-11.4-85.1-7.7-186.6-53.6-262.4c-13.6-22.5-34.9-41.8-60.7-47
	c-15.6-3.1-32-1-46.6,5.3c-67.2,29.1-49.9,143.8-49.9,203.4"/>
<rect x="445.4" y="608.1" class="st8" width="26.8" height="37.3"/>
<polygon class="st4" points="445.4,608.6 472.2,608.6 472.2,558.3 465.6,533.4 452,533.4 445.4,556.9 "/>
<rect x="438" y="618.3" class="st9" width="41.6" height="37.3"/>
<rect x="395.8" y="626" class="st5" width="126" height="92.5"/>
<rect x="395.8" y="638.9" class="st10" width="126" height="66.8"/>
<g>
	<g>
		<g>
			<defs>
				<rect id="SVGID_1_" x="395" y="638.9" width="127" height="67.1"/>
			</defs>
			<clipPath id="SVGID_00000103956947735870359550000002264445224394208401_">
				<use xlink:href="#SVGID_1_"  style="overflow:visible;"/>
			</clipPath>
			<g style="opacity:0.51;clip-path:url(#SVGID_00000103956947735870359550000002264445224394208401_);">
				<line class="st12" x1="397.1" y1="636.3" x2="397.1" y2="708.1"/>
				<line class="st12" x1="401.2" y1="636.3" x2="401.2" y2="708.1"/>
				<line class="st12" x1="405.3" y1="636.3" x2="405.3" y2="708.1"/>
				<line class="st12" x1="409.4" y1="636.3" x2="409.4" y2="708.1"/>
				<line class="st12" x1="413.5" y1="636.3" x2="413.5" y2="708.1"/>
				<line class="st12" x1="417.6" y1="636.3" x2="417.6" y2="708.1"/>
				<line class="st12" x1="421.7" y1="636.3" x2="421.7" y2="708.1"/>
				<line class="st12" x1="425.8" y1="636.3" x2="425.8" y2="708.1"/>
				<line class="st12" x1="429.9" y1="636.3" x2="429.9" y2="708.1"/>
				<line class="st12" x1="434" y1="636.3" x2="434" y2="708.1"/>
				<line class="st12" x1="438.1" y1="636.3" x2="438.1" y2="708.1"/>
				<line class="st12" x1="442.2" y1="636.3" x2="442.2" y2="708.1"/>
				<line class="st12" x1="446.3" y1="636.3" x2="446.3" y2="708.1"/>
				<line class="st12" x1="450.4" y1="636.3" x2="450.4" y2="708.1"/>
				<line class="st12" x1="454.5" y1="636.3" x2="454.5" y2="708.1"/>
				<line class="st12" x1="458.6" y1="636.3" x2="458.6" y2="708.1"/>
				<line class="st12" x1="462.7" y1="636.3" x2="462.7" y2="708.1"/>
				<line class="st12" x1="466.8" y1="636.3" x2="466.8" y2="708.1"/>
			</g>
		</g>
	</g>
	<g>
		<g>
			<defs>
				<rect id="SVGID_00000050628478807208709280000007088946094747348882_" x="395" y="638.9" width="127" height="67.1"/>
			</defs>
			<clipPath id="SVGID_00000175284355602686932300000002079889115947620520_">
				<use xlink:href="#SVGID_00000050628478807208709280000007088946094747348882_"  style="overflow:visible;"/>
			</clipPath>
			<g style="opacity:0.51;clip-path:url(#SVGID_00000175284355602686932300000002079889115947620520_);">
				<line class="st12" x1="471.3" y1="636.3" x2="471.3" y2="708.1"/>
				<line class="st12" x1="475.4" y1="636.3" x2="475.4" y2="708.1"/>
				<line class="st12" x1="479.5" y1="636.3" x2="479.5" y2="708.1"/>
				<line class="st12" x1="483.6" y1="636.3" x2="483.6" y2="708.1"/>
				<line class="st12" x1="487.7" y1="636.3" x2="487.7" y2="708.1"/>
				<line class="st12" x1="491.8" y1="636.3" x2="491.8" y2="708.1"/>
				<line class="st12" x1="496" y1="636.3" x2="496" y2="708.1"/>
				<line class="st12" x1="500.1" y1="636.3" x2="500.1" y2="708.1"/>
				<line class="st12" x1="504.2" y1="636.3" x2="504.2" y2="708.1"/>
				<line class="st12" x1="508.3" y1="636.3" x2="508.3" y2="708.1"/>
				<line class="st12" x1="512.4" y1="636.3" x2="512.4" y2="708.1"/>
				<line class="st12" x1="516.5" y1="636.3" x2="516.5" y2="708.1"/>
				<line class="st12" x1="520.6" y1="636.3" x2="520.6" y2="708.1"/>
				<line class="st12" x1="524.7" y1="636.3" x2="524.7" y2="708.1"/>
				<line class="st12" x1="528.8" y1="636.3" x2="528.8" y2="708.1"/>
				<line class="st12" x1="532.9" y1="636.3" x2="532.9" y2="708.1"/>
				<line class="st12" x1="537" y1="636.3" x2="537" y2="708.1"/>
				<line class="st12" x1="541.1" y1="636.3" x2="541.1" y2="708.1"/>
			</g>
		</g>
	</g>
</g>
<g>
	<g>
		<g>
			<defs>
				<rect id="SVGID_00000109743202865614974850000000275194196223957399_" x="892.4" y="-37.7" width="790.1" height="1117.3"/>
			</defs>
			<clipPath id="SVGID_00000171689306398241027790000008740904648718339263_">
				<use xlink:href="#SVGID_00000109743202865614974850000000275194196223957399_"  style="overflow:visible;"/>
			</clipPath>
			<g style="clip-path:url(#SVGID_00000171689306398241027790000008740904648718339263_);">
				<g class="st3">
					<path class="st4" d="M1317.6,84.3v17.4h173.5V84.3C1395.4,57.2,1317.6,84.3,1317.6,84.3z"/>
					<polygon class="st4" points="1142.9,68.8 1143,68.8 1143,45.2 1142.9,45.2 1142.9,23.2 1143,23.2 1143,15.9 1142.9,15.9 
						1142.9,-4.7 1096.7,-7.6 1096.7,-9.1 1096.6,-4.4 1096.6,23.2 1096.7,23.2 1096.7,45.2 1096.6,45.2 1096.6,68.8 1096.7,68.8 
						1096.7,86.5 1081.4,86.5 1081.4,102.4 1158.2,102.4 1158.2,86.5 1142.9,86.5 					"/>
				</g>
				<polygon class="st15" points="1655.2,1177.1 1650.5,137.9 1650.5,137.9 1651.8,129.5 1646.7,121.9 1237.9,114 1230.4,120.8 
					1229.5,125.9 1229.5,125.9 1228,135.2 1228,135.2 976.1,1177.4 1648,1177.1 1648,1177.4 1657,1177.4 1663.5,1177.1 				"/>
				<rect x="969.3" y="99" class="st4" width="634.2" height="1078.2"/>
				<rect x="969" y="99" class="st10" width="634.2" height="9.4"/>
				<rect x="969.3" y="108.3" class="st16" width="15.5" height="1069.2"/>
				<rect x="1587.5" y="108.2" class="st16" width="15.5" height="1069.2"/>
				<polygon class="st17" points="1603.2,101 969,101.3 969,94.1 975.3,86.1 1596.8,85.8 1603.2,92.5 				"/>
				<circle class="st10" cx="1041.6" cy="735.1" r="13"/>
				<circle class="st10" cx="1082.8" cy="735.1" r="13"/>
				<g>
					<path class="st18" d="M1177.3,943.7h-135.7c-6.6,0-12-5.4-12-12V796c0-6.6,5.4-12,12-12h135.7c6.6,0,12,5.4,12,12v135.7
						C1189.3,938.3,1183.9,943.7,1177.3,943.7z"/>
					<path class="st18" d="M1359.2,943.7h-135.7c-6.6,0-12-5.4-12-12V796c0-6.6,5.4-12,12-12h135.7c6.6,0,12,5.4,12,12v135.7
						C1371.2,938.3,1365.8,943.7,1359.2,943.7z"/>
					<path class="st18" d="M1541,943.7h-135.7c-6.6,0-12-5.4-12-12V796c0-6.6,5.4-12,12-12H1541c6.6,0,12,5.4,12,12v135.7
						C1553,938.3,1547.6,943.7,1541,943.7z"/>
				</g>
				<g>
					<path class="st18" d="M1177.3,1126.1h-135.7c-6.6,0-12-5.4-12-12V978.4c0-6.6,5.4-12,12-12h135.7c6.6,0,12,5.4,12,12v135.7
						C1189.3,1120.7,1183.9,1126.1,1177.3,1126.1z"/>
					<path class="st18" d="M1359.2,1126.1h-135.7c-6.6,0-12-5.4-12-12V978.4c0-6.6,5.4-12,12-12h135.7c6.6,0,12,5.4,12,12v135.7
						C1371.2,1120.7,1365.8,1126.1,1359.2,1126.1z"/>
					<path class="st18" d="M1541,1126.1h-135.7c-6.6,0-12-5.4-12-12V978.4c0-6.6,5.4-12,12-12H1541c6.6,0,12,5.4,12,12v135.7
						C1553,1120.7,1547.6,1126.1,1541,1126.1z"/>
				</g>
				<g>
					<g>
						<g>
							<defs>
								<rect id="SVGID_00000025416098728629317130000011959931632573329331_" x="935.2" y="1058.7" width="662.4" height="117.3"/>
							</defs>
							<clipPath id="SVGID_00000080180479239454471670000014002351113791239343_">
								<use xlink:href="#SVGID_00000025416098728629317130000011959931632573329331_"  style="overflow:visible;"/>
							</clipPath>
							<g style="clip-path:url(#SVGID_00000080180479239454471670000014002351113791239343_);">
								<path class="st18" d="M1177.3,1308.5h-135.7c-6.6,0-12-5.4-12-12v-135.7c0-6.6,5.4-12,12-12h135.7c6.6,0,12,5.4,12,12v135.7
									C1189.3,1303.1,1183.9,1308.5,1177.3,1308.5z"/>
								<path class="st18" d="M1359.2,1308.5h-135.7c-6.6,0-12-5.4-12-12v-135.7c0-6.6,5.4-12,12-12h135.7c6.6,0,12,5.4,12,12v135.7
									C1371.2,1303.1,1365.8,1308.5,1359.2,1308.5z"/>
								<path class="st18" d="M1541,1308.5h-135.7c-6.6,0-12-5.4-12-12v-135.7c0-6.6,5.4-12,12-12H1541c6.6,0,12,5.4,12,12v135.7
									C1553,1303.1,1547.6,1308.5,1541,1308.5z"/>
							</g>
						</g>
					</g>
				</g>
				<g class="st20">
					<path class="st21" d="M1088.5,852v22.1h-4.3v-14.3l-6.1,10.2h-0.5l-6.1-10.2v14.3h-4.3V852h4.4l6.2,10.4l6.2-10.4H1088.5z"/>
					<path class="st21" d="M1096.9,869.9h9.2v4.2h-13.4V852h13.3v4.2h-9v4.7h8.2v4.1h-8.2L1096.9,869.9L1096.9,869.9z"/>
					<path class="st21" d="M1121.6,852h4.3v22.1h-3.3l-9.3-13.5v13.5h-4.3V852h3.3l9.3,13.5V852z"/>
					<path class="st21" d="M1138,874.5c-2.4,0-4.4-0.7-6-2.1c-1.6-1.4-2.3-3.3-2.3-5.6V852h4.3v14.5c0,1.2,0.3,2.1,1,2.7
						c0.7,0.7,1.7,1,3.1,1s2.4-0.3,3.1-1s1-1.6,1-2.7V852h4.3v14.9c0,2.3-0.8,4.2-2.3,5.6C1142.5,873.8,1140.5,874.5,1138,874.5z"/>
				</g>
				<g class="st20">
					<path class="st21" d="M1275.1,874.5c-3.3,0-6-1.1-8.1-3.3s-3.2-4.9-3.2-8.2s1.1-6,3.2-8.2s4.8-3.3,8.1-3.3c2,0,3.8,0.5,5.4,1.4
						c1.7,0.9,3,2.2,3.9,3.8l-3.7,2.2c-0.5-1-1.3-1.8-2.3-2.3c-1-0.6-2.1-0.8-3.4-0.8c-2.1,0-3.8,0.7-5.1,2
						c-1.3,1.3-1.9,3.1-1.9,5.2c0,2.1,0.6,3.9,1.9,5.2s3,2,5.1,2c1.2,0,2.4-0.3,3.4-0.8c1-0.6,1.8-1.3,2.3-2.3l3.7,2.2
						c-0.9,1.6-2.2,2.9-3.9,3.8C1278.9,874.1,1277.1,874.5,1275.1,874.5z"/>
					<path class="st21" d="M1291.4,869.9h8.3v4.2h-12.6V852h4.3L1291.4,869.9L1291.4,869.9z"/>
					<path class="st21" d="M1314,874.1l-4.4-7.7h-3.2v7.7h-4.3V852h8.7c2,0,3.7,0.7,5.1,2.1c1.4,1.4,2.1,3.2,2.1,5.2
						c0,1.4-0.4,2.6-1.1,3.8s-1.8,2-3,2.6l4.8,8.3h-4.7V874.1z M1306.4,856.1v6.5h4.4c0.8,0,1.5-0.3,2.1-1c0.6-0.6,0.9-1.4,0.9-2.3
						c0-0.9-0.3-1.7-0.9-2.3s-1.3-0.9-2.1-0.9H1306.4z"/>
				</g>
				<g class="st20">
					<path class="st21" d="M1457.3,852v22.1h-4.3v-14.3l-6,10.2h-0.5l-6.1-10.2v14.3h-4.3V852h4.4l6.2,10.4l6.2-10.4H1457.3z"/>
					<path class="st21" d="M1465.7,869.9h9.2v4.2h-13.4V852h13.3v4.2h-9v4.7h8.2v4.1h-8.2L1465.7,869.9L1465.7,869.9z"/>
					<path class="st21" d="M1492.5,874.1l-1.4-4h-8.9l-1.3,4h-4.6l7.6-22.1h5.3l7.7,22.1H1492.5z M1483.5,866h6.1l-3.1-9L1483.5,866
						z"/>
					<path class="st21" d="M1505.8,874.5c-2.2,0-4-0.5-5.4-1.5s-2.5-2.3-3.1-4l3.7-2.2c0.8,2.3,2.5,3.4,5,3.4c1.2,0,2.1-0.2,2.6-0.7
						c0.6-0.4,0.8-1,0.8-1.7c0-0.8-0.3-1.4-1-1.8c-0.7-0.4-1.9-0.9-3.7-1.4c-1-0.3-1.8-0.6-2.5-0.9c-0.7-0.3-1.3-0.7-2-1.2
						s-1.2-1.1-1.5-1.9c-0.4-0.8-0.5-1.6-0.5-2.7c0-2,0.7-3.6,2.1-4.8s3.1-1.8,5-1.8c1.8,0,3.3,0.4,4.6,1.3c1.3,0.9,2.4,2.1,3.1,3.6
						l-3.6,2.1c-0.9-1.9-2.3-2.8-4.2-2.8c-0.9,0-1.6,0.2-2.1,0.6s-0.8,0.9-0.8,1.6c0,0.7,0.3,1.3,0.9,1.7s1.7,0.9,3.3,1.4
						c0.7,0.2,1.2,0.4,1.5,0.5s0.8,0.3,1.4,0.5s1,0.5,1.4,0.7c0.3,0.2,0.7,0.5,1.1,0.9s0.7,0.7,0.9,1.1c0.2,0.4,0.4,0.8,0.6,1.4
						c0.2,0.5,0.2,1.1,0.2,1.8c0,2-0.7,3.7-2.2,4.9S1508.2,874.5,1505.8,874.5z"/>
				</g>
				<g class="st20">
					<path class="st21" d="M1105.4,1055.8c-2.2,2.2-4.9,3.3-8,3.3s-5.8-1.1-8-3.3c-2.2-2.2-3.3-4.9-3.3-8.2s1.1-5.9,3.3-8.2
						s4.8-3.3,8-3.3c3.1,0,5.8,1.1,8,3.3s3.3,4.9,3.3,8.2S1107.6,1053.6,1105.4,1055.8z M1092.4,1052.8c1.3,1.4,3,2,5,2s3.7-0.7,5-2
						s2-3.1,2-5.2s-0.7-3.8-2-5.2s-3-2.1-5-2.1s-3.7,0.7-5,2.1s-2,3.1-2,5.2C1090.4,1049.8,1091.1,1051.5,1092.4,1052.8z"/>
					<path class="st21" d="M1128.7,1058.7h-4.9l-7.8-10.3v10.3h-4.3v-22.1h4.3v9.7l7.5-9.7h4.9l-8,10.7L1128.7,1058.7z"/>
				</g>
				<g class="st20">
					<path class="st21" d="M1451.4,1054.5h9.2v4.2h-13.4v-22.1h13.3v4.2h-9v4.7h8.2v4.1h-8.2L1451.4,1054.5L1451.4,1054.5z"/>
					<path class="st21" d="M1471,1059.1c-2.2,0-4-0.5-5.4-1.5s-2.5-2.3-3.1-4l3.7-2.2c0.8,2.3,2.5,3.4,5,3.4c1.2,0,2.1-0.2,2.6-0.7
						c0.6-0.4,0.8-1,0.8-1.7c0-0.8-0.3-1.4-1-1.8s-1.9-0.9-3.7-1.4c-1-0.3-1.8-0.6-2.5-0.9s-1.3-0.7-2-1.2s-1.2-1.1-1.5-1.9
						c-0.4-0.8-0.5-1.6-0.5-2.7c0-2,0.7-3.6,2.1-4.8c1.4-1.2,3.1-1.8,5-1.8c1.8,0,3.3,0.4,4.6,1.3c1.3,0.9,2.4,2.1,3.1,3.6l-3.6,2.1
						c-0.9-1.9-2.3-2.8-4.2-2.8c-0.9,0-1.6,0.2-2.1,0.6s-0.8,0.9-0.8,1.6s0.3,1.3,0.9,1.7c0.6,0.4,1.7,0.9,3.3,1.4
						c0.7,0.2,1.2,0.4,1.5,0.5s0.8,0.3,1.4,0.5s1,0.5,1.4,0.7c0.3,0.2,0.7,0.5,1.1,0.9s0.7,0.7,0.9,1.1c0.2,0.4,0.4,0.8,0.6,1.4
						c0.2,0.5,0.2,1.1,0.2,1.8c0,2-0.7,3.7-2.2,4.9S1473.3,1059.1,1471,1059.1z"/>
					<path class="st21" d="M1491.8,1059.1c-3.3,0-6-1.1-8.1-3.3c-2.1-2.2-3.2-4.9-3.2-8.2c0-3.3,1.1-6,3.2-8.2s4.8-3.3,8.1-3.3
						c2,0,3.8,0.5,5.4,1.4c1.7,0.9,3,2.2,3.9,3.8l-3.7,2.2c-0.5-1-1.3-1.8-2.3-2.3c-1-0.6-2.1-0.8-3.4-0.8c-2.1,0-3.8,0.7-5.1,2
						c-1.3,1.3-1.9,3.1-1.9,5.2s0.6,3.9,1.9,5.2c1.3,1.3,3,2,5.1,2c1.2,0,2.4-0.3,3.4-0.8c1-0.6,1.8-1.3,2.3-2.3l3.7,2.2
						c-0.9,1.6-2.2,2.9-3.9,3.8C1495.6,1058.7,1493.8,1059.1,1491.8,1059.1z"/>
				</g>
				<g>
					<path class="st22" d="M1286.5,1009.1l-35.3,61.1c-2.6,4.6,0.7,10.3,5.9,10.3h70.5c5.3,0,8.6-5.7,5.9-10.3l-35.3-61.1
						C1295.7,1004.6,1289.1,1004.6,1286.5,1009.1z"/>
					<line class="st22" x1="1292.4" y1="1037" x2="1292.4" y2="1061.9"/>
					<line class="st22" x1="1304.9" y1="1049.5" x2="1279.9" y2="1049.5"/>
				</g>
				<g>
					<rect x="1277.1" y="68.4" class="st10" width="173.5" height="17.4"/>
					<path class="st10" d="M1450.6,68.4h-173.5C1277.1,68.4,1354.9,41.3,1450.6,68.4z"/>
					<g>
						<g>
							<g>
								<defs>
									<rect id="SVGID_00000139977438589682522020000018162362769392532664_" x="1277.1" y="68.4" width="173.5" height="17.4"/>
								</defs>
								<clipPath id="SVGID_00000098908179970910682780000006439382411723389072_">
									<use xlink:href="#SVGID_00000139977438589682522020000018162362769392532664_"  style="overflow:visible;"/>
								</clipPath>
								<g style="opacity:0.51;clip-path:url(#SVGID_00000098908179970910682780000006439382411723389072_);">
									<line class="st24" x1="1284.9" y1="59.4" x2="1284.9" y2="92.3"/>
									<line class="st24" x1="1294.2" y1="59.4" x2="1294.2" y2="92.3"/>
									<line class="st24" x1="1303.5" y1="59.4" x2="1303.5" y2="92.3"/>
									<line class="st24" x1="1312.8" y1="59.4" x2="1312.8" y2="92.3"/>
									<line class="st24" x1="1322.1" y1="59.4" x2="1322.1" y2="92.3"/>
									<line class="st24" x1="1331.4" y1="59.4" x2="1331.4" y2="92.3"/>
									<line class="st24" x1="1340.7" y1="59.4" x2="1340.7" y2="92.3"/>
									<line class="st24" x1="1350" y1="59.4" x2="1350" y2="92.3"/>
									<line class="st24" x1="1359.3" y1="59.4" x2="1359.3" y2="92.3"/>
									<line class="st24" x1="1368.6" y1="59.4" x2="1368.6" y2="92.3"/>
									<line class="st24" x1="1377.8" y1="59.4" x2="1377.8" y2="92.3"/>
									<line class="st24" x1="1387.1" y1="59.4" x2="1387.1" y2="92.3"/>
									<line class="st24" x1="1396.4" y1="59.4" x2="1396.4" y2="92.3"/>
									<line class="st24" x1="1405.8" y1="59.4" x2="1405.8" y2="92.3"/>
									<line class="st24" x1="1415.1" y1="59.4" x2="1415.1" y2="92.3"/>
									<line class="st24" x1="1424.4" y1="59.4" x2="1424.4" y2="92.3"/>
									<line class="st24" x1="1433.7" y1="59.4" x2="1433.7" y2="92.3"/>
									<line class="st24" x1="1443" y1="59.4" x2="1443" y2="92.3"/>
								</g>
							</g>
						</g>
					</g>
					<rect x="1042.8" y="70.6" class="st5" width="76.8" height="15.9"/>
					<rect x="1058.1" y="-0.4" class="st10" width="46.2" height="70.9"/>
					<g>
						<g>
							<g>
								<defs>
									<rect id="SVGID_00000152222890396065769010000017086556542496565155_" x="1058" y="29.3" width="46.3" height="23.5"/>
								</defs>
								<clipPath id="SVGID_00000145772265330755363600000005405547180430061710_">
									<use xlink:href="#SVGID_00000152222890396065769010000017086556542496565155_"  style="overflow:visible;"/>
								</clipPath>
								<g style="opacity:0.51;clip-path:url(#SVGID_00000145772265330755363600000005405547180430061710_);">
									<line class="st12" x1="1060.3" y1="26.5" x2="1060.3" y2="59.4"/>
									<line class="st12" x1="1064.8" y1="26.5" x2="1064.8" y2="59.4"/>
									<line class="st12" x1="1069.2" y1="26.5" x2="1069.2" y2="59.4"/>
									<line class="st12" x1="1073.7" y1="26.5" x2="1073.7" y2="59.4"/>
									<line class="st12" x1="1078.2" y1="26.5" x2="1078.2" y2="59.4"/>
									<line class="st12" x1="1082.6" y1="26.5" x2="1082.6" y2="59.4"/>
									<line class="st12" x1="1087.1" y1="26.5" x2="1087.1" y2="59.4"/>
									<line class="st12" x1="1091.6" y1="26.5" x2="1091.6" y2="59.4"/>
									<line class="st12" x1="1096" y1="26.5" x2="1096" y2="59.4"/>
									<line class="st12" x1="1100.5" y1="26.5" x2="1100.5" y2="59.4"/>
									<line class="st12" x1="1104.9" y1="26.5" x2="1104.9" y2="59.4"/>
									<line class="st12" x1="1109.4" y1="26.5" x2="1109.4" y2="59.4"/>
									<line class="st12" x1="1113.9" y1="26.5" x2="1113.9" y2="59.4"/>
									<line class="st12" x1="1118.4" y1="26.5" x2="1118.4" y2="59.4"/>
									<line class="st12" x1="1122.8" y1="26.5" x2="1122.8" y2="59.4"/>
									<line class="st12" x1="1127.3" y1="26.5" x2="1127.3" y2="59.4"/>
									<line class="st12" x1="1131.8" y1="26.5" x2="1131.8" y2="59.4"/>
									<line class="st12" x1="1136.2" y1="26.5" x2="1136.2" y2="59.4"/>
								</g>
							</g>
						</g>
					</g>
					<g>
						<g>
							<g>
								<defs>
									<rect id="SVGID_00000095311614694529936220000004195985391212324520_" x="1058" width="46.3" height="7.2"/>
								</defs>
								<clipPath id="SVGID_00000096746043035786539350000004639635035583167665_">
									<use xlink:href="#SVGID_00000095311614694529936220000004195985391212324520_"  style="overflow:visible;"/>
								</clipPath>
								<g style="opacity:0.51;clip-path:url(#SVGID_00000096746043035786539350000004639635035583167665_);">
									<line class="st12" x1="1060.3" y1="-19.1" x2="1060.3" y2="13.7"/>
									<line class="st12" x1="1064.8" y1="-19.1" x2="1064.8" y2="13.7"/>
									<line class="st12" x1="1069.2" y1="-19.1" x2="1069.2" y2="13.7"/>
									<line class="st12" x1="1073.7" y1="-19.1" x2="1073.7" y2="13.7"/>
									<line class="st12" x1="1078.2" y1="-19.1" x2="1078.2" y2="13.7"/>
									<line class="st12" x1="1082.6" y1="-19.1" x2="1082.6" y2="13.7"/>
									<line class="st12" x1="1087.1" y1="-19.1" x2="1087.1" y2="13.7"/>
									<line class="st12" x1="1091.6" y1="-19.1" x2="1091.6" y2="13.7"/>
									<line class="st12" x1="1096" y1="-19.1" x2="1096" y2="13.7"/>
									<line class="st12" x1="1100.5" y1="-19.1" x2="1100.5" y2="13.7"/>
									<line class="st12" x1="1104.9" y1="-19.1" x2="1104.9" y2="13.7"/>
									<line class="st12" x1="1109.4" y1="-19.1" x2="1109.4" y2="13.7"/>
									<line class="st12" x1="1113.9" y1="-19.1" x2="1113.9" y2="13.7"/>
									<line class="st12" x1="1118.4" y1="-19.1" x2="1118.4" y2="13.7"/>
									<line class="st12" x1="1122.8" y1="-19.1" x2="1122.8" y2="13.7"/>
									<line class="st12" x1="1127.3" y1="-19.1" x2="1127.3" y2="13.7"/>
									<line class="st12" x1="1131.8" y1="-19.1" x2="1131.8" y2="13.7"/>
									<line class="st12" x1="1136.2" y1="-19.1" x2="1136.2" y2="13.7"/>
								</g>
							</g>
						</g>
					</g>
				</g>
			</g>
		</g>
	</g>
</g>
<g>
	<path class="st17" d="M553.4,1077.7H366.8v-26.4c0-5.2,4.2-9.4,9.4-9.4h168.2c5,0,9,4,9,9L553.4,1077.7L553.4,1077.7z"/>
	<path class="st10" d="M553.4,1049.1H366.8v2.2c0-5.2,4.2-9.4,9.4-9.4h168.2c5,0,9,4,9,9L553.4,1049.1L553.4,1049.1z"/>
	<path class="st27" d="M501.3,1077.7h-82.4v-30.5c0-3,2.4-5.3,5.3-5.3h68c5,0,9,4,9,9v26.8H501.3z"/>
</g>
<line class="st28" x1="187.8" y1="157.2" x2="187.8" y2="378"/>
<line class="st28" x1="808.3" y1="157.2" x2="808.3" y2="378"/>
<line class="st2" x1="-5.1" y1="265" x2="190.5" y2="265"/>
<path class="st28" d="M1123.6,559.6"/>
<g>
	<g>
		<g>
			<g>
				<rect x="1030" y="150.3" class="st29" width="512.4" height="474.9"/>
				<path class="st30" d="M1536.9,637.4l-503.3,0.3c-9.5,0-17.2-7.7-17.2-17.2l-0.3-463.2c0-9.5,7.7-17.2,17.2-17.2l503.3-0.3
					c9.5,0,17.2,7.7,17.2,17.2l0.3,463.2C1554.1,629.7,1546.4,637.4,1536.9,637.4z"/>
				<rect x="1030" y="150.3" class="st31" width="512.4" height="474.9"/>
				<rect x="1030" y="150.3" class="st32" width="512.4" height="474.9"/>
				<g>
					<defs>
						<rect id="SVGID_00000155105978744734265120000008845598433652747937_" x="1043.2" y="163.5" width="483.9" height="448.4"/>
					</defs>
					<clipPath id="SVGID_00000104669990460340972590000014157252543965012396_">
						<use xlink:href="#SVGID_00000155105978744734265120000008845598433652747937_"  style="overflow:visible;"/>
					</clipPath>
					<g style="clip-path:url(#SVGID_00000104669990460340972590000014157252543965012396_);">
						<rect x="729.2" y="-101" class="st34" width="1049" height="1236.9"/>
						<line class="st34" x1="1716.5" y1="1135.8" x2="1716.5" y2="-101"/>
						<line class="st34" x1="1654.8" y1="1135.8" x2="1654.8" y2="-101"/>
						<line class="st34" x1="1593.1" y1="1135.8" x2="1593.1" y2="-101"/>
						<line class="st34" x1="1531.4" y1="1135.8" x2="1531.4" y2="-101"/>
						<line class="st34" x1="1469.7" y1="1135.8" x2="1469.7" y2="-101"/>
						<line class="st34" x1="1407.9" y1="1135.8" x2="1407.9" y2="-101"/>
						<line class="st34" x1="1346.2" y1="1135.8" x2="1346.2" y2="-101"/>
						<line class="st34" x1="1284.5" y1="1135.8" x2="1284.5" y2="-101"/>
						<line class="st34" x1="1222.8" y1="1135.8" x2="1222.8" y2="-101"/>
						<line class="st34" x1="1161.1" y1="1135.8" x2="1161.1" y2="-101"/>
						<line class="st34" x1="1099.4" y1="1135.8" x2="1099.4" y2="-101"/>
						<line class="st34" x1="1037.7" y1="1135.8" x2="1037.7" y2="-101"/>
						<line class="st34" x1="976" y1="1135.8" x2="976" y2="-101"/>
						<line class="st34" x1="914.3" y1="1135.8" x2="914.3" y2="-101"/>
						<line class="st34" x1="852.6" y1="1135.8" x2="852.6" y2="-101"/>
						<line class="st34" x1="790.9" y1="1135.8" x2="790.9" y2="-101"/>
						<line class="st34" x1="729.2" y1="-35.9" x2="1778.2" y2="-35.9"/>
						<line class="st34" x1="729.2" y1="29.2" x2="1778.2" y2="29.2"/>
						<line class="st34" x1="729.2" y1="94.3" x2="1778.2" y2="94.3"/>
						<line class="st34" x1="729.2" y1="159.4" x2="1778.2" y2="159.4"/>
						<line class="st34" x1="729.2" y1="224.5" x2="1778.2" y2="224.5"/>
						<line class="st34" x1="729.2" y1="289.6" x2="1778.2" y2="289.6"/>
						<line class="st34" x1="729.2" y1="354.6" x2="1778.2" y2="354.6"/>
						<line class="st34" x1="729.2" y1="419.7" x2="1778.2" y2="419.7"/>
						<line class="st34" x1="729.2" y1="484.8" x2="1778.2" y2="484.8"/>
						<line class="st34" x1="729.2" y1="549.9" x2="1778.2" y2="549.9"/>
						<line class="st34" x1="729.2" y1="615" x2="1778.2" y2="615"/>
						<line class="st34" x1="729.2" y1="680.1" x2="1778.2" y2="680.1"/>
						<line class="st34" x1="729.2" y1="745.2" x2="1778.2" y2="745.2"/>
						<line class="st34" x1="729.2" y1="810.3" x2="1778.2" y2="810.3"/>
						<line class="st34" x1="729.2" y1="875.4" x2="1778.2" y2="875.4"/>
						<line class="st34" x1="729.2" y1="940.5" x2="1778.2" y2="940.5"/>
						<line class="st34" x1="729.2" y1="1005.6" x2="1778.2" y2="1005.6"/>
						<line class="st34" x1="729.2" y1="1070.7" x2="1778.2" y2="1070.7"/>
					</g>
				</g>
				<rect x="1043.2" y="163.5" class="st35" width="483.9" height="448.4"/>
			</g>
		</g>
	</g>
	<g>
		<g>
			<g>
				<defs>
					<rect id="SVGID_00000134245533239476528000000003790601443470651543_" x="1042.8" y="163.6" width="482.8" height="447.5"/>
				</defs>
				<clipPath id="SVGID_00000065035926798004290910000001679687044806567824_">
					<use xlink:href="#SVGID_00000134245533239476528000000003790601443470651543_"  style="overflow:visible;"/>
				</clipPath>
				<g style="clip-path:url(#SVGID_00000065035926798004290910000001679687044806567824_);">
					<path class="st32" d="M1621.1,642.8H950.3c-19.7,0-35.7-16-35.7-35.7V161.3c0-19.7,16-35.7,35.7-35.7h670.8
						c19.7,0,35.7,16,35.7,35.7v445.8C1656.8,626.8,1640.8,642.8,1621.1,642.8z"/>
					<rect x="883.4" y="95.7" class="st31" width="805.9" height="583.1"/>
					<g class="st37">
						<defs>
							<path id="SVGID_00000169522109202995336030000009146400490261458850_" class="st37" d="M1620.5,644H949.7
								c-19.7,0-35.7-16-35.7-35.7V162.5c0-19.7,16-35.7,35.7-35.7h670.8c19.7,0,35.7,16,35.7,35.7v445.8
								C1656.2,628,1640.2,644,1620.5,644z"/>
						</defs>
						<clipPath id="SVGID_00000169531065930361674810000003714018478230619798_">
							<use xlink:href="#SVGID_00000169522109202995336030000009146400490261458850_"  style="overflow:visible;"/>
						</clipPath>
						<g style="clip-path:url(#SVGID_00000169531065930361674810000003714018478230619798_);">
							<rect x="891.7" y="116.7" class="st39" width="774.1" height="548"/>
							<line class="st39" x1="891.7" y1="654" x2="1665.8" y2="654"/>
							<line class="st39" x1="891.7" y1="643.3" x2="1665.8" y2="643.3"/>
							<line class="st39" x1="891.7" y1="632.5" x2="1665.8" y2="632.5"/>
							<line class="st39" x1="891.7" y1="621.8" x2="1665.8" y2="621.8"/>
							<line class="st39" x1="891.7" y1="611" x2="1665.8" y2="611"/>
							<line class="st39" x1="891.7" y1="600.3" x2="1665.8" y2="600.3"/>
							<line class="st39" x1="891.7" y1="589.5" x2="1665.8" y2="589.5"/>
							<line class="st39" x1="891.7" y1="578.8" x2="1665.8" y2="578.8"/>
							<line class="st39" x1="891.7" y1="568.1" x2="1665.8" y2="568.1"/>
							<line class="st39" x1="891.7" y1="557.3" x2="1665.8" y2="557.3"/>
							<line class="st39" x1="891.7" y1="546.6" x2="1665.8" y2="546.6"/>
							<line class="st39" x1="891.7" y1="535.8" x2="1665.8" y2="535.8"/>
							<line class="st39" x1="891.7" y1="525.1" x2="1665.8" y2="525.1"/>
							<line class="st39" x1="891.7" y1="514.3" x2="1665.8" y2="514.3"/>
							<line class="st39" x1="891.7" y1="503.6" x2="1665.8" y2="503.6"/>
							<line class="st39" x1="891.7" y1="492.8" x2="1665.8" y2="492.8"/>
							<line class="st39" x1="891.7" y1="482.1" x2="1665.8" y2="482.1"/>
							<line class="st39" x1="891.7" y1="471.3" x2="1665.8" y2="471.3"/>
							<line class="st39" x1="891.7" y1="460.6" x2="1665.8" y2="460.6"/>
							<line class="st39" x1="891.7" y1="449.8" x2="1665.8" y2="449.8"/>
							<line class="st39" x1="891.7" y1="439.1" x2="1665.8" y2="439.1"/>
							<line class="st39" x1="891.7" y1="428.4" x2="1665.8" y2="428.4"/>
							<line class="st39" x1="891.7" y1="417.6" x2="1665.8" y2="417.6"/>
							<line class="st39" x1="891.7" y1="406.9" x2="1665.8" y2="406.9"/>
							<line class="st39" x1="891.7" y1="396.1" x2="1665.8" y2="396.1"/>
							<line class="st39" x1="891.7" y1="385.4" x2="1665.8" y2="385.4"/>
							<line class="st39" x1="891.7" y1="374.6" x2="1665.8" y2="374.6"/>
							<line class="st39" x1="891.7" y1="363.9" x2="1665.8" y2="363.9"/>
							<line class="st39" x1="891.7" y1="353.1" x2="1665.8" y2="353.1"/>
							<line class="st39" x1="891.7" y1="342.4" x2="1665.8" y2="342.4"/>
							<line class="st39" x1="891.7" y1="331.6" x2="1665.8" y2="331.6"/>
							<line class="st39" x1="891.7" y1="320.9" x2="1665.8" y2="320.9"/>
							<line class="st39" x1="891.7" y1="310.2" x2="1665.8" y2="310.2"/>
							<line class="st39" x1="891.7" y1="299.4" x2="1665.8" y2="299.4"/>
							<line class="st39" x1="891.7" y1="288.7" x2="1665.8" y2="288.7"/>
							<line class="st39" x1="891.7" y1="277.9" x2="1665.8" y2="277.9"/>
							<line class="st39" x1="891.7" y1="267.2" x2="1665.8" y2="267.2"/>
							<line class="st39" x1="891.7" y1="256.4" x2="1665.8" y2="256.4"/>
							<line class="st39" x1="891.7" y1="245.7" x2="1665.8" y2="245.7"/>
							<line class="st39" x1="891.7" y1="234.9" x2="1665.8" y2="234.9"/>
							<line class="st39" x1="891.7" y1="224.2" x2="1665.8" y2="224.2"/>
							<line class="st39" x1="891.7" y1="213.4" x2="1665.8" y2="213.4"/>
							<line class="st39" x1="891.7" y1="202.7" x2="1665.8" y2="202.7"/>
							<line class="st39" x1="891.7" y1="191.9" x2="1665.8" y2="191.9"/>
							<line class="st39" x1="891.7" y1="181.2" x2="1665.8" y2="181.2"/>
							<line class="st39" x1="891.7" y1="170.5" x2="1665.8" y2="170.5"/>
							<line class="st39" x1="891.7" y1="159.7" x2="1665.8" y2="159.7"/>
							<line class="st39" x1="891.7" y1="149" x2="1665.8" y2="149"/>
							<line class="st39" x1="891.7" y1="138.2" x2="1665.8" y2="138.2"/>
							<line class="st39" x1="891.7" y1="127.5" x2="1665.8" y2="127.5"/>
							<line class="st39" x1="1653.1" y1="116.7" x2="1653.1" y2="664.8"/>
							<line class="st39" x1="1640.4" y1="116.7" x2="1640.4" y2="664.8"/>
							<line class="st39" x1="1627.7" y1="116.7" x2="1627.7" y2="664.8"/>
							<line class="st39" x1="1615.1" y1="116.7" x2="1615.1" y2="664.8"/>
							<line class="st39" x1="1602.4" y1="116.7" x2="1602.4" y2="664.8"/>
							<line class="st39" x1="1589.7" y1="116.7" x2="1589.7" y2="664.8"/>
							<line class="st39" x1="1577" y1="116.7" x2="1577" y2="664.8"/>
							<line class="st39" x1="1564.3" y1="116.7" x2="1564.3" y2="664.8"/>
							<line class="st39" x1="1551.6" y1="116.7" x2="1551.6" y2="664.8"/>
							<line class="st39" x1="1538.9" y1="116.7" x2="1538.9" y2="664.8"/>
							<line class="st39" x1="1526.2" y1="116.7" x2="1526.2" y2="664.8"/>
							<line class="st39" x1="1513.5" y1="116.7" x2="1513.5" y2="664.8"/>
							<line class="st39" x1="1500.8" y1="116.7" x2="1500.8" y2="664.8"/>
							<line class="st39" x1="1488.1" y1="116.7" x2="1488.1" y2="664.8"/>
							<line class="st39" x1="1475.4" y1="116.7" x2="1475.4" y2="664.8"/>
							<line class="st39" x1="1462.8" y1="116.7" x2="1462.8" y2="664.8"/>
							<line class="st39" x1="1450.1" y1="116.7" x2="1450.1" y2="664.8"/>
							<line class="st39" x1="1437.4" y1="116.7" x2="1437.4" y2="664.8"/>
							<line class="st39" x1="1424.7" y1="116.7" x2="1424.7" y2="664.8"/>
							<line class="st39" x1="1412" y1="116.7" x2="1412" y2="664.8"/>
							<line class="st39" x1="1399.3" y1="116.7" x2="1399.3" y2="664.8"/>
							<line class="st39" x1="1386.6" y1="116.7" x2="1386.6" y2="664.8"/>
							<line class="st39" x1="1373.9" y1="116.7" x2="1373.9" y2="664.8"/>
							<line class="st39" x1="1361.2" y1="116.7" x2="1361.2" y2="664.8"/>
							<line class="st39" x1="1348.5" y1="116.7" x2="1348.5" y2="664.8"/>
							<line class="st39" x1="1335.8" y1="116.7" x2="1335.8" y2="664.8"/>
							<line class="st39" x1="1323.2" y1="116.7" x2="1323.2" y2="664.8"/>
							<line class="st39" x1="1310.5" y1="116.7" x2="1310.5" y2="664.8"/>
							<line class="st39" x1="1297.8" y1="116.7" x2="1297.8" y2="664.8"/>
							<line class="st39" x1="1285.1" y1="116.7" x2="1285.1" y2="664.8"/>
							<line class="st39" x1="1272.4" y1="116.7" x2="1272.4" y2="664.8"/>
							<line class="st39" x1="1259.7" y1="116.7" x2="1259.7" y2="664.8"/>
							<line class="st39" x1="1247" y1="116.7" x2="1247" y2="664.8"/>
							<line class="st39" x1="1234.3" y1="116.7" x2="1234.3" y2="664.8"/>
							<line class="st39" x1="1221.6" y1="116.7" x2="1221.6" y2="664.8"/>
							<line class="st39" x1="1208.9" y1="116.7" x2="1208.9" y2="664.8"/>
							<line class="st39" x1="1196.2" y1="116.7" x2="1196.2" y2="664.8"/>
							<line class="st39" x1="1183.6" y1="116.7" x2="1183.6" y2="664.8"/>
							<line class="st39" x1="1170.9" y1="116.7" x2="1170.9" y2="664.8"/>
							<line class="st39" x1="1158.2" y1="116.7" x2="1158.2" y2="664.8"/>
							<line class="st39" x1="1145.5" y1="116.7" x2="1145.5" y2="664.8"/>
							<line class="st39" x1="1132.8" y1="116.7" x2="1132.8" y2="664.8"/>
							<line class="st39" x1="1120.1" y1="116.7" x2="1120.1" y2="664.8"/>
							<line class="st39" x1="1107.4" y1="116.7" x2="1107.4" y2="664.8"/>
							<line class="st39" x1="1094.7" y1="116.7" x2="1094.7" y2="664.8"/>
							<line class="st39" x1="1082" y1="116.7" x2="1082" y2="664.8"/>
							<line class="st39" x1="1069.3" y1="116.7" x2="1069.3" y2="664.8"/>
							<line class="st39" x1="1056.6" y1="116.7" x2="1056.6" y2="664.8"/>
							<line class="st39" x1="1044" y1="116.7" x2="1044" y2="664.8"/>
							<line class="st39" x1="1031.3" y1="116.7" x2="1031.3" y2="664.8"/>
							<line class="st39" x1="1018.6" y1="116.7" x2="1018.6" y2="664.8"/>
							<line class="st39" x1="1005.9" y1="116.7" x2="1005.9" y2="664.8"/>
							<line class="st39" x1="993.2" y1="116.7" x2="993.2" y2="664.8"/>
							<line class="st39" x1="980.5" y1="116.7" x2="980.5" y2="664.8"/>
							<line class="st39" x1="967.8" y1="116.7" x2="967.8" y2="664.8"/>
							<line class="st39" x1="955.1" y1="116.7" x2="955.1" y2="664.8"/>
							<line class="st39" x1="942.4" y1="116.7" x2="942.4" y2="664.8"/>
							<line class="st39" x1="929.7" y1="116.7" x2="929.7" y2="664.8"/>
							<line class="st39" x1="917" y1="116.7" x2="917" y2="664.8"/>
							<line class="st39" x1="904.4" y1="116.7" x2="904.4" y2="664.8"/>
						</g>
					</g>
					<path class="st40" d="M900.6,234.7v-87.2c0-19.2,15.7-34.8,35-34.8h700.3c19.3,0,35,15.6,35,34.8v476.9
						c0,19.2-15.7,34.8-35,34.8H935.6c-19.3,0-35-15.6-35-34.8V230.8"/>
					<line class="st41" x1="966.5" y1="126.7" x2="966.5" y2="644"/>
					<line class="st41" x1="1093.9" y1="126.7" x2="1093.9" y2="644"/>
					<line class="st41" x1="1221.3" y1="126.7" x2="1221.3" y2="644"/>
					<line class="st42" x1="1656.8" y1="385.4" x2="914.6" y2="385.4"/>
					<line class="st41" x1="1348.7" y1="126.7" x2="1348.7" y2="644"/>
					<line class="st41" x1="1474.2" y1="127.4" x2="1474.2" y2="644.6"/>
					<line class="st41" x1="1601" y1="126.7" x2="1601" y2="644"/>
					<line class="st43" x1="914.6" y1="256.5" x2="1656.8" y2="256.5"/>
					<line class="st43" x1="914.6" y1="514.2" x2="1656.8" y2="514.2"/>
					<g>
						<g>
							<line class="st44" x1="914" y1="212.6" x2="917.8" y2="212.6"/>
							<line class="st45" x1="925.3" y1="212.6" x2="1648.6" y2="212.6"/>
							<line class="st44" x1="1652.4" y1="212.6" x2="1656.2" y2="212.6"/>
						</g>
					</g>
					<g>
						<g>
							<line class="st44" x1="914" y1="558.2" x2="917.8" y2="558.2"/>
							<line class="st45" x1="925.3" y1="558.2" x2="1648.6" y2="558.2"/>
							<line class="st44" x1="1652.4" y1="558.2" x2="1656.2" y2="558.2"/>
						</g>
					</g>
					<path class="st46" d="M917,385.4"/>
				</g>
			</g>
			<g>
				<g class="st47">
					<path class="st48" d="M1043.1,382.4c6-0.2,6,5.9,12.1,6.1c6,0.2,6-6.6,12.1-6.8c6-0.2,6,7.3,12.1,7.6c6,0.2,6-8.1,12.1-8.3
						c6-0.2,6,8.8,12.1,9c6,0.2,6-9.5,12.1-9.8c3-0.1,4.5,2.4,6,5.1c0.8,1.3,1.5,2.6,2.5,3.7c0.9,1,2.1,1.7,3.6,2.1
						c1.5,0.4,2.6,0.4,3.6-0.7c0.9-1,1.7-2.8,2.5-5.1c0.8-2.3,1.5-5,2.5-7.9c0.5-1.4,1-2.7,1.6-4.1c0.6-1.3,1.3-2.5,2-3.4
						c1.5-1.7,2.6-0.9,3.6,2c0.9,2.9,1.7,7.8,2.5,13.3c0.8,5.5,1.5,11.5,2.5,16.6c0.9,5,2.1,9.1,3.6,9.8c3,1.6,4.5-12.6,6-26.4
						c1.5-13.9,3-27.6,6-26.1c0.4,0.2,0.7,0.6,1.1,1.1c0.3,0.6,0.6,1.3,0.9,2.2c0.6,1.7,1.1,3.9,1.6,6.4c0.9,5,1.7,10.9,2.5,16.4
						c0.8,5.5,1.5,10.4,2.5,13.5c0.9,3,2.1,4.1,3.6,2.5c1.5-1.5,2.6-4.5,3.6-7.4c0.9-2.9,1.7-6,2.5-8.6c0.8-2.6,1.5-4.7,2.5-6
						c0.9-1.2,2.1-1.5,3.6-1c0.8,0.3,1.4,0.6,2,1c0.6,0.4,1.1,1,1.6,1.5c0.9,1.2,1.7,2.8,2.5,4.5c0.8,1.7,1.5,3.5,2.5,5.3
						c0.9,1.7,2.1,3.4,3.6,4.3c1.5,0.9,2.6,0.4,3.6-1.4c0.9-1.8,1.7-4.7,2.5-8.1c0.8-3.4,1.5-7.2,2.5-10.6c0.5-1.7,1-3.3,1.6-4.7
						c0.6-1.4,1.3-2.5,2-3.2c3-3.1,4.5,6.1,6,18.6c0.8,6.2,1.5,12.9,2.5,18.8c0.9,5.9,2.1,11,3.6,12.9c0.8,0.9,1.4,0.9,2-0.3
						c0.6-1.2,1.1-3.4,1.6-6.3c0.9-6,1.7-15.1,2.5-25c0.8-10,1.5-20.7,2.5-29.8c0.9-9.1,2.1-16.6,3.6-19c0.8-1.1,1.4-0.7,2,1.3
						c0.6,2,1.1,5.4,1.6,10c0.9,9.2,1.7,22.8,2.5,37.5c0.8,14.6,1.5,30.3,2.5,43.2c0.5,6.4,1,12.2,1.6,16.7c0.6,4.5,1.3,7.8,2,9
						c0.8,1.4,1.4,0.4,2-2.6c0.6-3,1.1-8,1.6-14.5c0.9-12.9,1.7-31.9,2.5-51.8c0.8-19.9,1.5-40.9,2.5-57.9c0.5-8.5,1-15.9,1.6-21.7
						c0.6-5.7,1.3-9.7,2-11.1c1.5-2.8,2.6,6.8,3.6,23.9c0.9,17,1.7,41.4,2.5,66.8c0.8,25.4,1.5,51.7,2.5,72.7
						c0.9,20.9,2.1,36.7,3.6,39.3c1.5,2.6,2.6-9.8,3.6-30.9c0.9-21,1.7-50.6,2.5-81.1c0.8-30.5,1.5-61.9,2.5-86.6
						c0.5-12.3,1-22.9,1.6-30.8c0.6-7.8,1.3-12.8,2-14c0.8-1.1,1.4,2,2,8.6c0.6,6.6,1.1,16.6,1.6,28.9c0.9,24.7,1.7,58.8,2.5,93.7
						c0.8,34.9,1.5,70.5,2.5,98c0.9,27.6,2.1,47,3.6,48.7c3,3.7,4.5-70.3,6-146.7c0.8-38.2,1.5-76.9,2.5-106.5
						c0.5-14.8,1-27.3,1.6-36.2c0.6-8.9,1.3-14.3,2-14.9c1.5-1,2.6,18.1,3.6,47.7c0.9,29.6,1.7,69.6,2.5,109.9
						c0.8,40.3,1.5,80.9,2.5,111.6c0.5,15.4,1,28.2,1.6,37.3c0.6,9.1,1.3,14.5,2,14.7c0.8,0.2,1.4-4.7,2-13.6
						c0.6-8.9,1.1-21.6,1.6-37c0.9-30.7,1.7-71.9,2.5-113c0.8-41.2,1.5-82.4,2.5-113.3c0.9-31,2.1-51.6,3.6-50.6
						c1.5,1,2.6,22.9,3.6,53.9c0.9,31,1.7,71.2,2.5,110.1c0.8,39,1.5,76.8,2.5,103.2c0.5,13.2,1,23.5,1.6,30
						c0.3,3.1,0.6,5.3,0.9,6.3c0.3,1,0.7,1.1,1.1-0.3c0.4-1.3,0.7-3.6,1.1-6.8c0.2-1.5,0.3-3.4,0.5-5.3c0.1-1.9,0.3-4,0.5-6.5
						c0.3-4.6,0.6-9.9,0.8-15.6c0.2-5.5,0.5-11.8,0.7-18.6c0.9-26.2,1.7-57.7,2.5-86.5c0.8-28.9,1.5-55,2.5-71.6
						c0.2-4.1,0.5-7.7,0.7-10.5c0.3-2.8,0.5-4.9,0.8-6.3c0.6-2.7,1.3-2.3,2,1.3c0.8,3.6,1.4,9.5,2,16.3c0.6,6.8,1.1,14.7,1.6,22.7
						c0.9,16.1,1.7,33.4,2.5,48c0.8,14.6,1.5,26.8,2.5,33.1c0.2,1.6,0.5,2.8,0.7,3.6c0.3,0.8,0.5,1.4,0.8,1.5
						c0.3,0.1,0.6-0.2,0.9-0.9c0.3-0.6,0.7-1.6,1.1-2.9c0.2-0.7,0.4-1.4,0.5-2.1c0.2-0.7,0.3-1.4,0.5-2.2c0.3-1.5,0.6-3.1,0.9-4.7
						c0.6-3.2,1.1-6.3,1.6-9.4c0.9-6.1,1.7-11.6,2.5-15.9c0.8-4.3,1.5-7.3,2.5-8.6c0.9-1.3,2.1-0.9,3.6,0.3c0.4,0.2,0.7,0.6,1.1,0.8
						c0.3,0.2,0.6,0.5,0.9,0.8c0.6,0.5,1.1,1.1,1.6,1.8c0.9,1.4,1.7,3.1,2.5,4.8c1.5,3.5,3,6.8,6,6.6c6-0.4,6-12.8,12.1-12.9
						c6-0.2,6,12.5,12.1,13.1c1.5,0.1,2.6-0.7,3.6-1.9c0.9-1.3,1.7-3.1,2.5-4.9c0.8-1.9,1.5-3.8,2.5-5.3c0.9-1.5,2.1-2.7,3.6-3
						c3-0.5,4.5,3.6,6,8.3c0.8,2.3,1.5,4.8,2.5,6.8c0.9,1.9,2.1,3.5,3.6,3.9c3,0.8,4.5-4.5,6-10.6c0.8-3,1.5-6.2,2.5-8.8
						c0.9-2.6,2.1-4.7,3.6-5.2c1.5-0.5,2.6,0.9,3.6,3.6c0.9,2.6,1.7,6.4,2.5,10.5c0.8,4,1.5,8.2,2.5,11.6c0.9,3.4,2.1,6.1,3.6,6.7
						c1.5,0.6,2.6-1.3,3.6-4.7c0.9-3.4,1.7-8.4,2.5-13.6c0.8-5.2,1.5-10.6,2.5-15c0.9-4.4,2.1-7.8,3.6-8.5c1.5-0.7,2.6,1.7,3.6,6.2
						c0.9,4.4,1.7,10.8,2.5,17.4c0.8,6.6,1.5,13.5,2.5,19c0.9,5.5,2.1,9.8,3.6,10.6c1.5,0.8,2.6-2.3,3.6-7.9
						c0.9-5.6,1.7-13.5,2.5-21.7c0.8-8.2,1.5-16.8,2.5-23.6c0.9-6.8,2.1-12,3.6-12.9c1.5-0.9,2.6,3.1,3.6,9.9
						c0.9,6.9,1.7,16.6,2.5,26.6c0.8,10,1.5,20.4,2.5,28.7c0.9,8.2,2.1,14.3,3.6,15.3c1.5,1,2.6-3.9,3.6-12.2
						c0.9-8.3,1.7-19.9,2.5-31.8c0.8-12,1.5-24.3,2.5-34.1c0.9-9.7,2.1-16.9,3.6-17.9"/>
				</g>
			</g>
		</g>
		<rect x="1043.2" y="162.9" class="st35" width="483.9" height="448.4"/>
	</g>
</g>
</svg>
