<?xml version="1.0" encoding="utf-8"?>
<!-- Generator: Adobe Illustrator 26.2.1, SVG Export Plug-In . SVG Version: 6.00 Build 0)  -->
<svg version="1.1" id="Layer_1" xmlns="http://www.w3.org/2000/svg" xmlns:xlink="http://www.w3.org/1999/xlink" x="0px" y="0px"
	 viewBox="0 0 1920 1080" style="enable-background:new 0 0 1920 1080;" xml:space="preserve">
<style type="text/css">
	.st0{fill:#32315B;}
	.st1{fill:#FFFFFF;}
	.st2{fill:none;stroke:#FFFFFF;stroke-width:5;stroke-miterlimit:10;}
	.st3{opacity:0.3;}
	.st4{fill:#19192D;}
	.st5{fill:#D5D4D9;}
	.st6{fill:none;stroke:#B6B6B6;stroke-width:11;stroke-miterlimit:10;}
	.st7{fill:none;stroke:#19192D;stroke-width:14;stroke-miterlimit:10;}
	.st8{fill:#BC9835;}
	.st9{fill:#D0B04E;}
	.st10{fill:#B6B6B6;}
	.st11{opacity:0.51;clip-path:url(#SVGID_00000101805907228301622940000004317607975580971704_);}
	.st12{fill:none;stroke:#D5D4D9;stroke-width:2;stroke-miterlimit:10;}
	.st13{clip-path:url(#SVGID_00000118362614878365227940000016569504262409283492_);}
	.st14{opacity:0.3;fill:#19192D;}
	.st15{fill:#FC6D02;}
	.st16{fill:#E4E4E4;}
	.st17{opacity:0.23;fill:#FFFFFF;}
	.st18{opacity:0.8;fill:#2D2D4C;}
	.st19{opacity:0.19;}
	.st20{clip-path:url(#SVGID_00000078729302526876316500000008206256362849535629_);}
	.st21{fill:none;stroke:#51B7AE;stroke-width:0.75;stroke-miterlimit:10;}
	.st22{fill:none;stroke:#51B7AE;stroke-width:2;stroke-miterlimit:10;}
	.st23{fill:none;stroke:#FC6D02;stroke-width:2;stroke-miterlimit:10;}
	.st24{clip-path:url(#SVGID_00000098919327272333582200000013646717673892982198_);}
	.st25{fill:#393866;}
	.st26{font-family:'Gilroy-Medium';}
	.st27{font-size:31.5649px;}
	.st28{fill:none;stroke:#393866;stroke-width:2;stroke-miterlimit:10;}
	.st29{opacity:0.51;clip-path:url(#SVGID_00000183242777264925501870000006544974216440626590_);}
	.st30{fill:none;stroke:#D5D4D9;stroke-width:3;stroke-miterlimit:10;}
	.st31{opacity:0.51;clip-path:url(#SVGID_00000042010538389814931190000004895708456941582780_);}
	.st32{opacity:0.51;clip-path:url(#SVGID_00000083086357963023706180000004251005542315733633_);}
	.st33{opacity:0.59;fill:#B6B6B6;}
	.st34{fill:none;stroke:#FFFFFF;stroke-width:6;stroke-miterlimit:10;}
</style>
<g>
	<rect x="-40.8" y="-22.7" class="st0" width="1997.9" height="1123.3"/>
	<circle class="st1" cx="1883.2" cy="1040.4" r="8.6"/>
	<circle class="st1" cx="1883.2" cy="29.1" r="8.6"/>
	<circle class="st1" cx="32.7" cy="1040.4" r="8.6"/>
	<circle class="st1" cx="32.7" cy="34.8" r="8.6"/>
</g>
<line class="st2" x1="812.3" y1="265" x2="1921" y2="265"/>
<g class="st3">
	<path class="st4" d="M545.7,1065.7V737.2h8.4v-12.5h0.1v-67.1h-0.1v-12.8h-42.2v-7.8h-7.4v-9.7v-0.5v-49.8l-5.9-22.2
		c3.9-37.6,15.5-71.1,46-84.3c13.7-5.9,28.7-7.7,42.4-4.9c21.4,4.3,41.9,20.3,56.1,43.8c34,56.1,40.1,127,46.1,195.4
		c1.9,22.4,3.8,43.5,6.6,64.2c5.3,39.9,11.7,82.2,25.2,122c16.8,49.7,40.6,82.8,72.7,101.3c21,12.1,41.8,18.1,62.3,18.1
		c11.7,0,23.4-2,34.8-6c71.7-24.9,119.8-122.3,142-178.2c31.4-78.6,132.1-308.2,160-400c29.5-96.8,69.8-311.3,71.8-429l-14-0.2
		c-2.1,117.2-42.7,328.9-71.8,425.2c-34.9,115.7-128.1,321.1-159,398.8c-10.6,26.6-28.2,65.4-52.2,99.7
		c-25.8,36.9-53.2,60.6-81.5,70.5c-27.5,9.5-56.2,5.8-85.5-11.1c-29-16.7-50.8-47.4-66.5-93.7c-13.1-38.7-19.3-80.2-24.6-119.4
		c-2.7-20.4-4.6-41.4-6.5-63.6C697,633.4,690.7,560.9,655,502c-16.3-26.8-40.1-45.2-65.3-50.2c-16.4-3.3-34.4-1.3-50.7,5.8
		c-36.4,15.7-49.8,53.2-54.3,94.5h-0.5l-6.6,23.5v51.1v0.5v9.7h-7.4v7.8h-42.2v12.8h-0.8v67.1h0.8v12.5h11v1h0v11h0v7.9h0v11h0v7.9
		h0v11h0v7.9h0v11h0v7.9h0v11h0v7.9h0v11h0v7.9h0v11h0v8h0v11h0v7.9h0v11h0v7.9h0v11h0v7.9h0v11h0v7.9h0v11h0v7.9h0v11h0v7.9h0v11h0
		v7.9h0v11h0v7.9h0v11h0v7.9h0v11h0v7.9h0v11h0v7.9h0v-27.9h0v7.9h0v11h0v7.9h0v49.9h0v-62.4"/>
</g>
<path class="st5" d="M506.8,1064.4h-93.4c-2.6-2.6-4-4-6.6-6.6V710.5h106.7v347.3C510.9,1060.3,509.4,1061.8,506.8,1064.4z"/>
<g>
	<line class="st6" x1="513.4" y1="1066.1" x2="406.8" y2="1066.1"/>
	<line class="st6" x1="513.4" y1="1047.1" x2="406.8" y2="1047.1"/>
	<line class="st6" x1="513.4" y1="1028.2" x2="406.8" y2="1028.2"/>
	<line class="st6" x1="513.4" y1="1009.3" x2="406.8" y2="1009.3"/>
	<line class="st6" x1="513.4" y1="990.3" x2="406.8" y2="990.3"/>
	<line class="st6" x1="513.4" y1="971.4" x2="406.8" y2="971.4"/>
	<line class="st6" x1="513.4" y1="952.4" x2="406.8" y2="952.4"/>
	<line class="st6" x1="513.4" y1="933.5" x2="406.8" y2="933.5"/>
	<line class="st6" x1="513.4" y1="914.6" x2="406.8" y2="914.6"/>
	<line class="st6" x1="513.4" y1="895.6" x2="406.8" y2="895.6"/>
	<line class="st6" x1="513.4" y1="876.7" x2="406.8" y2="876.7"/>
	<line class="st6" x1="513.4" y1="857.7" x2="406.8" y2="857.7"/>
</g>
<g>
	<line class="st6" x1="513.4" y1="838.7" x2="406.8" y2="838.7"/>
	<line class="st6" x1="513.4" y1="819.8" x2="406.8" y2="819.8"/>
	<line class="st6" x1="513.4" y1="800.8" x2="406.8" y2="800.8"/>
	<line class="st6" x1="513.4" y1="781.9" x2="406.8" y2="781.9"/>
	<line class="st6" x1="513.4" y1="762.9" x2="406.8" y2="762.9"/>
	<line class="st6" x1="513.4" y1="744" x2="406.8" y2="744"/>
	<line class="st6" x1="513.4" y1="725.1" x2="406.8" y2="725.1"/>
</g>
<path class="st7" d="M1230.7-9.7c-1,148.6-36.2,313.7-89.3,465.7c-41.5,119-86,237.1-139.2,351.4
	c-38.7,83.2-121.2,227.2-237.4,160.2c-69.1-39.8-85-147.4-94.5-218.2c-11.4-85.1-7.7-186.6-53.6-262.4c-13.6-22.5-34.9-41.8-60.7-47
	c-15.6-3.1-32-1-46.6,5.3c-67.2,29.1-49.9,143.8-49.9,203.4"/>
<rect x="445.4" y="608.1" class="st8" width="26.8" height="37.3"/>
<polygon class="st4" points="445.4,608.6 472.2,608.6 472.2,558.3 465.6,533.4 452,533.4 445.4,556.9 "/>
<rect x="438" y="618.3" class="st9" width="41.6" height="37.3"/>
<rect x="395.8" y="626" class="st5" width="126" height="92.5"/>
<rect x="395.8" y="638.9" class="st10" width="126" height="66.8"/>
<g>
	<defs>
		<rect id="SVGID_1_" x="395" y="638.9" width="127" height="67.1"/>
	</defs>
	<clipPath id="SVGID_00000114039241317341881170000017699901066008990388_">
		<use xlink:href="#SVGID_1_"  style="overflow:visible;"/>
	</clipPath>
	<g style="opacity:0.51;clip-path:url(#SVGID_00000114039241317341881170000017699901066008990388_);">
		<line class="st12" x1="397.1" y1="636.3" x2="397.1" y2="708.1"/>
		<line class="st12" x1="401.2" y1="636.3" x2="401.2" y2="708.1"/>
		<line class="st12" x1="405.3" y1="636.3" x2="405.3" y2="708.1"/>
		<line class="st12" x1="409.4" y1="636.3" x2="409.4" y2="708.1"/>
		<line class="st12" x1="413.5" y1="636.3" x2="413.5" y2="708.1"/>
		<line class="st12" x1="417.6" y1="636.3" x2="417.6" y2="708.1"/>
		<line class="st12" x1="421.7" y1="636.3" x2="421.7" y2="708.1"/>
		<line class="st12" x1="425.8" y1="636.3" x2="425.8" y2="708.1"/>
		<line class="st12" x1="429.9" y1="636.3" x2="429.9" y2="708.1"/>
		<line class="st12" x1="434" y1="636.3" x2="434" y2="708.1"/>
		<line class="st12" x1="438.1" y1="636.3" x2="438.1" y2="708.1"/>
		<line class="st12" x1="442.2" y1="636.3" x2="442.2" y2="708.1"/>
		<line class="st12" x1="446.3" y1="636.3" x2="446.3" y2="708.1"/>
		<line class="st12" x1="450.4" y1="636.3" x2="450.4" y2="708.1"/>
		<line class="st12" x1="454.5" y1="636.3" x2="454.5" y2="708.1"/>
		<line class="st12" x1="458.6" y1="636.3" x2="458.6" y2="708.1"/>
		<line class="st12" x1="462.7" y1="636.3" x2="462.7" y2="708.1"/>
		<line class="st12" x1="466.8" y1="636.3" x2="466.8" y2="708.1"/>
	</g>
	<g style="opacity:0.51;clip-path:url(#SVGID_00000114039241317341881170000017699901066008990388_);">
		<line class="st12" x1="471.3" y1="636.3" x2="471.3" y2="708.1"/>
		<line class="st12" x1="475.4" y1="636.3" x2="475.4" y2="708.1"/>
		<line class="st12" x1="479.5" y1="636.3" x2="479.5" y2="708.1"/>
		<line class="st12" x1="483.6" y1="636.3" x2="483.6" y2="708.1"/>
		<line class="st12" x1="487.7" y1="636.3" x2="487.7" y2="708.1"/>
		<line class="st12" x1="491.8" y1="636.3" x2="491.8" y2="708.1"/>
		<line class="st12" x1="496" y1="636.3" x2="496" y2="708.1"/>
		<line class="st12" x1="500.1" y1="636.3" x2="500.1" y2="708.1"/>
		<line class="st12" x1="504.2" y1="636.3" x2="504.2" y2="708.1"/>
		<line class="st12" x1="508.3" y1="636.3" x2="508.3" y2="708.1"/>
		<line class="st12" x1="512.4" y1="636.3" x2="512.4" y2="708.1"/>
		<line class="st12" x1="516.5" y1="636.3" x2="516.5" y2="708.1"/>
		<line class="st12" x1="520.6" y1="636.3" x2="520.6" y2="708.1"/>
		<line class="st12" x1="524.7" y1="636.3" x2="524.7" y2="708.1"/>
		<line class="st12" x1="528.8" y1="636.3" x2="528.8" y2="708.1"/>
		<line class="st12" x1="532.9" y1="636.3" x2="532.9" y2="708.1"/>
		<line class="st12" x1="537" y1="636.3" x2="537" y2="708.1"/>
		<line class="st12" x1="541.1" y1="636.3" x2="541.1" y2="708.1"/>
	</g>
</g>
<g>
	<defs>
		<rect id="SVGID_00000169560415059335341850000001352804832050381185_" x="892.4" y="-37.7" width="790.1" height="1117.3"/>
	</defs>
	<clipPath id="SVGID_00000093145063758134805890000006822279301708331145_">
		<use xlink:href="#SVGID_00000169560415059335341850000001352804832050381185_"  style="overflow:visible;"/>
	</clipPath>
	<g style="clip-path:url(#SVGID_00000093145063758134805890000006822279301708331145_);">
		<g class="st3">
			<path class="st4" d="M1317.6,84.3v17.4h173.5V84.3C1395.4,57.2,1317.6,84.3,1317.6,84.3z"/>
			<polygon class="st4" points="1142.9,68.8 1143,68.8 1143,45.2 1142.9,45.2 1142.9,23.2 1143,23.2 1143,15.9 1142.9,15.9 
				1142.9,-4.7 1096.7,-7.6 1096.7,-9.1 1096.6,-4.4 1096.6,23.2 1096.7,23.2 1096.7,45.2 1096.6,45.2 1096.6,68.8 1096.7,68.8 
				1096.7,86.5 1081.4,86.5 1081.4,102.4 1158.2,102.4 1158.2,86.5 1142.9,86.5 			"/>
		</g>
		<polygon class="st14" points="1655.2,1177.1 1650.5,137.9 1650.5,137.9 1651.8,129.5 1646.7,121.9 1237.9,114 1230.4,120.8 
			1229.5,125.9 1229.5,125.9 1228,135.2 1228,135.2 976.1,1177.4 1648,1177.1 1648,1177.4 1657,1177.4 1663.5,1177.1 		"/>
		<rect x="969.3" y="99" class="st4" width="634.2" height="1078.2"/>
		<rect x="969" y="99" class="st10" width="634.2" height="9.4"/>
		<rect x="969.3" y="108.3" class="st15" width="15.5" height="1069.2"/>
		<rect x="1587.5" y="108.2" class="st15" width="15.5" height="1069.2"/>
		<polygon class="st16" points="1603.2,101 969,101.3 969,94.1 975.3,86.1 1596.8,85.8 1603.2,92.5 		"/>
		<g>
			<rect x="1031.8" y="159.7" class="st17" width="513.8" height="476.1"/>
			<path class="st16" d="M1541.7,648.1l-507.9,0.3c-8.6,0-15.6-7-15.6-15.6l-0.3-467.7c0-8.6,7-15.6,15.6-15.6l507.9-0.3
				c8.6,0,15.6,7,15.6,15.6l0.3,467.7C1557.3,641.1,1550.3,648.1,1541.7,648.1z"/>
			<rect x="1031.8" y="159.7" class="st4" width="513.8" height="476.1"/>
			<rect x="1031.8" y="159.7" class="st18" width="513.8" height="476.1"/>
			<g class="st19">
				<defs>
					
						<rect id="SVGID_00000104667757824900596600000009277831738845162117_" x="1045.1" y="173" class="st19" width="485.1" height="449.6"/>
				</defs>
				<clipPath id="SVGID_00000026877855614847967620000000991296936350182789_">
					<use xlink:href="#SVGID_00000104667757824900596600000009277831738845162117_"  style="overflow:visible;"/>
				</clipPath>
				<g style="clip-path:url(#SVGID_00000026877855614847967620000000991296936350182789_);">
					<rect x="730.2" y="-92.3" class="st21" width="1051.7" height="1240.1"/>
					<line class="st21" x1="1720" y1="1147.8" x2="1720" y2="-92.3"/>
					<line class="st21" x1="1658.2" y1="1147.8" x2="1658.2" y2="-92.3"/>
					<line class="st21" x1="1596.3" y1="1147.8" x2="1596.3" y2="-92.3"/>
					<line class="st21" x1="1534.4" y1="1147.8" x2="1534.4" y2="-92.3"/>
					<line class="st21" x1="1472.6" y1="1147.8" x2="1472.6" y2="-92.3"/>
					<line class="st21" x1="1410.7" y1="1147.8" x2="1410.7" y2="-92.3"/>
					<line class="st21" x1="1348.8" y1="1147.8" x2="1348.8" y2="-92.3"/>
					<line class="st21" x1="1287" y1="1147.8" x2="1287" y2="-92.3"/>
					<line class="st21" x1="1225.1" y1="1147.8" x2="1225.1" y2="-92.3"/>
					<line class="st21" x1="1163.2" y1="1147.8" x2="1163.2" y2="-92.3"/>
					<line class="st21" x1="1101.4" y1="1147.8" x2="1101.4" y2="-92.3"/>
					<line class="st21" x1="1039.5" y1="1147.8" x2="1039.5" y2="-92.3"/>
					<line class="st21" x1="977.6" y1="1147.8" x2="977.6" y2="-92.3"/>
					<line class="st21" x1="915.8" y1="1147.8" x2="915.8" y2="-92.3"/>
					<line class="st21" x1="853.9" y1="1147.8" x2="853.9" y2="-92.3"/>
					<line class="st21" x1="792" y1="1147.8" x2="792" y2="-92.3"/>
					<line class="st21" x1="730.2" y1="-27" x2="1781.9" y2="-27"/>
					<line class="st21" x1="730.2" y1="38.2" x2="1781.9" y2="38.2"/>
					<line class="st21" x1="730.2" y1="103.5" x2="1781.9" y2="103.5"/>
					<line class="st21" x1="730.2" y1="168.8" x2="1781.9" y2="168.8"/>
					<line class="st21" x1="730.2" y1="234" x2="1781.9" y2="234"/>
					<line class="st21" x1="730.2" y1="299.3" x2="1781.9" y2="299.3"/>
					<line class="st21" x1="730.2" y1="364.6" x2="1781.9" y2="364.6"/>
					<line class="st21" x1="730.2" y1="429.8" x2="1781.9" y2="429.8"/>
					<line class="st21" x1="730.2" y1="495.1" x2="1781.9" y2="495.1"/>
					<line class="st21" x1="730.2" y1="560.4" x2="1781.9" y2="560.4"/>
					<line class="st21" x1="730.2" y1="625.6" x2="1781.9" y2="625.6"/>
					<line class="st21" x1="730.2" y1="690.9" x2="1781.9" y2="690.9"/>
					<line class="st21" x1="730.2" y1="756.2" x2="1781.9" y2="756.2"/>
					<line class="st21" x1="730.2" y1="821.4" x2="1781.9" y2="821.4"/>
					<line class="st21" x1="730.2" y1="886.7" x2="1781.9" y2="886.7"/>
					<line class="st21" x1="730.2" y1="952" x2="1781.9" y2="952"/>
					<line class="st21" x1="730.2" y1="1017.2" x2="1781.9" y2="1017.2"/>
					<line class="st21" x1="730.2" y1="1082.5" x2="1781.9" y2="1082.5"/>
				</g>
			</g>
			<rect x="1045.1" y="173" class="st22" width="485.1" height="449.6"/>
		</g>
		<circle class="st10" cx="1041.6" cy="735.1" r="13"/>
		<circle class="st10" cx="1082.8" cy="735.1" r="13"/>
		<g>
			<path class="st23" d="M1177.3,943.7h-135.7c-6.6,0-12-5.4-12-12V796c0-6.6,5.4-12,12-12h135.7c6.6,0,12,5.4,12,12v135.7
				C1189.3,938.3,1183.9,943.7,1177.3,943.7z"/>
			<path class="st23" d="M1359.2,943.7h-135.7c-6.6,0-12-5.4-12-12V796c0-6.6,5.4-12,12-12h135.7c6.6,0,12,5.4,12,12v135.7
				C1371.2,938.3,1365.8,943.7,1359.2,943.7z"/>
			<path class="st23" d="M1541,943.7h-135.7c-6.6,0-12-5.4-12-12V796c0-6.6,5.4-12,12-12H1541c6.6,0,12,5.4,12,12v135.7
				C1553,938.3,1547.6,943.7,1541,943.7z"/>
		</g>
		<g>
			<path class="st23" d="M1177.3,1126.1h-135.7c-6.6,0-12-5.4-12-12V978.4c0-6.6,5.4-12,12-12h135.7c6.6,0,12,5.4,12,12v135.7
				C1189.3,1120.7,1183.9,1126.1,1177.3,1126.1z"/>
			<path class="st23" d="M1359.2,1126.1h-135.7c-6.6,0-12-5.4-12-12V978.4c0-6.6,5.4-12,12-12h135.7c6.6,0,12,5.4,12,12v135.7
				C1371.2,1120.7,1365.8,1126.1,1359.2,1126.1z"/>
			<path class="st23" d="M1541,1126.1h-135.7c-6.6,0-12-5.4-12-12V978.4c0-6.6,5.4-12,12-12H1541c6.6,0,12,5.4,12,12v135.7
				C1553,1120.7,1547.6,1126.1,1541,1126.1z"/>
		</g>
		<g>
			<defs>
				<rect id="SVGID_00000106123932062918987220000006477907739041851304_" x="935.2" y="1058.7" width="662.4" height="117.3"/>
			</defs>
			<clipPath id="SVGID_00000012445411713842841790000012506013220453977017_">
				<use xlink:href="#SVGID_00000106123932062918987220000006477907739041851304_"  style="overflow:visible;"/>
			</clipPath>
			<g style="clip-path:url(#SVGID_00000012445411713842841790000012506013220453977017_);">
				<path class="st23" d="M1177.3,1308.5h-135.7c-6.6,0-12-5.4-12-12v-135.7c0-6.6,5.4-12,12-12h135.7c6.6,0,12,5.4,12,12v135.7
					C1189.3,1303.1,1183.9,1308.5,1177.3,1308.5z"/>
				<path class="st23" d="M1359.2,1308.5h-135.7c-6.6,0-12-5.4-12-12v-135.7c0-6.6,5.4-12,12-12h135.7c6.6,0,12,5.4,12,12v135.7
					C1371.2,1303.1,1365.8,1308.5,1359.2,1308.5z"/>
				<path class="st23" d="M1541,1308.5h-135.7c-6.6,0-12-5.4-12-12v-135.7c0-6.6,5.4-12,12-12H1541c6.6,0,12,5.4,12,12v135.7
					C1553,1303.1,1547.6,1308.5,1541,1308.5z"/>
			</g>
		</g>
		<text transform="matrix(0.9836 0 0 1 1065.2516 874.0981)" class="st25 st26 st27">MENU</text>
		<text transform="matrix(0.9836 0 0 1 1262.7784 874.0981)" class="st25 st26 st27">CLR</text>
		<text transform="matrix(0.9836 0 0 1 1434.0573 874.0981)" class="st25 st26 st27">MEAS</text>
		<text transform="matrix(0.9836 0 0 1 1085.1056 1058.6938)" class="st25 st26 st27">OK</text>
		<text transform="matrix(0.9836 0 0 1 1445.0631 1058.6938)" class="st25 st26 st27">ESC</text>
		<g>
			<path class="st28" d="M1286.5,1009.1l-35.3,61.1c-2.6,4.6,0.7,10.3,5.9,10.3h70.5c5.3,0,8.6-5.7,5.9-10.3l-35.3-61.1
				C1295.7,1004.6,1289.1,1004.6,1286.5,1009.1z"/>
			<line class="st28" x1="1292.4" y1="1037" x2="1292.4" y2="1061.9"/>
			<line class="st28" x1="1304.9" y1="1049.5" x2="1279.9" y2="1049.5"/>
		</g>
		<g>
			<rect x="1277.1" y="68.4" class="st10" width="173.5" height="17.4"/>
			<path class="st10" d="M1450.6,68.4h-173.5C1277.1,68.4,1354.9,41.3,1450.6,68.4z"/>
			<g>
				<defs>
					<rect id="SVGID_00000104678428395673958810000006690097481880225464_" x="1277.1" y="68.4" width="173.5" height="17.4"/>
				</defs>
				<clipPath id="SVGID_00000013179217145322317950000012646847140452922523_">
					<use xlink:href="#SVGID_00000104678428395673958810000006690097481880225464_"  style="overflow:visible;"/>
				</clipPath>
				<g style="opacity:0.51;clip-path:url(#SVGID_00000013179217145322317950000012646847140452922523_);">
					<line class="st30" x1="1284.9" y1="59.4" x2="1284.9" y2="92.3"/>
					<line class="st30" x1="1294.2" y1="59.4" x2="1294.2" y2="92.3"/>
					<line class="st30" x1="1303.5" y1="59.4" x2="1303.5" y2="92.3"/>
					<line class="st30" x1="1312.8" y1="59.4" x2="1312.8" y2="92.3"/>
					<line class="st30" x1="1322.1" y1="59.4" x2="1322.1" y2="92.3"/>
					<line class="st30" x1="1331.4" y1="59.4" x2="1331.4" y2="92.3"/>
					<line class="st30" x1="1340.7" y1="59.4" x2="1340.7" y2="92.3"/>
					<line class="st30" x1="1350" y1="59.4" x2="1350" y2="92.3"/>
					<line class="st30" x1="1359.3" y1="59.4" x2="1359.3" y2="92.3"/>
					<line class="st30" x1="1368.6" y1="59.4" x2="1368.6" y2="92.3"/>
					<line class="st30" x1="1377.8" y1="59.4" x2="1377.8" y2="92.3"/>
					<line class="st30" x1="1387.1" y1="59.4" x2="1387.1" y2="92.3"/>
					<line class="st30" x1="1396.4" y1="59.4" x2="1396.4" y2="92.3"/>
					<line class="st30" x1="1405.8" y1="59.4" x2="1405.8" y2="92.3"/>
					<line class="st30" x1="1415.1" y1="59.4" x2="1415.1" y2="92.3"/>
					<line class="st30" x1="1424.4" y1="59.4" x2="1424.4" y2="92.3"/>
					<line class="st30" x1="1433.7" y1="59.4" x2="1433.7" y2="92.3"/>
					<line class="st30" x1="1443" y1="59.4" x2="1443" y2="92.3"/>
				</g>
			</g>
			<rect x="1042.8" y="70.6" class="st5" width="76.8" height="15.9"/>
			<rect x="1058.1" y="-0.4" class="st10" width="46.2" height="70.9"/>
			<g>
				<defs>
					<rect id="SVGID_00000158739583671957891670000002784779885120920480_" x="1058" y="29.3" width="46.3" height="23.5"/>
				</defs>
				<clipPath id="SVGID_00000056392891032792498960000006435949462111381920_">
					<use xlink:href="#SVGID_00000158739583671957891670000002784779885120920480_"  style="overflow:visible;"/>
				</clipPath>
				<g style="opacity:0.51;clip-path:url(#SVGID_00000056392891032792498960000006435949462111381920_);">
					<line class="st12" x1="1060.3" y1="26.5" x2="1060.3" y2="59.4"/>
					<line class="st12" x1="1064.8" y1="26.5" x2="1064.8" y2="59.4"/>
					<line class="st12" x1="1069.2" y1="26.5" x2="1069.2" y2="59.4"/>
					<line class="st12" x1="1073.7" y1="26.5" x2="1073.7" y2="59.4"/>
					<line class="st12" x1="1078.2" y1="26.5" x2="1078.2" y2="59.4"/>
					<line class="st12" x1="1082.6" y1="26.5" x2="1082.6" y2="59.4"/>
					<line class="st12" x1="1087.1" y1="26.5" x2="1087.1" y2="59.4"/>
					<line class="st12" x1="1091.6" y1="26.5" x2="1091.6" y2="59.4"/>
					<line class="st12" x1="1096" y1="26.5" x2="1096" y2="59.4"/>
					<line class="st12" x1="1100.5" y1="26.5" x2="1100.5" y2="59.4"/>
					<line class="st12" x1="1104.9" y1="26.5" x2="1104.9" y2="59.4"/>
					<line class="st12" x1="1109.4" y1="26.5" x2="1109.4" y2="59.4"/>
					<line class="st12" x1="1113.9" y1="26.5" x2="1113.9" y2="59.4"/>
					<line class="st12" x1="1118.4" y1="26.5" x2="1118.4" y2="59.4"/>
					<line class="st12" x1="1122.8" y1="26.5" x2="1122.8" y2="59.4"/>
					<line class="st12" x1="1127.3" y1="26.5" x2="1127.3" y2="59.4"/>
					<line class="st12" x1="1131.8" y1="26.5" x2="1131.8" y2="59.4"/>
					<line class="st12" x1="1136.2" y1="26.5" x2="1136.2" y2="59.4"/>
				</g>
			</g>
			<g>
				<defs>
					<rect id="SVGID_00000176741576361303924220000006211286735470122143_" x="1058" y="0" width="46.3" height="7.2"/>
				</defs>
				<clipPath id="SVGID_00000170997630416635070770000000592370097875033505_">
					<use xlink:href="#SVGID_00000176741576361303924220000006211286735470122143_"  style="overflow:visible;"/>
				</clipPath>
				<g style="opacity:0.51;clip-path:url(#SVGID_00000170997630416635070770000000592370097875033505_);">
					<line class="st12" x1="1060.3" y1="-19.1" x2="1060.3" y2="13.7"/>
					<line class="st12" x1="1064.8" y1="-19.1" x2="1064.8" y2="13.7"/>
					<line class="st12" x1="1069.2" y1="-19.1" x2="1069.2" y2="13.7"/>
					<line class="st12" x1="1073.7" y1="-19.1" x2="1073.7" y2="13.7"/>
					<line class="st12" x1="1078.2" y1="-19.1" x2="1078.2" y2="13.7"/>
					<line class="st12" x1="1082.6" y1="-19.1" x2="1082.6" y2="13.7"/>
					<line class="st12" x1="1087.1" y1="-19.1" x2="1087.1" y2="13.7"/>
					<line class="st12" x1="1091.6" y1="-19.1" x2="1091.6" y2="13.7"/>
					<line class="st12" x1="1096" y1="-19.1" x2="1096" y2="13.7"/>
					<line class="st12" x1="1100.5" y1="-19.1" x2="1100.5" y2="13.7"/>
					<line class="st12" x1="1104.9" y1="-19.1" x2="1104.9" y2="13.7"/>
					<line class="st12" x1="1109.4" y1="-19.1" x2="1109.4" y2="13.7"/>
					<line class="st12" x1="1113.9" y1="-19.1" x2="1113.9" y2="13.7"/>
					<line class="st12" x1="1118.4" y1="-19.1" x2="1118.4" y2="13.7"/>
					<line class="st12" x1="1122.8" y1="-19.1" x2="1122.8" y2="13.7"/>
					<line class="st12" x1="1127.3" y1="-19.1" x2="1127.3" y2="13.7"/>
					<line class="st12" x1="1131.8" y1="-19.1" x2="1131.8" y2="13.7"/>
					<line class="st12" x1="1136.2" y1="-19.1" x2="1136.2" y2="13.7"/>
				</g>
			</g>
		</g>
	</g>
</g>
<g>
	<path class="st16" d="M553.4,1077.7H366.8v-26.4c0-5.2,4.2-9.4,9.4-9.4h168.2c5,0,9,4,9,9V1077.7z"/>
	<path class="st10" d="M553.4,1049.1H366.8v2.2c0-5.2,4.2-9.4,9.4-9.4h168.2c5,0,9,4,9,9V1049.1z"/>
	<path class="st33" d="M501.3,1077.7h-82.4v-30.5c0-3,2.4-5.3,5.3-5.3h68c5,0,9,4,9,9V1077.7z"/>
</g>
<line class="st34" x1="187.8" y1="157.2" x2="187.8" y2="378"/>
<line class="st34" x1="808.3" y1="157.2" x2="808.3" y2="378"/>
<line class="st2" x1="-5.1" y1="265" x2="190.5" y2="265"/>
<path class="st34" d="M1123.6,559.6"/>
</svg>
