<?xml version="1.0" encoding="utf-8"?>
<!-- Generator: Adobe Illustrator 26.3.1, SVG Export Plug-In . SVG Version: 6.00 Build 0)  -->
<svg version="1.1" id="Layer_2_00000182519190788979515280000009136210106934500240_"
	 xmlns="http://www.w3.org/2000/svg" xmlns:xlink="http://www.w3.org/1999/xlink" x="0px" y="0px" viewBox="0 0 1923.2 1079.4"
	 style="enable-background:new 0 0 1923.2 1079.4;" xml:space="preserve">
<style type="text/css">
	.st0{fill:#323258;}
	.st1{opacity:0.3;fill:#19192C;enable-background:new    ;}
	.st2{fill:#FFFFFF;}
	.st3{enable-background:new    ;}
	.st4{fill:none;stroke:#FFFFFF;stroke-width:6;stroke-miterlimit:10;}
	.st5{fill:none;}
	.st6{fill:#6DB6AF;}
	.st7{fill:none;stroke:#FFFFFF;stroke-width:2;stroke-miterlimit:10;}
	.st8{clip-path:url(#SVGID_00000018919733195106780850000004788360306819501742_);}
	.st9{fill:#19192C;}
	.st10{opacity:0.8;fill:#2D2D4A;enable-background:new    ;}
	.st11{opacity:0.6;}
	.st12{clip-path:url(#SVGID_00000140695823964635979050000013778112968111215507_);}
	.st13{fill:none;stroke:#6DB6AF;stroke-width:0.75;stroke-miterlimit:10;}
	.st14{opacity:0.8;fill:none;stroke:#6DB6AF;stroke-width:2;stroke-miterlimit:10;enable-background:new    ;}
	.st15{fill:none;stroke:#FF884D;stroke-width:2;stroke-miterlimit:10;stroke-dasharray:12;}
	.st16{fill:none;stroke:#D30741;stroke-width:2;stroke-miterlimit:10;}
	.st17{fill:none;stroke:#D30741;stroke-width:2;stroke-miterlimit:10;stroke-dasharray:11.966,11.966;}
	.st18{fill:none;stroke:#6DB6AF;stroke-width:4;stroke-miterlimit:10;}
	.st19{opacity:0.8;}
	.st20{fill:none;stroke:#6DB6AF;stroke-width:3.6329;stroke-miterlimit:10;}
	.st21{fill:#499B6A;}
	.st22{fill:#4CE58A;}
	.st23{opacity:0.1;}
	
		.st24{opacity:0.3;fill:none;stroke:#FFFFFF;stroke-width:4.3167;stroke-linecap:round;stroke-linejoin:round;stroke-miterlimit:10;}
	.st25{fill:#931F43;}
	.st26{fill:#C43554;}
	.st27{opacity:0.3;}
</style>
<g>
	<rect x="1.8" y="1.7" class="st0" width="1919.9" height="1079.4"/>
	<rect x="1.8" y="1.7" class="st0" width="1919.9" height="1079.4"/>
	<rect x="1.8" y="1.7" class="st1" width="610.8" height="1079.4"/>
	<circle class="st2" cx="1886.8" cy="1042.9" r="8.6"/>
	<circle class="st2" cx="1886.8" cy="31.6" r="8.6"/>
	
		<ellipse transform="matrix(1.817843e-02 -0.9998 0.9998 1.817843e-02 -1007.142 1060.1772)" class="st2" cx="36.2" cy="1042.9" rx="8.6" ry="8.6"/>
	<circle class="st2" cx="36.2" cy="37.2" r="8.6"/>
</g>
<g>
	<g class="st3">
		<path class="st2" d="M123.1,120.8h7.1V157h-7.1v-15h-13.5v15h-7.1v-36.3h7.1v14.4h13.5V120.8z"/>
		<path class="st2" d="M172.4,152.3c-3.7,3.6-8.1,5.5-13.4,5.5c-5.3,0-9.7-1.8-13.3-5.5c-3.6-3.6-5.5-8.1-5.5-13.4s1.8-9.7,5.5-13.4
			c3.6-3.6,8.1-5.5,13.3-5.5s9.7,1.8,13.4,5.5c3.7,3.6,5.5,8.1,5.5,13.4S176.1,148.7,172.4,152.3z M150.7,147.4
			c2.2,2.2,5,3.3,8.3,3.3s6.1-1.1,8.3-3.3s3.4-5.1,3.4-8.5c0-3.5-1.1-6.3-3.4-8.5c-2.2-2.2-5-3.4-8.3-3.4s-6.1,1.1-8.3,3.4
			c-2.2,2.2-3.4,5.1-3.4,8.5C147.4,142.4,148.5,145.2,150.7,147.4z"/>
		<path class="st2" d="M193.3,157l-9.6-36.3h7.5l7,26.9l7.6-26.9h6.2l7.6,26.8l6.9-26.8h6.9l-9.5,36.3h-8.1l-6.9-24.1L202,157H193.3
			z"/>
		<path class="st2" d="M285,120.8v6.8h-9.8V157H268v-29.4h-9.7v-6.8C258.3,120.8,285,120.8,285,120.8z"/>
		<path class="st2" d="M322.4,152.3c-3.7,3.6-8.1,5.5-13.4,5.5s-9.7-1.8-13.3-5.5c-3.6-3.6-5.5-8.1-5.5-13.4s1.8-9.7,5.5-13.4
			c3.6-3.6,8.1-5.5,13.3-5.5c5.2,0,9.7,1.8,13.4,5.5c3.7,3.6,5.5,8.1,5.5,13.4S326,148.7,322.4,152.3z M300.7,147.4
			c2.2,2.2,5,3.3,8.3,3.3s6.1-1.1,8.3-3.3c2.2-2.2,3.4-5.1,3.4-8.5c0-3.5-1.1-6.3-3.4-8.5c-2.2-2.2-5-3.4-8.3-3.4s-6.1,1.1-8.3,3.4
			c-2.2,2.2-3.4,5.1-3.4,8.5C297.3,142.4,298.4,145.2,300.7,147.4z"/>
		<path class="st2" d="M369.3,120.8c3.5,0,6.4,1.2,8.8,3.5s3.6,5.2,3.6,8.7c0,3.4-1.2,6.3-3.6,8.7c-2.4,2.3-5.3,3.5-8.8,3.5h-6.4
			V157h-7.1v-36.3h13.5V120.8z M369.3,138.4c1.5,0,2.8-0.5,3.8-1.6s1.5-2.4,1.5-3.9c0-1.6-0.5-2.9-1.5-3.9s-2.3-1.6-3.8-1.6h-6.4v11
			H369.3z"/>
		<path class="st2" d="M398.5,150.2h13.8v6.8h-21v-36.3h7.1v29.5H398.5z"/>
		<path class="st2" d="M446.2,157l-2.3-6.5H429l-2.2,6.5h-7.7l12.7-36.3h8.9l12.8,36.3H446.2z M431.3,143.8h10.2l-5.2-14.8
			L431.3,143.8z"/>
		<path class="st2" d="M485.9,120.8l-12.4,22.1V157h-7.1v-14.1L454,120.8h8.1l7.9,15.1l7.9-15.1
			C477.9,120.8,485.9,120.8,485.9,120.8z"/>
	</g>
</g>
<path class="st4" d="M1139.1,52.6"/>
<path class="st4" d="M883.7,52.6"/>
<path class="st4" d="M1815.5,52.6"/>
<g>
	<rect x="94.5" y="438" class="st5" width="486.5" height="242.1"/>
	<g class="st3">
		<path class="st2" d="M117.8,438v5.9h-8.3v25.5h-6.1v-25.5h-8.3V438H117.8z"/>
		<path class="st2" d="M121.8,460.6c0.8,2.8,2.8,4.2,6.2,4.2c2.2,0,3.8-0.7,4.9-2.2l4.6,2.7c-2.2,3.2-5.4,4.8-9.6,4.8
			c-3.7,0-6.6-1.1-8.8-3.4c-2.2-2.2-3.3-5.1-3.3-8.5s1.1-6.2,3.3-8.5c2.2-2.3,5-3.4,8.4-3.4c3.2,0,5.9,1.1,8,3.4s3.2,5.1,3.2,8.4
			c0,0.7-0.1,1.5-0.2,2.4h-16.7V460.6z M121.7,456.1H133c-0.3-1.5-1-2.7-2-3.4c-1-0.7-2.2-1.1-3.5-1.1c-1.5,0-2.8,0.4-3.8,1.2
			C122.7,453.6,122,454.7,121.7,456.1z"/>
		<path class="st2" d="M147,453.4c0,0.6,0.4,1.1,1.2,1.5s1.7,0.7,2.8,1s2.2,0.6,3.4,1.1c1.1,0.4,2.1,1.2,2.8,2.2
			c0.8,1,1.2,2.3,1.2,3.8c0,2.3-0.8,4.1-2.5,5.3s-3.8,1.9-6.3,1.9c-4.5,0-7.6-1.8-9.3-5.3l4.9-2.8c0.6,1.9,2.1,2.9,4.3,2.9
			c2,0,3-0.6,3-1.9c0-0.6-0.4-1.1-1.2-1.5s-1.7-0.7-2.8-1s-2.2-0.7-3.4-1.1c-1.1-0.4-2.1-1.2-2.8-2.1c-0.8-1-1.2-2.2-1.2-3.7
			c0-2.2,0.8-4,2.4-5.2c1.6-1.3,3.6-1.9,6-1.9c1.8,0,3.4,0.4,4.9,1.2c1.5,0.8,2.6,2,3.5,3.5L153,454c-0.7-1.5-1.9-2.3-3.5-2.3
			c-0.7,0-1.3,0.2-1.8,0.5C147.2,452.4,147,452.8,147,453.4z"/>
		<path class="st2" d="M174,452.6h-5v9.3c0,0.8,0.2,1.3,0.6,1.7c0.4,0.4,0.9,0.6,1.7,0.6c0.7,0,1.6,0,2.7,0v5.3
			c-3.9,0.4-6.7,0.1-8.3-1.1s-2.4-3.3-2.4-6.4v-9.3h-3.8V447h3.8v-4.5l5.7-1.8v6.3h5V452.6z"/>
		<path class="st2" d="M206.2,447h5.7v22.4h-5.7v-2.6c-1.7,2.2-4.1,3.3-7.2,3.3c-2.9,0-5.5-1.1-7.6-3.4s-3.2-5.1-3.2-8.4
			s1.1-6.1,3.2-8.4c2.1-2.3,4.6-3.4,7.6-3.4c3.1,0,5.5,1.1,7.2,3.3V447z M195.7,462.8c1.1,1.2,2.6,1.8,4.4,1.8
			c1.8,0,3.2-0.6,4.4-1.8c1.2-1.2,1.7-2.7,1.7-4.6s-0.6-3.4-1.7-4.6c-1.2-1.2-2.6-1.8-4.4-1.8c-1.8,0-3.2,0.6-4.4,1.8
			c-1.1,1.2-1.7,2.7-1.7,4.6C194,460.1,194.5,461.6,195.7,462.8z"/>
		<path class="st2" d="M217.1,469.4v-32.8h5.7v32.8H217.1z"/>
		<path class="st2" d="M228,469.4v-32.8h5.7v32.8H228z"/>
		<path class="st2" d="M266.7,453.1c2.9,1.7,4.3,4.3,4.3,7.6c0,2.9-1,5.2-3,6.9c-2,1.7-4.7,2.5-8.1,2.5s-6.2-0.8-8.1-2.5
			c-2-1.7-3-4-3-6.9c0-3.3,1.4-5.9,4.2-7.6c-2.1-1.6-3.2-3.8-3.2-6.5c0-2.9,1-5.2,2.9-6.8c1.9-1.6,4.3-2.4,7.2-2.4
			c2.9,0,5.2,0.8,7.2,2.4c1.9,1.6,2.9,3.9,2.9,6.8C269.9,449.4,268.8,451.5,266.7,453.1z M256.2,463.1c0.9,0.8,2.1,1.1,3.6,1.1
			s2.7-0.4,3.6-1.1s1.4-1.8,1.4-3.2c0-1.3-0.5-2.4-1.4-3.2s-2.1-1.1-3.6-1.1s-2.7,0.4-3.6,1.1s-1.4,1.8-1.4,3.2
			C254.8,461.3,255.3,462.3,256.2,463.1z M262.7,444.2c-0.7-0.7-1.7-1-2.9-1c-1.2,0-2.1,0.3-2.9,1c-0.7,0.7-1.1,1.6-1.1,2.7
			s0.4,2,1.1,2.7s1.7,1,2.9,1c1.2,0,2.1-0.3,2.9-1s1.1-1.6,1.1-2.7C263.8,445.8,263.5,444.9,262.7,444.2z"/>
		<path class="st2" d="M298.9,446.4c3,0,5.5,1.1,7.6,3.4s3.2,5.1,3.2,8.4s-1.1,6.1-3.2,8.4s-4.6,3.4-7.6,3.4c-3.1,0-5.5-1.1-7.2-3.3
			v2.6H286V438h5.7v11.6C293.4,447.5,295.8,446.4,298.9,446.4z M293.5,462.8c1.1,1.2,2.6,1.8,4.4,1.8s3.2-0.6,4.4-1.8
			c1.2-1.2,1.7-2.7,1.7-4.6s-0.6-3.4-1.7-4.6c-1.2-1.2-2.6-1.8-4.4-1.8s-3.2,0.6-4.4,1.8c-1.1,1.2-1.7,2.7-1.7,4.6
			C291.7,460.1,292.3,461.6,293.5,462.8z"/>
		<path class="st2" d="M332.5,466.6c-2.3,2.3-5,3.4-8.3,3.4s-6-1.1-8.3-3.4s-3.4-5.1-3.4-8.4s1.1-6.1,3.4-8.4s5-3.4,8.3-3.4
			s6,1.1,8.3,3.4s3.4,5.1,3.4,8.4S334.8,464.3,332.5,466.6z M319.9,462.7c1.1,1.2,2.6,1.8,4.3,1.8s3.1-0.6,4.3-1.8
			c1.1-1.2,1.7-2.6,1.7-4.4s-0.6-3.3-1.7-4.4c-1.1-1.2-2.6-1.8-4.3-1.8s-3.1,0.6-4.3,1.8c-1.1,1.2-1.7,2.6-1.7,4.4
			S318.8,461.5,319.9,462.7z"/>
		<path class="st2" d="M339.9,469.4v-32.8h5.7v32.8H339.9z"/>
		<path class="st2" d="M363.5,452.6h-5v9.3c0,0.8,0.2,1.3,0.6,1.7c0.4,0.4,0.9,0.6,1.7,0.6c0.7,0,1.6,0,2.7,0v5.3
			c-3.9,0.4-6.7,0.1-8.3-1.1c-1.6-1.2-2.4-3.3-2.4-6.4v-9.3H349V447h3.8v-4.5l5.7-1.8v6.3h5L363.5,452.6L363.5,452.6z"/>
		<path class="st2" d="M372.2,453.4c0,0.6,0.4,1.1,1.2,1.5c0.8,0.4,1.7,0.7,2.8,1c1.1,0.3,2.2,0.6,3.4,1.1c1.1,0.4,2.1,1.2,2.8,2.2
			c0.8,1,1.2,2.3,1.2,3.8c0,2.3-0.8,4.1-2.5,5.3s-3.8,1.9-6.3,1.9c-4.5,0-7.6-1.8-9.3-5.3l4.9-2.8c0.6,1.9,2.1,2.9,4.3,2.9
			c2,0,3-0.6,3-1.9c0-0.6-0.4-1.1-1.2-1.5c-0.8-0.4-1.7-0.7-2.8-1c-1.1-0.3-2.2-0.7-3.4-1.1c-1.1-0.4-2.1-1.2-2.8-2.1
			c-0.8-1-1.2-2.2-1.2-3.7c0-2.2,0.8-4,2.4-5.2c1.6-1.3,3.6-1.9,6-1.9c1.8,0,3.4,0.4,4.9,1.2c1.5,0.8,2.6,2,3.5,3.5l-4.9,2.7
			c-0.7-1.5-1.9-2.3-3.5-2.3c-0.7,0-1.3,0.2-1.8,0.5C372.5,452.4,372.2,452.8,372.2,453.4z"/>
		<path class="st2" d="M394.5,463.2l-3.3,12.5h-4.6l1.8-12.5H394.5z"/>
		<path class="st2" d="M427.1,447h5.7v22.4h-5.7v-2.6c-1.7,2.2-4.1,3.3-7.2,3.3c-2.9,0-5.5-1.1-7.6-3.4s-3.2-5.1-3.2-8.4
			s1.1-6.1,3.2-8.4s4.6-3.4,7.6-3.4c3.1,0,5.5,1.1,7.2,3.3V447z M416.6,462.8c1.1,1.2,2.6,1.8,4.4,1.8s3.2-0.6,4.4-1.8
			c1.2-1.2,1.7-2.7,1.7-4.6s-0.6-3.4-1.7-4.6c-1.2-1.2-2.6-1.8-4.4-1.8s-3.2,0.6-4.4,1.8c-1.1,1.2-1.7,2.7-1.7,4.6
			C414.9,460.1,415.5,461.6,416.6,462.8z"/>
		<path class="st2" d="M450.3,446.4c2.4,0,4.4,0.8,6,2.5c1.6,1.6,2.4,3.9,2.4,6.8v13.8H453v-13.1c0-1.5-0.4-2.6-1.2-3.4
			c-0.8-0.8-1.9-1.2-3.2-1.2c-1.5,0-2.6,0.5-3.5,1.4s-1.3,2.3-1.3,4.2v12.1H438V447h5.7v2.5C445.1,447.4,447.3,446.4,450.3,446.4z"
			/>
		<path class="st2" d="M480.2,438h5.7v31.4h-5.7v-2.6c-1.7,2.2-4.1,3.3-7.2,3.3c-3,0-5.5-1.1-7.6-3.4s-3.2-5.1-3.2-8.4
			s1.1-6.1,3.2-8.4s4.6-3.4,7.6-3.4c3.1,0,5.5,1.1,7.2,3.3V438z M469.7,462.8c1.2,1.2,2.6,1.8,4.4,1.8s3.2-0.6,4.4-1.8
			c1.1-1.2,1.7-2.7,1.7-4.6s-0.6-3.4-1.7-4.6s-2.6-1.8-4.4-1.8s-3.2,0.6-4.4,1.8c-1.2,1.2-1.7,2.7-1.7,4.6
			C468,460.1,468.6,461.6,469.7,462.8z"/>
	</g>
	<g class="st3">
		<path class="st2" d="M102.4,507.3c0,0.6,0.4,1.1,1.2,1.5c0.8,0.4,1.7,0.7,2.8,1c1.1,0.3,2.2,0.6,3.4,1.1c1.1,0.4,2.1,1.2,2.8,2.2
			c0.8,1,1.2,2.3,1.2,3.8c0,2.3-0.8,4.1-2.5,5.3s-3.8,1.9-6.3,1.9c-4.5,0-7.6-1.8-9.3-5.3l4.9-2.8c0.6,1.9,2.1,2.9,4.3,2.9
			c2,0,3-0.6,3-1.9c0-0.6-0.4-1.1-1.2-1.5c-0.8-0.4-1.7-0.7-2.8-1c-1.1-0.3-2.2-0.7-3.4-1.1c-1.1-0.4-2.1-1.2-2.8-2.1
			c-0.8-1-1.2-2.2-1.2-3.7c0-2.2,0.8-4,2.4-5.2c1.6-1.3,3.6-1.9,6-1.9c1.8,0,3.4,0.4,4.9,1.2c1.5,0.8,2.6,2,3.5,3.5l-4.9,2.7
			c-0.7-1.5-1.9-2.3-3.5-2.3c-0.7,0-1.3,0.2-1.8,0.5C102.6,506.3,102.4,506.7,102.4,507.3z"/>
		<path class="st2" d="M121.9,514.5c0.8,2.8,2.8,4.2,6.2,4.2c2.2,0,3.8-0.7,4.9-2.2l4.6,2.7c-2.2,3.2-5.4,4.8-9.6,4.8
			c-3.7,0-6.6-1.1-8.8-3.4c-2.2-2.2-3.3-5.1-3.3-8.5c0-3.4,1.1-6.2,3.3-8.5c2.2-2.3,5-3.4,8.4-3.4c3.2,0,5.9,1.1,8,3.4
			s3.2,5.1,3.2,8.4c0,0.7-0.1,1.5-0.2,2.4h-16.7V514.5z M121.9,510h11.3c-0.3-1.5-1-2.7-2-3.4c-1-0.7-2.2-1.1-3.5-1.1
			c-1.5,0-2.8,0.4-3.8,1.2C122.8,507.5,122.2,508.6,121.9,510z"/>
		<path class="st2" d="M142.8,523.3v-32.8h5.7v32.8H142.8z"/>
		<path class="st2" d="M158.5,514.5c0.8,2.8,2.8,4.2,6.2,4.2c2.2,0,3.8-0.7,4.9-2.2l4.6,2.7c-2.2,3.2-5.4,4.8-9.6,4.8
			c-3.7,0-6.6-1.1-8.8-3.4c-2.2-2.2-3.3-5.1-3.3-8.5c0-3.4,1.1-6.2,3.3-8.5s5-3.4,8.4-3.4c3.2,0,5.9,1.1,8,3.4s3.2,5.1,3.2,8.4
			c0,0.7-0.1,1.5-0.2,2.4h-16.7V514.5z M158.4,510h11.3c-0.3-1.5-1-2.7-2-3.4c-1-0.7-2.2-1.1-3.5-1.1c-1.5,0-2.8,0.4-3.8,1.2
			C159.4,507.5,158.7,508.6,158.4,510z"/>
		<path class="st2" d="M189.7,524c-3.3,0-6.1-1.1-8.3-3.4c-2.2-2.3-3.3-5.1-3.3-8.4c0-3.4,1.1-6.2,3.3-8.4c2.2-2.3,5-3.4,8.3-3.4
			c2.1,0,4.1,0.5,5.9,1.6c1.8,1,3.1,2.5,4,4.2l-4.9,2.9c-0.4-0.9-1.1-1.7-2-2.2s-1.9-0.8-3-0.8c-1.7,0-3.1,0.6-4.2,1.7
			c-1.1,1.2-1.7,2.6-1.7,4.4c0,1.8,0.6,3.2,1.7,4.4c1.1,1.2,2.5,1.7,4.2,1.7c1.1,0,2.2-0.3,3.1-0.8c0.9-0.5,1.6-1.2,2-2.2l4.9,2.9
			c-1,1.8-2.3,3.2-4.1,4.2S191.8,524,189.7,524z"/>
		<path class="st2" d="M215.3,506.5h-5v9.3c0,0.8,0.2,1.3,0.6,1.7c0.4,0.4,0.9,0.6,1.7,0.6c0.7,0,1.6,0,2.7,0v5.3
			c-3.9,0.4-6.7,0.1-8.3-1.1c-1.6-1.2-2.4-3.3-2.4-6.4v-9.3h-3.8V501h3.8v-4.5l5.7-1.8v6.3h5V506.5z"/>
	</g>
	<g class="st3">
		<path class="st6" d="M248.5,491.9h6.1v31.4H250l-13.2-19.2v19.2h-6.1v-31.4h4.6l13.3,19.1v-19.1H248.5z"/>
		<path class="st6" d="M278.9,520.5c-2.3,2.3-5,3.4-8.3,3.4s-6-1.1-8.3-3.4c-2.3-2.3-3.4-5.1-3.4-8.4c0-3.3,1.1-6.1,3.4-8.4
			s5-3.4,8.3-3.4s6,1.1,8.3,3.4s3.4,5.1,3.4,8.4C282.3,515.4,281.2,518.2,278.9,520.5z M266.4,516.6c1.1,1.2,2.6,1.8,4.3,1.8
			s3.1-0.6,4.3-1.8c1.1-1.2,1.7-2.6,1.7-4.4s-0.6-3.3-1.7-4.4c-1.1-1.2-2.6-1.8-4.3-1.8s-3.1,0.6-4.3,1.8c-1.1,1.2-1.7,2.6-1.7,4.4
			S265.2,515.4,266.4,516.6z"/>
		<path class="st6" d="M292,504.8c0.5-1.4,1.4-2.5,2.6-3.2s2.6-1.1,4.1-1.1v6.5c-1.7-0.2-3.3,0.2-4.7,1.1c-1.4,0.9-2.1,2.5-2.1,4.6
			v10.7h-5.7V501h5.7v3.8H292z"/>
		<path class="st6" d="M326.5,500.3c2.5,0,4.6,0.8,6.1,2.5s2.3,3.9,2.3,6.7v13.8h-5.7v-13.4c0-1.3-0.3-2.4-1-3.1
			c-0.6-0.7-1.6-1.1-2.7-1.1c-1.3,0-2.3,0.4-3,1.3s-1.1,2.1-1.1,3.8v12.6h-5.7V510c0-1.3-0.3-2.4-1-3.1c-0.6-0.7-1.6-1.1-2.7-1.1
			c-1.3,0-2.3,0.4-3,1.3c-0.8,0.9-1.1,2.1-1.1,3.8v12.6h-5.7v-22.4h5.7v2.4c1.3-2,3.4-3,6.1-3s4.7,1.1,6,3.2
			C321.4,501.3,323.6,500.3,326.5,500.3z"/>
		<path class="st6" d="M356.5,500.9h5.7v22.4h-5.7v-2.6c-1.7,2.2-4.1,3.3-7.2,3.3c-2.9,0-5.5-1.1-7.6-3.4c-2.1-2.3-3.2-5.1-3.2-8.4
			c0-3.3,1.1-6.1,3.2-8.4s4.6-3.4,7.6-3.4c3.1,0,5.5,1.1,7.2,3.3V500.9z M346,516.7c1.1,1.2,2.6,1.8,4.4,1.8s3.2-0.6,4.4-1.8
			c1.2-1.2,1.7-2.7,1.7-4.6c0-1.9-0.6-3.4-1.7-4.6c-1.2-1.2-2.6-1.8-4.4-1.8s-3.2,0.6-4.4,1.8c-1.1,1.2-1.7,2.7-1.7,4.6
			C344.2,514,344.8,515.5,346,516.7z"/>
		<path class="st6" d="M367.3,523.3v-32.8h5.7v32.8H367.3z"/>
	</g>
	<g class="st3">
		<path class="st2" d="M408.2,520.5c-2.3,2.3-5,3.4-8.3,3.4s-6-1.1-8.3-3.4c-2.3-2.3-3.4-5.1-3.4-8.4c0-3.3,1.1-6.1,3.4-8.4
			s5-3.4,8.3-3.4s6,1.1,8.3,3.4s3.4,5.1,3.4,8.4C411.6,515.4,410.4,518.2,408.2,520.5z M395.6,516.6c1.1,1.2,2.6,1.8,4.3,1.8
			s3.1-0.6,4.3-1.8c1.1-1.2,1.7-2.6,1.7-4.4s-0.6-3.3-1.7-4.4c-1.1-1.2-2.6-1.8-4.3-1.8s-3.1,0.6-4.3,1.8c-1.1,1.2-1.7,2.6-1.7,4.4
			S394.5,515.4,395.6,516.6z"/>
		<path class="st2" d="M421.3,504.8c0.5-1.4,1.4-2.5,2.6-3.2s2.6-1.1,4.1-1.1v6.5c-1.7-0.2-3.3,0.2-4.7,1.1
			c-1.4,0.9-2.1,2.5-2.1,4.6v10.7h-5.7V501h5.7v3.8H421.3z"/>
	</g>
	<g class="st3">
		<path class="st6" d="M460.2,497.8h-12.4v7.5h12v5.9h-12v12.1h-6.1v-31.4h18.5V497.8z"/>
		<path class="st6" d="M481.2,500.9h5.7v22.4h-5.7v-2.6c-1.7,2.2-4.1,3.3-7.2,3.3c-2.9,0-5.5-1.1-7.6-3.4c-2.1-2.3-3.2-5.1-3.2-8.4
			c0-3.3,1.1-6.1,3.2-8.4s4.6-3.4,7.6-3.4c3.1,0,5.5,1.1,7.2,3.3V500.9z M470.7,516.7c1.1,1.2,2.6,1.8,4.4,1.8s3.2-0.6,4.4-1.8
			c1.2-1.2,1.7-2.7,1.7-4.6c0-1.9-0.6-3.4-1.7-4.6c-1.2-1.2-2.6-1.8-4.4-1.8s-3.2,0.6-4.4,1.8c-1.1,1.2-1.7,2.7-1.7,4.6
			C468.9,514,469.5,515.5,470.7,516.7z"/>
		<path class="st6" d="M506.6,500.9h5.7v22.4h-5.7v-2.5c-1.4,2.1-3.6,3.1-6.6,3.1c-2.4,0-4.4-0.8-6-2.5c-1.6-1.6-2.4-3.9-2.4-6.8
			v-13.8h5.7V514c0,1.5,0.4,2.6,1.2,3.4c0.8,0.8,1.9,1.2,3.2,1.2c1.5,0,2.6-0.5,3.5-1.4s1.3-2.3,1.3-4.2v-12.1H506.6z"/>
		<path class="st6" d="M517.5,523.3v-32.8h5.7v32.8H517.5z"/>
		<path class="st6" d="M541.1,506.5h-5v9.3c0,0.8,0.2,1.3,0.6,1.7c0.4,0.4,0.9,0.6,1.7,0.6c0.7,0,1.6,0,2.7,0v5.3
			c-3.9,0.4-6.7,0.1-8.3-1.1c-1.6-1.2-2.4-3.3-2.4-6.4v-9.3h-3.8V501h3.8v-4.5l5.7-1.8v6.3h5V506.5z"/>
		<path class="st6" d="M560,500.9h6.1l-8.1,22.5c-1.1,3.2-2.7,5.5-4.6,7c-1.9,1.5-4.3,2.1-7.1,2V527c1.5,0,2.7-0.3,3.6-1
			c0.9-0.7,1.6-1.8,2.1-3.3l-9.1-21.7h6.2l5.8,15.1L560,500.9z"/>
	</g>
	<g class="st3">
		<path class="st2" d="M574.5,522.8c-0.7,0.7-1.6,1.1-2.6,1.1s-1.9-0.4-2.6-1.1c-0.7-0.7-1.1-1.6-1.1-2.7c0-1,0.4-1.9,1.1-2.7
			c0.7-0.7,1.6-1.1,2.6-1.1s1.9,0.4,2.6,1.1c0.7,0.7,1.1,1.6,1.1,2.7S575.3,522.1,574.5,522.8z"/>
	</g>
</g>
<circle class="st2" cx="100.5" cy="371.3" r="6"/>
<circle class="st2" cx="130.2" cy="371.3" r="6"/>
<circle class="st2" cx="159.9" cy="371.3" r="6"/>
<circle class="st6" cx="189.7" cy="371.3" r="6"/>
<g class="st3">
	<path class="st2" d="M105.4,621.6c-3.4,0-6.3-1-8.5-3s-3.3-4.6-3.3-7.9v-21.1h6.1v20.7c0,1.6,0.5,2.9,1.4,3.9s2.4,1.4,4.3,1.4
		c2,0,3.4-0.5,4.4-1.4c0.9-1,1.4-2.3,1.4-3.9v-20.7h6.1v21.1c0,3.3-1.1,6-3.3,7.9C111.7,620.7,108.8,621.6,105.4,621.6z"/>
	<path class="st2" d="M127.4,604.9c0,0.6,0.4,1.1,1.2,1.5s1.7,0.7,2.8,1s2.2,0.6,3.4,1.1c1.1,0.4,2.1,1.2,2.8,2.2
		c0.8,1,1.2,2.3,1.2,3.8c0,2.3-0.8,4.1-2.5,5.3s-3.8,1.9-6.3,1.9c-4.5,0-7.6-1.8-9.3-5.3l4.9-2.8c0.6,1.9,2.1,2.9,4.3,2.9
		c2,0,3-0.6,3-1.9c0-0.6-0.4-1.1-1.2-1.5s-1.7-0.7-2.8-1c-1.1-0.3-2.2-0.7-3.4-1.1c-1.1-0.4-2.1-1.2-2.8-2.1c-0.8-1-1.2-2.2-1.2-3.7
		c0-2.2,0.8-4,2.4-5.2c1.6-1.3,3.6-1.9,6-1.9c1.8,0,3.4,0.4,4.9,1.2s2.6,2,3.5,3.5l-4.9,2.7c-0.7-1.5-1.9-2.3-3.5-2.3
		c-0.7,0-1.3,0.2-1.8,0.5S127.4,604.4,127.4,604.9z"/>
	<path class="st2" d="M147,612.2c0.8,2.8,2.8,4.2,6.2,4.2c2.2,0,3.8-0.7,4.9-2.2l4.6,2.7c-2.2,3.2-5.4,4.8-9.6,4.8
		c-3.7,0-6.6-1.1-8.8-3.4c-2.2-2.2-3.3-5.1-3.3-8.5s1.1-6.2,3.3-8.5s5-3.4,8.4-3.4c3.2,0,5.9,1.1,8,3.4c2.1,2.3,3.2,5.1,3.2,8.4
		c0,0.7-0.1,1.5-0.2,2.4L147,612.2L147,612.2z M146.9,607.7h11.3c-0.3-1.5-1-2.7-2-3.4s-2.2-1.1-3.5-1.1c-1.5,0-2.8,0.4-3.8,1.2
		C147.9,605.1,147.2,606.2,146.9,607.7z"/>
	<path class="st2" d="M191.5,604.1h-5v9.3c0,0.8,0.2,1.3,0.6,1.7c0.4,0.4,0.9,0.6,1.7,0.6c0.7,0,1.6,0,2.7,0v5.3
		c-3.9,0.4-6.7,0.1-8.3-1.1c-1.6-1.2-2.4-3.3-2.4-6.4v-9.3H177v-5.6h3.8V594l5.7-1.8v6.3h5V604.1z"/>
	<path class="st2" d="M207.8,597.9c2.4,0,4.4,0.8,6,2.5c1.6,1.6,2.4,3.9,2.4,6.8V621h-5.7v-13.1c0-1.5-0.4-2.6-1.2-3.4
		c-0.8-0.8-1.9-1.2-3.2-1.2c-1.5,0-2.6,0.5-3.5,1.4s-1.3,2.3-1.3,4.2V621h-5.7v-31.4h5.7v11.5C202.6,599,204.8,597.9,207.8,597.9z"
		/>
	<path class="st2" d="M225.8,612.2c0.8,2.8,2.8,4.2,6.2,4.2c2.2,0,3.8-0.7,4.9-2.2l4.6,2.7c-2.2,3.2-5.4,4.8-9.6,4.8
		c-3.7,0-6.6-1.1-8.8-3.4c-2.2-2.2-3.3-5.1-3.3-8.5s1.1-6.2,3.3-8.5s5-3.4,8.4-3.4c3.2,0,5.9,1.1,8,3.4c2.1,2.3,3.2,5.1,3.2,8.4
		c0,0.7-0.1,1.5-0.2,2.4L225.8,612.2L225.8,612.2z M225.7,607.7H237c-0.3-1.5-1-2.7-2-3.4s-2.2-1.1-3.5-1.1c-1.5,0-2.8,0.4-3.8,1.2
		C226.7,605.1,226.1,606.2,225.7,607.7z"/>
</g>
<g class="st3">
	<path class="st6" d="M268.5,621.6c-3.3,0-6.1-1.1-8.3-3.4c-2.2-2.3-3.3-5.1-3.3-8.4c0-3.4,1.1-6.2,3.3-8.4c2.2-2.3,5-3.4,8.3-3.4
		c2.1,0,4.1,0.5,5.9,1.6s3.1,2.5,4,4.2l-4.9,2.9c-0.4-0.9-1.1-1.7-2-2.2s-1.9-0.8-3-0.8c-1.7,0-3.1,0.6-4.2,1.7
		c-1.1,1.2-1.7,2.6-1.7,4.4c0,1.8,0.6,3.2,1.7,4.4s2.5,1.7,4.2,1.7c1.1,0,2.2-0.3,3.1-0.8s1.6-1.2,2-2.2l4.9,2.9
		c-1,1.8-2.3,3.2-4.1,4.2C272.6,621.1,270.7,621.6,268.5,621.6z"/>
	<path class="st6" d="M293.8,597.9c2.4,0,4.4,0.8,6,2.5c1.6,1.6,2.4,3.9,2.4,6.8V621h-5.7v-13.1c0-1.5-0.4-2.6-1.2-3.4
		c-0.8-0.8-1.9-1.2-3.2-1.2c-1.5,0-2.6,0.5-3.5,1.4s-1.3,2.3-1.3,4.2V621h-5.7v-31.4h5.7v11.5C288.6,599,290.8,597.9,293.8,597.9z"
		/>
	<path class="st6" d="M311.8,612.2c0.8,2.8,2.8,4.2,6.2,4.2c2.2,0,3.8-0.7,4.9-2.2l4.6,2.7c-2.2,3.2-5.4,4.8-9.6,4.8
		c-3.7,0-6.6-1.1-8.8-3.4c-2.2-2.2-3.3-5.1-3.3-8.5s1.1-6.2,3.3-8.5s5-3.4,8.4-3.4c3.2,0,5.9,1.1,8,3.4c2.1,2.3,3.2,5.1,3.2,8.4
		c0,0.7-0.1,1.5-0.2,2.4L311.8,612.2L311.8,612.2z M311.7,607.7H323c-0.3-1.5-1-2.7-2-3.4s-2.2-1.1-3.5-1.1c-1.5,0-2.8,0.4-3.8,1.2
		C312.7,605.1,312.1,606.2,311.7,607.7z"/>
	<path class="st6" d="M343,621.6c-3.3,0-6.1-1.1-8.3-3.4c-2.2-2.3-3.3-5.1-3.3-8.4c0-3.4,1.1-6.2,3.3-8.4c2.2-2.3,5-3.4,8.3-3.4
		c2.1,0,4.1,0.5,5.9,1.6s3.1,2.5,4,4.2l-4.9,2.9c-0.4-0.9-1.1-1.7-2-2.2s-1.9-0.8-3-0.8c-1.7,0-3.1,0.6-4.2,1.7
		c-1.1,1.2-1.7,2.6-1.7,4.4c0,1.8,0.6,3.2,1.7,4.4s2.5,1.7,4.2,1.7c1.1,0,2.2-0.3,3.1-0.8s1.6-1.2,2-2.2l4.9,2.9
		c-1,1.8-2.3,3.2-4.1,4.2C347.1,621.1,345.1,621.6,343,621.6z"/>
	<path class="st6" d="M376.3,621h-6.6l-8-10.2V621H356v-31.4h5.7v18.9l7.6-9.9h6.8l-8.9,11.1L376.3,621z"/>
	<path class="st6" d="M403.1,597.9c3,0,5.5,1.1,7.6,3.4c2.1,2.3,3.2,5.1,3.2,8.4s-1.1,6.1-3.2,8.4c-2.1,2.3-4.6,3.4-7.6,3.4
		c-3.1,0-5.5-1.1-7.2-3.3v2.6h-5.7v-31.4h5.7V601C397.6,599,400,597.9,403.1,597.9z M397.6,614.3c1.1,1.2,2.6,1.8,4.4,1.8
		s3.2-0.6,4.4-1.8c1.2-1.2,1.7-2.7,1.7-4.6c0-1.9-0.6-3.4-1.7-4.6c-1.2-1.2-2.6-1.8-4.4-1.8s-3.2,0.6-4.4,1.8
		c-1.1,1.2-1.7,2.7-1.7,4.6S396.5,613.2,397.6,614.3z"/>
	<path class="st6" d="M432.4,598.6h5.7V621h-5.7v-2.5c-1.4,2.1-3.6,3.1-6.6,3.1c-2.4,0-4.4-0.8-6-2.5c-1.6-1.6-2.4-3.9-2.4-6.8
		v-13.8h5.7v13.1c0,1.5,0.4,2.6,1.2,3.4c0.8,0.8,1.9,1.2,3.2,1.2c1.5,0,2.6-0.5,3.5-1.4s1.3-2.3,1.3-4.2L432.4,598.6L432.4,598.6z"
		/>
	<path class="st6" d="M456,604.1h-5v9.3c0,0.8,0.2,1.3,0.6,1.7s0.9,0.6,1.7,0.6c0.7,0,1.6,0,2.7,0v5.3c-3.9,0.4-6.7,0.1-8.3-1.1
		c-1.6-1.2-2.4-3.3-2.4-6.4v-9.3h-3.8v-5.6h3.8V594l5.7-1.8v6.3h5L456,604.1L456,604.1z"/>
	<path class="st6" d="M471.8,604.1h-5v9.3c0,0.8,0.2,1.3,0.6,1.7s0.9,0.6,1.7,0.6c0.7,0,1.6,0,2.7,0v5.3c-3.9,0.4-6.7,0.1-8.3-1.1
		c-1.6-1.2-2.4-3.3-2.4-6.4v-9.3h-3.8v-5.6h3.8V594l5.7-1.8v6.3h5L471.8,604.1L471.8,604.1z"/>
	<path class="st6" d="M493.9,618.2c-2.3,2.3-5,3.4-8.3,3.4s-6-1.1-8.3-3.4c-2.3-2.3-3.4-5.1-3.4-8.4s1.1-6.1,3.4-8.4
		c2.3-2.3,5-3.4,8.3-3.4s6,1.1,8.3,3.4c2.3,2.3,3.4,5.1,3.4,8.4S496.2,615.9,493.9,618.2z M481.4,614.2c1.1,1.2,2.6,1.8,4.3,1.8
		s3.1-0.6,4.3-1.8c1.1-1.2,1.7-2.6,1.7-4.4s-0.6-3.3-1.7-4.4c-1.1-1.2-2.6-1.8-4.3-1.8s-3.1,0.6-4.3,1.8c-1.1,1.2-1.7,2.6-1.7,4.4
		S480.2,613.1,481.4,614.2z"/>
	<path class="st6" d="M513.6,597.9c2.4,0,4.4,0.8,6,2.5c1.6,1.6,2.4,3.9,2.4,6.8V621h-5.7v-13.1c0-1.5-0.4-2.6-1.2-3.4
		c-0.8-0.8-1.9-1.2-3.2-1.2c-1.5,0-2.6,0.5-3.5,1.4s-1.3,2.3-1.3,4.2V621h-5.7v-22.4h5.7v2.5C508.4,599,510.6,597.9,513.6,597.9z"/>
</g>
<g class="st3">
	<path class="st2" d="M106.2,658h-5v9.3c0,0.8,0.2,1.3,0.6,1.7s0.9,0.6,1.7,0.6c0.7,0,1.6,0,2.7,0v5.3c-3.9,0.4-6.7,0.1-8.3-1.1
		c-1.6-1.2-2.4-3.3-2.4-6.4V658h-3.8v-5.6h3.8v-4.5l5.7-1.8v6.3h5L106.2,658L106.2,658z"/>
	<path class="st2" d="M128.4,672.1c-2.3,2.3-5,3.4-8.3,3.4s-6-1.1-8.3-3.4c-2.3-2.3-3.4-5.1-3.4-8.4s1.1-6.1,3.4-8.4
		c2.3-2.3,5-3.4,8.3-3.4s6,1.1,8.3,3.4c2.3,2.3,3.4,5.1,3.4,8.4S130.6,669.8,128.4,672.1z M115.8,668.1c1.1,1.2,2.6,1.8,4.3,1.8
		s3.1-0.6,4.3-1.8c1.1-1.2,1.7-2.6,1.7-4.4s-0.6-3.3-1.7-4.4c-1.1-1.2-2.6-1.8-4.3-1.8s-3.1,0.6-4.3,1.8c-1.1,1.2-1.7,2.6-1.7,4.4
		S114.7,667,115.8,668.1z"/>
	<path class="st2" d="M157.3,675.5c-3.3,0-6.1-1.1-8.3-3.4c-2.2-2.3-3.3-5.1-3.3-8.4c0-3.4,1.1-6.2,3.3-8.4c2.2-2.3,5-3.4,8.3-3.4
		c2.1,0,4.1,0.5,5.9,1.6s3.1,2.5,4,4.2l-4.9,2.9c-0.4-0.9-1.1-1.7-2-2.2s-1.9-0.8-3-0.8c-1.7,0-3.1,0.6-4.2,1.7
		c-1.1,1.2-1.7,2.6-1.7,4.4c0,1.8,0.6,3.2,1.7,4.4c1.1,1.2,2.5,1.7,4.2,1.7c1.1,0,2.2-0.3,3.1-0.8c0.9-0.5,1.6-1.2,2-2.2l4.9,2.9
		c-1,1.8-2.3,3.2-4.1,4.2C161.4,675,159.5,675.5,157.3,675.5z"/>
	<path class="st2" d="M182.6,651.8c2.4,0,4.4,0.8,6,2.5c1.6,1.6,2.4,3.9,2.4,6.8v13.8h-5.7v-13.1c0-1.5-0.4-2.6-1.2-3.4
		c-0.8-0.8-1.9-1.2-3.2-1.2c-1.5,0-2.6,0.5-3.5,1.4s-1.3,2.3-1.3,4.2v12.1h-5.7v-31.4h5.7V655C177.4,652.9,179.6,651.8,182.6,651.8z
		"/>
	<path class="st2" d="M200.6,666.1c0.8,2.8,2.8,4.2,6.2,4.2c2.2,0,3.8-0.7,4.9-2.2l4.6,2.7c-2.2,3.2-5.4,4.8-9.6,4.8
		c-3.7,0-6.6-1.1-8.8-3.4c-2.2-2.2-3.3-5.1-3.3-8.5s1.1-6.2,3.3-8.5s5-3.4,8.4-3.4c3.2,0,5.9,1.1,8,3.4c2.1,2.3,3.2,5.1,3.2,8.4
		c0,0.7-0.1,1.5-0.2,2.4L200.6,666.1L200.6,666.1z M200.5,661.6h11.3c-0.3-1.5-1-2.7-2-3.4s-2.2-1.1-3.5-1.1c-1.5,0-2.8,0.4-3.8,1.2
		C201.5,659,200.9,660.1,200.5,661.6z"/>
	<path class="st2" d="M231.8,675.5c-3.3,0-6.1-1.1-8.3-3.4c-2.2-2.3-3.3-5.1-3.3-8.4c0-3.4,1.1-6.2,3.3-8.4c2.2-2.3,5-3.4,8.3-3.4
		c2.1,0,4.1,0.5,5.9,1.6s3.1,2.5,4,4.2l-4.9,2.9c-0.4-0.9-1.1-1.7-2-2.2s-1.9-0.8-3-0.8c-1.7,0-3.1,0.6-4.2,1.7
		c-1.1,1.2-1.7,2.6-1.7,4.4c0,1.8,0.6,3.2,1.7,4.4c1.1,1.2,2.5,1.7,4.2,1.7c1.1,0,2.2-0.3,3.1-0.8c0.9-0.5,1.6-1.2,2-2.2l4.9,2.9
		c-1,1.8-2.3,3.2-4.1,4.2C235.9,675,233.9,675.5,231.8,675.5z"/>
	<path class="st2" d="M265.1,674.9h-6.6l-8-10.2v10.2h-5.7v-31.4h5.7v18.9l7.6-9.9h6.8l-8.9,11.1L265.1,674.9z"/>
	<path class="st2" d="M293.4,652.5h6.1l-8.1,22.5c-1.1,3.2-2.7,5.5-4.6,7s-4.3,2.1-7.1,2v-5.4c1.5,0,2.7-0.3,3.6-1s1.6-1.8,2.1-3.3
		l-9.1-21.7h6.2l5.8,15.1L293.4,652.5z"/>
	<path class="st2" d="M320.1,672.1c-2.3,2.3-5,3.4-8.3,3.4s-6-1.1-8.3-3.4c-2.3-2.3-3.4-5.1-3.4-8.4s1.1-6.1,3.4-8.4
		c2.3-2.3,5-3.4,8.3-3.4s6,1.1,8.3,3.4c2.3,2.3,3.4,5.1,3.4,8.4S322.4,669.8,320.1,672.1z M307.6,668.1c1.1,1.2,2.6,1.8,4.3,1.8
		s3.1-0.6,4.3-1.8c1.1-1.2,1.7-2.6,1.7-4.4s-0.6-3.3-1.7-4.4c-1.1-1.2-2.6-1.8-4.3-1.8s-3.1,0.6-4.3,1.8c-1.1,1.2-1.7,2.6-1.7,4.4
		S306.4,667,307.6,668.1z"/>
	<path class="st2" d="M342.1,652.5h5.7v22.4h-5.7v-2.5c-1.4,2.1-3.6,3.1-6.6,3.1c-2.4,0-4.4-0.8-6-2.5c-1.6-1.6-2.4-3.9-2.4-6.8
		v-13.8h5.7v13.1c0,1.5,0.4,2.6,1.2,3.4c0.8,0.8,1.9,1.2,3.2,1.2c1.5,0,2.6-0.5,3.5-1.4s1.3-2.3,1.3-4.2L342.1,652.5L342.1,652.5z"
		/>
	<path class="st2" d="M358.7,656.3c0.5-1.4,1.4-2.5,2.6-3.2s2.6-1.1,4.1-1.1v6.5c-1.7-0.2-3.3,0.2-4.7,1.1c-1.4,0.9-2.1,2.5-2.1,4.6
		v10.7H353v-22.4h5.7V656.3z"/>
	<path class="st2" d="M396.6,652.5h5.7v22.4h-5.7v-2.6c-1.7,2.2-4.1,3.3-7.2,3.3c-2.9,0-5.5-1.1-7.6-3.4c-2.1-2.3-3.2-5.1-3.2-8.4
		s1.1-6.1,3.2-8.4c2.1-2.3,4.6-3.4,7.6-3.4c3.1,0,5.5,1.1,7.2,3.3V652.5z M386,668.2c1.1,1.2,2.6,1.8,4.4,1.8s3.2-0.6,4.4-1.8
		c1.2-1.2,1.7-2.7,1.7-4.6c0-1.9-0.6-3.4-1.7-4.6c-1.2-1.2-2.6-1.8-4.4-1.8s-3.2,0.6-4.4,1.8c-1.1,1.2-1.7,2.7-1.7,4.6
		S384.9,667.1,386,668.2z"/>
	<path class="st2" d="M419.7,651.8c2.4,0,4.4,0.8,6,2.5c1.6,1.6,2.4,3.9,2.4,6.8v13.8h-5.7v-13.1c0-1.5-0.4-2.6-1.2-3.4
		c-0.8-0.8-1.9-1.2-3.2-1.2c-1.5,0-2.6,0.5-3.5,1.4s-1.3,2.3-1.3,4.2v12.1h-5.7v-22.4h5.7v2.5C414.5,652.9,416.7,651.8,419.7,651.8z
		"/>
	<path class="st2" d="M438.2,658.8c0,0.6,0.4,1.1,1.2,1.5c0.8,0.4,1.7,0.7,2.8,1c1.1,0.3,2.2,0.6,3.4,1.1c1.1,0.4,2.1,1.2,2.8,2.2
		c0.8,1,1.2,2.3,1.2,3.8c0,2.3-0.8,4.1-2.5,5.3s-3.8,1.9-6.3,1.9c-4.5,0-7.6-1.8-9.3-5.3l4.9-2.8c0.6,1.9,2.1,2.9,4.3,2.9
		c2,0,3-0.6,3-1.9c0-0.6-0.4-1.1-1.2-1.5c-0.8-0.4-1.7-0.7-2.8-1c-1.1-0.3-2.2-0.7-3.4-1.1c-1.1-0.4-2.1-1.2-2.8-2.1
		c-0.8-1-1.2-2.2-1.2-3.7c0-2.2,0.8-4,2.4-5.2c1.6-1.3,3.6-1.9,6-1.9c1.8,0,3.4,0.4,4.9,1.2s2.6,2,3.5,3.5l-4.9,2.7
		c-0.7-1.5-1.9-2.3-3.5-2.3c-0.7,0-1.3,0.2-1.8,0.5S438.2,658.3,438.2,658.8z"/>
	<path class="st2" d="M477.4,652.5h5.5l-6.4,22.4h-5.6l-4.2-13.6l-4.2,13.6h-5.6l-6.5-22.4h6l3.8,13.8l4-13.8h5.4l4,13.8
		L477.4,652.5z"/>
	<path class="st2" d="M490.5,666.1c0.8,2.8,2.8,4.2,6.2,4.2c2.2,0,3.8-0.7,4.9-2.2l4.6,2.7c-2.2,3.2-5.4,4.8-9.6,4.8
		c-3.7,0-6.6-1.1-8.8-3.4c-2.2-2.2-3.3-5.1-3.3-8.5s1.1-6.2,3.3-8.5s5-3.4,8.4-3.4c3.2,0,5.9,1.1,8,3.4c2.1,2.3,3.2,5.1,3.2,8.4
		c0,0.7-0.1,1.5-0.2,2.4L490.5,666.1L490.5,666.1z M490.4,661.6h11.3c-0.3-1.5-1-2.7-2-3.4s-2.2-1.1-3.5-1.1c-1.5,0-2.8,0.4-3.8,1.2
		C491.4,659,490.7,660.1,490.4,661.6z"/>
	<path class="st2" d="M517,656.3c0.5-1.4,1.4-2.5,2.6-3.2s2.6-1.1,4.1-1.1v6.5c-1.7-0.2-3.3,0.2-4.7,1.1c-1.4,0.9-2.1,2.5-2.1,4.6
		v10.7h-5.7v-22.4h5.7v3.8H517z"/>
	<path class="st2" d="M531.6,658.8c0,0.6,0.4,1.1,1.2,1.5s1.7,0.7,2.8,1s2.2,0.6,3.4,1.1c1.1,0.4,2.1,1.2,2.8,2.2
		c0.8,1,1.2,2.3,1.2,3.8c0,2.3-0.8,4.1-2.5,5.3s-3.8,1.9-6.3,1.9c-4.5,0-7.6-1.8-9.3-5.3l4.9-2.8c0.6,1.9,2.1,2.9,4.3,2.9
		c2,0,3-0.6,3-1.9c0-0.6-0.4-1.1-1.2-1.5s-1.7-0.7-2.8-1s-2.2-0.7-3.4-1.1c-1.1-0.4-2.1-1.2-2.8-2.1c-0.8-1-1.2-2.2-1.2-3.7
		c0-2.2,0.8-4,2.4-5.2c1.6-1.3,3.6-1.9,6-1.9c1.8,0,3.4,0.4,4.9,1.2s2.6,2,3.5,3.5l-4.9,2.7c-0.7-1.5-1.9-2.3-3.5-2.3
		c-0.7,0-1.3,0.2-1.8,0.5S531.6,658.3,531.6,658.8z"/>
	<path class="st2" d="M552.8,674.4c-0.7,0.7-1.6,1.1-2.6,1.1s-1.9-0.4-2.6-1.1c-0.7-0.7-1.1-1.6-1.1-2.7s0.4-1.9,1.1-2.7
		c0.7-0.7,1.6-1.1,2.6-1.1s1.9,0.4,2.6,1.1c0.7,0.7,1.1,1.6,1.1,2.7S553.6,673.6,552.8,674.4z M547.9,664.4l-1.2-11.9v-9h6.8v9
		l-1.1,11.9H547.9z"/>
</g>
<path class="st4" d="M1490.2,308.9V166.7c0-32.9,24.8-59.5,55.3-59.5h279.1c30.5,0,55.3,26.6,55.3,59.5v290.2
	c0,32.9-24.8,59.5-55.3,59.5h-279.1c-30.5,0-55.3-26.6-55.3-59.5V308.9"/>
<path class="st4" d="M1490.2,752.3V610.1c0-32.9,24.8-59.5,55.3-59.5h279.1c30.5,0,55.3,26.6,55.3,59.5v290.2
	c0,32.9-24.8,59.5-55.3,59.5h-279.1c-30.5,0-55.3-26.6-55.3-59.5V752.3"/>
<line class="st7" x1="1879.9" y1="321.6" x2="1925" y2="321.6"/>
<line class="st7" x1="1879.9" y1="764.1" x2="1925" y2="764.1"/>
<g>
	<g>
		<g>
			<defs>
				<rect id="SVGID_1_" x="612.5" y="52.6" width="857.4" height="998.9"/>
			</defs>
			<clipPath id="SVGID_00000014608099764383852630000002357340240782458792_">
				<use xlink:href="#SVGID_1_"  style="overflow:visible;"/>
			</clipPath>
			<g style="clip-path:url(#SVGID_00000014608099764383852630000002357340240782458792_);">
				<path class="st9" d="M1393,941.6H299.7c-21,0-37.9-17-37.9-37.9v-744c0-21,17-37.9,37.9-37.9H1393c21,0,37.9,17,37.9,37.9v744
					C1430.9,924.6,1414,941.6,1393,941.6z"/>
				<path class="st10" d="M1404.4,939.8h-1108c-17.9,0-32.3-14.5-32.3-32.3V154.9c0-17.9,14.5-32.3,32.3-32.3h1108
					c17.9,0,32.3,14.5,32.3,32.3v752.6C1436.8,925.3,1422.3,939.8,1404.4,939.8z"/>
				<g class="st11">
					<g>
						<g>
							<defs>
								<path id="SVGID_00000105396698016953472150000002497297834172700327_" d="M1403.5,941.6h-1108c-17.9,0-32.3-14.5-32.3-32.3
									V156.7c0-17.9,14.5-32.3,32.3-32.3h1108c17.9,0,32.3,14.5,32.3,32.3v752.6C1435.8,927.2,1421.3,941.6,1403.5,941.6z"/>
							</defs>
							<clipPath id="SVGID_00000144332929780807928690000000053748069865512836_">
								<use xlink:href="#SVGID_00000105396698016953472150000002497297834172700327_"  style="overflow:visible;"/>
							</clipPath>
							<g style="clip-path:url(#SVGID_00000144332929780807928690000000053748069865512836_);">
								<rect x="227.9" y="108.6" class="st13" width="1223.1" height="865.9"/>
								<line class="st13" x1="227.9" y1="957.4" x2="1451" y2="957.4"/>
								<line class="st13" x1="227.9" y1="940.5" x2="1451" y2="940.5"/>
								<line class="st13" x1="227.9" y1="923.5" x2="1451" y2="923.5"/>
								<line class="st13" x1="227.9" y1="906.5" x2="1451" y2="906.5"/>
								<line class="st13" x1="227.9" y1="889.5" x2="1451" y2="889.5"/>
								<line class="st13" x1="227.9" y1="872.6" x2="1451" y2="872.6"/>
								<line class="st13" x1="227.9" y1="855.6" x2="1451" y2="855.6"/>
								<line class="st13" x1="227.9" y1="838.6" x2="1451" y2="838.6"/>
								<line class="st13" x1="227.9" y1="821.6" x2="1451" y2="821.6"/>
								<line class="st13" x1="227.9" y1="804.6" x2="1451" y2="804.6"/>
								<line class="st13" x1="227.9" y1="787.7" x2="1451" y2="787.7"/>
								<line class="st13" x1="227.9" y1="770.7" x2="1451" y2="770.7"/>
								<line class="st13" x1="227.9" y1="753.7" x2="1451" y2="753.7"/>
								<line class="st13" x1="227.9" y1="736.7" x2="1451" y2="736.7"/>
								<line class="st13" x1="227.9" y1="719.8" x2="1451" y2="719.8"/>
								<line class="st13" x1="227.9" y1="702.8" x2="1451" y2="702.8"/>
								<line class="st13" x1="227.9" y1="685.8" x2="1451" y2="685.8"/>
								<line class="st13" x1="227.9" y1="668.8" x2="1451" y2="668.8"/>
								<line class="st13" x1="227.9" y1="651.8" x2="1451" y2="651.8"/>
								<line class="st13" x1="227.9" y1="634.9" x2="1451" y2="634.9"/>
								<line class="st13" x1="227.9" y1="617.9" x2="1451" y2="617.9"/>
								<line class="st13" x1="227.9" y1="600.9" x2="1451" y2="600.9"/>
								<line class="st13" x1="227.9" y1="583.9" x2="1451" y2="583.9"/>
								<line class="st13" x1="227.9" y1="567" x2="1451" y2="567"/>
								<line class="st13" x1="227.9" y1="550" x2="1451" y2="550"/>
								<line class="st13" x1="227.9" y1="533" x2="1451" y2="533"/>
								<line class="st13" x1="227.9" y1="516" x2="1451" y2="516"/>
								<line class="st13" x1="227.9" y1="499" x2="1451" y2="499"/>
								<line class="st13" x1="227.9" y1="482.1" x2="1451" y2="482.1"/>
								<line class="st13" x1="227.9" y1="465.1" x2="1451" y2="465.1"/>
								<line class="st13" x1="227.9" y1="448.1" x2="1451" y2="448.1"/>
								<line class="st13" x1="227.9" y1="431.1" x2="1451" y2="431.1"/>
								<line class="st13" x1="227.9" y1="414.2" x2="1451" y2="414.2"/>
								<line class="st13" x1="227.9" y1="397.2" x2="1451" y2="397.2"/>
								<line class="st13" x1="227.9" y1="380.2" x2="1451" y2="380.2"/>
								<line class="st13" x1="227.9" y1="363.2" x2="1451" y2="363.2"/>
								<line class="st13" x1="227.9" y1="346.2" x2="1451" y2="346.2"/>
								<line class="st13" x1="227.9" y1="329.3" x2="1451" y2="329.3"/>
								<line class="st13" x1="227.9" y1="312.3" x2="1451" y2="312.3"/>
								<line class="st13" x1="227.9" y1="295.3" x2="1451" y2="295.3"/>
								<line class="st13" x1="227.9" y1="278.3" x2="1451" y2="278.3"/>
								<line class="st13" x1="227.9" y1="261.4" x2="1451" y2="261.4"/>
								<line class="st13" x1="227.9" y1="244.4" x2="1451" y2="244.4"/>
								<line class="st13" x1="227.9" y1="227.4" x2="1451" y2="227.4"/>
								<line class="st13" x1="227.9" y1="210.4" x2="1451" y2="210.4"/>
								<line class="st13" x1="227.9" y1="193.4" x2="1451" y2="193.4"/>
								<line class="st13" x1="227.9" y1="176.5" x2="1451" y2="176.5"/>
								<line class="st13" x1="227.9" y1="159.5" x2="1451" y2="159.5"/>
								<line class="st13" x1="227.9" y1="142.5" x2="1451" y2="142.5"/>
								<line class="st13" x1="227.9" y1="125.5" x2="1451" y2="125.5"/>
								<line class="st13" x1="1430.9" y1="108.6" x2="1430.9" y2="974.4"/>
								<line class="st13" x1="1410.9" y1="108.6" x2="1410.9" y2="974.4"/>
								<line class="st13" x1="1390.8" y1="108.6" x2="1390.8" y2="974.4"/>
								<line class="st13" x1="1370.8" y1="108.6" x2="1370.8" y2="974.4"/>
								<line class="st13" x1="1350.7" y1="108.6" x2="1350.7" y2="974.4"/>
								<line class="st13" x1="1330.7" y1="108.6" x2="1330.7" y2="974.4"/>
								<line class="st13" x1="1310.6" y1="108.6" x2="1310.6" y2="974.4"/>
								<line class="st13" x1="1290.6" y1="108.6" x2="1290.6" y2="974.4"/>
								<line class="st13" x1="1270.5" y1="108.6" x2="1270.5" y2="974.4"/>
								<line class="st13" x1="1250.5" y1="108.6" x2="1250.5" y2="974.4"/>
								<line class="st13" x1="1230.4" y1="108.6" x2="1230.4" y2="974.4"/>
								<line class="st13" x1="1210.4" y1="108.6" x2="1210.4" y2="974.4"/>
								<line class="st13" x1="1190.3" y1="108.6" x2="1190.3" y2="974.4"/>
								<line class="st13" x1="1170.3" y1="108.6" x2="1170.3" y2="974.4"/>
								<line class="st13" x1="1150.2" y1="108.6" x2="1150.2" y2="974.4"/>
								<line class="st13" x1="1130.2" y1="108.6" x2="1130.2" y2="974.4"/>
								<line class="st13" x1="1110.1" y1="108.6" x2="1110.1" y2="974.4"/>
								<line class="st13" x1="1090.1" y1="108.6" x2="1090.1" y2="974.4"/>
								<line class="st13" x1="1070" y1="108.6" x2="1070" y2="974.4"/>
								<line class="st13" x1="1050" y1="108.6" x2="1050" y2="974.4"/>
								<line class="st13" x1="1029.9" y1="108.6" x2="1029.9" y2="974.4"/>
								<line class="st13" x1="1009.9" y1="108.6" x2="1009.9" y2="974.4"/>
								<line class="st13" x1="989.8" y1="108.6" x2="989.8" y2="974.4"/>
								<line class="st13" x1="969.8" y1="108.6" x2="969.8" y2="974.4"/>
								<line class="st13" x1="949.7" y1="108.6" x2="949.7" y2="974.4"/>
								<line class="st13" x1="929.7" y1="108.6" x2="929.7" y2="974.4"/>
								<line class="st13" x1="909.6" y1="108.6" x2="909.6" y2="974.4"/>
								<line class="st13" x1="889.6" y1="108.6" x2="889.6" y2="974.4"/>
								<line class="st13" x1="869.5" y1="108.6" x2="869.5" y2="974.4"/>
								<line class="st13" x1="849.5" y1="108.6" x2="849.5" y2="974.4"/>
								<line class="st13" x1="829.4" y1="108.6" x2="829.4" y2="974.4"/>
								<line class="st13" x1="809.4" y1="108.6" x2="809.4" y2="974.4"/>
								<line class="st13" x1="789.3" y1="108.6" x2="789.3" y2="974.4"/>
								<line class="st13" x1="769.3" y1="108.6" x2="769.3" y2="974.4"/>
								<line class="st13" x1="749.2" y1="108.6" x2="749.2" y2="974.4"/>
								<line class="st13" x1="729.2" y1="108.6" x2="729.2" y2="974.4"/>
								<line class="st13" x1="709.1" y1="108.6" x2="709.1" y2="974.4"/>
								<line class="st13" x1="689.1" y1="108.6" x2="689.1" y2="974.4"/>
								<line class="st13" x1="669" y1="108.6" x2="669" y2="974.4"/>
								<line class="st13" x1="649" y1="108.6" x2="649" y2="974.4"/>
								<line class="st13" x1="628.9" y1="108.6" x2="628.9" y2="974.4"/>
								<line class="st13" x1="608.9" y1="108.6" x2="608.9" y2="974.4"/>
								<line class="st13" x1="588.8" y1="108.6" x2="588.8" y2="974.4"/>
								<line class="st13" x1="568.8" y1="108.6" x2="568.8" y2="974.4"/>
								<line class="st13" x1="548.7" y1="108.6" x2="548.7" y2="974.4"/>
								<line class="st13" x1="528.7" y1="108.6" x2="528.7" y2="974.4"/>
								<line class="st13" x1="508.6" y1="108.6" x2="508.6" y2="974.4"/>
								<line class="st13" x1="488.6" y1="108.6" x2="488.6" y2="974.4"/>
								<line class="st13" x1="468.5" y1="108.6" x2="468.5" y2="974.4"/>
								<line class="st13" x1="448.5" y1="108.6" x2="448.5" y2="974.4"/>
								<line class="st13" x1="428.4" y1="108.6" x2="428.4" y2="974.4"/>
								<line class="st13" x1="408.4" y1="108.6" x2="408.4" y2="974.4"/>
								<line class="st13" x1="388.3" y1="108.6" x2="388.3" y2="974.4"/>
								<line class="st13" x1="368.3" y1="108.6" x2="368.3" y2="974.4"/>
								<line class="st13" x1="348.2" y1="108.6" x2="348.2" y2="974.4"/>
								<line class="st13" x1="328.2" y1="108.6" x2="328.2" y2="974.4"/>
								<line class="st13" x1="308.1" y1="108.6" x2="308.1" y2="974.4"/>
								<line class="st13" x1="288.1" y1="108.6" x2="288.1" y2="974.4"/>
								<line class="st13" x1="268" y1="108.6" x2="268" y2="974.4"/>
								<line class="st13" x1="248" y1="108.6" x2="248" y2="974.4"/>
							</g>
						</g>
					</g>
				</g>
				<path class="st4" d="M242,295V157.3c0-30.4,24.8-55,55.3-55h1106.4c30.5,0,55.3,24.6,55.3,55v753.5c0,30.4-24.8,55-55.3,55
					H297.3c-30.5,0-55.3-24.6-55.3-55v-622"/>
				<line class="st14" x1="346.2" y1="124.4" x2="346.2" y2="941.6"/>
				<line class="st14" x1="547.4" y1="124.4" x2="547.4" y2="941.6"/>
				<line class="st14" x1="748.7" y1="124.4" x2="748.7" y2="941.6"/>
				<line class="st7" x1="1436.8" y1="533" x2="264.1" y2="533"/>
				<line class="st14" x1="950" y1="124.4" x2="950" y2="941.6"/>
				<line class="st14" x1="1148.3" y1="125.4" x2="1148.3" y2="942.6"/>
				<line class="st14" x1="1348.5" y1="124.4" x2="1348.5" y2="941.6"/>
				<line class="st15" x1="264.1" y1="329.4" x2="1436.8" y2="329.4"/>
				<line class="st15" x1="264.1" y1="736.6" x2="1436.8" y2="736.6"/>
				<g>
					<g>
						<line class="st16" x1="263.1" y1="260" x2="269.1" y2="260"/>
						<line class="st17" x1="281.1" y1="260" x2="1423.8" y2="260"/>
						<line class="st16" x1="1429.8" y1="260" x2="1435.8" y2="260"/>
					</g>
				</g>
				<g>
					<g>
						<line class="st16" x1="263.1" y1="806" x2="269.1" y2="806"/>
						<line class="st17" x1="281.1" y1="806" x2="1423.8" y2="806"/>
						<line class="st16" x1="1429.8" y1="806" x2="1435.8" y2="806"/>
					</g>
				</g>
				<path class="st18" d="M268,533"/>
				<path class="st4" d="M732.5,52.6"/>
				<path class="st4" d="M477.1,52.6"/>
				<g>
					<g>
						<g class="st19">
							<path class="st20" d="M264.1,524.1c2.9,0.3,4.4,3.9,5.8,7c0.7,1.6,1.5,3.1,2.4,4.2c0.9,1.1,2,1.9,3.4,1.8
								c5.8-0.3,5.8-12,11.6-11.7c2.9,0.1,4.4,2.9,5.8,5.7c0.7,1.4,1.5,2.7,2.4,3.7s2,1.7,3.4,1.8c5.8,0.2,5.8-11.1,11.6-11.3
								c1.5,0,2.5,0.7,3.4,1.7c0.9,1.1,1.6,2.6,2.4,4.1c1.5,3.1,2.9,6.4,5.8,6.6c2.9,0.2,4.4-3.1,5.8-6.6c1.5-3.5,2.9-7.2,5.8-7.4
								c2.9-0.4,4.4,3.4,5.8,7.4c1.5,4.1,2.9,8.5,5.8,8.8c2.9,0.4,4.4-4.1,5.8-8.8c1.5-4.7,2.9-9.8,5.8-10.2
								c1.5-0.2,2.5,0.9,3.4,2.8c0.9,1.9,1.6,4.6,2.4,7.4c1.5,5.5,2.9,11.6,5.8,12.1s4.4-5.5,5.8-12.1c1.5-6.5,2.9-13.5,5.8-14
								s4.4,6.5,5.8,14c1.5,7.5,2.9,15.4,5.8,18.4c0.4,0.4,0.7,0.6,1,0.6c0.3,0.1,0.6,0,0.9-0.2s0.5-0.6,0.8-1.2
								c0.3-0.5,0.5-1.2,0.7-2c0.9-3.3,1.6-8.9,2.4-15.6c0.4-3.6,0.8-7.2,1.1-10.5c0.4-3.6,0.8-7.3,1.2-10.9c0.5-3.6,1-7,1.5-10.2
								c0.3-1.6,0.6-3,0.9-4.3s0.7-2.6,1-3.5c0.2-0.5,0.4-0.9,0.5-1.2c0.2-0.3,0.3-0.6,0.5-0.7c0.3-0.3,0.6-0.2,0.9,0.3
								c0.6,0.9,1.1,3.2,1.5,6.9c0.9,7.3,1.6,19.8,2.4,34.1c0.7,14.3,1.5,30.6,2.4,45.2c0.5,7.4,1,14.4,1.5,20.3
								c0.3,3,0.6,5.7,0.9,8c0.2,1.1,0.3,2.3,0.5,3.3s0.3,1.9,0.5,2.7c0.7,3.1,1.4,3.2,1.9,0.6c0.6-2.5,1.1-7.7,1.5-15.1
								c0.5-7.4,0.9-17.1,1.2-28.2c0.4-11.1,0.7-23.6,1.1-36.8c0.4-13.8,0.8-27.7,1.1-40.7c0.2-7,0.4-13.8,0.6-20.3
								c0.2-6.9,0.4-13.4,0.6-19.5c0.5-12.5,1-24.1,1.5-33.5c0.6-9.4,1.2-16.8,1.9-20.4c0.4-1.8,0.7-2.5,1-2s0.6,1.9,0.9,4.5
								c0.6,5.2,1.1,14.6,1.5,27.2c0.9,25.2,1.6,63.5,2.4,104.7c0.7,41.1,1.5,85.2,2.4,121.7c0.5,18.2,1,34.6,1.5,47.4
								c0.6,12.8,1.2,22.2,1.9,26c0.7,3.7,1.4,0.7,1.9-7.9c0.6-8.6,1.1-22.8,1.5-41.2c0.9-36.7,1.6-90,2.4-146.1
								c0.7-56.1,1.5-114.8,2.4-161.9c0.5-23.5,1-44,1.5-59.6c0.3-7.8,0.6-14.3,0.9-19.4c0.2-2.5,0.3-4.7,0.5-6.3
								c0.2-1.7,0.3-2.9,0.5-3.6c0.7-3.1,1.4,2.2,1.9,14.2c0.3,6,0.5,13.8,0.8,22.9c0.3,9.2,0.5,19.8,0.7,31.6
								c0.5,23.6,0.9,52,1.2,83.1c0.4,31.6,0.7,65.3,1.1,99c0.4,34.7,0.8,69.4,1.1,101.9c0.4,33,0.8,64.4,1.2,91.9
								c0.3,13.9,0.5,26.6,0.7,37.9c0.3,11.5,0.5,21.7,0.8,30.3c0.6,17.2,1.2,28.3,1.9,30.3c0.7,2.1,1.4-5.5,1.9-20.4
								c0.3-7.4,0.5-16.8,0.8-27.7c0.2-11.1,0.5-23.5,0.7-37.1c0.9-55,1.6-130.5,2.4-207c0.4-38.5,0.8-77,1.1-113.2
								c0.4-36.4,0.8-70.5,1.2-100.1c0.5-29.6,1-54.5,1.5-72.4c0.6-17.9,1.2-28.4,1.9-29.3c0.7-0.8,1.4,8.5,1.9,25.3
								c0.6,17,1.1,41.5,1.5,71c0.9,59.3,1.6,138.8,2.4,218.6c0.4,39.9,0.8,79.8,1.1,117.2c0.4,37.4,0.8,72.4,1.2,101.7
								c0.5,29.4,1,53.1,1.5,68.3c0.6,15.2,1.2,21.5,1.9,16.3c0.1-0.7,0.2-1.5,0.3-2.4c0-0.4,0.1-0.9,0.1-1.6c0-0.5,0.1-1.1,0.1-1.8
								c0.2-2.6,0.3-5.6,0.5-9.1c0.1-1.7,0.1-3.5,0.2-5.6c0.1-2,0.1-4.1,0.2-6.5c0.1-4.2,0.3-9.1,0.4-14.5
								c0.1-5.1,0.3-10.7,0.4-16.8c0.1-5.7,0.3-12,0.4-18.6c0.2-12.3,0.5-26.3,0.7-41.4c0.4-27,0.8-58.6,1.2-92.4
								c0.4-29.7,0.7-61.3,1.1-92.9c0.4-27.4,0.8-54.7,1.1-80.4c0.4-23.3,0.8-42.5,1.2-55.8c0.5-13.4,1-21,1.5-21.7
								c0.6-0.8,1.2,5.2,1.9,17.5c0.4,6.1,0.7,12.9,1,19.9c0.2,4.7,0.5,11.6,0.9,20.4c0.4,9.6,0.9,23.2,1.5,39.6
								c0.4,10,0.8,21.6,1.2,34.1c0.4,10.2,0.7,19,1.1,26.6c0.4,7.5,0.7,13.8,1.1,18.4c0.2,2.4,0.4,4.5,0.6,6.1
								c0.1,0.8,0.2,1.5,0.3,2.1c0.1,0.7,0.2,1.2,0.3,1.7c0.9,3.9,2,2.1,3.4,0.7c1.5-0.9,2.5-5,3.4-10.4s1.6-12.2,2.4-18.6
								c0.7-6.5,1.5-12.6,2.4-16.9c0.9-4.3,2-6.6,3.4-5.8c1.5,0.8,2.5,4.2,3.4,8.4s1.6,9.4,2.4,14.2c0.7,4.9,1.5,9.5,2.4,12.6
								c0.9,3.2,2,4.9,3.4,4.2c1.5-0.7,2.5-3.2,3.4-6.3c0.9-3.2,1.6-7,2.4-10.5c0.7-3.6,1.5-6.9,2.4-9.1c0.5-1.1,1-1.9,1.5-2.4
								c0.6-0.5,1.2-0.7,1.9-0.4c1.5,0.5,2.5,2.3,3.4,4.5s1.6,4.9,2.4,7.4c0.7,2.5,1.5,4.8,2.4,6.4c0.9,1.6,2,2.4,3.4,2
								c2.9-0.7,4.4-4.8,5.8-8.4c0.7-1.8,1.5-3.5,2.4-4.7s2-2,3.4-1.8c1.5,0.1,2.5,1.1,3.4,2.3s1.6,2.7,2.4,4.3
								c0.7,1.6,1.5,3.1,2.4,4.2c0.9,1.1,2,1.9,3.4,2c2.9,0.2,4.4-2.9,5.8-6.3c1.5-3.3,2.9-7.1,5.8-7.6c5.8-1.4,5.8,15.6,11.6,17.9
								c1.5,0.5,2.5-0.5,3.4-2.5s1.6-4.8,2.4-7.9c0.7-3,1.5-6.3,2.4-8.9c0.9-2.6,2-4.6,3.4-5.1c1.5-0.5,2.5,0.8,3.4,3.4
								c0.9,2.6,1.6,6.5,2.4,10.5c0.7,4.1,1.5,8.3,2.4,11.8s2,6.1,3.4,6.7c1.5,0.6,2.5-1.4,3.4-4.9s1.6-8.5,2.4-13.7
								c1.5-10.6,2.9-21,5.8-33.5c0-0.2,0.1-0.4,0.3-1c0-0.1,0.1-0.3,0.1-0.5c0-0.1,0.1-0.3,0.1-0.5c0.2-0.7,0.3-1.2,0.5-1.7
								s0.3-0.8,0.5-1.1c0.2-0.3,0.3-0.6,0.4-0.7c0.1-0.1,0.3-0.1,0.4,0c0.1,0.1,0.3,0.3,0.4,0.6c0.3,0.5,0.5,1.6,0.7,3
								c0.1,0.4,0.1,0.8,0.2,1.2c0.1,0.4,0.1,0.8,0.2,1.3c0.1,0.9,0.2,1.9,0.3,3.1c0.2,2.2,0.4,4.9,0.6,7.9c0.4,6,0.7,13.5,1.1,22
								c0.9,21.8,1.7,43.5,2.4,59.9c0.5,10.9,1,21.8,1.5,31.9c0.6,10,1.2,19.1,1.9,25.5s1.4,8.4,1.9,5.5c0.6-3,1.1-10.4,1.5-21.6
								c0.1-2.9,0.2-5.9,0.3-9c0.1-3.4,0.2-6.8,0.3-10.4c0.2-7.6,0.4-15.7,0.6-24c0.4-18.4,0.7-38,1.1-57.6
								c0.7-41.3,1.5-86.7,2.4-124.3c0.3-9.7,0.5-18.6,0.7-26.4c0.3-8.1,0.5-15.5,0.8-21.9c0.1-1.6,0.1-3.2,0.2-4.7
								c0.1-1.5,0.2-2.9,0.2-4.2c0.2-2.6,0.3-5,0.5-7.1s0.3-3.9,0.5-5.3s0.3-2.4,0.5-3.1c2.9-10.4,4.4,94.2,5.8,197
								c0.7,51.4,1.5,102.7,2.4,139.8s2,59.8,3.4,54.5c0.1-0.3,0.2-0.7,0.3-1.2s0.2-1.2,0.3-1.9c0.2-1.4,0.3-3.2,0.5-5.2
								s0.3-4.4,0.5-6.9c0.1-2.5,0.3-5.5,0.4-8.8c0.3-6.3,0.5-13.6,0.8-21.5c0.2-7.7,0.5-16.5,0.7-26c0.5-18.4,0.9-39,1.2-59.9
								c0.4-20.1,0.7-41.5,1.1-63c0.7-41.2,1.5-78.5,2.4-101.7c0.2-5.9,0.5-10.6,0.7-14.5c0.3-3.8,0.5-6.6,0.8-8.3
								c0.3-1.7,0.6-2.3,0.9-1.7c0.3,0.7,0.7,2.5,1,5.5c0.4,3,0.7,6.7,1,10.9c0.3,4.2,0.6,8.8,0.9,13.8c0.6,9.9,1.1,21,1.5,32.2
								c0.6,17.4,1.5,40.6,2.4,63.9c0.4,9.3,0.7,17.6,1.1,24.3c0.2,3.4,0.4,6.3,0.6,8.8c0.2,2.5,0.4,4.7,0.6,6.3
								c0.1,0.8,0.2,1.5,0.3,2.1c0.1,0.3,0.1,0.5,0.2,0.8c0.1,0.2,0.1,0.5,0.2,0.6c0.3,0.7,0.5,0.9,0.8,0.6c0.1-0.2,0.3-0.4,0.4-0.7
								c0.2-0.3,0.3-0.8,0.5-1.4c0.2-0.6,0.3-1.3,0.5-2s0.3-1.5,0.5-2.5c0.2-0.9,0.4-1.9,0.5-2.9c0.1-0.6,0.3-1.6,0.5-2.8
								c0.1-0.8,0.3-1.7,0.5-2.8c0.1-0.8,0.3-1.8,0.4-2.8c0.2-1.5,0.5-3.2,0.8-5.2c0.2-1.5,0.5-3.1,0.7-4.9
								c0.9-6.2,1.6-11.4,2.4-15.5c1.5-8.2,2.9-11.9,5.8-12.5c1.5-0.3,2.5,0.2,3.4,2.3s1.6,5.6,2.4,10.1c0.9,5.7,1.7,11.5,2.4,15.8
								c0.9,5.7,2,12,3.4,16.7c0.7,2.2,1.4,3.5,1.9,3.2c0.1-0.1,0.3-0.3,0.4-0.5c0.1-0.2,0.3-0.5,0.4-0.9c0.3-0.8,0.5-2,0.7-3.5
								c0.5-3,0.9-7.2,1.2-12.5c0.4-5.3,0.7-11.5,1.1-18.3c0.7-13.6,1.5-29.6,2.4-44.5c0.5-7.5,1-14.8,1.5-21.1
								c0.6-6.3,1.2-11.7,1.9-15.2c0.7-3.4,1.4-3.8,1.9-1.3c0.6,2.4,1.1,7.9,1.5,15.5c0.9,15.3,1.6,39.7,2.4,66.6
								c0.7,26.9,1.5,56,2.4,80.7c0.1,3.1,0.2,6.1,0.3,9s0.3,5.7,0.4,8.4c0.3,5.4,0.5,10.3,0.8,14.7c0.2,2.3,0.3,4.3,0.4,6.1
								c0.2,1.8,0.3,3.5,0.5,5c0.3,3,0.7,5.2,1,6.4c0.4,1.2,0.7,1.2,1,0.3c0.3-1,0.6-2.9,0.9-5.9c0.6-6,1.1-15.6,1.5-28
								c0.5-12.4,0.9-27.4,1.2-43.9c0.4-16.8,0.7-34.7,1.1-52.7c0.7-36.4,1.5-74.1,2.4-103.1s2-49.5,3.4-50.4
								c1.5-0.9,2.5,18.5,3.4,47.5s1.6,67.5,2.4,105.9c1.5,76.9,2.9,153.3,5.8,151.5c0.7-0.3,1.4-5.6,1.9-14.2
								c0.6-8.6,1.1-20.6,1.5-34.8c0.9-28.5,1.6-65.8,2.4-102.5c1.5-73.5,2.9-144.3,5.8-139.9c0.4,0.5,0.7,2.1,1,4.5
								c0.3,2.5,0.6,5.9,0.9,10.1c0.6,8.3,1.1,19.6,1.5,32.7c0.5,13.1,0.9,28.1,1.2,43.9c0.4,15.5,0.7,32.1,1.1,48.7
								c0.7,32.7,1.5,64.4,2.4,86.9c0.5,11.2,1,20.3,1.5,26c0.6,5.7,1.2,8.1,1.9,6.6s1.4-6.6,1.9-14c0.6-7.4,1.1-17.1,1.5-28.4
								c0.9-22.5,1.6-50.4,2.4-77.1c0.7-26.7,1.5-52.1,2.4-69.7c0.5-8.8,1-15.5,1.5-19.6c0.6-4.1,1.2-5.5,1.9-3.7s1.4,6.2,1.9,12.3
								c0.6,6.1,1.1,13.8,1.5,22.5c0.9,17.4,1.6,38.5,2.4,58.3c0.7,19.8,1.5,38.2,2.4,50.5c0.5,6.1,1,10.7,1.5,13.3
								c0.6,2.6,1.2,3.1,1.9,1.4c0.7-1.8,1.4-5.2,1.9-9.6c0.6-4.5,1.1-10,1.5-16.1c0.9-12.1,1.6-26.4,2.4-39.5
								c0.7-13,1.5-25,2.4-32.6c0.2-1.9,0.5-3.5,0.7-4.9c0.3-1.4,0.5-2.4,0.8-3.1c0.6-1.5,1.2-1.6,1.9-0.2c1.5,2.5,2.5,9.4,3.4,16.8
								c0.9,7.5,1.6,16.2,2.4,24c0.7,7.8,1.5,14.9,2.4,19.3c0.5,2.2,1,3.8,1.5,4.6c0.6,0.8,1.2,0.8,1.9,0c1.5-1.5,2.5-5.4,3.4-9.8
								c0.9-4.3,1.6-9.4,2.4-14c0.7-4.6,1.5-8.9,2.4-11.8c0.5-1.4,1-2.5,1.5-3.1c0.6-0.7,1.2-1,1.9-0.7c0.4,0.1,0.7,0.4,1,0.7
								c0.2,0.2,0.3,0.4,0.5,0.6c0.2,0.2,0.3,0.4,0.4,0.6c0.6,0.9,1.1,2.1,1.5,3.6c0.9,2.9,1.6,6.5,2.4,10.1c0.7,3.6,1.5,7,2.4,9.6
								s2,4.4,3.4,4.4c0.4,0,0.7-0.1,1-0.3s0.6-0.4,0.9-0.8c0.6-0.7,1.1-1.7,1.5-3c0.9-2.6,1.6-6.2,2.4-10c0.7-3.7,1.5-7.7,2.4-10.9
								s2-5.7,3.4-6.4c1.5-0.9,2.5,0.6,3.4,3.9c0.9,3.3,1.6,8.1,2.4,13.4c0.7,5.3,1.5,11.1,2.4,16.1c0.5,2.5,1,4.6,1.5,6.6
								c0.6,1.9,1.2,3.4,1.9,4.2s1.4,0.6,1.9-0.4c0.6-1,1.1-2.7,1.5-5.2c0.9-5,1.6-12.7,2.4-21.2c0.7-8.4,1.5-17.7,2.4-25.6
								s2-14.5,3.4-16.8c1.5-2.4,2.5,1.3,3.4,9.3c0.5,4,0.9,9,1.2,14.6c0.4,5.6,0.7,11.9,1.1,18.4c0.7,13,1.5,27.1,2.4,38.8
								c0.9,11.6,2,21.3,3.4,24.1c0.7,1.4,1.4,0.6,1.9-2.1c0.6-2.6,1.1-7.1,1.5-13c0.9-11.8,1.6-29.3,2.4-47.9
								c0.7-18.6,1.5-38.3,2.4-54.4c0.5-8,1-15.2,1.5-20.7c0.6-5.5,1.2-9.5,1.9-10.9s1.4-0.1,1.9,3.8c0.6,3.9,1.1,10.1,1.5,18.2
								c0.9,16.2,1.6,39.5,2.4,64c0.7,24.5,1.5,50.1,2.4,70.7c0.5,10.3,1,19.3,1.5,26.2c0.6,6.9,1.2,11.6,1.9,13.1
								c0.4,0.7,0.7,0.7,1-0.3c0.2-0.5,0.3-1.1,0.5-2c0.1-0.4,0.1-0.9,0.2-1.5c0.1-0.5,0.1-1.1,0.2-1.7c0.3-2.4,0.5-5.6,0.8-9.5
								s0.5-8.5,0.7-13.5c0.5-10.1,0.9-22.7,1.2-36.5c0.4-14.4,0.7-29.7,1.1-45c0.7-31.6,1.5-65.2,2.4-93.4c0.3-7.3,0.5-14,0.7-20
								c0.3-6.2,0.5-12,0.8-17.1s0.6-9.7,0.9-13.4c0.2-1.9,0.3-3.4,0.5-4.9s0.3-2.7,0.5-3.6c0.4-1.9,0.7-2.5,1-1.9s0.6,2.6,0.9,5.6
								c0.6,5.9,1.1,16.6,1.5,30.9c0.5,14.3,0.9,32.1,1.2,52.2c0.4,20.9,0.7,43.2,1.1,65.5c0.7,46.2,1.5,95.7,2.4,136.6
								c0.5,20.5,1,38.7,1.5,53c0.6,14.2,1.2,24.7,1.9,28.4c0.4,1.9,0.7,2,1,0.3c0.2-0.8,0.3-2.1,0.5-3.7c0.2-1.7,0.3-3.8,0.4-6.3
								c0.3-5,0.5-11.5,0.8-19.3c0.3-7.9,0.5-17.1,0.7-27.5c0.9-41.3,1.6-100.4,2.4-161.5c0.4-31,0.8-62.1,1.1-91.2
								c0.2-14.9,0.4-29.3,0.6-43c0.2-13.9,0.4-27,0.6-39.1c0.3-12.4,0.5-23.7,0.7-33.8c0.3-10.1,0.5-19.1,0.8-26.7
								c0.6-15.2,1.2-24.4,1.9-25.5c1.5-2.1,2.5,30.1,3.4,79.1s1.6,114.8,2.4,180.1c0.7,65.3,1.5,130.3,2.4,178.7
								c0.5,24.2,1,44.2,1.5,58c0.6,13.8,1.2,21.6,1.9,20.9c1.5-1.2,2.5-34.2,3.4-82.4s1.6-112,2.4-175.1
								c0.7-63.1,1.5-125.7,2.4-171.9c0.5-23.1,1-42.2,1.5-55.2c0.6-13,1.2-19.9,1.9-19s1.4,9.3,1.9,23.3c0.6,14,1.1,33.4,1.5,56.6
								c0.9,46.2,1.6,106.7,2.4,166.3c0.7,59.6,1.5,118.5,2.4,161.7s2,70.4,3.4,68.1c0.4-0.6,0.7-2.9,1-6.7
								c0.3-3.9,0.6-9.3,0.9-15.9c0.6-13.3,1.1-31.6,1.5-53.2c0.9-43.1,1.6-99,2.4-154c0.7-55,1.5-108.8,2.4-148s2-63.6,3.4-60.5
								c0.7,1.5,1.4,9.3,1.9,21.5c0.6,12.3,1.1,28.9,1.5,48.5c0.9,39.1,1.6,89.4,2.4,138.4c0.7,49,1.5,97,2.4,131.3
								c0.5,17.2,1,31,1.5,40c0.6,9,1.2,13.3,1.9,11.6s1.4-8.9,1.9-19.9c0.6-11,1.1-25.7,1.5-42.9c0.9-34.2,1.6-77.9,2.4-120.1
								c0.7-42.3,1.5-83.1,2.4-112.1c0.5-14.5,1-26.1,1.5-33.5c0.6-7.4,1.2-10.7,1.9-8.9c0.7,1.8,1.4,8.2,1.9,17.7
								c0.6,9.5,1.1,22.1,1.5,36.6c0.9,28.9,1.6,65.3,2.4,100.2c0.7,34.9,1.5,68.4,2.4,91.9s2,36.7,3.4,32.9
								c0.7-1.9,1.4-7.3,1.9-15.2c0.6-7.9,1.1-18.2,1.5-29.8c0.9-23.4,1.6-52.3,2.4-79.8c0.7-27.5,1.5-53.6,2.4-71.7
								c0.5-9,1-16,1.5-20.2c0.6-4.2,1.2-5.7,1.9-4c0.7,1.8,1.4,6.3,1.9,12.5c0.6,6.2,1.1,14.3,1.5,23.2c0.9,17.8,1.6,39.6,2.4,60.2
								c0.7,20.6,1.5,39.8,2.4,52.8c0.5,6.5,1,11.5,1.5,14.4c0.6,2.9,1.2,3.7,1.9,2.1c1.5-3.1,2.5-13.6,3.4-26.5
								c0.5-6.5,0.9-13.6,1.2-20.9c0.4-7,0.7-14.5,1.1-21.9c0.7-14.4,1.5-27.8,2.4-36.6c0.9-8.8,2-13.1,3.4-10.5
								c0.7,1.2,1.4,3.8,1.9,7.1c0.6,3.2,1.1,7.2,1.5,11.6c0.9,8.7,1.6,19,2.4,28.5c0.7,9.4,1.5,18.1,2.4,23.7
								c0.5,2.8,1,4.9,1.5,5.9c0.6,1.1,1.2,1.1,1.9,0.2c1.5-1.7,2.5-6.5,3.4-12.1c0.5-2.8,0.9-5.8,1.2-8.8c0.4-2.9,0.7-5.9,1.1-9
								c0.7-5.8,1.5-11.1,2.4-14.5c0.5-1.7,1-2.9,1.5-3.4c0.6-0.6,1.2-0.8,1.9-0.2c1.5,1.1,2.5,4.1,3.4,7.4
								c0.9,3.3,1.6,7.1,2.4,10.7c1.5,7.3,2.9,12.7,5.8,11.8c2.9-1.1,4.4-6.6,5.8-11.8c1.5-5.2,2.9-9.9,5.8-9.3
								c2.9,0.6,4.4,5.2,5.8,9.3c1.5,4.1,2.9,7.6,5.8,7s4.4-4.1,5.8-7c1.5-3,2.9-5.4,5.8-4.8c2.9,0.5,4.4,2.8,5.8,4.8
								c1.5,2.1,2.9,3.8,5.8,3.4c2.9-0.4,4.4-2.1,5.8-3.4c1.5-1.4,2.9-2.4,5.8-2.1c2.9,0.4,4.4,1.4,5.8,2.1c1.5,0.7,2.9,1.3,5.8,1.1
								c5.8-0.3,5.8-2.1,11.6-1.8c2.9,0.1,4.4,0.5,5.8,0.7c1.5,0.2,2.9,0.3,5.8,0.2c5.8,0,5.8-0.3,11.6-0.3c5.8,0,5.8,0.2,11.6,0.2
								c0,0,2.9,0,5.8-0.1c0.9,0,1.7,0,2.4,0c0.9,0,2,0,3.4-0.1c5.8-0.3,5.8,0.3,11.6,0.5c0.7,0,1.4,0,1.9,0c0.6,0,1.1,0,1.5,0
								c0.9-0.1,1.6-0.2,2.4-0.5c1.5-0.4,2.9-1.2,5.8-1.5s4.4,0.4,5.8,1.5c1.5,1.1,2.9,2.6,5.8,3.2c2.9,0.5,4.4-1.1,5.8-3.2
								c1.5-2,2.9-4.6,5.8-5.1s4.4,2,5.8,5.1c1.5,3,2.9,6.5,5.8,7.1s4.4-3,5.8-7.1c1.5-4,2.9-8.5,5.8-9s4.4,4,5.8,9
								c1.5,5,2.9,10.5,5.8,10.7c2.9,0.3,4.4-5.1,5.8-10.7c0.7-2.8,1.5-5.7,2.4-7.9c0.5-1.1,1-2.1,1.5-2.8c0.6-0.7,1.2-1.1,1.9-1.1
								c5.8-0.3,5.8,23.8,11.6,24.1c1.5,0,2.5-1.4,3.4-3.8c0.9-2.4,1.6-5.4,2.4-8.5c0.7-3,1.5-6,2.4-8.1s2-3.1,3.4-2.7
								c1.5,0.4,2.5,2.3,3.4,4.3c0.9,2.1,1.6,4.4,2.4,6.5c0.7,2.1,1.5,3.9,2.4,4.9s2,1.2,3.4,0.4c1.5-0.8,2.5-2,3.4-2.9
								s1.6-1.8,2.4-2.4c0.7-0.6,1.5-1,2.4-1.1s2,0.1,3.4,0.5c2.9,0.4,4.4,0.6,5.8,0.6c1.5,0,2.9,0.1,5.8,0.2
								c5.8,0.2,5.8-0.5,11.6-0.7c2.9-0.1,4.4,0.2,5.8,0.5c1.5,0.4,2.9,1,5.8,1.3c5.8,0.6,5.8-2.8,11.6-3.8c2.9-0.5,4.4,0.8,5.8,2.5
								c1.5,1.7,2.9,3.9,5.8,4.4"/>
						</g>
					</g>
				</g>
			</g>
		</g>
	</g>
</g>
<g>
	<path class="st21" d="M1825.5,112.6H1544c-21.5,0-39,17.5-39,39v300c0,21.5,17.5,39,39,39h281.5c21.5,0,39-17.5,39-39v-300
		C1864.5,130,1847,112.6,1825.5,112.6z"/>
	<g>
		<path class="st22" d="M1825.5,88.8H1544c-21.5,0-39,17.5-39,39v300c0,21.5,17.5,39,39,39h281.5c21.5,0,39-17.5,39-39v-300
			C1864.5,106.3,1847,88.8,1825.5,88.8z"/>
	</g>
	<g>
		<g>
			<g>
				<path class="st9" d="M1622.5,289h7.1v36.5h-5.4l-15.4-22.3v22.3h-7.1V289h5.4l15.4,22.2V289z"/>
				<path class="st9" d="M1657.7,322.2c-2.6,2.7-5.8,4-9.6,4s-7-1.3-9.6-4c-2.6-2.7-3.9-5.9-3.9-9.8s1.3-7.1,3.9-9.8
					c2.6-2.7,5.8-4,9.6-4s7,1.3,9.6,4s3.9,5.9,3.9,9.8S1660.4,319.6,1657.7,322.2z M1643.1,317.6c1.3,1.4,3,2,4.9,2c2,0,3.6-0.7,5-2
					s2-3.1,2-5.2s-0.7-3.8-2-5.2s-3-2-5-2c-2,0-3.6,0.7-4.9,2s-2,3.1-2,5.2S1641.8,316.3,1643.1,317.6z"/>
				<path class="st9" d="M1673,303.9c0.6-1.7,1.6-2.9,3-3.8s3-1.3,4.7-1.3v7.5c-2-0.2-3.8,0.2-5.4,1.3c-1.6,1.1-2.4,2.9-2.4,5.4
					v12.5h-6.6v-26.1h6.6V303.9z"/>
				<path class="st9" d="M1712.9,298.7c2.9,0,5.3,1,7,2.9c1.8,1.9,2.6,4.6,2.6,7.8v16.1h-6.6v-15.6c0-1.6-0.4-2.8-1.1-3.6
					c-0.8-0.9-1.8-1.3-3.2-1.3c-1.5,0-2.7,0.5-3.5,1.5c-0.8,1-1.3,2.5-1.3,4.4v14.6h-6.6v-15.6c0-1.6-0.4-2.8-1.1-3.6
					c-0.8-0.9-1.8-1.3-3.2-1.3c-1.5,0-2.6,0.5-3.5,1.5c-0.9,1-1.3,2.5-1.3,4.4v14.6h-6.6v-26.1h6.6v2.8c1.5-2.3,3.9-3.5,7.1-3.5
					c3.1,0,5.5,1.3,7,3.8C1707,300,1709.6,298.7,1712.9,298.7z"/>
				<path class="st9" d="M1747.8,299.4h6.6v26.1h-6.6v-3.1c-2,2.5-4.8,3.8-8.4,3.8c-3.4,0-6.3-1.3-8.8-4c-2.4-2.7-3.7-5.9-3.7-9.8
					s1.2-7.1,3.7-9.8c2.4-2.7,5.4-4,8.8-4c3.6,0,6.4,1.3,8.4,3.8V299.4z M1735.5,317.8c1.3,1.4,3,2.1,5.1,2.1s3.8-0.7,5.1-2.1
					c1.3-1.4,2-3.1,2-5.3c0-2.2-0.7-3.9-2-5.3c-1.4-1.4-3-2.1-5.1-2.1s-3.7,0.7-5.1,2.1c-1.3,1.4-2,3.1-2,5.3
					C1733.5,314.6,1734.2,316.4,1735.5,317.8z"/>
				<path class="st9" d="M1760.4,325.5v-38.1h6.6v38.1H1760.4z"/>
			</g>
		</g>
		<circle class="st23" cx="1688.3" cy="239.2" r="31.1"/>
		<polyline class="st24" points="1673.6,241.5 1682.8,250.8 1703,230.6 		"/>
	</g>
</g>
<g>
	<path class="st25" d="M1827.2,560.9h-281.5c-21.5,0-39,17.5-39,39v300c0,21.5,17.5,39,39,39h281.5c21.5,0,39-17.5,39-39v-300
		C1866.2,578.4,1848.7,560.9,1827.2,560.9z"/>
	<g>
		<path class="st26" d="M1827.2,537.2h-281.5c-21.5,0-39,17.5-39,39v300c0,21.5,17.5,39,39,39h281.5c21.5,0,39-17.5,39-39v-300
			C1866.2,554.6,1848.7,537.2,1827.2,537.2z"/>
	</g>
	<g>
		<g>
			<path class="st2" d="M1646.1,747.6h-13.2v7.8h12.8v6.2h-12.8v12.7h-6.5v-32.9h19.6V747.6z"/>
			<path class="st2" d="M1668.4,750.8h6.1v23.5h-6.1v-2.8c-1.8,2.3-4.4,3.4-7.7,3.4c-3.1,0-5.8-1.2-8.1-3.6
				c-2.2-2.4-3.4-5.3-3.4-8.8s1.1-6.4,3.4-8.8c2.2-2.4,4.9-3.6,8.1-3.6c3.3,0,5.8,1.1,7.7,3.4V750.8z M1657.2,767.3
				c1.2,1.2,2.8,1.9,4.7,1.9c1.9,0,3.4-0.6,4.7-1.9s1.9-2.8,1.9-4.8c0-1.9-0.6-3.5-1.9-4.8c-1.2-1.2-2.8-1.9-4.7-1.9
				c-1.9,0-3.4,0.6-4.7,1.9c-1.2,1.2-1.8,2.8-1.8,4.8C1655.4,764.4,1656,766,1657.2,767.3z"/>
			<path class="st2" d="M1695.5,750.8h6.1v23.5h-6.1v-2.6c-1.5,2.2-3.8,3.3-7,3.3c-2.6,0-4.7-0.9-6.4-2.6c-1.7-1.7-2.5-4.1-2.5-7.1
				v-14.4h6.1v13.7c0,1.6,0.4,2.8,1.3,3.6c0.8,0.8,2,1.2,3.4,1.2c1.6,0,2.8-0.5,3.8-1.5c0.9-1,1.4-2.4,1.4-4.4V750.8z"/>
			<path class="st2" d="M1707.1,774.3v-34.3h6.1v34.3H1707.1z"/>
			<path class="st2" d="M1732.2,756.6h-5.3v9.8c0,0.8,0.2,1.4,0.6,1.8c0.4,0.4,1,0.6,1.8,0.6c0.8,0,1.8,0,2.9,0v5.5
				c-4.2,0.5-7.1,0.1-8.8-1.2c-1.7-1.3-2.6-3.5-2.6-6.7v-9.8h-4.1v-5.8h4.1V746l6.1-1.8v6.6h5.3V756.6z"/>
			<path class="st2" d="M1752.3,750.8h6.5l-8.6,23.5c-1.2,3.4-2.8,5.8-4.9,7.3s-4.5,2.2-7.5,2V778c1.6,0,2.9-0.3,3.9-1
				c1-0.7,1.7-1.9,2.3-3.5l-9.6-22.8h6.6l6.1,15.8L1752.3,750.8z"/>
		</g>
		<circle class="st23" cx="1688.5" cy="687" r="31.1"/>
	</g>
	<g class="st27">
		<path class="st2" d="M1691.3,702.6c-0.8,0.8-1.7,1.2-2.8,1.2c-1.1,0-2-0.4-2.8-1.2c-0.8-0.8-1.2-1.7-1.2-2.8c0-1.1,0.4-2,1.2-2.8
			c0.8-0.8,1.7-1.2,2.8-1.2c1.1,0,2,0.4,2.8,1.2c0.8,0.8,1.2,1.7,1.2,2.8C1692.5,700.9,1692.1,701.8,1691.3,702.6z M1686.1,692.1
			l-1.3-12.5v-9.4h7.3v9.4l-1.2,12.5H1686.1z"/>
	</g>
</g>
</svg>
