<?xml version="1.0" encoding="utf-8"?>
<!-- Generator: Adobe Illustrator 26.3.1, SVG Export Plug-In . SVG Version: 6.00 Build 0)  -->
<svg version="1.1" id="Layer_2_00000168082583142201047190000013213606827167002036_"
	 xmlns="http://www.w3.org/2000/svg" xmlns:xlink="http://www.w3.org/1999/xlink" x="0px" y="0px" viewBox="0 0 1919.9 1079.4"
	 style="enable-background:new 0 0 1919.9 1079.4;" xml:space="preserve">
<style type="text/css">
	.st0{fill:#323258;}
	.st1{opacity:0.3;fill:#19192C;enable-background:new    ;}
	.st2{fill:#FFFFFF;}
	.st3{fill:#19192C;}
	.st4{fill:none;stroke:#FFFFFF;stroke-width:6;stroke-miterlimit:10;}
	.st5{fill:none;}
	.st6{enable-background:new    ;}
	.st7{fill:#6DB6AF;}
	.st8{opacity:0.8;fill:#2D2D4A;enable-background:new    ;}
	.st9{opacity:0.6;}
	.st10{clip-path:url(#SVGID_00000056393049387249335710000015571915116773488273_);}
	.st11{fill:none;stroke:#6DB6AF;stroke-width:0.75;stroke-miterlimit:10;}
	.st12{opacity:0.8;fill:none;stroke:#6DB6AF;stroke-width:2;stroke-miterlimit:10;enable-background:new    ;}
	.st13{fill:none;stroke:#FFFFFF;stroke-width:2;stroke-miterlimit:10;}
	.st14{fill:none;stroke:#FF884D;stroke-width:2;stroke-miterlimit:10;stroke-dasharray:12;}
	.st15{fill:none;stroke:#D30741;stroke-width:2;stroke-miterlimit:10;}
	.st16{fill:none;stroke:#D30741;stroke-width:2;stroke-miterlimit:10;stroke-dasharray:11.966,11.966;}
	.st17{fill:none;stroke:#6DB6AF;stroke-width:4;stroke-miterlimit:10;}
	.st18{opacity:0.8;}
</style>
<g>
	<rect x="1.4" y="1.7" class="st0" width="1919.9" height="1079.4"/>
	<rect x="1.4" y="1.7" class="st0" width="1919.9" height="1079.4"/>
	<rect x="1.4" y="1.7" class="st1" width="610.8" height="1079.4"/>
	<circle class="st2" cx="1886.4" cy="1042.9" r="8.6"/>
	<circle class="st2" cx="1886.4" cy="31.6" r="8.6"/>
	
		<ellipse transform="matrix(0.9995 -3.060350e-02 3.060350e-02 0.9995 -31.8968 1.5871)" class="st2" cx="35.9" cy="1042.8" rx="8.6" ry="8.6"/>
	<circle class="st2" cx="35.9" cy="37.2" r="8.6"/>
</g>
<path class="st3" d="M1799.3,941.6H706c-21,0-37.9-17-37.9-37.9v-744c0-21,17-37.9,37.9-37.9h1093.3c21,0,37.9,17,37.9,37.9v744
	C1837.2,924.6,1820.2,941.6,1799.3,941.6z"/>
<path id="Rectangle_131_00000146470106445733969760000008320488661288618665_" class="st1" d="M116.9,753l91.1,3.3
	c13.9,0.2,24.9,11.7,24.7,25.5l-0.7,41.8c-0.2,13.9-11.7,24.9-25.5,24.7l-91.1-3.3c-13.9-0.2-24.9-11.7-24.7-25.5l0.7-41.8
	C91.6,763.8,103,752.8,116.9,753z"/>
<path class="st4" d="M1138.8,52.6"/>
<path class="st4" d="M883.4,52.6"/>
<path class="st4" d="M1815.2,52.6"/>
<g>
	<rect x="94.2" y="438" class="st5" width="446.7" height="207.3"/>
	<g class="st6">
		<path class="st2" d="M117.5,438v5.9h-8.3v25.5h-6.1v-25.5h-8.3V438H117.5z"/>
		<path class="st2" d="M132.9,446.4c2.4,0,4.4,0.8,6,2.5c1.6,1.6,2.4,3.9,2.4,6.8v13.8h-5.7v-13.1c0-1.5-0.4-2.6-1.2-3.4
			s-1.9-1.2-3.2-1.2c-1.5,0-2.6,0.5-3.5,1.4c-0.9,0.9-1.3,2.3-1.3,4.2v12.1h-5.7V438h5.7v11.5C127.7,447.4,129.9,446.4,132.9,446.4z
			"/>
		<path class="st2" d="M150.9,460.6c0.8,2.8,2.8,4.2,6.2,4.2c2.2,0,3.8-0.7,4.9-2.2l4.6,2.7c-2.2,3.2-5.4,4.8-9.6,4.8
			c-3.7,0-6.6-1.1-8.8-3.4c-2.2-2.2-3.3-5.1-3.3-8.5s1.1-6.2,3.3-8.5s5-3.4,8.4-3.4c3.2,0,5.9,1.1,8,3.4s3.2,5.1,3.2,8.4
			c0,0.7-0.1,1.5-0.2,2.4h-16.7V460.6z M150.8,456.1h11.3c-0.3-1.5-1-2.7-2-3.4c-1-0.7-2.2-1.1-3.5-1.1c-1.5,0-2.8,0.4-3.8,1.2
			C151.8,453.6,151.2,454.7,150.8,456.1z"/>
		<path class="st2" d="M195.4,452.6h-5v9.3c0,0.8,0.2,1.3,0.6,1.7c0.4,0.4,0.9,0.6,1.7,0.6c0.7,0,1.6,0,2.7,0v5.3
			c-3.9,0.4-6.7,0.1-8.3-1.1s-2.4-3.3-2.4-6.4v-9.3h-3.8V447h3.8v-4.5l5.7-1.8v6.3h5V452.6z"/>
		<path class="st2" d="M217.6,466.6c-2.3,2.3-5,3.4-8.3,3.4s-6-1.1-8.3-3.4s-3.4-5.1-3.4-8.4s1.1-6.1,3.4-8.4c2.3-2.3,5-3.4,8.3-3.4
			s6,1.1,8.3,3.4s3.4,5.1,3.4,8.4S219.9,464.3,217.6,466.6z M205.1,462.7c1.1,1.2,2.6,1.8,4.3,1.8s3.1-0.6,4.3-1.8
			c1.1-1.2,1.7-2.6,1.7-4.4s-0.6-3.3-1.7-4.4c-1.1-1.2-2.6-1.8-4.3-1.8s-3.1,0.6-4.3,1.8c-1.1,1.2-1.7,2.6-1.7,4.4
			S203.9,461.5,205.1,462.7z"/>
		<path class="st2" d="M239.6,447h5.7v22.4h-5.7v-2.5c-1.4,2.1-3.6,3.1-6.6,3.1c-2.4,0-4.4-0.8-6-2.5c-1.6-1.6-2.4-3.9-2.4-6.8V447
			h5.7v13.1c0,1.5,0.4,2.6,1.2,3.4s1.9,1.2,3.2,1.2c1.5,0,2.6-0.5,3.5-1.4s1.3-2.3,1.3-4.2V447H239.6z"/>
		<path class="st2" d="M261,470.1c-3.3,0-6.1-1.1-8.3-3.4s-3.3-5.1-3.3-8.4c0-3.4,1.1-6.2,3.3-8.4c2.2-2.3,5-3.4,8.3-3.4
			c2.1,0,4.1,0.5,5.9,1.6c1.8,1,3.1,2.5,4,4.2l-4.9,2.9c-0.4-0.9-1.1-1.7-2-2.2s-1.9-0.8-3-0.8c-1.7,0-3.1,0.6-4.2,1.7
			c-1.1,1.2-1.7,2.6-1.7,4.4s0.6,3.2,1.7,4.4c1.1,1.2,2.5,1.7,4.2,1.7c1.1,0,2.2-0.3,3.1-0.8s1.6-1.2,2-2.2l4.9,2.9
			c-1,1.8-2.3,3.2-4.1,4.2S263.2,470.1,261,470.1z"/>
		<path class="st2" d="M286.3,446.4c2.4,0,4.4,0.8,6,2.5c1.6,1.6,2.4,3.9,2.4,6.8v13.8H289v-13.1c0-1.5-0.4-2.6-1.2-3.4
			c-0.8-0.8-1.9-1.2-3.2-1.2c-1.5,0-2.6,0.5-3.5,1.4s-1.3,2.3-1.3,4.2v12.1H274V438h5.7v11.5C281.1,447.4,283.3,446.4,286.3,446.4z"
			/>
		<path class="st2" d="M304.7,453.4c0,0.6,0.4,1.1,1.2,1.5c0.8,0.4,1.7,0.7,2.8,1c1.1,0.3,2.2,0.6,3.4,1.1c1.1,0.4,2.1,1.2,2.8,2.2
			c0.8,1,1.2,2.3,1.2,3.8c0,2.3-0.8,4.1-2.5,5.3s-3.8,1.9-6.3,1.9c-4.5,0-7.6-1.8-9.3-5.3l4.9-2.8c0.6,1.9,2.1,2.9,4.3,2.9
			c2,0,3-0.6,3-1.9c0-0.6-0.4-1.1-1.2-1.5c-0.8-0.4-1.7-0.7-2.8-1c-1.1-0.3-2.2-0.7-3.4-1.1c-1.1-0.4-2.1-1.2-2.8-2.1
			c-0.8-1-1.2-2.2-1.2-3.7c0-2.2,0.8-4,2.4-5.2c1.6-1.3,3.6-1.9,6-1.9c1.8,0,3.4,0.4,4.9,1.2c1.5,0.8,2.6,2,3.5,3.5l-4.9,2.7
			c-0.7-1.5-1.9-2.3-3.5-2.3c-0.7,0-1.3,0.2-1.8,0.5C305,452.4,304.7,452.8,304.7,453.4z"/>
		<path class="st2" d="M330,470.1c-3.3,0-6.1-1.1-8.3-3.4c-2.2-2.3-3.3-5.1-3.3-8.4c0-3.4,1.1-6.2,3.3-8.4c2.2-2.3,5-3.4,8.3-3.4
			c2.1,0,4.1,0.5,5.9,1.6c1.8,1,3.1,2.5,4,4.2l-4.9,2.9c-0.4-0.9-1.1-1.7-2-2.2s-1.9-0.8-3-0.8c-1.7,0-3.1,0.6-4.2,1.7
			c-1.1,1.2-1.7,2.6-1.7,4.4s0.6,3.2,1.7,4.4c1.1,1.2,2.5,1.7,4.2,1.7c1.1,0,2.2-0.3,3.1-0.8s1.6-1.2,2-2.2l4.9,2.9
			c-1,1.8-2.3,3.2-4.1,4.2S332.2,470.1,330,470.1z"/>
		<path class="st2" d="M348.9,450.9c0.5-1.4,1.4-2.5,2.6-3.2s2.6-1.1,4.1-1.1v6.5c-1.7-0.2-3.3,0.2-4.7,1.1
			c-1.4,0.9-2.1,2.5-2.1,4.6v10.7h-5.7V447h5.7v3.9H348.9z"/>
		<path class="st2" d="M362.9,460.6c0.8,2.8,2.8,4.2,6.2,4.2c2.2,0,3.8-0.7,4.9-2.2l4.6,2.7c-2.2,3.2-5.4,4.8-9.6,4.8
			c-3.7,0-6.6-1.1-8.8-3.4c-2.2-2.2-3.3-5.1-3.3-8.5s1.1-6.2,3.3-8.5c2.2-2.3,5-3.4,8.4-3.4c3.2,0,5.9,1.1,8,3.4s3.2,5.1,3.2,8.4
			c0,0.7-0.1,1.5-0.2,2.4h-16.7V460.6z M362.8,456.1H374c-0.3-1.5-1-2.7-2-3.4c-1-0.7-2.2-1.1-3.5-1.1c-1.5,0-2.8,0.4-3.8,1.2
			C363.8,453.6,363.1,454.7,362.8,456.1z"/>
		<path class="st2" d="M388.3,460.6c0.8,2.8,2.8,4.2,6.2,4.2c2.2,0,3.8-0.7,4.9-2.2l4.6,2.7c-2.2,3.2-5.4,4.8-9.6,4.8
			c-3.7,0-6.6-1.1-8.8-3.4c-2.2-2.2-3.3-5.1-3.3-8.5s1.1-6.2,3.3-8.5c2.2-2.3,5-3.4,8.4-3.4c3.2,0,5.9,1.1,8,3.4s3.2,5.1,3.2,8.4
			c0,0.7-0.1,1.5-0.2,2.4h-16.7V460.6z M388.3,456.1h11.3c-0.3-1.5-1-2.7-2-3.4c-1-0.7-2.2-1.1-3.5-1.1c-1.5,0-2.8,0.4-3.8,1.2
			C389.2,453.6,388.6,454.7,388.3,456.1z"/>
		<path class="st2" d="M421.5,446.4c2.4,0,4.4,0.8,6,2.5c1.6,1.6,2.4,3.9,2.4,6.8v13.8h-5.7v-13.1c0-1.5-0.4-2.6-1.2-3.4
			c-0.8-0.8-1.9-1.2-3.2-1.2c-1.5,0-2.6,0.5-3.5,1.4s-1.3,2.3-1.3,4.2v12.1h-5.7V447h5.7v2.5C416.3,447.4,418.5,446.4,421.5,446.4z"
			/>
	</g>
	<g class="st6">
		<path class="st2" d="M121.7,500.9h5.5l-6.4,22.4h-5.6l-4.2-13.6l-4.2,13.6h-5.6l-6.5-22.4h6l3.8,13.8l4-13.8h5.4l4,13.8
			L121.7,500.9z"/>
		<path class="st2" d="M133.6,498.2c-0.9,0-1.8-0.4-2.5-1.1s-1-1.5-1-2.5s0.3-1.8,1-2.5s1.5-1.1,2.5-1.1s1.8,0.4,2.5,1.1
			s1,1.6,1,2.5c0,1-0.3,1.8-1,2.5C135.4,497.8,134.6,498.2,133.6,498.2z M130.8,523.3v-22.4h5.7v22.4H130.8z"/>
		<path class="st2" d="M141.7,523.3v-32.8h5.7v32.8H141.7z"/>
		<path class="st2" d="M152.6,523.3v-32.8h5.7v32.8H152.6z"/>
		<path class="st2" d="M179.8,507.3c0,0.6,0.4,1.1,1.2,1.5s1.7,0.7,2.8,1s2.2,0.6,3.4,1.1c1.1,0.4,2.1,1.2,2.8,2.2
			c0.8,1,1.2,2.3,1.2,3.8c0,2.3-0.8,4.1-2.5,5.3s-3.8,1.9-6.3,1.9c-4.5,0-7.6-1.8-9.3-5.3l4.9-2.8c0.6,1.9,2.1,2.9,4.3,2.9
			c2,0,3-0.6,3-1.9c0-0.6-0.4-1.1-1.2-1.5s-1.7-0.7-2.8-1s-2.2-0.7-3.4-1.1c-1.1-0.4-2.1-1.2-2.8-2.1c-0.8-1-1.2-2.2-1.2-3.7
			c0-2.2,0.8-4,2.4-5.2c1.6-1.3,3.6-1.9,6-1.9c1.8,0,3.4,0.4,4.9,1.2c1.5,0.8,2.6,2,3.5,3.5l-4.9,2.7c-0.7-1.5-1.9-2.3-3.5-2.3
			c-0.7,0-1.3,0.2-1.8,0.5C180.1,506.3,179.8,506.7,179.8,507.3z"/>
		<path class="st2" d="M207.2,500.3c2.4,0,4.4,0.8,6,2.5c1.6,1.6,2.4,3.9,2.4,6.8v13.8h-5.7v-13.1c0-1.5-0.4-2.6-1.2-3.4
			s-1.9-1.2-3.2-1.2c-1.5,0-2.6,0.5-3.5,1.4s-1.3,2.3-1.3,4.2v12.1H195V492h5.7v11.5C202,501.3,204.1,500.3,207.2,500.3z"/>
		<path class="st2" d="M239.2,520.5c-2.3,2.3-5,3.4-8.3,3.4s-6-1.1-8.3-3.4c-2.3-2.3-3.4-5.1-3.4-8.4c0-3.3,1.1-6.1,3.4-8.4
			c2.3-2.3,5-3.4,8.3-3.4s6,1.1,8.3,3.4s3.4,5.1,3.4,8.4C242.6,515.4,241.4,518.2,239.2,520.5z M226.6,516.6
			c1.1,1.2,2.6,1.8,4.3,1.8s3.1-0.6,4.3-1.8c1.1-1.2,1.7-2.6,1.7-4.4s-0.6-3.3-1.7-4.4c-1.1-1.2-2.6-1.8-4.3-1.8s-3.1,0.6-4.3,1.8
			c-1.1,1.2-1.7,2.6-1.7,4.4S225.5,515.4,226.6,516.6z"/>
		<path class="st2" d="M270.6,500.9h5.5l-6.4,22.4H264l-4.2-13.6l-4.2,13.6H250l-6.5-22.4h6l3.8,13.8l4-13.8h5.4l4,13.8L270.6,500.9
			z"/>
		<path class="st2" d="M296.4,504.8c0.5-1.4,1.4-2.5,2.6-3.2s2.6-1.1,4.1-1.1v6.5c-1.7-0.2-3.3,0.2-4.7,1.1
			c-1.4,0.9-2.1,2.5-2.1,4.6v10.7h-5.7V501h5.7v3.8H296.4z"/>
		<path class="st2" d="M310.4,514.5c0.8,2.8,2.8,4.2,6.2,4.2c2.2,0,3.8-0.7,4.9-2.2l4.6,2.7c-2.2,3.2-5.4,4.8-9.6,4.8
			c-3.7,0-6.6-1.1-8.8-3.4c-2.2-2.2-3.3-5.1-3.3-8.5c0-3.4,1.1-6.2,3.3-8.5c2.2-2.3,5-3.4,8.4-3.4c3.2,0,5.9,1.1,8,3.4
			s3.2,5.1,3.2,8.4c0,0.7-0.1,1.5-0.2,2.4h-16.7V514.5z M310.4,510h11.3c-0.3-1.5-1-2.7-2-3.4c-1-0.7-2.2-1.1-3.5-1.1
			c-1.5,0-2.8,0.4-3.8,1.2C311.3,507.5,310.7,508.6,310.4,510z"/>
		<path class="st2" d="M341.6,524c-3.3,0-6.1-1.1-8.3-3.4c-2.2-2.3-3.3-5.1-3.3-8.4c0-3.4,1.1-6.2,3.3-8.4c2.2-2.3,5-3.4,8.3-3.4
			c2.1,0,4.1,0.5,5.9,1.6c1.8,1,3.1,2.5,4,4.2l-4.9,2.9c-0.4-0.9-1.1-1.7-2-2.2s-1.9-0.8-3-0.8c-1.7,0-3.1,0.6-4.2,1.7
			c-1.1,1.2-1.7,2.6-1.7,4.4c0,1.8,0.6,3.2,1.7,4.4s2.5,1.7,4.2,1.7c1.1,0,2.2-0.3,3.1-0.8s1.6-1.2,2-2.2l4.9,2.9
			c-1,1.8-2.3,3.2-4.1,4.2S343.8,524,341.6,524z"/>
		<path class="st2" d="M373.1,520.5c-2.3,2.3-5,3.4-8.3,3.4s-6-1.1-8.3-3.4c-2.3-2.3-3.4-5.1-3.4-8.4c0-3.3,1.1-6.1,3.4-8.4
			s5-3.4,8.3-3.4s6,1.1,8.3,3.4s3.4,5.1,3.4,8.4C376.5,515.4,375.3,518.2,373.1,520.5z M360.5,516.6c1.1,1.2,2.6,1.8,4.3,1.8
			s3.1-0.6,4.3-1.8c1.1-1.2,1.7-2.6,1.7-4.4s-0.6-3.3-1.7-4.4c-1.1-1.2-2.6-1.8-4.3-1.8s-3.1,0.6-4.3,1.8c-1.1,1.2-1.7,2.6-1.7,4.4
			S359.4,515.4,360.5,516.6z"/>
		<path class="st2" d="M386.2,504.8c0.5-1.4,1.4-2.5,2.6-3.2s2.6-1.1,4.1-1.1v6.5c-1.7-0.2-3.3,0.2-4.7,1.1
			c-1.4,0.9-2.1,2.5-2.1,4.6v10.7h-5.7V501h5.7v3.8H386.2z"/>
		<path class="st2" d="M412.1,491.9h5.7v31.4h-5.7v-2.6c-1.7,2.2-4.1,3.3-7.2,3.3c-3,0-5.5-1.1-7.6-3.4c-2.1-2.3-3.2-5.1-3.2-8.4
			c0-3.3,1.1-6.1,3.2-8.4s4.6-3.4,7.6-3.4c3.1,0,5.5,1.1,7.2,3.3V491.9z M401.6,516.7c1.2,1.2,2.6,1.8,4.4,1.8s3.2-0.6,4.4-1.8
			c1.1-1.2,1.7-2.7,1.7-4.6c0-1.9-0.6-3.4-1.7-4.6s-2.6-1.8-4.4-1.8s-3.2,0.6-4.4,1.8c-1.2,1.2-1.7,2.7-1.7,4.6
			C399.9,514,400.5,515.5,401.6,516.7z"/>
	</g>
	<g class="st6">
		<path class="st2" d="M109.4,560.4h-5v9.3c0,0.8,0.2,1.3,0.6,1.7s0.9,0.6,1.7,0.6c0.7,0,1.6,0,2.7,0v5.3c-3.9,0.4-6.7,0.1-8.3-1.1
			c-1.6-1.2-2.4-3.3-2.4-6.4v-9.3h-3.8v-5.6h3.8v-4.5l5.7-1.8v6.3h5L109.4,560.4L109.4,560.4z"/>
		<path class="st2" d="M125.7,554.2c2.4,0,4.4,0.8,6,2.5c1.6,1.6,2.4,3.9,2.4,6.8v13.8h-5.7v-13.1c0-1.5-0.4-2.6-1.2-3.4
			c-0.8-0.8-1.9-1.2-3.2-1.2c-1.5,0-2.6,0.5-3.5,1.4s-1.3,2.3-1.3,4.2v12.1h-5.7v-31.4h5.7v11.5
			C120.5,555.2,122.7,554.2,125.7,554.2z"/>
		<path class="st2" d="M143.7,568.4c0.8,2.8,2.8,4.2,6.2,4.2c2.2,0,3.8-0.7,4.9-2.2l4.6,2.7c-2.2,3.2-5.4,4.8-9.6,4.8
			c-3.7,0-6.6-1.1-8.8-3.4c-2.2-2.2-3.3-5.1-3.3-8.5s1.1-6.2,3.3-8.5s5-3.4,8.4-3.4c3.2,0,5.9,1.1,8,3.4c2.1,2.3,3.2,5.1,3.2,8.4
			c0,0.7-0.1,1.5-0.2,2.4L143.7,568.4L143.7,568.4z M143.6,563.9h11.3c-0.3-1.5-1-2.7-2-3.4s-2.2-1.1-3.5-1.1
			c-1.5,0-2.8,0.4-3.8,1.2S144,562.5,143.6,563.9z"/>
	</g>
	<g class="st6">
		<path class="st7" d="M187.1,550.8c-3.1-0.2-4.7,1-4.7,3.8v0.2h4.7v5.6h-4.7v16.9h-5.7v-16.9h-3.2v-5.6h3.2v-0.2
			c0-3.2,0.9-5.6,2.6-7.2c1.7-1.6,4.3-2.4,7.8-2.2L187.1,550.8L187.1,550.8z"/>
		<path class="st7" d="M195.4,558.7c0.5-1.4,1.4-2.5,2.6-3.2s2.6-1.1,4.1-1.1v6.5c-1.7-0.2-3.3,0.2-4.7,1.1
			c-1.4,0.9-2.1,2.5-2.1,4.6v10.7h-5.7v-22.4h5.7L195.4,558.7L195.4,558.7z"/>
		<path class="st7" d="M209.4,568.4c0.8,2.8,2.8,4.2,6.2,4.2c2.2,0,3.8-0.7,4.9-2.2l4.6,2.7c-2.2,3.2-5.4,4.8-9.6,4.8
			c-3.7,0-6.6-1.1-8.8-3.4c-2.2-2.2-3.3-5.1-3.3-8.5s1.1-6.2,3.3-8.5s5-3.4,8.4-3.4c3.2,0,5.9,1.1,8,3.4c2.1,2.3,3.2,5.1,3.2,8.4
			c0,0.7-0.1,1.5-0.2,2.4L209.4,568.4L209.4,568.4z M209.3,563.9h11.3c-0.3-1.5-1-2.7-2-3.4s-2.2-1.1-3.5-1.1
			c-1.5,0-2.8,0.4-3.8,1.2S209.6,562.5,209.3,563.9z"/>
		<path class="st7" d="M246.8,554.8h5.7v31.4h-5.7v-11.6c-1.7,2.2-4.1,3.3-7.2,3.3c-3,0-5.5-1.1-7.6-3.4c-2.1-2.3-3.2-5.1-3.2-8.4
			s1.1-6.1,3.2-8.4c2.1-2.3,4.6-3.4,7.6-3.4c3.1,0,5.5,1.1,7.2,3.3V554.8z M236.3,570.6c1.2,1.2,2.6,1.8,4.4,1.8
			c1.8,0,3.2-0.6,4.4-1.8c1.1-1.2,1.7-2.7,1.7-4.6c0-1.9-0.6-3.4-1.7-4.6c-1.1-1.2-2.6-1.8-4.4-1.8c-1.8,0-3.2,0.6-4.4,1.8
			s-1.7,2.7-1.7,4.6C234.5,567.9,235.1,569.4,236.3,570.6z"/>
		<path class="st7" d="M272.3,554.8h5.7v22.4h-5.7v-2.5c-1.4,2.1-3.6,3.1-6.6,3.1c-2.4,0-4.4-0.8-6-2.5c-1.6-1.6-2.4-3.9-2.4-6.8
			v-13.8h5.7v13.1c0,1.5,0.4,2.6,1.2,3.4c0.8,0.8,1.9,1.2,3.2,1.2c1.5,0,2.6-0.5,3.5-1.4s1.3-2.3,1.3-4.2L272.3,554.8L272.3,554.8z"
			/>
		<path class="st7" d="M288,568.4c0.8,2.8,2.8,4.2,6.2,4.2c2.2,0,3.8-0.7,4.9-2.2l4.6,2.7c-2.2,3.2-5.4,4.8-9.6,4.8
			c-3.7,0-6.6-1.1-8.8-3.4c-2.2-2.2-3.3-5.1-3.3-8.5s1.1-6.2,3.3-8.5s5-3.4,8.4-3.4c3.2,0,5.9,1.1,8,3.4c2.1,2.3,3.2,5.1,3.2,8.4
			c0,0.7-0.1,1.5-0.2,2.4L288,568.4L288,568.4z M287.9,563.9h11.3c-0.3-1.5-1-2.7-2-3.4s-2.2-1.1-3.5-1.1c-1.5,0-2.8,0.4-3.8,1.2
			S288.2,562.5,287.9,563.9z"/>
		<path class="st7" d="M321.1,554.2c2.4,0,4.4,0.8,6,2.5c1.6,1.6,2.4,3.9,2.4,6.8v13.8h-5.7v-13.1c0-1.5-0.4-2.6-1.2-3.4
			c-0.8-0.8-1.9-1.2-3.2-1.2c-1.5,0-2.6,0.5-3.5,1.4s-1.3,2.3-1.3,4.2v12.1h-5.7v-22.4h5.7v2.5C315.9,555.2,318.1,554.2,321.1,554.2
			z"/>
		<path class="st7" d="M344.8,577.9c-3.3,0-6.1-1.1-8.3-3.4c-2.2-2.3-3.3-5.1-3.3-8.4c0-3.4,1.1-6.2,3.3-8.4c2.2-2.3,5-3.4,8.3-3.4
			c2.1,0,4.1,0.5,5.9,1.6s3.1,2.5,4,4.2l-4.9,2.9c-0.4-0.9-1.1-1.7-2-2.2s-1.9-0.8-3-0.8c-1.7,0-3.1,0.6-4.2,1.7
			c-1.1,1.2-1.7,2.6-1.7,4.4c0,1.8,0.6,3.2,1.7,4.4s2.5,1.7,4.2,1.7c1.1,0,2.2-0.3,3.1-0.8s1.6-1.2,2-2.2l4.9,2.9
			c-1,1.8-2.3,3.2-4.1,4.2C348.9,577.3,347,577.9,344.8,577.9z"/>
		<path class="st7" d="M372.4,554.8h6.1l-8.1,22.5c-1.1,3.2-2.7,5.5-4.6,7s-4.3,2.1-7.1,2v-5.4c1.5,0,2.7-0.3,3.6-1s1.6-1.8,2.1-3.3
			l-9.1-21.7h6.2l5.8,15.1L372.4,554.8z"/>
	</g>
	<g class="st6">
		<path class="st2" d="M412,574.4c-2.3,2.3-5,3.4-8.3,3.4s-6-1.1-8.3-3.4c-2.3-2.3-3.4-5.1-3.4-8.4s1.1-6.1,3.4-8.4
			c2.3-2.3,5-3.4,8.3-3.4s6,1.1,8.3,3.4c2.3,2.3,3.4,5.1,3.4,8.4S414.3,572.1,412,574.4z M399.4,570.5c1.1,1.2,2.6,1.8,4.3,1.8
			s3.1-0.6,4.3-1.8c1.1-1.2,1.7-2.6,1.7-4.4s-0.6-3.3-1.7-4.4c-1.1-1.2-2.6-1.8-4.3-1.8s-3.1,0.6-4.3,1.8c-1.1,1.2-1.7,2.6-1.7,4.4
			S398.3,569.3,399.4,570.5z"/>
		<path class="st2" d="M430.6,550.8c-3.1-0.2-4.7,1-4.7,3.8v0.2h4.7v5.6h-4.7v16.9h-5.7v-16.9H417v-5.6h3.2v-0.2
			c0-3.2,0.9-5.6,2.6-7.2c1.7-1.6,4.3-2.4,7.8-2.2V550.8z"/>
		<path class="st2" d="M456.9,560.4h-5v9.3c0,0.8,0.2,1.3,0.6,1.7s0.9,0.6,1.7,0.6c0.7,0,1.6,0,2.7,0v5.3c-3.9,0.4-6.7,0.1-8.3-1.1
			c-1.6-1.2-2.4-3.3-2.4-6.4v-9.3h-3.8v-5.6h3.8v-4.5l5.7-1.8v6.3h5L456.9,560.4L456.9,560.4z"/>
		<path class="st2" d="M473.2,554.2c2.4,0,4.4,0.8,6,2.5c1.6,1.6,2.4,3.9,2.4,6.8v13.8h-5.7v-13.1c0-1.5-0.4-2.6-1.2-3.4
			c-0.8-0.8-1.9-1.2-3.2-1.2c-1.5,0-2.6,0.5-3.5,1.4s-1.3,2.3-1.3,4.2v12.1H461v-31.4h5.7v11.5C468,555.2,470.1,554.2,473.2,554.2z"
			/>
		<path class="st2" d="M491.2,568.4c0.8,2.8,2.8,4.2,6.2,4.2c2.2,0,3.8-0.7,4.9-2.2l4.6,2.7c-2.2,3.2-5.4,4.8-9.6,4.8
			c-3.7,0-6.6-1.1-8.8-3.4c-2.2-2.2-3.3-5.1-3.3-8.5s1.1-6.2,3.3-8.5s5-3.4,8.4-3.4c3.2,0,5.9,1.1,8,3.4c2.1,2.3,3.2,5.1,3.2,8.4
			c0,0.7-0.1,1.5-0.2,2.4L491.2,568.4L491.2,568.4z M491.1,563.9h11.3c-0.3-1.5-1-2.7-2-3.4s-2.2-1.1-3.5-1.1
			c-1.5,0-2.8,0.4-3.8,1.2S491.4,562.5,491.1,563.9z"/>
	</g>
	<g class="st6">
		<path class="st2" d="M109.6,608c3,0,5.5,1.1,7.6,3.4c2.1,2.3,3.2,5.1,3.2,8.4s-1.1,6.1-3.2,8.4c-2.1,2.3-4.6,3.4-7.6,3.4
			c-3.1,0-5.5-1.1-7.2-3.3v2.6h-5.7v-31.4h5.7v11.6C104.2,609.1,106.6,608,109.6,608z M104.2,624.4c1.1,1.2,2.6,1.8,4.4,1.8
			s3.2-0.6,4.4-1.8c1.2-1.2,1.7-2.7,1.7-4.6c0-1.9-0.6-3.4-1.7-4.6c-1.2-1.2-2.6-1.8-4.4-1.8s-3.2,0.6-4.4,1.8
			c-1.1,1.2-1.7,2.7-1.7,4.6S103.1,623.2,104.2,624.4z"/>
		<path class="st2" d="M143.3,628.2c-2.3,2.3-5,3.4-8.3,3.4s-6-1.1-8.3-3.4c-2.3-2.3-3.4-5.1-3.4-8.4s1.1-6.1,3.4-8.4
			c2.3-2.3,5-3.4,8.3-3.4s6,1.1,8.3,3.4c2.3,2.3,3.4,5.1,3.4,8.4S145.5,625.9,143.3,628.2z M130.7,624.3c1.1,1.2,2.6,1.8,4.3,1.8
			s3.1-0.6,4.3-1.8c1.1-1.2,1.7-2.6,1.7-4.4s-0.6-3.3-1.7-4.4c-1.1-1.2-2.6-1.8-4.3-1.8s-3.1,0.6-4.3,1.8c-1.1,1.2-1.7,2.6-1.7,4.4
			S129.6,623.1,130.7,624.3z"/>
		<path class="st2" d="M150.7,631v-32.8h5.7V631H150.7z"/>
		<path class="st2" d="M174.2,614.2h-5v9.3c0,0.8,0.2,1.3,0.6,1.7c0.4,0.4,0.9,0.6,1.7,0.6c0.7,0,1.6,0,2.7,0v5.3
			c-3.9,0.4-6.7,0.1-8.3-1.1c-1.6-1.2-2.4-3.3-2.4-6.4v-9.3h-3.8v-5.6h3.8v-4.5l5.7-1.8v6.3h5V614.2z"/>
		<path class="st2" d="M202.5,608c3,0,5.5,1.1,7.6,3.4c2.1,2.3,3.2,5.1,3.2,8.4s-1.1,6.1-3.2,8.4c-2.1,2.3-4.6,3.4-7.6,3.4
			c-3.1,0-5.5-1.1-7.2-3.3v2.6h-5.7v-31.4h5.7v11.6C197,609.1,199.4,608,202.5,608z M197,624.4c1.1,1.2,2.6,1.8,4.4,1.8
			s3.2-0.6,4.4-1.8s1.7-2.7,1.7-4.6c0-1.9-0.6-3.4-1.7-4.6c-1.2-1.2-2.6-1.8-4.4-1.8s-3.2,0.6-4.4,1.8c-1.1,1.2-1.7,2.7-1.7,4.6
			S195.9,623.2,197,624.4z"/>
		<path class="st2" d="M222.1,622.2c0.8,2.8,2.8,4.2,6.2,4.2c2.2,0,3.8-0.7,4.9-2.2l4.6,2.7c-2.2,3.2-5.4,4.8-9.6,4.8
			c-3.7,0-6.6-1.1-8.8-3.4c-2.2-2.2-3.3-5.1-3.3-8.5s1.1-6.2,3.3-8.5s5-3.4,8.4-3.4c3.2,0,5.9,1.1,8,3.4c2.1,2.3,3.2,5.1,3.2,8.4
			c0,0.7-0.1,1.5-0.2,2.4L222.1,622.2L222.1,622.2z M222,617.7h11.3c-0.3-1.5-1-2.7-2-3.4s-2.2-1.1-3.5-1.1c-1.5,0-2.8,0.4-3.8,1.2
			S222.3,616.3,222,617.7z"/>
		<path class="st2" d="M245.7,605.9c-0.9,0-1.8-0.4-2.5-1.1c-0.7-0.7-1-1.5-1-2.5s0.3-1.8,1-2.5s1.5-1.1,2.5-1.1s1.8,0.4,2.5,1.1
			c0.7,0.7,1,1.6,1,2.5s-0.3,1.8-1,2.5C247.6,605.5,246.7,605.9,245.7,605.9z M242.9,631v-22.4h5.7V631H242.9z"/>
		<path class="st2" d="M266.1,608c2.4,0,4.4,0.8,6,2.5c1.6,1.6,2.4,3.9,2.4,6.8V631h-5.7v-13c0-1.5-0.4-2.6-1.2-3.4
			c-0.8-0.8-1.9-1.2-3.2-1.2c-1.5,0-2.6,0.5-3.5,1.4s-1.3,2.3-1.3,4.2v12h-5.7v-22.4h5.7v2.5C260.9,609,263.1,608,266.1,608z"/>
		<path class="st2" d="M296.2,608.6h5.6V630c0,3.5-1.1,6.1-3.4,7.9c-2.3,1.8-5,2.7-8.1,2.7c-2.4,0-4.5-0.5-6.3-1.4s-3.2-2.3-4.2-4.1
			l4.9-2.8c1.1,2.1,3,3.1,5.8,3.1c1.8,0,3.2-0.5,4.2-1.4c1-1,1.5-2.3,1.5-4.1v-2.4c-1.7,2.3-4,3.4-7.1,3.4s-5.7-1.1-7.8-3.3
			c-2.1-2.2-3.2-4.9-3.2-8.1c0-3.2,1.1-5.9,3.2-8.1c2.1-2.2,4.7-3.4,7.8-3.4c3,0,5.4,1.1,7.1,3.4V608.6z M285.6,623.9
			c1.2,1.2,2.6,1.7,4.4,1.7s3.3-0.6,4.4-1.7c1.2-1.2,1.7-2.6,1.7-4.4c0-1.8-0.6-3.2-1.7-4.4c-1.2-1.2-2.6-1.7-4.4-1.7
			s-3.3,0.6-4.4,1.7c-1.2,1.2-1.7,2.6-1.7,4.4C283.9,621.3,284.4,622.7,285.6,623.9z"/>
		<path class="st2" d="M330.6,614.2h-5v9.3c0,0.8,0.2,1.3,0.6,1.7s0.9,0.6,1.7,0.6c0.7,0,1.6,0,2.7,0v5.3c-3.9,0.4-6.7,0.1-8.3-1.1
			c-1.6-1.2-2.4-3.3-2.4-6.4v-9.3h-3.8v-5.6h3.8v-4.5l5.7-1.8v6.3h5L330.6,614.2L330.6,614.2z"/>
		<path class="st2" d="M338.8,622.2c0.8,2.8,2.8,4.2,6.2,4.2c2.2,0,3.8-0.7,4.9-2.2l4.6,2.7c-2.2,3.2-5.4,4.8-9.6,4.8
			c-3.7,0-6.6-1.1-8.8-3.4c-2.2-2.2-3.3-5.1-3.3-8.5s1.1-6.2,3.3-8.5s5-3.4,8.4-3.4c3.2,0,5.9,1.1,8,3.4c2.1,2.3,3.2,5.1,3.2,8.4
			c0,0.7-0.1,1.5-0.2,2.4L338.8,622.2L338.8,622.2z M338.7,617.7H350c-0.3-1.5-1-2.7-2-3.4s-2.2-1.1-3.5-1.1c-1.5,0-2.8,0.4-3.8,1.2
			S339,616.3,338.7,617.7z"/>
		<path class="st2" d="M364,615c0,0.6,0.4,1.1,1.2,1.5c0.8,0.4,1.7,0.7,2.8,1c1.1,0.3,2.2,0.6,3.4,1.1c1.1,0.4,2.1,1.2,2.8,2.2
			c0.8,1,1.2,2.3,1.2,3.8c0,2.3-0.8,4.1-2.5,5.3s-3.8,1.9-6.3,1.9c-4.5,0-7.6-1.8-9.3-5.3l4.9-2.8c0.6,1.9,2.1,2.9,4.3,2.9
			c2,0,3-0.6,3-1.9c0-0.6-0.4-1.1-1.2-1.5c-0.8-0.4-1.7-0.7-2.8-1c-1.1-0.3-2.2-0.7-3.4-1.1c-1.1-0.4-2.1-1.2-2.8-2.1
			c-0.8-1-1.2-2.2-1.2-3.7c0-2.2,0.8-4,2.4-5.2c1.6-1.3,3.6-1.9,6-1.9c1.8,0,3.4,0.4,4.9,1.2s2.6,2,3.5,3.5l-4.9,2.7
			c-0.7-1.5-1.9-2.3-3.5-2.3c-0.7,0-1.3,0.2-1.8,0.5S364,614.4,364,615z"/>
		<path class="st2" d="M391,614.2h-5v9.3c0,0.8,0.2,1.3,0.6,1.7s0.9,0.6,1.7,0.6c0.7,0,1.6,0,2.7,0v5.3c-3.9,0.4-6.7,0.1-8.3-1.1
			c-1.6-1.2-2.4-3.3-2.4-6.4v-9.3h-3.8v-5.6h3.8v-4.5l5.7-1.8v6.3h5L391,614.2L391,614.2z"/>
		<path class="st2" d="M399.2,622.2c0.8,2.8,2.8,4.2,6.2,4.2c2.2,0,3.8-0.7,4.9-2.2l4.6,2.7c-2.2,3.2-5.4,4.8-9.6,4.8
			c-3.7,0-6.6-1.1-8.8-3.4c-2.2-2.2-3.3-5.1-3.3-8.5s1.1-6.2,3.3-8.5s5-3.4,8.4-3.4c3.2,0,5.9,1.1,8,3.4c2.1,2.3,3.2,5.1,3.2,8.4
			c0,0.7-0.1,1.5-0.2,2.4L399.2,622.2L399.2,622.2z M399.1,617.7h11.3c-0.3-1.5-1-2.7-2-3.4s-2.2-1.1-3.5-1.1
			c-1.5,0-2.8,0.4-3.8,1.2S399.4,616.3,399.1,617.7z"/>
		<path class="st2" d="M436.6,599.6h5.7V631h-5.7v-2.6c-1.7,2.2-4.1,3.3-7.2,3.3c-3,0-5.5-1.1-7.6-3.4c-2.1-2.3-3.2-5.1-3.2-8.4
			s1.1-6.1,3.2-8.4c2.1-2.3,4.6-3.4,7.6-3.4c3.1,0,5.5,1.1,7.2,3.3V599.6z M426.1,624.4c1.2,1.2,2.6,1.8,4.4,1.8s3.2-0.6,4.4-1.8
			c1.1-1.2,1.7-2.7,1.7-4.6c0-1.9-0.6-3.4-1.7-4.6c-1.1-1.2-2.6-1.8-4.4-1.8s-3.2,0.6-4.4,1.8c-1.2,1.2-1.7,2.7-1.7,4.6
			S425,623.2,426.1,624.4z"/>
		<path class="st2" d="M453.5,630.5c-0.7,0.7-1.6,1.1-2.6,1.1s-1.9-0.4-2.6-1.1c-0.7-0.7-1.1-1.6-1.1-2.7s0.4-1.9,1.1-2.7
			c0.7-0.7,1.6-1.1,2.6-1.1s1.9,0.4,2.6,1.1c0.7,0.7,1.1,1.6,1.1,2.7S454.2,629.8,453.5,630.5z"/>
	</g>
</g>
<circle class="st2" cx="100.1" cy="371.3" r="6"/>
<circle class="st7" cx="129.9" cy="371.3" r="6"/>
<circle class="st2" cx="159.6" cy="371.3" r="6"/>
<circle class="st2" cx="189.3" cy="371.3" r="6"/>
<path class="st8" d="M1810.7,939.8h-1108c-17.9,0-32.3-14.5-32.3-32.3V154.9c0-17.9,14.5-32.3,32.3-32.3h1108
	c17.9,0,32.3,14.5,32.3,32.3v752.6C1843.1,925.3,1828.6,939.8,1810.7,939.8z"/>
<g class="st9">
	<g>
		<g>
			<g>
				<defs>
					<path id="SVGID_1_" d="M1809.8,941.6h-1108c-17.9,0-32.3-14.5-32.3-32.3V156.7c0-17.9,14.5-32.3,32.3-32.3h1108
						c17.9,0,32.3,14.5,32.3,32.3v752.6C1842.1,927.2,1827.6,941.6,1809.8,941.6z"/>
				</defs>
				<clipPath id="SVGID_00000161622672105013849670000014603038190016868736_">
					<use xlink:href="#SVGID_1_"  style="overflow:visible;"/>
				</clipPath>
				<g style="clip-path:url(#SVGID_00000161622672105013849670000014603038190016868736_);">
					<rect x="634.2" y="108.6" class="st11" width="1223.1" height="865.9"/>
					<line class="st11" x1="634.2" y1="957.4" x2="1857.3" y2="957.4"/>
					<line class="st11" x1="634.2" y1="940.5" x2="1857.3" y2="940.5"/>
					<line class="st11" x1="634.2" y1="923.5" x2="1857.3" y2="923.5"/>
					<line class="st11" x1="634.2" y1="906.5" x2="1857.3" y2="906.5"/>
					<line class="st11" x1="634.2" y1="889.5" x2="1857.3" y2="889.5"/>
					<line class="st11" x1="634.2" y1="872.6" x2="1857.3" y2="872.6"/>
					<line class="st11" x1="634.2" y1="855.6" x2="1857.3" y2="855.6"/>
					<line class="st11" x1="634.2" y1="838.6" x2="1857.3" y2="838.6"/>
					<line class="st11" x1="634.2" y1="821.6" x2="1857.3" y2="821.6"/>
					<line class="st11" x1="634.2" y1="804.6" x2="1857.3" y2="804.6"/>
					<line class="st11" x1="634.2" y1="787.7" x2="1857.3" y2="787.7"/>
					<line class="st11" x1="634.2" y1="770.7" x2="1857.3" y2="770.7"/>
					<line class="st11" x1="634.2" y1="753.7" x2="1857.3" y2="753.7"/>
					<line class="st11" x1="634.2" y1="736.7" x2="1857.3" y2="736.7"/>
					<line class="st11" x1="634.2" y1="719.8" x2="1857.3" y2="719.8"/>
					<line class="st11" x1="634.2" y1="702.8" x2="1857.3" y2="702.8"/>
					<line class="st11" x1="634.2" y1="685.8" x2="1857.3" y2="685.8"/>
					<line class="st11" x1="634.2" y1="668.8" x2="1857.3" y2="668.8"/>
					<line class="st11" x1="634.2" y1="651.8" x2="1857.3" y2="651.8"/>
					<line class="st11" x1="634.2" y1="634.9" x2="1857.3" y2="634.9"/>
					<line class="st11" x1="634.2" y1="617.9" x2="1857.3" y2="617.9"/>
					<line class="st11" x1="634.2" y1="600.9" x2="1857.3" y2="600.9"/>
					<line class="st11" x1="634.2" y1="583.9" x2="1857.3" y2="583.9"/>
					<line class="st11" x1="634.2" y1="567" x2="1857.3" y2="567"/>
					<line class="st11" x1="634.2" y1="550" x2="1857.3" y2="550"/>
					<line class="st11" x1="634.2" y1="533" x2="1857.3" y2="533"/>
					<line class="st11" x1="634.2" y1="516" x2="1857.3" y2="516"/>
					<line class="st11" x1="634.2" y1="499" x2="1857.3" y2="499"/>
					<line class="st11" x1="634.2" y1="482.1" x2="1857.3" y2="482.1"/>
					<line class="st11" x1="634.2" y1="465.1" x2="1857.3" y2="465.1"/>
					<line class="st11" x1="634.2" y1="448.1" x2="1857.3" y2="448.1"/>
					<line class="st11" x1="634.2" y1="431.1" x2="1857.3" y2="431.1"/>
					<line class="st11" x1="634.2" y1="414.2" x2="1857.3" y2="414.2"/>
					<line class="st11" x1="634.2" y1="397.2" x2="1857.3" y2="397.2"/>
					<line class="st11" x1="634.2" y1="380.2" x2="1857.3" y2="380.2"/>
					<line class="st11" x1="634.2" y1="363.2" x2="1857.3" y2="363.2"/>
					<line class="st11" x1="634.2" y1="346.2" x2="1857.3" y2="346.2"/>
					<line class="st11" x1="634.2" y1="329.3" x2="1857.3" y2="329.3"/>
					<line class="st11" x1="634.2" y1="312.3" x2="1857.3" y2="312.3"/>
					<line class="st11" x1="634.2" y1="295.3" x2="1857.3" y2="295.3"/>
					<line class="st11" x1="634.2" y1="278.3" x2="1857.3" y2="278.3"/>
					<line class="st11" x1="634.2" y1="261.4" x2="1857.3" y2="261.4"/>
					<line class="st11" x1="634.2" y1="244.4" x2="1857.3" y2="244.4"/>
					<line class="st11" x1="634.2" y1="227.4" x2="1857.3" y2="227.4"/>
					<line class="st11" x1="634.2" y1="210.4" x2="1857.3" y2="210.4"/>
					<line class="st11" x1="634.2" y1="193.4" x2="1857.3" y2="193.4"/>
					<line class="st11" x1="634.2" y1="176.5" x2="1857.3" y2="176.5"/>
					<line class="st11" x1="634.2" y1="159.5" x2="1857.3" y2="159.5"/>
					<line class="st11" x1="634.2" y1="142.5" x2="1857.3" y2="142.5"/>
					<line class="st11" x1="634.2" y1="125.5" x2="1857.3" y2="125.5"/>
					<line class="st11" x1="1837.2" y1="108.6" x2="1837.2" y2="974.4"/>
					<line class="st11" x1="1817.2" y1="108.6" x2="1817.2" y2="974.4"/>
					<line class="st11" x1="1797.1" y1="108.6" x2="1797.1" y2="974.4"/>
					<line class="st11" x1="1777.1" y1="108.6" x2="1777.1" y2="974.4"/>
					<line class="st11" x1="1757" y1="108.6" x2="1757" y2="974.4"/>
					<line class="st11" x1="1737" y1="108.6" x2="1737" y2="974.4"/>
					<line class="st11" x1="1716.9" y1="108.6" x2="1716.9" y2="974.4"/>
					<line class="st11" x1="1696.9" y1="108.6" x2="1696.9" y2="974.4"/>
					<line class="st11" x1="1676.8" y1="108.6" x2="1676.8" y2="974.4"/>
					<line class="st11" x1="1656.8" y1="108.6" x2="1656.8" y2="974.4"/>
					<line class="st11" x1="1636.7" y1="108.6" x2="1636.7" y2="974.4"/>
					<line class="st11" x1="1616.7" y1="108.6" x2="1616.7" y2="974.4"/>
					<line class="st11" x1="1596.6" y1="108.6" x2="1596.6" y2="974.4"/>
					<line class="st11" x1="1576.6" y1="108.6" x2="1576.6" y2="974.4"/>
					<line class="st11" x1="1556.5" y1="108.6" x2="1556.5" y2="974.4"/>
					<line class="st11" x1="1536.5" y1="108.6" x2="1536.5" y2="974.4"/>
					<line class="st11" x1="1516.4" y1="108.6" x2="1516.4" y2="974.4"/>
					<line class="st11" x1="1496.4" y1="108.6" x2="1496.4" y2="974.4"/>
					<line class="st11" x1="1476.3" y1="108.6" x2="1476.3" y2="974.4"/>
					<line class="st11" x1="1456.3" y1="108.6" x2="1456.3" y2="974.4"/>
					<line class="st11" x1="1436.2" y1="108.6" x2="1436.2" y2="974.4"/>
					<line class="st11" x1="1416.2" y1="108.6" x2="1416.2" y2="974.4"/>
					<line class="st11" x1="1396.1" y1="108.6" x2="1396.1" y2="974.4"/>
					<line class="st11" x1="1376.1" y1="108.6" x2="1376.1" y2="974.4"/>
					<line class="st11" x1="1356" y1="108.6" x2="1356" y2="974.4"/>
					<line class="st11" x1="1336" y1="108.6" x2="1336" y2="974.4"/>
					<line class="st11" x1="1315.9" y1="108.6" x2="1315.9" y2="974.4"/>
					<line class="st11" x1="1295.9" y1="108.6" x2="1295.9" y2="974.4"/>
					<line class="st11" x1="1275.8" y1="108.6" x2="1275.8" y2="974.4"/>
					<line class="st11" x1="1255.8" y1="108.6" x2="1255.8" y2="974.4"/>
					<line class="st11" x1="1235.7" y1="108.6" x2="1235.7" y2="974.4"/>
					<line class="st11" x1="1215.7" y1="108.6" x2="1215.7" y2="974.4"/>
					<line class="st11" x1="1195.6" y1="108.6" x2="1195.6" y2="974.4"/>
					<line class="st11" x1="1175.6" y1="108.6" x2="1175.6" y2="974.4"/>
					<line class="st11" x1="1155.5" y1="108.6" x2="1155.5" y2="974.4"/>
					<line class="st11" x1="1135.5" y1="108.6" x2="1135.5" y2="974.4"/>
					<line class="st11" x1="1115.4" y1="108.6" x2="1115.4" y2="974.4"/>
					<line class="st11" x1="1095.4" y1="108.6" x2="1095.4" y2="974.4"/>
					<line class="st11" x1="1075.3" y1="108.6" x2="1075.3" y2="974.4"/>
					<line class="st11" x1="1055.3" y1="108.6" x2="1055.3" y2="974.4"/>
					<line class="st11" x1="1035.2" y1="108.6" x2="1035.2" y2="974.4"/>
					<line class="st11" x1="1015.2" y1="108.6" x2="1015.2" y2="974.4"/>
					<line class="st11" x1="995.1" y1="108.6" x2="995.1" y2="974.4"/>
					<line class="st11" x1="975" y1="108.6" x2="975" y2="974.4"/>
					<line class="st11" x1="955" y1="108.6" x2="955" y2="974.4"/>
					<line class="st11" x1="934.9" y1="108.6" x2="934.9" y2="974.4"/>
					<line class="st11" x1="914.9" y1="108.6" x2="914.9" y2="974.4"/>
					<line class="st11" x1="894.8" y1="108.6" x2="894.8" y2="974.4"/>
					<line class="st11" x1="874.8" y1="108.6" x2="874.8" y2="974.4"/>
					<line class="st11" x1="854.7" y1="108.6" x2="854.7" y2="974.4"/>
					<line class="st11" x1="834.7" y1="108.6" x2="834.7" y2="974.4"/>
					<line class="st11" x1="814.6" y1="108.6" x2="814.6" y2="974.4"/>
					<line class="st11" x1="794.6" y1="108.6" x2="794.6" y2="974.4"/>
					<line class="st11" x1="774.5" y1="108.6" x2="774.5" y2="974.4"/>
					<line class="st11" x1="754.5" y1="108.6" x2="754.5" y2="974.4"/>
					<line class="st11" x1="734.4" y1="108.6" x2="734.4" y2="974.4"/>
					<line class="st11" x1="714.4" y1="108.6" x2="714.4" y2="974.4"/>
					<line class="st11" x1="694.3" y1="108.6" x2="694.3" y2="974.4"/>
					<line class="st11" x1="674.3" y1="108.6" x2="674.3" y2="974.4"/>
					<line class="st11" x1="654.2" y1="108.6" x2="654.2" y2="974.4"/>
				</g>
			</g>
		</g>
	</g>
</g>
<path class="st4" d="M648.2,295V157.3c0-30.4,24.8-55,55.3-55h1106.4c30.5,0,55.3,24.6,55.3,55v753.5c0,30.4-24.8,55-55.3,55H703.5
	c-30.5,0-55.3-24.6-55.3-55v-622"/>
<line class="st12" x1="752.4" y1="124.4" x2="752.4" y2="941.6"/>
<line class="st12" x1="953.7" y1="124.4" x2="953.7" y2="941.6"/>
<line class="st12" x1="1155" y1="124.4" x2="1155" y2="941.6"/>
<line class="st13" x1="1843.1" y1="533" x2="670.4" y2="533"/>
<line class="st12" x1="1356.3" y1="124.4" x2="1356.3" y2="941.6"/>
<line class="st12" x1="1554.5" y1="125.4" x2="1554.5" y2="942.6"/>
<line class="st12" x1="1754.8" y1="124.4" x2="1754.8" y2="941.6"/>
<line class="st14" x1="670.4" y1="329.4" x2="1843.1" y2="329.4"/>
<line class="st14" x1="670.4" y1="736.6" x2="1843.1" y2="736.6"/>
<g>
	<g>
		<line class="st15" x1="669.4" y1="260" x2="675.4" y2="260"/>
		<line class="st16" x1="687.4" y1="260" x2="1830.1" y2="260"/>
		<line class="st15" x1="1836.1" y1="260" x2="1842.1" y2="260"/>
	</g>
</g>
<g>
	<g>
		<line class="st15" x1="669.4" y1="806" x2="675.4" y2="806"/>
		<line class="st16" x1="687.4" y1="806" x2="1830.1" y2="806"/>
		<line class="st15" x1="1836.1" y1="806" x2="1842.1" y2="806"/>
	</g>
</g>
<path class="st17" d="M674.3,533"/>
<g>
	<g>
		<g class="st18">
			<path class="st17" d="M668.1,515.7c1.5,1.1,2.5,3.7,3.4,6.9s1.6,7,2.4,10.4c0.7,3.5,1.5,6.7,2.4,8.7c0.5,1,1,1.8,1.5,2.1
				c0.6,0.4,1.2,0.5,1.9,0.1c2.9-1.4,4.4-6.7,5.8-11c0.7-2.1,1.5-4.1,2.4-5.3s2-1.7,3.4-1.2c1.5,0.5,2.5,1.6,3.4,2.8
				s1.6,2.5,2.4,3.7c1.5,2.5,2.9,4.1,5.8,3.4c1.5-0.3,2.5-1,3.4-1.6s1.6-1.3,2.4-1.8c0.7-0.6,1.5-1,2.4-1.3c0.9-0.2,2-0.2,3.4-0.1
				c5.8,0.9,5.8,2.1,11.6,1.6c2.9-0.1,4.4-0.2,5.8-0.2c1.5,0,2.9,0,5.8-0.1c5.8-0.1,5.8,0.1,11.6,0.6c2.9,0.2,4.4,0,5.8-0.6
				c1.5-0.5,2.9-1.4,5.8-1.8c1.5-0.2,2.5-0.2,3.4,0.2c0.9,0.3,1.6,0.9,2.4,1.7c1.5,1.4,2.9,3.3,5.8,4.1c1.5,0.4,2.5,0.1,3.4-0.7
				s1.6-2,2.4-3.4c0.7-1.4,1.5-2.9,2.4-4.2s2-2.5,3.4-2.9c1.5-0.4,2.5,0.2,3.4,1.5s1.6,3.3,2.4,5.5c0.7,2.2,1.5,4.5,2.4,6.5
				s2,3.6,3.4,4c1.5,0.4,2.5-0.6,3.4-2.6s1.6-4.9,2.4-7.9c1.5-6.1,2.9-13,5.8-14.1c1.5-0.5,2.5,0.9,3.4,3.5s1.6,6.5,2.4,10.6
				c0.7,4.1,1.5,8.4,2.4,12s2,6.4,3.4,7.3c1.5,0.9,2.5-1,3.4-4.7c0.9-3.6,1.6-9,2.4-14.7c0.7-5.7,1.5-11.7,2.4-16.7
				c0.9-4.9,2-8.8,3.4-9.7c1.5-0.9,2.5,1.8,3.4,6.8s1.6,12.1,2.4,19.6c0.7,7.4,1.5,15.1,2.4,21.3s2,10.6,3.4,11.3
				c1.5,0.6,2.5-3.1,3.4-9.3s1.6-14.7,2.4-23.3c0.7-8.7,1.5-17.5,2.4-24.3s2-11.6,3.4-11.8c2.9-0.6,4.4,17.5,5.8,36.1
				c1.5,18.6,2.9,37.8,5.8,38.5c2.9,0.6,4.4-18.6,5.8-38.5c1.5-19.8,2.9-40,5.8-40.4c2.9-0.4,4.4,19.9,5.8,40.4
				c1.5,20.5,2.9,41.3,5.8,41.4c2.9,0.1,4.4-20.6,5.8-41.4c1.5-20.7,2.9-41.3,5.8-41.2c1.5,0,2.5,5.3,3.4,13.1
				c0.9,7.7,1.6,17.9,2.4,28.1c1.5,20.3,2.9,40.4,5.8,39.8c5.8-1.2,5.8-79.2,11.6-77.4c2.9,1.1,4.4,20,5.8,37.6
				c0.7,8.8,1.5,17.3,2.4,23.3c0.9,6.1,2,9.4,3.4,8.5c0.7-0.5,1.4-1.9,1.9-4c0.6-2,1.1-4.7,1.5-7.6c0.9-6,1.6-13.3,2.4-20.2
				c0.7-6.9,1.5-13.3,2.4-17.7c0.9-4.4,2-6.5,3.4-5.4c0.7,0.6,1.4,1.7,1.9,3.3c0.6,1.5,1.1,3.5,1.5,5.6c0.9,4.3,1.6,9.4,2.4,14.1
				c0.7,4.8,1.5,9.1,2.4,12.1s2,4.4,3.4,3.8c0.7-0.3,1.4-1.1,1.9-2.1c0.6-1,1.1-2.3,1.5-3.8c0.9-2.9,1.6-6.6,2.4-10
				c1.5-7,2.9-13.4,5.8-13c2.9,0.5,4.4,6.9,5.8,13c1.5,6.1,2.9,11.8,5.8,11.3c2.9-0.5,4.4-6.1,5.8-11.3c1.5-5.3,2.9-10.1,5.8-9.7
				c2.9,0.4,4.4,5.2,5.8,9.7c1.5,4.5,2.9,8.7,5.8,8.3c2.9-0.4,4.4-4.5,5.8-8.3c1.5-3.8,2.9-7.3,5.8-7c2.9,0.3,4.4,3.8,5.8,7
				c1.5,3.2,2.9,6.2,5.8,5.9s4.4-3.2,5.8-5.9c1.5-2.7,2.9-5.1,5.8-4.9c2.9,0.2,4.4,2.6,5.8,4.9c1.5,2.3,2.9,4.4,5.8,4.2
				s4.4-2.3,5.8-4.2c1.5-1.9,2.9-3.7,5.8-3.6c5.8,0.2,5.8,7.2,11.6,6.9c2.9-0.1,4.4-1.7,5.8-3.3c1.5-1.6,2.9-3.2,5.8-3.1
				c5.8,0,5.8,6.3,11.6,6.2c2.9,0,4.4-1.5,5.8-3.1c1.5-1.6,2.9-3.2,5.8-3.3c5.8-0.2,5.8,6.7,11.6,6.9c5.8,0.2,5.8-7.2,11.6-7.4
				c5.8-0.2,5.8,7.8,11.6,7.9c5.8,0.1,5.8-8,11.6-9.1c2.9-0.7,4.4,1.8,5.8,5c1.5,3.2,2.9,7.3,5.8,8.6c1.5,0.6,2.5-0.1,3.4-1.6
				c0.9-1.6,1.6-4.1,2.4-6.9c0.7-2.8,1.5-5.8,2.4-8.4c0.9-2.6,2-4.7,3.4-5.4c1.5-0.7,2.5,0.6,3.4,3.2c0.9,2.6,1.6,6.5,2.4,10.6
				c0.7,4.1,1.5,8.4,2.4,12c0.9,3.5,2,6.2,3.4,6.7c2.9,1,4.4-8.5,5.8-18.6c0.7-5.1,1.5-10.2,2.4-14.3c0.9-4,2-6.8,3.4-7
				c2.9-0.3,4.4,10.4,5.8,21.2c1.5,10.8,2.9,21.9,5.8,22.1c2.9,0.1,4.4-11,5.8-22.1c1.5-11.1,2.9-22.4,5.8-22.4
				c5.8,0.1,5.8,44.8,11.6,44.4c2.9-0.1,4.4-11.2,5.8-22c1.5-10.8,2.9-21.4,5.8-21.1s4.4,10.8,5.8,21.1c1.5,10.3,2.9,20.4,5.8,20.1
				c2.9-0.3,4.4-10.4,5.8-20.1c1.5-9.7,2.9-19.2,5.8-18.8c5.8,0.7,5.8,37.3,11.6,36.7c2.9-0.2,4.4-9.2,5.8-17.9
				c1.5-8.7,2.9-17.4,5.8-17.3c2.9,0.1,4.4,8.6,5.8,17.3c1.5,8.7,2.9,17.4,5.8,17.5c2.9,0.2,4.4-8.5,5.8-17.5
				c0.7-4.5,1.5-9,2.4-12.5s2-5.9,3.4-6.1c2.9-0.4,4.4,8.9,5.8,18.6c1.5,9.6,2.9,19.9,5.8,20.5s4.4-9.6,5.8-20.5
				c0.7-5.4,1.5-11,2.4-15.4c0.9-4.3,2-7.5,3.4-7.9c2.9-0.7,4.4,10.5,5.8,23.3c0.7,6.4,1.5,13.1,2.4,18.7c0.5,2.8,1,5.5,1.5,7.6
				c0.3,1,0.6,2.1,0.9,2.8c0.3,0.8,0.7,1.4,1,1.9c1.5,1.9,2.5-0.4,3.4-6.2s1.6-14.8,2.4-24.9c0.7-10.1,1.5-21.1,2.4-30.8
				c0.5-4.8,1-9.2,1.5-12.9c0.6-3.6,1.2-6.5,1.9-7.9c0.7-1.4,1.4-1,1.9,1c0.6,2,1.1,5.7,1.5,10.6c0.5,4.9,0.9,11,1.2,17.8
				c0.4,6.8,0.7,14.4,1.1,22.2c0.7,15.5,1.5,32.1,2.4,45.3s2,23.3,3.4,24.8c2.9,3.1,4.4-33.2,5.8-70.1c0.4-9.2,0.8-18.5,1.1-27.2
				c0.4-8.7,0.8-16.8,1.2-23.7c0.9-13.8,2-23,3.4-22.2c0.2,0.1,0.4,0.3,0.5,0.7c0.2,0.4,0.3,0.9,0.5,1.5c0.3,1.3,0.6,3,0.9,5.2
				c0.6,4.4,1.1,10.3,1.5,17.2c0.9,13.9,1.6,31.5,2.4,48.5c0.7,16.9,1.5,33.1,2.4,44.1s2,16.7,3.4,13.5c0.7-1.6,1.4-4.6,1.9-8.8
				c0.6-4.1,1.1-9.1,1.5-14.5c0.9-10.8,1.6-23.3,2.4-34.3c0.7-11.1,1.5-20.8,2.4-26.5c0.5-2.9,1-4.7,1.5-5.4
				c0.3-0.3,0.6-0.3,0.9-0.1c0.3,0.2,0.7,0.7,1,1.5c1.5,3.4,2.5,8.9,3.4,14.4c0.9,5.5,1.6,11.2,2.4,16c0.7,4.8,1.5,8.7,2.4,11
				c0.9,2.2,2,2.7,3.4,1.5c5.8-4.1,5.8-22.4,11.6-19.7c1.5,0.5,2.5,1.7,3.4,3.1c0.9,1.4,1.6,2.9,2.4,4.2c1.5,2.7,2.9,4.5,5.8,3.7
				c1.5-0.4,2.5-1.1,3.4-1.8s1.6-1.3,2.4-2c1.5-1.2,2.9-1.9,5.8-1.4c2.9,0.3,4.4,1,5.8,1.4c1.5,0.4,2.9,0.6,5.8,0.4
				c2.9-0.2,4.4-0.3,5.8-0.4c1.5-0.1,2.9-0.3,5.8-0.3s4.4,0.1,5.8,0.3c1.5,0.1,2.9,0.2,5.8,0.4s4.4,0.1,5.8-0.4
				c1.5-0.5,2.9-1.4,5.8-2.2c0.7-0.2,1.4-0.3,1.9-0.3c0.6,0,1.1,0.1,1.5,0.3c0.9,0.4,1.6,1.2,2.4,2.2c1.5,1.9,2.9,4.9,5.8,6.2
				c1.5,0.7,2.5,0.4,3.4-0.8s1.6-3.2,2.4-5.4c0.7-2.3,1.5-4.8,2.4-7.1s2-4.2,3.4-5.2c1.5-0.9,2.5,0.1,3.4,2.4
				c0.9,2.3,1.6,5.9,2.4,9.9c0.7,4,1.5,8.2,2.4,11.9c0.9,3.6,2,6.6,3.4,7.5c1.5,0.9,2.5-0.9,3.4-4.6c0.9-3.6,1.6-9,2.4-14.8
				c0.7-5.7,1.5-11.8,2.4-16.8s2-8.7,3.4-9.6c1.5-0.8,2.5,1.9,3.4,6.9s1.6,12.1,2.4,19.4c1.5,14.6,2.9,30.7,5.8,32
				c1.5,0.6,2.5-3,3.4-9.1c0.9-6,1.6-14.4,2.4-22.9c1.5-17,2.9-35,5.8-35.7c1.5-0.3,2.5,4,3.4,10.7s1.6,15.8,2.4,25
				c0.7,9.2,1.5,18.4,2.4,25.4s2,11.7,3.4,11.8c5.8,0.3,5.8-74.5,11.6-74.5c1.5,0,2.5,4.7,3.4,11.7s1.6,16.4,2.4,25.7
				c1.5,18.6,2.9,37.1,5.8,36.9c2.9-0.1,4.4-18.6,5.8-36.9c1.5-18.3,2.9-36.3,5.8-36s4.4,18.3,5.8,36c1.5,17.7,2.9,35,5.8,34.5
				s4.4-17.7,5.8-34.5c0.7-8.4,1.5-16.7,2.4-22.8c0.9-6.1,2-10,3.4-9.7c2.9,0.6,4.4,16.9,5.8,32.5c0.7,7.8,1.5,15.5,2.4,21.2
				c0.9,5.6,2,9.2,3.4,8.8c1.5-0.3,2.5-4.3,3.4-9.9c0.9-5.6,1.6-12.9,2.4-20.1c0.7-7.2,1.5-14.2,2.4-19.3c0.9-5.1,2-8.3,3.4-7.9
				c1.5,0.4,2.5,4,3.4,9.1c0.9,5.1,1.6,11.7,2.4,18.1c0.7,6.4,1.5,12.7,2.4,17.3s2,7.4,3.4,7c1.5-0.4,2.5-3.7,3.4-8.2
				s1.6-10.4,2.4-16.1c0.7-5.7,1.5-11.2,2.4-15.2s2-6.4,3.4-6.1c1.5,0.4,2.5,3.3,3.4,7.2c0.9,4,1.6,9.1,2.4,14.1
				c1.5,10,2.9,19.2,5.8,18.5s4.4-9.9,5.8-18.5c1.5-8.7,2.9-16.7,5.8-16.1c2.9,0.6,4.4,8.6,5.8,16.1c1.5,7.6,2.9,14.5,5.8,14.2
				c2.9-0.4,4.4-7.5,5.8-14.2c0.7-3.4,1.5-6.6,2.4-9c0.5-1.2,1-2.2,1.5-2.8c0.6-0.7,1.2-1,1.9-1c2.9,0.2,4.4,6.6,5.8,12.8
				c1.5,6.2,2.9,12.2,5.8,12.1c5.8-0.1,5.8-24.1,11.6-24.3c5.8-0.3,5.8,24.4,11.6,25.1c2.9,0.3,4.4-6.1,5.8-12.9
				c1.5-6.8,2.9-13.9,5.8-14.4s4.4,6.7,5.8,14.4c1.5,7.7,2.9,15.7,5.8,17.4c0.7,0.4,1.4,0.3,1.9-0.4c0.6-0.7,1.1-1.8,1.5-3.4
				c0.9-3.2,1.6-8.1,2.4-13.6c0.7-5.5,1.5-11.6,2.4-17c0.5-2.7,1-5.3,1.5-7.4c0.6-2.2,1.2-4,1.9-5.1c1.5-2.3,2.5-0.3,3.4,5.2
				c0.9,5.4,1.6,14.3,2.4,24.3c0.7,10,1.5,21.2,2.4,31c0.5,5,1,9.6,1.5,13.6c0.6,3.8,1.2,7.2,1.9,9.1c0.7,1.9,1.4,2,1.9,0.3
				c0.3-0.9,0.6-2.2,0.8-4c0.3-1.7,0.5-3.8,0.7-6.3c0.5-5,0.9-11.5,1.2-18.9c0.4-7.4,0.7-15.9,1.1-24.7c0.4-9.3,0.8-18.7,1.1-27.5
				c0.4-9.3,0.8-18.5,1.2-27c0.5-8.5,1-16.5,1.5-23.1c0.2-1.7,0.3-3.3,0.4-4.7c0.2-1.5,0.3-2.9,0.5-4.2c0.3-2.6,0.7-4.7,1-6.2
				c1.5-5.8,2.5,1.2,3.5,18.7c0.2,4.3,0.4,9.3,0.6,14.7c0.2,5.6,0.4,11.5,0.6,17.6c0.4,13.3,0.7,27.4,1.1,41.6
				c0.7,29.6,1.5,62.2,2.4,90.2c0.5,14,1,27.1,1.5,37.7c0.3,5.4,0.6,10.3,0.9,14.4c0.2,2,0.3,3.9,0.5,5.7c0.2,1.7,0.3,3.2,0.5,4.4"
				/>
		</g>
	</g>
</g>
<g>
	<g class="st6">
		<path class="st2" d="M122.8,120.8h7.1V157h-7.1v-15h-13.5v15h-7.1v-36.3h7.1v14.4h13.5C122.8,135.1,122.8,120.8,122.8,120.8z"/>
		<path class="st2" d="M172.1,152.3c-3.7,3.6-8.1,5.5-13.4,5.5c-5.3,0-9.7-1.8-13.3-5.5c-3.6-3.6-5.5-8.1-5.5-13.4s1.8-9.7,5.5-13.4
			c3.6-3.6,8.1-5.5,13.3-5.5s9.7,1.8,13.4,5.5c3.7,3.6,5.5,8.1,5.5,13.4S175.8,148.7,172.1,152.3z M150.4,147.4
			c2.2,2.2,5,3.3,8.3,3.3s6.1-1.1,8.3-3.3s3.4-5.1,3.4-8.5c0-3.5-1.1-6.3-3.4-8.5c-2.2-2.2-5-3.4-8.3-3.4s-6.1,1.1-8.3,3.4
			c-2.2,2.2-3.4,5.1-3.4,8.5C147,142.4,148.2,145.2,150.4,147.4z"/>
		<path class="st2" d="M193,157l-9.6-36.3h7.5l7,26.9l7.6-26.9h6.2l7.6,26.8l6.9-26.8h6.9l-9.5,36.3h-8.1l-6.9-24.1l-6.8,24.1
			L193,157L193,157z"/>
		<path class="st2" d="M284.6,120.8v6.8h-9.8V157h-7.1v-29.4H258v-6.8C258,120.8,284.6,120.8,284.6,120.8z"/>
		<path class="st2" d="M322,152.3c-3.7,3.6-8.1,5.5-13.4,5.5s-9.7-1.8-13.3-5.5c-3.6-3.6-5.5-8.1-5.5-13.4s1.8-9.7,5.5-13.4
			c3.6-3.6,8.1-5.5,13.3-5.5c5.2,0,9.7,1.8,13.4,5.5c3.7,3.6,5.5,8.1,5.5,13.4S325.7,148.7,322,152.3z M300.3,147.4
			c2.2,2.2,5,3.3,8.3,3.3s6.1-1.1,8.3-3.3c2.2-2.2,3.4-5.1,3.4-8.5c0-3.5-1.1-6.3-3.4-8.5c-2.2-2.2-5-3.4-8.3-3.4s-6.1,1.1-8.3,3.4
			c-2.2,2.2-3.4,5.1-3.4,8.5C297,142.4,298.1,145.2,300.3,147.4z"/>
		<path class="st2" d="M369,120.8c3.5,0,6.4,1.2,8.8,3.5s3.6,5.2,3.6,8.7c0,3.4-1.2,6.3-3.6,8.7c-2.4,2.3-5.3,3.5-8.8,3.5h-6.4V157
			h-7.1v-36.3H369V120.8z M369,138.4c1.5,0,2.8-0.5,3.8-1.6s1.5-2.4,1.5-3.9c0-1.6-0.5-2.9-1.5-3.9s-2.3-1.6-3.8-1.6h-6.4v11H369z"
			/>
		<path class="st2" d="M398.2,150.2H412v6.8h-21v-36.3h7.1v29.5H398.2z"/>
		<path class="st2" d="M445.9,157l-2.3-6.5h-14.9l-2.2,6.5h-7.7l12.7-36.3h8.9l12.8,36.3H445.9z M431,143.8h10.2L436,129L431,143.8z
			"/>
		<path class="st2" d="M485.6,120.8l-12.4,22.1V157h-7.1v-14.1l-12.4-22.1h8.1l7.9,15.1l7.9-15.1
			C477.6,120.8,485.6,120.8,485.6,120.8z"/>
	</g>
</g>
</svg>
