<?xml version="1.0" encoding="utf-8"?>
<!-- Generator: Adobe Illustrator 26.3.1, SVG Export Plug-In . SVG Version: 6.00 Build 0)  -->
<svg version="1.1" id="Layer_2_00000182519190788979515280000009136210106934500240_"
	 xmlns="http://www.w3.org/2000/svg" xmlns:xlink="http://www.w3.org/1999/xlink" x="0px" y="0px" viewBox="0 0 1923.2 1079.4"
	 style="enable-background:new 0 0 1923.2 1079.4;" xml:space="preserve">
<style type="text/css">
	.st0{fill:#323258;}
	.st1{opacity:0.3;fill:#19192C;enable-background:new    ;}
	.st2{fill:#FFFFFF;}
	.st3{enable-background:new    ;}
	.st4{fill:#6DB6AF;}
	.st5{fill:none;stroke:#FFFFFF;stroke-width:6;stroke-miterlimit:10;}
	.st6{fill:#AE3047;}
	.st7{fill:none;stroke:#FFFFFF;stroke-width:2;stroke-miterlimit:10;}
	.st8{fill:#EC752F;}
	.st9{clip-path:url(#SVGID_00000105408988698419760920000014603582740516455554_);}
	.st10{fill:#19192C;}
	.st11{opacity:0.8;fill:#2D2D4A;enable-background:new    ;}
	.st12{opacity:0.6;}
	.st13{clip-path:url(#SVGID_00000093863358037793139510000002618299059565629365_);}
	.st14{fill:none;stroke:#6DB6AF;stroke-width:0.75;stroke-miterlimit:10;}
	.st15{opacity:0.8;fill:none;stroke:#6DB6AF;stroke-width:2;stroke-miterlimit:10;enable-background:new    ;}
	.st16{fill:none;stroke:#FF884D;stroke-width:2;stroke-miterlimit:10;stroke-dasharray:0,12;}
	.st17{fill:none;stroke:#D30741;stroke-width:2;stroke-miterlimit:10;}
	.st18{fill:none;stroke:#D30741;stroke-width:2;stroke-miterlimit:10;stroke-dasharray:0,0,11.97,11.97;}
	.st19{opacity:0.8;}
	.st20{fill:none;stroke:#6DB6AF;stroke-width:3.63;stroke-miterlimit:10;}
	.st21{fill:#3A6554;}
</style>
<g id="Layer_1-2">
	<g>
		<g>
			<rect class="st0" width="1919.9" height="1079.4"/>
			<rect class="st0" width="1919.9" height="1079.4"/>
			<rect class="st1" width="610.8" height="1079.4"/>
			<circle class="st2" cx="1885" cy="1041.2" r="8.6"/>
			<circle class="st2" cx="1885" cy="29.9" r="8.6"/>
			<circle class="st2" cx="34.5" cy="1041.2" r="8.6"/>
			<circle class="st2" cx="34.5" cy="35.5" r="8.6"/>
		</g>
		<g class="st3">
			<path class="st2" d="M121.3,119.1h7.1v36.3h-7.1v-15h-13.5v15h-7.1v-36.3h7.1v14.4h13.5V119.1z"/>
		</g>
		<g class="st3">
			<path class="st2" d="M170.9,150.6c-3.7,3.6-8.1,5.5-13.4,5.5c-5.3,0-9.7-1.8-13.3-5.5c-3.6-3.6-5.5-8.1-5.5-13.4
				c0-5.3,1.8-9.7,5.5-13.4c3.6-3.6,8.1-5.5,13.3-5.5c5.2,0,9.7,1.8,13.4,5.5c3.7,3.6,5.5,8.1,5.5,13.4
				C176.4,142.5,174.5,147,170.9,150.6z M149.2,145.7c2.2,2.2,5,3.3,8.3,3.3s6.1-1.1,8.3-3.3c2.2-2.2,3.4-5.1,3.4-8.5
				c0-3.5-1.1-6.3-3.4-8.5c-2.2-2.2-5-3.4-8.3-3.4s-6.1,1.1-8.3,3.4c-2.2,2.2-3.4,5.1-3.4,8.5C145.8,140.7,146.9,143.5,149.2,145.7z
				"/>
		</g>
		<g class="st3">
			<path class="st2" d="M192,155.4l-9.6-36.3h7.5l7,26.9l7.6-26.9h6.2l7.6,26.8l6.9-26.8h6.9l-9.5,36.3h-8.1l-6.9-24.1l-6.8,24.1
				H192z"/>
		</g>
		<g class="st3">
			<path class="st2" d="M284,119.1v6.8h-9.8v29.4h-7.1v-29.4h-9.7v-6.8H284z"/>
		</g>
		<g class="st3">
			<path class="st2" d="M321.6,150.6c-3.7,3.6-8.1,5.5-13.4,5.5s-9.7-1.8-13.3-5.5c-3.6-3.6-5.5-8.1-5.5-13.4
				c0-5.3,1.8-9.7,5.5-13.4c3.6-3.6,8.1-5.5,13.3-5.5s9.7,1.8,13.4,5.5c3.7,3.6,5.5,8.1,5.5,13.4C327.1,142.5,325.3,147,321.6,150.6
				z M299.9,145.7c2.2,2.2,5,3.3,8.3,3.3c3.3,0,6.1-1.1,8.3-3.3c2.2-2.2,3.4-5.1,3.4-8.5c0-3.5-1.1-6.3-3.4-8.5
				c-2.2-2.2-5-3.4-8.3-3.4c-3.3,0-6.1,1.1-8.3,3.4c-2.2,2.2-3.4,5.1-3.4,8.5C296.6,140.7,297.7,143.5,299.9,145.7z"/>
			<path class="st2" d="M369,119.1c3.5,0,6.4,1.2,8.8,3.5c2.4,2.3,3.6,5.2,3.6,8.7c0,3.4-1.2,6.3-3.6,8.7c-2.4,2.3-5.3,3.5-8.8,3.5
				h-6.4v11.9h-7.1v-36.3H369z M369,136.8c1.5,0,2.8-0.5,3.8-1.6c1-1.1,1.5-2.4,1.5-3.9c0-1.6-0.5-2.9-1.5-3.9c-1-1-2.3-1.6-3.8-1.6
				h-6.4v11H369z"/>
		</g>
		<g class="st3">
			<path class="st2" d="M398.4,148.5h13.8v6.8h-21v-36.3h7.1V148.5z"/>
		</g>
		<g class="st3">
			<path class="st2" d="M446.3,155.4l-2.3-6.5h-14.9l-2.2,6.5h-7.7l12.7-36.3h8.9l12.8,36.3H446.3z M431.4,142.1h10.2l-5.2-14.8
				L431.4,142.1z"/>
		</g>
		<g class="st3">
			<path class="st2" d="M486.3,119.1l-12.4,22.1v14.1h-7.1v-14.1l-12.4-22.1h8.1l7.9,15.1l7.9-15.1H486.3z"/>
		</g>
		<g class="st3">
			<path class="st2" d="M115.8,436.3v4h-9.1v27.5h-4v-27.5h-9.1v-4H115.8z"/>
		</g>
		<g class="st3">
			<path class="st2" d="M118.1,458.3c0.4,2,1.3,3.6,2.7,4.7c1.4,1.1,3.2,1.7,5.3,1.7c2.9,0,5-1.1,6.3-3.3l3.3,1.9
				c-2.1,3.4-5.4,5.1-9.7,5.1c-3.5,0-6.3-1.1-8.5-3.3c-2.2-2.2-3.3-5.1-3.3-8.5c0-3.4,1.1-6.2,3.2-8.4c2.1-2.2,4.9-3.4,8.3-3.4
				c3.2,0,5.9,1.2,7.9,3.5c2,2.3,3.1,5.1,3.1,8.4c0,0.6,0,1.2-0.1,1.8H118.1z M125.7,448.4c-2.1,0-3.8,0.6-5.1,1.8
				c-1.3,1.2-2.2,2.8-2.5,4.7h14.7c-0.3-2.1-1.1-3.7-2.5-4.8C129,449,127.5,448.4,125.7,448.4z"/>
			<path class="st2" d="M142.6,451.3c0,0.8,0.4,1.5,1.3,2c0.9,0.5,1.9,0.9,3.1,1.3c1.2,0.4,2.4,0.7,3.6,1.1c1.2,0.4,2.2,1,3.1,2
				c0.8,1,1.3,2.3,1.3,3.8c0,2-0.8,3.7-2.3,4.9c-1.5,1.2-3.5,1.8-5.9,1.8c-2.1,0-4-0.5-5.5-1.4c-1.5-1-2.6-2.2-3.3-3.8l3.3-1.9
				c0.4,1.1,1,1.9,2,2.6s2.1,0.9,3.5,0.9c1.3,0,2.3-0.2,3.1-0.7s1.2-1.3,1.2-2.3c0-0.9-0.4-1.6-1.3-2.1c-0.9-0.5-1.9-1-3.1-1.3
				c-1.2-0.4-2.4-0.7-3.6-1.1c-1.2-0.4-2.2-1-3.1-2c-0.9-1-1.3-2.2-1.3-3.7c0-1.9,0.7-3.5,2.2-4.8c1.5-1.3,3.3-1.9,5.6-1.9
				c1.8,0,3.4,0.4,4.8,1.2c1.4,0.8,2.4,2,3.1,3.4l-3.2,1.8c-0.8-1.9-2.4-2.9-4.7-2.9c-1.1,0-2,0.3-2.8,0.8
				C143,449.6,142.6,450.4,142.6,451.3z"/>
		</g>
		<g class="st3">
			<path class="st2" d="M171.4,449.1h-5.9v12.2c0,1.1,0.2,1.9,0.6,2.4c0.4,0.5,1.1,0.7,2,0.7c0.9,0,2,0,3.3-0.1v3.5
				c-3.3,0.4-5.8,0.2-7.3-0.8c-1.6-1-2.3-2.9-2.3-5.7v-12.2h-4.4v-3.8h4.4v-5.1l3.8-1.2v6.3h5.9V449.1z"/>
			<path class="st2" d="M205.3,445.3h3.8v22.5h-3.8v-3.9c-1.9,3-4.7,4.4-8.3,4.4c-3.1,0-5.7-1.1-7.9-3.4c-2.2-2.3-3.3-5.1-3.3-8.4
				c0-3.3,1.1-6.1,3.3-8.4c2.2-2.3,4.8-3.4,7.9-3.4c3.6,0,6.4,1.5,8.3,4.4V445.3z M197.5,464.6c2.2,0,4.1-0.8,5.6-2.3
				c1.5-1.5,2.2-3.4,2.2-5.7c0-2.3-0.7-4.2-2.2-5.7c-1.5-1.5-3.4-2.3-5.6-2.3c-2.2,0-4,0.8-5.5,2.3c-1.5,1.5-2.2,3.5-2.2,5.7
				c0,2.3,0.7,4.2,2.2,5.7C193.4,463.8,195.3,464.6,197.5,464.6z"/>
			<path class="st2" d="M214.9,467.8V435h3.8v32.8H214.9z"/>
			<path class="st2" d="M224.6,467.8V435h3.8v32.8H224.6z"/>
			<path class="st2" d="M260.3,451.5c1.5,0.8,2.7,1.8,3.5,3.1c0.9,1.3,1.3,2.8,1.3,4.5c0,2.9-1,5.1-2.9,6.8c-2,1.6-4.5,2.4-7.6,2.4
				c-3.1,0-5.6-0.8-7.6-2.4c-2-1.6-2.9-3.9-2.9-6.8c0-1.7,0.4-3.2,1.3-4.5c0.9-1.3,2-2.4,3.5-3.1c-2.5-1.6-3.8-3.9-3.8-6.9
				c0-2.8,0.9-5,2.8-6.6c1.9-1.5,4.1-2.3,6.7-2.3c2.6,0,4.9,0.8,6.8,2.3c1.9,1.5,2.8,3.7,2.8,6.6
				C264.1,447.6,262.9,449.9,260.3,451.5z M254.6,464.3c2,0,3.5-0.5,4.7-1.4s1.8-2.3,1.8-4.1c0-1.7-0.6-3.1-1.8-4s-2.8-1.4-4.7-1.4
				c-1.9,0-3.5,0.5-4.7,1.4s-1.8,2.3-1.8,4c0,1.8,0.6,3.1,1.8,4.1S252.6,464.3,254.6,464.3z M254.6,439.7c-1.6,0-2.9,0.4-3.9,1.3
				c-1,0.8-1.6,2.1-1.6,3.7c0,1.6,0.5,2.8,1.6,3.7c1.1,0.9,2.3,1.3,3.9,1.3c1.5,0,2.8-0.4,3.9-1.3c1.1-0.9,1.6-2.1,1.6-3.7
				c0-1.6-0.5-2.9-1.5-3.7C257.5,440.2,256.2,439.7,254.6,439.7z"/>
			<path class="st2" d="M292.9,444.7c3.1,0,5.7,1.1,7.9,3.4c2.2,2.3,3.3,5.1,3.3,8.4c0,3.3-1.1,6.1-3.3,8.4s-4.8,3.4-7.9,3.4
				c-3.6,0-6.4-1.5-8.3-4.4v3.9h-3.8v-31.4h3.8v12.8C286.5,446.2,289.2,444.7,292.9,444.7z M292.4,464.6c2.2,0,4-0.8,5.5-2.3
				c1.5-1.5,2.2-3.4,2.2-5.7c0-2.3-0.7-4.2-2.2-5.7c-1.5-1.5-3.3-2.3-5.5-2.3c-2.2,0-4.1,0.8-5.6,2.3c-1.5,1.5-2.2,3.5-2.2,5.7
				c0,2.3,0.7,4.2,2.2,5.7C288.3,463.8,290.2,464.6,292.4,464.6z"/>
			<path class="st2" d="M327.1,464.9c-2.3,2.3-5,3.4-8.2,3.4c-3.2,0-6-1.1-8.2-3.4c-2.2-2.3-3.4-5.1-3.4-8.4c0-3.3,1.1-6.1,3.4-8.4
				s5-3.4,8.2-3.4c3.2,0,6,1.1,8.2,3.4c2.3,2.3,3.4,5.1,3.4,8.4C330.5,459.9,329.4,462.7,327.1,464.9z M318.9,464.5
				c2.2,0,4-0.8,5.5-2.3c1.5-1.5,2.2-3.4,2.2-5.7c0-2.3-0.7-4.2-2.2-5.7c-1.5-1.5-3.3-2.3-5.5-2.3c-2.2,0-4,0.8-5.5,2.3
				c-1.5,1.5-2.2,3.4-2.2,5.7c0,2.3,0.7,4.2,2.2,5.7C314.9,463.8,316.7,464.5,318.9,464.5z"/>
			<path class="st2" d="M335.1,467.8V435h3.8v32.8H335.1z"/>
		</g>
		<g class="st3">
			<path class="st2" d="M356.7,449.1h-5.9v12.2c0,1.1,0.2,1.9,0.6,2.4c0.4,0.5,1.1,0.7,2,0.7c0.9,0,2,0,3.3-0.1v3.5
				c-3.3,0.4-5.8,0.2-7.3-0.8c-1.6-1-2.3-2.9-2.3-5.7v-12.2h-4.4v-3.8h4.4v-5.1l3.8-1.2v6.3h5.9V449.1z"/>
		</g>
		<g class="st3">
			<path class="st2" d="M363.5,451.3c0,0.8,0.4,1.5,1.3,2c0.9,0.5,1.9,0.9,3.1,1.3c1.2,0.4,2.4,0.7,3.6,1.1c1.2,0.4,2.2,1,3.1,2
				c0.8,1,1.3,2.3,1.3,3.8c0,2-0.8,3.7-2.3,4.9c-1.5,1.2-3.5,1.8-5.9,1.8c-2.1,0-4-0.5-5.5-1.4c-1.5-1-2.6-2.2-3.3-3.8l3.3-1.9
				c0.4,1.1,1,1.9,2,2.6s2.1,0.9,3.5,0.9c1.3,0,2.3-0.2,3.1-0.7s1.2-1.3,1.2-2.3c0-0.9-0.4-1.6-1.3-2.1c-0.9-0.5-1.9-1-3.1-1.3
				c-1.2-0.4-2.4-0.7-3.6-1.1c-1.2-0.4-2.2-1-3.1-2c-0.9-1-1.3-2.2-1.3-3.7c0-1.9,0.7-3.5,2.2-4.8c1.5-1.3,3.3-1.9,5.6-1.9
				c1.8,0,3.4,0.4,4.8,1.2c1.4,0.8,2.4,2,3.1,3.4l-3.2,1.8c-0.8-1.9-2.4-2.9-4.7-2.9c-1.1,0-2,0.3-2.8,0.8
				C363.9,449.6,363.5,450.4,363.5,451.3z"/>
		</g>
		<g class="st3">
			<path class="st2" d="M385.6,463.1l-2.9,10.9h-3.3l1.8-10.9H385.6z"/>
			<path class="st2" d="M420.2,445.3h3.8v22.5h-3.8v-3.9c-1.9,3-4.7,4.4-8.3,4.4c-3.1,0-5.7-1.1-7.9-3.4c-2.2-2.3-3.3-5.1-3.3-8.4
				c0-3.3,1.1-6.1,3.3-8.4c2.2-2.3,4.8-3.4,7.9-3.4c3.6,0,6.4,1.5,8.3,4.4V445.3z M412.4,464.6c2.2,0,4.1-0.8,5.6-2.3
				c1.5-1.5,2.2-3.4,2.2-5.7c0-2.3-0.7-4.2-2.2-5.7c-1.5-1.5-3.4-2.3-5.6-2.3c-2.2,0-4,0.8-5.5,2.3c-1.5,1.5-2.2,3.5-2.2,5.7
				c0,2.3,0.7,4.2,2.2,5.7C408.3,463.8,410.2,464.6,412.4,464.6z"/>
			<path class="st2" d="M440.8,444.7c2.6,0,4.6,0.8,6.2,2.5c1.6,1.7,2.3,3.9,2.3,6.8v13.8h-3.8v-13.6c0-1.8-0.5-3.2-1.5-4.2
				c-1-1-2.3-1.5-4-1.5c-1.9,0-3.4,0.6-4.6,1.8c-1.2,1.2-1.8,3.1-1.8,5.6v11.9h-3.8v-22.5h3.8v3.2
				C435.2,446,437.6,444.7,440.8,444.7z"/>
			<path class="st2" d="M472.9,436.3h3.8v31.4h-3.8v-3.9c-1.9,3-4.7,4.4-8.3,4.4c-3.1,0-5.7-1.1-7.9-3.4c-2.2-2.3-3.3-5.1-3.3-8.4
				c0-3.3,1.1-6.1,3.3-8.4c2.2-2.3,4.8-3.4,7.9-3.4c3.6,0,6.4,1.5,8.3,4.4V436.3z M465,464.6c2.2,0,4.1-0.8,5.6-2.3
				c1.5-1.5,2.2-3.4,2.2-5.7c0-2.3-0.7-4.2-2.2-5.7c-1.5-1.5-3.4-2.3-5.6-2.3c-2.2,0-4,0.8-5.5,2.3c-1.5,1.5-2.2,3.5-2.2,5.7
				c0,2.3,0.7,4.2,2.2,5.7C461,463.8,462.8,464.6,465,464.6z"/>
		</g>
		<g class="st3">
			<path class="st2" d="M99,505.2c0,0.8,0.4,1.5,1.3,2c0.9,0.5,1.9,0.9,3.1,1.3c1.2,0.4,2.4,0.7,3.6,1.1c1.2,0.4,2.2,1,3.1,2
				c0.8,1,1.3,2.3,1.3,3.8c0,2-0.8,3.7-2.3,4.9c-1.5,1.2-3.5,1.8-5.9,1.8c-2.1,0-4-0.5-5.5-1.4c-1.5-1-2.6-2.2-3.3-3.8l3.3-1.9
				c0.4,1.1,1,1.9,2,2.6s2.1,0.9,3.5,0.9c1.3,0,2.3-0.2,3.1-0.7s1.2-1.3,1.2-2.3c0-0.9-0.4-1.6-1.3-2.1c-0.9-0.5-1.9-1-3.1-1.3
				c-1.2-0.4-2.4-0.7-3.6-1.1c-1.2-0.4-2.2-1-3.1-2c-0.9-1-1.3-2.2-1.3-3.7c0-1.9,0.7-3.5,2.2-4.8c1.5-1.3,3.3-1.9,5.6-1.9
				c1.8,0,3.4,0.4,4.8,1.2c1.4,0.8,2.4,2,3.1,3.4l-3.2,1.8c-0.8-1.9-2.4-2.9-4.7-2.9c-1.1,0-2,0.3-2.8,0.8
				C99.3,503.5,99,504.2,99,505.2z"/>
		</g>
		<g class="st3">
			<path class="st2" d="M117.9,512.2c0.4,2,1.3,3.6,2.7,4.7c1.4,1.1,3.2,1.7,5.3,1.7c2.9,0,5-1.1,6.3-3.3l3.3,1.9
				c-2.1,3.4-5.4,5.1-9.7,5.1c-3.5,0-6.3-1.1-8.5-3.3c-2.2-2.2-3.3-5.1-3.3-8.5c0-3.4,1.1-6.2,3.2-8.4c2.1-2.2,4.9-3.4,8.3-3.4
				c3.2,0,5.9,1.2,7.9,3.5c2,2.3,3.1,5.1,3.1,8.4c0,0.6,0,1.2-0.1,1.8H117.9z M125.5,502.3c-2.1,0-3.8,0.6-5.1,1.8
				c-1.3,1.2-2.2,2.8-2.5,4.7h14.7c-0.3-2.1-1.1-3.7-2.5-4.8C128.8,502.8,127.2,502.3,125.5,502.3z"/>
			<path class="st2" d="M140.8,521.6v-32.8h3.8v32.8H140.8z"/>
		</g>
		<g class="st3">
			<path class="st2" d="M153.2,512.2c0.4,2,1.3,3.6,2.7,4.7c1.4,1.1,3.2,1.7,5.3,1.7c2.9,0,5-1.1,6.3-3.3l3.3,1.9
				c-2.1,3.4-5.4,5.1-9.7,5.1c-3.5,0-6.3-1.1-8.5-3.3c-2.2-2.2-3.3-5.1-3.3-8.5c0-3.4,1.1-6.2,3.2-8.4c2.1-2.2,4.9-3.4,8.3-3.4
				c3.2,0,5.9,1.2,7.9,3.5c2,2.3,3.1,5.1,3.1,8.4c0,0.6,0,1.2-0.1,1.8H153.2z M160.8,502.3c-2.1,0-3.8,0.6-5.1,1.8
				c-1.3,1.2-2.2,2.8-2.5,4.7h14.7c-0.3-2.1-1.1-3.7-2.5-4.8C164.1,502.8,162.6,502.3,160.8,502.3z"/>
			<path class="st2" d="M186.5,522.2c-3.3,0-6.1-1.1-8.3-3.4c-2.2-2.3-3.3-5.1-3.3-8.4c0-3.4,1.1-6.2,3.3-8.4c2.2-2.3,5-3.4,8.3-3.4
				c2.2,0,4.1,0.5,5.9,1.6c1.7,1.1,3,2.5,3.9,4.3l-3.2,1.9c-0.6-1.2-1.4-2.2-2.6-2.9c-1.2-0.7-2.5-1.1-3.9-1.1c-2.2,0-4,0.8-5.5,2.3
				c-1.5,1.5-2.2,3.4-2.2,5.7c0,2.2,0.7,4.1,2.2,5.7c1.5,1.5,3.3,2.3,5.5,2.3c1.5,0,2.8-0.4,4-1.1c1.2-0.7,2.1-1.7,2.7-2.9l3.3,1.9
				c-0.9,1.8-2.3,3.2-4,4.2C190.6,521.7,188.6,522.2,186.5,522.2z"/>
		</g>
		<g class="st3">
			<path class="st2" d="M212.1,503h-5.9v12.2c0,1.1,0.2,1.9,0.6,2.4c0.4,0.5,1.1,0.7,2,0.7c0.9,0,2,0,3.3-0.1v3.5
				c-3.3,0.4-5.8,0.2-7.3-0.8c-1.6-1-2.3-2.9-2.3-5.7V503h-4.4v-3.8h4.4v-5.1l3.8-1.2v6.3h5.9V503z"/>
		</g>
		<g class="st3">
			<path class="st4" d="M245.6,490.2h6.1v31.4H247l-13.2-19.2v19.2h-6.1v-31.4h4.6l13.2,19.1V490.2z"/>
			<path class="st4" d="M275.8,518.8c-2.3,2.3-5,3.4-8.3,3.4c-3.3,0-6-1.1-8.2-3.4s-3.4-5.1-3.4-8.4c0-3.3,1.1-6.1,3.4-8.4
				c2.2-2.3,5-3.4,8.2-3.4c3.3,0,6,1.1,8.3,3.4c2.3,2.3,3.4,5.1,3.4,8.4C279.2,513.7,278.1,516.5,275.8,518.8z M263.3,514.9
				c1.1,1.2,2.5,1.8,4.2,1.8s3.1-0.6,4.3-1.8s1.7-2.6,1.7-4.4s-0.6-3.3-1.7-4.4c-1.1-1.2-2.6-1.8-4.3-1.8s-3.1,0.6-4.2,1.8
				c-1.1,1.2-1.7,2.6-1.7,4.4S262.2,513.7,263.3,514.9z"/>
			<path class="st4" d="M288.9,503.1c0.5-1.4,1.4-2.5,2.6-3.2c1.2-0.7,2.6-1.1,4.1-1.1v6.5c-1.7-0.2-3.3,0.2-4.6,1.1
				c-1.4,0.9-2,2.5-2,4.6v10.7h-5.7v-22.5h5.7V503.1z"/>
			<path class="st4" d="M323.2,498.6c2.5,0,4.5,0.8,6.1,2.5c1.5,1.7,2.3,3.9,2.3,6.7v13.8h-5.7v-13.4c0-1.3-0.3-2.4-1-3.1
				c-0.6-0.7-1.6-1.1-2.7-1.1c-1.3,0-2.3,0.4-3,1.3c-0.7,0.9-1.1,2.1-1.1,3.8v12.6h-5.7v-13.4c0-1.3-0.3-2.4-1-3.1
				c-0.6-0.7-1.6-1.1-2.7-1.1c-1.3,0-2.3,0.4-3,1.3c-0.7,0.9-1.1,2.1-1.1,3.8v12.6h-5.7v-22.5h5.7v2.4c1.3-2,3.4-3,6.1-3
				c2.7,0,4.7,1.1,6,3.2C318.1,499.6,320.3,498.6,323.2,498.6z"/>
			<path class="st4" d="M353.1,499.2h5.7v22.5h-5.7V519c-1.7,2.2-4.1,3.3-7.2,3.3c-2.9,0-5.4-1.1-7.5-3.4c-2.1-2.3-3.1-5.1-3.1-8.4
				c0-3.3,1-6.1,3.1-8.4c2.1-2.3,4.6-3.4,7.5-3.4c3.1,0,5.5,1.1,7.2,3.3V499.2z M342.6,515c1.1,1.2,2.6,1.8,4.4,1.8
				c1.8,0,3.2-0.6,4.4-1.8c1.2-1.2,1.7-2.7,1.7-4.6c0-1.9-0.6-3.4-1.7-4.6c-1.2-1.2-2.6-1.8-4.4-1.8c-1.8,0-3.2,0.6-4.4,1.8
				c-1.1,1.2-1.7,2.7-1.7,4.6C340.9,512.3,341.5,513.8,342.6,515z"/>
			<path class="st4" d="M363.9,521.6v-32.8h5.7v32.8H363.9z"/>
		</g>
		<g class="st3">
			<path class="st2" d="M404.7,518.8c-2.3,2.3-5,3.4-8.2,3.4c-3.2,0-6-1.1-8.2-3.4c-2.2-2.3-3.4-5.1-3.4-8.4c0-3.3,1.1-6.1,3.4-8.4
				s5-3.4,8.2-3.4c3.2,0,6,1.1,8.2,3.4c2.3,2.3,3.4,5.1,3.4,8.4C408.1,513.7,406.9,516.5,404.7,518.8z M396.4,518.4
				c2.2,0,4-0.8,5.5-2.3c1.5-1.5,2.2-3.4,2.2-5.7c0-2.3-0.7-4.2-2.2-5.7c-1.5-1.5-3.3-2.3-5.5-2.3c-2.2,0-4,0.8-5.5,2.3
				c-1.5,1.5-2.2,3.4-2.2,5.7c0,2.3,0.7,4.2,2.2,5.7C392.4,517.6,394.3,518.4,396.4,518.4z"/>
			<path class="st2" d="M416.4,503c1.3-2.8,3.5-4.2,6.9-4.2v4.1c-1.9-0.1-3.5,0.4-4.8,1.5c-1.3,1.1-2,2.9-2,5.3v11.9h-3.8v-22.5h3.8
				V503z"/>
		</g>
		<g class="st3">
			<path class="st4" d="M456.4,496.1H444v7.5h12v5.9h-12v12.1H438v-31.4h18.4V496.1z"/>
			<path class="st4" d="M477.3,499.2h5.7v22.5h-5.7V519c-1.7,2.2-4.1,3.3-7.2,3.3c-2.9,0-5.4-1.1-7.5-3.4c-2.1-2.3-3.1-5.1-3.1-8.4
				c0-3.3,1-6.1,3.1-8.4c2.1-2.3,4.6-3.4,7.5-3.4c3.1,0,5.5,1.1,7.2,3.3V499.2z M466.8,515c1.1,1.2,2.6,1.8,4.4,1.8
				c1.8,0,3.2-0.6,4.4-1.8c1.2-1.2,1.7-2.7,1.7-4.6c0-1.9-0.6-3.4-1.7-4.6c-1.2-1.2-2.6-1.8-4.4-1.8c-1.8,0-3.2,0.6-4.4,1.8
				c-1.1,1.2-1.7,2.7-1.7,4.6C465.1,512.3,465.6,513.8,466.8,515z"/>
			<path class="st4" d="M502.6,499.2h5.7v22.5h-5.7v-2.5c-1.4,2.1-3.6,3.1-6.6,3.1c-2.4,0-4.4-0.8-6-2.5c-1.6-1.6-2.4-3.9-2.4-6.8
				v-13.8h5.7v13.1c0,1.5,0.4,2.6,1.2,3.4c0.8,0.8,1.8,1.2,3.2,1.2c1.5,0,2.6-0.5,3.5-1.4c0.9-0.9,1.3-2.3,1.3-4.2V499.2z"/>
			<path class="st4" d="M513.5,521.6v-32.8h5.7v32.8H513.5z"/>
		</g>
		<g class="st3">
			<path class="st4" d="M536.9,504.8h-5v9.3c0,0.8,0.2,1.3,0.6,1.7c0.4,0.4,0.9,0.6,1.7,0.6c0.7,0,1.6,0,2.7,0v5.3
				c-3.9,0.4-6.7,0.1-8.3-1.1c-1.6-1.2-2.4-3.3-2.4-6.4v-9.3h-3.8v-5.6h3.8v-4.5l5.7-1.8v6.3h5V504.8z"/>
		</g>
		<g class="st3">
			<path class="st4" d="M555.7,499.2h6.1l-8,22.5c-1.1,3.2-2.7,5.5-4.6,7c-1.9,1.5-4.2,2.1-7.1,2v-5.4c1.5,0,2.7-0.3,3.6-1
				c0.9-0.7,1.6-1.8,2.1-3.3l-9-21.7h6.2l5.7,15.1L555.7,499.2z"/>
		</g>
		<g class="st3">
			<path class="st2" d="M567.2,522.1c-0.8,0-1.5-0.3-2-0.9c-0.6-0.6-0.8-1.3-0.8-2.1c0-0.8,0.3-1.5,0.8-2.1c0.6-0.6,1.2-0.9,2-0.9
				c0.8,0,1.5,0.3,2,0.9c0.5,0.6,0.8,1.3,0.8,2.1c0,0.8-0.3,1.5-0.8,2.1C568.7,521.8,568.1,522.1,567.2,522.1z"/>
		</g>
		<circle class="st2" cx="98.7" cy="369.6" r="6"/>
		<circle class="st2" cx="128.4" cy="369.6" r="6"/>
		<circle class="st2" cx="158.2" cy="369.6" r="6"/>
		<circle class="st4" cx="187.9" cy="369.6" r="6"/>
		<g>
			<path class="st2" d="M112.1,616.9c-2.2,2-4.9,3-8.3,3s-6.2-1-8.4-3c-2.2-2-3.2-4.7-3.2-8.1v-20.9h4.1v20.7c0,2.2,0.7,4,1.9,5.3
				c1.3,1.3,3.2,2,5.6,2s4.3-0.7,5.6-2s1.9-3.1,1.9-5.3v-20.7h4.1v20.9C115.3,612.2,114.2,614.9,112.1,616.9L112.1,616.9z"/>
			<path class="st2" d="M124.3,602.9c0,0.8,0.4,1.5,1.3,2c0.9,0.5,1.9,1,3.1,1.3s2.4,0.7,3.6,1.1c1.2,0.4,2.2,1,3.1,2
				s1.3,2.3,1.3,3.8c0,2-0.8,3.7-2.3,4.9c-1.6,1.2-3.5,1.8-5.9,1.8c-2.2,0-4-0.5-5.5-1.4s-2.6-2.2-3.3-3.8l3.3-1.9
				c0.3,1.1,1,1.9,2,2.6s2.1,0.9,3.5,0.9c1.3,0,2.3-0.2,3.1-0.7s1.2-1.3,1.2-2.3c0-0.9-0.4-1.6-1.3-2.1c-0.9-0.5-1.9-1-3.1-1.3
				c-1.2-0.4-2.4-0.7-3.6-1.1s-2.2-1-3.1-2c-0.8-1-1.3-2.2-1.3-3.7c0-2,0.7-3.5,2.2-4.8c1.5-1.3,3.3-1.9,5.6-1.9
				c1.8,0,3.4,0.4,4.8,1.2s2.4,2,3.2,3.4l-3.2,1.8c-0.8-1.9-2.4-2.9-4.7-2.9c-1.1,0-2,0.3-2.8,0.8
				C124.7,601.2,124.3,602,124.3,602.9L124.3,602.9z"/>
			<path class="st2" d="M143.3,609.9c0.4,2,1.3,3.6,2.7,4.7c1.4,1.1,3.2,1.7,5.3,1.7c2.9,0,5-1.1,6.4-3.3l3.3,1.9
				c-2.1,3.4-5.4,5.1-9.7,5.1c-3.5,0-6.4-1.1-8.5-3.3c-2.2-2.2-3.3-5-3.3-8.5s1.1-6.2,3.2-8.4c2.1-2.2,4.9-3.4,8.4-3.4
				c3.2,0,5.9,1.2,7.9,3.5c2.1,2.3,3.1,5.1,3.1,8.4c0,0.6,0,1.2-0.1,1.8L143.3,609.9L143.3,609.9z M150.9,600
				c-2.1,0-3.8,0.6-5.1,1.8c-1.4,1.2-2.2,2.8-2.5,4.7H158c-0.3-2.1-1.1-3.7-2.5-4.8S152.7,600,150.9,600L150.9,600z"/>
			<path class="st2" d="M189.4,600.7h-5.9v12.2c0,1.1,0.2,1.9,0.6,2.4c0.4,0.5,1.1,0.7,2,0.7c0.9,0,2,0,3.3-0.1v3.5
				c-3.4,0.5-5.8,0.2-7.4-0.8s-2.3-2.9-2.3-5.7v-12.2h-4.4v-3.8h4.4v-5.1l3.8-1.2v6.3h5.9L189.4,600.7L189.4,600.7z"/>
			<path class="st2" d="M204.9,596.3c2.6,0,4.7,0.8,6.2,2.5s2.3,3.9,2.3,6.8v13.8h-3.8v-13.6c0-1.8-0.5-3.2-1.5-4.2s-2.3-1.5-4-1.5
				c-1.9,0-3.5,0.6-4.6,1.8s-1.8,3.1-1.8,5.6v11.9h-3.8v-31.4h3.8v12.2C199.3,597.6,201.7,596.3,204.9,596.3L204.9,596.3z"/>
			<path class="st2" d="M221.5,609.9c0.4,2,1.3,3.6,2.7,4.7c1.4,1.1,3.2,1.7,5.3,1.7c2.9,0,5-1.1,6.4-3.3l3.3,1.9
				c-2.1,3.4-5.4,5.1-9.7,5.1c-3.5,0-6.4-1.1-8.5-3.3c-2.2-2.2-3.3-5-3.3-8.5s1.1-6.2,3.2-8.4c2.1-2.2,4.9-3.4,8.4-3.4
				c3.2,0,5.9,1.2,7.9,3.5c2.1,2.3,3.1,5.1,3.1,8.4c0,0.6,0,1.2-0.1,1.8L221.5,609.9L221.5,609.9z M229.1,600
				c-2.1,0-3.8,0.6-5.1,1.8c-1.4,1.2-2.2,2.8-2.5,4.7h14.8c-0.3-2.1-1.1-3.7-2.5-4.8S230.9,600,229.1,600L229.1,600z"/>
			<path class="st4" d="M265.8,620c-3.3,0-6.1-1.1-8.3-3.4c-2.2-2.3-3.3-5.1-3.3-8.4s1.1-6.2,3.3-8.4s5-3.4,8.3-3.4
				c2.1,0,4.1,0.5,5.9,1.6c1.8,1,3.1,2.5,4,4.2l-4.9,2.9c-0.4-0.9-1.1-1.7-2-2.2c-0.9-0.5-1.9-0.8-3-0.8c-1.7,0-3.1,0.6-4.2,1.7
				c-1.1,1.2-1.7,2.6-1.7,4.4s0.6,3.2,1.7,4.4s2.5,1.7,4.2,1.7c1.1,0,2.2-0.3,3.1-0.8c0.9-0.5,1.6-1.2,2-2.2l5,2.9
				c-1,1.8-2.3,3.2-4.1,4.2S268,620,265.8,620L265.8,620z"/>
			<path class="st4" d="M291.1,596.3c2.4,0,4.4,0.8,6,2.5c1.6,1.7,2.4,3.9,2.4,6.8v13.8h-5.7v-13.1c0-1.5-0.4-2.6-1.2-3.4
				s-1.9-1.2-3.2-1.2c-1.5,0-2.6,0.5-3.5,1.4s-1.3,2.3-1.3,4.2v12.1h-5.7v-31.4h5.7v11.5C285.9,597.3,288,596.2,291.1,596.3
				L291.1,596.3z"/>
			<path class="st4" d="M309.1,610.5c0.8,2.8,2.8,4.2,6.2,4.2c2.2,0,3.8-0.8,5-2.2l4.6,2.7c-2.2,3.2-5.4,4.8-9.6,4.8
				c-3.6,0-6.6-1.1-8.8-3.4c-2.2-2.2-3.3-5.1-3.3-8.5s1.1-6.2,3.3-8.5s5-3.4,8.4-3.4c3.2,0,5.9,1.1,8,3.4c2.1,2.3,3.2,5.1,3.2,8.4
				c0,0.8-0.1,1.5-0.2,2.4L309.1,610.5L309.1,610.5z M309,606h11.3c-0.3-1.5-1-2.7-2-3.4c-1-0.8-2.2-1.1-3.5-1.1
				c-1.5,0-2.8,0.4-3.8,1.2S309.3,604.6,309,606L309,606z"/>
			<path class="st4" d="M340.2,620c-3.3,0-6.1-1.1-8.3-3.4c-2.2-2.3-3.3-5.1-3.3-8.4s1.1-6.2,3.3-8.4s5-3.4,8.3-3.4
				c2.1,0,4.1,0.5,5.9,1.6c1.8,1,3.1,2.5,4,4.2l-4.9,2.9c-0.4-0.9-1.1-1.7-2-2.2c-0.9-0.5-1.9-0.8-3-0.8c-1.7,0-3.1,0.6-4.2,1.7
				c-1.1,1.2-1.7,2.6-1.7,4.4s0.6,3.2,1.7,4.4s2.5,1.7,4.2,1.7c1.1,0,2.2-0.3,3.1-0.8c0.9-0.5,1.6-1.2,2-2.2l5,2.9
				c-1,1.8-2.3,3.2-4.1,4.2S342.4,620,340.2,620L340.2,620z"/>
			<path class="st4" d="M373.6,619.3H367l-8-10.2v10.2h-5.7v-31.4h5.7v18.9l7.6-9.9h6.8l-8.9,11.1L373.6,619.3L373.6,619.3z"/>
			<path class="st4" d="M400.3,596.3c3,0,5.5,1.1,7.6,3.4c2.1,2.3,3.2,5.1,3.2,8.4s-1,6.1-3.2,8.4c-2.1,2.3-4.6,3.4-7.6,3.4
				s-5.5-1.1-7.1-3.3v2.7h-5.7v-31.4h5.7v11.6C394.8,597.3,397.2,596.2,400.3,596.3L400.3,596.3z M394.9,612.7
				c1.1,1.2,2.6,1.8,4.4,1.8s3.2-0.6,4.4-1.8s1.7-2.7,1.7-4.6s-0.6-3.4-1.7-4.6c-1.2-1.2-2.6-1.8-4.4-1.8s-3.2,0.6-4.4,1.8
				s-1.7,2.7-1.7,4.6S393.7,611.5,394.9,612.7z"/>
			<path class="st4" d="M429.7,596.9h5.7v22.5h-5.7v-2.5c-1.4,2.1-3.6,3.1-6.6,3.1c-2.4,0-4.4-0.8-6-2.5c-1.6-1.7-2.4-3.9-2.4-6.8
				v-13.8h5.7V610c0,1.5,0.4,2.6,1.2,3.4c0.8,0.8,1.9,1.2,3.2,1.2c1.5,0,2.6-0.5,3.5-1.4s1.3-2.3,1.3-4.2L429.7,596.9L429.7,596.9z"
				/>
			<path class="st4" d="M453.2,602.5h-5v9.3c0,0.8,0.2,1.3,0.6,1.7c0.4,0.4,0.9,0.6,1.7,0.6s1.6,0,2.7,0v5.2
				c-3.9,0.5-6.7,0.1-8.3-1.1s-2.4-3.3-2.4-6.4v-9.3h-3.8v-5.6h3.8v-4.5l5.7-1.8v6.3h5V602.5L453.2,602.5z"/>
			<path class="st4" d="M469,602.5h-5v9.3c0,0.8,0.2,1.3,0.6,1.7c0.4,0.4,0.9,0.6,1.7,0.6s1.6,0,2.7,0v5.2c-3.9,0.5-6.7,0.1-8.3-1.1
				s-2.4-3.3-2.4-6.4v-9.3h-3.8v-5.6h3.8v-4.5l5.7-1.8v6.3h5V602.5L469,602.5z"/>
			<path class="st4" d="M491.2,616.5c-2.3,2.3-5,3.4-8.3,3.4s-6-1.1-8.3-3.4s-3.4-5.1-3.4-8.4s1.1-6.1,3.4-8.4s5-3.4,8.3-3.4
				s6,1.1,8.3,3.4c2.3,2.3,3.4,5.1,3.4,8.4S493.5,614.2,491.2,616.5z M478.6,612.6c1.1,1.2,2.5,1.8,4.3,1.8s3.1-0.6,4.3-1.8
				c1.1-1.2,1.7-2.7,1.7-4.5s-0.6-3.3-1.7-4.4c-1.1-1.2-2.6-1.8-4.3-1.8s-3.1,0.6-4.3,1.8s-1.7,2.7-1.7,4.4S477.5,611.4,478.6,612.6
				z"/>
			<path class="st4" d="M510.9,596.3c2.4,0,4.4,0.8,6,2.5c1.6,1.7,2.4,3.9,2.4,6.8v13.8h-5.7v-13.1c0-1.5-0.4-2.6-1.2-3.4
				c-0.8-0.8-1.9-1.2-3.2-1.2c-1.5,0-2.6,0.5-3.5,1.4s-1.3,2.3-1.3,4.2v12.1h-5.7v-22.5h5.7v2.5
				C505.7,597.3,507.9,596.2,510.9,596.3L510.9,596.3z"/>
			<path class="st2" d="M104.1,654.5h-5.9v12.2c0,1.1,0.2,1.9,0.6,2.4c0.4,0.5,1.1,0.7,2,0.7c0.9,0,2,0,3.3-0.1v3.5
				c-3.4,0.5-5.8,0.2-7.4-0.8c-1.6-1-2.3-2.9-2.3-5.7v-12.2H90v-3.8h4.4v-5.1l3.8-1.2v6.3h5.9L104.1,654.5L104.1,654.5z"/>
			<path class="st2" d="M126.2,670.4c-2.3,2.3-5,3.4-8.3,3.4s-6-1.1-8.2-3.4c-2.2-2.3-3.4-5.1-3.4-8.4s1.1-6.1,3.4-8.4
				c2.2-2.3,5-3.4,8.2-3.4s6,1.1,8.3,3.4c2.3,2.3,3.4,5.1,3.4,8.4S128.5,668.1,126.2,670.4z M117.9,670c2.2,0,4.1-0.8,5.6-2.3
				c1.5-1.5,2.2-3.4,2.2-5.7s-0.8-4.2-2.2-5.7c-1.5-1.5-3.4-2.3-5.6-2.3s-4,0.8-5.5,2.3c-1.5,1.5-2.2,3.4-2.2,5.7s0.8,4.2,2.2,5.7
				C113.9,669.2,115.8,670,117.9,670z"/>
			<path class="st2" d="M155.6,673.8c-3.3,0-6.1-1.1-8.3-3.4s-3.3-5.1-3.3-8.4s1.1-6.2,3.3-8.4c2.2-2.3,5-3.4,8.3-3.4
				c2.2,0,4.1,0.5,5.9,1.6c1.7,1.1,3,2.5,3.9,4.3l-3.2,1.9c-0.6-1.2-1.4-2.2-2.6-2.9s-2.5-1.1-3.9-1.1c-2.2,0-4.1,0.8-5.5,2.3
				c-1.5,1.5-2.2,3.4-2.2,5.7s0.7,4.1,2.2,5.7c1.5,1.5,3.3,2.3,5.5,2.3c1.5,0,2.8-0.3,4-1.1c1.2-0.7,2.1-1.7,2.7-2.8l3.3,1.9
				c-0.9,1.8-2.3,3.2-4.1,4.2C159.7,673.2,157.7,673.8,155.6,673.8L155.6,673.8z"/>
			<path class="st2" d="M180.3,650.2c2.6,0,4.7,0.8,6.2,2.5s2.3,3.9,2.3,6.8v13.8H185v-13.6c0-1.8-0.5-3.2-1.5-4.2s-2.3-1.5-4-1.5
				c-1.9,0-3.5,0.6-4.6,1.8s-1.8,3.1-1.8,5.6v11.9h-3.8v-31.4h3.8V654C174.7,651.5,177.1,650.2,180.3,650.2L180.3,650.2z"/>
			<path class="st2" d="M196.9,663.8c0.4,2,1.3,3.6,2.7,4.7c1.4,1.1,3.2,1.7,5.3,1.7c2.9,0,5-1.1,6.4-3.3l3.3,1.9
				c-2.1,3.4-5.4,5.1-9.7,5.1c-3.5,0-6.4-1.1-8.5-3.3c-2.2-2.2-3.3-5-3.3-8.5s1.1-6.2,3.2-8.4c2.1-2.2,4.9-3.4,8.4-3.4
				c3.2,0,5.9,1.2,7.9,3.5c2.1,2.3,3.1,5.1,3.1,8.4c0,0.6,0,1.2-0.1,1.8L196.9,663.8L196.9,663.8z M204.6,653.9
				c-2.1,0-3.8,0.6-5.1,1.8c-1.4,1.2-2.2,2.8-2.5,4.7h14.8c-0.3-2.1-1.1-3.7-2.5-4.8S206.3,653.9,204.6,653.9L204.6,653.9z"/>
			<path class="st2" d="M230.3,673.8c-3.3,0-6.1-1.1-8.3-3.4s-3.3-5.1-3.3-8.4s1.1-6.2,3.3-8.4c2.2-2.3,5-3.4,8.3-3.4
				c2.2,0,4.1,0.5,5.9,1.6c1.7,1.1,3,2.5,3.9,4.3l-3.2,1.9c-0.6-1.2-1.4-2.2-2.6-2.9s-2.5-1.1-3.9-1.1c-2.2,0-4.1,0.8-5.5,2.3
				c-1.5,1.5-2.2,3.4-2.2,5.7s0.7,4.1,2.2,5.7c1.5,1.5,3.3,2.3,5.5,2.3c1.5,0,2.8-0.3,4-1.1c1.2-0.7,2.1-1.7,2.7-2.8l3.3,1.9
				c-0.9,1.8-2.3,3.2-4.1,4.2C234.4,673.2,232.4,673.8,230.3,673.8L230.3,673.8z"/>
			<path class="st2" d="M262.7,673.2h-4.8l-10.1-10.6v10.6H244v-31.4h3.8v18.9l9.5-9.9h5l-10.6,10.9L262.7,673.2L262.7,673.2z"/>
			<path class="st2" d="M292.7,650.8h4.1l-9,23.8c-0.9,2.5-2.3,4.5-4,5.8s-3.6,1.9-5.9,1.8v-3.6c2.7,0.2,4.7-1.3,5.9-4.6l0.4-0.8
				l-9.6-22.4h4.1l7.4,17.2L292.7,650.8L292.7,650.8z"/>
			<path class="st2" d="M317.8,670.4c-2.3,2.3-5,3.4-8.3,3.4s-6-1.1-8.2-3.4c-2.2-2.3-3.4-5.1-3.4-8.4s1.1-6.1,3.4-8.4
				c2.2-2.3,5-3.4,8.2-3.4s6,1.1,8.3,3.4c2.3,2.3,3.4,5.1,3.4,8.4S320.1,668.1,317.8,670.4z M309.6,670c2.2,0,4.1-0.8,5.6-2.3
				c1.5-1.5,2.2-3.4,2.2-5.7s-0.8-4.2-2.2-5.7c-1.5-1.5-3.4-2.3-5.6-2.3s-4,0.8-5.5,2.3c-1.5,1.5-2.2,3.4-2.2,5.7s0.8,4.2,2.2,5.7
				C305.5,669.2,307.4,670,309.6,670z"/>
			<path class="st2" d="M341,650.8h3.8v22.5H341V670c-1.6,2.5-4,3.8-7.1,3.8c-2.6,0-4.7-0.8-6.2-2.5s-2.3-3.9-2.3-6.8v-13.8h3.8
				v13.6c0,1.8,0.5,3.2,1.5,4.2s2.3,1.5,4,1.5c1.9,0,3.5-0.6,4.6-1.8c1.2-1.2,1.8-3.1,1.8-5.6L341,650.8L341,650.8z"/>
			<path class="st2" d="M354.5,654.5c1.3-2.8,3.6-4.2,6.9-4.2v4.1c-1.9-0.1-3.5,0.4-4.9,1.5c-1.4,1.1-2,2.9-2,5.3v11.9h-3.8v-22.5
				h3.8L354.5,654.5L354.5,654.5z"/>
			<path class="st2" d="M394.5,650.8h3.8v22.5h-3.8v-3.9c-1.9,3-4.7,4.4-8.4,4.4c-3.1,0-5.7-1.1-7.9-3.4c-2.2-2.3-3.3-5.1-3.3-8.4
				s1.1-6.1,3.3-8.4s4.8-3.4,7.9-3.4c3.6,0,6.4,1.5,8.4,4.4V650.8L394.5,650.8z M386.6,670c2.2,0,4.1-0.8,5.6-2.3s2.2-3.5,2.2-5.7
				s-0.8-4.2-2.2-5.7s-3.4-2.3-5.6-2.3s-4.1,0.8-5.6,2.3s-2.2,3.5-2.2,5.7s0.8,4.2,2.2,5.7S384.4,670,386.6,670z"/>
			<path class="st2" d="M415.1,650.2c2.6,0,4.7,0.8,6.2,2.5s2.3,3.9,2.3,6.8v13.8h-3.8v-13.6c0-1.8-0.5-3.2-1.5-4.2s-2.3-1.5-4-1.5
				c-1.9,0-3.5,0.6-4.6,1.8c-1.2,1.2-1.8,3.1-1.8,5.6v11.9h-3.8v-22.5h3.8v3.2C409.6,651.5,411.9,650.2,415.1,650.2L415.1,650.2z"/>
			<path class="st2" d="M432.4,656.8c0,0.8,0.4,1.5,1.3,2c0.9,0.5,1.9,1,3.1,1.3s2.4,0.7,3.6,1.1c1.2,0.4,2.2,1,3.1,2
				s1.3,2.3,1.3,3.8c0,2-0.8,3.7-2.3,4.9c-1.5,1.2-3.5,1.8-5.9,1.8c-2.1,0-4-0.5-5.5-1.4s-2.6-2.2-3.3-3.8l3.3-1.9
				c0.4,1.1,1,1.9,2,2.6s2.1,0.9,3.5,0.9c1.3,0,2.3-0.2,3.1-0.7s1.2-1.3,1.2-2.3c0-0.9-0.4-1.6-1.3-2.1c-0.9-0.5-1.9-1-3.1-1.3
				c-1.2-0.4-2.4-0.7-3.6-1.1s-2.2-1-3.1-2c-0.9-1-1.3-2.2-1.3-3.7c0-2,0.7-3.5,2.2-4.8c1.5-1.3,3.4-1.9,5.6-1.9
				c1.8,0,3.4,0.4,4.8,1.2s2.5,2,3.2,3.4l-3.2,1.8c-0.8-1.9-2.4-2.9-4.7-2.9c-1.1,0-2,0.3-2.8,0.8
				C432.8,655.1,432.4,655.8,432.4,656.8L432.4,656.8z"/>
			<path class="st2" d="M474.4,650.8h3.6l-6.4,22.5h-3.9l-5.3-16.8l-5.2,16.8h-4.1l-6.5-22.5h4l4.9,17.1l5.2-17.1h3.8l5.2,17.1
				L474.4,650.8L474.4,650.8z"/>
			<path class="st2" d="M484.2,663.8c0.4,2,1.3,3.6,2.7,4.7s3.2,1.7,5.3,1.7c2.9,0,5-1.1,6.4-3.3l3.3,1.9c-2.1,3.4-5.4,5.1-9.7,5.1
				c-3.5,0-6.4-1.1-8.5-3.3c-2.2-2.2-3.3-5-3.3-8.5s1.1-6.2,3.2-8.4c2.1-2.2,4.9-3.4,8.4-3.4c3.2,0,5.9,1.2,7.9,3.5s3.1,5.1,3.1,8.4
				c0,0.6,0,1.2-0.1,1.8L484.2,663.8L484.2,663.8z M491.9,653.9c-2.1,0-3.8,0.6-5.1,1.8s-2.2,2.8-2.5,4.7H499
				c-0.3-2.1-1.1-3.7-2.5-4.8S493.6,653.9,491.9,653.9L491.9,653.9z"/>
			<path class="st2" d="M511.1,654.5c1.3-2.8,3.6-4.2,6.9-4.2v4.1c-1.9-0.1-3.5,0.4-4.9,1.5c-1.4,1.1-2,2.9-2,5.3v11.9h-3.8v-22.5
				h3.8L511.1,654.5L511.1,654.5z"/>
			<path class="st2" d="M524.2,656.8c0,0.8,0.4,1.5,1.3,2c0.9,0.5,1.9,1,3.1,1.3c1.2,0.4,2.4,0.7,3.6,1.1c1.2,0.4,2.2,1,3.1,2
				s1.3,2.3,1.3,3.8c0,2-0.8,3.7-2.3,4.9c-1.5,1.2-3.5,1.8-5.9,1.8c-2.2,0-4-0.5-5.5-1.4s-2.6-2.2-3.3-3.8l3.3-1.9
				c0.3,1.1,1,1.9,2,2.6s2.1,0.9,3.5,0.9c1.3,0,2.3-0.2,3.1-0.7s1.2-1.3,1.2-2.3c0-0.9-0.4-1.6-1.3-2.1c-0.9-0.5-1.9-1-3.1-1.3
				c-1.2-0.4-2.4-0.7-3.6-1.1s-2.2-1-3.1-2c-0.8-1-1.3-2.2-1.3-3.7c0-2,0.7-3.5,2.2-4.8c1.5-1.3,3.3-1.9,5.6-1.9
				c1.8,0,3.4,0.4,4.8,1.2c1.4,0.8,2.5,2,3.2,3.4l-3.2,1.8c-0.8-1.9-2.4-2.9-4.7-2.9c-1.1,0-2,0.3-2.8,0.8
				C524.6,655.1,524.2,655.8,524.2,656.8L524.2,656.8z"/>
			<path class="st2" d="M543.6,673.7c-0.8,0-1.5-0.3-2-0.8c-0.6-0.6-0.8-1.3-0.8-2.1s0.3-1.5,0.8-2.1s1.2-0.8,2-0.8s1.5,0.3,2,0.8
				c0.5,0.6,0.8,1.3,0.8,2.1s-0.3,1.5-0.8,2.1C545.1,673.4,544.4,673.7,543.6,673.7z M542.1,664l-0.8-13.2v-9h4.6v9l-0.8,13.2H542.1
				L542.1,664z"/>
		</g>
		<path class="st5" d="M1488.4,307.2V165c0-32.9,24.8-59.5,55.3-59.5h279.1c30.5,0,55.3,26.6,55.3,59.5v290.2
			c0,32.9-24.8,59.5-55.3,59.5h-279.1c-30.5,0-55.3-26.6-55.3-59.5V307.2"/>
		<path class="st5" d="M1488.4,750.6V608.4c0-32.9,24.8-59.5,55.3-59.5h279.1c30.5,0,55.3,26.6,55.3,59.5v290.2
			c0,32.9-24.8,59.5-55.3,59.5h-279.1c-30.5,0-55.3-26.6-55.3-59.5V750.6"/>
		<g>
			<path class="st6" d="M1824.1,564.5h-281.5c-21.5,0-39,17.5-39,39v300c0,21.5,17.4,39,39,39h281.5c21.5,0,39-17.5,39-39v-300
				C1863,582,1845.6,564.5,1824.1,564.5z M1850.2,897.6c0,17.3-14,31.3-31.3,31.3h-271.1c-17.3,0-31.3-14-31.3-31.3V609.4
				c0-17.3,14-31.3,31.3-31.3h271.1c17.3,0,31.3,14,31.3,31.3V897.6z"/>
			<path class="st6" d="M1547.8,578h271.1c17.3,0,31.3,14,31.3,31.3v288.2c0,17.3-14,31.3-31.3,31.3h-271.1
				c-17.3,0-31.3-14-31.3-31.3V609.4C1516.4,592.1,1530.5,578,1547.8,578z"/>
		</g>
		<line class="st7" x1="1878.2" y1="319.9" x2="1923.2" y2="319.9"/>
		<line class="st7" x1="1878.2" y1="762.4" x2="1923.2" y2="762.4"/>
		<g class="st3">
			<path class="st2" d="M1643,774.1h-13.2v7.8h12.8v6.2h-12.8v12.7h-6.5v-32.9h19.7V774.1z"/>
			<path class="st2" d="M1665.3,777.3h6.1v23.5h-6.1v-2.8c-1.8,2.3-4.4,3.4-7.7,3.4c-3.1,0-5.8-1.2-8.1-3.6
				c-2.2-2.4-3.4-5.3-3.4-8.8c0-3.5,1.1-6.4,3.4-8.8c2.2-2.4,4.9-3.6,8.1-3.6c3.3,0,5.8,1.1,7.7,3.4V777.3z M1654.1,793.8
				c1.2,1.2,2.8,1.9,4.7,1.9s3.4-0.6,4.7-1.9c1.2-1.2,1.9-2.8,1.9-4.8c0-1.9-0.6-3.5-1.9-4.8c-1.2-1.2-2.8-1.9-4.7-1.9
				s-3.4,0.6-4.7,1.9c-1.2,1.2-1.8,2.8-1.8,4.8C1652.3,791,1652.9,792.6,1654.1,793.8z"/>
			<path class="st2" d="M1692.4,777.3h6.1v23.5h-6.1v-2.6c-1.5,2.2-3.8,3.3-7,3.3c-2.6,0-4.7-0.9-6.4-2.6c-1.7-1.7-2.5-4.1-2.5-7.1
				v-14.4h6.1V791c0,1.6,0.4,2.8,1.3,3.6c0.8,0.8,2,1.2,3.4,1.2c1.6,0,2.8-0.5,3.8-1.5c0.9-1,1.4-2.4,1.4-4.4V777.3z"/>
			<path class="st2" d="M1704,800.8v-34.3h6.1v34.3H1704z"/>
		</g>
		<g class="st3">
			<path class="st2" d="M1729,783.2h-5.3v9.8c0,0.8,0.2,1.4,0.6,1.8c0.4,0.4,1,0.6,1.8,0.6s1.8,0,2.9,0v5.5
				c-4.2,0.5-7.1,0.1-8.8-1.2c-1.7-1.3-2.6-3.5-2.6-6.7v-9.8h-4.1v-5.8h4.1v-4.7l6.1-1.8v6.6h5.3V783.2z"/>
		</g>
		<g class="st3">
			<path class="st2" d="M1749.1,777.3h6.5l-8.6,23.5c-1.2,3.4-2.8,5.8-4.9,7.3s-4.5,2.2-7.5,2v-5.6c1.6,0,2.9-0.3,3.9-1
				c1-0.7,1.7-1.9,2.3-3.5l-9.6-22.8h6.6l6.1,15.8L1749.1,777.3z"/>
		</g>
		<g>
			<circle class="st8" cx="1685.4" cy="713.6" r="31.1"/>
			<g class="st3">
				<path class="st2" d="M1688.2,729.2c-0.8,0.8-1.7,1.2-2.8,1.2s-2-0.4-2.8-1.2c-0.8-0.8-1.2-1.7-1.2-2.8c0-1.1,0.4-2,1.2-2.8
					c0.8-0.8,1.7-1.2,2.8-1.2s2,0.4,2.8,1.2c0.8,0.8,1.2,1.7,1.2,2.8C1689.4,727.5,1689,728.4,1688.2,729.2z M1683,718.7l-1.3-12.5
					v-9.4h7.3v9.4l-1.2,12.5H1683z"/>
			</g>
		</g>
		<g>
			<defs>
				<rect id="SVGID_1_" x="610.8" y="50.9" width="857.4" height="998.9"/>
			</defs>
			<clipPath id="SVGID_00000088823154862080812480000011347499317913989537_">
				<use xlink:href="#SVGID_1_"  style="overflow:visible;"/>
			</clipPath>
			<g style="clip-path:url(#SVGID_00000088823154862080812480000011347499317913989537_);">
				<g>
					<path class="st10" d="M298,120.1h1093.3c21,0,37.9,17,37.9,37.9v744c0,21-17,37.9-37.9,37.9H298c-21,0-37.9-17-37.9-37.9v-744
						C260,137.1,277,120.1,298,120.1z"/>
					<path class="st11" d="M294.7,120.8h1108c17.9,0,32.3,14.5,32.3,32.3v752.6c0,17.9-14.5,32.3-32.3,32.3h-1108
						c-17.9,0-32.4-14.5-32.4-32.3V153.2C262.3,135.3,276.8,120.8,294.7,120.8z"/>
					<g class="st12">
						<g>
							<defs>
								<path id="SVGID_00000176750562786769225390000000467993307852468877_" d="M293.7,122.7h1108c17.9,0,32.3,14.5,32.3,32.3
									v752.6c0,17.9-14.5,32.3-32.3,32.3h-1108c-17.9,0-32.4-14.5-32.4-32.3V155C261.4,137.2,275.9,122.7,293.7,122.7z"/>
							</defs>
							<clipPath id="SVGID_00000073701095524768446610000015484150767413463988_">
								<use xlink:href="#SVGID_00000176750562786769225390000000467993307852468877_"  style="overflow:visible;"/>
							</clipPath>
							<g style="clip-path:url(#SVGID_00000073701095524768446610000015484150767413463988_);">
								<g>
									<rect x="226.1" y="106.9" class="st14" width="1223.1" height="865.9"/>
									<line class="st14" x1="226.1" y1="955.8" x2="1449.2" y2="955.8"/>
									<line class="st14" x1="226.1" y1="938.8" x2="1449.2" y2="938.8"/>
									<line class="st14" x1="226.1" y1="921.8" x2="1449.2" y2="921.8"/>
									<line class="st14" x1="226.1" y1="904.8" x2="1449.2" y2="904.8"/>
									<line class="st14" x1="226.1" y1="887.8" x2="1449.2" y2="887.8"/>
									<line class="st14" x1="226.1" y1="870.9" x2="1449.2" y2="870.9"/>
									<line class="st14" x1="226.1" y1="853.9" x2="1449.2" y2="853.9"/>
									<line class="st14" x1="226.1" y1="836.9" x2="1449.2" y2="836.9"/>
									<line class="st14" x1="226.1" y1="819.9" x2="1449.2" y2="819.9"/>
									<line class="st14" x1="226.1" y1="803" x2="1449.2" y2="803"/>
									<line class="st14" x1="226.1" y1="786" x2="1449.2" y2="786"/>
									<line class="st14" x1="226.1" y1="769" x2="1449.2" y2="769"/>
									<line class="st14" x1="226.1" y1="752" x2="1449.2" y2="752"/>
									<line class="st14" x1="226.1" y1="735" x2="1449.2" y2="735"/>
									<line class="st14" x1="226.1" y1="718.1" x2="1449.2" y2="718.1"/>
									<line class="st14" x1="226.1" y1="701.1" x2="1449.2" y2="701.1"/>
									<line class="st14" x1="226.1" y1="684.1" x2="1449.2" y2="684.1"/>
									<line class="st14" x1="226.1" y1="667.1" x2="1449.2" y2="667.1"/>
									<line class="st14" x1="226.1" y1="650.2" x2="1449.2" y2="650.2"/>
									<line class="st14" x1="226.1" y1="633.2" x2="1449.2" y2="633.2"/>
									<line class="st14" x1="226.1" y1="616.2" x2="1449.2" y2="616.2"/>
									<line class="st14" x1="226.1" y1="599.2" x2="1449.2" y2="599.2"/>
									<line class="st14" x1="226.1" y1="582.2" x2="1449.2" y2="582.2"/>
									<line class="st14" x1="226.1" y1="565.3" x2="1449.2" y2="565.3"/>
									<line class="st14" x1="226.1" y1="548.3" x2="1449.2" y2="548.3"/>
									<line class="st14" x1="226.1" y1="531.3" x2="1449.2" y2="531.3"/>
									<line class="st14" x1="226.1" y1="514.3" x2="1449.2" y2="514.3"/>
									<line class="st14" x1="226.1" y1="497.4" x2="1449.2" y2="497.4"/>
									<line class="st14" x1="226.1" y1="480.4" x2="1449.2" y2="480.4"/>
									<line class="st14" x1="226.1" y1="463.4" x2="1449.2" y2="463.4"/>
									<line class="st14" x1="226.1" y1="446.4" x2="1449.2" y2="446.4"/>
									<line class="st14" x1="226.1" y1="429.5" x2="1449.2" y2="429.5"/>
									<line class="st14" x1="226.1" y1="412.5" x2="1449.2" y2="412.5"/>
									<line class="st14" x1="226.1" y1="395.5" x2="1449.2" y2="395.5"/>
									<line class="st14" x1="226.1" y1="378.5" x2="1449.2" y2="378.5"/>
									<line class="st14" x1="226.1" y1="361.5" x2="1449.2" y2="361.5"/>
									<line class="st14" x1="226.1" y1="344.6" x2="1449.2" y2="344.6"/>
									<line class="st14" x1="226.1" y1="327.6" x2="1449.2" y2="327.6"/>
									<line class="st14" x1="226.1" y1="310.6" x2="1449.2" y2="310.6"/>
									<line class="st14" x1="226.1" y1="293.6" x2="1449.2" y2="293.6"/>
									<line class="st14" x1="226.1" y1="276.6" x2="1449.2" y2="276.6"/>
									<line class="st14" x1="226.1" y1="259.7" x2="1449.2" y2="259.7"/>
									<line class="st14" x1="226.1" y1="242.7" x2="1449.2" y2="242.7"/>
									<line class="st14" x1="226.1" y1="225.7" x2="1449.2" y2="225.7"/>
									<line class="st14" x1="226.1" y1="208.7" x2="1449.2" y2="208.7"/>
									<line class="st14" x1="226.1" y1="191.8" x2="1449.2" y2="191.8"/>
									<line class="st14" x1="226.1" y1="174.8" x2="1449.2" y2="174.8"/>
									<line class="st14" x1="226.1" y1="157.8" x2="1449.2" y2="157.8"/>
									<line class="st14" x1="226.1" y1="140.8" x2="1449.2" y2="140.8"/>
									<line class="st14" x1="226.1" y1="123.8" x2="1449.2" y2="123.8"/>
									<line class="st14" x1="1429.2" y1="106.9" x2="1429.2" y2="972.7"/>
									<line class="st14" x1="1409.1" y1="106.9" x2="1409.1" y2="972.7"/>
									<line class="st14" x1="1389.1" y1="106.9" x2="1389.1" y2="972.7"/>
									<line class="st14" x1="1369" y1="106.9" x2="1369" y2="972.7"/>
									<line class="st14" x1="1349" y1="106.9" x2="1349" y2="972.7"/>
									<line class="st14" x1="1328.9" y1="106.9" x2="1328.9" y2="972.7"/>
									<line class="st14" x1="1308.9" y1="106.9" x2="1308.9" y2="972.7"/>
									<line class="st14" x1="1288.8" y1="106.9" x2="1288.8" y2="972.7"/>
									<line class="st14" x1="1268.8" y1="106.9" x2="1268.8" y2="972.7"/>
									<line class="st14" x1="1248.7" y1="106.9" x2="1248.7" y2="972.7"/>
									<line class="st14" x1="1228.7" y1="106.9" x2="1228.7" y2="972.7"/>
									<line class="st14" x1="1208.6" y1="106.9" x2="1208.6" y2="972.7"/>
									<line class="st14" x1="1188.6" y1="106.9" x2="1188.6" y2="972.7"/>
									<line class="st14" x1="1168.5" y1="106.9" x2="1168.5" y2="972.7"/>
									<line class="st14" x1="1148.5" y1="106.9" x2="1148.5" y2="972.7"/>
									<line class="st14" x1="1128.4" y1="106.9" x2="1128.4" y2="972.7"/>
									<line class="st14" x1="1108.4" y1="106.9" x2="1108.4" y2="972.7"/>
									<line class="st14" x1="1088.3" y1="106.9" x2="1088.3" y2="972.7"/>
									<line class="st14" x1="1068.3" y1="106.9" x2="1068.3" y2="972.7"/>
									<line class="st14" x1="1048.2" y1="106.9" x2="1048.2" y2="972.7"/>
									<line class="st14" x1="1028.2" y1="106.9" x2="1028.2" y2="972.7"/>
									<line class="st14" x1="1008.1" y1="106.9" x2="1008.1" y2="972.7"/>
									<line class="st14" x1="988.1" y1="106.9" x2="988.1" y2="972.7"/>
									<line class="st14" x1="968" y1="106.9" x2="968" y2="972.7"/>
									<line class="st14" x1="948" y1="106.9" x2="948" y2="972.7"/>
									<line class="st14" x1="927.9" y1="106.9" x2="927.9" y2="972.7"/>
									<line class="st14" x1="907.9" y1="106.9" x2="907.9" y2="972.7"/>
									<line class="st14" x1="887.8" y1="106.9" x2="887.8" y2="972.7"/>
									<line class="st14" x1="867.8" y1="106.9" x2="867.8" y2="972.7"/>
									<line class="st14" x1="847.7" y1="106.9" x2="847.7" y2="972.7"/>
									<line class="st14" x1="827.7" y1="106.9" x2="827.7" y2="972.7"/>
									<line class="st14" x1="807.6" y1="106.9" x2="807.6" y2="972.7"/>
									<line class="st14" x1="787.6" y1="106.9" x2="787.6" y2="972.7"/>
									<line class="st14" x1="767.5" y1="106.9" x2="767.5" y2="972.7"/>
									<line class="st14" x1="747.5" y1="106.9" x2="747.5" y2="972.7"/>
									<line class="st14" x1="727.4" y1="106.9" x2="727.4" y2="972.7"/>
									<line class="st14" x1="707.4" y1="106.9" x2="707.4" y2="972.7"/>
									<line class="st14" x1="687.3" y1="106.9" x2="687.3" y2="972.7"/>
									<line class="st14" x1="667.3" y1="106.9" x2="667.3" y2="972.7"/>
									<line class="st14" x1="647.2" y1="106.9" x2="647.2" y2="972.7"/>
									<line class="st14" x1="627.2" y1="106.9" x2="627.2" y2="972.7"/>
									<line class="st14" x1="607.1" y1="106.9" x2="607.1" y2="972.7"/>
									<line class="st14" x1="587.1" y1="106.9" x2="587.1" y2="972.7"/>
									<line class="st14" x1="567" y1="106.9" x2="567" y2="972.7"/>
									<line class="st14" x1="547" y1="106.9" x2="547" y2="972.7"/>
									<line class="st14" x1="526.9" y1="106.9" x2="526.9" y2="972.7"/>
									<line class="st14" x1="506.9" y1="106.9" x2="506.9" y2="972.7"/>
									<line class="st14" x1="486.8" y1="106.9" x2="486.8" y2="972.7"/>
									<line class="st14" x1="466.8" y1="106.9" x2="466.8" y2="972.7"/>
									<line class="st14" x1="446.7" y1="106.9" x2="446.7" y2="972.7"/>
									<line class="st14" x1="426.6" y1="106.9" x2="426.6" y2="972.7"/>
									<line class="st14" x1="406.6" y1="106.9" x2="406.6" y2="972.7"/>
									<line class="st14" x1="386.5" y1="106.9" x2="386.5" y2="972.7"/>
									<line class="st14" x1="366.5" y1="106.9" x2="366.5" y2="972.7"/>
									<line class="st14" x1="346.5" y1="106.9" x2="346.5" y2="972.7"/>
									<line class="st14" x1="326.4" y1="106.9" x2="326.4" y2="972.7"/>
									<line class="st14" x1="306.4" y1="106.9" x2="306.4" y2="972.7"/>
									<line class="st14" x1="286.3" y1="106.9" x2="286.3" y2="972.7"/>
									<line class="st14" x1="266.2" y1="106.9" x2="266.2" y2="972.7"/>
									<line class="st14" x1="246.2" y1="106.9" x2="246.2" y2="972.7"/>
								</g>
							</g>
						</g>
					</g>
					<path class="st5" d="M240.2,293.3V155.6c0-30.3,24.8-55,55.3-55h1106.4c30.5,0,55.3,24.6,55.3,55v753.5c0,30.3-24.8,55-55.3,55
						H295.5c-30.5,0-55.3-24.6-55.3-55v-622"/>
					<line class="st15" x1="344.4" y1="122.7" x2="344.4" y2="940"/>
					<line class="st15" x1="545.7" y1="122.7" x2="545.7" y2="940"/>
					<line class="st15" x1="747" y1="122.7" x2="747" y2="940"/>
					<line class="st7" x1="1435" y1="531.3" x2="262.3" y2="531.3"/>
					<line class="st15" x1="948.2" y1="122.7" x2="948.2" y2="940"/>
					<line class="st15" x1="1146.5" y1="123.7" x2="1146.5" y2="941"/>
					<line class="st15" x1="1346.8" y1="122.7" x2="1346.8" y2="940"/>
					<line class="st16" x1="262.3" y1="327.7" x2="1435" y2="327.7"/>
					<line class="st16" x1="262.3" y1="734.9" x2="1435" y2="734.9"/>
					<g>
						<line class="st17" x1="261.4" y1="258.3" x2="267.4" y2="258.3"/>
						<line class="st18" x1="279.3" y1="258.3" x2="1422.1" y2="258.3"/>
						<line class="st17" x1="1428.1" y1="258.3" x2="1434.1" y2="258.3"/>
					</g>
					<g>
						<line class="st17" x1="261.4" y1="804.3" x2="267.4" y2="804.3"/>
						<line class="st18" x1="279.3" y1="804.3" x2="1422.1" y2="804.3"/>
						<line class="st17" x1="1428.1" y1="804.3" x2="1434.1" y2="804.3"/>
					</g>
					<g class="st19">
						<path class="st20" d="M262.3,522.4c2.9,0.3,4.4,3.9,5.8,7c0.7,1.6,1.5,3.1,2.4,4.2c0.9,1.1,2,1.9,3.5,1.8
							c5.8-0.2,5.8-12,11.6-11.7c2.9,0.1,4.4,2.9,5.8,5.7c0.7,1.4,1.5,2.7,2.4,3.7c0.9,1,2,1.7,3.5,1.8c5.8,0.2,5.8-11.1,11.6-11.3
							c1.5,0,2.5,0.7,3.5,1.7c0.9,1.1,1.6,2.6,2.4,4.1c1.5,3.1,2.9,6.3,5.8,6.6c2.9,0.2,4.4-3.1,5.8-6.6c1.5-3.5,2.9-7.2,5.8-7.5
							c2.9-0.4,4.4,3.4,5.8,7.5c1.5,4,2.9,8.5,5.8,8.8c2.9,0.4,4.4-4,5.8-8.8c1.5-4.7,2.9-9.8,5.8-10.2c1.5-0.2,2.5,0.9,3.5,2.8
							c0.9,1.9,1.6,4.6,2.4,7.4c1.5,5.5,2.9,11.6,5.8,12.1s4.4-5.5,5.8-12.1c1.5-6.5,2.9-13.5,5.8-14s4.4,6.5,5.8,14
							c1.5,7.5,2.9,15.4,5.8,18.4c0.4,0.4,0.7,0.6,1,0.6c0.3,0.1,0.6,0,0.9-0.2c0.3-0.2,0.5-0.6,0.8-1.2c0.2-0.5,0.5-1.2,0.7-2
							c0.9-3.3,1.6-8.9,2.4-15.6c0.4-3.6,0.8-7.2,1.1-10.5c0.4-3.6,0.8-7.3,1.2-10.9c0.5-3.6,1-7,1.5-10.2c0.3-1.6,0.6-3,0.9-4.3
							c0.3-1.3,0.7-2.5,1-3.5c0.2-0.5,0.4-0.9,0.5-1.1c0.2-0.3,0.3-0.5,0.5-0.7c0.3-0.3,0.6-0.2,0.9,0.3c0.6,0.9,1.1,3.2,1.5,6.9
							c0.9,7.3,1.6,19.8,2.4,34.1c0.7,14.3,1.5,30.6,2.4,45.2c0.5,7.4,1,14.4,1.5,20.3c0.3,3,0.6,5.7,0.9,8c0.2,1.1,0.3,2.3,0.5,3.3
							c0.2,1,0.4,1.9,0.5,2.7c0.7,3.1,1.4,3.2,1.9,0.6c0.6-2.5,1.1-7.7,1.5-15.1c0.5-7.5,0.9-17.1,1.2-28.2
							c0.4-11.1,0.8-23.6,1.1-36.8c0.4-13.8,0.8-27.7,1.1-40.7c0.2-7,0.4-13.8,0.6-20.3c0.2-6.9,0.5-13.4,0.6-19.5
							c0.5-12.5,1-24.1,1.5-33.5c0.6-9.4,1.2-16.8,1.9-20.5c0.4-1.8,0.7-2.5,1-2c0.3,0.5,0.6,1.9,0.9,4.5c0.6,5.2,1.1,14.5,1.5,27.2
							c0.9,25.2,1.6,63.5,2.4,104.7c0.7,41.1,1.5,85.2,2.4,121.7c0.5,18.2,1,34.5,1.5,47.4c0.6,12.8,1.2,22.2,1.9,26
							c0.7,3.7,1.4,0.7,1.9-7.9c0.6-8.6,1.1-22.8,1.5-41.2c0.9-36.7,1.6-90,2.4-146.1c0.7-56.1,1.5-114.8,2.4-161.9
							c0.5-23.5,1-44,1.5-59.6c0.3-7.8,0.6-14.3,0.9-19.4c0.2-2.5,0.3-4.7,0.5-6.3s0.4-2.9,0.5-3.6c0.7-3.1,1.4,2.2,1.9,14.2
							c0.3,6,0.5,13.8,0.8,22.9c0.2,9.2,0.5,19.8,0.7,31.6c0.5,23.6,0.9,52,1.2,83.1c0.4,31.6,0.7,65.3,1.1,99
							c0.4,34.7,0.8,69.4,1.1,101.9c0.4,33,0.8,64.4,1.2,91.8c0.3,13.9,0.5,26.6,0.7,37.9c0.2,11.5,0.5,21.7,0.8,30.3
							c0.6,17.2,1.2,28.3,1.9,30.3c0.7,2.1,1.4-5.5,1.9-20.4c0.3-7.4,0.5-16.8,0.8-27.7c0.2-11.1,0.5-23.5,0.7-37.1
							c0.9-55,1.6-130.5,2.4-207c0.4-38.5,0.8-77,1.1-113.1c0.4-36.4,0.8-70.5,1.2-100.1c0.5-29.6,1-54.5,1.5-72.4
							c0.6-17.9,1.2-28.4,1.9-29.3c0.7-0.8,1.4,8.5,1.9,25.3c0.6,16.9,1.1,41.4,1.5,71c0.9,59.3,1.6,138.8,2.4,218.6
							c0.4,39.9,0.8,79.8,1.1,117.2c0.4,37.4,0.8,72.4,1.2,101.7c0.5,29.3,1,53.1,1.5,68.3c0.6,15.2,1.2,21.5,1.9,16.3
							c0.1-0.7,0.2-1.5,0.3-2.4c0-0.4,0.1-0.9,0.1-1.6c0-0.5,0.1-1.1,0.1-1.8c0.2-2.5,0.3-5.6,0.5-9.1c0.1-1.7,0.1-3.5,0.2-5.6
							c0.1-2,0.1-4.1,0.2-6.5c0.1-4.2,0.3-9.1,0.4-14.5c0.1-5.1,0.3-10.7,0.4-16.8c0.1-5.7,0.2-12,0.4-18.6
							c0.2-12.3,0.5-26.3,0.7-41.5c0.4-27,0.8-58.6,1.2-92.4c0.4-29.7,0.7-61.3,1.1-92.9c0.4-27.4,0.8-54.7,1.1-80.4
							c0.4-23.3,0.8-42.5,1.2-55.8c0.5-13.4,1-21,1.5-21.8c0.6-0.8,1.2,5.2,1.9,17.5c0.4,6,0.7,12.9,1,19.9
							c0.2,4.7,0.5,11.6,0.9,20.4c0.4,9.6,0.9,23.2,1.5,39.6c0.4,10,0.8,21.6,1.2,34.1c0.4,10.2,0.8,19,1.1,26.6
							c0.4,7.5,0.7,13.8,1.1,18.4c0.2,2.4,0.4,4.5,0.6,6.1c0.1,0.8,0.2,1.5,0.3,2.1c0.1,0.7,0.2,1.2,0.3,1.7c0.9,3.9,2,2.1,3.5,0.7
							c1.5-0.9,2.5-5,3.5-10.4s1.6-12.2,2.4-18.6c0.7-6.5,1.5-12.6,2.4-16.8c0.9-4.3,2-6.6,3.5-5.8s2.5,4.2,3.5,8.4
							c0.9,4.2,1.6,9.4,2.4,14.2c0.7,4.9,1.5,9.5,2.4,12.6c0.9,3.2,2,4.9,3.5,4.2s2.5-3.2,3.5-6.3c0.9-3.2,1.6-7,2.4-10.5
							s1.5-6.9,2.4-9.1c0.5-1.1,1-1.9,1.5-2.4c0.6-0.5,1.2-0.7,1.9-0.4c1.5,0.5,2.5,2.3,3.5,4.5c0.9,2.2,1.6,4.9,2.4,7.4
							c0.7,2.5,1.5,4.8,2.4,6.4c0.9,1.6,2,2.4,3.5,2c2.9-0.7,4.3-4.8,5.8-8.4c0.7-1.8,1.5-3.5,2.4-4.7c0.9-1.2,2-2,3.5-1.8
							c1.5,0.1,2.5,1.1,3.5,2.2c0.9,1.2,1.6,2.7,2.4,4.3c0.7,1.5,1.5,3.1,2.4,4.2c0.9,1.2,2,1.9,3.5,2c2.9,0.2,4.3-2.9,5.8-6.3
							c1.5-3.3,2.9-7.1,5.8-7.6c5.8-1.4,5.8,15.6,11.6,18c1.5,0.5,2.5-0.5,3.5-2.5c0.9-2,1.6-4.8,2.4-7.9c0.7-3,1.5-6.3,2.4-8.9
							c0.9-2.6,2-4.6,3.5-5.1c1.5-0.5,2.5,0.8,3.5,3.5c0.9,2.6,1.6,6.5,2.4,10.5s1.5,8.3,2.4,11.8c0.9,3.5,2,6.2,3.5,6.7
							c1.5,0.6,2.5-1.4,3.5-4.8c0.9-3.5,1.6-8.5,2.4-13.7c1.5-10.6,2.9-21,5.8-33.5c0-0.1,0.1-0.4,0.3-1c0-0.1,0.1-0.3,0.1-0.5
							c0-0.1,0.1-0.3,0.1-0.5c0.2-0.7,0.3-1.2,0.5-1.7s0.3-0.8,0.5-1.1c0.2-0.3,0.3-0.6,0.4-0.7c0.1-0.1,0.3-0.1,0.4,0
							c0.1,0.1,0.3,0.3,0.4,0.6c0.2,0.5,0.5,1.6,0.7,3c0,0.4,0.1,0.8,0.2,1.2l0.2,1.3c0.1,0.9,0.2,1.9,0.3,3.1
							c0.2,2.2,0.4,4.9,0.6,7.9c0.4,6,0.8,13.5,1.1,22c0.9,21.8,1.7,43.5,2.4,59.9c0.5,10.9,1,21.8,1.5,31.9
							c0.6,10,1.2,19.1,1.9,25.5c0.7,6.4,1.4,8.3,1.9,5.5c0.6-3,1.1-10.4,1.5-21.6c0.1-2.9,0.2-5.9,0.3-9c0.1-3.4,0.2-6.8,0.3-10.4
							c0.2-7.6,0.4-15.7,0.6-24c0.3-18.4,0.7-38,1.1-57.6c0.7-41.3,1.5-86.7,2.4-124.3c0.3-9.7,0.5-18.6,0.7-26.5
							c0.2-8.1,0.5-15.5,0.8-21.9c0.1-1.6,0.2-3.2,0.2-4.7c0.1-1.5,0.2-2.9,0.2-4.2c0.2-2.6,0.3-5,0.5-7.1c0.2-2.1,0.3-4,0.5-5.3
							c0.2-1.4,0.3-2.5,0.5-3.1c2.9-10.4,4.3,94.2,5.8,197c0.7,51.4,1.5,102.7,2.4,139.8c0.9,37.1,2,59.8,3.5,54.5
							c0.1-0.3,0.2-0.7,0.3-1.2s0.2-1.2,0.3-1.9c0.2-1.4,0.3-3.2,0.5-5.2s0.3-4.4,0.5-7c0.1-2.5,0.3-5.5,0.4-8.8
							c0.3-6.3,0.5-13.6,0.8-21.5c0.2-7.7,0.5-16.5,0.7-26c0.5-18.4,0.9-39,1.2-59.9c0.3-20.1,0.7-41.5,1.1-63
							c0.7-41.2,1.5-78.5,2.4-101.7c0.2-5.9,0.5-10.6,0.7-14.5c0.2-3.8,0.5-6.6,0.8-8.3c0.3-1.7,0.6-2.3,0.9-1.7
							c0.3,0.7,0.7,2.5,1,5.5c0.4,3,0.7,6.7,1,10.9c0.3,4.2,0.6,8.8,0.9,13.8c0.6,9.9,1.1,21,1.5,32.2c0.6,17.4,1.5,40.6,2.4,63.9
							c0.4,9.3,0.7,17.5,1.1,24.3c0.2,3.3,0.4,6.3,0.6,8.8c0.2,2.5,0.4,4.7,0.7,6.3c0.1,0.8,0.2,1.5,0.3,2.1
							c0.1,0.3,0.1,0.5,0.2,0.8c0.1,0.2,0.1,0.5,0.2,0.6c0.2,0.7,0.5,0.9,0.8,0.6c0.1-0.2,0.3-0.4,0.4-0.7s0.3-0.8,0.5-1.4
							c0.2-0.6,0.3-1.3,0.5-2c0.2-0.7,0.3-1.5,0.5-2.5c0.2-0.9,0.4-1.9,0.5-2.9c0.1-0.6,0.3-1.6,0.5-2.8c0.1-0.8,0.3-1.7,0.5-2.8
							c0.1-0.8,0.3-1.8,0.4-2.8c0.2-1.5,0.5-3.2,0.8-5.2c0.2-1.5,0.5-3.1,0.7-4.9c0.9-6.2,1.6-11.4,2.4-15.5
							c1.5-8.2,2.9-11.9,5.8-12.5c1.5-0.3,2.5,0.2,3.5,2.3c0.9,2.1,1.6,5.6,2.4,10.1c0.9,5.8,1.7,11.5,2.4,15.8
							c0.9,5.7,2,12,3.5,16.7c0.7,2.2,1.4,3.5,1.9,3.2c0.1-0.1,0.3-0.3,0.4-0.5c0.1-0.2,0.3-0.5,0.4-1c0.2-0.8,0.5-2,0.7-3.5
							c0.5-3,0.9-7.2,1.2-12.5c0.4-5.3,0.8-11.5,1.1-18.3c0.7-13.6,1.5-29.6,2.4-44.5c0.5-7.5,1-14.8,1.5-21.1
							c0.6-6.3,1.2-11.7,1.9-15.1c0.7-3.4,1.4-3.8,1.9-1.3c0.6,2.4,1.1,7.9,1.5,15.5c0.9,15.3,1.6,39.7,2.4,66.6
							c0.7,26.8,1.5,56,2.4,80.7c0.1,3.1,0.2,6.1,0.3,9c0.1,2.9,0.2,5.7,0.4,8.4c0.2,5.4,0.5,10.3,0.8,14.7c0.2,2.3,0.3,4.3,0.4,6.1
							c0.2,1.8,0.3,3.5,0.5,5c0.3,3,0.7,5.2,1,6.4c0.4,1.2,0.7,1.2,1,0.3c0.3-1,0.6-2.9,0.9-5.9c0.6-6,1.1-15.6,1.5-28
							c0.5-12.4,0.9-27.4,1.2-43.9c0.3-16.8,0.7-34.7,1.1-52.7c0.7-36.4,1.5-74.1,2.4-103.1c0.9-29,2-49.5,3.5-50.4
							c1.5-0.9,2.5,18.5,3.5,47.5c0.9,29,1.6,67.5,2.4,106c1.5,76.9,2.9,153.3,5.8,151.5c0.7-0.3,1.4-5.6,1.9-14.2
							c0.6-8.6,1.1-20.6,1.5-34.8c0.9-28.5,1.6-65.8,2.4-102.5c1.5-73.5,2.9-144.3,5.8-139.9c0.4,0.5,0.7,2.1,1,4.5
							c0.3,2.5,0.6,5.9,0.9,10.1c0.6,8.3,1.1,19.6,1.5,32.7c0.5,13.1,0.9,28.1,1.2,43.9c0.3,15.5,0.7,32.1,1.1,48.7
							c0.7,32.7,1.5,64.4,2.4,86.9c0.5,11.2,1,20.3,1.5,26c0.6,5.7,1.2,8.1,1.9,6.6c0.7-1.5,1.4-6.6,1.9-14
							c0.6-7.4,1.1-17.1,1.5-28.4c0.9-22.5,1.6-50.4,2.4-77.1c0.7-26.7,1.5-52.1,2.4-69.7c0.5-8.8,1-15.5,1.5-19.6s1.2-5.5,1.9-3.7
							s1.4,6.2,1.9,12.2s1.1,13.8,1.5,22.5c0.9,17.4,1.6,38.5,2.4,58.3c0.7,19.8,1.5,38.2,2.4,50.5c0.5,6.1,1,10.7,1.5,13.3
							c0.6,2.6,1.2,3.1,1.9,1.4c0.7-1.8,1.4-5.2,1.9-9.6c0.6-4.5,1.1-10,1.5-16.1c0.9-12.1,1.6-26.4,2.4-39.5
							c0.7-13,1.5-25,2.4-32.6c0.2-1.9,0.5-3.5,0.7-4.9c0.2-1.4,0.5-2.4,0.8-3.1c0.6-1.5,1.2-1.6,1.9-0.2c1.5,2.5,2.5,9.4,3.5,16.8
							c0.9,7.5,1.6,16.2,2.4,24c0.7,7.8,1.5,14.9,2.4,19.2c0.5,2.2,1,3.8,1.5,4.6s1.2,0.8,1.9,0c1.5-1.5,2.5-5.4,3.5-9.8
							c0.9-4.3,1.6-9.4,2.4-14c0.7-4.6,1.5-8.9,2.4-11.8c0.5-1.4,1-2.5,1.5-3.1c0.6-0.7,1.2-1,1.9-0.7c0.4,0.1,0.7,0.4,1,0.7
							c0.2,0.2,0.3,0.4,0.5,0.6c0.2,0.2,0.3,0.4,0.4,0.6c0.6,0.9,1.1,2.1,1.5,3.6c0.9,2.9,1.6,6.5,2.4,10.1c0.7,3.6,1.5,7,2.4,9.6
							c0.9,2.6,2,4.4,3.5,4.4c0.4,0,0.7-0.1,1-0.3c0.3-0.2,0.6-0.4,0.9-0.8c0.6-0.7,1.1-1.7,1.5-3c0.9-2.6,1.6-6.2,2.4-10
							c0.7-3.7,1.5-7.7,2.4-10.9c0.9-3.2,2-5.7,3.5-6.5c1.5-1,2.5,0.6,3.5,3.9c0.9,3.3,1.6,8.1,2.4,13.5c0.7,5.3,1.5,11.1,2.4,16.1
							c0.5,2.5,1,4.6,1.5,6.6c0.6,1.9,1.2,3.4,1.9,4.2c0.7,0.8,1.4,0.6,1.9-0.4c0.6-1,1.1-2.7,1.5-5.2c0.9-5,1.6-12.7,2.4-21.2
							c0.7-8.5,1.5-17.6,2.4-25.6c0.9-7.9,2-14.5,3.5-16.8c1.5-2.5,2.5,1.3,3.5,9.3c0.5,4,0.9,9,1.2,14.6c0.4,5.6,0.8,11.9,1.1,18.4
							c0.7,13,1.5,27.1,2.4,38.8c0.9,11.6,2,21.3,3.5,24.1c0.7,1.4,1.4,0.6,1.9-2c0.6-2.6,1.1-7.1,1.5-13
							c0.9-11.8,1.6-29.3,2.4-47.9c0.7-18.6,1.5-38.3,2.4-54.4c0.5-8,1-15.2,1.5-20.7s1.2-9.5,1.9-10.9c0.7-1.5,1.4-0.1,1.9,3.8
							c0.6,3.9,1.1,10.1,1.5,18.2c0.9,16.2,1.6,39.5,2.4,64c0.7,24.5,1.5,50.1,2.4,70.7c0.5,10.3,1,19.3,1.5,26.2
							c0.6,6.9,1.2,11.6,1.9,13.1c0.4,0.7,0.7,0.7,1-0.2c0.2-0.5,0.3-1.1,0.5-2c0.1-0.4,0.2-0.9,0.2-1.5c0.1-0.5,0.1-1.1,0.2-1.7
							c0.3-2.4,0.5-5.6,0.8-9.5s0.5-8.5,0.7-13.5c0.5-10.1,0.9-22.7,1.2-36.5c0.3-14.3,0.7-29.7,1.1-45c0.7-31.6,1.5-65.2,2.4-93.4
							c0.3-7.3,0.5-14,0.7-20c0.2-6.2,0.5-12,0.8-17.1c0.3-5.1,0.6-9.7,0.9-13.4c0.2-1.9,0.3-3.5,0.5-4.9s0.3-2.7,0.5-3.6
							c0.4-1.9,0.7-2.5,1-1.9c0.3,0.6,0.6,2.6,0.9,5.6c0.6,6,1.1,16.6,1.5,30.9c0.5,14.3,0.9,32.1,1.2,52.2
							c0.3,20.9,0.7,43.2,1.1,65.5c0.7,46.2,1.5,95.7,2.4,136.6c0.5,20.5,1,38.7,1.5,53c0.6,14.2,1.2,24.7,1.9,28.4
							c0.4,1.9,0.7,2,1,0.3c0.2-0.8,0.3-2.1,0.5-3.7c0.2-1.7,0.3-3.8,0.4-6.3c0.3-5,0.5-11.5,0.8-19.3c0.2-7.9,0.5-17.1,0.7-27.5
							c0.9-41.3,1.6-100.4,2.4-161.5c0.4-31,0.8-62.1,1.1-91.1c0.2-14.9,0.4-29.3,0.6-43c0.2-13.9,0.5-27,0.7-39.1
							c0.3-12.4,0.5-23.7,0.7-33.8c0.2-10.1,0.5-19.1,0.8-26.7c0.6-15.2,1.2-24.4,1.9-25.5c1.5-2.1,2.5,30.1,3.5,79.1
							c0.9,49,1.6,114.8,2.4,180.1c0.7,65.3,1.5,130.3,2.4,178.6c0.5,24.2,1,44.2,1.5,58c0.6,13.8,1.2,21.5,1.9,20.9
							c1.5-1.2,2.5-34.2,3.5-82.5c0.9-48.2,1.6-112,2.4-175.1c0.7-63.1,1.5-125.7,2.4-171.9c0.5-23.1,1-42.2,1.5-55.2
							c0.6-13,1.2-19.9,1.9-19c0.7,0.9,1.4,9.3,1.9,23.3c0.6,14,1.1,33.4,1.5,56.6c0.9,46.2,1.6,106.7,2.4,166.3
							c0.7,59.6,1.5,118.5,2.4,161.7c0.9,43.2,2,70.4,3.5,68.1c0.4-0.6,0.7-2.9,1-6.8c0.3-3.8,0.6-9.3,0.9-15.9
							c0.6-13.3,1.1-31.6,1.5-53.2c0.9-43.1,1.6-99,2.4-154c0.7-55,1.5-108.9,2.4-148c0.9-39.2,2-63.6,3.5-60.5
							c0.7,1.5,1.4,9.3,1.9,21.5c0.6,12.3,1.1,29,1.5,48.5c0.9,39.1,1.6,89.4,2.4,138.5c0.7,49,1.5,97,2.4,131.3
							c0.5,17.2,1,31,1.5,40s1.2,13.3,1.9,11.6s1.4-8.9,1.9-19.9s1.1-25.7,1.5-42.9c0.9-34.2,1.6-77.9,2.4-120.1
							c0.7-42.3,1.5-83.1,2.4-112.1c0.4-14.5,0.9-26.1,1.5-33.5c0.6-7.4,1.2-10.7,1.9-8.9c0.7,1.8,1.4,8.2,1.9,17.7
							c0.6,9.5,1.1,22.1,1.5,36.6c0.9,28.9,1.6,65.3,2.4,100.2c0.7,34.9,1.4,68.4,2.4,91.8c0.9,23.5,2,36.7,3.4,32.9
							c0.7-1.8,1.4-7.3,1.9-15.2c0.6-7.9,1.1-18.2,1.5-29.8c0.9-23.3,1.6-52.3,2.4-79.8s1.4-53.6,2.4-71.7c0.4-9,0.9-16,1.5-20.2
							c0.6-4.2,1.2-5.7,1.9-4c0.7,1.8,1.4,6.3,1.9,12.5c0.6,6.2,1.1,14.2,1.5,23.2c0.9,17.9,1.6,39.6,2.4,60.2
							c0.7,20.6,1.4,39.8,2.4,52.8c0.4,6.5,0.9,11.5,1.5,14.4c0.6,2.9,1.2,3.7,1.9,2.1c1.4-3.1,2.5-13.6,3.4-26.5
							c0.4-6.5,0.9-13.6,1.2-20.9c0.3-7,0.7-14.5,1.1-21.9c0.7-14.4,1.4-27.8,2.4-36.6c0.9-8.8,2-13.1,3.4-10.5
							c0.7,1.2,1.4,3.8,1.9,7.1c0.6,3.2,1.1,7.2,1.5,11.5c0.9,8.7,1.6,19,2.4,28.5c0.7,9.4,1.4,18.1,2.4,23.7
							c0.4,2.8,0.9,4.9,1.5,5.9c0.6,1.1,1.2,1.1,1.9,0.2c1.4-1.7,2.5-6.5,3.4-12.1c0.4-2.8,0.9-5.8,1.2-8.8c0.3-2.9,0.7-5.9,1.1-9
							c0.7-5.8,1.4-11.1,2.4-14.5c0.4-1.7,0.9-2.9,1.5-3.5c0.6-0.6,1.2-0.8,1.9-0.2c1.4,1.1,2.5,4.1,3.4,7.4
							c0.9,3.3,1.6,7.1,2.4,10.7c1.4,7.3,2.9,12.8,5.8,11.8c2.9-1.1,4.3-6.6,5.8-11.8c1.4-5.2,2.9-9.9,5.8-9.3
							c2.9,0.6,4.3,5.2,5.8,9.3c1.4,4.1,2.9,7.7,5.8,7c2.9-0.6,4.3-4.1,5.8-7c1.4-3,2.9-5.4,5.8-4.8c2.9,0.5,4.3,2.8,5.8,4.8
							c1.4,2.1,2.9,3.8,5.8,3.4s4.3-2.1,5.8-3.4c1.4-1.4,2.9-2.4,5.8-2.1c2.9,0.4,4.3,1.4,5.8,2.1c1.4,0.7,2.9,1.3,5.8,1.1
							c5.8-0.3,5.8-2.1,11.6-1.8c2.9,0.1,4.3,0.5,5.8,0.7c1.4,0.2,2.9,0.3,5.8,0.2c5.8,0,5.8-0.3,11.6-0.3c5.8,0,5.8,0.2,11.6,0.2
							c0.1,0,2.9,0,5.8,0c0.9,0,1.7,0,2.4,0c0.9,0,2,0,3.4-0.1c5.8-0.3,5.8,0.3,11.6,0.5c0.7,0,1.4,0,1.9,0c0.6,0,1.1,0,1.5,0
							c0.9-0.1,1.6-0.2,2.4-0.5c1.4-0.4,2.9-1.2,5.8-1.5c2.9-0.3,4.3,0.4,5.8,1.5c1.4,1.1,2.9,2.6,5.8,3.2c2.9,0.5,4.4-1.1,5.8-3.2
							c1.4-2,2.9-4.6,5.8-5.1s4.3,2,5.8,5.1c1.4,3,2.9,6.5,5.8,7.1s4.3-3,5.8-7.1c1.4-4,2.9-8.5,5.8-9c2.9-0.5,4.4,4,5.8,9
							c1.4,5,2.9,10.5,5.8,10.7c2.9,0.3,4.4-5.1,5.8-10.7c0.7-2.8,1.4-5.7,2.4-8c0.4-1.1,0.9-2.1,1.5-2.8c0.6-0.7,1.2-1.1,1.9-1.1
							c5.8-0.3,5.8,23.8,11.6,24.1c1.4,0,2.5-1.4,3.4-3.8c0.9-2.4,1.6-5.4,2.4-8.5s1.4-6,2.4-8.1c0.9-2.1,2-3.1,3.4-2.7
							c1.4,0.4,2.5,2.3,3.4,4.3c0.9,2.1,1.6,4.4,2.4,6.5c0.7,2.1,1.4,3.9,2.4,4.9c0.9,1,2,1.2,3.4,0.4c1.4-0.8,2.5-2,3.4-2.9
							c0.9-0.9,1.6-1.8,2.4-2.4c0.7-0.6,1.4-1,2.4-1.1c0.9-0.1,2,0.1,3.4,0.5c2.9,0.4,4.4,0.6,5.8,0.6c1.4,0,2.9,0.1,5.8,0.2
							c5.8,0.2,5.8-0.5,11.6-0.7c2.9-0.1,4.4,0.2,5.8,0.5c1.4,0.4,2.9,1,5.8,1.3c5.8,0.6,5.8-2.8,11.6-3.8c2.9-0.5,4.4,0.8,5.8,2.5
							c1.4,1.7,2.9,3.9,5.8,4.4"/>
					</g>
				</g>
			</g>
		</g>
		<path class="st21" d="M1519.8,164.4L1519.8,164.4c0-15,12.2-27.2,27.2-27.2h276.8c15,0,27.2,12.2,27.2,27.2V457l0,0
			c0,15-12.2,27.2-27.2,27.2H1547c-15,0-27.2-12.2-27.2-27.2V164.4L1519.8,164.4 M1826.2,121.1h-281.5c-21.5,0-39,17.4-39,39v298.7
			c0,21.5,17.4,39,39,39h281.5c21.5,0,39-17.5,39-39V160.1C1865.2,138.6,1847.7,121.2,1826.2,121.1"/>
		<path class="st21" d="M1823.8,137.2H1547c-15,0-27.2,12.2-27.2,27.2l0,0V457c0,15,12.2,27.2,27.2,27.2h276.8
			c15,0,27.2-12.2,27.2-27.2l0,0V164.4C1851.1,149.4,1838.9,137.2,1823.8,137.2"/>
		<g class="st3">
			<path class="st10" d="M1621.4,284.8h7v36.5h-5.4l-15.3-22.3v22.3h-7v-36.5h5.4l15.3,22.2V284.8z"/>
			<path class="st10" d="M1656.5,318c-2.6,2.7-5.8,4-9.6,4c-3.8,0-7-1.3-9.6-4c-2.6-2.7-3.9-5.9-3.9-9.8c0-3.9,1.3-7.1,3.9-9.8
				c2.6-2.7,5.8-4,9.6-4c3.8,0,7,1.3,9.6,4c2.6,2.7,3.9,5.9,3.9,9.8C1660.5,312.1,1659.2,315.4,1656.5,318z M1642,313.4
				c1.3,1.4,3,2,4.9,2c2,0,3.6-0.7,5-2c1.3-1.4,2-3.1,2-5.2c0-2.1-0.7-3.8-2-5.2c-1.3-1.4-3-2-5-2c-2,0-3.6,0.7-4.9,2
				c-1.3,1.4-2,3.1-2,5.2C1640,310.3,1640.7,312.1,1642,313.4z"/>
			<path class="st10" d="M1671.7,299.7c0.6-1.7,1.6-2.9,3-3.8c1.4-0.8,3-1.3,4.7-1.3v7.5c-2-0.2-3.8,0.2-5.4,1.3
				c-1.6,1.1-2.4,2.9-2.4,5.4v12.5h-6.6v-26.1h6.6V299.7z"/>
			<path class="st10" d="M1711.5,294.5c2.9,0,5.3,1,7,2.9c1.8,1.9,2.6,4.6,2.6,7.8v16.1h-6.6v-15.6c0-1.6-0.4-2.8-1.1-3.6
				c-0.7-0.9-1.8-1.3-3.2-1.3c-1.5,0-2.7,0.5-3.5,1.5c-0.8,1-1.3,2.5-1.3,4.4v14.6h-6.6v-15.6c0-1.6-0.4-2.8-1.1-3.6
				c-0.7-0.9-1.8-1.3-3.2-1.3c-1.5,0-2.6,0.5-3.5,1.5c-0.9,1-1.3,2.5-1.3,4.4v14.6h-6.6v-26.1h6.6v2.8c1.5-2.3,3.9-3.5,7.1-3.5
				c3.1,0,5.4,1.3,6.9,3.8C1705.6,295.7,1708.2,294.5,1711.5,294.5z"/>
			<path class="st10" d="M1746.2,295.2h6.6v26.1h-6.6v-3.1c-2,2.5-4.8,3.8-8.3,3.8c-3.4,0-6.3-1.3-8.8-4c-2.4-2.7-3.7-5.9-3.7-9.8
				c0-3.9,1.2-7.1,3.7-9.8c2.4-2.7,5.4-4,8.8-4c3.6,0,6.4,1.3,8.3,3.8V295.2z M1734.1,313.5c1.3,1.4,3,2.1,5.1,2.1s3.7-0.7,5.1-2.1
				c1.3-1.4,2-3.1,2-5.3c0-2.2-0.7-3.9-2-5.3c-1.3-1.4-3-2.1-5.1-2.1s-3.7,0.7-5.1,2.1c-1.3,1.4-2,3.1-2,5.3
				C1732.1,310.4,1732.7,312.2,1734.1,313.5z"/>
			<path class="st10" d="M1758.8,321.3v-38h6.6v38H1758.8z"/>
		</g>
	</g>
</g>
</svg>
