<?xml version="1.0" encoding="utf-8"?>
<!-- Generator: Adobe Illustrator 26.3.1, SVG Export Plug-In . SVG Version: 6.00 Build 0)  -->
<svg version="1.1" id="Layer_2_00000168082583142201047190000013213606827167002036_"
	 xmlns="http://www.w3.org/2000/svg" xmlns:xlink="http://www.w3.org/1999/xlink" x="0px" y="0px" viewBox="0 0 1919.9 1079.4"
	 style="enable-background:new 0 0 1919.9 1079.4;" xml:space="preserve">
<style type="text/css">
	.st0{fill:#323258;}
	.st1{opacity:0.3;fill:#19192C;enable-background:new    ;}
	.st2{fill:#FFFFFF;}
	.st3{fill:#19192C;}
	.st4{enable-background:new    ;}
	.st5{fill:#6DB6AF;}
	.st6{opacity:0.8;fill:#2D2D4A;enable-background:new    ;}
	.st7{opacity:0.6;}
	.st8{clip-path:url(#SVGID_00000140008576240596924050000010689699868968804487_);}
	.st9{fill:none;stroke:#6DB6AF;stroke-width:0.75;stroke-miterlimit:10;}
	.st10{fill:none;stroke:#FFFFFF;stroke-width:6;stroke-miterlimit:10;}
	.st11{opacity:0.8;fill:none;stroke:#6DB6AF;stroke-width:2;stroke-miterlimit:10;enable-background:new    ;}
	.st12{fill:none;stroke:#FFFFFF;stroke-width:2;stroke-miterlimit:10;}
	.st13{fill:none;stroke:#FF884D;stroke-width:2;stroke-miterlimit:10;stroke-dasharray:0,12;}
	.st14{fill:none;stroke:#D30741;stroke-width:2;stroke-miterlimit:10;}
	.st15{fill:none;stroke:#D30741;stroke-width:2;stroke-miterlimit:10;stroke-dasharray:0,0,11.97,11.97;}
	.st16{opacity:0.8;}
	.st17{fill:none;stroke:#6DB6AF;stroke-width:4;stroke-miterlimit:10;}
</style>
<g id="Layer_1-2">
	<g>
		<g>
			<rect class="st0" width="1919.9" height="1079.4"/>
			<rect class="st0" width="1919.9" height="1079.4"/>
			<rect class="st1" width="610.8" height="1079.4"/>
			<circle class="st2" cx="1885" cy="1041.2" r="8.6"/>
			<circle class="st2" cx="1885" cy="29.9" r="8.6"/>
			<circle class="st2" cx="34.5" cy="1041.2" r="8.6"/>
			<circle class="st2" cx="34.5" cy="35.5" r="8.6"/>
		</g>
		<path class="st3" d="M704.6,120.1h1093.3c21,0,37.9,17,37.9,37.9v744c0,21-17,37.9-37.9,37.9H704.6c-21,0-37.9-17-37.9-37.9v-744
			C666.7,137.1,683.6,120.1,704.6,120.1z"/>
		<g class="st4">
			<path class="st2" d="M121.3,119.1h7.1v36.3h-7.1v-15h-13.5v15h-7.1v-36.3h7.1v14.4h13.5V119.1z"/>
		</g>
		<g class="st4">
			<path class="st2" d="M170.9,150.6c-3.7,3.6-8.1,5.5-13.4,5.5c-5.3,0-9.7-1.8-13.3-5.5c-3.6-3.6-5.5-8.1-5.5-13.4
				c0-5.3,1.8-9.7,5.5-13.4c3.6-3.6,8.1-5.5,13.3-5.5c5.2,0,9.7,1.8,13.4,5.5c3.7,3.6,5.5,8.1,5.5,13.4
				C176.4,142.5,174.5,147,170.9,150.6z M149.2,145.7c2.2,2.2,5,3.3,8.3,3.3s6.1-1.1,8.3-3.3c2.2-2.2,3.4-5.1,3.4-8.5
				c0-3.5-1.1-6.3-3.4-8.5c-2.2-2.2-5-3.4-8.3-3.4s-6.1,1.1-8.3,3.4c-2.2,2.2-3.4,5.1-3.4,8.5C145.8,140.7,146.9,143.5,149.2,145.7z
				"/>
		</g>
		<g class="st4">
			<path class="st2" d="M192,155.4l-9.6-36.3h7.5l7,26.9l7.6-26.9h6.2l7.6,26.8l6.9-26.8h6.9l-9.5,36.3h-8.1l-6.9-24.1l-6.8,24.1
				H192z"/>
		</g>
		<g class="st4">
			<path class="st2" d="M284,119.1v6.8h-9.8v29.4h-7.1v-29.4h-9.7v-6.8H284z"/>
		</g>
		<g class="st4">
			<path class="st2" d="M321.6,150.6c-3.7,3.6-8.1,5.5-13.4,5.5s-9.7-1.8-13.3-5.5c-3.6-3.6-5.5-8.1-5.5-13.4
				c0-5.3,1.8-9.7,5.5-13.4c3.6-3.6,8.1-5.5,13.3-5.5s9.7,1.8,13.4,5.5c3.7,3.6,5.5,8.1,5.5,13.4C327.1,142.5,325.3,147,321.6,150.6
				z M299.9,145.7c2.2,2.2,5,3.3,8.3,3.3c3.3,0,6.1-1.1,8.3-3.3c2.2-2.2,3.4-5.1,3.4-8.5c0-3.5-1.1-6.3-3.4-8.5
				c-2.2-2.2-5-3.4-8.3-3.4c-3.3,0-6.1,1.1-8.3,3.4c-2.2,2.2-3.4,5.1-3.4,8.5C296.6,140.7,297.7,143.5,299.9,145.7z"/>
			<path class="st2" d="M369,119.1c3.5,0,6.4,1.2,8.8,3.5c2.4,2.3,3.6,5.2,3.6,8.7c0,3.4-1.2,6.3-3.6,8.7c-2.4,2.3-5.3,3.5-8.8,3.5
				h-6.4v11.9h-7.1v-36.3H369z M369,136.8c1.5,0,2.8-0.5,3.8-1.6c1-1.1,1.5-2.4,1.5-3.9c0-1.6-0.5-2.9-1.5-3.9c-1-1-2.3-1.6-3.8-1.6
				h-6.4v11H369z"/>
		</g>
		<g class="st4">
			<path class="st2" d="M398.4,148.5h13.8v6.8h-21v-36.3h7.1V148.5z"/>
		</g>
		<g class="st4">
			<path class="st2" d="M446.3,155.4l-2.3-6.5h-14.9l-2.2,6.5h-7.7l12.7-36.3h8.9l12.8,36.3H446.3z M431.4,142.1h10.2l-5.2-14.8
				L431.4,142.1z"/>
		</g>
		<g class="st4">
			<path class="st2" d="M486.3,119.1l-12.4,22.1v14.1h-7.1v-14.1l-12.4-22.1h8.1l7.9,15.1l7.9-15.1H486.3z"/>
		</g>
		<path id="Rectangle_131" class="st1" d="M115.4,751.3l91.1,3.3c13.9,0.2,24.9,11.7,24.7,25.5l-0.7,41.8
			c-0.2,13.8-11.7,24.9-25.5,24.7l-91.1-3.3C100,843,89,831.6,89.2,817.7l0.7-41.8C90.1,762.1,101.6,751.1,115.4,751.3z"/>
		<g>
			<path class="st2" d="M115.8,436.3v4h-9.1v27.5h-4.1v-27.5h-9.1v-4C93.6,436.3,115.9,436.3,115.8,436.3z"/>
			<path class="st2" d="M130.5,444.7c2.6,0,4.7,0.8,6.2,2.5s2.3,3.9,2.3,6.8v13.8h-3.8v-13.6c0-1.8-0.5-3.2-1.5-4.2s-2.3-1.5-4-1.5
				c-1.9,0-3.5,0.6-4.6,1.8c-1.2,1.2-1.8,3.1-1.8,5.6v11.9h-3.8v-31.4h3.8v12.2C124.9,446,127.3,444.7,130.5,444.7L130.5,444.7z"/>
			<path class="st2" d="M147.1,458.3c0.4,2,1.3,3.6,2.7,4.7c1.4,1.1,3.2,1.7,5.3,1.7c2.9,0,5-1.1,6.4-3.3l3.3,1.9
				c-2.1,3.4-5.4,5.1-9.7,5.1c-3.5,0-6.4-1.1-8.5-3.3c-2.2-2.2-3.3-5-3.3-8.5s1.1-6.2,3.2-8.4c2.1-2.2,4.9-3.4,8.4-3.4
				c3.2,0,5.9,1.2,7.9,3.5c2.1,2.3,3.1,5.1,3.1,8.4c0,0.6,0,1.1-0.1,1.8L147.1,458.3L147.1,458.3z M154.8,448.4
				c-2.1,0-3.8,0.6-5.1,1.8c-1.4,1.2-2.2,2.8-2.5,4.7h14.8c-0.3-2.1-1.1-3.7-2.5-4.9C158.1,449,156.5,448.4,154.8,448.4L154.8,448.4
				z"/>
			<path class="st2" d="M193.2,449.1h-5.9v12.2c0,1.1,0.2,1.9,0.6,2.4c0.4,0.5,1.1,0.7,2,0.7s2,0,3.3-0.1v3.5
				c-3.4,0.5-5.8,0.2-7.4-0.8s-2.3-2.9-2.3-5.7v-12.2h-4.4v-3.8h4.4v-5.1l3.8-1.2v6.3h5.9L193.2,449.1L193.2,449.1z"/>
			<path class="st2" d="M215.3,464.9c-2.3,2.3-5,3.4-8.3,3.4s-6-1.1-8.2-3.4c-2.2-2.3-3.4-5.1-3.4-8.4s1.1-6.1,3.4-8.4
				c2.2-2.3,5-3.4,8.2-3.4s6,1.1,8.3,3.4c2.3,2.3,3.4,5.1,3.4,8.4S217.6,462.6,215.3,464.9z M207,464.5c2.2,0,4.1-0.8,5.6-2.3
				s2.2-3.4,2.2-5.7s-0.8-4.2-2.2-5.7c-1.5-1.5-3.4-2.3-5.6-2.3s-4,0.8-5.5,2.3s-2.2,3.4-2.2,5.7s0.8,4.2,2.2,5.7
				S204.9,464.5,207,464.5z"/>
			<path class="st2" d="M238.5,445.3h3.8v22.5h-3.8v-3.2c-1.6,2.5-3.9,3.8-7.1,3.8c-2.6,0-4.7-0.8-6.2-2.5s-2.3-3.9-2.3-6.8v-13.8
				h3.8v13.6c0,1.8,0.5,3.2,1.5,4.2s2.3,1.5,4,1.5c1.9,0,3.5-0.6,4.6-1.8c1.2-1.2,1.8-3.1,1.8-5.6L238.5,445.3L238.5,445.3z"/>
			<path class="st2" d="M258.5,468.4c-3.3,0-6.1-1.1-8.3-3.4s-3.3-5.1-3.3-8.4s1.1-6.2,3.3-8.4c2.2-2.3,5-3.4,8.3-3.4
				c2.2,0,4.1,0.5,5.9,1.6c1.7,1.1,3,2.5,3.9,4.3l-3.2,1.9c-0.6-1.2-1.4-2.2-2.6-2.9c-1.2-0.7-2.5-1.1-4-1.1c-2.2,0-4.1,0.8-5.5,2.3
				c-1.5,1.5-2.2,3.4-2.2,5.7s0.7,4.1,2.2,5.7s3.3,2.3,5.5,2.3c1.5,0,2.8-0.4,4-1.1c1.2-0.7,2.1-1.6,2.7-2.9l3.3,1.9
				c-0.9,1.8-2.3,3.2-4.1,4.2S260.7,468.3,258.5,468.4L258.5,468.4z"/>
			<path class="st2" d="M283.3,444.7c2.6,0,4.7,0.8,6.2,2.5s2.3,3.9,2.3,6.8v13.8H288v-13.6c0-1.8-0.5-3.2-1.5-4.2s-2.3-1.5-4-1.5
				c-1.9,0-3.5,0.6-4.6,1.8c-1.2,1.2-1.8,3.1-1.8,5.6v11.9h-3.8v-31.4h3.8v12.2C277.7,446,280.1,444.7,283.3,444.7L283.3,444.7z"/>
			<path class="st2" d="M300.5,451.3c0,0.9,0.4,1.5,1.3,2s1.9,1,3.1,1.3s2.4,0.7,3.6,1.1s2.2,1,3.1,2s1.3,2.3,1.3,3.8
				c0,2-0.8,3.7-2.3,4.9c-1.5,1.2-3.5,1.8-5.9,1.8c-2.1,0-4-0.5-5.5-1.4s-2.6-2.2-3.3-3.8l3.3-1.9c0.4,1.1,1,1.9,2,2.6
				s2.1,0.9,3.5,0.9c1.3,0,2.3-0.2,3.1-0.7s1.2-1.3,1.2-2.3c0-0.9-0.4-1.6-1.3-2.1s-1.9-1-3.1-1.3c-1.2-0.4-2.4-0.7-3.6-1.1
				s-2.2-1-3.1-2s-1.3-2.2-1.3-3.7c0-2,0.7-3.5,2.2-4.8c1.5-1.3,3.4-1.9,5.6-1.9c1.8,0,3.4,0.4,4.8,1.2s2.5,2,3.2,3.4l-3.2,1.8
				c-0.8-1.9-2.4-2.9-4.7-2.9c-1.1,0-2,0.3-2.8,0.8C300.9,449.7,300.5,450.4,300.5,451.3L300.5,451.3z"/>
			<path class="st2" d="M327.2,468.4c-3.3,0-6.1-1.1-8.3-3.4s-3.3-5.1-3.3-8.4s1.1-6.2,3.3-8.4s5-3.4,8.3-3.4c2.2,0,4.1,0.5,5.9,1.6
				c1.7,1.1,3,2.5,3.9,4.3l-3.2,1.9c-0.6-1.2-1.4-2.2-2.6-2.9s-2.5-1.1-4-1.1c-2.2,0-4.1,0.8-5.5,2.3c-1.5,1.5-2.2,3.4-2.2,5.7
				s0.7,4.1,2.2,5.7c1.5,1.5,3.3,2.3,5.5,2.3c1.5,0,2.8-0.4,4-1.1c1.2-0.7,2.1-1.6,2.7-2.9l3.3,1.9c-0.9,1.8-2.3,3.2-4.1,4.2
				C331.3,467.8,329.3,468.3,327.2,468.4L327.2,468.4z"/>
			<path class="st2" d="M344.8,449.1c1.3-2.8,3.6-4.2,6.9-4.2v4.1c-1.9-0.1-3.5,0.4-4.9,1.5c-1.4,1.1-2,2.9-2,5.3v11.9h-3.8v-22.5
				h3.8L344.8,449.1L344.8,449.1z"/>
			<path class="st2" d="M356.9,458.3c0.4,2,1.3,3.6,2.7,4.7c1.4,1.1,3.2,1.7,5.3,1.7c2.9,0,5-1.1,6.4-3.3l3.3,1.9
				c-2.1,3.4-5.4,5.1-9.7,5.1c-3.5,0-6.4-1.1-8.5-3.3s-3.3-5-3.3-8.5s1.1-6.2,3.2-8.4c2.1-2.2,4.9-3.4,8.4-3.4
				c3.2,0,5.9,1.2,7.9,3.5s3.1,5.1,3.1,8.4c0,0.6,0,1.1-0.1,1.8L356.9,458.3L356.9,458.3z M364.6,448.4c-2.1,0-3.8,0.6-5.1,1.8
				s-2.2,2.8-2.5,4.7h14.8c-0.3-2.1-1.1-3.7-2.5-4.9S366.3,448.4,364.6,448.4L364.6,448.4z"/>
			<path class="st2" d="M382.6,458.3c0.4,2,1.3,3.6,2.7,4.7c1.4,1.1,3.2,1.7,5.3,1.7c2.9,0,5-1.1,6.4-3.3l3.3,1.9
				c-2.1,3.4-5.4,5.1-9.7,5.1c-3.5,0-6.4-1.1-8.5-3.3s-3.3-5-3.3-8.5s1.1-6.2,3.2-8.4c2.1-2.2,4.9-3.4,8.4-3.4
				c3.2,0,5.9,1.2,7.9,3.5s3.1,5.1,3.1,8.4c0,0.6,0,1.1-0.1,1.8L382.6,458.3L382.6,458.3z M390.3,448.4c-2.1,0-3.8,0.6-5.1,1.8
				s-2.2,2.8-2.5,4.7h14.8c-0.3-2.1-1.1-3.7-2.5-4.9C393.6,449,392,448.4,390.3,448.4L390.3,448.4z"/>
			<path class="st2" d="M416.7,444.7c2.6,0,4.7,0.8,6.2,2.5s2.3,3.9,2.3,6.8v13.8h-3.8v-13.6c0-1.8-0.5-3.2-1.5-4.2s-2.3-1.5-4-1.5
				c-1.9,0-3.5,0.6-4.6,1.8c-1.2,1.2-1.8,3.1-1.8,5.6v11.9h-3.8v-22.5h3.8v3.2C411.1,446,413.5,444.7,416.7,444.7L416.7,444.7z"/>
			<path class="st2" d="M121.7,499.2h3.6l-6.4,22.5h-3.9l-5.3-16.8l-5.2,16.8h-4.1l-6.5-22.5h4l4.8,17.1l5.2-17.1h3.8l5.2,17.1
				L121.7,499.2L121.7,499.2z"/>
			<path class="st2" d="M131.6,495.1c-0.7,0-1.4-0.2-1.9-0.8s-0.8-1.1-0.8-1.8s0.2-1.3,0.8-1.9s1.1-0.8,1.9-0.8s1.3,0.3,1.8,0.8
				c0.5,0.5,0.8,1.1,0.8,1.9s-0.2,1.3-0.8,1.8S132.3,495.1,131.6,495.1z M129.7,521.6v-22.5h3.8v22.5H129.7z"/>
			<path class="st2" d="M139.4,521.6v-32.8h3.8v32.8H139.4z"/>
			<path class="st2" d="M149.1,521.6v-32.8h3.8v32.8H149.1z"/>
			<path class="st2" d="M173.7,503c1.3-2.8,3.6-4.2,6.9-4.2v4.1c-1.9-0.1-3.5,0.4-4.9,1.5c-1.4,1.1-2,2.9-2,5.3v11.9h-3.8v-22.5h3.8
				V503z"/>
			<path class="st2" d="M185.8,512.2c0.4,2,1.3,3.6,2.7,4.7c1.4,1.1,3.2,1.7,5.3,1.7c2.9,0,5-1.1,6.4-3.3l3.3,1.9
				c-2.1,3.4-5.4,5.1-9.7,5.1c-3.5,0-6.4-1.1-8.5-3.3c-2.2-2.2-3.3-5-3.3-8.5s1.1-6.2,3.2-8.4c2.1-2.2,4.9-3.4,8.4-3.4
				c3.2,0,5.9,1.2,7.9,3.5c2.1,2.3,3.1,5.1,3.1,8.4c0,0.6,0,1.1-0.1,1.8L185.8,512.2L185.8,512.2z M193.5,502.3
				c-2.1,0-3.8,0.6-5.1,1.8c-1.4,1.2-2.2,2.8-2.5,4.7h14.8c-0.3-2.1-1.1-3.7-2.5-4.9S195.2,502.3,193.5,502.3L193.5,502.3z"/>
			<path class="st2" d="M219.2,522.2c-3.3,0-6.1-1.1-8.3-3.4s-3.3-5.1-3.3-8.4s1.1-6.2,3.3-8.4c2.2-2.3,5-3.4,8.3-3.4
				c2.2,0,4.1,0.5,5.9,1.6c1.7,1.1,3,2.5,3.9,4.3l-3.2,1.9c-0.6-1.2-1.4-2.2-2.6-2.9s-2.5-1.1-3.9-1.1c-2.2,0-4.1,0.8-5.5,2.3
				c-1.5,1.5-2.2,3.4-2.2,5.7s0.7,4.1,2.2,5.7c1.5,1.5,3.3,2.3,5.5,2.3c1.5,0,2.8-0.3,4-1.1c1.2-0.7,2.1-1.7,2.7-2.8l3.3,1.9
				c-0.9,1.8-2.3,3.2-4.1,4.2C223.3,521.7,221.4,522.2,219.2,522.2L219.2,522.2z"/>
			<path class="st2" d="M251.3,518.8c-2.3,2.3-5,3.4-8.3,3.4s-6-1.1-8.2-3.4c-2.2-2.3-3.4-5.1-3.4-8.4s1.1-6.1,3.4-8.4
				c2.2-2.3,5-3.4,8.2-3.4s6,1.1,8.3,3.4c2.3,2.3,3.4,5.1,3.4,8.4S253.6,516.5,251.3,518.8z M243,518.4c2.2,0,4.1-0.8,5.6-2.3
				c1.5-1.5,2.2-3.4,2.2-5.7s-0.8-4.2-2.2-5.7c-1.5-1.5-3.4-2.3-5.6-2.3s-4,0.8-5.5,2.3s-2.2,3.4-2.2,5.7s0.8,4.2,2.2,5.7
				C239,517.7,240.8,518.4,243,518.4z"/>
			<path class="st2" d="M263.1,503c1.3-2.8,3.6-4.2,6.9-4.2v4.1c-1.9-0.1-3.5,0.4-4.9,1.5c-1.4,1.1-2,2.9-2,5.3v11.9h-3.8v-22.5h3.8
				L263.1,503L263.1,503z"/>
			<path class="st2" d="M290.8,490.2h3.8v31.4h-3.8v-3.9c-1.9,3-4.7,4.4-8.4,4.4c-3.1,0-5.7-1.1-7.9-3.4s-3.3-5.1-3.3-8.4
				s1.1-6.1,3.3-8.4s4.8-3.4,7.9-3.4c3.6,0,6.4,1.5,8.4,4.4V490.2L290.8,490.2z M283,518.5c2.2,0,4.1-0.8,5.6-2.3s2.2-3.5,2.2-5.7
				s-0.8-4.2-2.2-5.7s-3.4-2.3-5.6-2.3s-4.1,0.8-5.6,2.3s-2.2,3.5-2.2,5.7s0.8,4.2,2.2,5.7S280.8,518.5,283,518.5z"/>
			<path class="st2" d="M323.5,503h-5.9v12.2c0,1.1,0.2,1.9,0.6,2.4c0.4,0.5,1.1,0.7,2,0.7c0.9,0,2,0,3.3-0.1v3.5
				c-3.4,0.5-5.8,0.2-7.4-0.8s-2.3-2.9-2.3-5.7V503h-4.4v-3.8h4.4v-5.1l3.8-1.2v6.3h5.9L323.5,503L323.5,503z"/>
			<path class="st2" d="M339.1,498.6c2.6,0,4.7,0.8,6.2,2.5s2.3,3.9,2.3,6.8v13.8h-3.8v-13.6c0-1.8-0.5-3.2-1.5-4.2s-2.3-1.5-4-1.5
				c-1.9,0-3.5,0.6-4.6,1.8c-1.2,1.2-1.8,3.1-1.8,5.6v11.9h-3.8v-31.4h3.8v12.2C333.5,499.9,335.9,498.6,339.1,498.6L339.1,498.6z"
				/>
			<path class="st2" d="M355.7,512.2c0.4,2,1.3,3.6,2.7,4.7s3.2,1.7,5.3,1.7c2.9,0,5-1.1,6.4-3.3l3.3,1.9c-2.1,3.4-5.4,5.1-9.7,5.1
				c-3.5,0-6.4-1.1-8.5-3.3c-2.2-2.2-3.3-5-3.3-8.5s1.1-6.2,3.2-8.4c2.1-2.2,4.9-3.4,8.4-3.4c3.2,0,5.9,1.2,7.9,3.5s3.1,5.1,3.1,8.4
				c0,0.6,0,1.1-0.1,1.8L355.7,512.2L355.7,512.2z M363.3,502.3c-2.1,0-3.8,0.6-5.1,1.8s-2.2,2.8-2.5,4.7h14.8
				c-0.3-2.1-1.1-3.7-2.5-4.9C366.6,502.8,365.1,502.3,363.3,502.3L363.3,502.3z"/>
			<path class="st5" d="M107.2,549c-3.1-0.2-4.7,1-4.7,3.8v0.2h4.7v5.6h-4.7v16.9h-5.7v-16.9h-3.2v-5.6h3.2v-0.2
				c0-3.2,0.9-5.6,2.6-7.2c1.7-1.7,4.3-2.4,7.8-2.2V549L107.2,549z"/>
			<path class="st5" d="M115.5,556.9c0.5-1.4,1.4-2.5,2.6-3.2s2.6-1.1,4.1-1.1v6.5c-1.7-0.2-3.3,0.2-4.7,1.1s-2.1,2.5-2.1,4.6v10.7
				h-5.7v-22.5h5.7L115.5,556.9L115.5,556.9z"/>
			<path class="st5" d="M129.5,566.7c0.8,2.8,2.8,4.2,6.2,4.2c2.2,0,3.8-0.8,4.9-2.2l4.6,2.7c-2.2,3.2-5.4,4.8-9.6,4.8
				c-3.6,0-6.6-1.1-8.8-3.4c-2.2-2.2-3.3-5.1-3.3-8.5s1.1-6.2,3.3-8.5c2.2-2.3,5-3.4,8.4-3.4c3.2,0,5.9,1.1,8,3.4
				c2.1,2.3,3.2,5.1,3.2,8.4c0,0.8-0.1,1.5-0.2,2.4L129.5,566.7L129.5,566.7z M129.4,562.2h11.3c-0.3-1.5-1-2.7-2-3.4
				c-1-0.8-2.2-1.1-3.5-1.1c-1.5,0-2.8,0.4-3.8,1.2S129.8,560.8,129.4,562.2L129.4,562.2z"/>
			<path class="st5" d="M166.9,553.1h5.7v31.4h-5.7v-11.6c-1.7,2.2-4.1,3.3-7.1,3.3s-5.5-1.1-7.6-3.4s-3.2-5.1-3.2-8.4
				s1.1-6.1,3.2-8.4c2.1-2.3,4.6-3.4,7.6-3.4s5.5,1.1,7.1,3.3V553.1L166.9,553.1z M156.4,568.9c1.2,1.2,2.6,1.8,4.4,1.8
				s3.2-0.6,4.4-1.8s1.7-2.7,1.7-4.6s-0.6-3.4-1.7-4.6c-1.1-1.2-2.6-1.8-4.4-1.8s-3.2,0.6-4.4,1.8s-1.7,2.7-1.7,4.6
				S155.3,567.7,156.4,568.9z"/>
			<path class="st5" d="M192.4,553.1h5.7v22.5h-5.7V573c-1.4,2.1-3.6,3.1-6.6,3.1c-2.4,0-4.4-0.8-6-2.5c-1.6-1.7-2.4-3.9-2.4-6.8
				v-13.8h5.7v13.1c0,1.5,0.4,2.6,1.2,3.4c0.8,0.8,1.9,1.2,3.2,1.2c1.5,0,2.6-0.5,3.5-1.4s1.3-2.3,1.3-4.2L192.4,553.1L192.4,553.1z
				"/>
			<path class="st5" d="M208.1,566.7c0.8,2.8,2.8,4.2,6.2,4.2c2.2,0,3.8-0.8,4.9-2.2l4.6,2.7c-2.2,3.2-5.4,4.8-9.6,4.8
				c-3.6,0-6.6-1.1-8.8-3.4c-2.2-2.2-3.3-5.1-3.3-8.5s1.1-6.2,3.3-8.5c2.2-2.3,5-3.4,8.4-3.4c3.2,0,5.9,1.1,8,3.4
				c2.1,2.3,3.2,5.1,3.2,8.4c0,0.8-0.1,1.5-0.2,2.4L208.1,566.7L208.1,566.7z M208.1,562.2h11.3c-0.3-1.5-1-2.7-2-3.4
				c-1-0.8-2.2-1.1-3.5-1.1c-1.5,0-2.8,0.4-3.8,1.2S208.4,560.8,208.1,562.2L208.1,562.2z"/>
			<path class="st5" d="M241.3,552.4c2.4,0,4.4,0.8,6,2.5c1.6,1.7,2.4,3.9,2.4,6.8v13.8h-5.7v-13.1c0-1.5-0.4-2.6-1.2-3.4
				c-0.8-0.8-1.9-1.2-3.2-1.2c-1.5,0-2.6,0.5-3.5,1.4s-1.3,2.3-1.3,4.2v12.1H229v-22.5h5.7v2.5C236.1,553.5,238.2,552.4,241.3,552.4
				L241.3,552.4z"/>
			<path class="st5" d="M265,576.1c-3.3,0-6.1-1.1-8.3-3.4c-2.2-2.3-3.3-5.1-3.3-8.4s1.1-6.2,3.3-8.4s5-3.4,8.3-3.4
				c2.1,0,4.1,0.5,5.9,1.6c1.8,1,3.1,2.5,4,4.2l-4.9,2.9c-0.4-0.9-1.1-1.7-2-2.2c-0.9-0.5-1.9-0.8-3-0.8c-1.7,0-3.1,0.6-4.2,1.7
				c-1.1,1.2-1.7,2.6-1.7,4.4s0.6,3.2,1.7,4.4s2.5,1.7,4.2,1.7c1.1,0,2.2-0.3,3.1-0.8c0.9-0.5,1.6-1.2,2-2.2l5,2.9
				c-1,1.8-2.3,3.2-4.1,4.2S267.1,576.1,265,576.1L265,576.1z"/>
			<path class="st5" d="M292.5,553.1h6.1l-8,22.5c-1.1,3.2-2.7,5.5-4.6,7c-1.9,1.5-4.3,2.1-7.1,2v-5.4c1.5,0,2.7-0.3,3.6-1
				c0.9-0.7,1.6-1.8,2.1-3.3l-9-21.7h6.2l5.8,15.1L292.5,553.1L292.5,553.1z"/>
			<path class="st2" d="M331.3,572.7c-2.3,2.3-5,3.4-8.3,3.4s-6-1.1-8.2-3.4c-2.2-2.3-3.4-5.1-3.4-8.4s1.1-6.1,3.4-8.4
				c2.2-2.3,5-3.4,8.2-3.4s6,1.1,8.3,3.4c2.3,2.3,3.4,5.1,3.4,8.4S333.6,570.4,331.3,572.7z M323,572.3c2.2,0,4.1-0.8,5.6-2.3
				c1.5-1.5,2.2-3.4,2.2-5.7s-0.8-4.2-2.2-5.7c-1.5-1.5-3.4-2.3-5.6-2.3s-4,0.8-5.5,2.3c-1.5,1.5-2.2,3.4-2.2,5.7s0.8,4.2,2.2,5.7
				S320.9,572.3,323,572.3z"/>
			<path class="st2" d="M349.8,547.3c-3.9-0.3-5.8,1.4-5.8,5.1v0.7h5.8v3.8h-5.8v18.7h-3.8v-18.7h-3.5v-3.8h3.5v-0.7
				c0-3,0.8-5.3,2.5-6.9c1.7-1.6,4.1-2.2,7.2-2L349.8,547.3L349.8,547.3z"/>
			<path class="st2" d="M375.7,556.8h-5.9V569c0,1.1,0.2,1.9,0.6,2.4c0.4,0.5,1.1,0.7,2,0.7c0.9,0,2,0,3.3-0.1v3.5
				c-3.4,0.5-5.8,0.2-7.4-0.8s-2.3-2.9-2.3-5.7v-12.2h-4.4v-3.8h4.4v-5.1l3.8-1.2v6.3h5.9L375.7,556.8L375.7,556.8z"/>
			<path class="st2" d="M391.3,552.5c2.6,0,4.7,0.8,6.2,2.5s2.3,3.9,2.3,6.8v13.8H396V562c0-1.8-0.5-3.2-1.5-4.2s-2.3-1.5-4-1.5
				c-1.9,0-3.5,0.6-4.6,1.8c-1.2,1.2-1.8,3.1-1.8,5.6v11.9h-3.8v-31.4h3.8v12.2C385.7,553.8,388.1,552.5,391.3,552.5L391.3,552.5z"
				/>
			<path class="st2" d="M407.9,566.1c0.4,2,1.3,3.6,2.7,4.7s3.2,1.7,5.3,1.7c2.9,0,5-1.1,6.4-3.3l3.3,1.9c-2.1,3.4-5.4,5.1-9.7,5.1
				c-3.5,0-6.4-1.1-8.5-3.3c-2.2-2.2-3.3-5-3.3-8.5s1.1-6.2,3.2-8.4c2.1-2.2,4.9-3.4,8.4-3.4c3.2,0,5.9,1.2,7.9,3.5s3.1,5.1,3.1,8.4
				c0,0.6,0,1.2-0.1,1.8L407.9,566.1L407.9,566.1z M415.5,556.2c-2.1,0-3.8,0.6-5.1,1.8s-2.2,2.8-2.5,4.7h14.8
				c-0.3-2.1-1.1-3.7-2.5-4.8S417.3,556.2,415.5,556.2L415.5,556.2z"/>
			<path class="st2" d="M454.2,552.5c3.1,0,5.7,1.1,7.9,3.4c2.2,2.3,3.3,5.1,3.3,8.4s-1.1,6.1-3.3,8.4s-4.8,3.4-7.9,3.4
				c-3.6,0-6.4-1.5-8.4-4.4v3.9H442v-31.4h3.8v12.8C447.7,553.9,450.5,552.5,454.2,552.5L454.2,552.5z M453.7,572.3
				c2.2,0,4.1-0.8,5.6-2.3s2.2-3.5,2.2-5.7s-0.8-4.2-2.2-5.7s-3.4-2.3-5.6-2.3s-4.1,0.8-5.6,2.3s-2.2,3.5-2.2,5.7s0.8,4.2,2.2,5.7
				S451.4,572.3,453.7,572.3z"/>
			<path class="st2" d="M488.6,572.7c-2.3,2.3-5,3.4-8.3,3.4s-6-1.1-8.2-3.4c-2.2-2.3-3.4-5.1-3.4-8.4s1.1-6.1,3.4-8.4
				c2.2-2.3,5-3.4,8.2-3.4s6,1.1,8.3,3.4c2.3,2.3,3.4,5.1,3.4,8.4S490.8,570.4,488.6,572.7z M480.3,572.3c2.2,0,4.1-0.8,5.6-2.3
				c1.5-1.5,2.2-3.4,2.2-5.7s-0.8-4.2-2.2-5.7c-1.5-1.5-3.4-2.3-5.6-2.3s-4,0.8-5.5,2.3c-1.5,1.5-2.2,3.4-2.2,5.7s0.8,4.2,2.2,5.7
				C476.3,571.5,478.1,572.3,480.3,572.3z"/>
			<path class="st2" d="M496.5,575.5v-32.8h3.8v32.8H496.5z"/>
			<path class="st2" d="M518.2,556.8h-5.9V569c0,1.1,0.2,1.9,0.6,2.4c0.4,0.5,1.1,0.7,2,0.7c0.9,0,2,0,3.3-0.1v3.5
				c-3.4,0.5-5.8,0.2-7.4-0.8s-2.3-2.9-2.3-5.7v-12.2h-4.4v-3.8h4.4v-5.1l3.8-1.2v6.3h5.9L518.2,556.8L518.2,556.8z"/>
			<path class="st2" d="M107.9,606.4c3.1,0,5.7,1.1,7.9,3.4c2.2,2.3,3.3,5.1,3.3,8.4s-1.1,6.1-3.3,8.4s-4.8,3.4-7.9,3.4
				c-3.7,0-6.4-1.5-8.3-4.4v3.9h-3.8v-31.4h3.8v12.8C101.4,607.8,104.2,606.3,107.9,606.4L107.9,606.4z M107.4,626.2
				c2.2,0,4.1-0.8,5.6-2.3s2.2-3.5,2.2-5.7s-0.8-4.2-2.2-5.7s-3.4-2.3-5.6-2.3s-4.1,0.8-5.6,2.3s-2.2,3.5-2.2,5.7s0.8,4.2,2.2,5.7
				S105.1,626.2,107.4,626.2z"/>
			<path class="st2" d="M126.3,620c0.4,2,1.3,3.6,2.7,4.7s3.2,1.7,5.3,1.7c2.9,0,5-1.1,6.4-3.3l3.3,1.9c-2.1,3.4-5.4,5.1-9.7,5.1
				c-3.5,0-6.3-1.1-8.5-3.3c-2.2-2.2-3.3-5-3.3-8.5s1.1-6.2,3.2-8.4c2.2-2.2,4.9-3.4,8.4-3.4c3.2,0,5.9,1.2,7.9,3.5
				c2.1,2.3,3.1,5.1,3.1,8.4c0,0.6,0,1.2-0.1,1.8L126.3,620L126.3,620z M134,610c-2.1,0-3.8,0.6-5.1,1.8c-1.3,1.2-2.2,2.8-2.5,4.7
				h14.7c-0.3-2.1-1.1-3.7-2.5-4.8S135.7,610,134,610L134,610z"/>
			<path class="st2" d="M151.3,602.9c-0.7,0-1.4-0.2-1.9-0.8s-0.8-1.1-0.8-1.8s0.2-1.3,0.8-1.9c0.5-0.5,1.1-0.8,1.9-0.8
				s1.3,0.3,1.8,0.8c0.5,0.5,0.8,1.2,0.8,1.9s-0.2,1.3-0.8,1.8S152,602.9,151.3,602.9z M149.4,629.4v-22.5h3.8v22.5H149.4z"/>
			<path class="st2" d="M170.1,606.4c2.6,0,4.7,0.8,6.2,2.5s2.3,3.9,2.3,6.8v13.8h-3.8v-13.6c0-1.8-0.5-3.2-1.5-4.2s-2.3-1.5-4-1.5
				c-1.9,0-3.5,0.6-4.6,1.8s-1.8,3.1-1.8,5.6v11.9h-3.8V607h3.8v3.2C164.5,607.6,166.9,606.4,170.1,606.4L170.1,606.4z"/>
			<path class="st2" d="M202.3,606.9h3.8v21.5c0,3.3-1.1,5.9-3.3,7.7c-2.2,1.8-4.9,2.8-7.9,2.8c-2.5,0-4.6-0.5-6.4-1.4
				c-1.8-0.9-3.1-2.3-4.1-4.1l3.4-1.9c1.2,2.5,3.6,3.8,7.2,3.8c2.3,0,4.1-0.6,5.4-1.8c1.3-1.2,2-2.9,2-5v-3.2
				c-1.9,3-4.7,4.5-8.3,4.5c-3.1,0-5.8-1.1-8-3.4c-2.2-2.3-3.3-5-3.3-8.3s1.1-6,3.3-8.3c2.2-2.3,4.8-3.4,8-3.4
				c3.6,0,6.4,1.5,8.3,4.4L202.3,606.9L202.3,606.9z M188.9,623.7c1.5,1.5,3.4,2.3,5.6,2.3s4.1-0.8,5.6-2.3c1.5-1.5,2.2-3.4,2.2-5.7
				s-0.8-4.1-2.2-5.7c-1.5-1.5-3.4-2.3-5.6-2.3s-4.1,0.8-5.6,2.3c-1.5,1.5-2.2,3.4-2.2,5.7S187.4,622.2,188.9,623.7z"/>
			<path class="st2" d="M235,610.7h-5.9v12.2c0,1.1,0.2,1.9,0.6,2.4c0.4,0.5,1.1,0.7,2,0.7c0.9,0,2,0,3.3-0.1v3.5
				c-3.4,0.5-5.8,0.2-7.4-0.8s-2.3-2.9-2.3-5.7v-12.2h-4.4v-3.8h4.4v-5.1l3.8-1.2v6.3h5.9L235,610.7L235,610.7z"/>
			<path class="st2" d="M241.1,620c0.4,2,1.3,3.6,2.7,4.7c1.4,1.1,3.2,1.7,5.3,1.7c2.9,0,5-1.1,6.4-3.3l3.3,1.9
				c-2.1,3.4-5.4,5.1-9.7,5.1c-3.5,0-6.4-1.1-8.5-3.3c-2.2-2.2-3.3-5-3.3-8.5s1.1-6.2,3.2-8.4c2.1-2.2,4.9-3.4,8.4-3.4
				c3.2,0,5.9,1.2,7.9,3.5s3.1,5.1,3.1,8.4c0,0.6,0,1.2-0.1,1.8L241.1,620L241.1,620z M248.8,610c-2.1,0-3.8,0.6-5.1,1.8
				c-1.4,1.2-2.2,2.8-2.5,4.7h14.8c-0.3-2.1-1.1-3.7-2.5-4.8S250.5,610,248.8,610L248.8,610z"/>
			<path class="st2" d="M266.6,612.9c0,0.8,0.4,1.5,1.3,2c0.9,0.5,1.9,1,3.1,1.3s2.4,0.7,3.6,1.1c1.2,0.4,2.2,1,3.1,2
				s1.3,2.3,1.3,3.8c0,2-0.8,3.7-2.3,4.9c-1.5,1.2-3.5,1.8-5.9,1.8c-2.1,0-4-0.5-5.5-1.4s-2.6-2.2-3.3-3.8l3.3-1.9
				c0.4,1.1,1,1.9,2,2.6s2.1,0.9,3.5,0.9c1.3,0,2.3-0.2,3.1-0.7s1.2-1.3,1.2-2.3c0-0.9-0.4-1.6-1.3-2.1s-1.9-1-3.1-1.3
				c-1.2-0.4-2.4-0.7-3.6-1.1s-2.2-1-3.1-2c-0.9-1-1.3-2.2-1.3-3.7c0-2,0.7-3.5,2.2-4.8c1.5-1.3,3.4-1.9,5.6-1.9
				c1.8,0,3.4,0.4,4.8,1.2s2.5,2,3.2,3.4l-3.2,1.8c-0.8-1.9-2.4-2.9-4.7-2.9c-1.1,0-2,0.3-2.8,0.8C267,611.3,266.6,612,266.6,612.9
				L266.6,612.9z"/>
			<path class="st2" d="M294.6,610.7h-5.9v12.2c0,1.1,0.2,1.9,0.6,2.4c0.4,0.5,1.1,0.7,2,0.7c0.9,0,2,0,3.3-0.1v3.5
				c-3.4,0.5-5.8,0.2-7.4-0.8s-2.3-2.9-2.3-5.7v-12.2h-4.4v-3.8h4.4v-5.1l3.8-1.2v6.3h5.9L294.6,610.7L294.6,610.7z"/>
			<path class="st2" d="M300.8,620c0.4,2,1.3,3.6,2.7,4.7s3.2,1.7,5.3,1.7c2.9,0,5-1.1,6.4-3.3l3.3,1.9c-2.1,3.4-5.4,5.1-9.7,5.1
				c-3.5,0-6.4-1.1-8.5-3.3c-2.2-2.2-3.3-5-3.3-8.5s1.1-6.2,3.2-8.4c2.1-2.2,4.9-3.4,8.4-3.4c3.2,0,5.9,1.2,7.9,3.5s3.1,5.1,3.1,8.4
				c0,0.6,0,1.2-0.1,1.8L300.8,620L300.8,620z M308.4,610c-2.1,0-3.8,0.6-5.1,1.8s-2.2,2.8-2.5,4.7h14.8c-0.3-2.1-1.1-3.7-2.5-4.8
				S310.2,610,308.4,610L308.4,610z"/>
			<path class="st2" d="M342.1,598h3.8v31.4h-3.8v-3.9c-1.9,3-4.7,4.4-8.4,4.4c-3.1,0-5.7-1.1-7.9-3.4c-2.2-2.3-3.3-5.1-3.3-8.4
				s1.1-6.1,3.3-8.4s4.8-3.4,7.9-3.4c3.6,0,6.4,1.5,8.4,4.4V598L342.1,598z M334.2,626.2c2.2,0,4.1-0.8,5.6-2.3s2.2-3.5,2.2-5.7
				s-0.8-4.2-2.2-5.7s-3.4-2.3-5.6-2.3s-4.1,0.8-5.6,2.3s-2.2,3.5-2.2,5.7s0.8,4.2,2.2,5.7S332,626.2,334.2,626.2z"/>
			<path class="st2" d="M354.2,629.9c-0.8,0-1.5-0.3-2-0.8c-0.6-0.6-0.8-1.3-0.8-2.1s0.3-1.5,0.8-2.1s1.2-0.8,2-0.8s1.5,0.3,2,0.8
				c0.5,0.6,0.8,1.3,0.8,2.1s-0.3,1.5-0.8,2.1C355.7,629.6,355,629.9,354.2,629.9z"/>
		</g>
		<circle class="st2" cx="98.7" cy="369.6" r="6"/>
		<circle class="st5" cx="128.4" cy="369.6" r="6"/>
		<circle class="st2" cx="158.2" cy="369.6" r="6"/>
		<circle class="st2" cx="187.9" cy="369.6" r="6"/>
		<path class="st6" d="M701.3,120.8h1108c17.9,0,32.3,14.5,32.3,32.3v752.6c0,17.9-14.5,32.3-32.3,32.3h-1108
			c-17.9,0-32.3-14.5-32.3-32.3V153.2C668.9,135.3,683.4,120.8,701.3,120.8z"/>
		<g class="st7">
			<g>
				<defs>
					<path id="SVGID_1_" d="M700.3,122.7h1108c17.9,0,32.3,14.5,32.3,32.3v752.6c0,17.9-14.5,32.3-32.3,32.3h-1108
						c-17.9,0-32.3-14.5-32.3-32.3V155C668,137.2,682.5,122.7,700.3,122.7z"/>
				</defs>
				<clipPath id="SVGID_00000131336151417752830200000004900877521737850029_">
					<use xlink:href="#SVGID_1_"  style="overflow:visible;"/>
				</clipPath>
				<g style="clip-path:url(#SVGID_00000131336151417752830200000004900877521737850029_);">
					<g>
						<rect x="632.8" y="106.9" class="st9" width="1223.1" height="865.9"/>
						<line class="st9" x1="632.8" y1="955.8" x2="1855.8" y2="955.8"/>
						<line class="st9" x1="632.8" y1="938.8" x2="1855.8" y2="938.8"/>
						<line class="st9" x1="632.8" y1="921.8" x2="1855.8" y2="921.8"/>
						<line class="st9" x1="632.8" y1="904.8" x2="1855.8" y2="904.8"/>
						<line class="st9" x1="632.8" y1="887.8" x2="1855.8" y2="887.8"/>
						<line class="st9" x1="632.8" y1="870.9" x2="1855.8" y2="870.9"/>
						<line class="st9" x1="632.8" y1="853.9" x2="1855.8" y2="853.9"/>
						<line class="st9" x1="632.8" y1="836.9" x2="1855.8" y2="836.9"/>
						<line class="st9" x1="632.8" y1="819.9" x2="1855.8" y2="819.9"/>
						<line class="st9" x1="632.8" y1="803" x2="1855.8" y2="803"/>
						<line class="st9" x1="632.8" y1="786" x2="1855.8" y2="786"/>
						<line class="st9" x1="632.8" y1="769" x2="1855.8" y2="769"/>
						<line class="st9" x1="632.8" y1="752" x2="1855.8" y2="752"/>
						<line class="st9" x1="632.8" y1="735" x2="1855.8" y2="735"/>
						<line class="st9" x1="632.8" y1="718.1" x2="1855.8" y2="718.1"/>
						<line class="st9" x1="632.8" y1="701.1" x2="1855.8" y2="701.1"/>
						<line class="st9" x1="632.8" y1="684.1" x2="1855.8" y2="684.1"/>
						<line class="st9" x1="632.8" y1="667.1" x2="1855.8" y2="667.1"/>
						<line class="st9" x1="632.8" y1="650.2" x2="1855.8" y2="650.2"/>
						<line class="st9" x1="632.8" y1="633.2" x2="1855.8" y2="633.2"/>
						<line class="st9" x1="632.8" y1="616.2" x2="1855.8" y2="616.2"/>
						<line class="st9" x1="632.8" y1="599.2" x2="1855.8" y2="599.2"/>
						<line class="st9" x1="632.8" y1="582.2" x2="1855.8" y2="582.2"/>
						<line class="st9" x1="632.8" y1="565.3" x2="1855.8" y2="565.3"/>
						<line class="st9" x1="632.8" y1="548.3" x2="1855.8" y2="548.3"/>
						<line class="st9" x1="632.8" y1="531.3" x2="1855.8" y2="531.3"/>
						<line class="st9" x1="632.8" y1="514.3" x2="1855.8" y2="514.3"/>
						<line class="st9" x1="632.8" y1="497.4" x2="1855.8" y2="497.4"/>
						<line class="st9" x1="632.8" y1="480.4" x2="1855.8" y2="480.4"/>
						<line class="st9" x1="632.8" y1="463.4" x2="1855.8" y2="463.4"/>
						<line class="st9" x1="632.8" y1="446.4" x2="1855.8" y2="446.4"/>
						<line class="st9" x1="632.8" y1="429.5" x2="1855.8" y2="429.5"/>
						<line class="st9" x1="632.8" y1="412.5" x2="1855.8" y2="412.5"/>
						<line class="st9" x1="632.8" y1="395.5" x2="1855.8" y2="395.5"/>
						<line class="st9" x1="632.8" y1="378.5" x2="1855.8" y2="378.5"/>
						<line class="st9" x1="632.8" y1="361.5" x2="1855.8" y2="361.5"/>
						<line class="st9" x1="632.8" y1="344.6" x2="1855.8" y2="344.6"/>
						<line class="st9" x1="632.8" y1="327.6" x2="1855.8" y2="327.6"/>
						<line class="st9" x1="632.8" y1="310.6" x2="1855.8" y2="310.6"/>
						<line class="st9" x1="632.8" y1="293.6" x2="1855.8" y2="293.6"/>
						<line class="st9" x1="632.8" y1="276.6" x2="1855.8" y2="276.6"/>
						<line class="st9" x1="632.8" y1="259.7" x2="1855.8" y2="259.7"/>
						<line class="st9" x1="632.8" y1="242.7" x2="1855.8" y2="242.7"/>
						<line class="st9" x1="632.8" y1="225.7" x2="1855.8" y2="225.7"/>
						<line class="st9" x1="632.8" y1="208.7" x2="1855.8" y2="208.7"/>
						<line class="st9" x1="632.8" y1="191.8" x2="1855.8" y2="191.8"/>
						<line class="st9" x1="632.8" y1="174.8" x2="1855.8" y2="174.8"/>
						<line class="st9" x1="632.8" y1="157.8" x2="1855.8" y2="157.8"/>
						<line class="st9" x1="632.8" y1="140.8" x2="1855.8" y2="140.8"/>
						<line class="st9" x1="632.8" y1="123.8" x2="1855.8" y2="123.8"/>
						<line class="st9" x1="1835.8" y1="106.9" x2="1835.8" y2="972.7"/>
						<line class="st9" x1="1815.8" y1="106.9" x2="1815.8" y2="972.7"/>
						<line class="st9" x1="1795.7" y1="106.9" x2="1795.7" y2="972.7"/>
						<line class="st9" x1="1775.6" y1="106.9" x2="1775.6" y2="972.7"/>
						<line class="st9" x1="1755.6" y1="106.9" x2="1755.6" y2="972.7"/>
						<line class="st9" x1="1735.5" y1="106.9" x2="1735.5" y2="972.7"/>
						<line class="st9" x1="1715.5" y1="106.9" x2="1715.5" y2="972.7"/>
						<line class="st9" x1="1695.4" y1="106.9" x2="1695.4" y2="972.7"/>
						<line class="st9" x1="1675.4" y1="106.9" x2="1675.4" y2="972.7"/>
						<line class="st9" x1="1655.3" y1="106.9" x2="1655.3" y2="972.7"/>
						<line class="st9" x1="1635.3" y1="106.9" x2="1635.3" y2="972.7"/>
						<line class="st9" x1="1615.2" y1="106.9" x2="1615.2" y2="972.7"/>
						<line class="st9" x1="1595.2" y1="106.9" x2="1595.2" y2="972.7"/>
						<line class="st9" x1="1575.1" y1="106.9" x2="1575.1" y2="972.7"/>
						<line class="st9" x1="1555.1" y1="106.9" x2="1555.1" y2="972.7"/>
						<line class="st9" x1="1535" y1="106.9" x2="1535" y2="972.7"/>
						<line class="st9" x1="1515" y1="106.9" x2="1515" y2="972.7"/>
						<line class="st9" x1="1494.9" y1="106.9" x2="1494.9" y2="972.7"/>
						<line class="st9" x1="1474.9" y1="106.9" x2="1474.9" y2="972.7"/>
						<line class="st9" x1="1454.8" y1="106.9" x2="1454.8" y2="972.7"/>
						<line class="st9" x1="1434.8" y1="106.9" x2="1434.8" y2="972.7"/>
						<line class="st9" x1="1414.7" y1="106.9" x2="1414.7" y2="972.7"/>
						<line class="st9" x1="1394.7" y1="106.9" x2="1394.7" y2="972.7"/>
						<line class="st9" x1="1374.6" y1="106.9" x2="1374.6" y2="972.7"/>
						<line class="st9" x1="1354.6" y1="106.9" x2="1354.6" y2="972.7"/>
						<line class="st9" x1="1334.5" y1="106.9" x2="1334.5" y2="972.7"/>
						<line class="st9" x1="1314.5" y1="106.9" x2="1314.5" y2="972.7"/>
						<line class="st9" x1="1294.4" y1="106.9" x2="1294.4" y2="972.7"/>
						<line class="st9" x1="1274.4" y1="106.9" x2="1274.4" y2="972.7"/>
						<line class="st9" x1="1254.3" y1="106.9" x2="1254.3" y2="972.7"/>
						<line class="st9" x1="1234.3" y1="106.9" x2="1234.3" y2="972.7"/>
						<line class="st9" x1="1214.2" y1="106.9" x2="1214.2" y2="972.7"/>
						<line class="st9" x1="1194.2" y1="106.9" x2="1194.2" y2="972.7"/>
						<line class="st9" x1="1174.1" y1="106.9" x2="1174.1" y2="972.7"/>
						<line class="st9" x1="1154.1" y1="106.9" x2="1154.1" y2="972.7"/>
						<line class="st9" x1="1134" y1="106.9" x2="1134" y2="972.7"/>
						<line class="st9" x1="1114" y1="106.9" x2="1114" y2="972.7"/>
						<line class="st9" x1="1093.9" y1="106.9" x2="1093.9" y2="972.7"/>
						<line class="st9" x1="1073.9" y1="106.9" x2="1073.9" y2="972.7"/>
						<line class="st9" x1="1053.8" y1="106.9" x2="1053.8" y2="972.7"/>
						<line class="st9" x1="1033.8" y1="106.9" x2="1033.8" y2="972.7"/>
						<line class="st9" x1="1013.7" y1="106.9" x2="1013.7" y2="972.7"/>
						<line class="st9" x1="993.7" y1="106.9" x2="993.7" y2="972.7"/>
						<line class="st9" x1="973.6" y1="106.9" x2="973.6" y2="972.7"/>
						<line class="st9" x1="953.6" y1="106.9" x2="953.6" y2="972.7"/>
						<line class="st9" x1="933.5" y1="106.9" x2="933.5" y2="972.7"/>
						<line class="st9" x1="913.5" y1="106.9" x2="913.5" y2="972.7"/>
						<line class="st9" x1="893.4" y1="106.9" x2="893.4" y2="972.7"/>
						<line class="st9" x1="873.4" y1="106.9" x2="873.4" y2="972.7"/>
						<line class="st9" x1="853.3" y1="106.9" x2="853.3" y2="972.7"/>
						<line class="st9" x1="833.3" y1="106.9" x2="833.3" y2="972.7"/>
						<line class="st9" x1="813.2" y1="106.9" x2="813.2" y2="972.7"/>
						<line class="st9" x1="793.2" y1="106.9" x2="793.2" y2="972.7"/>
						<line class="st9" x1="773.1" y1="106.9" x2="773.1" y2="972.7"/>
						<line class="st9" x1="753.1" y1="106.9" x2="753.1" y2="972.7"/>
						<line class="st9" x1="733" y1="106.9" x2="733" y2="972.7"/>
						<line class="st9" x1="713" y1="106.9" x2="713" y2="972.7"/>
						<line class="st9" x1="692.9" y1="106.9" x2="692.9" y2="972.7"/>
						<line class="st9" x1="672.8" y1="106.9" x2="672.8" y2="972.7"/>
						<line class="st9" x1="652.8" y1="106.9" x2="652.8" y2="972.7"/>
					</g>
				</g>
			</g>
		</g>
		<path class="st10" d="M646.8,293.3V155.6c0-30.3,24.8-55,55.3-55h1106.4c30.5,0,55.3,24.6,55.3,55v753.5c0,30.3-24.8,55-55.3,55
			H702.1c-30.5,0-55.3-24.6-55.3-55v-622"/>
		<line class="st11" x1="751" y1="122.7" x2="751" y2="940"/>
		<line class="st11" x1="952.3" y1="122.7" x2="952.3" y2="940"/>
		<line class="st11" x1="1153.6" y1="122.7" x2="1153.6" y2="940"/>
		<line class="st12" x1="1841.7" y1="531.3" x2="668.9" y2="531.3"/>
		<line class="st11" x1="1354.8" y1="122.7" x2="1354.8" y2="940"/>
		<line class="st11" x1="1553.1" y1="123.7" x2="1553.1" y2="941"/>
		<line class="st11" x1="1753.4" y1="122.7" x2="1753.4" y2="940"/>
		<line class="st13" x1="668.9" y1="327.7" x2="1841.7" y2="327.7"/>
		<line class="st13" x1="668.9" y1="734.9" x2="1841.7" y2="734.9"/>
		<g>
			<line class="st14" x1="668" y1="258.3" x2="674" y2="258.3"/>
			<line class="st15" x1="685.9" y1="258.3" x2="1828.7" y2="258.3"/>
			<line class="st14" x1="1834.7" y1="258.3" x2="1840.7" y2="258.3"/>
		</g>
		<g>
			<line class="st14" x1="668" y1="804.3" x2="674" y2="804.3"/>
			<line class="st15" x1="685.9" y1="804.3" x2="1828.7" y2="804.3"/>
			<line class="st14" x1="1834.7" y1="804.3" x2="1840.7" y2="804.3"/>
		</g>
		<g class="st16">
			<path class="st17" d="M666.7,514c1.5,1.1,2.5,3.7,3.5,6.9c0.9,3.2,1.6,7,2.4,10.4s1.5,6.7,2.4,8.7c0.5,1,1,1.8,1.5,2.1
				c0.6,0.4,1.2,0.5,1.9,0.1c2.9-1.4,4.3-6.7,5.8-11c0.7-2.1,1.5-4.1,2.4-5.3s2-1.7,3.5-1.2c1.5,0.5,2.5,1.6,3.5,2.8
				c0.9,1.2,1.6,2.5,2.4,3.8c1.5,2.5,2.9,4.1,5.8,3.4c1.5-0.3,2.5-1,3.5-1.6c0.9-0.6,1.6-1.3,2.4-1.8c0.7-0.6,1.5-1,2.4-1.3
				c0.9-0.2,2-0.2,3.5-0.1c5.8,0.9,5.8,2.1,11.6,1.6c2.9-0.2,4.3-0.2,5.8-0.2c1.5,0,2.9,0,5.8-0.1c5.8-0.1,5.8,0.1,11.6,0.6
				c2.9,0.2,4.3,0,5.8-0.6c1.5-0.5,2.9-1.4,5.8-1.8c1.5-0.2,2.5-0.2,3.5,0.2c0.9,0.3,1.6,0.9,2.4,1.7c1.5,1.4,2.9,3.3,5.8,4.1
				c1.5,0.3,2.5,0.1,3.5-0.7c0.9-0.8,1.6-2,2.4-3.4c0.7-1.4,1.5-2.9,2.4-4.2c0.9-1.3,2-2.5,3.5-2.9c1.5-0.4,2.5,0.2,3.5,1.5
				c0.9,1.3,1.6,3.3,2.4,5.5c0.7,2.2,1.5,4.5,2.4,6.5s2,3.5,3.5,4s2.5-0.6,3.5-2.6c0.9-2,1.6-4.9,2.4-7.9c1.5-6.1,2.9-13,5.8-14.1
				c1.5-0.5,2.5,0.9,3.5,3.5c0.9,2.6,1.6,6.5,2.4,10.6c0.7,4.1,1.5,8.4,2.4,12c0.9,3.6,2,6.4,3.5,7.3c1.5,0.9,2.5-1,3.5-4.7
				c0.9-3.7,1.6-9,2.4-14.7c0.7-5.7,1.5-11.7,2.4-16.7c0.9-4.9,2-8.8,3.5-9.7s2.5,1.8,3.5,6.8c0.9,5,1.6,12.1,2.4,19.5
				c0.7,7.4,1.5,15.2,2.4,21.3c0.9,6.2,2,10.6,3.5,11.3c1.5,0.6,2.5-3.1,3.5-9.3c0.9-6.2,1.6-14.7,2.4-23.3
				c0.7-8.7,1.5-17.5,2.4-24.3c0.9-6.8,2-11.5,3.5-11.8c2.9-0.6,4.3,17.4,5.8,36.1c1.5,18.6,2.9,37.8,5.8,38.5
				c2.9,0.6,4.3-18.6,5.8-38.5c1.5-19.8,2.9-40,5.8-40.4c2.9-0.4,4.3,19.9,5.8,40.4c1.5,20.5,2.9,41.3,5.8,41.4
				c2.9,0.1,4.3-20.6,5.8-41.4c1.5-20.7,2.9-41.3,5.8-41.1c1.5,0,2.5,5.3,3.5,13.1c0.9,7.7,1.6,17.9,2.4,28.1
				c1.5,20.3,2.9,40.4,5.8,39.8c5.8-1.2,5.8-79.2,11.6-77.4c2.9,1.1,4.3,20,5.8,37.6c0.7,8.8,1.5,17.3,2.4,23.3
				c0.9,6.1,2,9.4,3.5,8.5c0.7-0.5,1.4-1.9,1.9-4c0.6-2,1.1-4.7,1.5-7.7c0.9-6,1.6-13.3,2.4-20.2c0.7-6.9,1.5-13.3,2.4-17.7
				c0.9-4.4,2-6.5,3.5-5.4c0.7,0.5,1.4,1.8,1.9,3.3c0.6,1.6,1.1,3.5,1.5,5.6c0.9,4.3,1.6,9.4,2.4,14.1c0.7,4.8,1.5,9.1,2.4,12.1
				c0.9,3,2,4.4,3.5,3.8c0.7-0.3,1.4-1.1,1.9-2.1c0.6-1,1.1-2.3,1.5-3.8c0.9-3,1.6-6.6,2.4-10c1.5-7,2.9-13.4,5.8-13
				c2.9,0.5,4.3,6.9,5.8,13c1.5,6.1,2.9,11.8,5.8,11.3c2.9-0.5,4.3-6.1,5.8-11.3c1.5-5.3,2.9-10.1,5.8-9.7c2.9,0.4,4.3,5.2,5.8,9.7
				c1.5,4.5,2.9,8.7,5.8,8.3c2.9-0.4,4.3-4.5,5.8-8.3c1.5-3.8,2.9-7.3,5.8-7c2.9,0.3,4.3,3.8,5.8,7c1.5,3.2,2.9,6.2,5.8,5.9
				c2.9-0.3,4.3-3.2,5.8-5.9c1.4-2.7,2.9-5.1,5.8-4.9c2.9,0.2,4.3,2.6,5.8,4.9c1.4,2.3,2.9,4.4,5.8,4.2s4.3-2.3,5.8-4.2
				c1.4-1.9,2.9-3.7,5.8-3.6c5.8,0.2,5.8,7.2,11.6,6.9c2.9-0.1,4.3-1.7,5.8-3.3c1.4-1.6,2.9-3.2,5.8-3.1c5.8,0,5.8,6.3,11.6,6.2
				c2.9,0,4.3-1.5,5.8-3.1c1.4-1.6,2.9-3.2,5.8-3.3c5.8-0.2,5.8,6.7,11.6,6.9c5.8,0.2,5.8-7.2,11.6-7.4c5.8-0.2,5.8,7.8,11.6,8
				c5.8,0.1,5.8-8,11.6-9.1c2.9-0.7,4.3,1.8,5.8,5c1.4,3.2,2.9,7.3,5.8,8.5c1.4,0.6,2.5-0.1,3.4-1.7c0.9-1.6,1.6-4.1,2.4-6.9
				s1.4-5.8,2.4-8.4c0.9-2.6,2-4.7,3.4-5.4c1.4-0.7,2.5,0.6,3.4,3.2c0.9,2.6,1.6,6.5,2.4,10.6s1.4,8.4,2.4,12c0.9,3.5,2,6.2,3.4,6.7
				c2.9,1,4.3-8.5,5.8-18.6c0.7-5.1,1.4-10.2,2.4-14.3c0.9-4,2-6.8,3.4-7c2.9-0.3,4.3,10.4,5.8,21.2c1.4,10.8,2.9,21.9,5.8,22.1
				c2.9,0.1,4.3-11,5.8-22.1c1.4-11.1,2.9-22.4,5.8-22.4c5.8,0.1,5.8,44.7,11.6,44.4c2.9-0.1,4.3-11.2,5.8-22
				c1.4-10.8,2.9-21.4,5.8-21.1c2.9,0.3,4.3,10.8,5.8,21.1c1.4,10.3,2.9,20.4,5.8,20c2.9-0.3,4.3-10.3,5.8-20
				c1.4-9.7,2.9-19.2,5.8-18.8c5.8,0.7,5.8,37.3,11.6,36.7c2.9-0.2,4.3-9.2,5.8-17.9c1.4-8.7,2.9-17.4,5.8-17.3
				c2.9,0.1,4.3,8.6,5.8,17.3c1.4,8.7,2.9,17.4,5.8,17.5c2.9,0.2,4.3-8.5,5.8-17.5c0.7-4.5,1.4-9,2.4-12.5c0.9-3.5,2-5.9,3.4-6.1
				c2.9-0.4,4.3,8.9,5.8,18.6c1.4,9.7,2.9,19.9,5.8,20.5c2.9,0.6,4.3-9.6,5.8-20.5c0.7-5.4,1.4-11,2.4-15.4c0.9-4.4,2-7.5,3.4-7.9
				c2.9-0.7,4.3,10.5,5.8,23.2c0.7,6.4,1.4,13.1,2.4,18.7c0.4,2.8,0.9,5.5,1.5,7.6c0.3,1,0.6,2,0.9,2.8c0.3,0.8,0.7,1.4,1,1.9
				c1.4,1.9,2.5-0.4,3.4-6.2c0.9-5.8,1.6-14.8,2.4-24.9c0.7-10.1,1.4-21.1,2.4-30.8c0.4-4.8,0.9-9.2,1.5-12.9
				c0.6-3.6,1.2-6.5,1.9-7.9c0.7-1.4,1.4-1,1.9,1c0.6,2,1.1,5.7,1.5,10.6c0.4,4.9,0.9,11,1.2,17.8c0.4,6.8,0.8,14.4,1.1,22.2
				c0.7,15.5,1.4,32.1,2.4,45.3c0.9,13.2,2,23.3,3.4,24.8c2.9,3.1,4.3-33.2,5.8-70.1c0.4-9.2,0.8-18.5,1.1-27.2
				c0.4-8.7,0.8-16.8,1.2-23.7c0.9-13.9,2-23,3.4-22.2c0.2,0.1,0.4,0.3,0.5,0.7c0.2,0.4,0.3,0.9,0.5,1.5c0.3,1.3,0.6,3,0.9,5.2
				c0.6,4.4,1.1,10.3,1.5,17.2c0.9,13.9,1.6,31.5,2.4,48.5c0.7,16.9,1.4,33.1,2.4,44.1c0.9,11,2,16.7,3.4,13.5
				c0.7-1.6,1.4-4.6,1.9-8.8c0.6-4.1,1.1-9.1,1.5-14.5c0.9-10.8,1.6-23.2,2.4-34.3c0.7-11.1,1.4-20.8,2.4-26.5
				c0.4-2.9,0.9-4.7,1.5-5.4c0.3-0.3,0.6-0.3,0.9-0.1c0.3,0.2,0.7,0.7,1,1.5c1.4,3.4,2.5,8.9,3.4,14.4c0.9,5.5,1.6,11.2,2.4,16
				c0.7,4.8,1.4,8.8,2.4,11s2,2.7,3.4,1.5c5.8-4.1,5.8-22.4,11.6-19.7c1.4,0.5,2.5,1.7,3.4,3c0.9,1.4,1.6,2.9,2.4,4.2
				c1.4,2.7,2.9,4.5,5.8,3.7c1.4-0.4,2.5-1.1,3.4-1.8c0.9-0.7,1.6-1.3,2.4-2c1.4-1.2,2.9-1.9,5.8-1.4c2.9,0.3,4.3,1,5.8,1.4
				c1.4,0.4,2.9,0.6,5.8,0.4c2.9-0.2,4.3-0.3,5.8-0.4c1.4-0.1,2.9-0.3,5.8-0.3c2.9,0,4.3,0.1,5.8,0.3c1.4,0.1,2.9,0.2,5.8,0.4
				c2.9,0.2,4.4,0.1,5.8-0.4c1.4-0.5,2.9-1.4,5.8-2.2c0.7-0.2,1.4-0.3,1.9-0.3c0.6,0,1.1,0.1,1.5,0.3c0.9,0.4,1.6,1.2,2.4,2.2
				c1.4,1.9,2.9,4.9,5.8,6.2c1.4,0.7,2.5,0.4,3.4-0.8c0.9-1.2,1.6-3.2,2.4-5.4c0.7-2.3,1.4-4.8,2.4-7.1c0.9-2.3,2-4.2,3.4-5.2
				c1.4-0.9,2.5,0.1,3.4,2.4c0.9,2.3,1.6,5.9,2.4,9.9c0.7,4,1.4,8.2,2.4,11.9c0.9,3.6,2,6.6,3.4,7.5c1.4,0.9,2.5-0.9,3.4-4.6
				c0.9-3.6,1.6-9,2.4-14.8c0.7-5.7,1.4-11.8,2.4-16.8c0.9-5,2-8.7,3.4-9.6c1.4-0.8,2.5,1.9,3.4,7c0.9,5,1.6,12.1,2.4,19.4
				c1.4,14.6,2.9,30.7,5.8,32c1.4,0.6,2.5-3,3.4-9.1c0.9-6,1.6-14.4,2.4-22.9c1.4-17,2.9-35,5.8-35.7c1.4-0.3,2.5,4,3.4,10.7
				c0.9,6.7,1.6,15.8,2.4,25c0.7,9.2,1.4,18.4,2.4,25.4s2,11.7,3.4,11.8c5.8,0.3,5.8-74.5,11.6-74.5c1.4,0,2.5,4.7,3.4,11.7
				c0.9,7,1.6,16.4,2.4,25.7c1.4,18.6,2.9,37.1,5.8,37c2.9-0.1,4.3-18.6,5.8-37c1.4-18.3,2.9-36.3,5.8-36c2.9,0.3,4.3,18.3,5.8,36
				c1.4,17.7,2.9,35,5.8,34.5c2.9-0.5,4.3-17.7,5.8-34.5c0.7-8.4,1.4-16.7,2.4-22.8c0.9-6.1,2-10,3.4-9.7c2.9,0.6,4.3,16.9,5.8,32.5
				c0.7,7.8,1.4,15.5,2.4,21.2c0.9,5.6,2,9.2,3.4,8.8s2.5-4.3,3.4-9.9c0.9-5.6,1.6-12.9,2.4-20.1c0.7-7.2,1.4-14.2,2.4-19.3
				s2-8.3,3.4-7.9s2.5,4,3.4,9.1c0.9,5.1,1.6,11.7,2.4,18.1s1.4,12.7,2.4,17.3s2,7.4,3.4,7s2.5-3.7,3.4-8.2
				c0.9-4.5,1.6-10.4,2.4-16.1s1.4-11.2,2.4-15.2c0.9-4,2-6.4,3.4-6.1s2.5,3.3,3.4,7.2c0.9,4,1.6,9.1,2.4,14.1
				c1.4,10,2.9,19.2,5.8,18.5c2.9-0.7,4.3-9.9,5.8-18.5c1.4-8.7,2.9-16.7,5.8-16.1c2.9,0.6,4.4,8.6,5.8,16.1
				c1.4,7.6,2.9,14.5,5.8,14.2c2.9-0.4,4.4-7.5,5.8-14.2c0.7-3.4,1.4-6.6,2.4-9c0.4-1.2,0.9-2.2,1.5-2.8c0.6-0.7,1.2-1,1.9-1
				c2.9,0.2,4.4,6.6,5.8,12.8c1.4,6.2,2.9,12.2,5.8,12.1c5.8-0.1,5.8-24.1,11.6-24.3c5.8-0.3,5.8,24.4,11.6,25.1
				c2.9,0.3,4.3-6.1,5.8-12.9c1.4-6.8,2.9-13.9,5.8-14.4c2.9-0.5,4.4,6.7,5.8,14.4c1.4,7.7,2.9,15.7,5.8,17.4
				c0.7,0.4,1.4,0.3,1.9-0.3c0.6-0.7,1.1-1.8,1.5-3.4c0.9-3.2,1.6-8.1,2.4-13.6c0.7-5.5,1.4-11.6,2.4-17c0.4-2.7,0.9-5.3,1.5-7.4
				c0.6-2.2,1.2-4,1.9-5.1c1.4-2.3,2.5-0.3,3.4,5.2c0.9,5.4,1.6,14.3,2.4,24.3c0.7,10,1.4,21.2,2.4,31c0.4,5,0.9,9.7,1.5,13.6
				c0.6,3.8,1.2,7.2,1.9,9.1c0.7,1.8,1.4,2,1.9,0.3c0.3-0.9,0.6-2.2,0.8-4c0.2-1.7,0.5-3.8,0.7-6.3c0.4-5,0.9-11.5,1.2-19
				c0.4-7.4,0.8-15.9,1.1-24.8c0.4-9.3,0.8-18.7,1.1-27.5c0.4-9.3,0.8-18.5,1.2-27c0.4-8.5,0.9-16.5,1.5-23.1
				c0.2-1.8,0.3-3.3,0.4-4.7c0.2-1.5,0.3-2.9,0.5-4.2c0.3-2.6,0.7-4.7,1-6.2c1.4-5.8,2.5,1.2,3.4,18.7c0.2,4.3,0.4,9.3,0.7,14.7
				c0.2,5.6,0.4,11.5,0.6,17.6c0.4,13.3,0.7,27.4,1.1,41.6c0.7,29.6,1.4,62.2,2.4,90.2c0.4,14,0.9,27.1,1.5,37.7
				c0.3,5.4,0.6,10.3,0.9,14.4c0.2,2,0.3,4,0.5,5.7s0.3,3.2,0.5,4.4"/>
		</g>
	</g>
</g>
</svg>
