<?xml version="1.0" encoding="UTF-8"?><svg id="Layer_2" xmlns="http://www.w3.org/2000/svg" xmlns:xlink="http://www.w3.org/1999/xlink" viewBox="0 0 1919.91 1079.41"><defs><style>.cls-1,.cls-2,.cls-3,.cls-4,.cls-5,.cls-6,.cls-7,.cls-8,.cls-9{fill:none;}.cls-10{letter-spacing:.1em;}.cls-11{letter-spacing:.1em;}.cls-2{stroke-width:6px;}.cls-2,.cls-3,.cls-4,.cls-5,.cls-6,.cls-7,.cls-8,.cls-9{stroke-miterlimit:10;}.cls-2,.cls-6{stroke:#fff;}.cls-12{clip-path:url(#clippath);}.cls-3{stroke:#ff884d;stroke-dasharray:0 12;}.cls-3,.cls-5,.cls-6,.cls-8,.cls-9{stroke-width:2px;}.cls-13,.cls-14{fill:#fff;}.cls-15{fill:#323258;}.cls-16,.cls-17{fill:#19192c;}.cls-18{fill:#6db6af;}.cls-4{stroke-width:.75px;}.cls-4,.cls-7,.cls-9{stroke:#6db6af;}.cls-19{letter-spacing:.07em;}.cls-14{font-family:Gilroy-Bold, Gilroy-Bold;font-size:51.81px;}.cls-5,.cls-8{stroke:#d30741;}.cls-7{stroke-width:4px;}.cls-20{letter-spacing:.06em;}.cls-21{letter-spacing:0em;}.cls-22{letter-spacing:.12em;}.cls-23{opacity:.6;}.cls-8{stroke-dasharray:0 0 11.97 11.97;}.cls-24,.cls-9,.cls-25{opacity:.8;}.cls-25{fill:#2d2d4a;}.cls-17{opacity:.3;}</style><clipPath id="clippath"><rect class="cls-1" x="667.97" y="122.68" width="1172.7" height="817.27" rx="32.35" ry="32.35"/></clipPath></defs><g id="Layer_1-2"><g><g><rect class="cls-15" x="0" width="1919.91" height="1079.41"/><rect class="cls-15" x="0" width="1919.91" height="1079.41"/><rect class="cls-17" y="0" width="610.79" height="1079.41"/><circle class="cls-13" cx="1885.01" cy="1041.18" r="8.59"/><circle class="cls-13" cx="1885.01" cy="29.89" r="8.59"/><circle class="cls-13" cx="34.48" cy="1041.18" r="8.59"/><circle class="cls-13" cx="34.48" cy="35.53" r="8.59"/></g><rect class="cls-16" x="666.65" y="120.11" width="1169.15" height="819.84" rx="37.94" ry="37.94"/><text class="cls-14" transform="translate(97.36 155.36)"><tspan class="cls-10" x="0" y="0">H</tspan><tspan class="cls-19" x="39.63" y="0">O</tspan><tspan class="cls-11" x="84.24" y="0">W </tspan><tspan class="cls-20" x="159.32" y="0">T</tspan><tspan class="cls-11" x="190.4" y="0">O P</tspan><tspan class="cls-22" x="290.5" y="0">L</tspan><tspan class="cls-21" x="321.74" y="0">A</tspan><tspan class="cls-11" x="356.82" y="0">Y</tspan></text><path id="Rectangle_131" class="cls-17" d="M115.42,751.32l91.07,3.27c13.85,.24,24.89,11.66,24.66,25.51l-.71,41.76c-.24,13.85-11.66,24.89-25.51,24.66l-91.07-3.27c-13.85-.24-24.89-11.66-24.66-25.51l.71-41.76c.24-13.85,11.66-24.89,25.51-24.66Z"/><g><path class="cls-13" d="M115.85,436.33v3.95h-9.14v27.48h-4.06v-27.48h-9.1v-3.95h22.3Z"/><path class="cls-13" d="M130.51,444.73c2.59,0,4.67,.83,6.23,2.49,1.56,1.66,2.34,3.91,2.34,6.76v13.78h-3.84v-13.56c0-1.83-.49-3.24-1.46-4.24-.97-1-2.31-1.5-4.02-1.5-1.91,0-3.46,.61-4.64,1.82-1.18,1.21-1.77,3.08-1.77,5.59v11.9h-3.84v-31.43h3.84v12.21c1.56-2.54,3.94-3.82,7.15-3.82Z"/><path class="cls-13" d="M147.11,458.33c.38,2.01,1.29,3.56,2.72,4.67,1.43,1.11,3.19,1.66,5.28,1.66,2.92,0,5.03-1.09,6.36-3.28l3.27,1.89c-2.15,3.38-5.39,5.07-9.71,5.07-3.5,0-6.35-1.11-8.54-3.34-2.19-2.23-3.29-5.05-3.29-8.46s1.07-6.2,3.22-8.44c2.15-2.25,4.93-3.37,8.35-3.37,3.24,0,5.88,1.16,7.93,3.48,2.05,2.32,3.07,5.11,3.07,8.37,0,.57-.04,1.15-.13,1.75h-18.5Zm7.64-9.92c-2.06,0-3.77,.59-5.12,1.77-1.35,1.18-2.19,2.76-2.52,4.74h14.75c-.32-2.12-1.15-3.74-2.47-4.85-1.32-1.11-2.87-1.66-4.64-1.66Z"/><path class="cls-13" d="M193.22,449.08h-5.87v12.17c0,1.11,.21,1.89,.64,2.36,.43,.46,1.08,.7,1.96,.72,.88,.02,1.97,0,3.27-.07v3.5c-3.36,.45-5.82,.17-7.38-.83-1.56-1-2.34-2.9-2.34-5.68v-12.17h-4.37v-3.77h4.37v-5.12l3.84-1.17v6.29h5.87v3.77Z"/><path class="cls-13" d="M215.3,464.93c-2.27,2.27-5.02,3.41-8.26,3.41s-5.98-1.14-8.24-3.41c-2.25-2.27-3.38-5.07-3.38-8.4s1.13-6.12,3.38-8.4c2.25-2.27,5-3.41,8.24-3.41s5.99,1.14,8.26,3.41c2.27,2.27,3.4,5.07,3.4,8.4s-1.13,6.12-3.4,8.4Zm-8.26-.4c2.21,0,4.06-.76,5.56-2.29,1.5-1.53,2.25-3.43,2.25-5.7s-.75-4.18-2.25-5.7c-1.5-1.53-3.36-2.29-5.56-2.29s-4.02,.76-5.52,2.29c-1.5,1.53-2.25,3.43-2.25,5.7s.75,4.18,2.25,5.7,3.34,2.29,5.52,2.29Z"/><path class="cls-13" d="M238.48,445.31h3.84v22.45h-3.84v-3.23c-1.56,2.54-3.95,3.82-7.15,3.82-2.59,0-4.67-.83-6.23-2.49s-2.34-3.91-2.34-6.76v-13.78h3.84v13.56c0,1.83,.49,3.24,1.46,4.24,.97,1,2.31,1.5,4.02,1.5,1.91,0,3.46-.61,4.64-1.82,1.18-1.21,1.77-3.08,1.77-5.59v-11.9Z"/><path class="cls-13" d="M258.53,468.35c-3.33,0-6.09-1.13-8.3-3.39-2.21-2.26-3.31-5.07-3.31-8.42s1.1-6.16,3.31-8.42c2.21-2.26,4.97-3.39,8.3-3.39,2.18,0,4.14,.53,5.87,1.59,1.74,1.06,3.03,2.49,3.89,4.29l-3.22,1.89c-.56-1.2-1.42-2.16-2.58-2.87-1.16-.72-2.48-1.08-3.95-1.08-2.21,0-4.06,.76-5.54,2.29-1.49,1.53-2.23,3.43-2.23,5.7s.74,4.13,2.23,5.66,3.33,2.29,5.54,2.29c1.47,0,2.8-.35,3.97-1.06,1.18-.7,2.08-1.65,2.69-2.85l3.27,1.93c-.94,1.77-2.3,3.18-4.06,4.24s-3.72,1.59-5.87,1.59Z"/><path class="cls-13" d="M283.26,444.73c2.59,0,4.67,.83,6.23,2.49s2.34,3.91,2.34,6.76v13.78h-3.84v-13.56c0-1.83-.49-3.24-1.46-4.24-.97-1-2.31-1.5-4.02-1.5-1.91,0-3.46,.61-4.64,1.82-1.18,1.21-1.77,3.08-1.77,5.59v11.9h-3.84v-31.43h3.84v12.21c1.56-2.54,3.95-3.82,7.15-3.82Z"/><path class="cls-13" d="M300.48,451.31c0,.85,.43,1.53,1.3,2.04,.87,.51,1.9,.95,3.1,1.31,1.2,.36,2.41,.72,3.62,1.08,1.21,.36,2.24,1.04,3.08,2.04s1.26,2.27,1.26,3.84c0,2.04-.77,3.67-2.32,4.89-1.54,1.23-3.53,1.84-5.94,1.84-2.15,0-3.99-.48-5.52-1.44-1.53-.96-2.62-2.23-3.27-3.82l3.31-1.93c.35,1.08,1.02,1.93,1.99,2.56,.97,.63,2.13,.94,3.49,.94,1.27,0,2.31-.25,3.14-.74s1.24-1.26,1.24-2.31c0-.87-.43-1.56-1.28-2.08-.85-.52-1.88-.97-3.08-1.33-1.2-.37-2.41-.73-3.62-1.1-1.21-.37-2.25-1.03-3.1-1.99-.85-.96-1.28-2.18-1.28-3.68,0-1.95,.74-3.55,2.23-4.8,1.49-1.26,3.35-1.89,5.59-1.89,1.8,0,3.39,.41,4.79,1.23,1.4,.82,2.45,1.97,3.16,3.43l-3.22,1.84c-.79-1.92-2.37-2.87-4.73-2.87-1.09,0-2.02,.26-2.78,.77-.77,.51-1.15,1.24-1.15,2.17Z"/><path class="cls-13" d="M327.16,468.35c-3.33,0-6.09-1.13-8.3-3.39-2.21-2.26-3.31-5.07-3.31-8.42s1.1-6.16,3.31-8.42c2.21-2.26,4.97-3.39,8.3-3.39,2.18,0,4.14,.53,5.87,1.59,1.74,1.06,3.03,2.49,3.89,4.29l-3.22,1.89c-.56-1.2-1.42-2.16-2.58-2.87s-2.48-1.08-3.95-1.08c-2.21,0-4.06,.76-5.54,2.29-1.49,1.53-2.23,3.43-2.23,5.7s.74,4.13,2.23,5.66c1.49,1.53,3.33,2.29,5.54,2.29,1.47,0,2.8-.35,3.97-1.06,1.18-.7,2.08-1.65,2.69-2.85l3.27,1.93c-.94,1.77-2.3,3.18-4.06,4.24-1.77,1.06-3.72,1.59-5.87,1.59Z"/><path class="cls-13" d="M344.78,449.08c1.27-2.78,3.56-4.18,6.89-4.18v4.09c-1.88-.09-3.5,.42-4.86,1.53-1.35,1.11-2.03,2.89-2.03,5.34v11.9h-3.84v-22.45h3.84v3.77Z"/><path class="cls-13" d="M356.92,458.33c.38,2.01,1.29,3.56,2.72,4.67,1.43,1.11,3.19,1.66,5.28,1.66,2.91,0,5.03-1.09,6.36-3.28l3.27,1.89c-2.15,3.38-5.39,5.07-9.72,5.07-3.5,0-6.35-1.11-8.54-3.34-2.19-2.23-3.29-5.05-3.29-8.46s1.07-6.2,3.22-8.44c2.15-2.25,4.93-3.37,8.35-3.37,3.24,0,5.88,1.16,7.93,3.48,2.05,2.32,3.07,5.11,3.07,8.37,0,.57-.04,1.15-.13,1.75h-18.5Zm7.64-9.92c-2.06,0-3.77,.59-5.12,1.77-1.35,1.18-2.19,2.76-2.52,4.74h14.75c-.32-2.12-1.15-3.74-2.47-4.85s-2.87-1.66-4.64-1.66Z"/><path class="cls-13" d="M382.62,458.33c.38,2.01,1.29,3.56,2.72,4.67,1.43,1.11,3.19,1.66,5.28,1.66,2.92,0,5.03-1.09,6.36-3.28l3.27,1.89c-2.15,3.38-5.39,5.07-9.71,5.07-3.5,0-6.35-1.11-8.54-3.34-2.19-2.23-3.29-5.05-3.29-8.46s1.07-6.2,3.22-8.44c2.15-2.25,4.93-3.37,8.35-3.37,3.24,0,5.88,1.16,7.93,3.48,2.05,2.32,3.07,5.11,3.07,8.37,0,.57-.04,1.15-.13,1.75h-18.5Zm7.64-9.92c-2.06,0-3.77,.59-5.12,1.77-1.35,1.18-2.19,2.76-2.52,4.74h14.75c-.32-2.12-1.15-3.74-2.47-4.85-1.32-1.11-2.87-1.66-4.64-1.66Z"/><path class="cls-13" d="M416.67,444.73c2.59,0,4.67,.83,6.23,2.49,1.56,1.66,2.34,3.91,2.34,6.76v13.78h-3.84v-13.56c0-1.83-.49-3.24-1.46-4.24-.97-1-2.31-1.5-4.02-1.5-1.91,0-3.46,.61-4.64,1.82-1.18,1.21-1.77,3.08-1.77,5.59v11.9h-3.84v-22.45h3.84v3.23c1.56-2.54,3.94-3.82,7.15-3.82Z"/><path class="cls-13" d="M121.68,499.19h3.61l-6.43,22.45h-3.93l-5.27-16.83-5.24,16.83h-4.11l-6.5-22.45h4.02l4.85,17.06,5.21-17.06h3.79l5.2,17.07,4.79-17.07Z"/><path class="cls-13" d="M131.61,495.1c-.74,0-1.35-.25-1.85-.76-.5-.51-.75-1.12-.75-1.84s.25-1.34,.75-1.86c.5-.52,1.12-.79,1.85-.79s1.31,.26,1.81,.79c.5,.52,.75,1.15,.75,1.86s-.25,1.33-.75,1.84c-.5,.51-1.1,.76-1.81,.76Zm-1.94,26.53v-22.45h3.84v22.45h-3.84Z"/><path class="cls-13" d="M139.39,521.64v-32.78h3.84v32.78h-3.84Z"/><path class="cls-13" d="M149.1,521.64v-32.78h3.84v32.78h-3.84Z"/><path class="cls-13" d="M173.7,502.96c1.27-2.78,3.56-4.18,6.89-4.18v4.09c-1.88-.09-3.5,.42-4.86,1.53-1.35,1.11-2.03,2.89-2.03,5.34v11.9h-3.84v-22.45h3.84v3.77Z"/><path class="cls-13" d="M185.84,512.21c.38,2.01,1.29,3.56,2.72,4.67,1.43,1.11,3.19,1.66,5.28,1.66,2.91,0,5.03-1.09,6.36-3.28l3.27,1.89c-2.15,3.38-5.39,5.07-9.72,5.07-3.5,0-6.35-1.11-8.54-3.34-2.19-2.23-3.29-5.05-3.29-8.46s1.07-6.2,3.22-8.44c2.15-2.25,4.93-3.37,8.35-3.37,3.24,0,5.88,1.16,7.93,3.48,2.05,2.32,3.07,5.11,3.07,8.37,0,.57-.04,1.15-.13,1.75h-18.5Zm7.64-9.92c-2.06,0-3.77,.59-5.12,1.77-1.35,1.18-2.19,2.76-2.52,4.74h14.75c-.32-2.12-1.15-3.74-2.47-4.85s-2.87-1.66-4.64-1.66Z"/><path class="cls-13" d="M219.23,522.22c-3.33,0-6.09-1.13-8.3-3.39-2.21-2.26-3.31-5.07-3.31-8.42s1.1-6.16,3.31-8.42c2.21-2.26,4.97-3.39,8.3-3.39,2.18,0,4.14,.53,5.87,1.59,1.74,1.06,3.03,2.49,3.89,4.29l-3.22,1.89c-.56-1.2-1.42-2.16-2.58-2.87s-2.48-1.08-3.95-1.08c-2.21,0-4.06,.76-5.54,2.29-1.49,1.53-2.23,3.43-2.23,5.7s.74,4.13,2.23,5.66c1.49,1.53,3.33,2.29,5.54,2.29,1.47,0,2.8-.35,3.97-1.06,1.18-.7,2.08-1.65,2.69-2.85l3.27,1.93c-.94,1.77-2.3,3.18-4.06,4.24-1.77,1.06-3.72,1.59-5.87,1.59Z"/><path class="cls-13" d="M251.29,518.81c-2.27,2.27-5.02,3.41-8.26,3.41s-5.98-1.14-8.24-3.41c-2.25-2.27-3.38-5.07-3.38-8.4s1.13-6.12,3.38-8.4c2.25-2.27,5-3.41,8.24-3.41s5.99,1.14,8.26,3.41c2.27,2.27,3.4,5.07,3.4,8.4s-1.13,6.12-3.4,8.4Zm-8.26-.4c2.21,0,4.06-.76,5.56-2.29,1.5-1.53,2.25-3.43,2.25-5.7s-.75-4.18-2.25-5.7c-1.5-1.53-3.36-2.29-5.56-2.29s-4.02,.76-5.52,2.29c-1.5,1.53-2.25,3.43-2.25,5.7s.75,4.18,2.25,5.7c1.5,1.53,3.34,2.29,5.52,2.29Z"/><path class="cls-13" d="M263.08,502.96c1.27-2.78,3.56-4.18,6.89-4.18v4.09c-1.88-.09-3.5,.42-4.86,1.53-1.35,1.11-2.03,2.89-2.03,5.34v11.9h-3.84v-22.45h3.84v3.77Z"/><path class="cls-13" d="M290.81,490.21h3.84v31.43h-3.84v-3.86c-1.91,2.96-4.7,4.44-8.35,4.44-3.09,0-5.73-1.14-7.91-3.43-2.18-2.29-3.27-5.08-3.27-8.37s1.09-6.08,3.27-8.37c2.18-2.29,4.81-3.43,7.91-3.43,3.65,0,6.43,1.48,8.35,4.44v-12.84Zm-7.86,28.24c2.24,0,4.11-.77,5.61-2.31,1.5-1.54,2.25-3.45,2.25-5.72s-.75-4.18-2.25-5.72c-1.5-1.54-3.37-2.31-5.61-2.31s-4.06,.77-5.56,2.31c-1.5,1.54-2.25,3.45-2.25,5.72s.75,4.18,2.25,5.72c1.5,1.54,3.36,2.31,5.56,2.31Z"/><path class="cls-13" d="M323.53,502.96h-5.87v12.17c0,1.11,.21,1.89,.64,2.36,.43,.46,1.08,.7,1.96,.72,.88,.02,1.97,0,3.27-.07v3.5c-3.36,.45-5.81,.17-7.38-.83s-2.34-2.9-2.34-5.68v-12.17h-4.37v-3.77h4.37v-5.12l3.84-1.17v6.29h5.87v3.77Z"/><path class="cls-13" d="M339.08,498.61c2.59,0,4.67,.83,6.23,2.49,1.56,1.66,2.34,3.91,2.34,6.76v13.78h-3.84v-13.56c0-1.83-.49-3.24-1.46-4.24-.97-1-2.31-1.5-4.02-1.5-1.91,0-3.46,.61-4.64,1.82-1.18,1.21-1.77,3.08-1.77,5.59v11.9h-3.84v-31.43h3.84v12.21c1.56-2.54,3.94-3.82,7.15-3.82Z"/><path class="cls-13" d="M355.68,512.21c.38,2.01,1.29,3.56,2.72,4.67,1.43,1.11,3.19,1.66,5.28,1.66,2.92,0,5.03-1.09,6.36-3.28l3.27,1.89c-2.15,3.38-5.39,5.07-9.71,5.07-3.5,0-6.35-1.11-8.54-3.34-2.19-2.23-3.29-5.05-3.29-8.46s1.07-6.2,3.22-8.44c2.15-2.25,4.93-3.37,8.35-3.37,3.24,0,5.88,1.16,7.93,3.48,2.05,2.32,3.07,5.11,3.07,8.37,0,.57-.04,1.15-.13,1.75h-18.5Zm7.64-9.92c-2.06,0-3.77,.59-5.12,1.77-1.35,1.18-2.19,2.76-2.52,4.74h14.75c-.32-2.12-1.15-3.74-2.47-4.85-1.32-1.11-2.87-1.66-4.64-1.66Z"/><path class="cls-18" d="M107.24,549.03c-3.12-.24-4.68,1.03-4.68,3.82v.22h4.68v5.57h-4.68v16.88h-5.7v-16.88h-3.18v-5.57h3.18v-.22c0-3.17,.87-5.58,2.61-7.23,1.74-1.65,4.33-2.36,7.77-2.15v5.57Z"/><path class="cls-18" d="M115.54,556.93c.53-1.44,1.41-2.51,2.63-3.23s2.58-1.08,4.08-1.08v6.47c-1.74-.21-3.29,.15-4.66,1.08-1.37,.93-2.05,2.47-2.05,4.62v10.73h-5.7v-22.45h5.7v3.86Z"/><path class="cls-18" d="M129.54,566.67c.77,2.81,2.84,4.22,6.23,4.22,2.18,0,3.83-.75,4.95-2.24l4.59,2.69c-2.18,3.2-5.39,4.8-9.63,4.8-3.65,0-6.58-1.12-8.79-3.37-2.21-2.24-3.31-5.07-3.31-8.49s1.09-6.2,3.27-8.46c2.18-2.26,4.97-3.39,8.39-3.39,3.24,0,5.91,1.14,8.01,3.41,2.1,2.27,3.16,5.09,3.16,8.44,0,.75-.07,1.54-.22,2.38h-16.65Zm-.09-4.49h11.26c-.32-1.53-.99-2.66-2.01-3.41-1.02-.75-2.17-1.12-3.47-1.12-1.53,0-2.8,.4-3.8,1.19-1,.79-1.66,1.91-1.99,3.35Z"/><path class="cls-18" d="M166.94,553.07h5.7v31.43h-5.7v-11.63c-1.68,2.19-4.06,3.28-7.15,3.28s-5.51-1.14-7.62-3.43c-2.11-2.29-3.16-5.1-3.16-8.42s1.05-6.13,3.16-8.42c2.1-2.29,4.64-3.43,7.62-3.43s5.48,1.09,7.15,3.28v-2.65Zm-10.49,15.78c1.16,1.18,2.63,1.77,4.39,1.77s3.22-.59,4.37-1.77c1.15-1.18,1.72-2.7,1.72-4.56s-.57-3.37-1.72-4.56c-1.15-1.18-2.61-1.77-4.37-1.77s-3.23,.59-4.39,1.77c-1.16,1.18-1.74,2.7-1.74,4.56s.58,3.38,1.74,4.56Z"/><path class="cls-18" d="M192.42,553.07h5.7v22.45h-5.7v-2.51c-1.38,2.1-3.58,3.14-6.58,3.14-2.41,0-4.41-.82-5.98-2.47-1.58-1.65-2.36-3.92-2.36-6.82v-13.78h5.7v13.06c0,1.5,.4,2.64,1.19,3.44,.79,.79,1.85,1.19,3.18,1.19,1.47,0,2.65-.46,3.53-1.39,.88-.93,1.33-2.32,1.33-4.18v-12.12Z"/><path class="cls-18" d="M208.14,566.67c.77,2.81,2.84,4.22,6.23,4.22,2.18,0,3.83-.75,4.95-2.24l4.59,2.69c-2.18,3.2-5.39,4.8-9.63,4.8-3.65,0-6.58-1.12-8.79-3.37-2.21-2.24-3.31-5.07-3.31-8.49s1.09-6.2,3.27-8.46c2.18-2.26,4.97-3.39,8.39-3.39,3.24,0,5.91,1.14,8.01,3.41,2.1,2.27,3.16,5.09,3.16,8.44,0,.75-.07,1.54-.22,2.38h-16.65Zm-.09-4.49h11.26c-.32-1.53-.99-2.66-2.01-3.41-1.02-.75-2.17-1.12-3.47-1.12-1.53,0-2.8,.4-3.8,1.19-1,.79-1.66,1.91-1.99,3.35Z"/><path class="cls-18" d="M241.26,552.44c2.41,0,4.41,.82,5.98,2.47,1.58,1.65,2.36,3.92,2.36,6.82v13.78h-5.7v-13.07c0-1.5-.4-2.64-1.19-3.43-.79-.79-1.85-1.19-3.18-1.19-1.47,0-2.65,.46-3.53,1.39-.88,.93-1.33,2.32-1.33,4.18v12.12h-5.7v-22.45h5.7v2.51c1.38-2.09,3.58-3.14,6.58-3.14Z"/><path class="cls-18" d="M264.98,576.14c-3.33,0-6.1-1.14-8.32-3.41-2.22-2.27-3.33-5.09-3.33-8.44s1.11-6.17,3.33-8.44c2.22-2.27,5-3.41,8.32-3.41,2.15,0,4.11,.52,5.87,1.57,1.77,1.05,3.11,2.45,4.02,4.22l-4.9,2.92c-.44-.93-1.11-1.66-2.01-2.2-.9-.54-1.91-.81-3.03-.81-1.71,0-3.12,.58-4.24,1.73-1.12,1.15-1.68,2.63-1.68,4.42s.56,3.23,1.68,4.38c1.12,1.15,2.53,1.73,4.24,1.73,1.15,0,2.17-.26,3.07-.79,.9-.52,1.57-1.25,2.01-2.18l4.95,2.87c-.97,1.77-2.34,3.18-4.11,4.24-1.77,1.06-3.72,1.59-5.87,1.59Z"/><path class="cls-18" d="M292.53,553.07h6.09l-8.05,22.49c-1.15,3.21-2.67,5.53-4.57,6.99-1.9,1.45-4.26,2.1-7.08,1.96v-5.39c1.53,.03,2.74-.3,3.64-.99,.9-.69,1.61-1.8,2.14-3.32l-9.05-21.73h6.23l5.76,15.09,4.88-15.09Z"/><path class="cls-13" d="M331.31,572.69c-2.27,2.27-5.02,3.41-8.26,3.41s-5.98-1.14-8.24-3.41c-2.25-2.27-3.38-5.07-3.38-8.4s1.13-6.12,3.38-8.4c2.25-2.27,5-3.41,8.24-3.41s5.99,1.14,8.26,3.41c2.27,2.27,3.4,5.07,3.4,8.4s-1.13,6.12-3.4,8.4Zm-8.26-.4c2.21,0,4.06-.76,5.56-2.29,1.5-1.53,2.25-3.43,2.25-5.7s-.75-4.18-2.25-5.7c-1.5-1.53-3.36-2.29-5.56-2.29s-4.02,.76-5.52,2.29c-1.5,1.53-2.25,3.43-2.25,5.7s.75,4.18,2.25,5.7,3.34,2.29,5.52,2.29Z"/><path class="cls-13" d="M349.76,547.28c-3.89-.33-5.83,1.38-5.83,5.12v.67h5.83v3.77h-5.83v18.68h-3.84v-18.68h-3.53v-3.77h3.53v-.67c0-3.02,.83-5.31,2.5-6.87,1.66-1.56,4.06-2.23,7.18-2.02v3.77Z"/><path class="cls-13" d="M375.73,556.84h-5.87v12.17c0,1.11,.21,1.89,.64,2.36,.43,.46,1.08,.7,1.96,.72,.88,.02,1.97,0,3.27-.07v3.5c-3.36,.45-5.82,.17-7.38-.83-1.56-1-2.34-2.9-2.34-5.68v-12.17h-4.37v-3.77h4.37v-5.12l3.84-1.17v6.29h5.87v3.77Z"/><path class="cls-13" d="M391.28,552.48c2.59,0,4.67,.83,6.23,2.49s2.34,3.91,2.34,6.76v13.78h-3.84v-13.56c0-1.83-.49-3.24-1.46-4.24-.97-1-2.31-1.5-4.02-1.5-1.91,0-3.46,.61-4.64,1.82-1.18,1.21-1.77,3.08-1.77,5.59v11.9h-3.84v-31.43h3.84v12.21c1.56-2.54,3.95-3.82,7.15-3.82Z"/><path class="cls-13" d="M407.88,566.09c.38,2.01,1.29,3.56,2.72,4.67,1.43,1.11,3.19,1.66,5.28,1.66,2.91,0,5.03-1.09,6.36-3.28l3.27,1.89c-2.15,3.38-5.39,5.07-9.72,5.07-3.5,0-6.35-1.11-8.54-3.34-2.19-2.23-3.29-5.05-3.29-8.46s1.07-6.2,3.22-8.44c2.15-2.25,4.93-3.37,8.35-3.37,3.24,0,5.88,1.16,7.93,3.48,2.05,2.32,3.07,5.11,3.07,8.37,0,.57-.04,1.15-.13,1.75h-18.5Zm7.64-9.92c-2.06,0-3.77,.59-5.12,1.77-1.35,1.18-2.19,2.76-2.52,4.74h14.75c-.32-2.12-1.15-3.74-2.47-4.85s-2.87-1.66-4.64-1.66Z"/><path class="cls-13" d="M454.16,552.48c3.09,0,5.73,1.14,7.9,3.43,2.18,2.29,3.27,5.08,3.27,8.37s-1.09,6.08-3.27,8.37c-2.18,2.29-4.81,3.43-7.9,3.43-3.65,0-6.43-1.48-8.35-4.44v3.86h-3.84v-31.43h3.84v12.84c1.91-2.96,4.7-4.44,8.35-4.44Zm-.49,19.84c2.21,0,4.06-.77,5.56-2.31,1.5-1.54,2.25-3.45,2.25-5.72s-.75-4.18-2.25-5.72c-1.5-1.54-3.36-2.31-5.56-2.31s-4.11,.77-5.61,2.31c-1.5,1.54-2.25,3.45-2.25,5.72s.75,4.18,2.25,5.72c1.5,1.54,3.37,2.31,5.61,2.31Z"/><path class="cls-13" d="M488.56,572.69c-2.27,2.27-5.02,3.41-8.26,3.41s-5.98-1.14-8.24-3.41c-2.25-2.27-3.38-5.07-3.38-8.4s1.13-6.12,3.38-8.4c2.25-2.27,5-3.41,8.24-3.41s5.99,1.14,8.26,3.41c2.27,2.27,3.4,5.07,3.4,8.4s-1.13,6.12-3.4,8.4Zm-8.26-.4c2.21,0,4.06-.76,5.56-2.29,1.5-1.53,2.25-3.43,2.25-5.7s-.75-4.18-2.25-5.7c-1.5-1.53-3.36-2.29-5.56-2.29s-4.02,.76-5.52,2.29c-1.5,1.53-2.25,3.43-2.25,5.7s.75,4.18,2.25,5.7c1.5,1.53,3.34,2.29,5.52,2.29Z"/><path class="cls-13" d="M496.51,575.52v-32.78h3.84v32.78h-3.84Z"/><path class="cls-13" d="M518.23,556.84h-5.87v12.17c0,1.11,.21,1.89,.64,2.36,.43,.46,1.08,.7,1.96,.72,.88,.02,1.97,0,3.27-.07v3.5c-3.36,.45-5.81,.17-7.38-.83s-2.34-2.9-2.34-5.68v-12.17h-4.37v-3.77h4.37v-5.12l3.84-1.17v6.29h5.87v3.77Z"/><path class="cls-13" d="M107.86,606.36c3.09,0,5.73,1.14,7.9,3.43,2.18,2.29,3.27,5.08,3.27,8.37s-1.09,6.08-3.27,8.37c-2.18,2.29-4.81,3.43-7.9,3.43-3.65,0-6.43-1.48-8.35-4.44v3.86h-3.84v-31.43h3.84v12.84c1.91-2.96,4.7-4.44,8.35-4.44Zm-.49,19.84c2.21,0,4.06-.77,5.56-2.31,1.5-1.54,2.25-3.45,2.25-5.72s-.75-4.18-2.25-5.72c-1.5-1.54-3.36-2.31-5.56-2.31s-4.11,.77-5.61,2.31c-1.5,1.54-2.25,3.45-2.25,5.72s.75,4.18,2.25,5.72c1.5,1.54,3.37,2.31,5.61,2.31Z"/><path class="cls-13" d="M126.32,619.96c.38,2.01,1.29,3.56,2.72,4.67,1.43,1.11,3.19,1.66,5.28,1.66,2.91,0,5.03-1.09,6.36-3.28l3.27,1.89c-2.15,3.38-5.39,5.07-9.72,5.07-3.5,0-6.35-1.11-8.54-3.34-2.19-2.23-3.29-5.05-3.29-8.46s1.07-6.2,3.22-8.44c2.15-2.25,4.93-3.37,8.35-3.37,3.24,0,5.88,1.16,7.93,3.48,2.05,2.32,3.07,5.11,3.07,8.37,0,.57-.04,1.15-.13,1.75h-18.5Zm7.64-9.92c-2.06,0-3.77,.59-5.12,1.77-1.35,1.18-2.19,2.76-2.52,4.74h14.75c-.32-2.12-1.15-3.74-2.47-4.85s-2.87-1.66-4.64-1.66Z"/><path class="cls-13" d="M151.31,602.86c-.74,0-1.35-.25-1.85-.76-.5-.51-.75-1.12-.75-1.84s.25-1.34,.75-1.86c.5-.52,1.12-.79,1.85-.79s1.31,.26,1.81,.79c.5,.52,.75,1.15,.75,1.86s-.25,1.33-.75,1.84c-.5,.51-1.1,.76-1.81,.76Zm-1.94,26.53v-22.45h3.84v22.45h-3.84Z"/><path class="cls-13" d="M170.08,606.36c2.59,0,4.67,.83,6.23,2.49s2.34,3.91,2.34,6.76v13.78h-3.84v-13.56c0-1.83-.49-3.24-1.46-4.24-.97-1-2.31-1.5-4.02-1.5-1.91,0-3.46,.61-4.64,1.82-1.18,1.21-1.77,3.08-1.77,5.59v11.9h-3.84v-22.45h3.84v3.23c1.56-2.54,3.95-3.82,7.15-3.82Z"/><path class="cls-13" d="M202.32,606.94h3.8v21.51c0,3.32-1.1,5.9-3.31,7.74-2.21,1.84-4.86,2.76-7.95,2.76-2.47,0-4.61-.47-6.4-1.41-1.8-.94-3.15-2.3-4.06-4.06l3.36-1.93c1.21,2.51,3.61,3.77,7.2,3.77,2.3,0,4.1-.61,5.41-1.84,1.31-1.23,1.97-2.9,1.97-5.03v-3.19c-1.94,2.99-4.71,4.49-8.3,4.49-3.15,0-5.81-1.14-7.99-3.41-2.18-2.27-3.27-5.04-3.27-8.31s1.09-6.02,3.27-8.28c2.18-2.26,4.84-3.39,7.99-3.39,3.62,0,6.39,1.48,8.3,4.44v-3.86Zm-13.47,16.79c1.5,1.53,3.37,2.29,5.61,2.29s4.11-.76,5.61-2.29c1.5-1.53,2.25-3.43,2.25-5.7s-.75-4.13-2.25-5.66c-1.5-1.53-3.37-2.29-5.61-2.29s-4.11,.76-5.61,2.29c-1.5,1.53-2.25,3.41-2.25,5.66s.75,4.18,2.25,5.7Z"/><path class="cls-13" d="M234.99,610.72h-5.87v12.17c0,1.11,.21,1.89,.64,2.36,.43,.46,1.08,.7,1.96,.72,.88,.02,1.97,0,3.27-.07v3.5c-3.36,.45-5.81,.17-7.38-.83s-2.34-2.9-2.34-5.68v-12.17h-4.37v-3.77h4.37v-5.12l3.84-1.17v6.29h5.87v3.77Z"/><path class="cls-13" d="M241.13,619.96c.38,2.01,1.29,3.56,2.72,4.67,1.43,1.11,3.19,1.66,5.28,1.66,2.91,0,5.03-1.09,6.36-3.28l3.27,1.89c-2.15,3.38-5.39,5.07-9.72,5.07-3.5,0-6.35-1.11-8.54-3.34-2.19-2.23-3.29-5.05-3.29-8.46s1.07-6.2,3.22-8.44c2.15-2.25,4.93-3.37,8.35-3.37,3.24,0,5.88,1.16,7.93,3.48,2.05,2.32,3.07,5.11,3.07,8.37,0,.57-.04,1.15-.13,1.75h-18.5Zm7.64-9.92c-2.06,0-3.77,.59-5.12,1.77-1.35,1.18-2.19,2.76-2.52,4.74h14.75c-.32-2.12-1.15-3.74-2.47-4.85s-2.87-1.66-4.64-1.66Z"/><path class="cls-13" d="M266.61,612.94c0,.85,.43,1.53,1.3,2.04,.87,.51,1.9,.95,3.1,1.31,1.2,.36,2.41,.72,3.62,1.08,1.21,.36,2.24,1.04,3.08,2.04s1.26,2.27,1.26,3.84c0,2.04-.77,3.67-2.32,4.89-1.54,1.23-3.53,1.84-5.94,1.84-2.15,0-3.99-.48-5.52-1.44-1.53-.96-2.62-2.23-3.27-3.82l3.31-1.93c.35,1.08,1.02,1.93,1.99,2.56,.97,.63,2.13,.94,3.49,.94,1.27,0,2.31-.25,3.14-.74s1.24-1.26,1.24-2.31c0-.87-.43-1.56-1.28-2.08-.85-.52-1.88-.97-3.08-1.33-1.2-.37-2.41-.73-3.62-1.1-1.21-.37-2.25-1.03-3.1-1.99-.85-.96-1.28-2.18-1.28-3.68,0-1.95,.74-3.55,2.23-4.8,1.49-1.26,3.35-1.89,5.59-1.89,1.8,0,3.39,.41,4.79,1.23,1.4,.82,2.45,1.97,3.16,3.43l-3.22,1.84c-.79-1.92-2.37-2.87-4.73-2.87-1.09,0-2.02,.26-2.78,.77-.77,.51-1.15,1.24-1.15,2.17Z"/><path class="cls-13" d="M294.65,610.72h-5.87v12.17c0,1.11,.21,1.89,.64,2.36,.43,.46,1.08,.7,1.96,.72,.88,.02,1.97,0,3.27-.07v3.5c-3.36,.45-5.82,.17-7.38-.83-1.56-1-2.34-2.9-2.34-5.68v-12.17h-4.37v-3.77h4.37v-5.12l3.84-1.17v6.29h5.87v3.77Z"/><path class="cls-13" d="M300.79,619.96c.38,2.01,1.29,3.56,2.72,4.67,1.43,1.11,3.19,1.66,5.28,1.66,2.92,0,5.03-1.09,6.36-3.28l3.27,1.89c-2.15,3.38-5.39,5.07-9.71,5.07-3.5,0-6.35-1.11-8.54-3.34-2.19-2.23-3.29-5.05-3.29-8.46s1.07-6.2,3.22-8.44c2.15-2.25,4.93-3.37,8.35-3.37,3.24,0,5.88,1.16,7.93,3.48,2.05,2.32,3.07,5.11,3.07,8.37,0,.57-.04,1.15-.13,1.75h-18.5Zm7.64-9.92c-2.06,0-3.77,.59-5.12,1.77-1.35,1.18-2.19,2.76-2.52,4.74h14.75c-.32-2.12-1.15-3.74-2.47-4.85-1.32-1.11-2.87-1.66-4.64-1.66Z"/><path class="cls-13" d="M342.08,597.97h3.84v31.43h-3.84v-3.86c-1.91,2.96-4.7,4.44-8.35,4.44-3.09,0-5.73-1.14-7.9-3.43-2.18-2.29-3.27-5.08-3.27-8.37s1.09-6.08,3.27-8.37c2.18-2.29,4.81-3.43,7.9-3.43,3.65,0,6.43,1.48,8.35,4.44v-12.84Zm-7.86,28.24c2.24,0,4.11-.77,5.61-2.31,1.5-1.54,2.25-3.45,2.25-5.72s-.75-4.18-2.25-5.72c-1.5-1.54-3.37-2.31-5.61-2.31s-4.06,.77-5.56,2.31c-1.5,1.54-2.25,3.45-2.25,5.72s.75,4.18,2.25,5.72c1.5,1.54,3.36,2.31,5.56,2.31Z"/><path class="cls-13" d="M354.18,629.89c-.79,0-1.47-.28-2.03-.85-.56-.57-.84-1.26-.84-2.06s.28-1.5,.84-2.07c.56-.57,1.24-.85,2.03-.85s1.51,.28,2.05,.85c.54,.57,.82,1.26,.82,2.07s-.27,1.5-.82,2.06c-.55,.57-1.23,.85-2.05,.85Z"/></g><circle class="cls-13" cx="98.71" cy="369.64" r="5.95"/><circle class="cls-18" cx="128.43" cy="369.64" r="5.95"/><circle class="cls-13" cx="158.16" cy="369.64" r="5.95"/><circle class="cls-13" cx="187.89" cy="369.64" r="5.95"/><rect class="cls-25" x="668.94" y="120.83" width="1172.7" height="817.27" rx="32.35" ry="32.35"/><g class="cls-23"><g class="cls-12"><g><rect class="cls-4" x="632.75" y="106.88" width="1223.09" height="865.86"/><line class="cls-4" x1="632.75" y1="955.76" x2="1855.85" y2="955.76"/><line class="cls-4" x1="632.75" y1="938.78" x2="1855.85" y2="938.78"/><line class="cls-4" x1="632.75" y1="921.8" x2="1855.85" y2="921.8"/><line class="cls-4" x1="632.75" y1="904.83" x2="1855.85" y2="904.83"/><line class="cls-4" x1="632.75" y1="887.85" x2="1855.85" y2="887.85"/><line class="cls-4" x1="632.75" y1="870.87" x2="1855.85" y2="870.87"/><line class="cls-4" x1="632.75" y1="853.89" x2="1855.85" y2="853.89"/><line class="cls-4" x1="632.75" y1="836.91" x2="1855.85" y2="836.91"/><line class="cls-4" x1="632.75" y1="819.94" x2="1855.85" y2="819.94"/><line class="cls-4" x1="632.75" y1="802.96" x2="1855.85" y2="802.96"/><line class="cls-4" x1="632.75" y1="785.98" x2="1855.85" y2="785.98"/><line class="cls-4" x1="632.75" y1="769" x2="1855.85" y2="769"/><line class="cls-4" x1="632.75" y1="752.03" x2="1855.85" y2="752.03"/><line class="cls-4" x1="632.75" y1="735.05" x2="1855.85" y2="735.05"/><line class="cls-4" x1="632.75" y1="718.07" x2="1855.85" y2="718.07"/><line class="cls-4" x1="632.75" y1="701.09" x2="1855.85" y2="701.09"/><line class="cls-4" x1="632.75" y1="684.12" x2="1855.85" y2="684.12"/><line class="cls-4" x1="632.75" y1="667.14" x2="1855.85" y2="667.14"/><line class="cls-4" x1="632.75" y1="650.16" x2="1855.85" y2="650.16"/><line class="cls-4" x1="632.75" y1="633.18" x2="1855.85" y2="633.18"/><line class="cls-4" x1="632.75" y1="616.21" x2="1855.85" y2="616.21"/><line class="cls-4" x1="632.75" y1="599.23" x2="1855.85" y2="599.23"/><line class="cls-4" x1="632.75" y1="582.25" x2="1855.85" y2="582.25"/><line class="cls-4" x1="632.75" y1="565.27" x2="1855.85" y2="565.27"/><line class="cls-4" x1="632.75" y1="548.29" x2="1855.85" y2="548.29"/><line class="cls-4" x1="632.75" y1="531.32" x2="1855.85" y2="531.32"/><line class="cls-4" x1="632.75" y1="514.34" x2="1855.85" y2="514.34"/><line class="cls-4" x1="632.75" y1="497.36" x2="1855.85" y2="497.36"/><line class="cls-4" x1="632.75" y1="480.38" x2="1855.85" y2="480.38"/><line class="cls-4" x1="632.75" y1="463.41" x2="1855.85" y2="463.41"/><line class="cls-4" x1="632.75" y1="446.43" x2="1855.85" y2="446.43"/><line class="cls-4" x1="632.75" y1="429.45" x2="1855.85" y2="429.45"/><line class="cls-4" x1="632.75" y1="412.47" x2="1855.85" y2="412.47"/><line class="cls-4" x1="632.75" y1="395.5" x2="1855.85" y2="395.5"/><line class="cls-4" x1="632.75" y1="378.52" x2="1855.85" y2="378.52"/><line class="cls-4" x1="632.75" y1="361.54" x2="1855.85" y2="361.54"/><line class="cls-4" x1="632.75" y1="344.56" x2="1855.85" y2="344.56"/><line class="cls-4" x1="632.75" y1="327.59" x2="1855.85" y2="327.59"/><line class="cls-4" x1="632.75" y1="310.61" x2="1855.85" y2="310.61"/><line class="cls-4" x1="632.75" y1="293.63" x2="1855.85" y2="293.63"/><line class="cls-4" x1="632.75" y1="276.65" x2="1855.85" y2="276.65"/><line class="cls-4" x1="632.75" y1="259.68" x2="1855.85" y2="259.68"/><line class="cls-4" x1="632.75" y1="242.7" x2="1855.85" y2="242.7"/><line class="cls-4" x1="632.75" y1="225.72" x2="1855.85" y2="225.72"/><line class="cls-4" x1="632.75" y1="208.74" x2="1855.85" y2="208.74"/><line class="cls-4" x1="632.75" y1="191.76" x2="1855.85" y2="191.76"/><line class="cls-4" x1="632.75" y1="174.79" x2="1855.85" y2="174.79"/><line class="cls-4" x1="632.75" y1="157.81" x2="1855.85" y2="157.81"/><line class="cls-4" x1="632.75" y1="140.83" x2="1855.85" y2="140.83"/><line class="cls-4" x1="632.75" y1="123.85" x2="1855.85" y2="123.85"/><line class="cls-4" x1="1835.8" y1="106.88" x2="1835.8" y2="972.74"/><line class="cls-4" x1="1815.75" y1="106.88" x2="1815.75" y2="972.74"/><line class="cls-4" x1="1795.69" y1="106.88" x2="1795.69" y2="972.74"/><line class="cls-4" x1="1775.64" y1="106.88" x2="1775.64" y2="972.74"/><line class="cls-4" x1="1755.59" y1="106.88" x2="1755.59" y2="972.74"/><line class="cls-4" x1="1735.54" y1="106.88" x2="1735.54" y2="972.74"/><line class="cls-4" x1="1715.49" y1="106.88" x2="1715.49" y2="972.74"/><line class="cls-4" x1="1695.44" y1="106.88" x2="1695.44" y2="972.74"/><line class="cls-4" x1="1675.39" y1="106.88" x2="1675.39" y2="972.74"/><line class="cls-4" x1="1655.34" y1="106.88" x2="1655.34" y2="972.74"/><line class="cls-4" x1="1635.29" y1="106.88" x2="1635.29" y2="972.74"/><line class="cls-4" x1="1615.24" y1="106.88" x2="1615.24" y2="972.74"/><line class="cls-4" x1="1595.19" y1="106.88" x2="1595.19" y2="972.74"/><line class="cls-4" x1="1575.14" y1="106.88" x2="1575.14" y2="972.74"/><line class="cls-4" x1="1555.09" y1="106.88" x2="1555.09" y2="972.74"/><line class="cls-4" x1="1535.04" y1="106.88" x2="1535.04" y2="972.74"/><line class="cls-4" x1="1514.98" y1="106.88" x2="1514.98" y2="972.74"/><line class="cls-4" x1="1494.93" y1="106.88" x2="1494.93" y2="972.74"/><line class="cls-4" x1="1474.88" y1="106.88" x2="1474.88" y2="972.74"/><line class="cls-4" x1="1454.83" y1="106.88" x2="1454.83" y2="972.74"/><line class="cls-4" x1="1434.78" y1="106.88" x2="1434.78" y2="972.74"/><line class="cls-4" x1="1414.73" y1="106.88" x2="1414.73" y2="972.74"/><line class="cls-4" x1="1394.68" y1="106.88" x2="1394.68" y2="972.74"/><line class="cls-4" x1="1374.63" y1="106.88" x2="1374.63" y2="972.74"/><line class="cls-4" x1="1354.58" y1="106.88" x2="1354.58" y2="972.74"/><line class="cls-4" x1="1334.53" y1="106.88" x2="1334.53" y2="972.74"/><line class="cls-4" x1="1314.48" y1="106.88" x2="1314.48" y2="972.74"/><line class="cls-4" x1="1294.43" y1="106.88" x2="1294.43" y2="972.74"/><line class="cls-4" x1="1274.38" y1="106.88" x2="1274.38" y2="972.74"/><line class="cls-4" x1="1254.33" y1="106.88" x2="1254.33" y2="972.74"/><line class="cls-4" x1="1234.27" y1="106.88" x2="1234.27" y2="972.74"/><line class="cls-4" x1="1214.22" y1="106.88" x2="1214.22" y2="972.74"/><line class="cls-4" x1="1194.17" y1="106.88" x2="1194.17" y2="972.74"/><line class="cls-4" x1="1174.12" y1="106.88" x2="1174.12" y2="972.74"/><line class="cls-4" x1="1154.07" y1="106.88" x2="1154.07" y2="972.74"/><line class="cls-4" x1="1134.02" y1="106.88" x2="1134.02" y2="972.74"/><line class="cls-4" x1="1113.97" y1="106.88" x2="1113.97" y2="972.74"/><line class="cls-4" x1="1093.92" y1="106.88" x2="1093.92" y2="972.74"/><line class="cls-4" x1="1073.87" y1="106.88" x2="1073.87" y2="972.74"/><line class="cls-4" x1="1053.82" y1="106.88" x2="1053.82" y2="972.74"/><line class="cls-4" x1="1033.77" y1="106.88" x2="1033.77" y2="972.74"/><line class="cls-4" x1="1013.72" y1="106.88" x2="1013.72" y2="972.74"/><line class="cls-4" x1="993.67" y1="106.88" x2="993.67" y2="972.74"/><line class="cls-4" x1="973.62" y1="106.88" x2="973.62" y2="972.74"/><line class="cls-4" x1="953.56" y1="106.88" x2="953.56" y2="972.74"/><line class="cls-4" x1="933.51" y1="106.88" x2="933.51" y2="972.74"/><line class="cls-4" x1="913.46" y1="106.88" x2="913.46" y2="972.74"/><line class="cls-4" x1="893.41" y1="106.88" x2="893.41" y2="972.74"/><line class="cls-4" x1="873.36" y1="106.88" x2="873.36" y2="972.74"/><line class="cls-4" x1="853.31" y1="106.88" x2="853.31" y2="972.74"/><line class="cls-4" x1="833.26" y1="106.88" x2="833.26" y2="972.74"/><line class="cls-4" x1="813.21" y1="106.88" x2="813.21" y2="972.74"/><line class="cls-4" x1="793.16" y1="106.88" x2="793.16" y2="972.74"/><line class="cls-4" x1="773.11" y1="106.88" x2="773.11" y2="972.74"/><line class="cls-4" x1="753.06" y1="106.88" x2="753.06" y2="972.74"/><line class="cls-4" x1="733.01" y1="106.88" x2="733.01" y2="972.74"/><line class="cls-4" x1="712.96" y1="106.88" x2="712.96" y2="972.74"/><line class="cls-4" x1="692.91" y1="106.88" x2="692.91" y2="972.74"/><line class="cls-4" x1="672.85" y1="106.88" x2="672.85" y2="972.74"/><line class="cls-4" x1="652.8" y1="106.88" x2="652.8" y2="972.74"/></g></g></g><path class="cls-2" d="M646.81,293.28V155.57c0-30.35,24.75-54.96,55.29-54.96H1808.49c30.53,0,55.29,24.61,55.29,54.96V909.06c0,30.35-24.75,54.96-55.29,54.96H702.1c-30.53,0-55.29-24.61-55.29-54.96V287.11"/><line class="cls-9" x1="751.01" y1="122.68" x2="751.01" y2="939.95"/><line class="cls-9" x1="952.28" y1="122.68" x2="952.28" y2="939.95"/><line class="cls-9" x1="1153.56" y1="122.68" x2="1153.56" y2="939.95"/><line class="cls-6" x1="1841.65" y1="531.32" x2="668.94" y2="531.32"/><line class="cls-9" x1="1354.84" y1="122.68" x2="1354.84" y2="939.95"/><line class="cls-9" x1="1553.12" y1="123.68" x2="1553.12" y2="940.95"/><line class="cls-9" x1="1753.39" y1="122.68" x2="1753.39" y2="939.95"/><line class="cls-3" x1="668.94" y1="327.73" x2="1841.65" y2="327.73"/><line class="cls-3" x1="668.94" y1="734.9" x2="1841.65" y2="734.9"/><g><line class="cls-5" x1="667.97" y1="258.32" x2="673.97" y2="258.32"/><line class="cls-8" x1="685.94" y1="258.32" x2="1828.69" y2="258.32"/><line class="cls-5" x1="1834.68" y1="258.32" x2="1840.68" y2="258.32"/></g><g><line class="cls-5" x1="667.97" y1="804.31" x2="673.97" y2="804.31"/><line class="cls-8" x1="685.94" y1="804.31" x2="1828.69" y2="804.31"/><line class="cls-5" x1="1834.68" y1="804.31" x2="1840.68" y2="804.31"/></g><g class="cls-24"><path class="cls-7" d="M666.65,514.04c1.45,1.06,2.54,3.68,3.45,6.92,.91,3.24,1.63,6.96,2.36,10.43,.73,3.47,1.45,6.65,2.36,8.69,.45,1.02,.95,1.76,1.52,2.14,.57,.41,1.2,.47,1.93,.14,2.9-1.44,4.35-6.74,5.8-10.98,.73-2.14,1.45-4.08,2.36-5.3,.91-1.22,2-1.68,3.45-1.24,1.45,.47,2.54,1.58,3.45,2.78,.91,1.19,1.63,2.54,2.36,3.75,1.45,2.46,2.9,4.08,5.8,3.4,1.45-.32,2.54-.97,3.45-1.57,.91-.61,1.63-1.26,2.36-1.83,.73-.56,1.45-1.03,2.36-1.27,.91-.23,2-.25,3.45-.08,5.8,.94,5.8,2.12,11.61,1.6,2.9-.15,4.35-.2,5.8-.25,1.45-.04,2.9,.03,5.8-.07,5.81-.12,5.81,.08,11.61,.63,2.9,.23,4.35-.04,5.8-.56,1.45-.51,2.9-1.41,5.8-1.83,1.45-.16,2.54-.19,3.45,.17,.91,.33,1.63,.94,2.36,1.66,1.45,1.42,2.9,3.28,5.8,4.07,1.45,.35,2.54,.07,3.45-.71,.91-.77,1.63-2,2.36-3.36,.73-1.37,1.45-2.89,2.36-4.21,.91-1.31,2-2.45,3.45-2.86,1.45-.4,2.54,.21,3.45,1.53,.91,1.32,1.63,3.34,2.36,5.54,.73,2.19,1.45,4.55,2.36,6.51,.91,1.96,2,3.55,3.45,4,1.45,.45,2.54-.58,3.45-2.57,.91-1.98,1.63-4.88,2.36-7.94,1.45-6.11,2.9-12.99,5.8-14.09,1.45-.47,2.54,.86,3.45,3.51,.91,2.64,1.63,6.47,2.36,10.58,.73,4.11,1.45,8.43,2.36,12.04,.91,3.62,2,6.42,3.45,7.32,1.45,.86,2.54-1.02,3.45-4.68,.91-3.65,1.63-8.98,2.36-14.68,.73-5.69,1.45-11.73,2.36-16.66,.91-4.92,2-8.79,3.45-9.69,1.45-.9,2.54,1.82,3.45,6.8,.91,5,1.63,12.12,2.36,19.55,.73,7.42,1.45,15.15,2.36,21.29,.91,6.17,2,10.62,3.45,11.31,1.45,.6,2.54-3.11,3.45-9.26,.91-6.16,1.63-14.66,2.36-23.34,.73-8.69,1.45-17.52,2.36-24.31,.91-6.79,2-11.55,3.45-11.83,2.9-.64,4.35,17.45,5.8,36.13,1.45,18.62,2.9,37.82,5.8,38.46,2.9,.64,4.35-18.62,5.81-38.46,1.45-19.76,2.9-39.96,5.81-40.43,2.9-.44,4.35,19.93,5.8,40.43,1.45,20.47,2.9,41.34,5.8,41.37,2.9,.07,4.35-20.62,5.8-41.37,1.45-20.73,2.9-41.31,5.8-41.15,1.45,.04,2.54,5.34,3.45,13.07,.91,7.73,1.63,17.94,2.36,28.09,1.45,20.27,2.9,40.36,5.8,39.83,5.8-1.19,5.8-79.23,11.61-77.39,2.9,1.09,4.35,20.03,5.81,37.56,.73,8.81,1.45,17.31,2.36,23.31,.91,6.06,2,9.41,3.45,8.45,.73-.48,1.36-1.94,1.93-3.96,.57-2.04,1.07-4.65,1.52-7.65,.91-5.98,1.63-13.28,2.36-20.15,.73-6.88,1.45-13.33,2.36-17.67,.91-4.36,2-6.54,3.45-5.42,.73,.55,1.36,1.75,1.93,3.32,.57,1.55,1.07,3.48,1.52,5.62,.91,4.3,1.63,9.39,2.36,14.14,.73,4.77,1.45,9.13,2.36,12.11,.91,3.01,2,4.38,3.45,3.8,.73-.31,1.36-1.09,1.93-2.11,.57-.99,1.07-2.29,1.52-3.76,.91-2.95,1.63-6.57,2.36-10.05,1.45-7,2.9-13.37,5.8-12.96,2.9,.45,4.35,6.91,5.81,12.96,1.45,6.09,2.9,11.77,5.81,11.32,2.9-.45,4.35-6.09,5.81-11.32,1.45-5.28,2.9-10.11,5.81-9.69,2.9,.38,4.35,5.21,5.8,9.69,1.45,4.52,2.9,8.69,5.8,8.31,2.9-.38,4.35-4.52,5.8-8.31,1.45-3.84,2.9-7.28,5.8-6.95,2.9,.29,4.35,3.76,5.81,6.95,1.45,3.22,2.9,6.18,5.81,5.89,2.9-.29,4.35-3.22,5.81-5.89,1.45-2.7,2.9-5.08,5.81-4.9,2.9,.2,4.35,2.64,5.8,4.9,1.45,2.28,2.9,4.39,5.8,4.19,2.9-.2,4.35-2.28,5.8-4.19,1.45-1.92,2.9-3.74,5.81-3.64,5.81,.23,5.81,7.16,11.61,6.93,2.9-.11,4.35-1.71,5.8-3.28,1.45-1.58,2.9-3.15,5.8-3.14,5.8,.03,5.8,6.26,11.61,6.23,2.9-.02,4.35-1.48,5.81-3.09,1.45-1.58,2.9-3.24,5.81-3.31,5.8-.17,5.8,6.71,11.61,6.88,5.8,.17,5.8-7.24,11.61-7.41,5.8-.17,5.8,7.77,11.61,7.95,5.8,.08,5.8-7.98,11.61-9.14,2.9-.67,4.35,1.77,5.8,5.03,1.45,3.18,2.9,7.27,5.8,8.55,1.45,.59,2.54-.06,3.45-1.65,.91-1.59,1.63-4.12,2.36-6.9,.73-2.78,1.45-5.82,2.36-8.4,.91-2.57,2-4.74,3.45-5.44,1.45-.69,2.54,.56,3.45,3.23,.91,2.63,1.63,6.5,2.36,10.6,.73,4.1,1.45,8.43,2.36,11.95,.91,3.54,2,6.18,3.45,6.69,2.9,1.02,4.35-8.47,5.8-18.64,.73-5.06,1.45-10.24,2.36-14.26,.91-3.98,1.99-6.76,3.45-6.96,2.9-.32,4.35,10.37,5.8,21.22,1.45,10.82,2.9,21.93,5.8,22.12,2.9,.1,4.35-10.97,5.8-22.12,1.45-11.13,2.9-22.42,5.8-22.35,5.81,.07,5.81,44.75,11.61,44.37,2.9-.14,4.35-11.19,5.81-22.02,1.45-10.84,2.9-21.42,5.81-21.13,2.9,.28,4.35,10.84,5.8,21.13,1.45,10.32,2.9,20.4,5.8,20.05,2.9-.34,4.35-10.35,5.8-20.05,1.45-9.74,2.9-19.16,5.8-18.82,5.8,.67,5.8,37.27,11.61,36.73,2.9-.24,4.35-9.18,5.81-17.9,1.45-8.73,2.9-17.39,5.81-17.32,2.9,.1,4.35,8.64,5.8,17.32,1.45,8.67,2.9,17.36,5.8,17.49,2.9,.25,4.35-8.51,5.8-17.49,.73-4.48,1.45-9.01,2.36-12.46,.91-3.47,2-5.92,3.45-6.12,2.9-.43,4.35,8.88,5.8,18.58,1.45,9.65,2.9,19.87,5.8,20.5,2.9,.61,4.35-9.61,5.81-20.5,.73-5.44,1.45-11.02,2.36-15.37,.91-4.35,2-7.49,3.45-7.88,2.9-.71,4.35,10.53,5.8,23.25,.73,6.36,1.45,13.06,2.36,18.74,.45,2.8,.95,5.47,1.52,7.56,.28,1.04,.58,2.05,.9,2.85,.32,.81,.66,1.44,1.02,1.94,1.45,1.89,2.54-.38,3.45-6.18,.91-5.79,1.63-14.83,2.36-24.91,.73-10.07,1.45-21.13,2.36-30.77,.45-4.8,.95-9.23,1.52-12.86,.57-3.62,1.2-6.45,1.93-7.88,.73-1.42,1.36-1.02,1.93,1,.57,1.99,1.07,5.7,1.52,10.57,.45,4.88,.86,10.95,1.25,17.77,.39,6.83,.75,14.39,1.11,22.17,.73,15.54,1.45,32.06,2.36,45.31,.91,13.21,2,23.31,3.45,24.79,2.9,3.13,4.35-33.19,5.81-70.1,.38-9.25,.76-18.49,1.11-27.16,.39-8.68,.79-16.83,1.25-23.73,.91-13.85,2-23.03,3.45-22.22,.18,.09,.36,.3,.53,.68,.17,.39,.34,.91,.5,1.54,.32,1.28,.62,3.01,.9,5.17,.57,4.4,1.07,10.28,1.52,17.23,.91,13.87,1.63,31.55,2.36,48.48,.73,16.94,1.45,33.11,2.36,44.1,.91,10.97,2,16.69,3.45,13.45,.73-1.56,1.36-4.6,1.93-8.76,.57-4.12,1.07-9.11,1.52-14.5,.91-10.84,1.63-23.25,2.36-34.29,.73-11.06,1.45-20.78,2.36-26.49,.45-2.87,.95-4.73,1.52-5.39,.28-.34,.58-.34,.9-.11,.32,.21,.66,.73,1.02,1.54,1.45,3.39,2.54,8.9,3.45,14.43,.91,5.53,1.63,11.23,2.36,16.04,.73,4.83,1.45,8.75,2.36,10.95,.91,2.2,2,2.65,3.45,1.45,5.8-4.13,5.8-22.4,11.61-19.67,1.45,.5,2.54,1.7,3.45,3.05,.91,1.36,1.63,2.88,2.36,4.22,1.45,2.71,2.9,4.47,5.81,3.71,1.45-.37,2.54-1.07,3.45-1.76,.91-.7,1.63-1.35,2.36-1.95,1.45-1.22,2.9-1.9,5.81-1.36,2.9,.33,4.35,1,5.81,1.36,1.45,.36,2.9,.56,5.81,.42,2.9-.18,4.35-.28,5.81-.42,1.45-.14,2.9-.27,5.81-.26,2.9,0,4.35,.14,5.81,.26,1.45,.13,2.9,.22,5.81,.36,2.9,.22,4.36,.14,5.81-.36,1.45-.46,2.9-1.37,5.81-2.17,.73-.19,1.36-.28,1.93-.27,.57-.02,1.07,.08,1.52,.28,.91,.4,1.63,1.18,2.36,2.16,1.45,1.94,2.9,4.88,5.81,6.25,1.45,.7,2.54,.36,3.45-.83,.91-1.19,1.63-3.16,2.36-5.41,.73-2.26,1.45-4.83,2.36-7.11,.91-2.28,2-4.25,3.45-5.18,1.45-.9,2.54,.06,3.45,2.4,.91,2.32,1.63,5.93,2.36,9.89,.73,3.95,1.45,8.25,2.36,11.86,.91,3.6,2,6.59,3.45,7.51,1.45,.91,2.54-.93,3.45-4.59,.91-3.64,1.63-9.04,2.36-14.78,.73-5.73,1.45-11.81,2.36-16.77,.91-4.95,2-8.74,3.45-9.58,1.45-.83,2.54,1.92,3.45,6.95,.91,4.98,1.63,12.06,2.36,19.41,1.45,14.64,2.9,30.72,5.81,31.99,1.45,.61,2.54-2.99,3.45-9.06,.91-6.04,1.63-14.39,2.36-22.93,1.45-17.02,2.9-34.95,5.81-35.7,1.45-.3,2.54,4,3.45,10.7,.91,6.73,1.63,15.83,2.36,24.99,.73,9.17,1.45,18.42,2.36,25.38,.91,6.96,2,11.73,3.45,11.76,5.81,.29,5.81-74.5,11.61-74.51,1.45-.01,2.54,4.68,3.45,11.72,.91,7.03,1.63,16.35,2.36,25.66,1.45,18.61,2.9,37.09,5.81,36.95,2.9-.14,4.35-18.62,5.81-36.95,1.45-18.32,2.9-36.34,5.81-36,2.9,.34,4.35,18.32,5.81,36,1.45,17.74,2.9,35.01,5.81,34.51,2.9-.51,4.35-17.74,5.8-34.51,.73-8.39,1.45-16.73,2.36-22.82,.91-6.1,2-9.97,3.45-9.67,2.9,.65,4.35,16.86,5.81,32.49,.73,7.83,1.45,15.55,2.36,21.2,.91,5.64,2,9.18,3.45,8.83,1.45-.35,2.54-4.32,3.45-9.94,.91-5.63,1.63-12.92,2.36-20.09,.73-7.17,1.45-14.2,2.36-19.33,.91-5.13,2-8.29,3.45-7.91,1.45,.38,2.54,4.02,3.45,9.12,.91,5.1,1.63,11.68,2.36,18.12,.73,6.44,1.45,12.73,2.36,17.29,.91,4.56,2,7.36,3.45,6.98,1.45-.38,2.54-3.65,3.45-8.19,.91-4.54,1.63-10.38,2.36-16.07,.73-5.69,1.45-11.25,2.36-15.24,.91-4,2-6.44,3.45-6.07,1.45,.37,2.54,3.26,3.45,7.25,.91,3.99,1.63,9.1,2.36,14.07,1.45,9.98,2.9,19.22,5.81,18.54,2.9-.7,4.35-9.94,5.81-18.54,1.45-8.67,2.9-16.65,5.81-16.1,2.9,.57,4.36,8.6,5.81,16.1,1.45,7.57,2.9,14.53,5.81,14.16,2.9-.4,4.36-7.47,5.81-14.16,.73-3.36,1.45-6.64,2.36-9.03,.45-1.19,.95-2.15,1.52-2.8,.57-.67,1.2-1.03,1.93-.99,2.9,.21,4.36,6.6,5.81,12.81,1.45,6.25,2.9,12.23,5.81,12.11,5.81-.12,5.81-24.08,11.62-24.27,5.81-.32,5.81,24.38,11.62,25.1,2.9,.28,4.35-6.14,5.81-12.94,1.45-6.79,2.9-13.9,5.81-14.39,2.9-.55,4.36,6.67,5.81,14.39,1.45,7.7,2.9,15.65,5.81,17.39,.73,.43,1.36,.26,1.93-.35,.57-.66,1.07-1.82,1.52-3.41,.91-3.21,1.63-8.1,2.36-13.63,.73-5.5,1.45-11.59,2.36-16.99,.45-2.7,.95-5.26,1.52-7.41,.57-2.21,1.2-3.96,1.93-5.11,1.45-2.27,2.54-.3,3.45,5.2,.91,5.41,1.63,14.32,2.36,24.31,.73,10,1.45,21.16,2.36,31.04,.45,4.98,.95,9.65,1.52,13.56,.57,3.84,1.2,7.25,1.93,9.14,.73,1.85,1.36,2.02,1.93,.26,.28-.88,.55-2.21,.8-3.96,.25-1.73,.49-3.84,.72-6.34,.45-5,.86-11.48,1.25-18.95,.39-7.44,.75-15.86,1.11-24.75,.38-9.35,.76-18.69,1.11-27.46,.39-9.26,.79-18.45,1.25-26.98,.45-8.51,.95-16.53,1.52-23.09,.16-1.75,.31-3.31,.44-4.67,.15-1.5,.31-2.9,.47-4.19,.32-2.57,.66-4.68,1.02-6.16,1.45-5.83,2.54,1.23,3.45,18.68,.23,4.33,.44,9.26,.65,14.69,.19,5.59,.39,11.48,.6,17.57,.36,13.28,.73,27.44,1.11,41.6,.73,29.63,1.45,62.21,2.36,90.19,.45,14.02,.95,27.08,1.52,37.73,.28,5.4,.58,10.29,.91,14.36,.16,2.01,.33,3.95,.5,5.65,.17,1.7,.35,3.18,.53,4.4"/></g></g></g></svg>