<?xml version="1.0" encoding="utf-8"?>
<!-- Generator: Adobe Illustrator 26.3.1, SVG Export Plug-In . SVG Version: 6.00 Build 0)  -->
<svg version="1.1" id="Layer_2_00000039128141688974919640000017922699704282336646_"
	 xmlns="http://www.w3.org/2000/svg" xmlns:xlink="http://www.w3.org/1999/xlink" x="0px" y="0px" viewBox="0 0 1919.9 1079.4"
	 style="enable-background:new 0 0 1919.9 1079.4;" xml:space="preserve">
<style type="text/css">
	.st0{fill:#323258;}
	.st1{opacity:0.3;fill:#19192C;enable-background:new    ;}
	.st2{fill:#FFFFFF;}
	.st3{enable-background:new    ;}
	.st4{fill:none;stroke:#FFFFFF;stroke-width:6;stroke-miterlimit:10;}
	.st5{fill:#6DB6AF;}
	.st6{fill:none;}
	.st7{fill:#19192C;}
	.st8{opacity:0.8;fill:#2D2D4A;enable-background:new    ;}
	.st9{opacity:0.6;}
	.st10{clip-path:url(#SVGID_00000173145616032169335490000000076434151860725134_);}
	.st11{fill:none;stroke:#6DB6AF;stroke-width:0.75;stroke-miterlimit:10;}
	.st12{opacity:0.8;fill:none;stroke:#6DB6AF;stroke-width:2;stroke-miterlimit:10;enable-background:new    ;}
	.st13{fill:none;stroke:#FFFFFF;stroke-width:2;stroke-miterlimit:10;}
	.st14{fill:none;stroke:#FF884D;stroke-width:2;stroke-miterlimit:10;stroke-dasharray:12;}
	.st15{fill:none;stroke:#D30741;stroke-width:2;stroke-miterlimit:10;}
	.st16{fill:none;stroke:#D30741;stroke-width:2;stroke-miterlimit:10;stroke-dasharray:11.966,11.966;}
	.st17{fill:none;stroke:#6DB6AF;stroke-width:4;stroke-miterlimit:10;}
	.st18{opacity:0.8;}
	.st19{fill:none;stroke:#6DB6AF;stroke-width:3.6329;stroke-miterlimit:10;}
	.st20{fill:none;stroke:#DDA842;stroke-width:9;stroke-linecap:round;stroke-linejoin:round;stroke-miterlimit:10;}
	.st21{fill:#FF884D;}
</style>
<g>
	<rect x="1.4" y="1.7" class="st0" width="1919.9" height="1079.4"/>
	<rect x="1.4" y="1.7" class="st0" width="1919.9" height="1079.4"/>
	<rect x="1.4" y="1.7" class="st1" width="610.8" height="1079.4"/>
	<circle class="st2" cx="1886.4" cy="1042.9" r="8.6"/>
	<circle class="st2" cx="1886.4" cy="31.6" r="8.6"/>
	
		<ellipse transform="matrix(0.9999 -1.020247e-02 1.020247e-02 0.9999 -10.6383 0.4205)" class="st2" cx="35.9" cy="1042.9" rx="8.6" ry="8.6"/>
	<circle class="st2" cx="35.9" cy="37.2" r="8.6"/>
</g>
<g>
	<g class="st3">
		<path class="st2" d="M122.8,120.8h7.1V157h-7.1v-15h-13.5v15h-7.1v-36.3h7.1v14.4h13.5V120.8z"/>
		<path class="st2" d="M172.1,152.3c-3.7,3.6-8.1,5.5-13.4,5.5c-5.3,0-9.7-1.8-13.3-5.5c-3.6-3.6-5.5-8.1-5.5-13.4s1.8-9.7,5.5-13.4
			c3.6-3.6,8.1-5.5,13.3-5.5c5.2,0,9.7,1.8,13.4,5.5c3.7,3.6,5.5,8.1,5.5,13.4S175.8,148.7,172.1,152.3z M150.4,147.4
			c2.2,2.2,5,3.3,8.3,3.3s6.1-1.1,8.3-3.3c2.2-2.2,3.4-5.1,3.4-8.5c0-3.5-1.1-6.3-3.4-8.5c-2.2-2.2-5-3.4-8.3-3.4s-6.1,1.1-8.3,3.4
			c-2.2,2.2-3.4,5.1-3.4,8.5C147,142.4,148.2,145.2,150.4,147.4z"/>
		<path class="st2" d="M193,157l-9.6-36.3h7.5l7,26.9l7.6-26.9h6.2l7.6,26.8l6.9-26.8h6.9l-9.5,36.3h-8.1l-6.9-24.1l-6.8,24.1H193z"
			/>
		<path class="st2" d="M284.6,120.8v6.8h-9.8V157h-7.1v-29.4H258v-6.8H284.6z"/>
		<path class="st2" d="M322,152.3c-3.7,3.6-8.1,5.5-13.4,5.5c-5.3,0-9.7-1.8-13.3-5.5c-3.6-3.6-5.5-8.1-5.5-13.4s1.8-9.7,5.5-13.4
			c3.6-3.6,8.1-5.5,13.3-5.5c5.2,0,9.7,1.8,13.4,5.5c3.7,3.6,5.5,8.1,5.5,13.4S325.7,148.7,322,152.3z M300.3,147.4
			c2.2,2.2,5,3.3,8.3,3.3s6.1-1.1,8.3-3.3c2.2-2.2,3.4-5.1,3.4-8.5c0-3.5-1.1-6.3-3.4-8.5c-2.2-2.2-5-3.4-8.3-3.4s-6.1,1.1-8.3,3.4
			c-2.2,2.2-3.4,5.1-3.4,8.5C297,142.4,298.1,145.2,300.3,147.4z"/>
		<path class="st2" d="M369,120.8c3.5,0,6.4,1.2,8.8,3.5s3.6,5.2,3.6,8.7c0,3.4-1.2,6.3-3.6,8.7c-2.4,2.3-5.3,3.5-8.8,3.5h-6.4V157
			h-7.1v-36.3H369z M369,138.4c1.5,0,2.8-0.5,3.8-1.6c1-1.1,1.5-2.4,1.5-3.9c0-1.6-0.5-2.9-1.5-3.9c-1-1-2.3-1.6-3.8-1.6h-6.4v11
			H369z"/>
		<path class="st2" d="M398.2,150.2H412v6.8h-21v-36.3h7.1V150.2z"/>
		<path class="st2" d="M445.9,157l-2.3-6.5h-14.9l-2.2,6.5h-7.7l12.7-36.3h8.9l12.8,36.3H445.9z M431,143.8h10.2L436,129L431,143.8z
			"/>
		<path class="st2" d="M485.6,120.8l-12.4,22.1V157h-7.1v-14.1l-12.4-22.1h8.1l7.9,15.1l7.9-15.1H485.6z"/>
	</g>
</g>
<path class="st4" d="M1815.2,52.6"/>
<circle class="st2" cx="100.1" cy="371.3" r="6"/>
<circle class="st2" cx="129.9" cy="371.3" r="6"/>
<circle class="st5" cx="159.6" cy="371.3" r="6"/>
<circle class="st2" cx="189.3" cy="371.3" r="6"/>
<g>
	<rect x="94.2" y="438" class="st6" width="446.7" height="264.5"/>
	<g class="st3">
		<path class="st2" d="M103,469.4L94.8,438h6.4l5.9,23.3l6.4-23.3h5.3l6.5,23.2l5.9-23.2h5.9l-8.1,31.4h-6.9l-5.9-20.9l-5.8,20.9
			H103z"/>
		<path class="st2" d="M155,447h5.7v22.4H155v-2.6c-1.7,2.2-4.1,3.3-7.2,3.3c-2.9,0-5.5-1.1-7.6-3.4c-2.1-2.3-3.2-5.1-3.2-8.4
			c0-3.3,1.1-6.1,3.2-8.4c2.1-2.3,4.6-3.4,7.6-3.4c3.1,0,5.5,1.1,7.2,3.3V447z M144.5,462.8c1.1,1.2,2.6,1.8,4.4,1.8
			c1.8,0,3.2-0.6,4.4-1.8c1.2-1.2,1.7-2.7,1.7-4.6c0-1.9-0.6-3.4-1.7-4.6c-1.2-1.2-2.6-1.8-4.4-1.8c-1.8,0-3.2,0.6-4.4,1.8
			c-1.1,1.2-1.7,2.7-1.7,4.6C142.8,460.1,143.4,461.6,144.5,462.8z"/>
		<path class="st2" d="M178.5,452.6h-5v9.3c0,0.8,0.2,1.3,0.6,1.7c0.4,0.4,0.9,0.6,1.7,0.6c0.7,0,1.6,0,2.7,0v5.3
			c-3.9,0.4-6.7,0.1-8.3-1.1c-1.6-1.2-2.4-3.3-2.4-6.4v-9.3H164V447h3.8v-4.5l5.7-1.8v6.3h5V452.6z"/>
		<path class="st2" d="M192.4,470.1c-3.3,0-6.1-1.1-8.3-3.4c-2.2-2.3-3.3-5.1-3.3-8.4c0-3.4,1.1-6.2,3.3-8.4c2.2-2.3,5-3.4,8.3-3.4
			c2.1,0,4.1,0.5,5.9,1.6c1.8,1,3.1,2.5,4,4.2l-4.9,2.9c-0.4-0.9-1.1-1.7-2-2.2c-0.9-0.5-1.9-0.8-3-0.8c-1.7,0-3.1,0.6-4.2,1.7
			c-1.1,1.2-1.7,2.6-1.7,4.4c0,1.8,0.6,3.2,1.7,4.4c1.1,1.2,2.5,1.7,4.2,1.7c1.1,0,2.2-0.3,3.1-0.8c0.9-0.5,1.6-1.2,2-2.2l4.9,2.9
			c-1,1.8-2.3,3.2-4.1,4.2S194.5,470.1,192.4,470.1z"/>
		<path class="st2" d="M217.7,446.4c2.4,0,4.4,0.8,6,2.5c1.6,1.6,2.4,3.9,2.4,6.8v13.8h-5.7v-13.1c0-1.5-0.4-2.6-1.2-3.4
			c-0.8-0.8-1.9-1.2-3.2-1.2c-1.5,0-2.6,0.5-3.5,1.4c-0.9,0.9-1.3,2.3-1.3,4.2v12.1h-5.7V438h5.7v11.5
			C212.5,447.4,214.7,446.4,217.7,446.4z"/>
		<path class="st2" d="M252.4,470.1c-3.3,0-6.1-1.1-8.3-3.4c-2.2-2.3-3.3-5.1-3.3-8.4c0-3.4,1.1-6.2,3.3-8.4c2.2-2.3,5-3.4,8.3-3.4
			c2.1,0,4.1,0.5,5.9,1.6c1.8,1,3.1,2.5,4,4.2l-4.9,2.9c-0.4-0.9-1.1-1.7-2-2.2c-0.9-0.5-1.9-0.8-3-0.8c-1.7,0-3.1,0.6-4.2,1.7
			c-1.1,1.2-1.7,2.6-1.7,4.4c0,1.8,0.6,3.2,1.7,4.4c1.1,1.2,2.5,1.7,4.2,1.7c1.1,0,2.2-0.3,3.1-0.8c0.9-0.5,1.6-1.2,2-2.2l4.9,2.9
			c-1,1.8-2.3,3.2-4.1,4.2S254.6,470.1,252.4,470.1z"/>
		<path class="st2" d="M281.8,447h5.7v22.4h-5.7v-2.6c-1.7,2.2-4.1,3.3-7.2,3.3c-2.9,0-5.5-1.1-7.6-3.4c-2.1-2.3-3.2-5.1-3.2-8.4
			c0-3.3,1.1-6.1,3.2-8.4c2.1-2.3,4.6-3.4,7.6-3.4c3.1,0,5.5,1.1,7.2,3.3V447z M271.3,462.8c1.1,1.2,2.6,1.8,4.4,1.8
			c1.8,0,3.2-0.6,4.4-1.8c1.2-1.2,1.7-2.7,1.7-4.6c0-1.9-0.6-3.4-1.7-4.6c-1.2-1.2-2.6-1.8-4.4-1.8c-1.8,0-3.2,0.6-4.4,1.8
			c-1.1,1.2-1.7,2.7-1.7,4.6C269.6,460.1,270.2,461.6,271.3,462.8z"/>
		<path class="st2" d="M298.4,450.9c0.5-1.4,1.4-2.5,2.6-3.2s2.6-1.1,4.1-1.1v6.5c-1.7-0.2-3.3,0.2-4.7,1.1
			c-1.4,0.9-2.1,2.5-2.1,4.6v10.7h-5.7V447h5.7V450.9z"/>
		<path class="st2" d="M312.4,460.6c0.8,2.8,2.8,4.2,6.2,4.2c2.2,0,3.8-0.7,4.9-2.2l4.6,2.7c-2.2,3.2-5.4,4.8-9.6,4.8
			c-3.7,0-6.6-1.1-8.8-3.4c-2.2-2.2-3.3-5.1-3.3-8.5c0-3.4,1.1-6.2,3.3-8.5c2.2-2.3,5-3.4,8.4-3.4c3.2,0,5.9,1.1,8,3.4
			c2.1,2.3,3.2,5.1,3.2,8.4c0,0.7-0.1,1.5-0.2,2.4H312.4z M312.3,456.1h11.3c-0.3-1.5-1-2.7-2-3.4c-1-0.7-2.2-1.1-3.5-1.1
			c-1.5,0-2.8,0.4-3.8,1.2C313.3,453.6,312.6,454.7,312.3,456.1z"/>
		<path class="st2" d="M344.4,443c-3.1-0.2-4.7,1-4.7,3.8v0.2h4.7v5.6h-4.7v16.9h-5.7v-16.9h-3.2V447h3.2v-0.2
			c0-3.2,0.9-5.6,2.6-7.2c1.7-1.6,4.3-2.4,7.8-2.2V443z"/>
		<path class="st2" d="M361.6,447h5.7v22.4h-5.7v-2.5c-1.4,2.1-3.6,3.1-6.6,3.1c-2.4,0-4.4-0.8-6-2.5c-1.6-1.6-2.4-3.9-2.4-6.8V447
			h5.7v13.1c0,1.5,0.4,2.6,1.2,3.4c0.8,0.8,1.9,1.2,3.2,1.2c1.5,0,2.6-0.5,3.5-1.4c0.9-0.9,1.3-2.3,1.3-4.2V447z"/>
		<path class="st2" d="M372.5,469.4v-32.8h5.7v32.8H372.5z"/>
		<path class="st2" d="M383.4,469.4v-32.8h5.7v32.8H383.4z"/>
		<path class="st2" d="M408.7,447h6.1l-8.1,22.5c-1.1,3.2-2.7,5.5-4.6,7c-1.9,1.5-4.3,2.1-7.1,2V473c1.5,0,2.7-0.3,3.6-1
			c0.9-0.7,1.6-1.8,2.1-3.3l-9.1-21.7h6.2l5.8,15.1L408.7,447z"/>
		<path class="st2" d="M440.5,443c-3.1-0.2-4.7,1-4.7,3.8v0.2h4.7v5.6h-4.7v16.9h-5.7v-16.9h-3.2V447h3.2v-0.2
			c0-3.2,0.9-5.6,2.6-7.2c1.7-1.6,4.3-2.4,7.8-2.2V443z"/>
		<path class="st2" d="M461,466.6c-2.3,2.3-5,3.4-8.3,3.4c-3.3,0-6-1.1-8.3-3.4c-2.3-2.3-3.4-5.1-3.4-8.4c0-3.3,1.1-6.1,3.4-8.4
			c2.3-2.3,5-3.4,8.3-3.4c3.3,0,6,1.1,8.3,3.4c2.3,2.3,3.4,5.1,3.4,8.4C464.4,461.5,463.3,464.3,461,466.6z M448.5,462.7
			c1.1,1.2,2.6,1.8,4.3,1.8s3.1-0.6,4.3-1.8c1.1-1.2,1.7-2.6,1.7-4.4s-0.6-3.3-1.7-4.4c-1.1-1.2-2.6-1.8-4.3-1.8s-3.1,0.6-4.3,1.8
			c-1.1,1.2-1.7,2.6-1.7,4.4S447.3,461.5,448.5,462.7z"/>
		<path class="st2" d="M474.1,450.9c0.5-1.4,1.4-2.5,2.6-3.2s2.6-1.1,4.1-1.1v6.5c-1.7-0.2-3.3,0.2-4.7,1.1
			c-1.4,0.9-2.1,2.5-2.1,4.6v10.7h-5.7V447h5.7V450.9z"/>
	</g>
	<g class="st3">
		<path class="st2" d="M108.7,496.9c-3.1-0.2-4.7,1-4.7,3.8v0.2h4.7v5.6H104v16.9h-5.7v-16.9h-3.2v-5.6h3.2v-0.2
			c0-3.2,0.9-5.6,2.6-7.2c1.7-1.6,4.3-2.4,7.8-2.2V496.9z"/>
		<path class="st2" d="M117,504.8c0.5-1.4,1.4-2.5,2.6-3.2s2.6-1.1,4.1-1.1v6.5c-1.7-0.2-3.3,0.2-4.7,1.1c-1.4,0.9-2.1,2.5-2.1,4.6
			v10.7h-5.7v-22.4h5.7V504.8z"/>
		<path class="st2" d="M131,514.5c0.8,2.8,2.8,4.2,6.2,4.2c2.2,0,3.8-0.7,4.9-2.2l4.6,2.7c-2.2,3.2-5.4,4.8-9.6,4.8
			c-3.7,0-6.6-1.1-8.8-3.4c-2.2-2.2-3.3-5.1-3.3-8.5c0-3.4,1.1-6.2,3.3-8.5c2.2-2.3,5-3.4,8.4-3.4c3.2,0,5.9,1.1,8,3.4
			c2.1,2.3,3.2,5.1,3.2,8.4c0,0.7-0.1,1.5-0.2,2.4H131z M130.9,510h11.3c-0.3-1.5-1-2.7-2-3.4c-1-0.7-2.2-1.1-3.5-1.1
			c-1.5,0-2.8,0.4-3.8,1.2C131.9,507.5,131.2,508.6,130.9,510z"/>
		<path class="st2" d="M168.4,500.9h5.7v31.4h-5.7v-11.6c-1.7,2.2-4.1,3.3-7.2,3.3c-3,0-5.5-1.1-7.6-3.4c-2.1-2.3-3.2-5.1-3.2-8.4
			c0-3.3,1.1-6.1,3.2-8.4c2.1-2.3,4.6-3.4,7.6-3.4c3.1,0,5.5,1.1,7.2,3.3V500.9z M157.9,516.7c1.2,1.2,2.6,1.8,4.4,1.8
			c1.8,0,3.2-0.6,4.4-1.8c1.1-1.2,1.7-2.7,1.7-4.6c0-1.9-0.6-3.4-1.7-4.6c-1.1-1.2-2.6-1.8-4.4-1.8c-1.8,0-3.2,0.6-4.4,1.8
			c-1.2,1.2-1.7,2.7-1.7,4.6C156.1,514,156.7,515.5,157.9,516.7z"/>
		<path class="st2" d="M193.9,500.9h5.7v22.4h-5.7v-2.5c-1.4,2.1-3.6,3.1-6.6,3.1c-2.4,0-4.4-0.8-6-2.5c-1.6-1.6-2.4-3.9-2.4-6.8
			v-13.8h5.7V514c0,1.5,0.4,2.6,1.2,3.4c0.8,0.8,1.9,1.2,3.2,1.2c1.5,0,2.6-0.5,3.5-1.4c0.9-0.9,1.3-2.3,1.3-4.2V500.9z"/>
		<path class="st2" d="M209.6,514.5c0.8,2.8,2.8,4.2,6.2,4.2c2.2,0,3.8-0.7,4.9-2.2l4.6,2.7c-2.2,3.2-5.4,4.8-9.6,4.8
			c-3.7,0-6.6-1.1-8.8-3.4c-2.2-2.2-3.3-5.1-3.3-8.5c0-3.4,1.1-6.2,3.3-8.5c2.2-2.3,5-3.4,8.4-3.4c3.2,0,5.9,1.1,8,3.4
			c2.1,2.3,3.2,5.1,3.2,8.4c0,0.7-0.1,1.5-0.2,2.4H209.6z M209.5,510h11.3c-0.3-1.5-1-2.7-2-3.4c-1-0.7-2.2-1.1-3.5-1.1
			c-1.5,0-2.8,0.4-3.8,1.2C210.5,507.5,209.8,508.6,209.5,510z"/>
		<path class="st2" d="M242.7,500.3c2.4,0,4.4,0.8,6,2.5c1.6,1.6,2.4,3.9,2.4,6.8v13.8h-5.7v-13.1c0-1.5-0.4-2.6-1.2-3.4
			c-0.8-0.8-1.9-1.2-3.2-1.2c-1.5,0-2.6,0.5-3.5,1.4c-0.9,0.9-1.3,2.3-1.3,4.2v12.1h-5.7v-22.4h5.7v2.5
			C237.5,501.3,239.7,500.3,242.7,500.3z"/>
		<path class="st2" d="M266.4,524c-3.3,0-6.1-1.1-8.3-3.4c-2.2-2.3-3.3-5.1-3.3-8.4c0-3.4,1.1-6.2,3.3-8.4c2.2-2.3,5-3.4,8.3-3.4
			c2.1,0,4.1,0.5,5.9,1.6c1.8,1,3.1,2.5,4,4.2l-4.9,2.9c-0.4-0.9-1.1-1.7-2-2.2c-0.9-0.5-1.9-0.8-3-0.8c-1.7,0-3.1,0.6-4.2,1.7
			c-1.1,1.2-1.7,2.6-1.7,4.4c0,1.8,0.6,3.2,1.7,4.4c1.1,1.2,2.5,1.7,4.2,1.7c1.1,0,2.2-0.3,3.1-0.8c0.9-0.5,1.6-1.2,2-2.2l4.9,2.9
			c-1,1.8-2.3,3.2-4.1,4.2S268.6,524,266.4,524z"/>
		<path class="st2" d="M282.2,498.2c-0.9,0-1.8-0.4-2.5-1.1c-0.7-0.7-1-1.5-1-2.5c0-1,0.3-1.8,1-2.5c0.7-0.7,1.5-1.1,2.5-1.1
			c1,0,1.8,0.4,2.5,1.1c0.7,0.7,1,1.6,1,2.5c0,1-0.3,1.8-1,2.5C284,497.8,283.2,498.2,282.2,498.2z M279.4,523.3v-22.4h5.7v22.4
			H279.4z"/>
		<path class="st2" d="M295.1,514.5c0.8,2.8,2.8,4.2,6.2,4.2c2.2,0,3.8-0.7,4.9-2.2l4.6,2.7c-2.2,3.2-5.4,4.8-9.6,4.8
			c-3.7,0-6.6-1.1-8.8-3.4c-2.2-2.2-3.3-5.1-3.3-8.5c0-3.4,1.1-6.2,3.3-8.5c2.2-2.3,5-3.4,8.4-3.4c3.2,0,5.9,1.1,8,3.4
			c2.1,2.3,3.2,5.1,3.2,8.4c0,0.7-0.1,1.5-0.2,2.4H295.1z M295,510h11.3c-0.3-1.5-1-2.7-2-3.4c-1-0.7-2.2-1.1-3.5-1.1
			c-1.5,0-2.8,0.4-3.8,1.2C296,507.5,295.4,508.6,295,510z"/>
		<path class="st2" d="M320.3,507.3c0,0.6,0.4,1.1,1.2,1.5c0.8,0.4,1.7,0.7,2.8,1c1.1,0.3,2.2,0.6,3.4,1.1c1.1,0.4,2.1,1.2,2.8,2.2
			c0.8,1,1.2,2.3,1.2,3.8c0,2.3-0.8,4.1-2.5,5.3s-3.8,1.9-6.3,1.9c-4.5,0-7.6-1.8-9.3-5.3l4.9-2.8c0.6,1.9,2.1,2.9,4.3,2.9
			c2,0,3-0.6,3-1.9c0-0.6-0.4-1.1-1.2-1.5c-0.8-0.4-1.7-0.7-2.8-1c-1.1-0.3-2.2-0.7-3.4-1.1c-1.1-0.4-2.1-1.2-2.8-2.1
			c-0.8-1-1.2-2.2-1.2-3.7c0-2.2,0.8-4,2.4-5.2c1.6-1.3,3.6-1.9,6-1.9c1.8,0,3.4,0.4,4.9,1.2c1.5,0.8,2.6,2,3.5,3.5l-4.9,2.7
			c-0.7-1.5-1.9-2.3-3.5-2.3c-0.7,0-1.3,0.2-1.8,0.5C320.6,506.3,320.3,506.7,320.3,507.3z"/>
		<path class="st2" d="M371.5,500.9h5.5l-6.4,22.4H365l-4.2-13.6l-4.2,13.6H351l-6.5-22.4h6l3.8,13.8l4-13.8h5.4l4,13.8L371.5,500.9
			z"/>
		<path class="st2" d="M392.9,500.3c2.4,0,4.4,0.8,6,2.5c1.6,1.6,2.4,3.9,2.4,6.8v13.8h-5.7v-13.1c0-1.5-0.4-2.6-1.2-3.4
			c-0.8-0.8-1.9-1.2-3.2-1.2c-1.5,0-2.6,0.5-3.5,1.4c-0.9,0.9-1.3,2.3-1.3,4.2v12.1h-5.7v-31.4h5.7v11.5
			C387.7,501.3,389.9,500.3,392.9,500.3z"/>
		<path class="st2" d="M409,498.2c-0.9,0-1.8-0.4-2.5-1.1c-0.7-0.7-1-1.5-1-2.5c0-1,0.3-1.8,1-2.5c0.7-0.7,1.5-1.1,2.5-1.1
			c1,0,1.8,0.4,2.5,1.1c0.7,0.7,1,1.6,1,2.5c0,1-0.3,1.8-1,2.5C410.8,497.8,409.9,498.2,409,498.2z M406.1,523.3v-22.4h5.7v22.4
			H406.1z"/>
		<path class="st2" d="M427.6,524c-3.3,0-6.1-1.1-8.3-3.4c-2.2-2.3-3.3-5.1-3.3-8.4c0-3.4,1.1-6.2,3.3-8.4c2.2-2.3,5-3.4,8.3-3.4
			c2.1,0,4.1,0.5,5.9,1.6c1.8,1,3.1,2.5,4,4.2l-4.9,2.9c-0.4-0.9-1.1-1.7-2-2.2c-0.9-0.5-1.9-0.8-3-0.8c-1.7,0-3.1,0.6-4.2,1.7
			c-1.1,1.2-1.7,2.6-1.7,4.4c0,1.8,0.6,3.2,1.7,4.4c1.1,1.2,2.5,1.7,4.2,1.7c1.1,0,2.2-0.3,3.1-0.8c0.9-0.5,1.6-1.2,2-2.2l4.9,2.9
			c-1,1.8-2.3,3.2-4.1,4.2S429.7,524,427.6,524z"/>
		<path class="st2" d="M452.8,500.3c2.4,0,4.4,0.8,6,2.5c1.6,1.6,2.4,3.9,2.4,6.8v13.8h-5.7v-13.1c0-1.5-0.4-2.6-1.2-3.4
			c-0.8-0.8-1.9-1.2-3.2-1.2c-1.5,0-2.6,0.5-3.5,1.4c-0.9,0.9-1.3,2.3-1.3,4.2v12.1h-5.7v-31.4h5.7v11.5
			C447.6,501.3,449.8,500.3,452.8,500.3z"/>
	</g>
	<g class="st3">
		<path class="st2" d="M109.4,560.4h-5v9.3c0,0.8,0.2,1.3,0.6,1.7c0.4,0.4,0.9,0.6,1.7,0.6c0.7,0,1.6,0,2.7,0v5.3
			c-3.9,0.4-6.7,0.1-8.3-1.1c-1.6-1.2-2.4-3.3-2.4-6.4v-9.3h-3.8v-5.6h3.8v-4.5l5.7-1.8v6.3h5V560.4z"/>
		<path class="st2" d="M119.5,558.7c0.5-1.4,1.4-2.5,2.6-3.2s2.6-1.1,4.1-1.1v6.5c-1.7-0.2-3.3,0.2-4.7,1.1
			c-1.4,0.9-2.1,2.5-2.1,4.6v10.7h-5.7v-22.4h5.7V558.7z"/>
		<path class="st2" d="M145.5,554.8h5.7v22.4h-5.7v-2.6c-1.7,2.2-4.1,3.3-7.2,3.3c-2.9,0-5.5-1.1-7.6-3.4c-2.1-2.3-3.2-5.1-3.2-8.4
			s1.1-6.1,3.2-8.4c2.1-2.3,4.6-3.4,7.6-3.4c3.1,0,5.5,1.1,7.2,3.3V554.8z M134.9,570.6c1.1,1.2,2.6,1.8,4.4,1.8
			c1.8,0,3.2-0.6,4.4-1.8c1.2-1.2,1.7-2.7,1.7-4.6c0-1.9-0.6-3.4-1.7-4.6c-1.2-1.2-2.6-1.8-4.4-1.8c-1.8,0-3.2,0.6-4.4,1.8
			c-1.1,1.2-1.7,2.7-1.7,4.6C133.2,567.9,133.8,569.4,134.9,570.6z"/>
		<path class="st2" d="M170.8,554.8h6.3l-8.4,22.4h-6.5l-8.4-22.4h6.3l5.4,15.7L170.8,554.8z"/>
		<path class="st2" d="M183.8,568.4c0.8,2.8,2.8,4.2,6.2,4.2c2.2,0,3.8-0.7,4.9-2.2l4.6,2.7c-2.2,3.2-5.4,4.8-9.6,4.8
			c-3.7,0-6.6-1.1-8.8-3.4c-2.2-2.2-3.3-5.1-3.3-8.5c0-3.4,1.1-6.2,3.3-8.5s5-3.4,8.4-3.4c3.2,0,5.9,1.1,8,3.4
			c2.1,2.3,3.2,5.1,3.2,8.4c0,0.7-0.1,1.5-0.2,2.4H183.8z M183.7,563.9H195c-0.3-1.5-1-2.7-2-3.4c-1-0.7-2.2-1.1-3.5-1.1
			c-1.5,0-2.8,0.4-3.8,1.2C184.7,561.4,184,562.5,183.7,563.9z"/>
		<path class="st2" d="M204.6,577.2v-32.8h5.7v32.8H204.6z"/>
	</g>
	<g class="st3">
		<path class="st5" d="M242,554.8h5.7v22.4H242v-2.6c-1.7,2.2-4.1,3.3-7.2,3.3c-2.9,0-5.5-1.1-7.6-3.4c-2.1-2.3-3.2-5.1-3.2-8.4
			s1.1-6.1,3.2-8.4c2.1-2.3,4.6-3.4,7.6-3.4c3.1,0,5.5,1.1,7.2,3.3V554.8z M231.5,570.6c1.1,1.2,2.6,1.8,4.4,1.8
			c1.8,0,3.2-0.6,4.4-1.8c1.2-1.2,1.7-2.7,1.7-4.6c0-1.9-0.6-3.4-1.7-4.6c-1.2-1.2-2.6-1.8-4.4-1.8c-1.8,0-3.2,0.6-4.4,1.8
			c-1.1,1.2-1.7,2.7-1.7,4.6C229.8,567.9,230.4,569.4,231.5,570.6z"/>
		<path class="st5" d="M265.7,554.2c3,0,5.5,1.1,7.6,3.4c2.1,2.3,3.2,5.1,3.2,8.4s-1.1,6.1-3.2,8.4c-2.1,2.3-4.6,3.4-7.6,3.4
			c-3.1,0-5.5-1.1-7.2-3.3v2.6h-5.7v-31.4h5.7v11.6C260.3,555.3,262.7,554.2,265.7,554.2z M260.3,570.6c1.1,1.2,2.6,1.8,4.4,1.8
			s3.2-0.6,4.4-1.8c1.2-1.2,1.7-2.7,1.7-4.6c0-1.9-0.6-3.4-1.7-4.6c-1.2-1.2-2.6-1.8-4.4-1.8s-3.2,0.6-4.4,1.8
			c-1.1,1.2-1.7,2.7-1.7,4.6C258.6,567.9,259.2,569.4,260.3,570.6z"/>
		<path class="st5" d="M299.4,574.4c-2.3,2.3-5,3.4-8.3,3.4c-3.3,0-6-1.1-8.3-3.4c-2.3-2.3-3.4-5.1-3.4-8.4s1.1-6.1,3.4-8.4
			c2.3-2.3,5-3.4,8.3-3.4c3.3,0,6,1.1,8.3,3.4c2.3,2.3,3.4,5.1,3.4,8.4S301.6,572.1,299.4,574.4z M286.8,570.5
			c1.1,1.2,2.6,1.8,4.3,1.8s3.1-0.6,4.3-1.8c1.1-1.2,1.7-2.6,1.7-4.4s-0.6-3.3-1.7-4.4c-1.1-1.2-2.6-1.8-4.3-1.8s-3.1,0.6-4.3,1.8
			c-1.1,1.2-1.7,2.6-1.7,4.4S285.7,569.3,286.8,570.5z"/>
		<path class="st5" d="M320.4,554.8h6.3l-8.4,22.4h-6.5l-8.4-22.4h6.3l5.4,15.7L320.4,554.8z"/>
		<path class="st5" d="M333.4,568.4c0.8,2.8,2.8,4.2,6.2,4.2c2.2,0,3.8-0.7,4.9-2.2l4.6,2.7c-2.2,3.2-5.4,4.8-9.6,4.8
			c-3.7,0-6.6-1.1-8.8-3.4c-2.2-2.2-3.3-5.1-3.3-8.5c0-3.4,1.1-6.2,3.3-8.5s5-3.4,8.4-3.4c3.2,0,5.9,1.1,8,3.4
			c2.1,2.3,3.2,5.1,3.2,8.4c0,0.7-0.1,1.5-0.2,2.4H333.4z M333.3,563.9h11.3c-0.3-1.5-1-2.7-2-3.4c-1-0.7-2.2-1.1-3.5-1.1
			c-1.5,0-2.8,0.4-3.8,1.2C334.3,561.4,333.6,562.5,333.3,563.9z"/>
		<path class="st5" d="M377.9,560.4h-5v9.3c0,0.8,0.2,1.3,0.6,1.7c0.4,0.4,0.9,0.6,1.7,0.6c0.7,0,1.6,0,2.7,0v5.3
			c-3.9,0.4-6.7,0.1-8.3-1.1c-1.6-1.2-2.4-3.3-2.4-6.4v-9.3h-3.8v-5.6h3.8v-4.5l5.7-1.8v6.3h5V560.4z"/>
		<path class="st5" d="M394.2,554.2c2.4,0,4.4,0.8,6,2.5c1.6,1.6,2.4,3.9,2.4,6.8v13.8h-5.7v-13.1c0-1.5-0.4-2.6-1.2-3.4
			c-0.8-0.8-1.9-1.2-3.2-1.2c-1.5,0-2.6,0.5-3.5,1.4c-0.9,0.9-1.3,2.3-1.3,4.2v12.1h-5.7v-31.4h5.7v11.5
			C389,555.2,391.2,554.2,394.2,554.2z"/>
		<path class="st5" d="M412.2,568.4c0.8,2.8,2.8,4.2,6.2,4.2c2.2,0,3.8-0.7,4.9-2.2l4.6,2.7c-2.2,3.2-5.4,4.8-9.6,4.8
			c-3.7,0-6.6-1.1-8.8-3.4c-2.2-2.2-3.3-5.1-3.3-8.5c0-3.4,1.1-6.2,3.3-8.5s5-3.4,8.4-3.4c3.2,0,5.9,1.1,8,3.4
			c2.1,2.3,3.2,5.1,3.2,8.4c0,0.7-0.1,1.5-0.2,2.4H412.2z M412.1,563.9h11.3c-0.3-1.5-1-2.7-2-3.4c-1-0.7-2.2-1.1-3.5-1.1
			c-1.5,0-2.8,0.4-3.8,1.2C413.1,561.4,412.4,562.5,412.1,563.9z"/>
	</g>
	<g class="st3">
		<path class="st5" d="M115.6,628.2c-2.3,2.3-5,3.4-8.3,3.4c-3.3,0-6-1.1-8.3-3.4c-2.3-2.3-3.4-5.1-3.4-8.4s1.1-6.1,3.4-8.4
			c2.3-2.3,5-3.4,8.3-3.4c3.3,0,6,1.1,8.3,3.4c2.3,2.3,3.4,5.1,3.4,8.4S117.9,625.9,115.6,628.2z M103,624.3
			c1.1,1.2,2.6,1.8,4.3,1.8s3.1-0.6,4.3-1.8c1.1-1.2,1.7-2.6,1.7-4.4s-0.6-3.3-1.7-4.4c-1.1-1.2-2.6-1.8-4.3-1.8s-3.1,0.6-4.3,1.8
			c-1.1,1.2-1.7,2.6-1.7,4.4S101.9,623.1,103,624.3z"/>
		<path class="st5" d="M128.7,612.5c0.5-1.4,1.4-2.5,2.6-3.2s2.6-1.1,4.1-1.1v6.5c-1.7-0.2-3.3,0.2-4.7,1.1
			c-1.4,0.9-2.1,2.5-2.1,4.6V631H123v-22.4h5.7V612.5z"/>
		<path class="st5" d="M154.7,608.6h5.7V631h-5.7v-2.6c-1.7,2.2-4.1,3.3-7.2,3.3c-2.9,0-5.5-1.1-7.6-3.4c-2.1-2.3-3.2-5.1-3.2-8.4
			s1.1-6.1,3.2-8.4c2.1-2.3,4.6-3.4,7.6-3.4c3.1,0,5.5,1.1,7.2,3.3V608.6z M144.2,624.4c1.1,1.2,2.6,1.8,4.4,1.8
			c1.8,0,3.2-0.6,4.4-1.8c1.2-1.2,1.7-2.7,1.7-4.6c0-1.9-0.6-3.4-1.7-4.6c-1.2-1.2-2.6-1.8-4.4-1.8c-1.8,0-3.2,0.6-4.4,1.8
			c-1.1,1.2-1.7,2.7-1.7,4.6C142.5,621.7,143,623.2,144.2,624.4z"/>
		<path class="st5" d="M177.8,608c2.4,0,4.4,0.8,6,2.5c1.6,1.6,2.4,3.9,2.4,6.8V631h-5.7V618c0-1.5-0.4-2.6-1.2-3.4
			c-0.8-0.8-1.9-1.2-3.2-1.2c-1.5,0-2.6,0.5-3.5,1.4c-0.9,0.9-1.3,2.3-1.3,4.2V631h-5.7v-22.4h5.7v2.5
			C172.6,609,174.8,608,177.8,608z"/>
		<path class="st5" d="M207.9,608.6h5.6V630c0,3.5-1.1,6.1-3.4,7.9c-2.3,1.8-5,2.7-8.1,2.7c-2.4,0-4.5-0.5-6.3-1.4s-3.2-2.3-4.2-4.1
			l4.9-2.8c1.1,2.1,3,3.1,5.8,3.1c1.8,0,3.2-0.5,4.2-1.4c1-1,1.5-2.3,1.5-4.1v-2.4c-1.7,2.3-4,3.4-7.1,3.4c-3.1,0-5.7-1.1-7.8-3.3
			c-2.1-2.2-3.2-4.9-3.2-8.1c0-3.2,1.1-5.9,3.2-8.1c2.1-2.2,4.7-3.4,7.8-3.4c3,0,5.4,1.1,7.1,3.4V608.6z M197.3,623.9
			c1.2,1.2,2.6,1.7,4.4,1.7c1.8,0,3.3-0.6,4.4-1.7c1.2-1.2,1.7-2.6,1.7-4.4c0-1.8-0.6-3.2-1.7-4.4c-1.2-1.2-2.6-1.7-4.4-1.7
			c-1.8,0-3.3,0.6-4.4,1.7c-1.2,1.2-1.7,2.6-1.7,4.4C195.6,621.3,196.2,622.7,197.3,623.9z"/>
		<path class="st5" d="M223.5,622.2c0.8,2.8,2.8,4.2,6.2,4.2c2.2,0,3.8-0.7,4.9-2.2l4.6,2.7c-2.2,3.2-5.4,4.8-9.6,4.8
			c-3.7,0-6.6-1.1-8.8-3.4c-2.2-2.2-3.3-5.1-3.3-8.5c0-3.4,1.1-6.2,3.3-8.5s5-3.4,8.4-3.4c3.2,0,5.9,1.1,8,3.4
			c2.1,2.3,3.2,5.1,3.2,8.4c0,0.7-0.1,1.5-0.2,2.4H223.5z M223.4,617.7h11.3c-0.3-1.5-1-2.7-2-3.4c-1-0.7-2.2-1.1-3.5-1.1
			c-1.5,0-2.8,0.4-3.8,1.2C224.4,615.2,223.7,616.3,223.4,617.7z"/>
		<path class="st5" d="M280.2,608.6h5.5l-6.4,22.4h-5.6l-4.2-13.6l-4.2,13.6h-5.6l-6.5-22.4h6l3.8,13.8l4-13.8h5.4l4,13.8
			L280.2,608.6z"/>
		<path class="st5" d="M305.3,608.6h5.7V631h-5.7v-2.6c-1.7,2.2-4.1,3.3-7.2,3.3c-2.9,0-5.5-1.1-7.6-3.4c-2.1-2.3-3.2-5.1-3.2-8.4
			s1.1-6.1,3.2-8.4c2.1-2.3,4.6-3.4,7.6-3.4c3.1,0,5.5,1.1,7.2,3.3V608.6z M294.8,624.4c1.1,1.2,2.6,1.8,4.4,1.8
			c1.8,0,3.2-0.6,4.4-1.8c1.2-1.2,1.7-2.7,1.7-4.6c0-1.9-0.6-3.4-1.7-4.6c-1.2-1.2-2.6-1.8-4.4-1.8c-1.8,0-3.2,0.6-4.4,1.8
			c-1.1,1.2-1.7,2.7-1.7,4.6C293,621.7,293.6,623.2,294.8,624.4z"/>
		<path class="st5" d="M321.8,612.5c0.5-1.4,1.4-2.5,2.6-3.2s2.6-1.1,4.1-1.1v6.5c-1.7-0.2-3.3,0.2-4.7,1.1
			c-1.4,0.9-2.1,2.5-2.1,4.6V631h-5.7v-22.4h5.7V612.5z"/>
		<path class="st5" d="M344.1,608c2.4,0,4.4,0.8,6,2.5c1.6,1.6,2.4,3.9,2.4,6.8V631h-5.7V618c0-1.5-0.4-2.6-1.2-3.4
			c-0.8-0.8-1.9-1.2-3.2-1.2c-1.5,0-2.6,0.5-3.5,1.4c-0.9,0.9-1.3,2.3-1.3,4.2V631h-5.7v-22.4h5.7v2.5
			C338.9,609,341.1,608,344.1,608z"/>
		<path class="st5" d="M360.2,605.9c-0.9,0-1.8-0.4-2.5-1.1c-0.7-0.7-1-1.5-1-2.5s0.3-1.8,1-2.5c0.7-0.7,1.5-1.1,2.5-1.1
			c1,0,1.8,0.4,2.5,1.1c0.7,0.7,1,1.6,1,2.5s-0.3,1.8-1,2.5C362,605.5,361.1,605.9,360.2,605.9z M357.3,631v-22.4h5.7V631H357.3z"/>
		<path class="st5" d="M380.5,608c2.4,0,4.4,0.8,6,2.5c1.6,1.6,2.4,3.9,2.4,6.8V631h-5.7V618c0-1.5-0.4-2.6-1.2-3.4
			c-0.8-0.8-1.9-1.2-3.2-1.2c-1.5,0-2.6,0.5-3.5,1.4c-0.9,0.9-1.3,2.3-1.3,4.2V631h-5.7v-22.4h5.7v2.5
			C375.3,609,377.5,608,380.5,608z"/>
		<path class="st5" d="M410.6,608.6h5.6V630c0,3.5-1.1,6.1-3.4,7.9c-2.3,1.8-5,2.7-8.1,2.7c-2.4,0-4.5-0.5-6.3-1.4s-3.2-2.3-4.2-4.1
			l4.9-2.8c1.1,2.1,3,3.1,5.8,3.1c1.8,0,3.2-0.5,4.2-1.4c1-1,1.5-2.3,1.5-4.1v-2.4c-1.7,2.3-4,3.4-7.1,3.4c-3.1,0-5.7-1.1-7.8-3.3
			c-2.1-2.2-3.2-4.9-3.2-8.1c0-3.2,1.1-5.9,3.2-8.1c2.1-2.2,4.7-3.4,7.8-3.4c3,0,5.4,1.1,7.1,3.4V608.6z M400,623.9
			c1.2,1.2,2.6,1.7,4.4,1.7c1.8,0,3.3-0.6,4.4-1.7c1.2-1.2,1.7-2.6,1.7-4.4c0-1.8-0.6-3.2-1.7-4.4c-1.2-1.2-2.6-1.7-4.4-1.7
			c-1.8,0-3.3,0.6-4.4,1.7c-1.2,1.2-1.7,2.6-1.7,4.4C398.3,621.3,398.9,622.7,400,623.9z"/>
		<path class="st5" d="M432.4,631v-32.8h5.7V631H432.4z"/>
		<path class="st5" d="M446.1,605.9c-0.9,0-1.8-0.4-2.5-1.1c-0.7-0.7-1-1.5-1-2.5s0.3-1.8,1-2.5c0.7-0.7,1.5-1.1,2.5-1.1
			c1,0,1.8,0.4,2.5,1.1c0.7,0.7,1,1.6,1,2.5s-0.3,1.8-1,2.5C448,605.5,447.1,605.9,446.1,605.9z M443.3,631v-22.4h5.7V631H443.3z"/>
		<path class="st5" d="M466.5,608c2.4,0,4.4,0.8,6,2.5c1.6,1.6,2.4,3.9,2.4,6.8V631h-5.7V618c0-1.5-0.4-2.6-1.2-3.4
			c-0.8-0.8-1.9-1.2-3.2-1.2c-1.5,0-2.6,0.5-3.5,1.4c-0.9,0.9-1.3,2.3-1.3,4.2V631h-5.7v-22.4h5.7v2.5
			C461.3,609,463.5,608,466.5,608z"/>
		<path class="st5" d="M484.5,622.2c0.8,2.8,2.8,4.2,6.2,4.2c2.2,0,3.8-0.7,4.9-2.2l4.6,2.7c-2.2,3.2-5.4,4.8-9.6,4.8
			c-3.7,0-6.6-1.1-8.8-3.4c-2.2-2.2-3.3-5.1-3.3-8.5c0-3.4,1.1-6.2,3.3-8.5s5-3.4,8.4-3.4c3.2,0,5.9,1.1,8,3.4
			c2.1,2.3,3.2,5.1,3.2,8.4c0,0.7-0.1,1.5-0.2,2.4H484.5z M484.4,617.7h11.3c-0.3-1.5-1-2.7-2-3.4c-1-0.7-2.2-1.1-3.5-1.1
			c-1.5,0-2.8,0.4-3.8,1.2C485.4,615.2,484.8,616.3,484.4,617.7z"/>
	</g>
	<g class="st3">
		<path class="st2" d="M513,630.5c-0.7,0.7-1.6,1.1-2.6,1.1c-1,0-1.9-0.4-2.6-1.1c-0.7-0.7-1.1-1.6-1.1-2.7s0.4-1.9,1.1-2.7
			c0.7-0.7,1.6-1.1,2.6-1.1c1,0,1.9,0.4,2.6,1.1c0.7,0.7,1.1,1.6,1.1,2.7S513.7,629.8,513,630.5z"/>
	</g>
	<g class="st3">
		<path class="st2" d="M117.5,653.5v5.9h-8.3v25.5h-6.1v-25.5h-8.3v-5.9H117.5z"/>
		<path class="st2" d="M132.9,661.9c2.4,0,4.4,0.8,6,2.5c1.6,1.6,2.4,3.9,2.4,6.8v13.8h-5.7v-13.1c0-1.5-0.4-2.6-1.2-3.4
			c-0.8-0.8-1.9-1.2-3.2-1.2c-1.5,0-2.6,0.5-3.5,1.4c-0.9,0.9-1.3,2.3-1.3,4.2v12.1h-5.7v-31.4h5.7V665
			C127.7,662.9,129.9,661.9,132.9,661.9z"/>
		<path class="st2" d="M150.9,676.1c0.8,2.8,2.8,4.2,6.2,4.2c2.2,0,3.8-0.7,4.9-2.2l4.6,2.7c-2.2,3.2-5.4,4.8-9.6,4.8
			c-3.7,0-6.6-1.1-8.8-3.4c-2.2-2.2-3.3-5.1-3.3-8.5c0-3.4,1.1-6.2,3.3-8.5s5-3.4,8.4-3.4c3.2,0,5.9,1.1,8,3.4
			c2.1,2.3,3.2,5.1,3.2,8.4c0,0.7-0.1,1.5-0.2,2.4H150.9z M150.8,671.6h11.3c-0.3-1.5-1-2.7-2-3.4c-1-0.7-2.2-1.1-3.5-1.1
			c-1.5,0-2.8,0.4-3.8,1.2C151.8,669.1,151.2,670.2,150.8,671.6z"/>
		<path class="st2" d="M176.1,668.9c0,0.6,0.4,1.1,1.2,1.5c0.8,0.4,1.7,0.7,2.8,1c1.1,0.3,2.2,0.6,3.4,1.1c1.1,0.4,2.1,1.2,2.8,2.2
			c0.8,1,1.2,2.3,1.2,3.8c0,2.3-0.8,4.1-2.5,5.3c-1.7,1.2-3.8,1.9-6.3,1.9c-4.5,0-7.6-1.8-9.3-5.3l4.9-2.8c0.6,1.9,2.1,2.9,4.3,2.9
			c2,0,3-0.6,3-1.9c0-0.6-0.4-1.1-1.2-1.5c-0.8-0.4-1.7-0.7-2.8-1c-1.1-0.3-2.2-0.7-3.4-1.1c-1.1-0.4-2.1-1.2-2.8-2.1
			c-0.8-1-1.2-2.2-1.2-3.7c0-2.2,0.8-4,2.4-5.2c1.6-1.3,3.6-1.9,6-1.9c1.8,0,3.4,0.4,4.9,1.2s2.6,2,3.5,3.5l-4.9,2.7
			c-0.7-1.5-1.9-2.3-3.5-2.3c-0.7,0-1.3,0.2-1.8,0.5S176.1,668.3,176.1,668.9z"/>
		<path class="st2" d="M195.7,676.1c0.8,2.8,2.8,4.2,6.2,4.2c2.2,0,3.8-0.7,4.9-2.2l4.6,2.7c-2.2,3.2-5.4,4.8-9.6,4.8
			c-3.7,0-6.6-1.1-8.8-3.4c-2.2-2.2-3.3-5.1-3.3-8.5c0-3.4,1.1-6.2,3.3-8.5s5-3.4,8.4-3.4c3.2,0,5.9,1.1,8,3.4
			c2.1,2.3,3.2,5.1,3.2,8.4c0,0.7-0.1,1.5-0.2,2.4H195.7z M195.6,671.6h11.3c-0.3-1.5-1-2.7-2-3.4c-1-0.7-2.2-1.1-3.5-1.1
			c-1.5,0-2.8,0.4-3.8,1.2C196.6,669.1,195.9,670.2,195.6,671.6z"/>
		<path class="st2" d="M240.4,661.9c3,0,5.5,1.1,7.6,3.4c2.1,2.3,3.2,5.1,3.2,8.4s-1.1,6.1-3.2,8.4c-2.1,2.3-4.6,3.4-7.6,3.4
			c-3.1,0-5.5-1.1-7.2-3.3v2.6h-5.7v-31.4h5.7v11.6C235,663,237.4,661.9,240.4,661.9z M235,678.3c1.1,1.2,2.6,1.8,4.4,1.8
			s3.2-0.6,4.4-1.8c1.2-1.2,1.7-2.7,1.7-4.6c0-1.9-0.6-3.4-1.7-4.6c-1.2-1.2-2.6-1.8-4.4-1.8s-3.2,0.6-4.4,1.8
			c-1.1,1.2-1.7,2.7-1.7,4.6C233.3,675.6,233.9,677.1,235,678.3z"/>
		<path class="st2" d="M274.1,682.1c-2.3,2.3-5,3.4-8.3,3.4c-3.3,0-6-1.1-8.3-3.4c-2.3-2.3-3.4-5.1-3.4-8.4s1.1-6.1,3.4-8.4
			c2.3-2.3,5-3.4,8.3-3.4c3.3,0,6,1.1,8.3,3.4c2.3,2.3,3.4,5.1,3.4,8.4S276.3,679.8,274.1,682.1z M261.5,678.2
			c1.1,1.2,2.6,1.8,4.3,1.8s3.1-0.6,4.3-1.8c1.1-1.2,1.7-2.6,1.7-4.4s-0.6-3.3-1.7-4.4c-1.1-1.2-2.6-1.8-4.3-1.8s-3.1,0.6-4.3,1.8
			c-1.1,1.2-1.7,2.6-1.7,4.4S260.4,677,261.5,678.2z"/>
		<path class="st2" d="M281.5,684.9v-32.8h5.7v32.8H281.5z"/>
		<path class="st2" d="M305,668.1h-5v9.3c0,0.8,0.2,1.3,0.6,1.7c0.4,0.4,0.9,0.6,1.7,0.6c0.7,0,1.6,0,2.7,0v5.3
			c-3.9,0.4-6.7,0.1-8.3-1.1c-1.6-1.2-2.4-3.3-2.4-6.4v-9.3h-3.8v-5.6h3.8V658l5.7-1.8v6.3h5V668.1z"/>
		<path class="st2" d="M313.8,668.9c0,0.6,0.4,1.1,1.2,1.5c0.8,0.4,1.7,0.7,2.8,1c1.1,0.3,2.2,0.6,3.4,1.1c1.1,0.4,2.1,1.2,2.8,2.2
			c0.8,1,1.2,2.3,1.2,3.8c0,2.3-0.8,4.1-2.5,5.3c-1.7,1.2-3.8,1.9-6.3,1.9c-4.5,0-7.6-1.8-9.3-5.3l4.9-2.8c0.6,1.9,2.1,2.9,4.3,2.9
			c2,0,3-0.6,3-1.9c0-0.6-0.4-1.1-1.2-1.5c-0.8-0.4-1.7-0.7-2.8-1c-1.1-0.3-2.2-0.7-3.4-1.1c-1.1-0.4-2.1-1.2-2.8-2.1
			c-0.8-1-1.2-2.2-1.2-3.7c0-2.2,0.8-4,2.4-5.2c1.6-1.3,3.6-1.9,6-1.9c1.8,0,3.4,0.4,4.9,1.2s2.6,2,3.5,3.5l-4.9,2.7
			c-0.7-1.5-1.9-2.3-3.5-2.3c-0.7,0-1.3,0.2-1.8,0.5S313.8,668.3,313.8,668.9z"/>
		<path class="st2" d="M356.9,662.5h5.7v22.4h-5.7v-2.6c-1.7,2.2-4.1,3.3-7.2,3.3c-2.9,0-5.5-1.1-7.6-3.4c-2.1-2.3-3.2-5.1-3.2-8.4
			s1.1-6.1,3.2-8.4c2.1-2.3,4.6-3.4,7.6-3.4c3.1,0,5.5,1.1,7.2,3.3V662.5z M346.4,678.3c1.1,1.2,2.6,1.8,4.4,1.8
			c1.8,0,3.2-0.6,4.4-1.8c1.2-1.2,1.7-2.7,1.7-4.6c0-1.9-0.6-3.4-1.7-4.6c-1.2-1.2-2.6-1.8-4.4-1.8c-1.8,0-3.2,0.6-4.4,1.8
			c-1.1,1.2-1.7,2.7-1.7,4.6C344.7,675.6,345.2,677.1,346.4,678.3z"/>
		<path class="st2" d="M373.5,666.4c0.5-1.4,1.4-2.5,2.6-3.2s2.6-1.1,4.1-1.1v6.5c-1.7-0.2-3.3,0.2-4.7,1.1
			c-1.4,0.9-2.1,2.5-2.1,4.6v10.7h-5.7v-22.4h5.7V666.4z"/>
		<path class="st2" d="M387.5,676.1c0.8,2.8,2.8,4.2,6.2,4.2c2.2,0,3.8-0.7,4.9-2.2l4.6,2.7c-2.2,3.2-5.4,4.8-9.6,4.8
			c-3.7,0-6.6-1.1-8.8-3.4c-2.2-2.2-3.3-5.1-3.3-8.5c0-3.4,1.1-6.2,3.3-8.5s5-3.4,8.4-3.4c3.2,0,5.9,1.1,8,3.4
			c2.1,2.3,3.2,5.1,3.2,8.4c0,0.7-0.1,1.5-0.2,2.4H387.5z M387.4,671.6h11.3c-0.3-1.5-1-2.7-2-3.4c-1-0.7-2.2-1.1-3.5-1.1
			c-1.5,0-2.8,0.4-3.8,1.2C388.4,669.1,387.7,670.2,387.4,671.6z"/>
	</g>
</g>
<g>
	<path class="st7" d="M1799.3,941.6H706c-21,0-37.9-17-37.9-37.9v-744c0-21,17-37.9,37.9-37.9h1093.3c21,0,37.9,17,37.9,37.9v744
		C1837.2,924.6,1820.2,941.6,1799.3,941.6z"/>
	<path class="st8" d="M1810.7,939.8h-1108c-17.9,0-32.3-14.5-32.3-32.3V154.9c0-17.9,14.5-32.3,32.3-32.3h1108
		c17.9,0,32.3,14.5,32.3,32.3v752.6C1843.1,925.3,1828.6,939.8,1810.7,939.8z"/>
	<g class="st9">
		<g>
			<defs>
				<path id="SVGID_1_" d="M1809.8,941.6h-1108c-17.9,0-32.3-14.5-32.3-32.3V156.7c0-17.9,14.5-32.3,32.3-32.3h1108
					c17.9,0,32.3,14.5,32.3,32.3v752.6C1842.1,927.2,1827.6,941.6,1809.8,941.6z"/>
			</defs>
			<clipPath id="SVGID_00000166652142010169446000000001637220930657708467_">
				<use xlink:href="#SVGID_1_"  style="overflow:visible;"/>
			</clipPath>
			<g style="clip-path:url(#SVGID_00000166652142010169446000000001637220930657708467_);">
				<rect x="634.2" y="108.6" class="st11" width="1223.1" height="865.9"/>
				<line class="st11" x1="634.2" y1="957.4" x2="1857.3" y2="957.4"/>
				<line class="st11" x1="634.2" y1="940.5" x2="1857.3" y2="940.5"/>
				<line class="st11" x1="634.2" y1="923.5" x2="1857.3" y2="923.5"/>
				<line class="st11" x1="634.2" y1="906.5" x2="1857.3" y2="906.5"/>
				<line class="st11" x1="634.2" y1="889.5" x2="1857.3" y2="889.5"/>
				<line class="st11" x1="634.2" y1="872.6" x2="1857.3" y2="872.6"/>
				<line class="st11" x1="634.2" y1="855.6" x2="1857.3" y2="855.6"/>
				<line class="st11" x1="634.2" y1="838.6" x2="1857.3" y2="838.6"/>
				<line class="st11" x1="634.2" y1="821.6" x2="1857.3" y2="821.6"/>
				<line class="st11" x1="634.2" y1="804.6" x2="1857.3" y2="804.6"/>
				<line class="st11" x1="634.2" y1="787.7" x2="1857.3" y2="787.7"/>
				<line class="st11" x1="634.2" y1="770.7" x2="1857.3" y2="770.7"/>
				<line class="st11" x1="634.2" y1="753.7" x2="1857.3" y2="753.7"/>
				<line class="st11" x1="634.2" y1="736.7" x2="1857.3" y2="736.7"/>
				<line class="st11" x1="634.2" y1="719.8" x2="1857.3" y2="719.8"/>
				<line class="st11" x1="634.2" y1="702.8" x2="1857.3" y2="702.8"/>
				<line class="st11" x1="634.2" y1="685.8" x2="1857.3" y2="685.8"/>
				<line class="st11" x1="634.2" y1="668.8" x2="1857.3" y2="668.8"/>
				<line class="st11" x1="634.2" y1="651.8" x2="1857.3" y2="651.8"/>
				<line class="st11" x1="634.2" y1="634.9" x2="1857.3" y2="634.9"/>
				<line class="st11" x1="634.2" y1="617.9" x2="1857.3" y2="617.9"/>
				<line class="st11" x1="634.2" y1="600.9" x2="1857.3" y2="600.9"/>
				<line class="st11" x1="634.2" y1="583.9" x2="1857.3" y2="583.9"/>
				<line class="st11" x1="634.2" y1="567" x2="1857.3" y2="567"/>
				<line class="st11" x1="634.2" y1="550" x2="1857.3" y2="550"/>
				<line class="st11" x1="634.2" y1="533" x2="1857.3" y2="533"/>
				<line class="st11" x1="634.2" y1="516" x2="1857.3" y2="516"/>
				<line class="st11" x1="634.2" y1="499" x2="1857.3" y2="499"/>
				<line class="st11" x1="634.2" y1="482.1" x2="1857.3" y2="482.1"/>
				<line class="st11" x1="634.2" y1="465.1" x2="1857.3" y2="465.1"/>
				<line class="st11" x1="634.2" y1="448.1" x2="1857.3" y2="448.1"/>
				<line class="st11" x1="634.2" y1="431.1" x2="1857.3" y2="431.1"/>
				<line class="st11" x1="634.2" y1="414.2" x2="1857.3" y2="414.2"/>
				<line class="st11" x1="634.2" y1="397.2" x2="1857.3" y2="397.2"/>
				<line class="st11" x1="634.2" y1="380.2" x2="1857.3" y2="380.2"/>
				<line class="st11" x1="634.2" y1="363.2" x2="1857.3" y2="363.2"/>
				<line class="st11" x1="634.2" y1="346.2" x2="1857.3" y2="346.2"/>
				<line class="st11" x1="634.2" y1="329.3" x2="1857.3" y2="329.3"/>
				<line class="st11" x1="634.2" y1="312.3" x2="1857.3" y2="312.3"/>
				<line class="st11" x1="634.2" y1="295.3" x2="1857.3" y2="295.3"/>
				<line class="st11" x1="634.2" y1="278.3" x2="1857.3" y2="278.3"/>
				<line class="st11" x1="634.2" y1="261.4" x2="1857.3" y2="261.4"/>
				<line class="st11" x1="634.2" y1="244.4" x2="1857.3" y2="244.4"/>
				<line class="st11" x1="634.2" y1="227.4" x2="1857.3" y2="227.4"/>
				<line class="st11" x1="634.2" y1="210.4" x2="1857.3" y2="210.4"/>
				<line class="st11" x1="634.2" y1="193.4" x2="1857.3" y2="193.4"/>
				<line class="st11" x1="634.2" y1="176.5" x2="1857.3" y2="176.5"/>
				<line class="st11" x1="634.2" y1="159.5" x2="1857.3" y2="159.5"/>
				<line class="st11" x1="634.2" y1="142.5" x2="1857.3" y2="142.5"/>
				<line class="st11" x1="634.2" y1="125.5" x2="1857.3" y2="125.5"/>
				<line class="st11" x1="1837.2" y1="108.6" x2="1837.2" y2="974.4"/>
				<line class="st11" x1="1817.2" y1="108.6" x2="1817.2" y2="974.4"/>
				<line class="st11" x1="1797.1" y1="108.6" x2="1797.1" y2="974.4"/>
				<line class="st11" x1="1777.1" y1="108.6" x2="1777.1" y2="974.4"/>
				<line class="st11" x1="1757" y1="108.6" x2="1757" y2="974.4"/>
				<line class="st11" x1="1737" y1="108.6" x2="1737" y2="974.4"/>
				<line class="st11" x1="1716.9" y1="108.6" x2="1716.9" y2="974.4"/>
				<line class="st11" x1="1696.9" y1="108.6" x2="1696.9" y2="974.4"/>
				<line class="st11" x1="1676.8" y1="108.6" x2="1676.8" y2="974.4"/>
				<line class="st11" x1="1656.8" y1="108.6" x2="1656.8" y2="974.4"/>
				<line class="st11" x1="1636.7" y1="108.6" x2="1636.7" y2="974.4"/>
				<line class="st11" x1="1616.7" y1="108.6" x2="1616.7" y2="974.4"/>
				<line class="st11" x1="1596.6" y1="108.6" x2="1596.6" y2="974.4"/>
				<line class="st11" x1="1576.6" y1="108.6" x2="1576.6" y2="974.4"/>
				<line class="st11" x1="1556.5" y1="108.6" x2="1556.5" y2="974.4"/>
				<line class="st11" x1="1536.5" y1="108.6" x2="1536.5" y2="974.4"/>
				<line class="st11" x1="1516.4" y1="108.6" x2="1516.4" y2="974.4"/>
				<line class="st11" x1="1496.4" y1="108.6" x2="1496.4" y2="974.4"/>
				<line class="st11" x1="1476.3" y1="108.6" x2="1476.3" y2="974.4"/>
				<line class="st11" x1="1456.3" y1="108.6" x2="1456.3" y2="974.4"/>
				<line class="st11" x1="1436.2" y1="108.6" x2="1436.2" y2="974.4"/>
				<line class="st11" x1="1416.2" y1="108.6" x2="1416.2" y2="974.4"/>
				<line class="st11" x1="1396.1" y1="108.6" x2="1396.1" y2="974.4"/>
				<line class="st11" x1="1376.1" y1="108.6" x2="1376.1" y2="974.4"/>
				<line class="st11" x1="1356" y1="108.6" x2="1356" y2="974.4"/>
				<line class="st11" x1="1336" y1="108.6" x2="1336" y2="974.4"/>
				<line class="st11" x1="1315.9" y1="108.6" x2="1315.9" y2="974.4"/>
				<line class="st11" x1="1295.9" y1="108.6" x2="1295.9" y2="974.4"/>
				<line class="st11" x1="1275.8" y1="108.6" x2="1275.8" y2="974.4"/>
				<line class="st11" x1="1255.8" y1="108.6" x2="1255.8" y2="974.4"/>
				<line class="st11" x1="1235.7" y1="108.6" x2="1235.7" y2="974.4"/>
				<line class="st11" x1="1215.7" y1="108.6" x2="1215.7" y2="974.4"/>
				<line class="st11" x1="1195.6" y1="108.6" x2="1195.6" y2="974.4"/>
				<line class="st11" x1="1175.6" y1="108.6" x2="1175.6" y2="974.4"/>
				<line class="st11" x1="1155.5" y1="108.6" x2="1155.5" y2="974.4"/>
				<line class="st11" x1="1135.5" y1="108.6" x2="1135.5" y2="974.4"/>
				<line class="st11" x1="1115.4" y1="108.6" x2="1115.4" y2="974.4"/>
				<line class="st11" x1="1095.4" y1="108.6" x2="1095.4" y2="974.4"/>
				<line class="st11" x1="1075.3" y1="108.6" x2="1075.3" y2="974.4"/>
				<line class="st11" x1="1055.3" y1="108.6" x2="1055.3" y2="974.4"/>
				<line class="st11" x1="1035.2" y1="108.6" x2="1035.2" y2="974.4"/>
				<line class="st11" x1="1015.2" y1="108.6" x2="1015.2" y2="974.4"/>
				<line class="st11" x1="995.1" y1="108.6" x2="995.1" y2="974.4"/>
				<line class="st11" x1="975" y1="108.6" x2="975" y2="974.4"/>
				<line class="st11" x1="955" y1="108.6" x2="955" y2="974.4"/>
				<line class="st11" x1="934.9" y1="108.6" x2="934.9" y2="974.4"/>
				<line class="st11" x1="914.9" y1="108.6" x2="914.9" y2="974.4"/>
				<line class="st11" x1="894.8" y1="108.6" x2="894.8" y2="974.4"/>
				<line class="st11" x1="874.8" y1="108.6" x2="874.8" y2="974.4"/>
				<line class="st11" x1="854.7" y1="108.6" x2="854.7" y2="974.4"/>
				<line class="st11" x1="834.7" y1="108.6" x2="834.7" y2="974.4"/>
				<line class="st11" x1="814.6" y1="108.6" x2="814.6" y2="974.4"/>
				<line class="st11" x1="794.6" y1="108.6" x2="794.6" y2="974.4"/>
				<line class="st11" x1="774.5" y1="108.6" x2="774.5" y2="974.4"/>
				<line class="st11" x1="754.5" y1="108.6" x2="754.5" y2="974.4"/>
				<line class="st11" x1="734.4" y1="108.6" x2="734.4" y2="974.4"/>
				<line class="st11" x1="714.4" y1="108.6" x2="714.4" y2="974.4"/>
				<line class="st11" x1="694.3" y1="108.6" x2="694.3" y2="974.4"/>
				<line class="st11" x1="674.3" y1="108.6" x2="674.3" y2="974.4"/>
				<line class="st11" x1="654.2" y1="108.6" x2="654.2" y2="974.4"/>
			</g>
		</g>
	</g>
	<path class="st4" d="M648.2,295V157.3c0-30.4,24.8-55,55.3-55h1106.4c30.5,0,55.3,24.6,55.3,55v753.5c0,30.4-24.8,55-55.3,55H703.5
		c-30.5,0-55.3-24.6-55.3-55v-622"/>
	<line class="st12" x1="752.4" y1="124.4" x2="752.4" y2="941.6"/>
	<line class="st12" x1="953.7" y1="124.4" x2="953.7" y2="941.6"/>
	<line class="st12" x1="1155" y1="124.4" x2="1155" y2="941.6"/>
	<line class="st13" x1="1843.1" y1="533" x2="670.4" y2="533"/>
	<line class="st12" x1="1356.3" y1="124.4" x2="1356.3" y2="941.6"/>
	<line class="st12" x1="1554.5" y1="125.4" x2="1554.5" y2="942.6"/>
	<line class="st12" x1="1754.8" y1="124.4" x2="1754.8" y2="941.6"/>
	<line class="st14" x1="670.4" y1="329.4" x2="1843.1" y2="329.4"/>
	<line class="st14" x1="670.4" y1="736.6" x2="1843.1" y2="736.6"/>
	<g>
		<g>
			<line class="st15" x1="669.4" y1="260" x2="675.4" y2="260"/>
			<line class="st16" x1="687.4" y1="260" x2="1830.1" y2="260"/>
			<line class="st15" x1="1836.1" y1="260" x2="1842.1" y2="260"/>
		</g>
	</g>
	<g>
		<g>
			<line class="st15" x1="669.4" y1="806" x2="675.4" y2="806"/>
			<line class="st16" x1="687.4" y1="806" x2="1830.1" y2="806"/>
			<line class="st15" x1="1836.1" y1="806" x2="1842.1" y2="806"/>
		</g>
	</g>
	<path class="st17" d="M674.3,533"/>
	<path class="st4" d="M1138.8,52.6"/>
	<path class="st4" d="M883.4,52.6"/>
	<g>
		<g>
			<g class="st18">
				<path class="st19" d="M670.4,524.1c2.9,0.3,4.4,3.9,5.8,7c0.7,1.6,1.5,3.1,2.4,4.2c0.9,1.1,2,1.9,3.4,1.8
					c5.8-0.3,5.8-12,11.6-11.7c2.9,0.1,4.4,2.9,5.8,5.7c0.7,1.4,1.5,2.7,2.4,3.7s2,1.7,3.4,1.8c5.8,0.2,5.8-11.1,11.6-11.3
					c1.5,0,2.5,0.7,3.4,1.7c0.9,1.1,1.6,2.6,2.4,4.1c1.5,3.1,2.9,6.4,5.8,6.6c2.9,0.2,4.4-3.1,5.8-6.6c1.5-3.5,2.9-7.2,5.8-7.4
					c2.9-0.4,4.4,3.4,5.8,7.4c1.5,4.1,2.9,8.5,5.8,8.8c2.9,0.4,4.4-4.1,5.8-8.8c1.5-4.7,2.9-9.8,5.8-10.2c1.5-0.2,2.5,0.9,3.4,2.8
					c0.9,1.9,1.6,4.6,2.4,7.4c1.5,5.5,2.9,11.6,5.8,12.1c2.9,0.5,4.4-5.5,5.8-12.1c1.5-6.5,2.9-13.5,5.8-14c2.9-0.5,4.4,6.5,5.8,14
					c1.5,7.5,2.9,15.4,5.8,18.4c0.4,0.4,0.7,0.6,1,0.6c0.3,0.1,0.6,0,0.9-0.2c0.3-0.2,0.5-0.6,0.8-1.2c0.3-0.5,0.5-1.2,0.7-2
					c0.9-3.3,1.6-8.9,2.4-15.6c0.4-3.6,0.8-7.2,1.1-10.5c0.4-3.6,0.8-7.3,1.2-10.9c0.5-3.6,1-7,1.5-10.2c0.3-1.6,0.6-3,0.9-4.3
					c0.3-1.3,0.7-2.6,1-3.5c0.2-0.5,0.4-0.9,0.5-1.2c0.2-0.3,0.3-0.6,0.5-0.7c0.3-0.3,0.6-0.2,0.9,0.3c0.6,0.9,1.1,3.2,1.5,6.9
					c0.9,7.3,1.6,19.8,2.4,34.1c0.7,14.3,1.5,30.6,2.4,45.2c0.5,7.4,1,14.4,1.5,20.3c0.3,3,0.6,5.7,0.9,8c0.2,1.1,0.3,2.3,0.5,3.3
					s0.3,1.9,0.5,2.7c0.7,3.1,1.4,3.2,1.9,0.6c0.6-2.5,1.1-7.7,1.5-15.1c0.5-7.4,0.9-17.1,1.2-28.2c0.4-11.1,0.7-23.6,1.1-36.8
					c0.4-13.8,0.8-27.7,1.1-40.7c0.2-7,0.4-13.8,0.6-20.3c0.2-6.9,0.4-13.4,0.6-19.5c0.5-12.5,1-24.1,1.5-33.5
					c0.6-9.4,1.2-16.8,1.9-20.4c0.4-1.8,0.7-2.5,1-2s0.6,1.9,0.9,4.5c0.6,5.2,1.1,14.6,1.5,27.2c0.9,25.2,1.6,63.5,2.4,104.7
					c0.7,41.1,1.5,85.2,2.4,121.7c0.5,18.2,1,34.6,1.5,47.4c0.6,12.8,1.2,22.2,1.9,26c0.7,3.7,1.4,0.7,1.9-7.9
					c0.6-8.6,1.1-22.8,1.5-41.2c0.9-36.7,1.6-90,2.4-146.1c0.7-56.1,1.5-114.8,2.4-161.9c0.5-23.5,1-44,1.5-59.6
					c0.3-7.8,0.6-14.3,0.9-19.4c0.2-2.5,0.3-4.7,0.5-6.3c0.2-1.7,0.3-2.9,0.5-3.6c0.7-3.1,1.4,2.2,1.9,14.2c0.3,6,0.5,13.8,0.8,22.9
					c0.3,9.2,0.5,19.8,0.7,31.6c0.5,23.6,0.9,52,1.2,83.1c0.4,31.6,0.7,65.3,1.1,99c0.4,34.7,0.8,69.4,1.1,101.9
					c0.4,33,0.8,64.4,1.2,91.9c0.3,13.9,0.5,26.6,0.7,37.9c0.3,11.5,0.5,21.7,0.8,30.3c0.6,17.2,1.2,28.3,1.9,30.3
					c0.7,2.1,1.4-5.5,1.9-20.4c0.3-7.4,0.5-16.8,0.8-27.7c0.2-11.1,0.5-23.5,0.7-37.1c0.9-55,1.6-130.5,2.4-207
					c0.4-38.5,0.8-77,1.1-113.2c0.4-36.4,0.8-70.5,1.2-100.1c0.5-29.6,1-54.5,1.5-72.4c0.6-17.9,1.2-28.4,1.9-29.3
					c0.7-0.8,1.4,8.5,1.9,25.3c0.6,17,1.1,41.5,1.5,71c0.9,59.3,1.6,138.8,2.4,218.6c0.4,39.9,0.8,79.8,1.1,117.2
					c0.4,37.4,0.8,72.4,1.2,101.7c0.5,29.4,1,53.1,1.5,68.3c0.6,15.2,1.2,21.5,1.9,16.3c0.1-0.7,0.2-1.5,0.3-2.4
					c0-0.4,0.1-0.9,0.1-1.6c0-0.5,0.1-1.1,0.1-1.8c0.2-2.6,0.3-5.6,0.5-9.1c0.1-1.7,0.1-3.5,0.2-5.6c0.1-2,0.1-4.1,0.2-6.5
					c0.1-4.2,0.3-9.1,0.4-14.5c0.1-5.1,0.3-10.7,0.4-16.8c0.1-5.7,0.3-12,0.4-18.6c0.2-12.3,0.5-26.3,0.7-41.4
					c0.4-27,0.8-58.6,1.2-92.4c0.4-29.7,0.7-61.3,1.1-92.9c0.4-27.4,0.8-54.7,1.1-80.4c0.4-23.3,0.8-42.5,1.2-55.8
					c0.5-13.4,1-21,1.5-21.7c0.6-0.8,1.2,5.2,1.9,17.5c0.4,6.1,0.7,12.9,1,19.9c0.2,4.7,0.5,11.6,0.9,20.4
					c0.4,9.6,0.9,23.2,1.5,39.6c0.4,10,0.8,21.6,1.2,34.1c0.4,10.2,0.7,19,1.1,26.6c0.4,7.5,0.7,13.8,1.1,18.4
					c0.2,2.4,0.4,4.5,0.6,6.1c0.1,0.8,0.2,1.5,0.3,2.1c0.1,0.7,0.2,1.2,0.3,1.7c0.9,3.9,2,2.1,3.4,0.7c1.5-0.9,2.5-5,3.4-10.4
					s1.6-12.2,2.4-18.6c0.7-6.5,1.5-12.6,2.4-16.9c0.9-4.3,2-6.6,3.4-5.8c1.5,0.8,2.5,4.2,3.4,8.4s1.6,9.4,2.4,14.2
					c0.7,4.9,1.5,9.5,2.4,12.6c0.9,3.2,2,4.9,3.4,4.2c1.5-0.7,2.5-3.2,3.4-6.3c0.9-3.2,1.6-7,2.4-10.5c0.7-3.6,1.5-6.9,2.4-9.1
					c0.5-1.1,1-1.9,1.5-2.4c0.6-0.5,1.2-0.7,1.9-0.4c1.5,0.5,2.5,2.3,3.4,4.5s1.6,4.9,2.4,7.4c0.7,2.5,1.5,4.8,2.4,6.4
					c0.9,1.6,2,2.4,3.4,2c2.9-0.7,4.4-4.8,5.8-8.4c0.7-1.8,1.5-3.5,2.4-4.7s2-2,3.4-1.8c1.5,0.1,2.5,1.1,3.4,2.3s1.6,2.7,2.4,4.3
					c0.7,1.6,1.5,3.1,2.4,4.2c0.9,1.1,2,1.9,3.4,2c2.9,0.2,4.4-2.9,5.8-6.3c1.5-3.3,2.9-7.1,5.8-7.6c5.8-1.4,5.8,15.6,11.6,17.9
					c1.5,0.5,2.5-0.5,3.4-2.5s1.6-4.8,2.4-7.9c0.7-3,1.5-6.3,2.4-8.9c0.9-2.6,2-4.6,3.4-5.1c1.5-0.5,2.5,0.8,3.4,3.4
					c0.9,2.6,1.6,6.5,2.4,10.5c0.7,4.1,1.5,8.3,2.4,11.8s2,6.1,3.4,6.7c1.5,0.6,2.5-1.4,3.4-4.9s1.6-8.5,2.4-13.7
					c1.5-10.6,2.9-21,5.8-33.5c0-0.2,0.1-0.4,0.3-1c0-0.1,0.1-0.3,0.1-0.5c0-0.1,0.1-0.3,0.1-0.5c0.2-0.7,0.3-1.2,0.5-1.7
					s0.3-0.8,0.5-1.1c0.2-0.3,0.3-0.6,0.4-0.7s0.3-0.1,0.4,0s0.3,0.3,0.4,0.6c0.3,0.5,0.5,1.6,0.7,3c0.1,0.4,0.1,0.8,0.2,1.2
					c0.1,0.4,0.1,0.8,0.2,1.3c0.1,0.9,0.2,1.9,0.3,3.1c0.2,2.2,0.4,4.9,0.6,7.9c0.4,6,0.7,13.5,1.1,22c0.9,21.8,1.7,43.5,2.4,59.9
					c0.5,10.9,1,21.8,1.5,31.9c0.6,10,1.2,19.1,1.9,25.5c0.7,6.4,1.4,8.4,1.9,5.5c0.6-3,1.1-10.4,1.5-21.6c0.1-2.9,0.2-5.9,0.3-9
					c0.1-3.4,0.2-6.8,0.3-10.4c0.2-7.6,0.4-15.7,0.6-24c0.4-18.4,0.7-38,1.1-57.6c0.7-41.3,1.5-86.7,2.4-124.3
					c0.3-9.7,0.5-18.6,0.7-26.4c0.3-8.1,0.5-15.5,0.8-21.9c0.1-1.6,0.1-3.2,0.2-4.7s0.2-2.9,0.2-4.2c0.2-2.6,0.3-5,0.5-7.1
					s0.3-3.9,0.5-5.3s0.3-2.4,0.5-3.1c2.9-10.4,4.4,94.2,5.8,197c0.7,51.4,1.5,102.7,2.4,139.8s2,59.8,3.4,54.5
					c0.1-0.3,0.2-0.7,0.3-1.2c0.1-0.5,0.2-1.2,0.3-1.9c0.2-1.4,0.3-3.2,0.5-5.2s0.3-4.4,0.5-6.9c0.1-2.5,0.3-5.5,0.4-8.8
					c0.3-6.3,0.5-13.6,0.8-21.5c0.2-7.7,0.5-16.5,0.7-26c0.5-18.4,0.9-39,1.2-59.9c0.4-20.1,0.7-41.5,1.1-63
					c0.7-41.2,1.5-78.5,2.4-101.7c0.2-5.9,0.5-10.6,0.7-14.5c0.3-3.8,0.5-6.6,0.8-8.3c0.3-1.7,0.6-2.3,0.9-1.7
					c0.3,0.7,0.7,2.5,1,5.5c0.4,3,0.7,6.7,1,10.9c0.3,4.2,0.6,8.8,0.9,13.8c0.6,9.9,1.1,21,1.5,32.2c0.6,17.4,1.5,40.6,2.4,63.9
					c0.4,9.3,0.7,17.6,1.1,24.3c0.2,3.4,0.4,6.3,0.6,8.8s0.4,4.7,0.6,6.3c0.1,0.8,0.2,1.5,0.3,2.1c0.1,0.3,0.1,0.5,0.2,0.8
					c0.1,0.2,0.1,0.5,0.2,0.6c0.3,0.7,0.5,0.9,0.8,0.6c0.1-0.2,0.3-0.4,0.4-0.7c0.2-0.3,0.3-0.8,0.5-1.4c0.2-0.6,0.3-1.3,0.5-2
					s0.3-1.5,0.5-2.5c0.2-0.9,0.4-1.9,0.5-2.9c0.1-0.6,0.3-1.6,0.5-2.8c0.1-0.8,0.3-1.7,0.5-2.8c0.1-0.8,0.3-1.8,0.4-2.8
					c0.2-1.5,0.5-3.2,0.8-5.2c0.2-1.5,0.5-3.1,0.7-4.9c0.9-6.2,1.6-11.4,2.4-15.5c1.5-8.2,2.9-11.9,5.8-12.5
					c1.5-0.3,2.5,0.2,3.4,2.3s1.6,5.6,2.4,10.1c0.9,5.7,1.7,11.5,2.4,15.8c0.9,5.7,2,12,3.4,16.7c0.7,2.2,1.4,3.5,1.9,3.2
					c0.1-0.1,0.3-0.3,0.4-0.5s0.3-0.5,0.4-0.9c0.3-0.8,0.5-2,0.7-3.5c0.5-3,0.9-7.2,1.2-12.5c0.4-5.3,0.7-11.5,1.1-18.3
					c0.7-13.6,1.5-29.6,2.4-44.5c0.5-7.5,1-14.8,1.5-21.1c0.6-6.3,1.2-11.7,1.9-15.2c0.7-3.4,1.4-3.8,1.9-1.3
					c0.6,2.4,1.1,7.9,1.5,15.5c0.9,15.3,1.6,39.7,2.4,66.6c0.7,26.9,1.5,56,2.4,80.7c0.1,3.1,0.2,6.1,0.3,9c0.1,2.9,0.3,5.7,0.4,8.4
					c0.3,5.4,0.5,10.3,0.8,14.7c0.2,2.3,0.3,4.3,0.4,6.1c0.2,1.8,0.3,3.5,0.5,5c0.3,3,0.7,5.2,1,6.4c0.4,1.2,0.7,1.2,1,0.3
					c0.3-1,0.6-2.9,0.9-5.9c0.6-6,1.1-15.6,1.5-28c0.5-12.4,0.9-27.4,1.2-43.9c0.4-16.8,0.7-34.7,1.1-52.7
					c0.7-36.4,1.5-74.1,2.4-103.1s2-49.5,3.4-50.4c1.5-0.9,2.5,18.5,3.4,47.5s1.6,67.5,2.4,105.9c1.5,76.9,2.9,153.3,5.8,151.5
					c0.7-0.3,1.4-5.6,1.9-14.2c0.6-8.6,1.1-20.6,1.5-34.8c0.9-28.5,1.6-65.8,2.4-102.5c1.5-73.5,2.9-144.3,5.8-139.9
					c0.4,0.5,0.7,2.1,1,4.5c0.3,2.5,0.6,5.9,0.9,10.1c0.6,8.3,1.1,19.6,1.5,32.7c0.5,13.1,0.9,28.1,1.2,43.9
					c0.4,15.5,0.7,32.1,1.1,48.7c0.7,32.7,1.5,64.4,2.4,86.9c0.5,11.2,1,20.3,1.5,26c0.6,5.7,1.2,8.1,1.9,6.6
					c0.7-1.5,1.4-6.6,1.9-14c0.6-7.4,1.1-17.1,1.5-28.4c0.9-22.5,1.6-50.4,2.4-77.1c0.7-26.7,1.5-52.1,2.4-69.7
					c0.5-8.8,1-15.5,1.5-19.6c0.6-4.1,1.2-5.5,1.9-3.7c0.7,1.8,1.4,6.2,1.9,12.3c0.6,6.1,1.1,13.8,1.5,22.5
					c0.9,17.4,1.6,38.5,2.4,58.3c0.7,19.8,1.5,38.2,2.4,50.5c0.5,6.1,1,10.7,1.5,13.3c0.6,2.6,1.2,3.1,1.9,1.4
					c0.7-1.8,1.4-5.2,1.9-9.6c0.6-4.5,1.1-10,1.5-16.1c0.9-12.1,1.6-26.4,2.4-39.5c0.7-13,1.5-25,2.4-32.6c0.2-1.9,0.5-3.5,0.7-4.9
					c0.3-1.4,0.5-2.4,0.8-3.1c0.6-1.5,1.2-1.6,1.9-0.2c1.5,2.5,2.5,9.4,3.4,16.8c0.9,7.5,1.6,16.2,2.4,24c0.7,7.8,1.5,14.9,2.4,19.3
					c0.5,2.2,1,3.8,1.5,4.6c0.6,0.8,1.2,0.8,1.9,0c1.5-1.5,2.5-5.4,3.4-9.8c0.9-4.3,1.6-9.4,2.4-14c0.7-4.6,1.5-8.9,2.4-11.8
					c0.5-1.4,1-2.5,1.5-3.1c0.6-0.7,1.2-1,1.9-0.7c0.4,0.1,0.7,0.4,1,0.7c0.2,0.2,0.3,0.4,0.5,0.6c0.2,0.2,0.3,0.4,0.4,0.6
					c0.6,0.9,1.1,2.1,1.5,3.6c0.9,2.9,1.6,6.5,2.4,10.1c0.7,3.6,1.5,7,2.4,9.6s2,4.4,3.4,4.4c0.4,0,0.7-0.1,1-0.3s0.6-0.4,0.9-0.8
					c0.6-0.7,1.1-1.7,1.5-3c0.9-2.6,1.6-6.2,2.4-10c0.7-3.7,1.5-7.7,2.4-10.9s2-5.7,3.4-6.4c1.5-0.9,2.5,0.6,3.4,3.9
					c0.9,3.3,1.6,8.1,2.4,13.4c0.7,5.3,1.5,11.1,2.4,16.1c0.5,2.5,1,4.6,1.5,6.6c0.6,1.9,1.2,3.4,1.9,4.2c0.7,0.8,1.4,0.6,1.9-0.4
					c0.6-1,1.1-2.7,1.5-5.2c0.9-5,1.6-12.7,2.4-21.2c0.7-8.4,1.5-17.7,2.4-25.6s2-14.5,3.4-16.8c1.5-2.4,2.5,1.3,3.4,9.3
					c0.5,4,0.9,9,1.2,14.6c0.4,5.6,0.7,11.9,1.1,18.4c0.7,13,1.5,27.1,2.4,38.8c0.9,11.6,2,21.3,3.4,24.1c0.7,1.4,1.4,0.6,1.9-2.1
					c0.6-2.6,1.1-7.1,1.5-13c0.9-11.8,1.6-29.3,2.4-47.9c0.7-18.6,1.5-38.3,2.4-54.4c0.5-8,1-15.2,1.5-20.7
					c0.6-5.5,1.2-9.5,1.9-10.9c0.7-1.4,1.4-0.1,1.9,3.8c0.6,3.9,1.1,10.1,1.5,18.2c0.9,16.2,1.6,39.5,2.4,64
					c0.7,24.5,1.5,50.1,2.4,70.7c0.5,10.3,1,19.3,1.5,26.2c0.6,6.9,1.2,11.6,1.9,13.1c0.4,0.7,0.7,0.7,1-0.3c0.2-0.5,0.3-1.1,0.5-2
					c0.1-0.4,0.1-0.9,0.2-1.5c0.1-0.5,0.1-1.1,0.2-1.7c0.3-2.4,0.6-5.6,0.8-9.5c0.3-3.9,0.5-8.5,0.7-13.5
					c0.5-10.1,0.9-22.7,1.2-36.5c0.4-14.4,0.7-29.7,1.1-45c0.7-31.6,1.5-65.2,2.4-93.4c0.3-7.3,0.5-14,0.7-20
					c0.3-6.2,0.5-12,0.8-17.1s0.6-9.7,0.9-13.4c0.2-1.9,0.3-3.4,0.5-4.9s0.3-2.7,0.5-3.6c0.4-1.9,0.7-2.5,1-1.9s0.6,2.6,0.9,5.6
					c0.6,5.9,1.1,16.6,1.5,30.9c0.5,14.3,0.9,32.1,1.2,52.2c0.4,20.9,0.7,43.2,1.1,65.5c0.7,46.2,1.5,95.7,2.4,136.6
					c0.5,20.5,1,38.7,1.5,53c0.6,14.2,1.2,24.7,1.9,28.4c0.4,1.9,0.7,2,1,0.3c0.2-0.8,0.3-2.1,0.5-3.7c0.2-1.7,0.3-3.8,0.4-6.3
					c0.3-5,0.5-11.5,0.8-19.3c0.3-7.9,0.5-17.1,0.7-27.5c0.9-41.3,1.6-100.4,2.4-161.5c0.4-31,0.8-62.1,1.1-91.2
					c0.2-14.9,0.4-29.3,0.6-43c0.2-13.9,0.4-27,0.6-39.1c0.3-12.4,0.5-23.7,0.7-33.8c0.3-10.1,0.5-19.1,0.8-26.7
					c0.6-15.2,1.2-24.4,1.9-25.5c1.5-2.1,2.5,30.1,3.4,79.1s1.6,114.8,2.4,180.1c0.7,65.3,1.5,130.3,2.4,178.7
					c0.5,24.2,1,44.2,1.5,58c0.6,13.8,1.2,21.6,1.9,20.9c1.5-1.2,2.5-34.2,3.4-82.4s1.6-112,2.4-175.1c0.7-63.1,1.5-125.7,2.4-171.9
					c0.5-23.1,1-42.2,1.5-55.2c0.6-13,1.2-19.9,1.9-19c0.7,0.9,1.4,9.3,1.9,23.3c0.6,14,1.1,33.4,1.5,56.6
					c0.9,46.2,1.6,106.7,2.4,166.3c0.7,59.6,1.5,118.5,2.4,161.7s2,70.4,3.4,68.1c0.4-0.6,0.7-2.9,1-6.7c0.3-3.9,0.6-9.3,0.9-15.9
					c0.6-13.3,1.1-31.6,1.5-53.2c0.9-43.1,1.6-99,2.4-154c0.7-55,1.5-108.8,2.4-148s2-63.6,3.4-60.5c0.7,1.5,1.4,9.3,1.9,21.5
					c0.6,12.3,1.1,28.9,1.5,48.5c0.9,39.1,1.6,89.4,2.4,138.4c0.7,49,1.5,97,2.4,131.3c0.5,17.2,1,31,1.5,40
					c0.6,9,1.2,13.3,1.9,11.6c0.7-1.7,1.4-8.9,1.9-19.9c0.6-11,1.1-25.7,1.5-42.9c0.9-34.2,1.6-77.9,2.4-120.1
					c0.7-42.3,1.5-83.1,2.4-112.1c0.5-14.5,1-26.1,1.5-33.5c0.6-7.4,1.2-10.7,1.9-8.9c0.7,1.8,1.4,8.2,1.9,17.7
					c0.6,9.5,1.1,22.1,1.5,36.6c0.9,28.9,1.6,65.3,2.4,100.2c0.7,34.9,1.5,68.4,2.4,91.9s2,36.7,3.4,32.9c0.7-1.9,1.4-7.3,1.9-15.2
					c0.6-7.9,1.1-18.2,1.5-29.8c0.9-23.4,1.6-52.3,2.4-79.8c0.7-27.5,1.5-53.6,2.4-71.7c0.5-9,1-16,1.5-20.2c0.6-4.2,1.2-5.7,1.9-4
					c0.7,1.8,1.4,6.3,1.9,12.5c0.6,6.2,1.1,14.3,1.5,23.2c0.9,17.8,1.6,39.6,2.4,60.2c0.7,20.6,1.5,39.8,2.4,52.8
					c0.5,6.5,1,11.5,1.5,14.4c0.6,2.9,1.2,3.7,1.9,2.1c1.5-3.1,2.5-13.6,3.4-26.5c0.5-6.5,0.9-13.6,1.2-20.9
					c0.4-7,0.7-14.5,1.1-21.9c0.7-14.4,1.5-27.8,2.4-36.6c0.9-8.8,2-13.1,3.4-10.5c0.7,1.2,1.4,3.8,1.9,7.1
					c0.6,3.2,1.1,7.2,1.5,11.6c0.9,8.7,1.6,19,2.4,28.5c0.7,9.4,1.5,18.1,2.4,23.7c0.5,2.8,1,4.9,1.5,5.9c0.6,1.1,1.2,1.1,1.9,0.2
					c1.5-1.7,2.5-6.5,3.4-12.1c0.5-2.8,0.9-5.8,1.2-8.8c0.4-2.9,0.7-5.9,1.1-9c0.7-5.8,1.5-11.1,2.4-14.5c0.5-1.7,1-2.9,1.5-3.4
					c0.6-0.6,1.2-0.8,1.9-0.2c1.5,1.1,2.5,4.1,3.4,7.4c0.9,3.3,1.6,7.1,2.4,10.7c1.5,7.3,2.9,12.7,5.8,11.8
					c2.9-1.1,4.4-6.6,5.8-11.8c1.5-5.2,2.9-9.9,5.8-9.3c2.9,0.6,4.4,5.2,5.8,9.3c1.5,4.1,2.9,7.6,5.8,7s4.4-4.1,5.8-7
					c1.5-3,2.9-5.4,5.8-4.8c2.9,0.5,4.4,2.8,5.8,4.8c1.5,2.1,2.9,3.8,5.8,3.4c2.9-0.4,4.4-2.1,5.8-3.4c1.5-1.4,2.9-2.4,5.8-2.1
					c2.9,0.4,4.4,1.4,5.8,2.1c1.5,0.7,2.9,1.3,5.8,1.1c5.8-0.3,5.8-2.1,11.6-1.8c2.9,0.1,4.4,0.5,5.8,0.7c1.5,0.2,2.9,0.3,5.8,0.2
					c5.8,0,5.8-0.3,11.6-0.3c5.8,0,5.8,0.2,11.6,0.2c0,0,2.9,0,5.8-0.1c0.9,0,1.7,0,2.4,0c0.9,0,2,0,3.4-0.1
					c5.8-0.3,5.8,0.3,11.6,0.5c0.7,0,1.4,0,1.9,0c0.6,0,1.1,0,1.5,0c0.9-0.1,1.6-0.2,2.4-0.5c1.5-0.4,2.9-1.2,5.8-1.5
					s4.4,0.4,5.8,1.5c1.5,1.1,2.9,2.6,5.8,3.2c2.9,0.5,4.4-1.1,5.8-3.2c1.5-2,2.9-4.6,5.8-5.1s4.4,2,5.8,5.1c1.5,3,2.9,6.5,5.8,7.1
					c2.9,0.5,4.4-3,5.8-7.1c1.5-4,2.9-8.5,5.8-9s4.4,4,5.8,9c1.5,5,2.9,10.5,5.8,10.7c2.9,0.3,4.4-5.1,5.8-10.7
					c0.7-2.8,1.5-5.7,2.4-7.9c0.5-1.1,1-2.1,1.5-2.8c0.6-0.7,1.2-1.1,1.9-1.1c5.8-0.3,5.8,23.8,11.6,24.1c1.5,0,2.5-1.4,3.4-3.8
					c0.9-2.4,1.6-5.4,2.4-8.5c0.7-3,1.5-6,2.4-8.1s2-3.1,3.4-2.7c1.5,0.4,2.5,2.3,3.4,4.3c0.9,2.1,1.6,4.4,2.4,6.5
					c0.7,2.1,1.5,3.9,2.4,4.9s2,1.2,3.4,0.4c1.5-0.8,2.5-2,3.4-2.9s1.6-1.8,2.4-2.4c0.7-0.6,1.5-1,2.4-1.1s2,0.1,3.4,0.5
					c2.9,0.4,4.4,0.6,5.8,0.6c1.5,0,2.9,0.1,5.8,0.2c5.8,0.2,5.8-0.5,11.6-0.7c2.9-0.1,4.4,0.2,5.8,0.5c1.5,0.4,2.9,1,5.8,1.3
					c5.8,0.6,5.8-2.8,11.6-3.8c2.9-0.5,4.4,0.8,5.8,2.5c1.5,1.7,2.9,3.9,5.8,4.4"/>
			</g>
		</g>
	</g>
	<g>
		<line class="st20" x1="1415.8" y1="224.3" x2="1425.7" y2="201.1"/>
		<line class="st20" x1="1331" y1="423.2" x2="1340.9" y2="400.1"/>
		<line class="st20" x1="1466.2" y1="349.6" x2="1489.4" y2="359.5"/>
		<g>
			<line class="st20" x1="1267.3" y1="264.8" x2="1290.4" y2="274.7"/>
		</g>
		<line class="st20" x1="1414" y1="400.8" x2="1423.4" y2="424.2"/>
		<line class="st20" x1="1333.3" y1="200.2" x2="1342.7" y2="223.5"/>
		<line class="st20" x1="1289.7" y1="347.8" x2="1266.3" y2="357.2"/>
		<line class="st20" x1="1490.3" y1="267.1" x2="1467" y2="276.5"/>
	</g>
	<path class="st21" d="M1813.4,307.1h-147.6c-1.1,0-2.2,0.5-2.9,1.4l-15.2,18.7c-1.1,1.4-1.1,3.4,0,4.7l15.2,18.7
		c0.7,0.9,1.8,1.4,2.9,1.4h147.6c2.1,0,3.8-1.7,3.8-3.8v-37.4C1817.2,308.8,1815.5,307.1,1813.4,307.1z"/>
	<g>
		<g class="st3">
			<path class="st2" d="M1676.2,336.6l-4.3-16.5h3.3l3.1,12.2l3.4-12.2h2.8l3.4,12.2l3.1-12.2h3.1l-4.3,16.5h-3.6l-3.1-10.9l-3,10.9
				H1676.2z"/>
			<path class="st2" d="M1703.4,324.8h3v11.8h-3v-1.4c-0.9,1.1-2.2,1.7-3.8,1.7c-1.5,0-2.9-0.6-4-1.8c-1.1-1.2-1.7-2.7-1.7-4.4
				s0.6-3.2,1.7-4.4c1.1-1.2,2.4-1.8,4-1.8c1.6,0,2.9,0.6,3.8,1.7V324.8z M1697.9,333.1c0.6,0.6,1.4,0.9,2.3,0.9
				c0.9,0,1.7-0.3,2.3-0.9s0.9-1.4,0.9-2.4s-0.3-1.8-0.9-2.4c-0.6-0.6-1.4-0.9-2.3-0.9c-0.9,0-1.7,0.3-2.3,0.9
				c-0.6,0.6-0.9,1.4-0.9,2.4S1697.3,332.5,1697.9,333.1z"/>
			<path class="st2" d="M1712.1,326.9c0.3-0.8,0.7-1.3,1.4-1.7c0.6-0.4,1.4-0.6,2.1-0.6v3.4c-0.9-0.1-1.7,0.1-2.4,0.6
				c-0.7,0.5-1.1,1.3-1.1,2.4v5.6h-3v-11.8h3V326.9z"/>
			<path class="st2" d="M1723.8,324.5c1.3,0,2.3,0.4,3.1,1.3s1.2,2.1,1.2,3.6v7.2h-3v-6.8c0-0.8-0.2-1.4-0.6-1.8
				c-0.4-0.4-1-0.6-1.7-0.6c-0.8,0-1.4,0.2-1.9,0.7c-0.5,0.5-0.7,1.2-0.7,2.2v6.3h-3v-11.8h3v1.3
				C1721.1,325,1722.2,324.5,1723.8,324.5z"/>
			<path class="st2" d="M1732.2,323.4c-0.5,0-0.9-0.2-1.3-0.6c-0.4-0.4-0.5-0.8-0.5-1.3c0-0.5,0.2-0.9,0.5-1.3
				c0.4-0.4,0.8-0.6,1.3-0.6c0.5,0,0.9,0.2,1.3,0.6c0.4,0.4,0.5,0.8,0.5,1.3c0,0.5-0.2,0.9-0.5,1.3
				C1733.1,323.2,1732.7,323.4,1732.2,323.4z M1730.7,336.6v-11.8h3v11.8H1730.7z"/>
			<path class="st2" d="M1742.8,324.5c1.3,0,2.3,0.4,3.1,1.3s1.2,2.1,1.2,3.6v7.2h-3v-6.8c0-0.8-0.2-1.4-0.6-1.8
				c-0.4-0.4-1-0.6-1.7-0.6c-0.8,0-1.4,0.2-1.9,0.7c-0.5,0.5-0.7,1.2-0.7,2.2v6.3h-3v-11.8h3v1.3
				C1740.1,325,1741.3,324.5,1742.8,324.5z"/>
			<path class="st2" d="M1758.6,324.8h2.9V336c0,1.8-0.6,3.2-1.8,4.2c-1.2,1-2.6,1.4-4.3,1.4c-1.2,0-2.3-0.2-3.3-0.7
				c-0.9-0.5-1.7-1.2-2.2-2.1l2.5-1.5c0.6,1.1,1.6,1.6,3,1.6c0.9,0,1.7-0.3,2.2-0.8c0.5-0.5,0.8-1.2,0.8-2.1v-1.3
				c-0.9,1.2-2.1,1.8-3.7,1.8c-1.6,0-3-0.6-4.1-1.8c-1.1-1.2-1.7-2.6-1.7-4.3c0-1.7,0.6-3.1,1.7-4.3s2.5-1.8,4.1-1.8
				c1.6,0,2.8,0.6,3.7,1.8V324.8z M1753.1,332.8c0.6,0.6,1.4,0.9,2.3,0.9c0.9,0,1.7-0.3,2.3-0.9s0.9-1.4,0.9-2.3
				c0-0.9-0.3-1.7-0.9-2.3s-1.4-0.9-2.3-0.9c-0.9,0-1.7,0.3-2.3,0.9s-0.9,1.4-0.9,2.3C1752.1,331.5,1752.4,332.2,1753.1,332.8z"/>
			<path class="st2" d="M1770,336.6v-17.2h3v17.2H1770z"/>
			<path class="st2" d="M1777.2,323.4c-0.5,0-0.9-0.2-1.3-0.6c-0.4-0.4-0.5-0.8-0.5-1.3c0-0.5,0.2-0.9,0.5-1.3
				c0.4-0.4,0.8-0.6,1.3-0.6c0.5,0,0.9,0.2,1.3,0.6c0.4,0.4,0.5,0.8,0.5,1.3c0,0.5-0.2,0.9-0.5,1.3
				C1778.2,323.2,1777.7,323.4,1777.2,323.4z M1775.7,336.6v-11.8h3v11.8H1775.7z"/>
			<path class="st2" d="M1787.9,324.5c1.3,0,2.3,0.4,3.1,1.3s1.2,2.1,1.2,3.6v7.2h-3v-6.8c0-0.8-0.2-1.4-0.6-1.8
				c-0.4-0.4-1-0.6-1.7-0.6c-0.8,0-1.4,0.2-1.9,0.7c-0.5,0.5-0.7,1.2-0.7,2.2v6.3h-3v-11.8h3v1.3
				C1785.2,325,1786.3,324.5,1787.9,324.5z"/>
			<path class="st2" d="M1797.3,332c0.4,1.5,1.5,2.2,3.3,2.2c1.1,0,2-0.4,2.6-1.2l2.4,1.4c-1.1,1.7-2.8,2.5-5,2.5
				c-1.9,0-3.4-0.6-4.6-1.8c-1.2-1.2-1.7-2.7-1.7-4.4c0-1.8,0.6-3.2,1.7-4.4c1.1-1.2,2.6-1.8,4.4-1.8c1.7,0,3.1,0.6,4.2,1.8
				c1.1,1.2,1.7,2.7,1.7,4.4c0,0.4,0,0.8-0.1,1.2H1797.3z M1797.3,329.6h5.9c-0.2-0.8-0.5-1.4-1.1-1.8c-0.5-0.4-1.1-0.6-1.8-0.6
				c-0.8,0-1.5,0.2-2,0.6C1797.8,328.3,1797.4,328.8,1797.3,329.6z"/>
		</g>
	</g>
</g>
</svg>
