<?xml version="1.0" encoding="UTF-8"?><svg id="Layer_2" xmlns="http://www.w3.org/2000/svg" xmlns:xlink="http://www.w3.org/1999/xlink" viewBox="0 0 1919.91 1079.41"><defs><style>.cls-1,.cls-2,.cls-3,.cls-4,.cls-5,.cls-6,.cls-7,.cls-8,.cls-9,.cls-10{fill:none;}.cls-2{stroke-width:3.63px;}.cls-2,.cls-3,.cls-4,.cls-5,.cls-6,.cls-7,.cls-9,.cls-10{stroke-miterlimit:10;}.cls-2,.cls-5,.cls-10{stroke:#6db6af;}.cls-11{letter-spacing:.1em;}.cls-12{letter-spacing:.1em;}.cls-3{stroke-width:6px;}.cls-3,.cls-7{stroke:#fff;}.cls-13{clip-path:url(#clippath);}.cls-14{letter-spacing:-.02em;}.cls-15,.cls-16,.cls-17{letter-spacing:-.02em;}.cls-18,.cls-19,.cls-20,.cls-16,.cls-21{fill:#6db6af;}.cls-18,.cls-20,.cls-22,.cls-23,.cls-16,.cls-21{font-family:Gilroy-Bold, Gilroy-Bold;}.cls-18,.cls-24{letter-spacing:0em;}.cls-25{letter-spacing:0em;}.cls-4{stroke:#ff884d;stroke-dasharray:0 12;}.cls-4,.cls-6,.cls-7,.cls-9,.cls-10{stroke-width:2px;}.cls-26,.cls-22,.cls-27,.cls-23,.cls-28,.cls-17{fill:#fff;}.cls-29{fill:#ff884d;}.cls-30{fill:#323258;}.cls-31,.cls-32{fill:#19192c;}.cls-33{letter-spacing:-.06em;}.cls-34{letter-spacing:-.06em;}.cls-22{font-size:27.33px;}.cls-27,.cls-35{letter-spacing:-.03em;}.cls-27,.cls-28,.cls-17{font-family:Gilroy-Medium, Gilroy-Medium;}.cls-5{stroke-width:.75px;}.cls-36{letter-spacing:0em;}.cls-37{letter-spacing:0em;}.cls-38{letter-spacing:.07em;}.cls-23{font-size:51.81px;}.cls-6,.cls-9{stroke:#d30741;}.cls-39{letter-spacing:-.03em;}.cls-40{letter-spacing:-.01em;}.cls-41{letter-spacing:0em;}.cls-42{letter-spacing:.06em;}.cls-43{letter-spacing:0em;}.cls-8{stroke:#dda842;stroke-linecap:round;stroke-linejoin:round;stroke-width:9px;}.cls-44{letter-spacing:.12em;}.cls-45{opacity:.6;}.cls-9{stroke-dasharray:0 0 11.97 11.97;}.cls-46,.cls-10,.cls-47{opacity:.8;}.cls-21{letter-spacing:-.02em;}.cls-48{letter-spacing:-.01em;}.cls-49{font-size:44.9px;}.cls-50{letter-spacing:0em;}.cls-47{fill:#2d2d4a;}.cls-32{opacity:.3;}.cls-51{letter-spacing:-.03em;}</style><clipPath id="clippath"><rect class="cls-1" x="667.97" y="122.68" width="1172.7" height="817.27" rx="32.35" ry="32.35"/></clipPath></defs><g id="Layer_1-2"><g><g><rect class="cls-30" x="0" width="1919.91" height="1079.41"/><rect class="cls-30" x="0" width="1919.91" height="1079.41"/><rect class="cls-32" y="0" width="610.79" height="1079.41"/><circle class="cls-26" cx="1885.01" cy="1041.18" r="8.59"/><circle class="cls-26" cx="1885.01" cy="29.89" r="8.59"/><circle class="cls-26" cx="34.48" cy="1041.18" r="8.59"/><circle class="cls-26" cx="34.48" cy="35.53" r="8.59"/></g><text class="cls-23" transform="translate(97.36 155.36)"><tspan class="cls-11" x="0" y="0">H</tspan><tspan class="cls-38" x="39.63" y="0">O</tspan><tspan class="cls-12" x="84.24" y="0">W </tspan><tspan class="cls-42" x="159.32" y="0">T</tspan><tspan class="cls-12" x="190.4" y="0">O P</tspan><tspan class="cls-44" x="290.5" y="0">L</tspan><tspan class="cls-43" x="321.74" y="0">A</tspan><tspan class="cls-12" x="356.82" y="0">Y</tspan></text><path id="Rectangle_131" class="cls-32" d="M115.42,751.32l91.07,3.27c13.85,.24,24.89,11.66,24.66,25.51l-.71,41.76c-.24,13.85-11.66,24.89-25.51,24.66l-91.07-3.27c-13.85-.24-24.89-11.66-24.66-25.51l.71-41.76c.24-13.85,11.66-24.89,25.51-24.66Z"/><circle class="cls-26" cx="98.71" cy="369.64" r="5.95"/><circle class="cls-26" cx="128.43" cy="369.64" r="5.95"/><circle class="cls-19" cx="158.16" cy="369.64" r="5.95"/><circle class="cls-26" cx="187.89" cy="369.64" r="5.95"/><text class="cls-49" transform="translate(92.75 467.76) scale(.98 1)"><tspan class="cls-28"><tspan class="cls-33" x="0" y="0">W</tspan><tspan x="42.2" y="0">a</tspan><tspan class="cls-39" x="70.62" y="0">t</tspan><tspan class="cls-41" x="86.34" y="0">c</tspan><tspan x="110.85" y="0">h </tspan><tspan class="cls-24" x="147.4" y="0">c</tspan><tspan x="171.6" y="0">a</tspan><tspan class="cls-51" x="200.02" y="0">r</tspan><tspan class="cls-48" x="213.53" y="0">e</tspan><tspan x="239.03" y="0">fully </tspan><tspan class="cls-35" x="332.96" y="0">f</tspan><tspan x="346.25" y="0">or </tspan></tspan><tspan class="cls-28"><tspan x="0" y="53.88">f</tspan><tspan class="cls-35" x="14.5" y="53.88">r</tspan><tspan class="cls-37" x="28.02" y="53.88">e</tspan><tspan x="54.15" y="53.88">quen</tspan><tspan class="cls-37" x="159.38" y="53.88">c</tspan><tspan x="183.9" y="53.88">i</tspan><tspan class="cls-14" x="193.78" y="53.88">e</tspan><tspan x="219.05" y="53.88">s whi</tspan><tspan class="cls-37" x="320.61" y="53.88">c</tspan><tspan x="345.12" y="53.88">h </tspan></tspan><tspan class="cls-28" x="0" y="107.75">t</tspan><tspan class="cls-27" x="16.97" y="107.75">r</tspan><tspan class="cls-28" x="30.48" y="107.75">a</tspan><tspan class="cls-17" x="58.9" y="107.75">v</tspan><tspan class="cls-28" x="81.26" y="107.75">el </tspan><tspan class="cls-20" x="128.54" y="107.75">ab</tspan><tspan class="cls-16" x="184.75" y="107.75">ov</tspan><tspan class="cls-20" x="233.55" y="107.75">e </tspan><tspan class="cls-18" x="270.86" y="107.75">t</tspan><tspan class="cls-20" x="287.79" y="107.75" xml:space="preserve">he  </tspan><tspan class="cls-20" x="0" y="161.63">o</tspan><tspan class="cls-21" x="26.67" y="161.63">r</tspan><tspan class="cls-20" x="41.8" y="161.63">ange </tspan><tspan class="cls-16" x="161.23" y="161.63">w</tspan><tspan class="cls-20" x="194.9" y="161.63">arning line</tspan><tspan class="cls-28" x="415.39" y="161.63">. </tspan><tspan class="cls-28"><tspan x="0" y="215.51">Th</tspan><tspan class="cls-15" x="49.57" y="215.51">e</tspan><tspan class="cls-40" x="74.84" y="215.51">s</tspan><tspan x="94.78" y="215.51">e bol</tspan><tspan class="cls-51" x="197.5" y="215.51">t</tspan><tspan class="cls-36" x="213.26" y="215.51">s a</tspan><tspan class="cls-51" x="273.47" y="215.51">r</tspan><tspan x="286.98" y="215.51">e </tspan><tspan class="cls-35" x="324.38" y="215.51">f</tspan><tspan x="337.67" y="215.51">aul</tspan><tspan class="cls-25" x="401.29" y="215.51">t</tspan><tspan x="418.62" y="215.51">y!</tspan></tspan></text><g><rect class="cls-31" x="666.65" y="120.11" width="1169.15" height="819.84" rx="37.94" ry="37.94"/><rect class="cls-47" x="668.94" y="120.83" width="1172.7" height="817.27" rx="32.35" ry="32.35"/><g class="cls-45"><g class="cls-13"><g><rect class="cls-5" x="632.75" y="106.88" width="1223.09" height="865.86"/><line class="cls-5" x1="632.75" y1="955.76" x2="1855.85" y2="955.76"/><line class="cls-5" x1="632.75" y1="938.78" x2="1855.85" y2="938.78"/><line class="cls-5" x1="632.75" y1="921.8" x2="1855.85" y2="921.8"/><line class="cls-5" x1="632.75" y1="904.83" x2="1855.85" y2="904.83"/><line class="cls-5" x1="632.75" y1="887.85" x2="1855.85" y2="887.85"/><line class="cls-5" x1="632.75" y1="870.87" x2="1855.85" y2="870.87"/><line class="cls-5" x1="632.75" y1="853.89" x2="1855.85" y2="853.89"/><line class="cls-5" x1="632.75" y1="836.91" x2="1855.85" y2="836.91"/><line class="cls-5" x1="632.75" y1="819.94" x2="1855.85" y2="819.94"/><line class="cls-5" x1="632.75" y1="802.96" x2="1855.85" y2="802.96"/><line class="cls-5" x1="632.75" y1="785.98" x2="1855.85" y2="785.98"/><line class="cls-5" x1="632.75" y1="769" x2="1855.85" y2="769"/><line class="cls-5" x1="632.75" y1="752.03" x2="1855.85" y2="752.03"/><line class="cls-5" x1="632.75" y1="735.05" x2="1855.85" y2="735.05"/><line class="cls-5" x1="632.75" y1="718.07" x2="1855.85" y2="718.07"/><line class="cls-5" x1="632.75" y1="701.09" x2="1855.85" y2="701.09"/><line class="cls-5" x1="632.75" y1="684.12" x2="1855.85" y2="684.12"/><line class="cls-5" x1="632.75" y1="667.14" x2="1855.85" y2="667.14"/><line class="cls-5" x1="632.75" y1="650.16" x2="1855.85" y2="650.16"/><line class="cls-5" x1="632.75" y1="633.18" x2="1855.85" y2="633.18"/><line class="cls-5" x1="632.75" y1="616.21" x2="1855.85" y2="616.21"/><line class="cls-5" x1="632.75" y1="599.23" x2="1855.85" y2="599.23"/><line class="cls-5" x1="632.75" y1="582.25" x2="1855.85" y2="582.25"/><line class="cls-5" x1="632.75" y1="565.27" x2="1855.85" y2="565.27"/><line class="cls-5" x1="632.75" y1="548.29" x2="1855.85" y2="548.29"/><line class="cls-5" x1="632.75" y1="531.32" x2="1855.85" y2="531.32"/><line class="cls-5" x1="632.75" y1="514.34" x2="1855.85" y2="514.34"/><line class="cls-5" x1="632.75" y1="497.36" x2="1855.85" y2="497.36"/><line class="cls-5" x1="632.75" y1="480.38" x2="1855.85" y2="480.38"/><line class="cls-5" x1="632.75" y1="463.41" x2="1855.85" y2="463.41"/><line class="cls-5" x1="632.75" y1="446.43" x2="1855.85" y2="446.43"/><line class="cls-5" x1="632.75" y1="429.45" x2="1855.85" y2="429.45"/><line class="cls-5" x1="632.75" y1="412.47" x2="1855.85" y2="412.47"/><line class="cls-5" x1="632.75" y1="395.5" x2="1855.85" y2="395.5"/><line class="cls-5" x1="632.75" y1="378.52" x2="1855.85" y2="378.52"/><line class="cls-5" x1="632.75" y1="361.54" x2="1855.85" y2="361.54"/><line class="cls-5" x1="632.75" y1="344.56" x2="1855.85" y2="344.56"/><line class="cls-5" x1="632.75" y1="327.59" x2="1855.85" y2="327.59"/><line class="cls-5" x1="632.75" y1="310.61" x2="1855.85" y2="310.61"/><line class="cls-5" x1="632.75" y1="293.63" x2="1855.85" y2="293.63"/><line class="cls-5" x1="632.75" y1="276.65" x2="1855.85" y2="276.65"/><line class="cls-5" x1="632.75" y1="259.68" x2="1855.85" y2="259.68"/><line class="cls-5" x1="632.75" y1="242.7" x2="1855.85" y2="242.7"/><line class="cls-5" x1="632.75" y1="225.72" x2="1855.85" y2="225.72"/><line class="cls-5" x1="632.75" y1="208.74" x2="1855.85" y2="208.74"/><line class="cls-5" x1="632.75" y1="191.76" x2="1855.85" y2="191.76"/><line class="cls-5" x1="632.75" y1="174.79" x2="1855.85" y2="174.79"/><line class="cls-5" x1="632.75" y1="157.81" x2="1855.85" y2="157.81"/><line class="cls-5" x1="632.75" y1="140.83" x2="1855.85" y2="140.83"/><line class="cls-5" x1="632.75" y1="123.85" x2="1855.85" y2="123.85"/><line class="cls-5" x1="1835.8" y1="106.88" x2="1835.8" y2="972.74"/><line class="cls-5" x1="1815.75" y1="106.88" x2="1815.75" y2="972.74"/><line class="cls-5" x1="1795.69" y1="106.88" x2="1795.69" y2="972.74"/><line class="cls-5" x1="1775.64" y1="106.88" x2="1775.64" y2="972.74"/><line class="cls-5" x1="1755.59" y1="106.88" x2="1755.59" y2="972.74"/><line class="cls-5" x1="1735.54" y1="106.88" x2="1735.54" y2="972.74"/><line class="cls-5" x1="1715.49" y1="106.88" x2="1715.49" y2="972.74"/><line class="cls-5" x1="1695.44" y1="106.88" x2="1695.44" y2="972.74"/><line class="cls-5" x1="1675.39" y1="106.88" x2="1675.39" y2="972.74"/><line class="cls-5" x1="1655.34" y1="106.88" x2="1655.34" y2="972.74"/><line class="cls-5" x1="1635.29" y1="106.88" x2="1635.29" y2="972.74"/><line class="cls-5" x1="1615.24" y1="106.88" x2="1615.24" y2="972.74"/><line class="cls-5" x1="1595.19" y1="106.88" x2="1595.19" y2="972.74"/><line class="cls-5" x1="1575.14" y1="106.88" x2="1575.14" y2="972.74"/><line class="cls-5" x1="1555.09" y1="106.88" x2="1555.09" y2="972.74"/><line class="cls-5" x1="1535.04" y1="106.88" x2="1535.04" y2="972.74"/><line class="cls-5" x1="1514.98" y1="106.88" x2="1514.98" y2="972.74"/><line class="cls-5" x1="1494.93" y1="106.88" x2="1494.93" y2="972.74"/><line class="cls-5" x1="1474.88" y1="106.88" x2="1474.88" y2="972.74"/><line class="cls-5" x1="1454.83" y1="106.88" x2="1454.83" y2="972.74"/><line class="cls-5" x1="1434.78" y1="106.88" x2="1434.78" y2="972.74"/><line class="cls-5" x1="1414.73" y1="106.88" x2="1414.73" y2="972.74"/><line class="cls-5" x1="1394.68" y1="106.88" x2="1394.68" y2="972.74"/><line class="cls-5" x1="1374.63" y1="106.88" x2="1374.63" y2="972.74"/><line class="cls-5" x1="1354.58" y1="106.88" x2="1354.58" y2="972.74"/><line class="cls-5" x1="1334.53" y1="106.88" x2="1334.53" y2="972.74"/><line class="cls-5" x1="1314.48" y1="106.88" x2="1314.48" y2="972.74"/><line class="cls-5" x1="1294.43" y1="106.88" x2="1294.43" y2="972.74"/><line class="cls-5" x1="1274.38" y1="106.88" x2="1274.38" y2="972.74"/><line class="cls-5" x1="1254.33" y1="106.88" x2="1254.33" y2="972.74"/><line class="cls-5" x1="1234.27" y1="106.88" x2="1234.27" y2="972.74"/><line class="cls-5" x1="1214.22" y1="106.88" x2="1214.22" y2="972.74"/><line class="cls-5" x1="1194.17" y1="106.88" x2="1194.17" y2="972.74"/><line class="cls-5" x1="1174.12" y1="106.88" x2="1174.12" y2="972.74"/><line class="cls-5" x1="1154.07" y1="106.88" x2="1154.07" y2="972.74"/><line class="cls-5" x1="1134.02" y1="106.88" x2="1134.02" y2="972.74"/><line class="cls-5" x1="1113.97" y1="106.88" x2="1113.97" y2="972.74"/><line class="cls-5" x1="1093.92" y1="106.88" x2="1093.92" y2="972.74"/><line class="cls-5" x1="1073.87" y1="106.88" x2="1073.87" y2="972.74"/><line class="cls-5" x1="1053.82" y1="106.88" x2="1053.82" y2="972.74"/><line class="cls-5" x1="1033.77" y1="106.88" x2="1033.77" y2="972.74"/><line class="cls-5" x1="1013.72" y1="106.88" x2="1013.72" y2="972.74"/><line class="cls-5" x1="993.67" y1="106.88" x2="993.67" y2="972.74"/><line class="cls-5" x1="973.62" y1="106.88" x2="973.62" y2="972.74"/><line class="cls-5" x1="953.56" y1="106.88" x2="953.56" y2="972.74"/><line class="cls-5" x1="933.51" y1="106.88" x2="933.51" y2="972.74"/><line class="cls-5" x1="913.46" y1="106.88" x2="913.46" y2="972.74"/><line class="cls-5" x1="893.41" y1="106.88" x2="893.41" y2="972.74"/><line class="cls-5" x1="873.36" y1="106.88" x2="873.36" y2="972.74"/><line class="cls-5" x1="853.31" y1="106.88" x2="853.31" y2="972.74"/><line class="cls-5" x1="833.26" y1="106.88" x2="833.26" y2="972.74"/><line class="cls-5" x1="813.21" y1="106.88" x2="813.21" y2="972.74"/><line class="cls-5" x1="793.16" y1="106.88" x2="793.16" y2="972.74"/><line class="cls-5" x1="773.11" y1="106.88" x2="773.11" y2="972.74"/><line class="cls-5" x1="753.06" y1="106.88" x2="753.06" y2="972.74"/><line class="cls-5" x1="733.01" y1="106.88" x2="733.01" y2="972.74"/><line class="cls-5" x1="712.96" y1="106.88" x2="712.96" y2="972.74"/><line class="cls-5" x1="692.91" y1="106.88" x2="692.91" y2="972.74"/><line class="cls-5" x1="672.85" y1="106.88" x2="672.85" y2="972.74"/><line class="cls-5" x1="652.8" y1="106.88" x2="652.8" y2="972.74"/></g></g></g><path class="cls-3" d="M646.81,293.28V155.57c0-30.35,24.75-54.96,55.29-54.96H1808.49c30.53,0,55.29,24.61,55.29,54.96V909.06c0,30.35-24.75,54.96-55.29,54.96H702.1c-30.53,0-55.29-24.61-55.29-54.96V287.11"/><line class="cls-10" x1="751.01" y1="122.68" x2="751.01" y2="939.95"/><line class="cls-10" x1="952.28" y1="122.68" x2="952.28" y2="939.95"/><line class="cls-10" x1="1153.56" y1="122.68" x2="1153.56" y2="939.95"/><line class="cls-7" x1="1841.65" y1="531.32" x2="668.94" y2="531.32"/><line class="cls-10" x1="1354.84" y1="122.68" x2="1354.84" y2="939.95"/><line class="cls-10" x1="1553.12" y1="123.68" x2="1553.12" y2="940.95"/><line class="cls-10" x1="1753.39" y1="122.68" x2="1753.39" y2="939.95"/><line class="cls-4" x1="668.94" y1="327.73" x2="1841.65" y2="327.73"/><line class="cls-4" x1="668.94" y1="734.9" x2="1841.65" y2="734.9"/><g><line class="cls-6" x1="667.97" y1="258.32" x2="673.97" y2="258.32"/><line class="cls-9" x1="685.94" y1="258.32" x2="1828.69" y2="258.32"/><line class="cls-6" x1="1834.68" y1="258.32" x2="1840.68" y2="258.32"/></g><g><line class="cls-6" x1="667.97" y1="804.31" x2="673.97" y2="804.31"/><line class="cls-9" x1="685.94" y1="804.31" x2="1828.69" y2="804.31"/><line class="cls-6" x1="1834.68" y1="804.31" x2="1840.68" y2="804.31"/></g><g class="cls-46"><path class="cls-2" d="M668.94,522.42c2.9,.35,4.35,3.86,5.81,7.04,.73,1.61,1.45,3.13,2.36,4.24,.91,1.14,2,1.86,3.45,1.81,5.8-.25,5.8-11.97,11.61-11.71,2.9,.11,4.35,2.93,5.8,5.66,.73,1.37,1.45,2.71,2.36,3.71,.91,1.03,2,1.74,3.45,1.79,5.8,.22,5.8-11.11,11.61-11.32,1.45-.03,2.54,.65,3.45,1.71,.91,1.08,1.63,2.58,2.36,4.12,1.45,3.07,2.9,6.35,5.8,6.59,2.9,.23,4.35-3.07,5.8-6.59,1.45-3.5,2.9-7.2,5.8-7.45,2.9-.38,4.35,3.36,5.81,7.45,1.45,4.05,2.9,8.45,5.81,8.83,2.9,.38,4.35-4.05,5.8-8.83,1.45-4.74,2.9-9.84,5.8-10.22,1.45-.15,2.54,.9,3.45,2.83,.91,1.91,1.63,4.6,2.36,7.38,1.45,5.54,2.9,11.56,5.8,12.09,2.9,.53,4.35-5.54,5.8-12.09,1.45-6.5,2.9-13.49,5.8-14.02,2.9-.53,4.35,6.5,5.8,14.02,1.45,7.52,2.9,15.36,5.8,18.38,.36,.37,.7,.58,1.02,.61,.32,.06,.62,.03,.9-.21,.28-.23,.55-.64,.8-1.2,.25-.53,.49-1.2,.72-2.03,.91-3.33,1.63-8.91,2.36-15.56,.38-3.58,.76-7.16,1.11-10.51,.39-3.63,.79-7.31,1.25-10.94,.45-3.62,.95-7.03,1.52-10.22,.28-1.57,.58-3.04,.9-4.33,.32-1.32,.66-2.55,1.02-3.5,.18-.48,.36-.86,.53-1.15,.17-.3,.34-.55,.5-.68,.32-.27,.62-.16,.9,.33,.57,.91,1.07,3.21,1.52,6.91,.91,7.34,1.63,19.8,2.36,34.1,.73,14.35,1.45,30.57,2.36,45.22,.45,7.38,.95,14.38,1.52,20.33,.28,2.97,.58,5.68,.9,8.01,.16,1.14,.33,2.26,.5,3.28,.17,1.01,.35,1.91,.53,2.68,.73,3.08,1.36,3.24,1.93,.63,.57-2.47,1.07-7.68,1.52-15.14,.45-7.45,.86-17.11,1.25-28.21,.39-11.07,.75-23.6,1.11-36.78,.38-13.85,.76-27.69,1.11-40.68,.21-7.03,.41-13.82,.6-20.26,.23-6.9,.45-13.43,.65-19.46,.45-12.53,.95-24.07,1.52-33.51,.57-9.42,1.2-16.77,1.93-20.45,.36-1.83,.7-2.5,1.02-2.04,.32,.46,.62,1.94,.9,4.54,.57,5.16,1.07,14.55,1.52,27.19,.91,25.24,1.63,63.49,2.36,104.66,.73,41.14,1.45,85.21,2.36,121.7,.45,18.23,.95,34.55,1.52,47.4,.57,12.83,1.2,22.2,1.93,26.02,.73,3.74,1.36,.72,1.93-7.86,.57-8.59,1.07-22.8,1.52-41.15,.91-36.68,1.63-89.99,2.36-146.09,.73-56.06,1.45-114.76,2.36-161.89,.45-23.5,.95-44.02,1.52-59.61,.28-7.79,.58-14.34,.9-19.35,.16-2.5,.33-4.66,.5-6.31,.17-1.65,.35-2.88,.53-3.64,.73-3.06,1.36,2.17,1.93,14.16,.28,5.95,.55,13.77,.8,22.94,.25,9.19,.49,19.81,.72,31.62,.45,23.62,.86,52.01,1.25,83.06,.35,31.6,.73,65.31,1.11,99.02,.38,34.69,.76,69.39,1.11,101.91,.39,33,.79,64.43,1.25,91.85,.26,13.9,.5,26.64,.72,37.93,.25,11.48,.52,21.72,.8,30.32,.57,17.21,1.2,28.29,1.93,30.26,.73,2.09,1.36-5.5,1.93-20.43,.28-7.44,.55-16.81,.8-27.73,.21-11.06,.45-23.53,.72-37.14,.91-55.01,1.63-130.45,2.36-206.97,.38-38.52,.76-77.04,1.11-113.15,.39-36.36,.79-70.54,1.25-100.14,.45-29.65,.95-54.51,1.52-72.37,.57-17.9,1.2-28.38,1.93-29.28,.73-.8,1.36,8.52,1.93,25.33,.57,16.95,1.07,41.45,1.52,71.03,.91,59.27,1.63,138.81,2.36,218.57,.38,39.9,.76,79.81,1.11,117.22,.39,37.44,.79,72.38,1.25,101.72,.45,29.35,.95,53.13,1.52,68.28,.57,15.15,1.2,21.49,1.93,16.27,.09-.66,.18-1.46,.27-2.39,.04-.42,.08-.94,.13-1.56,.04-.53,.08-1.13,.13-1.82,.17-2.55,.34-5.6,.5-9.07,.07-1.67,.15-3.52,.24-5.57,.07-1.97,.15-4.13,.23-6.45,.13-4.23,.27-9.1,.44-14.54,.12-5.06,.26-10.66,.41-16.76,.12-5.74,.25-11.95,.39-18.59,.21-12.34,.45-26.26,.72-41.45,.36-27.03,.79-58.57,1.25-92.36,.35-29.65,.73-61.29,1.11-92.92,.38-27.36,.76-54.72,1.11-80.36,.39-23.3,.79-42.46,1.25-55.84,.45-13.39,.95-20.99,1.52-21.75,.57-.8,1.2,5.25,1.93,17.45,.36,6.05,.7,12.93,1.02,19.85,.21,4.7,.51,11.59,.9,20.35,.37,9.56,.89,23.21,1.52,39.59,.36,9.98,.79,21.62,1.25,34.09,.39,10.17,.75,19.03,1.11,26.6,.36,7.52,.73,13.82,1.11,18.44,.19,2.41,.39,4.46,.6,6.08,.1,.81,.21,1.52,.32,2.12,.11,.67,.22,1.24,.33,1.71,.91,3.91,2,2.06,3.45,.7,1.45-.9,2.54-4.98,3.45-10.41,.91-5.43,1.63-12.19,2.36-18.64,.73-6.45,1.45-12.6,2.36-16.85,.91-4.27,2-6.58,3.45-5.76,1.45,.82,2.54,4.16,3.45,8.37,.91,4.23,1.63,9.39,2.36,14.24,.73,4.86,1.45,9.46,2.36,12.63,.91,3.18,2,4.87,3.45,4.21,1.45-.66,2.54-3.18,3.45-6.31,.91-3.15,1.63-6.96,2.36-10.53,.73-3.57,1.45-6.89,2.36-9.09,.45-1.1,.95-1.92,1.52-2.38,.57-.5,1.2-.67,1.93-.42,1.45,.51,2.54,2.31,3.45,4.52,.91,2.22,1.63,4.89,2.36,7.37,.73,2.49,1.45,4.82,2.36,6.4,.91,1.59,2,2.39,3.45,2,2.9-.73,4.35-4.76,5.8-8.41,.73-1.83,1.45-3.52,2.36-4.72,.91-1.23,2-1.96,3.45-1.81,1.45,.14,2.54,1.07,3.45,2.25,.91,1.18,1.63,2.73,2.36,4.28,.73,1.55,1.45,3.09,2.36,4.24,.91,1.15,2,1.88,3.45,2.02,2.9,.23,4.35-2.92,5.81-6.27,1.45-3.33,2.9-7.1,5.8-7.57,5.8-1.41,5.8,15.64,11.61,17.95,1.45,.46,2.54-.55,3.45-2.51,.91-1.95,1.63-4.82,2.36-7.87,.73-3.04,1.45-6.26,2.36-8.87,.91-2.6,2-4.64,3.45-5.1,1.45-.51,2.54,.8,3.45,3.45,.91,2.62,1.63,6.46,2.36,10.52,.73,4.06,1.45,8.34,2.36,11.81,.91,3.46,2,6.15,3.45,6.74,1.45,.59,2.54-1.36,3.45-4.85,.91-3.48,1.63-8.48,2.36-13.69,1.45-10.56,2.9-20.98,5.81-33.54,.04-.15,.11-.43,.27-1.02,.04-.12,.08-.28,.13-.46,.04-.15,.08-.32,.13-.52,.17-.67,.34-1.23,.5-1.7s.32-.82,.47-1.07c.15-.34,.3-.58,.44-.7,.14-.12,.28-.13,.41-.02,.13,.12,.26,.34,.39,.58,.25,.54,.49,1.56,.72,3.03,.05,.39,.11,.78,.17,1.18l.16,1.28c.11,.91,.21,1.93,.32,3.06,.21,2.25,.41,4.93,.6,7.94,.39,5.98,.75,13.47,1.11,21.95,.86,21.77,1.72,43.53,2.36,59.86,.45,10.88,.95,21.84,1.52,31.87,.57,10.01,1.2,19.1,1.93,25.49,.73,6.43,1.36,8.35,1.93,5.49,.57-2.95,1.07-10.42,1.52-21.58,.11-2.9,.22-5.92,.33-9.05,.1-3.36,.21-6.84,.32-10.42,.19-7.64,.39-15.7,.6-24.04,.35-18.39,.73-38.01,1.11-57.62,.73-41.31,1.45-86.74,2.36-124.28,.26-9.69,.5-18.57,.72-26.45,.25-8.08,.52-15.46,.8-21.94,.08-1.65,.15-3.2,.22-4.67,.08-1.48,.15-2.87,.22-4.16,.15-2.65,.31-5.03,.47-7.12,.16-2.06,.33-3.95,.5-5.3,.17-1.36,.35-2.45,.53-3.07,2.9-10.4,4.35,94.25,5.81,196.98,.73,51.43,1.45,102.71,2.36,139.83,.91,37.13,2,59.85,3.45,54.53,.09-.33,.18-.74,.27-1.24,.09-.5,.17-1.16,.26-1.86,.17-1.42,.34-3.17,.5-5.2s.32-4.36,.47-6.95c.13-2.55,.27-5.47,.44-8.75,.28-6.33,.55-13.56,.8-21.49,.21-7.74,.45-16.48,.72-26,.45-18.37,.86-38.95,1.25-59.87,.35-20.1,.73-41.55,1.11-62.99,.73-41.21,1.45-78.45,2.36-101.71,.23-5.88,.46-10.64,.72-14.48,.25-3.82,.52-6.63,.8-8.33,.28-1.7,.58-2.32,.9-1.73,.32,.66,.66,2.49,1.02,5.46,.36,2.96,.7,6.68,1.02,10.88,.32,4.18,.62,8.84,.9,13.8,.57,9.94,1.07,21.03,1.52,32.24,.64,17.42,1.5,40.64,2.36,63.86,.36,9.28,.73,17.55,1.11,24.26,.19,3.35,.39,6.31,.6,8.81,.21,2.53,.42,4.69,.65,6.32,.11,.82,.23,1.52,.35,2.09,.06,.28,.12,.54,.18,.76,.06,.24,.12,.46,.19,.64,.25,.72,.52,.94,.8,.63,.14-.19,.29-.38,.44-.71,.15-.33,.31-.79,.47-1.37,.16-.56,.33-1.32,.5-2.04,.17-.71,.35-1.53,.53-2.45,.18-.92,.36-1.89,.53-2.88,.11-.63,.28-1.56,.5-2.77,.13-.77,.28-1.72,.47-2.83,.13-.82,.27-1.76,.44-2.81,.22-1.45,.49-3.22,.8-5.24,.21-1.47,.45-3.13,.72-4.93,.91-6.23,1.63-11.36,2.36-15.46,1.45-8.18,2.9-11.9,5.81-12.46,1.45-.34,2.54,.21,3.45,2.32,.91,2.06,1.63,5.6,2.36,10.14,.86,5.75,1.72,11.5,2.36,15.81,.91,5.71,2,11.96,3.45,16.72,.73,2.22,1.36,3.49,1.93,3.16,.14-.08,.28-.26,.41-.5,.13-.22,.26-.54,.39-.95,.25-.81,.49-1.99,.72-3.49,.45-3.03,.86-7.22,1.25-12.49,.39-5.26,.75-11.46,1.11-18.26,.73-13.59,1.45-29.63,2.36-44.54,.45-7.47,.95-14.77,1.52-21.1,.57-6.33,1.2-11.73,1.93-15.15,.73-3.42,1.36-3.82,1.93-1.33,.57,2.44,1.07,7.88,1.52,15.54,.91,15.31,1.63,39.68,2.36,66.58,.73,26.85,1.45,56.03,2.36,80.67,.12,3.13,.24,6.14,.35,9,.13,2.94,.25,5.74,.37,8.36,.25,5.36,.52,10.3,.8,14.66,.16,2.28,.31,4.31,.44,6.08,.15,1.83,.31,3.49,.47,4.97,.32,2.95,.66,5.16,1.02,6.44,.36,1.19,.7,1.23,1.02,.27,.32-.97,.62-2.89,.9-5.93,.57-6.01,1.07-15.58,1.52-27.96,.45-12.41,.86-27.4,1.25-43.87,.35-16.81,.73-34.74,1.11-52.68,.73-36.43,1.45-74.09,2.36-103.09,.91-28.97,1.99-49.47,3.45-50.35,1.45-.87,2.54,18.51,3.45,47.5,.91,28.96,1.63,67.48,2.36,105.95,1.45,76.9,2.9,153.35,5.8,151.48,.73-.33,1.36-5.62,1.93-14.21,.57-8.61,1.07-20.61,1.52-34.81,.91-28.46,1.63-65.78,2.36-102.46,1.45-73.55,2.9-144.34,5.81-139.88,.36,.5,.7,2.06,1.02,4.51,.32,2.49,.62,5.92,.9,10.07,.57,8.3,1.07,19.57,1.52,32.68,.45,13.1,.86,28.13,1.25,43.91,.35,15.54,.73,32.12,1.11,48.7,.73,32.7,1.45,64.4,2.36,86.9,.45,11.24,.95,20.29,1.52,25.97,.57,5.67,1.2,8.1,1.93,6.58,.73-1.52,1.36-6.56,1.93-13.95,.57-7.42,1.07-17.12,1.52-28.37,.91-22.48,1.63-50.44,2.36-77.12,.73-26.69,1.45-52.11,2.36-69.67,.45-8.79,.95-15.53,1.52-19.63,.57-4.1,1.2-5.5,1.93-3.74,.73,1.76,1.36,6.17,1.93,12.25,.57,6.08,1.07,13.84,1.52,22.53,.91,17.4,1.63,38.49,2.36,58.25,.73,19.77,1.45,38.21,2.36,50.47,.45,6.14,.95,10.73,1.52,13.3,.57,2.58,1.2,3.12,1.93,1.37,.73-1.8,1.36-5.15,1.93-9.61,.57-4.46,1.07-9.99,1.52-16.06,.91-12.14,1.63-26.41,2.36-39.46,.73-13.04,1.45-24.96,2.36-32.57,.23-1.91,.46-3.54,.72-4.88,.25-1.36,.52-2.42,.8-3.15,.57-1.46,1.2-1.56,1.93-.18,1.45,2.54,2.54,9.35,3.45,16.77,.91,7.53,1.63,16.2,2.36,24.01,.73,7.82,1.45,14.87,2.36,19.25,.45,2.17,.95,3.79,1.52,4.6,.57,.81,1.2,.82,1.93-.05,1.45-1.49,2.54-5.41,3.45-9.76,.91-4.32,1.63-9.4,2.36-14.05,.73-4.62,1.45-8.91,2.36-11.76,.45-1.43,.95-2.49,1.52-3.08,.57-.69,1.2-.96,1.93-.69,.36,.13,.7,.37,1.02,.71,.16,.17,.32,.36,.47,.57,.15,.19,.3,.39,.44,.62,.57,.9,1.07,2.13,1.52,3.56,.91,2.86,1.63,6.52,2.36,10.08,.73,3.59,1.45,6.97,2.36,9.63,.91,2.63,2,4.4,3.45,4.42,.36,0,.7-.1,1.02-.3,.32-.21,.62-.4,.9-.75,.57-.67,1.07-1.71,1.52-3,.91-2.59,1.63-6.23,2.36-9.99,.73-3.73,1.45-7.67,2.36-10.91,.91-3.25,1.99-5.73,3.45-6.45,1.45-.95,2.54,.63,3.45,3.92,.91,3.3,1.63,8.11,2.36,13.45,.73,5.33,1.45,11.14,2.36,16.06,.45,2.49,.95,4.62,1.52,6.58,.57,1.91,1.2,3.42,1.93,4.21,.73,.79,1.36,.62,1.93-.41,.57-1,1.07-2.73,1.52-5.24,.91-4.97,1.63-12.73,2.36-21.2,.73-8.45,1.45-17.65,2.36-25.57,.91-7.89,2-14.46,3.45-16.8,1.45-2.45,2.54,1.31,3.45,9.33,.45,4,.86,8.99,1.25,14.61,.39,5.63,.75,11.91,1.11,18.43,.73,13.04,1.45,27.08,2.36,38.78,.91,11.61,2,21.32,3.45,24.12,.73,1.39,1.36,.61,1.93-2.05,.57-2.6,1.07-7.08,1.52-12.99,.91-11.79,1.63-29.27,2.36-47.86,.73-18.59,1.45-38.29,2.36-54.38,.45-8.04,.95-15.18,1.52-20.71,.57-5.53,1.2-9.47,1.93-10.94,.73-1.45,1.36-.08,1.93,3.79,.57,3.85,1.07,10.14,1.52,18.23,.91,16.16,1.63,39.51,2.36,64.01,.73,24.49,1.45,50.12,2.36,70.69,.45,10.28,.95,19.29,1.52,26.16,.57,6.86,1.2,11.58,1.93,13.08,.36,.72,.7,.71,1.02-.25,.16-.47,.32-1.14,.47-2.02,.08-.44,.15-.93,.22-1.47,.07-.53,.14-1.09,.22-1.68,.28-2.43,.55-5.63,.8-9.52,.25-3.89,.49-8.45,.72-13.49,.45-10.13,.86-22.66,1.25-36.53,.35-14.35,.73-29.66,1.11-44.97,.73-31.6,1.45-65.2,2.36-93.4,.26-7.32,.5-14.02,.72-19.97,.25-6.24,.52-11.99,.8-17.08,.28-5.12,.58-9.68,.9-13.36,.16-1.86,.33-3.45,.5-4.91,.17-1.46,.35-2.69,.53-3.65,.36-1.92,.7-2.52,1.02-1.86,.32,.63,.62,2.62,.9,5.6,.57,5.95,1.07,16.63,1.52,30.92,.45,14.3,.86,32.14,1.25,52.2,.35,20.91,.73,43.21,1.11,65.51,.73,46.22,1.45,95.69,2.36,136.64,.45,20.49,.95,38.68,1.52,52.97,.57,14.23,1.2,24.72,1.93,28.41,.36,1.9,.7,1.97,1.02,.33,.16-.82,.32-2.06,.47-3.71,.15-1.66,.3-3.81,.44-6.29,.28-4.99,.55-11.5,.8-19.35,.25-7.91,.49-17.13,.72-27.45,.91-41.28,1.63-100.43,2.36-161.55,.38-31.03,.76-62.06,1.11-91.15,.21-14.9,.41-29.31,.6-42.97,.23-13.87,.45-26.99,.65-39.1,.26-12.38,.5-23.74,.72-33.8,.25-10.14,.52-19.13,.8-26.71,.57-15.22,1.2-24.42,1.93-25.49,1.45-2.14,2.54,30.12,3.45,79.13,.91,49.02,1.63,114.76,2.36,180.08,.73,65.34,1.45,130.32,2.36,178.65,.45,24.17,.95,44.17,1.52,58,.57,13.82,1.2,21.55,1.93,20.89,1.45-1.23,2.54-34.2,3.45-82.45,.91-48.25,1.63-111.98,2.36-175.1,.73-63.13,1.45-125.68,2.36-171.93,.45-23.13,.95-42.18,1.52-55.23,.57-12.98,1.2-19.9,1.93-19.02,.73,.89,1.36,9.34,1.93,23.3,.57,13.99,1.07,33.41,1.52,56.56,.91,46.24,1.63,106.67,2.36,166.32,.73,59.64,1.45,118.55,2.36,161.74,.91,43.16,2,70.41,3.45,68.06,.36-.58,.7-2.91,1.02-6.75,.32-3.85,.62-9.27,.9-15.91,.57-13.3,1.07-31.63,1.52-53.17,.91-43.09,1.63-99.01,2.36-153.96,.73-54.96,1.45-108.85,2.36-148.01,.91-39.18,2-63.63,3.45-60.5,.73,1.5,1.36,9.3,1.93,21.55,.57,12.27,1.07,28.95,1.52,48.51,.91,39.13,1.63,89.4,2.36,138.45,.73,49.03,1.45,96.96,2.36,131.28,.45,17.17,.95,30.97,1.52,40,.57,9.03,1.2,13.28,1.93,11.57,.73-1.71,1.36-8.89,1.93-19.86,.57-10.97,1.07-25.74,1.52-42.86,.91-34.22,1.63-77.89,2.36-120.13,.73-42.26,1.45-83.13,2.36-112.14,.45-14.51,.95-26.07,1.52-33.48,.57-7.42,1.2-10.69,1.93-8.87,.73,1.83,1.36,8.19,1.93,17.72,.57,9.52,1.07,22.12,1.52,36.58,.91,28.94,1.63,65.27,2.36,100.18,.73,34.92,1.45,68.41,2.36,91.85,.91,23.51,2,36.71,3.45,32.94,.73-1.85,1.36-7.34,1.93-15.2,.57-7.88,1.07-18.15,1.52-29.82,.91-23.35,1.63-52.27,2.36-79.77,.73-27.5,1.45-53.64,2.36-71.66,.45-9.02,.95-16.01,1.52-20.24,.57-4.25,1.2-5.73,1.93-3.96,.73,1.77,1.36,6.28,1.93,12.52,.57,6.24,1.07,14.25,1.52,23.18,.91,17.85,1.63,39.64,2.36,60.17,.73,20.56,1.45,39.75,2.36,52.79,.45,6.53,.95,11.49,1.52,14.38,.57,2.9,1.2,3.71,1.93,2.13,1.45-3.09,2.54-13.6,3.45-26.51,.45-6.47,.86-13.59,1.25-20.87,.35-7,.73-14.46,1.11-21.93,.73-14.41,1.45-27.78,2.36-36.57,.91-8.77,2-13.09,3.45-10.54,.73,1.25,1.36,3.79,1.93,7.07,.57,3.25,1.07,7.18,1.52,11.55,.91,8.74,1.63,19.04,2.36,28.49,.73,9.44,1.45,18.06,2.36,23.68,.45,2.81,.95,4.86,1.52,5.93,.57,1.08,1.2,1.14,1.93,.2,1.45-1.71,2.54-6.52,3.45-12.06,.45-2.78,.86-5.78,1.25-8.8,.35-2.86,.73-5.91,1.11-8.95,.73-5.83,1.45-11.13,2.36-14.48,.45-1.68,.95-2.87,1.52-3.45,.57-.65,1.2-.78,1.93-.22,1.45,1.1,2.54,4.09,3.45,7.43,.91,3.26,1.63,7.14,2.36,10.72,1.45,7.26,2.9,12.75,5.81,11.83,2.9-1.14,4.35-6.61,5.81-11.83,1.45-5.22,2.9-9.88,5.81-9.26,2.9,.61,4.35,5.22,5.81,9.26,1.45,4.1,2.9,7.65,5.81,7.03,2.9-.61,4.35-4.1,5.81-7.03,1.45-2.99,2.9-5.42,5.81-4.8,2.9,.49,4.35,2.76,5.81,4.8,1.45,2.06,2.9,3.78,5.81,3.41s4.35-2.06,5.81-3.41c1.45-1.39,2.9-2.44,5.81-2.08,2.9,.37,4.35,1.39,5.81,2.08,1.45,.7,2.9,1.28,5.81,1.14,5.81-.32,5.81-2.12,11.61-1.8,2.9,.14,4.36,.46,5.81,.65,1.45,.21,2.9,.29,5.81,.17,5.81-.04,5.81-.32,11.61-.28,5.8,.04,5.8,.2,11.61,.16,.05,0,2.9-.03,5.8-.05,.86,0,1.72,0,2.36,0,.91,.01,2,0,3.45-.06,5.81-.26,5.81,.27,11.61,.53,.73,.03,1.36,.03,1.93,.02,.57,.02,1.07,.02,1.52-.02,.91-.06,1.63-.24,2.36-.47,1.45-.44,2.9-1.18,5.8-1.5,2.9-.31,4.35,.42,5.81,1.5,1.45,1.06,2.9,2.62,5.81,3.16,2.9,.54,4.36-1.06,5.81-3.16,1.45-2.04,2.9-4.57,5.81-5.11,2.9-.54,4.35,2.04,5.81,5.11,1.45,3.01,2.9,6.52,5.81,7.06s4.35-3.01,5.81-7.06c1.45-3.99,2.9-8.47,5.81-9,2.9-.54,4.36,3.99,5.81,9,1.45,4.97,2.9,10.46,5.81,10.74,2.9,.32,4.36-5.06,5.81-10.74,.73-2.83,1.45-5.72,2.36-7.95,.45-1.11,.95-2.07,1.52-2.76,.57-.7,1.2-1.13,1.93-1.14,5.81-.26,5.81,23.83,11.61,24.09,1.45,.03,2.54-1.4,3.45-3.79,.91-2.37,1.63-5.44,2.36-8.45,.73-3.01,1.45-5.97,2.36-8.13,.91-2.06,2-3.12,3.45-2.69,1.45,.36,2.54,2.28,3.45,4.3,.91,2.06,1.63,4.41,2.36,6.51,.73,2.1,1.45,3.91,2.36,4.91,.91,1.02,2,1.18,3.45,.38,1.45-.78,2.54-1.99,3.45-2.88,.91-.94,1.63-1.81,2.36-2.42,.73-.62,1.45-.96,2.36-1.09,.91-.12,2,.08,3.45,.52,2.9,.38,4.36,.6,5.81,.57,1.45,0,2.9,.09,5.81,.19,5.81,.23,5.81-.5,11.62-.73,2.9-.1,4.36,.18,5.81,.54,1.45,.37,2.9,1.01,5.81,1.3,5.81,.64,5.81-2.84,11.62-3.8,2.91-.52,4.36,.75,5.81,2.5,1.45,1.7,2.91,3.87,5.81,4.39"/></g><g><line class="cls-8" x1="1414.36" y1="222.58" x2="1424.23" y2="199.43"/><line class="cls-8" x1="1329.55" y1="421.54" x2="1339.42" y2="398.39"/><line class="cls-8" x1="1464.8" y1="347.96" x2="1487.94" y2="357.83"/><line class="cls-8" x1="1265.84" y1="263.15" x2="1288.98" y2="273.02"/><line class="cls-8" x1="1412.55" y1="399.14" x2="1421.95" y2="422.49"/><line class="cls-8" x1="1331.84" y1="198.49" x2="1341.23" y2="221.83"/><line class="cls-8" x1="1288.23" y1="346.15" x2="1264.89" y2="355.54"/><line class="cls-8" x1="1488.89" y1="265.43" x2="1465.55" y2="274.82"/></g><path class="cls-29" d="M1799.85,301.74h-171.49c-1.32,0-2.56,.59-3.39,1.62l-17.61,21.72c-1.3,1.6-1.3,3.9,0,5.5l17.61,21.72c.83,1.02,2.08,1.62,3.39,1.62h171.49c2.41,0,4.37-1.96,4.37-4.37v-43.43c0-2.41-1.96-4.37-4.37-4.37Z"/><text class="cls-22" transform="translate(1634.96 336.05) scale(.98 1)"><tspan class="cls-34" x="0" y="0">W</tspan><tspan class="cls-50" x="25.67" y="0">arning line</tspan></text></g></g></g></svg>