<?xml version="1.0" encoding="UTF-8"?><svg id="Layer_2" xmlns="http://www.w3.org/2000/svg" xmlns:xlink="http://www.w3.org/1999/xlink" viewBox="0 0 1923.25 1079.41"><defs><style>.cls-1{letter-spacing:0em;}.cls-2,.cls-3,.cls-4,.cls-5,.cls-6,.cls-7,.cls-8,.cls-9,.cls-10{fill:none;}.cls-3{stroke-width:3.63px;}.cls-3,.cls-4,.cls-5,.cls-6,.cls-7,.cls-8,.cls-9,.cls-10{stroke-miterlimit:10;}.cls-3,.cls-6,.cls-10{stroke:#6db6af;}.cls-11{letter-spacing:-.09em;}.cls-12{letter-spacing:.1em;}.cls-13{letter-spacing:.1em;}.cls-14{letter-spacing:0em;}.cls-14,.cls-15,.cls-16,.cls-17{fill:#6db6af;}.cls-14,.cls-18,.cls-16,.cls-17,.cls-19,.cls-20{font-family:Gilroy-Bold, Gilroy-Bold;}.cls-4{stroke-width:6px;}.cls-4,.cls-8{stroke:#fff;}.cls-21{clip-path:url(#clippath);}.cls-22{letter-spacing:-.02em;}.cls-5{stroke:#ff884d;stroke-dasharray:0 12;}.cls-5,.cls-7,.cls-8,.cls-9,.cls-10{stroke-width:2px;}.cls-23{fill:#ec752f;}.cls-24,.cls-25,.cls-19,.cls-26,.cls-20,.cls-27{fill:#fff;}.cls-28{fill:#323258;}.cls-29{fill:#ae3047;}.cls-30,.cls-18,.cls-31{fill:#19192c;}.cls-32{fill:#3a6554;}.cls-18{font-size:52.12px;opacity:.4;}.cls-25{letter-spacing:-.01em;}.cls-25,.cls-26,.cls-27{font-family:Gilroy-Medium, Gilroy-Medium;}.cls-17{letter-spacing:1.17em;}.cls-19{font-size:47.01px;}.cls-26{letter-spacing:0em;}.cls-33{clip-path:url(#clippath-1);}.cls-6{stroke-width:.75px;}.cls-34{letter-spacing:-.03em;}.cls-35{letter-spacing:.07em;}.cls-20{font-size:51.81px;}.cls-7,.cls-9{stroke:#d30741;}.cls-36{letter-spacing:.06em;}.cls-37{letter-spacing:0em;}.cls-38{letter-spacing:.12em;}.cls-39{letter-spacing:-.01em;}.cls-40{opacity:.6;}.cls-9{stroke-dasharray:0 0 11.97 11.97;}.cls-41,.cls-10,.cls-42{opacity:.8;}.cls-43{font-size:44.9px;}.cls-42{fill:#2d2d4a;}.cls-31{opacity:.3;}</style><clipPath id="clippath"><rect class="cls-2" x="610.79" y="50.91" width="857.44" height="998.86"/></clipPath><clipPath id="clippath-1"><rect class="cls-2" x="261.37" y="122.68" width="1172.7" height="817.27" rx="32.35" ry="32.35"/></clipPath></defs><g id="Layer_1-2"><g><g><rect class="cls-28" x="0" width="1919.91" height="1079.41"/><rect class="cls-28" x="0" width="1919.91" height="1079.41"/><rect class="cls-31" y="0" width="610.79" height="1079.41"/><circle class="cls-24" cx="1885.01" cy="1041.18" r="8.59"/><circle class="cls-24" cx="1885.01" cy="29.89" r="8.59"/><circle class="cls-24" cx="34.48" cy="1041.18" r="8.59"/><circle class="cls-24" cx="34.48" cy="35.53" r="8.59"/></g><text class="cls-20" transform="translate(97.36 155.36)"><tspan class="cls-12" x="0" y="0">H</tspan><tspan class="cls-35" x="39.63" y="0">O</tspan><tspan class="cls-13" x="84.24" y="0">W </tspan><tspan class="cls-36" x="159.32" y="0">T</tspan><tspan class="cls-13" x="190.4" y="0">O P</tspan><tspan class="cls-38" x="290.5" y="0">L</tspan><tspan class="cls-37" x="321.74" y="0">A</tspan><tspan class="cls-13" x="356.82" y="0">Y</tspan></text><text class="cls-43" transform="translate(92.75 467.76) scale(.98 1)"><tspan class="cls-27"><tspan class="cls-11" x="0" y="0">T</tspan><tspan class="cls-22" x="20.16" y="0">es</tspan><tspan x="65.1" y="0">t all 8 bol</tspan><tspan class="cls-34" x="254.16" y="0">t</tspan><tspan class="cls-39" x="269.92" y="0">s</tspan><tspan x="289.99" y="0">, and </tspan></tspan><tspan class="cls-25" x="0" y="53.88">s</tspan><tspan class="cls-27" x="19.93" y="53.88">el</tspan><tspan class="cls-26" x="55.99" y="53.88">ec</tspan><tspan class="cls-27" x="106.63" y="53.88">t </tspan><tspan class="cls-16" x="134.83" y="53.88">Normal </tspan><tspan class="cls-27" x="296.37" y="53.88">or </tspan><tspan class="cls-16" x="349.34" y="53.88">Faul</tspan><tspan class="cls-14" x="437.75" y="53.88">t</tspan><tspan class="cls-16" x="455.16" y="53.88">y</tspan><tspan class="cls-27" x="478.74" y="53.88">.</tspan><tspan class="cls-17" x="489.65" y="53.88">	</tspan><tspan class="cls-27"><tspan x="0" y="107.75"> </tspan></tspan></text><circle class="cls-24" cx="98.71" cy="369.64" r="5.95"/><circle class="cls-24" cx="128.43" cy="369.64" r="5.95"/><circle class="cls-24" cx="158.16" cy="369.64" r="5.95"/><circle class="cls-15" cx="187.89" cy="369.64" r="5.95"/><g><path class="cls-24" d="M112.08,616.89c-2.15,2.02-4.93,3.03-8.35,3.03s-6.2-1.01-8.37-3.03c-2.16-2.02-3.25-4.72-3.25-8.1v-20.88h4.11v20.7c0,2.22,.65,3.97,1.94,5.28,1.29,1.3,3.15,1.95,5.56,1.95s4.27-.65,5.56-1.95c1.29-1.3,1.94-3.06,1.94-5.28v-20.7h4.06v20.88c0,3.38-1.08,6.08-3.22,8.1Z"/><path class="cls-24" d="M124.27,602.88c0,.85,.43,1.53,1.3,2.04,.87,.51,1.9,.95,3.1,1.31,1.2,.36,2.41,.72,3.62,1.08,1.21,.36,2.24,1.04,3.08,2.04,.84,1,1.26,2.27,1.26,3.84,0,2.04-.77,3.67-2.32,4.89-1.55,1.23-3.53,1.84-5.94,1.84-2.15,0-3.99-.48-5.52-1.44-1.53-.96-2.62-2.23-3.27-3.82l3.31-1.93c.35,1.08,1.02,1.93,1.99,2.56,.97,.63,2.13,.94,3.49,.94,1.26,0,2.31-.25,3.13-.74s1.24-1.26,1.24-2.31c0-.87-.43-1.56-1.28-2.08-.86-.52-1.88-.97-3.08-1.33-1.2-.37-2.41-.73-3.62-1.1-1.21-.37-2.25-1.03-3.1-1.99-.85-.96-1.28-2.18-1.28-3.68,0-1.95,.74-3.55,2.23-4.8,1.49-1.26,3.35-1.89,5.59-1.89,1.79,0,3.39,.41,4.79,1.23,1.4,.82,2.45,1.97,3.16,3.43l-3.22,1.84c-.79-1.92-2.37-2.87-4.72-2.87-1.09,0-2.02,.26-2.78,.77-.77,.51-1.15,1.24-1.15,2.17Z"/><path class="cls-24" d="M143.26,609.91c.38,2.01,1.29,3.56,2.72,4.67,1.43,1.11,3.19,1.66,5.28,1.66,2.91,0,5.03-1.09,6.36-3.28l3.27,1.89c-2.15,3.38-5.39,5.07-9.72,5.07-3.5,0-6.35-1.11-8.54-3.34-2.19-2.23-3.29-5.05-3.29-8.46s1.07-6.2,3.22-8.44c2.15-2.25,4.93-3.37,8.35-3.37,3.24,0,5.88,1.16,7.93,3.48,2.05,2.32,3.07,5.11,3.07,8.37,0,.57-.04,1.15-.13,1.75h-18.5Zm7.64-9.92c-2.06,0-3.77,.59-5.12,1.77-1.35,1.18-2.19,2.76-2.52,4.74h14.75c-.33-2.12-1.15-3.74-2.47-4.85-1.32-1.11-2.87-1.66-4.64-1.66Z"/><path class="cls-24" d="M189.36,600.66h-5.87v12.17c0,1.11,.21,1.89,.64,2.36,.43,.46,1.08,.7,1.96,.72,.88,.02,1.97,0,3.27-.07v3.5c-3.36,.45-5.81,.17-7.37-.83-1.56-1-2.34-2.9-2.34-5.68v-12.17h-4.37v-3.77h4.37v-5.12l3.84-1.17v6.29h5.87v3.77Z"/><path class="cls-24" d="M204.9,596.3c2.59,0,4.67,.83,6.23,2.49s2.34,3.91,2.34,6.76v13.78h-3.84v-13.56c0-1.83-.49-3.24-1.46-4.24-.97-1-2.31-1.5-4.02-1.5-1.91,0-3.46,.61-4.64,1.82-1.18,1.21-1.77,3.08-1.77,5.59v11.9h-3.84v-31.43h3.84v12.21c1.56-2.54,3.94-3.82,7.15-3.82Z"/><path class="cls-24" d="M221.51,609.91c.38,2.01,1.29,3.56,2.72,4.67,1.43,1.11,3.19,1.66,5.28,1.66,2.91,0,5.03-1.09,6.36-3.28l3.27,1.89c-2.15,3.38-5.39,5.07-9.72,5.07-3.5,0-6.35-1.11-8.54-3.34-2.19-2.23-3.29-5.05-3.29-8.46s1.07-6.2,3.22-8.44c2.15-2.25,4.93-3.37,8.35-3.37,3.24,0,5.88,1.16,7.93,3.48,2.05,2.32,3.07,5.11,3.07,8.37,0,.57-.04,1.15-.13,1.75h-18.5Zm7.64-9.92c-2.06,0-3.77,.59-5.12,1.77-1.35,1.18-2.19,2.76-2.52,4.74h14.75c-.33-2.12-1.15-3.74-2.47-4.85-1.32-1.11-2.87-1.66-4.64-1.66Z"/><path class="cls-15" d="M265.8,619.96c-3.33,0-6.1-1.14-8.32-3.41-2.22-2.27-3.33-5.09-3.33-8.44s1.11-6.17,3.33-8.44c2.22-2.27,5-3.41,8.32-3.41,2.15,0,4.11,.52,5.87,1.57,1.77,1.05,3.11,2.45,4.02,4.22l-4.9,2.92c-.44-.93-1.11-1.66-2.01-2.2-.9-.54-1.91-.81-3.03-.81-1.71,0-3.12,.58-4.24,1.73-1.12,1.15-1.68,2.63-1.68,4.42s.56,3.23,1.68,4.38c1.12,1.15,2.53,1.73,4.24,1.73,1.15,0,2.17-.26,3.07-.79,.9-.52,1.57-1.25,2.01-2.18l4.95,2.87c-.97,1.77-2.34,3.18-4.11,4.24s-3.72,1.59-5.87,1.59Z"/><path class="cls-15" d="M291.06,596.26c2.41,0,4.41,.82,5.98,2.47,1.57,1.65,2.36,3.92,2.36,6.82v13.78h-5.7v-13.07c0-1.5-.4-2.64-1.19-3.43-.79-.79-1.85-1.19-3.18-1.19-1.47,0-2.65,.46-3.53,1.39-.88,.93-1.33,2.32-1.33,4.18v12.12h-5.7v-31.43h5.7v11.49c1.38-2.09,3.58-3.14,6.58-3.14Z"/><path class="cls-15" d="M309.08,610.49c.77,2.81,2.84,4.22,6.23,4.22,2.18,0,3.83-.75,4.95-2.24l4.59,2.69c-2.18,3.2-5.39,4.8-9.63,4.8-3.65,0-6.58-1.12-8.79-3.37-2.21-2.24-3.31-5.07-3.31-8.49s1.09-6.2,3.27-8.46c2.18-2.26,4.97-3.39,8.39-3.39,3.24,0,5.91,1.14,8.02,3.41,2.1,2.27,3.16,5.09,3.16,8.44,0,.75-.07,1.54-.22,2.38h-16.65Zm-.09-4.49h11.26c-.32-1.53-.99-2.66-2.01-3.41-1.02-.75-2.17-1.12-3.47-1.12-1.53,0-2.8,.4-3.8,1.19-1,.79-1.66,1.91-1.99,3.35Z"/><path class="cls-15" d="M340.25,619.96c-3.33,0-6.1-1.14-8.32-3.41-2.22-2.27-3.33-5.09-3.33-8.44s1.11-6.17,3.33-8.44c2.22-2.27,5-3.41,8.32-3.41,2.15,0,4.11,.52,5.87,1.57,1.77,1.05,3.11,2.45,4.02,4.22l-4.9,2.92c-.44-.93-1.11-1.66-2.01-2.2-.9-.54-1.91-.81-3.03-.81-1.71,0-3.12,.58-4.24,1.73-1.12,1.15-1.68,2.63-1.68,4.42s.56,3.23,1.68,4.38c1.12,1.15,2.53,1.73,4.24,1.73,1.15,0,2.17-.26,3.07-.79,.9-.52,1.57-1.25,2.01-2.18l4.95,2.87c-.97,1.77-2.34,3.18-4.11,4.24s-3.72,1.59-5.87,1.59Z"/><path class="cls-15" d="M373.59,619.33h-6.62l-8.04-10.2v10.2h-5.7v-31.43h5.7v18.9l7.6-9.92h6.8l-8.88,11.09,9.14,11.36Z"/><path class="cls-15" d="M400.31,596.26c2.97,0,5.51,1.14,7.62,3.43,2.1,2.29,3.16,5.1,3.16,8.42s-1.05,6.13-3.16,8.42c-2.11,2.29-4.64,3.43-7.62,3.43s-5.48-1.09-7.15-3.28v2.65h-5.7v-31.43h5.7v11.63c1.68-2.18,4.06-3.28,7.15-3.28Zm-5.43,16.41c1.15,1.18,2.61,1.77,4.37,1.77s3.23-.59,4.39-1.77c1.16-1.18,1.74-2.7,1.74-4.56s-.58-3.37-1.74-4.56c-1.16-1.18-2.63-1.77-4.39-1.77s-3.22,.59-4.37,1.77c-1.15,1.18-1.72,2.7-1.72,4.56s.57,3.38,1.72,4.56Z"/><path class="cls-15" d="M429.68,596.89h5.7v22.45h-5.7v-2.51c-1.38,2.1-3.58,3.14-6.58,3.14-2.41,0-4.41-.82-5.98-2.47-1.58-1.65-2.36-3.92-2.36-6.82v-13.78h5.7v13.06c0,1.5,.4,2.64,1.19,3.44,.79,.79,1.85,1.19,3.18,1.19,1.47,0,2.65-.46,3.53-1.39,.88-.93,1.33-2.32,1.33-4.18v-12.12Z"/><path class="cls-15" d="M453.21,602.45h-4.99v9.34c0,.78,.19,1.35,.57,1.71,.38,.36,.94,.56,1.68,.61s1.65,.04,2.74-.02v5.25c-3.92,.45-6.68,.07-8.28-1.12s-2.41-3.34-2.41-6.42v-9.34h-3.84v-5.57h3.84v-4.53l5.7-1.75v6.29h4.99v5.57Z"/><path class="cls-15" d="M469.02,602.45h-4.99v9.34c0,.78,.19,1.35,.57,1.71,.38,.36,.94,.56,1.68,.61s1.65,.04,2.74-.02v5.25c-3.92,.45-6.68,.07-8.28-1.12s-2.41-3.34-2.41-6.42v-9.34h-3.84v-5.57h3.84v-4.53l5.7-1.75v6.29h4.99v5.57Z"/><path class="cls-15" d="M491.19,616.53c-2.27,2.29-5.03,3.43-8.3,3.43s-6.03-1.14-8.28-3.43c-2.25-2.29-3.38-5.1-3.38-8.42s1.13-6.13,3.38-8.42c2.25-2.29,5.01-3.43,8.28-3.43s6.04,1.14,8.3,3.43c2.27,2.29,3.4,5.1,3.4,8.42s-1.13,6.13-3.4,8.42Zm-12.56-3.97c1.13,1.17,2.55,1.75,4.26,1.75s3.14-.58,4.28-1.75c1.15-1.17,1.72-2.65,1.72-4.45s-.57-3.28-1.72-4.44c-1.15-1.17-2.58-1.75-4.28-1.75s-3.13,.58-4.26,1.75c-1.13,1.17-1.7,2.65-1.7,4.44s.57,3.28,1.7,4.45Z"/><path class="cls-15" d="M510.89,596.26c2.41,0,4.41,.82,5.98,2.47,1.57,1.65,2.36,3.92,2.36,6.82v13.78h-5.7v-13.07c0-1.5-.4-2.64-1.19-3.43-.79-.79-1.85-1.19-3.18-1.19-1.47,0-2.65,.46-3.53,1.39-.88,.93-1.33,2.32-1.33,4.18v12.12h-5.7v-22.45h5.7v2.51c1.38-2.09,3.58-3.14,6.58-3.14Z"/><path class="cls-24" d="M104.13,654.53h-5.87v12.17c0,1.11,.21,1.89,.64,2.36,.43,.46,1.08,.7,1.96,.72,.88,.02,1.97,0,3.27-.07v3.5c-3.36,.45-5.81,.17-7.37-.83-1.56-1-2.34-2.9-2.34-5.68v-12.17h-4.37v-3.77h4.37v-5.12l3.84-1.17v6.29h5.87v3.77Z"/><path class="cls-24" d="M126.21,670.38c-2.27,2.27-5.02,3.41-8.26,3.41s-5.98-1.14-8.24-3.41c-2.25-2.27-3.38-5.07-3.38-8.4s1.13-6.12,3.38-8.4c2.25-2.27,5-3.41,8.24-3.41s5.99,1.14,8.26,3.41c2.27,2.27,3.4,5.07,3.4,8.4s-1.13,6.12-3.4,8.4Zm-8.26-.4c2.21,0,4.06-.76,5.56-2.29,1.5-1.53,2.25-3.43,2.25-5.7s-.75-4.18-2.25-5.7c-1.5-1.53-3.36-2.29-5.56-2.29s-4.02,.76-5.52,2.29c-1.5,1.53-2.25,3.43-2.25,5.7s.75,4.18,2.25,5.7c1.5,1.53,3.34,2.29,5.52,2.29Z"/><path class="cls-24" d="M155.57,673.79c-3.33,0-6.09-1.13-8.3-3.39-2.21-2.26-3.31-5.07-3.31-8.42s1.1-6.16,3.31-8.42c2.21-2.26,4.97-3.39,8.3-3.39,2.18,0,4.14,.53,5.87,1.59,1.74,1.06,3.03,2.49,3.89,4.29l-3.22,1.89c-.56-1.2-1.42-2.16-2.58-2.87s-2.48-1.08-3.95-1.08c-2.21,0-4.06,.76-5.54,2.29-1.49,1.53-2.23,3.43-2.23,5.7s.74,4.13,2.23,5.66c1.49,1.53,3.33,2.29,5.54,2.29,1.47,0,2.8-.35,3.97-1.06,1.18-.7,2.08-1.65,2.69-2.85l3.27,1.93c-.94,1.77-2.3,3.18-4.06,4.24-1.77,1.06-3.72,1.59-5.87,1.59Z"/><path class="cls-24" d="M180.3,650.18c2.59,0,4.67,.83,6.23,2.49s2.34,3.91,2.34,6.76v13.78h-3.84v-13.56c0-1.83-.49-3.24-1.46-4.24-.97-1-2.31-1.5-4.02-1.5-1.91,0-3.46,.61-4.64,1.82-1.18,1.21-1.77,3.08-1.77,5.59v11.9h-3.84v-31.43h3.84v12.21c1.56-2.54,3.94-3.82,7.15-3.82Z"/><path class="cls-24" d="M196.91,663.78c.38,2.01,1.29,3.56,2.72,4.67,1.43,1.11,3.19,1.66,5.28,1.66,2.91,0,5.03-1.09,6.36-3.28l3.27,1.89c-2.15,3.38-5.39,5.07-9.72,5.07-3.5,0-6.35-1.11-8.54-3.34-2.19-2.23-3.29-5.05-3.29-8.46s1.07-6.2,3.22-8.44c2.15-2.25,4.93-3.37,8.35-3.37,3.24,0,5.88,1.16,7.93,3.48,2.05,2.32,3.07,5.11,3.07,8.37,0,.57-.04,1.15-.13,1.75h-18.5Zm7.64-9.92c-2.06,0-3.77,.59-5.12,1.77-1.35,1.18-2.19,2.76-2.52,4.74h14.75c-.33-2.12-1.15-3.74-2.47-4.85-1.32-1.11-2.87-1.66-4.64-1.66Z"/><path class="cls-24" d="M230.29,673.79c-3.33,0-6.09-1.13-8.3-3.39-2.21-2.26-3.31-5.07-3.31-8.42s1.1-6.16,3.31-8.42c2.21-2.26,4.97-3.39,8.3-3.39,2.18,0,4.14,.53,5.87,1.59,1.74,1.06,3.03,2.49,3.89,4.29l-3.22,1.89c-.56-1.2-1.42-2.16-2.58-2.87s-2.48-1.08-3.95-1.08c-2.21,0-4.06,.76-5.54,2.29-1.49,1.53-2.23,3.43-2.23,5.7s.74,4.13,2.23,5.66c1.49,1.53,3.33,2.29,5.54,2.29,1.47,0,2.8-.35,3.97-1.06,1.18-.7,2.08-1.65,2.69-2.85l3.27,1.93c-.94,1.77-2.3,3.18-4.06,4.24-1.77,1.06-3.72,1.59-5.87,1.59Z"/><path class="cls-24" d="M262.71,673.21h-4.77l-10.07-10.63v10.63h-3.84v-31.43h3.84v18.86l9.54-9.88h4.95l-10.55,10.87,10.91,11.58Z"/><path class="cls-24" d="M292.74,650.76h4.11l-9.01,23.84c-.94,2.54-2.26,4.48-3.95,5.81-1.69,1.33-3.64,1.92-5.85,1.77v-3.64c2.7,.21,4.68-1.32,5.94-4.59l.42-.84-9.63-22.36h4.11l7.36,17.21,6.5-17.21Z"/><path class="cls-24" d="M317.82,670.38c-2.27,2.27-5.02,3.41-8.26,3.41s-5.98-1.14-8.24-3.41c-2.25-2.27-3.38-5.07-3.38-8.4s1.13-6.12,3.38-8.4c2.25-2.27,5-3.41,8.24-3.41s5.99,1.14,8.26,3.41c2.27,2.27,3.4,5.07,3.4,8.4s-1.13,6.12-3.4,8.4Zm-8.26-.4c2.21,0,4.06-.76,5.56-2.29,1.5-1.53,2.25-3.43,2.25-5.7s-.75-4.18-2.25-5.7c-1.5-1.53-3.36-2.29-5.56-2.29s-4.02,.76-5.52,2.29c-1.5,1.53-2.25,3.43-2.25,5.7s.75,4.18,2.25,5.7c1.5,1.53,3.34,2.29,5.52,2.29Z"/><path class="cls-24" d="M341,650.76h3.84v22.45h-3.84v-3.23c-1.56,2.54-3.95,3.82-7.15,3.82-2.59,0-4.67-.83-6.23-2.49-1.56-1.66-2.34-3.91-2.34-6.76v-13.78h3.84v13.56c0,1.83,.49,3.24,1.46,4.24,.97,1,2.31,1.5,4.02,1.5,1.91,0,3.46-.61,4.64-1.82,1.18-1.21,1.77-3.08,1.77-5.59v-11.9Z"/><path class="cls-24" d="M354.52,654.53c1.27-2.78,3.56-4.18,6.89-4.18v4.09c-1.88-.09-3.5,.42-4.86,1.53-1.35,1.11-2.03,2.89-2.03,5.34v11.9h-3.84v-22.45h3.84v3.77Z"/><path class="cls-24" d="M394.48,650.76h3.84v22.45h-3.84v-3.86c-1.91,2.96-4.7,4.44-8.35,4.44-3.09,0-5.73-1.14-7.9-3.43-2.18-2.29-3.27-5.08-3.27-8.37s1.09-6.08,3.27-8.37c2.18-2.29,4.81-3.43,7.9-3.43,3.65,0,6.43,1.48,8.35,4.44v-3.86Zm-7.86,19.26c2.24,0,4.11-.77,5.61-2.31,1.5-1.54,2.25-3.45,2.25-5.72s-.75-4.18-2.25-5.72c-1.5-1.54-3.37-2.31-5.61-2.31s-4.06,.77-5.56,2.31c-1.5,1.54-2.25,3.45-2.25,5.72s.75,4.18,2.25,5.72c1.5,1.54,3.36,2.31,5.56,2.31Z"/><path class="cls-24" d="M415.15,650.18c2.59,0,4.67,.83,6.23,2.49s2.34,3.91,2.34,6.76v13.78h-3.84v-13.56c0-1.83-.49-3.24-1.46-4.24-.97-1-2.31-1.5-4.02-1.5-1.91,0-3.46,.61-4.64,1.82-1.18,1.21-1.77,3.08-1.77,5.59v11.9h-3.84v-22.45h3.84v3.23c1.56-2.54,3.94-3.82,7.15-3.82Z"/><path class="cls-24" d="M432.37,656.76c0,.85,.43,1.53,1.3,2.04,.87,.51,1.9,.95,3.1,1.31,1.2,.36,2.41,.72,3.62,1.08,1.21,.36,2.24,1.04,3.08,2.04,.84,1,1.26,2.27,1.26,3.84,0,2.04-.77,3.67-2.32,4.89-1.55,1.23-3.53,1.84-5.94,1.84-2.15,0-3.99-.48-5.52-1.44-1.53-.96-2.62-2.23-3.27-3.82l3.31-1.93c.35,1.08,1.02,1.93,1.99,2.56,.97,.63,2.13,.94,3.49,.94,1.26,0,2.31-.25,3.13-.74s1.24-1.26,1.24-2.31c0-.87-.43-1.56-1.28-2.08-.86-.52-1.88-.97-3.08-1.33-1.2-.37-2.41-.73-3.62-1.1-1.21-.37-2.25-1.03-3.1-1.99-.85-.96-1.28-2.18-1.28-3.68,0-1.95,.74-3.55,2.23-4.8,1.49-1.26,3.35-1.89,5.59-1.89,1.79,0,3.39,.41,4.79,1.23,1.4,.82,2.45,1.97,3.16,3.43l-3.22,1.84c-.79-1.92-2.37-2.87-4.72-2.87-1.09,0-2.02,.26-2.78,.77-.77,.51-1.15,1.24-1.15,2.17Z"/><path class="cls-24" d="M474.41,650.76h3.61l-6.43,22.45h-3.93l-5.27-16.83-5.23,16.83h-4.11l-6.5-22.45h4.02l4.85,17.06,5.21-17.06h3.79l5.2,17.07,4.79-17.07Z"/><path class="cls-24" d="M484.22,663.78c.38,2.01,1.29,3.56,2.72,4.67,1.43,1.11,3.19,1.66,5.28,1.66,2.91,0,5.03-1.09,6.36-3.28l3.27,1.89c-2.15,3.38-5.39,5.07-9.72,5.07-3.5,0-6.35-1.11-8.54-3.34-2.19-2.23-3.29-5.05-3.29-8.46s1.07-6.2,3.22-8.44c2.15-2.25,4.93-3.37,8.35-3.37,3.24,0,5.88,1.16,7.93,3.48,2.05,2.32,3.07,5.11,3.07,8.37,0,.57-.04,1.15-.13,1.75h-18.5Zm7.64-9.92c-2.06,0-3.77,.59-5.12,1.77-1.35,1.18-2.19,2.76-2.52,4.74h14.75c-.33-2.12-1.15-3.74-2.47-4.85-1.32-1.11-2.87-1.66-4.64-1.66Z"/><path class="cls-24" d="M511.11,654.53c1.27-2.78,3.56-4.18,6.89-4.18v4.09c-1.88-.09-3.5,.42-4.86,1.53-1.35,1.11-2.03,2.89-2.03,5.34v11.9h-3.84v-22.45h3.84v3.77Z"/><path class="cls-24" d="M524.22,656.76c0,.85,.43,1.53,1.3,2.04,.87,.51,1.9,.95,3.1,1.31,1.2,.36,2.41,.72,3.62,1.08,1.21,.36,2.24,1.04,3.08,2.04,.84,1,1.26,2.27,1.26,3.84,0,2.04-.77,3.67-2.32,4.89-1.55,1.23-3.53,1.84-5.94,1.84-2.15,0-3.99-.48-5.52-1.44-1.53-.96-2.62-2.23-3.27-3.82l3.31-1.93c.35,1.08,1.02,1.93,1.99,2.56,.97,.63,2.13,.94,3.49,.94,1.26,0,2.31-.25,3.13-.74s1.24-1.26,1.24-2.31c0-.87-.43-1.56-1.28-2.08-.86-.52-1.88-.97-3.08-1.33-1.2-.37-2.41-.73-3.62-1.1-1.21-.37-2.25-1.03-3.1-1.99-.85-.96-1.28-2.18-1.28-3.68,0-1.95,.74-3.55,2.23-4.8,1.49-1.26,3.35-1.89,5.59-1.89,1.79,0,3.39,.41,4.79,1.23,1.4,.82,2.45,1.97,3.16,3.43l-3.22,1.84c-.79-1.92-2.37-2.87-4.72-2.87-1.09,0-2.02,.26-2.78,.77-.77,.51-1.15,1.24-1.15,2.17Z"/><path class="cls-24" d="M543.57,673.7c-.79,0-1.47-.28-2.03-.85-.56-.57-.84-1.26-.84-2.06s.28-1.5,.84-2.07c.56-.57,1.24-.85,2.03-.85s1.51,.28,2.05,.85c.54,.57,.82,1.26,.82,2.07s-.27,1.5-.82,2.06c-.54,.57-1.23,.85-2.05,.85Zm-1.46-9.7l-.84-13.24v-8.98h4.64v8.98l-.84,13.24h-2.96Z"/></g><path class="cls-4" d="M1488.45,307.22V165.02c0-32.86,24.75-59.5,55.29-59.5h279.13c30.53,0,55.29,26.64,55.29,59.5V455.24c0,32.86-24.75,59.5-55.29,59.5h-279.13c-30.53,0-55.29-26.64-55.29-59.5v-148.03"/><path class="cls-4" d="M1488.45,750.57v-142.2c0-32.86,24.75-59.5,55.29-59.5h279.13c30.53,0,55.29,26.64,55.29,59.5v290.23c0,32.86-24.75,59.5-55.29,59.5h-279.13c-30.53,0-55.29-26.64-55.29-59.5v-148.03"/><g><path class="cls-29" d="M1824.07,564.51h-281.52c-21.53,0-38.98,17.45-38.98,38.98v299.99c0,21.53,17.45,38.98,38.98,38.98h281.52c21.53,0,38.98-17.45,38.98-38.98v-299.99c0-21.53-17.45-38.98-38.98-38.98Zm26.11,333.11c0,17.3-14.02,31.32-31.32,31.32h-271.11c-17.3,0-31.32-14.02-31.32-31.32v-288.26c0-17.3,14.02-31.32,31.32-31.32h271.11c17.3,0,31.32,14.02,31.32,31.32v288.26Z"/><rect class="cls-29" x="1516.44" y="578.04" width="333.74" height="350.89" rx="31.32" ry="31.32"/></g><line class="cls-8" x1="1878.16" y1="319.9" x2="1923.25" y2="319.9"/><line class="cls-8" x1="1878.16" y1="762.43" x2="1923.25" y2="762.43"/><text class="cls-19" transform="translate(1620.25 800.83)"><tspan x="0" y="0">Faul</tspan><tspan class="cls-1" x="92.56" y="0">t</tspan><tspan x="110.8" y="0">y</tspan></text><g><circle class="cls-23" cx="1685.42" cy="713.62" r="31.12"/><text class="cls-19" transform="translate(1679.08 729.75)"><tspan x="0" y="0">!</tspan></text></g><g class="cls-21"><g><rect class="cls-30" x="260.04" y="120.11" width="1169.15" height="819.84" rx="37.94" ry="37.94"/><rect class="cls-42" x="262.33" y="120.83" width="1172.7" height="817.27" rx="32.35" ry="32.35"/><g class="cls-40"><g class="cls-33"><g><rect class="cls-6" x="226.14" y="106.88" width="1223.09" height="865.86"/><line class="cls-6" x1="226.14" y1="955.76" x2="1449.24" y2="955.76"/><line class="cls-6" x1="226.14" y1="938.78" x2="1449.24" y2="938.78"/><line class="cls-6" x1="226.14" y1="921.8" x2="1449.24" y2="921.8"/><line class="cls-6" x1="226.14" y1="904.83" x2="1449.24" y2="904.83"/><line class="cls-6" x1="226.14" y1="887.85" x2="1449.24" y2="887.85"/><line class="cls-6" x1="226.14" y1="870.87" x2="1449.24" y2="870.87"/><line class="cls-6" x1="226.14" y1="853.89" x2="1449.24" y2="853.89"/><line class="cls-6" x1="226.14" y1="836.91" x2="1449.24" y2="836.91"/><line class="cls-6" x1="226.14" y1="819.94" x2="1449.24" y2="819.94"/><line class="cls-6" x1="226.14" y1="802.96" x2="1449.24" y2="802.96"/><line class="cls-6" x1="226.14" y1="785.98" x2="1449.24" y2="785.98"/><line class="cls-6" x1="226.14" y1="769" x2="1449.24" y2="769"/><line class="cls-6" x1="226.14" y1="752.03" x2="1449.24" y2="752.03"/><line class="cls-6" x1="226.14" y1="735.05" x2="1449.24" y2="735.05"/><line class="cls-6" x1="226.14" y1="718.07" x2="1449.24" y2="718.07"/><line class="cls-6" x1="226.14" y1="701.09" x2="1449.24" y2="701.09"/><line class="cls-6" x1="226.14" y1="684.12" x2="1449.24" y2="684.12"/><line class="cls-6" x1="226.14" y1="667.14" x2="1449.24" y2="667.14"/><line class="cls-6" x1="226.14" y1="650.16" x2="1449.24" y2="650.16"/><line class="cls-6" x1="226.14" y1="633.18" x2="1449.24" y2="633.18"/><line class="cls-6" x1="226.14" y1="616.21" x2="1449.24" y2="616.21"/><line class="cls-6" x1="226.14" y1="599.23" x2="1449.24" y2="599.23"/><line class="cls-6" x1="226.14" y1="582.25" x2="1449.24" y2="582.25"/><line class="cls-6" x1="226.14" y1="565.27" x2="1449.24" y2="565.27"/><line class="cls-6" x1="226.14" y1="548.29" x2="1449.24" y2="548.29"/><line class="cls-6" x1="226.14" y1="531.32" x2="1449.24" y2="531.32"/><line class="cls-6" x1="226.14" y1="514.34" x2="1449.24" y2="514.34"/><line class="cls-6" x1="226.14" y1="497.36" x2="1449.24" y2="497.36"/><line class="cls-6" x1="226.14" y1="480.38" x2="1449.24" y2="480.38"/><line class="cls-6" x1="226.14" y1="463.41" x2="1449.24" y2="463.41"/><line class="cls-6" x1="226.14" y1="446.43" x2="1449.24" y2="446.43"/><line class="cls-6" x1="226.14" y1="429.45" x2="1449.24" y2="429.45"/><line class="cls-6" x1="226.14" y1="412.47" x2="1449.24" y2="412.47"/><line class="cls-6" x1="226.14" y1="395.5" x2="1449.24" y2="395.5"/><line class="cls-6" x1="226.14" y1="378.52" x2="1449.24" y2="378.52"/><line class="cls-6" x1="226.14" y1="361.54" x2="1449.24" y2="361.54"/><line class="cls-6" x1="226.14" y1="344.56" x2="1449.24" y2="344.56"/><line class="cls-6" x1="226.14" y1="327.59" x2="1449.24" y2="327.59"/><line class="cls-6" x1="226.14" y1="310.61" x2="1449.24" y2="310.61"/><line class="cls-6" x1="226.14" y1="293.63" x2="1449.24" y2="293.63"/><line class="cls-6" x1="226.14" y1="276.65" x2="1449.24" y2="276.65"/><line class="cls-6" x1="226.14" y1="259.68" x2="1449.24" y2="259.68"/><line class="cls-6" x1="226.14" y1="242.7" x2="1449.24" y2="242.7"/><line class="cls-6" x1="226.14" y1="225.72" x2="1449.24" y2="225.72"/><line class="cls-6" x1="226.14" y1="208.74" x2="1449.24" y2="208.74"/><line class="cls-6" x1="226.14" y1="191.76" x2="1449.24" y2="191.76"/><line class="cls-6" x1="226.14" y1="174.79" x2="1449.24" y2="174.79"/><line class="cls-6" x1="226.14" y1="157.81" x2="1449.24" y2="157.81"/><line class="cls-6" x1="226.14" y1="140.83" x2="1449.24" y2="140.83"/><line class="cls-6" x1="226.14" y1="123.85" x2="1449.24" y2="123.85"/><line class="cls-6" x1="1429.19" y1="106.88" x2="1429.19" y2="972.74"/><line class="cls-6" x1="1409.14" y1="106.88" x2="1409.14" y2="972.74"/><line class="cls-6" x1="1389.09" y1="106.88" x2="1389.09" y2="972.74"/><line class="cls-6" x1="1369.04" y1="106.88" x2="1369.04" y2="972.74"/><line class="cls-6" x1="1348.98" y1="106.88" x2="1348.98" y2="972.74"/><line class="cls-6" x1="1328.93" y1="106.88" x2="1328.93" y2="972.74"/><line class="cls-6" x1="1308.88" y1="106.88" x2="1308.88" y2="972.74"/><line class="cls-6" x1="1288.83" y1="106.88" x2="1288.83" y2="972.74"/><line class="cls-6" x1="1268.78" y1="106.88" x2="1268.78" y2="972.74"/><line class="cls-6" x1="1248.73" y1="106.88" x2="1248.73" y2="972.74"/><line class="cls-6" x1="1228.68" y1="106.88" x2="1228.68" y2="972.74"/><line class="cls-6" x1="1208.63" y1="106.88" x2="1208.63" y2="972.74"/><line class="cls-6" x1="1188.58" y1="106.88" x2="1188.58" y2="972.74"/><line class="cls-6" x1="1168.53" y1="106.88" x2="1168.53" y2="972.74"/><line class="cls-6" x1="1148.48" y1="106.88" x2="1148.48" y2="972.74"/><line class="cls-6" x1="1128.43" y1="106.88" x2="1128.43" y2="972.74"/><line class="cls-6" x1="1108.38" y1="106.88" x2="1108.38" y2="972.74"/><line class="cls-6" x1="1088.33" y1="106.88" x2="1088.33" y2="972.74"/><line class="cls-6" x1="1068.27" y1="106.88" x2="1068.27" y2="972.74"/><line class="cls-6" x1="1048.22" y1="106.88" x2="1048.22" y2="972.74"/><line class="cls-6" x1="1028.17" y1="106.88" x2="1028.17" y2="972.74"/><line class="cls-6" x1="1008.12" y1="106.88" x2="1008.12" y2="972.74"/><line class="cls-6" x1="988.07" y1="106.88" x2="988.07" y2="972.74"/><line class="cls-6" x1="968.02" y1="106.88" x2="968.02" y2="972.74"/><line class="cls-6" x1="947.97" y1="106.88" x2="947.97" y2="972.74"/><line class="cls-6" x1="927.92" y1="106.88" x2="927.92" y2="972.74"/><line class="cls-6" x1="907.87" y1="106.88" x2="907.87" y2="972.74"/><line class="cls-6" x1="887.82" y1="106.88" x2="887.82" y2="972.74"/><line class="cls-6" x1="867.77" y1="106.88" x2="867.77" y2="972.74"/><line class="cls-6" x1="847.72" y1="106.88" x2="847.72" y2="972.74"/><line class="cls-6" x1="827.67" y1="106.88" x2="827.67" y2="972.74"/><line class="cls-6" x1="807.62" y1="106.88" x2="807.62" y2="972.74"/><line class="cls-6" x1="787.56" y1="106.88" x2="787.56" y2="972.74"/><line class="cls-6" x1="767.51" y1="106.88" x2="767.51" y2="972.74"/><line class="cls-6" x1="747.46" y1="106.88" x2="747.46" y2="972.74"/><line class="cls-6" x1="727.41" y1="106.88" x2="727.41" y2="972.74"/><line class="cls-6" x1="707.36" y1="106.88" x2="707.36" y2="972.74"/><line class="cls-6" x1="687.31" y1="106.88" x2="687.31" y2="972.74"/><line class="cls-6" x1="667.26" y1="106.88" x2="667.26" y2="972.74"/><line class="cls-6" x1="647.21" y1="106.88" x2="647.21" y2="972.74"/><line class="cls-6" x1="627.16" y1="106.88" x2="627.16" y2="972.74"/><line class="cls-6" x1="607.11" y1="106.88" x2="607.11" y2="972.74"/><line class="cls-6" x1="587.06" y1="106.88" x2="587.06" y2="972.74"/><line class="cls-6" x1="567.01" y1="106.88" x2="567.01" y2="972.74"/><line class="cls-6" x1="546.96" y1="106.88" x2="546.96" y2="972.74"/><line class="cls-6" x1="526.91" y1="106.88" x2="526.91" y2="972.74"/><line class="cls-6" x1="506.85" y1="106.88" x2="506.85" y2="972.74"/><line class="cls-6" x1="486.8" y1="106.88" x2="486.8" y2="972.74"/><line class="cls-6" x1="466.75" y1="106.88" x2="466.75" y2="972.74"/><line class="cls-6" x1="446.7" y1="106.88" x2="446.7" y2="972.74"/><line class="cls-6" x1="426.65" y1="106.88" x2="426.65" y2="972.74"/><line class="cls-6" x1="406.6" y1="106.88" x2="406.6" y2="972.74"/><line class="cls-6" x1="386.55" y1="106.88" x2="386.55" y2="972.74"/><line class="cls-6" x1="366.5" y1="106.88" x2="366.5" y2="972.74"/><line class="cls-6" x1="346.45" y1="106.88" x2="346.45" y2="972.74"/><line class="cls-6" x1="326.4" y1="106.88" x2="326.4" y2="972.74"/><line class="cls-6" x1="306.35" y1="106.88" x2="306.35" y2="972.74"/><line class="cls-6" x1="286.3" y1="106.88" x2="286.3" y2="972.74"/><line class="cls-6" x1="266.25" y1="106.88" x2="266.25" y2="972.74"/><line class="cls-6" x1="246.2" y1="106.88" x2="246.2" y2="972.74"/></g></g></g><path class="cls-4" d="M240.2,293.28V155.57c0-30.35,24.75-54.96,55.29-54.96H1401.88c30.53,0,55.29,24.61,55.29,54.96V909.06c0,30.35-24.75,54.96-55.29,54.96H295.49c-30.53,0-55.29-24.61-55.29-54.96V287.11"/><line class="cls-10" x1="344.4" y1="122.68" x2="344.4" y2="939.95"/><line class="cls-10" x1="545.68" y1="122.68" x2="545.68" y2="939.95"/><line class="cls-10" x1="746.95" y1="122.68" x2="746.95" y2="939.95"/><line class="cls-8" x1="1435.04" y1="531.32" x2="262.33" y2="531.32"/><line class="cls-10" x1="948.23" y1="122.68" x2="948.23" y2="939.95"/><line class="cls-10" x1="1146.51" y1="123.68" x2="1146.51" y2="940.95"/><line class="cls-10" x1="1346.78" y1="122.68" x2="1346.78" y2="939.95"/><line class="cls-5" x1="262.33" y1="327.73" x2="1435.04" y2="327.73"/><line class="cls-5" x1="262.33" y1="734.9" x2="1435.04" y2="734.9"/><g><line class="cls-7" x1="261.37" y1="258.32" x2="267.37" y2="258.32"/><line class="cls-9" x1="279.33" y1="258.32" x2="1422.09" y2="258.32"/><line class="cls-7" x1="1428.07" y1="258.32" x2="1434.07" y2="258.32"/></g><g><line class="cls-7" x1="261.37" y1="804.31" x2="267.37" y2="804.31"/><line class="cls-9" x1="279.33" y1="804.31" x2="1422.09" y2="804.31"/><line class="cls-7" x1="1428.07" y1="804.31" x2="1434.07" y2="804.31"/></g><g class="cls-41"><path class="cls-3" d="M262.33,522.42c2.9,.35,4.35,3.86,5.81,7.04,.73,1.61,1.45,3.13,2.36,4.24,.91,1.14,2,1.86,3.45,1.81,5.8-.25,5.8-11.97,11.61-11.71,2.9,.11,4.35,2.93,5.8,5.66,.73,1.37,1.45,2.71,2.36,3.71,.91,1.03,2,1.74,3.45,1.79,5.8,.22,5.8-11.11,11.61-11.32,1.45-.03,2.54,.65,3.45,1.71,.91,1.08,1.63,2.58,2.36,4.12,1.45,3.07,2.9,6.35,5.8,6.59,2.9,.23,4.35-3.07,5.8-6.59,1.45-3.5,2.9-7.2,5.8-7.45,2.9-.38,4.35,3.36,5.81,7.45,1.45,4.05,2.9,8.45,5.81,8.83,2.9,.38,4.35-4.05,5.81-8.83,1.45-4.74,2.9-9.84,5.8-10.22,1.45-.15,2.54,.9,3.45,2.83,.91,1.91,1.63,4.6,2.36,7.38,1.45,5.54,2.9,11.56,5.8,12.09,2.9,.53,4.35-5.54,5.8-12.09,1.45-6.5,2.9-13.49,5.8-14.02,2.9-.53,4.35,6.5,5.8,14.02,1.45,7.52,2.9,15.36,5.8,18.38,.36,.37,.7,.58,1.02,.61,.32,.06,.62,.03,.9-.21,.28-.23,.55-.64,.8-1.2,.25-.53,.49-1.2,.72-2.03,.91-3.33,1.63-8.91,2.36-15.56,.38-3.58,.76-7.16,1.11-10.51,.39-3.63,.79-7.31,1.25-10.94,.45-3.62,.95-7.03,1.52-10.22,.28-1.57,.58-3.04,.9-4.33,.32-1.32,.66-2.55,1.02-3.5,.18-.48,.36-.86,.53-1.15,.17-.3,.34-.55,.5-.68,.32-.27,.62-.16,.9,.33,.57,.91,1.07,3.21,1.52,6.91,.91,7.34,1.63,19.8,2.36,34.1,.73,14.35,1.45,30.57,2.36,45.22,.45,7.38,.95,14.38,1.52,20.33,.28,2.97,.58,5.68,.9,8.01,.16,1.14,.33,2.26,.5,3.28,.17,1.01,.35,1.91,.53,2.68,.73,3.08,1.36,3.24,1.93,.63,.57-2.47,1.07-7.68,1.52-15.14,.45-7.45,.86-17.11,1.25-28.21,.39-11.07,.75-23.6,1.11-36.78,.38-13.85,.76-27.69,1.11-40.68,.21-7.03,.41-13.82,.6-20.26,.23-6.9,.45-13.43,.65-19.46,.45-12.53,.95-24.07,1.52-33.51,.57-9.42,1.2-16.77,1.93-20.45,.36-1.83,.7-2.5,1.02-2.04,.32,.46,.62,1.94,.9,4.54,.57,5.16,1.07,14.55,1.52,27.19,.91,25.24,1.63,63.49,2.36,104.66,.73,41.14,1.45,85.21,2.36,121.7,.45,18.23,.95,34.55,1.52,47.4,.57,12.83,1.2,22.2,1.93,26.02,.73,3.74,1.36,.72,1.93-7.86,.57-8.59,1.07-22.8,1.52-41.15,.91-36.68,1.63-89.99,2.36-146.09,.73-56.06,1.45-114.76,2.36-161.89,.45-23.5,.95-44.02,1.52-59.61,.28-7.79,.58-14.34,.9-19.35,.16-2.5,.33-4.66,.5-6.31,.17-1.65,.35-2.88,.53-3.64,.73-3.06,1.36,2.17,1.93,14.16,.28,5.95,.55,13.77,.8,22.94,.25,9.19,.49,19.81,.72,31.62,.45,23.62,.86,52.01,1.25,83.06,.35,31.6,.73,65.31,1.11,99.02,.38,34.69,.76,69.39,1.11,101.91,.39,33,.79,64.43,1.25,91.85,.26,13.9,.5,26.64,.72,37.93,.25,11.48,.52,21.72,.8,30.32,.57,17.21,1.2,28.29,1.93,30.26,.73,2.09,1.36-5.5,1.93-20.43,.28-7.44,.55-16.81,.8-27.73,.21-11.06,.45-23.53,.72-37.14,.91-55.01,1.63-130.45,2.36-206.97,.38-38.52,.76-77.04,1.11-113.15,.39-36.36,.79-70.54,1.25-100.14,.45-29.65,.95-54.51,1.52-72.37,.57-17.9,1.2-28.38,1.93-29.28,.73-.8,1.36,8.52,1.93,25.33,.57,16.95,1.07,41.45,1.52,71.03,.91,59.27,1.63,138.81,2.36,218.57,.38,39.9,.76,79.81,1.11,117.22,.39,37.44,.79,72.38,1.25,101.72,.45,29.35,.95,53.13,1.52,68.28,.57,15.15,1.2,21.49,1.93,16.27,.09-.66,.18-1.46,.27-2.39,.04-.42,.08-.94,.13-1.56,.04-.53,.08-1.13,.13-1.82,.17-2.55,.34-5.6,.5-9.07,.07-1.67,.15-3.52,.24-5.57,.07-1.97,.15-4.13,.23-6.45,.13-4.23,.27-9.1,.44-14.54,.12-5.06,.26-10.66,.41-16.76,.12-5.74,.25-11.95,.39-18.59,.21-12.34,.45-26.26,.72-41.45,.36-27.03,.79-58.57,1.25-92.36,.35-29.65,.73-61.29,1.11-92.92,.38-27.36,.76-54.72,1.11-80.36,.39-23.3,.79-42.46,1.25-55.84,.45-13.39,.95-20.99,1.52-21.75,.57-.8,1.2,5.25,1.93,17.45,.36,6.05,.7,12.93,1.02,19.85,.21,4.7,.51,11.59,.9,20.35,.37,9.56,.89,23.21,1.52,39.59,.37,9.98,.79,21.62,1.25,34.09,.39,10.17,.75,19.03,1.11,26.6,.36,7.52,.73,13.82,1.11,18.44,.19,2.41,.39,4.46,.6,6.08,.1,.81,.21,1.52,.32,2.12,.11,.67,.22,1.24,.33,1.71,.91,3.91,2,2.06,3.45,.7,1.45-.9,2.54-4.98,3.45-10.41,.91-5.43,1.63-12.19,2.36-18.64,.73-6.45,1.45-12.6,2.36-16.85,.91-4.27,2-6.58,3.45-5.76s2.54,4.16,3.45,8.37c.91,4.23,1.63,9.39,2.36,14.24,.73,4.86,1.45,9.46,2.36,12.63,.91,3.18,2,4.87,3.45,4.21,1.45-.66,2.54-3.18,3.45-6.31,.91-3.15,1.63-6.96,2.36-10.53,.73-3.57,1.45-6.89,2.36-9.09,.45-1.1,.95-1.92,1.52-2.38,.57-.5,1.2-.67,1.93-.42,1.45,.51,2.54,2.31,3.45,4.52,.91,2.22,1.63,4.89,2.36,7.37,.73,2.49,1.45,4.82,2.36,6.4,.91,1.59,2,2.39,3.45,2,2.9-.73,4.35-4.76,5.8-8.41,.73-1.83,1.45-3.52,2.36-4.72,.91-1.23,2-1.96,3.45-1.81,1.45,.14,2.54,1.07,3.45,2.25,.91,1.18,1.63,2.73,2.36,4.28,.73,1.55,1.45,3.09,2.36,4.24,.91,1.15,2,1.88,3.45,2.02,2.9,.23,4.35-2.92,5.8-6.27,1.45-3.33,2.9-7.1,5.81-7.57,5.8-1.41,5.8,15.64,11.61,17.95,1.45,.46,2.54-.55,3.45-2.51,.91-1.95,1.63-4.82,2.36-7.87,.73-3.04,1.45-6.26,2.36-8.87,.91-2.6,2-4.64,3.45-5.1,1.45-.51,2.54,.8,3.45,3.45,.91,2.62,1.63,6.46,2.36,10.52,.73,4.06,1.45,8.34,2.36,11.81,.91,3.46,2,6.15,3.45,6.74,1.45,.59,2.54-1.36,3.45-4.85,.91-3.48,1.63-8.48,2.36-13.69,1.45-10.56,2.9-20.98,5.81-33.54,.04-.15,.11-.43,.27-1.02,.04-.12,.08-.28,.13-.46,.04-.15,.08-.32,.13-.52,.17-.67,.34-1.23,.5-1.7s.31-.82,.47-1.07c.15-.34,.3-.58,.44-.7,.14-.12,.28-.13,.41-.02,.13,.12,.26,.34,.39,.58,.25,.54,.49,1.56,.72,3.03,.05,.39,.11,.78,.17,1.18l.16,1.28c.11,.91,.21,1.93,.32,3.06,.21,2.25,.41,4.93,.6,7.94,.39,5.98,.75,13.47,1.11,21.95,.86,21.77,1.72,43.53,2.36,59.86,.45,10.88,.95,21.84,1.52,31.87,.57,10.01,1.2,19.1,1.93,25.49,.73,6.43,1.36,8.35,1.93,5.49,.57-2.95,1.07-10.42,1.52-21.58,.11-2.9,.22-5.92,.33-9.05,.1-3.36,.21-6.84,.32-10.42,.19-7.64,.39-15.7,.6-24.04,.35-18.39,.73-38.01,1.11-57.62,.73-41.31,1.45-86.74,2.36-124.28,.26-9.69,.5-18.57,.72-26.45,.25-8.08,.52-15.46,.8-21.94,.08-1.65,.15-3.2,.22-4.67,.08-1.48,.15-2.87,.22-4.16,.15-2.65,.31-5.03,.47-7.12,.16-2.06,.33-3.95,.5-5.3,.17-1.36,.35-2.45,.53-3.07,2.9-10.4,4.35,94.25,5.81,196.98,.73,51.43,1.45,102.71,2.36,139.83,.91,37.13,2,59.85,3.45,54.53,.09-.33,.18-.74,.27-1.24,.09-.5,.17-1.16,.26-1.86,.17-1.42,.34-3.17,.5-5.2s.32-4.36,.47-6.95c.13-2.55,.27-5.47,.44-8.75,.28-6.33,.55-13.56,.8-21.49,.21-7.74,.45-16.48,.72-26,.45-18.37,.86-38.95,1.25-59.87,.35-20.1,.73-41.55,1.11-62.99,.73-41.21,1.45-78.45,2.36-101.71,.23-5.88,.46-10.64,.72-14.48,.25-3.82,.52-6.63,.8-8.33,.28-1.7,.58-2.32,.9-1.73,.32,.66,.66,2.49,1.02,5.46,.36,2.96,.7,6.68,1.02,10.88,.32,4.18,.62,8.84,.9,13.8,.57,9.94,1.07,21.03,1.52,32.24,.64,17.42,1.5,40.64,2.36,63.86,.36,9.28,.73,17.55,1.11,24.26,.19,3.35,.39,6.31,.6,8.81,.21,2.53,.42,4.69,.65,6.32,.11,.82,.23,1.52,.35,2.09,.06,.28,.12,.54,.18,.76,.06,.24,.12,.46,.19,.64,.25,.72,.52,.94,.8,.63,.14-.19,.29-.38,.44-.71,.15-.33,.31-.79,.47-1.37,.16-.56,.33-1.32,.5-2.04,.17-.71,.35-1.53,.53-2.45,.18-.92,.36-1.89,.53-2.88,.11-.63,.28-1.56,.5-2.77,.13-.77,.28-1.72,.47-2.83,.13-.82,.27-1.76,.44-2.81,.22-1.45,.49-3.22,.8-5.24,.21-1.47,.45-3.13,.72-4.93,.91-6.23,1.63-11.36,2.36-15.46,1.45-8.18,2.9-11.9,5.81-12.46,1.45-.34,2.54,.21,3.45,2.32,.91,2.06,1.63,5.6,2.36,10.14,.86,5.75,1.71,11.5,2.36,15.81,.91,5.71,2,11.96,3.45,16.72,.73,2.22,1.36,3.49,1.93,3.16,.14-.08,.28-.26,.41-.5,.13-.22,.26-.54,.39-.95,.25-.81,.49-1.99,.72-3.49,.45-3.03,.86-7.22,1.25-12.49,.39-5.26,.75-11.46,1.11-18.26,.73-13.59,1.45-29.63,2.36-44.54,.45-7.47,.95-14.77,1.52-21.1,.57-6.33,1.2-11.73,1.93-15.15,.73-3.42,1.36-3.82,1.93-1.33,.57,2.44,1.07,7.88,1.52,15.54,.91,15.31,1.63,39.68,2.36,66.58,.73,26.85,1.45,56.03,2.36,80.67,.12,3.13,.24,6.14,.35,9,.13,2.94,.25,5.74,.37,8.36,.25,5.36,.52,10.3,.8,14.66,.16,2.28,.31,4.31,.44,6.08,.15,1.83,.31,3.49,.47,4.97,.32,2.95,.66,5.16,1.02,6.44,.36,1.19,.7,1.23,1.02,.27,.32-.97,.62-2.89,.9-5.93,.57-6.01,1.06-15.58,1.52-27.96,.45-12.41,.86-27.4,1.25-43.87,.35-16.81,.73-34.74,1.11-52.68,.73-36.43,1.45-74.09,2.36-103.09,.91-28.97,2-49.47,3.45-50.35,1.45-.87,2.54,18.51,3.45,47.5,.91,28.96,1.63,67.48,2.36,105.95,1.45,76.9,2.9,153.35,5.8,151.48,.73-.33,1.36-5.62,1.93-14.21,.57-8.61,1.07-20.61,1.52-34.81,.91-28.46,1.63-65.78,2.36-102.46,1.45-73.55,2.9-144.34,5.81-139.88,.36,.5,.7,2.06,1.02,4.51,.32,2.49,.62,5.92,.9,10.07,.57,8.3,1.07,19.57,1.52,32.68,.45,13.1,.86,28.13,1.25,43.91,.35,15.54,.73,32.12,1.11,48.7,.73,32.7,1.45,64.4,2.36,86.9,.45,11.24,.95,20.29,1.52,25.97,.57,5.67,1.2,8.1,1.93,6.58,.73-1.52,1.36-6.56,1.93-13.95,.57-7.42,1.07-17.12,1.52-28.37,.91-22.48,1.63-50.44,2.36-77.12,.73-26.69,1.45-52.11,2.36-69.67,.45-8.79,.95-15.53,1.52-19.63,.57-4.1,1.2-5.5,1.93-3.74,.73,1.76,1.36,6.17,1.93,12.25,.57,6.08,1.07,13.84,1.52,22.53,.91,17.4,1.63,38.49,2.36,58.25,.73,19.77,1.45,38.21,2.36,50.47,.45,6.14,.95,10.73,1.52,13.3,.57,2.58,1.2,3.12,1.93,1.37,.73-1.8,1.36-5.15,1.93-9.61,.57-4.46,1.07-9.99,1.52-16.06,.91-12.14,1.63-26.41,2.36-39.46,.73-13.04,1.45-24.96,2.36-32.57,.23-1.91,.46-3.54,.72-4.88,.25-1.36,.52-2.42,.8-3.15,.57-1.46,1.2-1.56,1.93-.18,1.45,2.54,2.54,9.35,3.45,16.77,.91,7.53,1.63,16.2,2.36,24.01,.73,7.82,1.45,14.87,2.36,19.25,.45,2.17,.95,3.79,1.52,4.6,.57,.81,1.2,.82,1.93-.05,1.45-1.49,2.54-5.41,3.45-9.76,.91-4.32,1.63-9.4,2.36-14.05,.73-4.62,1.45-8.91,2.36-11.76,.45-1.43,.95-2.49,1.52-3.08,.57-.69,1.2-.96,1.93-.69,.36,.13,.7,.37,1.02,.71,.16,.17,.32,.36,.47,.57,.15,.19,.3,.39,.44,.62,.57,.9,1.07,2.13,1.52,3.56,.91,2.86,1.63,6.52,2.36,10.08,.73,3.59,1.45,6.97,2.36,9.63,.91,2.63,2,4.4,3.45,4.42,.36,0,.7-.1,1.02-.3,.32-.21,.62-.4,.9-.75,.57-.67,1.07-1.71,1.52-3,.91-2.59,1.63-6.23,2.36-9.99,.73-3.73,1.45-7.67,2.36-10.91,.91-3.25,1.99-5.73,3.45-6.45,1.45-.95,2.54,.63,3.45,3.92,.91,3.3,1.63,8.11,2.36,13.45,.73,5.33,1.45,11.14,2.36,16.06,.45,2.49,.95,4.62,1.52,6.58,.57,1.91,1.2,3.42,1.93,4.21,.73,.79,1.36,.62,1.93-.41,.57-1,1.07-2.73,1.52-5.24,.91-4.97,1.63-12.73,2.36-21.2,.73-8.45,1.45-17.65,2.36-25.57,.91-7.89,2-14.46,3.45-16.8,1.45-2.45,2.54,1.31,3.45,9.33,.45,4,.86,8.99,1.25,14.61,.39,5.63,.75,11.91,1.11,18.43,.73,13.04,1.45,27.08,2.36,38.78,.91,11.61,2,21.32,3.45,24.12,.73,1.39,1.36,.61,1.93-2.05,.57-2.6,1.07-7.08,1.52-12.99,.91-11.79,1.63-29.27,2.36-47.86,.73-18.59,1.45-38.29,2.36-54.38,.45-8.04,.95-15.18,1.52-20.71,.57-5.53,1.2-9.47,1.93-10.94,.73-1.45,1.36-.08,1.93,3.79,.57,3.85,1.07,10.14,1.52,18.23,.91,16.16,1.63,39.51,2.36,64.01,.73,24.49,1.45,50.12,2.36,70.69,.45,10.28,.95,19.29,1.52,26.16,.57,6.86,1.2,11.58,1.93,13.08,.36,.72,.7,.71,1.02-.25,.16-.47,.32-1.14,.47-2.02,.08-.44,.15-.93,.22-1.47,.07-.53,.14-1.09,.22-1.68,.28-2.43,.55-5.63,.8-9.52,.25-3.89,.49-8.45,.72-13.49,.45-10.13,.86-22.66,1.25-36.53,.35-14.35,.73-29.66,1.11-44.97,.73-31.6,1.45-65.2,2.36-93.4,.26-7.32,.5-14.02,.72-19.97,.25-6.24,.52-11.99,.8-17.08,.28-5.12,.58-9.68,.9-13.36,.16-1.86,.33-3.45,.5-4.91,.17-1.46,.35-2.69,.53-3.65,.36-1.92,.7-2.52,1.02-1.86,.32,.63,.62,2.62,.9,5.6,.57,5.95,1.07,16.63,1.52,30.92,.45,14.3,.86,32.14,1.25,52.2,.35,20.91,.73,43.21,1.11,65.51,.73,46.22,1.45,95.69,2.36,136.64,.45,20.49,.95,38.68,1.52,52.97,.57,14.23,1.2,24.72,1.93,28.41,.36,1.9,.7,1.97,1.02,.33,.16-.82,.32-2.06,.47-3.71,.15-1.66,.3-3.81,.44-6.29,.28-4.99,.55-11.5,.8-19.35,.25-7.91,.49-17.13,.72-27.45,.91-41.28,1.63-100.43,2.36-161.55,.38-31.03,.76-62.06,1.11-91.15,.21-14.9,.41-29.31,.6-42.97,.23-13.87,.45-26.99,.65-39.1,.26-12.38,.5-23.74,.72-33.8,.25-10.14,.52-19.13,.8-26.71,.57-15.22,1.2-24.42,1.93-25.49,1.45-2.14,2.54,30.12,3.45,79.13,.91,49.02,1.63,114.76,2.36,180.08,.73,65.34,1.45,130.32,2.36,178.65,.45,24.17,.95,44.17,1.52,58,.57,13.82,1.2,21.55,1.93,20.89,1.45-1.23,2.54-34.2,3.45-82.45,.91-48.25,1.63-111.98,2.36-175.1,.73-63.13,1.45-125.68,2.36-171.93,.45-23.13,.95-42.18,1.52-55.23,.57-12.98,1.2-19.9,1.93-19.02,.73,.89,1.36,9.34,1.93,23.3,.57,13.99,1.07,33.41,1.52,56.56,.91,46.24,1.63,106.67,2.36,166.32,.73,59.64,1.45,118.55,2.36,161.74,.91,43.16,2,70.41,3.45,68.06,.36-.58,.7-2.91,1.02-6.75,.32-3.85,.62-9.27,.9-15.91,.57-13.3,1.07-31.63,1.52-53.17,.91-43.09,1.63-99.01,2.36-153.96,.73-54.96,1.45-108.85,2.36-148.01,.91-39.18,2-63.63,3.45-60.5,.73,1.5,1.36,9.3,1.93,21.55,.57,12.27,1.07,28.95,1.52,48.51,.91,39.13,1.63,89.4,2.36,138.45,.73,49.03,1.45,96.96,2.36,131.28,.45,17.17,.95,30.97,1.52,40,.57,9.03,1.2,13.28,1.93,11.57,.73-1.71,1.36-8.89,1.93-19.86,.57-10.97,1.07-25.74,1.52-42.86,.91-34.22,1.63-77.89,2.36-120.13,.73-42.26,1.45-83.13,2.36-112.14,.45-14.51,.95-26.07,1.52-33.48,.57-7.42,1.2-10.69,1.93-8.87,.73,1.83,1.36,8.19,1.93,17.72,.57,9.52,1.07,22.12,1.52,36.58,.91,28.94,1.63,65.27,2.36,100.18,.73,34.92,1.45,68.41,2.36,91.85,.91,23.51,2,36.71,3.45,32.94,.73-1.85,1.36-7.34,1.93-15.2,.57-7.88,1.07-18.15,1.52-29.82,.91-23.35,1.63-52.27,2.36-79.77,.73-27.5,1.45-53.64,2.36-71.66,.45-9.02,.95-16.01,1.52-20.24,.57-4.25,1.2-5.73,1.93-3.96,.73,1.77,1.36,6.28,1.93,12.52,.57,6.24,1.07,14.25,1.52,23.18,.91,17.85,1.63,39.64,2.36,60.17,.73,20.56,1.45,39.75,2.36,52.79,.45,6.53,.95,11.49,1.52,14.38,.57,2.9,1.2,3.71,1.93,2.13,1.45-3.09,2.54-13.6,3.45-26.51,.45-6.47,.86-13.59,1.25-20.87,.35-7,.73-14.46,1.11-21.93,.73-14.41,1.45-27.78,2.36-36.57,.91-8.77,2-13.09,3.45-10.54,.73,1.25,1.36,3.79,1.93,7.07,.57,3.25,1.07,7.18,1.52,11.55,.91,8.74,1.63,19.04,2.36,28.49,.73,9.44,1.45,18.06,2.36,23.68,.45,2.81,.95,4.86,1.52,5.93,.57,1.08,1.2,1.14,1.93,.2,1.45-1.71,2.54-6.52,3.45-12.06,.45-2.78,.86-5.78,1.25-8.8,.35-2.86,.73-5.91,1.11-8.95,.73-5.83,1.45-11.13,2.36-14.48,.45-1.68,.95-2.87,1.52-3.45,.57-.65,1.2-.78,1.93-.22,1.45,1.1,2.54,4.09,3.45,7.43,.91,3.26,1.63,7.14,2.36,10.72,1.45,7.26,2.9,12.75,5.81,11.83,2.9-1.14,4.35-6.61,5.81-11.83,1.45-5.22,2.9-9.88,5.81-9.26,2.9,.61,4.35,5.22,5.81,9.26,1.45,4.1,2.9,7.65,5.81,7.03,2.9-.61,4.35-4.1,5.81-7.03,1.45-2.99,2.9-5.42,5.81-4.8,2.9,.49,4.35,2.76,5.81,4.8,1.45,2.06,2.9,3.78,5.81,3.41s4.35-2.06,5.81-3.41c1.45-1.39,2.9-2.44,5.81-2.08,2.9,.37,4.35,1.39,5.81,2.08,1.45,.7,2.9,1.28,5.81,1.14,5.81-.32,5.81-2.12,11.61-1.8,2.9,.14,4.35,.46,5.81,.65,1.45,.21,2.9,.29,5.81,.17,5.81-.04,5.81-.32,11.61-.28,5.81,.04,5.81,.2,11.61,.16,.05,0,2.9-.03,5.8-.05,.86,0,1.71,0,2.36,0,.91,.01,2,0,3.45-.06,5.81-.26,5.81,.27,11.61,.53,.73,.03,1.36,.03,1.93,.02,.57,.02,1.07,.02,1.52-.02,.91-.06,1.63-.24,2.36-.47,1.45-.44,2.9-1.18,5.8-1.5,2.9-.31,4.35,.42,5.81,1.5,1.45,1.06,2.9,2.62,5.81,3.16,2.9,.54,4.36-1.06,5.81-3.16,1.45-2.04,2.9-4.57,5.81-5.11s4.35,2.04,5.81,5.11c1.45,3.01,2.9,6.52,5.81,7.06s4.35-3.01,5.81-7.06c1.45-3.99,2.9-8.47,5.81-9,2.9-.54,4.36,3.99,5.81,9,1.45,4.97,2.9,10.46,5.81,10.74,2.9,.32,4.36-5.06,5.81-10.74,.73-2.83,1.45-5.72,2.36-7.95,.45-1.11,.95-2.07,1.52-2.76,.57-.7,1.2-1.13,1.93-1.14,5.81-.26,5.81,23.83,11.61,24.09,1.45,.03,2.54-1.4,3.45-3.79,.91-2.37,1.63-5.44,2.36-8.45,.73-3.01,1.45-5.97,2.36-8.13,.91-2.06,2-3.12,3.45-2.69,1.45,.36,2.54,2.28,3.45,4.3,.91,2.06,1.63,4.41,2.36,6.51,.73,2.1,1.45,3.91,2.36,4.91,.91,1.02,2,1.18,3.45,.38,1.45-.78,2.54-1.99,3.45-2.88,.91-.94,1.63-1.81,2.36-2.42,.73-.62,1.45-.96,2.36-1.09,.91-.12,2,.08,3.45,.52,2.9,.38,4.36,.6,5.81,.57,1.45,0,2.9,.09,5.81,.19,5.81,.23,5.81-.5,11.62-.73,2.9-.1,4.36,.18,5.81,.54,1.45,.37,2.9,1.01,5.81,1.3,5.81,.64,5.81-2.84,11.62-3.8,2.91-.52,4.36,.75,5.81,2.5,1.45,1.7,2.91,3.87,5.81,4.39"/></g></g></g><path class="cls-32" d="M1519.76,164.4h0c0-15.04,12.19-27.24,27.24-27.24h276.85c15.04,0,27.24,12.19,27.24,27.24V457.05h0c0,15.04-12.19,27.24-27.24,27.24h-276.85c-15.04,0-27.24-12.2-27.24-27.24V164.4h0m306.42-43.25h-281.51c-21.53,0-38.98,17.45-38.98,38.98V458.78c0,21.53,17.45,38.98,38.98,38.98h281.51c21.53,0,38.98-17.45,38.98-38.98V160.13c0-21.53-17.45-38.98-38.98-38.98"/><path class="cls-32" d="M1823.84,137.17h-276.85c-15.04,0-27.24,12.19-27.24,27.24h0V457.05c0,15.04,12.19,27.24,27.24,27.24h276.85c15.04,0,27.24-12.2,27.24-27.24h0V164.4c0-15.04-12.19-27.24-27.24-27.24"/><text class="cls-18" transform="translate(1597.39 321.28) scale(.98 1)"><tspan x="0" y="0">Normal</tspan></text></g></g></svg>