<?xml version="1.0" encoding="utf-8"?>
<!-- Generator: Adobe Illustrator 26.3.1, SVG Export Plug-In . SVG Version: 6.00 Build 0)  -->
<svg version="1.1" id="Layer_2_00000176734181943116804600000003486596161868178562_"
	 xmlns="http://www.w3.org/2000/svg" xmlns:xlink="http://www.w3.org/1999/xlink" x="0px" y="0px" viewBox="0 0 1920 1080"
	 style="enable-background:new 0 0 1920 1080;" xml:space="preserve">
<style type="text/css">
	.st0{fill:#323258;}
	.st1{opacity:0.3;fill:#6DB6AF;enable-background:new    ;}
	.st2{fill:#6DB6AF;}
	.st3{opacity:0.4;fill:#25253A;enable-background:new    ;}
	.st4{fill:#25253A;}
	.st5{fill:#D6D5DA;}
	.st6{fill:none;stroke:#B7B7B7;stroke-width:11;stroke-miterlimit:10;}
	.st7{fill:#B79A48;}
	.st8{fill:#19192C;}
	.st9{fill:#CCB25E;}
	.st10{fill:#B7B7B7;}
	.st11{clip-path:url(#SVGID_00000150814130869795767050000004183282991449974162_);}
	.st12{opacity:0.51;}
	.st13{fill:none;stroke:#D6D5DA;stroke-width:2;stroke-miterlimit:10;}
	.st14{fill:#E5E5E5;}
	.st15{opacity:0.59;fill:#B7B7B7;enable-background:new    ;}
	.st16{fill:#AE3047;}
	.st17{opacity:0.2;fill:#E5E5E5;enable-background:new    ;}
	.st18{fill:#F7FCE8;}
	.st19{clip-path:url(#SVGID_00000152239939348483394590000016181466432831072391_);}
	.st20{clip-path:url(#SVGID_00000000191243959272088710000010112474278022881721_);}
	.st21{fill:none;stroke:#19192C;stroke-width:10.36;stroke-linecap:round;stroke-linejoin:round;}
	.st22{opacity:0.3;fill:#19192C;enable-background:new    ;}
	.st23{fill:#FFFFFF;}
	.st24{enable-background:new    ;}
</style>
<g id="Layer_1-2">
	<g>
		<rect class="st0" width="1919.9" height="1079.4"/>
		<rect class="st0" width="1919.9" height="1079.4"/>
		<circle class="st1" cx="1266.4" cy="529.5" r="290.5"/>
		<circle class="st1" cx="1266.4" cy="529.5" r="354.4"/>
		<circle class="st2" cx="1266.4" cy="529.5" r="242"/>
		<path class="st3" d="M1490.9,458.4h-101.3c-4.3,0-7.7,3.5-7.7,7.7v171.1c0,4.3,3.5,7.7,7.7,7.7h111.7V458.3L1490.9,458.4
			L1490.9,458.4z"/>
		<path class="st3" d="M1490.9,12.2h-101.3c-4.3,0-7.7,3.5-7.7,7.7V121c0,4.3,3.5,7.7,7.7,7.7h111.7V12.2H1490.9L1490.9,12.2z"/>
		<polyline class="st4" points="1919.9,0 1500.4,0 1500.4,1080 1919.9,1080 1919.9,0 		"/>
		<path class="st3" d="M1094.7,458h-1.8v0.2c-4.1,0.8-7.2,4.4-7.3,8.8l-0.1,31l-323.3-1.4v-8.4h-12.5V488l-67.1-0.3v0.2l-12.8-0.1
			l-0.2,42.2h-7.8v7.4h-10.2l0,0l-49.8-0.2l-24.9,6.5l-0.1,13.6l23.5,6.7l51.7,0.2l0,0h9.7v7.4h7.8l-0.2,42.2l12.8,0.1v0.8l67.1,0.3
			v-0.8h12.5v-11l323.3,1.4l-0.1,30.5c0,4.5,3.1,8.2,7.2,9.2v0.3h2.2l56.4,0.6l0.8-186.6L1094.7,458L1094.7,458z"/>
		<g>
			<path class="st5" d="M1108,485.4l-0.4,93.4l-6.7,6.6l-347.3-1.5l0.5-106.7l347.3,1.5L1108,485.4L1108,485.4z"/>
			<g>
				<line class="st6" x1="1109.8" y1="478.7" x2="1109.3" y2="585.4"/>
				<line class="st6" x1="1090.8" y1="478.6" x2="1090.3" y2="585.3"/>
				<line class="st6" x1="1071.9" y1="478.6" x2="1071.4" y2="585.2"/>
				<line class="st6" x1="1052.9" y1="478.5" x2="1052.5" y2="585.2"/>
				<line class="st6" x1="1034" y1="478.4" x2="1033.5" y2="585.1"/>
				<line class="st6" x1="1015.1" y1="478.3" x2="1014.6" y2="585"/>
				<line class="st6" x1="996.1" y1="478.2" x2="995.7" y2="584.9"/>
				<line class="st6" x1="977.2" y1="478.2" x2="976.7" y2="584.8"/>
				<line class="st6" x1="958.2" y1="478.1" x2="957.8" y2="584.8"/>
				<line class="st6" x1="939.3" y1="478" x2="938.8" y2="584.7"/>
				<line class="st6" x1="920.4" y1="477.9" x2="919.9" y2="584.6"/>
				<line class="st6" x1="901.4" y1="477.8" x2="901" y2="584.5"/>
			</g>
			<g>
				<line class="st6" x1="882.4" y1="477.7" x2="881.9" y2="584.4"/>
				<line class="st6" x1="863.4" y1="477.7" x2="863" y2="584.4"/>
				<line class="st6" x1="844.5" y1="477.6" x2="844" y2="584.3"/>
				<line class="st6" x1="825.6" y1="477.5" x2="825.1" y2="584.2"/>
				<line class="st6" x1="806.6" y1="477.4" x2="806.2" y2="584.1"/>
				<line class="st6" x1="787.7" y1="477.3" x2="787.2" y2="584"/>
				<line class="st6" x1="768.7" y1="477.2" x2="768.3" y2="583.9"/>
			</g>
			
				<rect x="656.8" y="512.8" transform="matrix(4.363268e-03 -1 1 4.363268e-03 135.7515 1199.3395)" class="st7" width="26.8" height="37.3"/>
			<polygon class="st8" points="652,544.8 652.1,518 601.8,517.8 576.9,524.2 576.8,537.9 600.3,544.6 			"/>
			
				<rect x="659.6" y="512.9" transform="matrix(4.363268e-03 -1 1 4.363268e-03 145.9359 1209.6486)" class="st9" width="41.6" height="37.3"/>
			
				<rect x="652.7" y="485.4" transform="matrix(4.363268e-03 -1 1 4.363268e-03 180.9906 1245.066)" class="st5" width="126" height="92.5"/>
			
				<rect x="652.8" y="498.2" transform="matrix(4.363268e-03 -1 1 4.363268e-03 181.0402 1245.1062)" class="st10" width="126" height="66.8"/>
			<g>
				<g>
					<defs>
						
							<rect id="SVGID_1_" x="652.4" y="498.5" transform="matrix(4.363268e-03 -1 1 4.363268e-03 180.7371 1245.5453)" width="127" height="67.1"/>
					</defs>
					<clipPath id="SVGID_00000137094445552665036400000006909125814138257813_">
						<use xlink:href="#SVGID_1_"  style="overflow:visible;"/>
					</clipPath>
					<g style="clip-path:url(#SVGID_00000137094445552665036400000006909125814138257813_);">
						<g class="st12">
							<line class="st13" x1="679.4" y1="593.2" x2="751.3" y2="593.5"/>
							<line class="st13" x1="679.5" y1="589.1" x2="751.3" y2="589.4"/>
							<line class="st13" x1="679.5" y1="585" x2="751.3" y2="585.3"/>
							<line class="st13" x1="679.5" y1="580.9" x2="751.3" y2="581.2"/>
							<line class="st13" x1="679.5" y1="576.8" x2="751.4" y2="577.1"/>
							<line class="st13" x1="679.5" y1="572.7" x2="751.4" y2="573"/>
							<line class="st13" x1="679.5" y1="568.6" x2="751.4" y2="568.9"/>
							<line class="st13" x1="679.6" y1="564.5" x2="751.4" y2="564.8"/>
							<line class="st13" x1="679.6" y1="560.4" x2="751.4" y2="560.7"/>
							<line class="st13" x1="679.6" y1="556.3" x2="751.5" y2="556.6"/>
							<line class="st13" x1="679.6" y1="552.2" x2="751.5" y2="552.5"/>
							<line class="st13" x1="679.6" y1="548.1" x2="751.5" y2="548.4"/>
							<line class="st13" x1="679.7" y1="544" x2="751.5" y2="544.3"/>
							<line class="st13" x1="679.7" y1="539.9" x2="751.5" y2="540.2"/>
							<line class="st13" x1="679.7" y1="535.8" x2="751.5" y2="536.1"/>
							<line class="st13" x1="679.7" y1="531.7" x2="751.6" y2="532"/>
							<line class="st13" x1="679.7" y1="527.6" x2="751.6" y2="527.9"/>
							<line class="st13" x1="679.7" y1="523.5" x2="751.6" y2="523.8"/>
						</g>
						<g class="st12">
							<line class="st13" x1="679.8" y1="519" x2="751.6" y2="519.3"/>
							<line class="st13" x1="679.8" y1="514.9" x2="751.6" y2="515.2"/>
							<line class="st13" x1="679.8" y1="510.8" x2="751.7" y2="511.1"/>
							<line class="st13" x1="679.8" y1="506.7" x2="751.7" y2="507"/>
							<line class="st13" x1="679.8" y1="502.6" x2="751.7" y2="502.9"/>
							<line class="st13" x1="679.8" y1="498.5" x2="751.7" y2="498.8"/>
							<line class="st13" x1="679.9" y1="494.4" x2="751.7" y2="494.7"/>
							<line class="st13" x1="679.9" y1="490.3" x2="751.7" y2="490.6"/>
							<line class="st13" x1="679.9" y1="486.2" x2="751.8" y2="486.5"/>
							<line class="st13" x1="679.9" y1="482.1" x2="751.8" y2="482.4"/>
							<line class="st13" x1="679.9" y1="478" x2="751.8" y2="478.3"/>
							<line class="st13" x1="680" y1="473.9" x2="751.8" y2="474.2"/>
							<line class="st13" x1="680" y1="469.7" x2="751.8" y2="470.1"/>
							<line class="st13" x1="680" y1="465.6" x2="751.8" y2="465.9"/>
							<line class="st13" x1="680" y1="461.5" x2="751.9" y2="461.8"/>
							<line class="st13" x1="680" y1="457.4" x2="751.9" y2="457.7"/>
							<line class="st13" x1="680" y1="453.3" x2="751.9" y2="453.6"/>
							<line class="st13" x1="680.1" y1="449.2" x2="751.9" y2="449.5"/>
						</g>
					</g>
				</g>
			</g>
			<g>
				<path class="st14" d="M1151.5,439.3l-0.8,186.6l-56.4-0.6c-5.2,0-9.4-4.3-9.4-9.5l0.7-168.2c0-5,4.1-9,9-9L1151.5,439.3
					L1151.5,439.3z"/>
				<path class="st10" d="M1092.9,438.7l-0.8,186.6h2.2c-5.2,0-9.4-4.2-9.4-9.5l0.7-168.2c0-5,4.1-9,9-9L1092.9,438.7L1092.9,438.7z
					"/>
				<path class="st15" d="M1151.3,491.5l-0.4,82.3l-60.5-0.7c-2.9,0-5.3-2.4-5.3-5.4l0.3-68c0-5,4.1-9,9-9L1151.3,491.5
					L1151.3,491.5z"/>
			</g>
		</g>
		<path class="st16" d="M1389.6,438.7h101.3v186.6h-101.3c-4.3,0-7.7-3.5-7.7-7.7V446.5C1381.9,442.2,1385.4,438.7,1389.6,438.7
			L1389.6,438.7z"/>
		<rect x="1388.2" y="485.4" class="st17" width="102.7" height="90.4"/>
		<rect x="1490.9" y="438.7" class="st18" width="10.5" height="186.6"/>
		<g>
			<g>
				<defs>
					<rect id="SVGID_00000012439746463873313460000014366857706874716329_" x="1317.6" width="222.3" height="155.4"/>
				</defs>
				<clipPath id="SVGID_00000124856323474665611820000018251414753256899499_">
					<use xlink:href="#SVGID_00000012439746463873313460000014366857706874716329_"  style="overflow:visible;"/>
				</clipPath>
				<g style="clip-path:url(#SVGID_00000124856323474665611820000018251414753256899499_);">
					<g>
						<path class="st16" d="M1389.6-86h101.3v186.6h-101.3c-4.3,0-7.7-3.5-7.7-7.7V-78.2C1381.9-82.5,1385.4-86,1389.6-86L1389.6-86
							z"/>
						<rect x="1388.2" y="-39.3" class="st17" width="102.7" height="90.4"/>
						<rect x="1490.9" y="-86" class="st18" width="10.5" height="186.6"/>
					</g>
				</g>
			</g>
		</g>
		<g>
			<g>
				<defs>
					<rect id="SVGID_00000164476673249605894740000012090903809540187826_" x="1317.6" y="924.6" width="222.3" height="155.4"/>
				</defs>
				<clipPath id="SVGID_00000011016334652900081200000018207016347299798913_">
					<use xlink:href="#SVGID_00000164476673249605894740000012090903809540187826_"  style="overflow:visible;"/>
				</clipPath>
				<g style="clip-path:url(#SVGID_00000011016334652900081200000018207016347299798913_);">
					<g>
						<path class="st16" d="M1389.6,985.1h101.3v186.6h-101.3c-4.3,0-7.7-3.5-7.7-7.7V992.9C1381.9,988.6,1385.4,985.2,1389.6,985.1
							L1389.6,985.1z"/>
						<rect x="1388.2" y="1031.8" class="st17" width="102.7" height="90.4"/>
						<rect x="1490.9" y="985.1" class="st18" width="10.5" height="186.6"/>
					</g>
				</g>
			</g>
		</g>
		<line class="st21" x1="1226.2" y1="530.7" x2="1313.6" y2="530.7"/>
		<polyline class="st21" points="1285.6,503 1313.6,530.9 1285.6,558.8 		"/>
		<rect class="st22" width="610.8" height="1079.4"/>
		
			<ellipse transform="matrix(0.9999 -1.020247e-02 1.020247e-02 0.9999 -10.621 0.4062)" class="st23" cx="34.5" cy="1041.2" rx="8.6" ry="8.6"/>
		<circle class="st23" cx="34.5" cy="35.5" r="8.6"/>
		<g class="st24">
			<path class="st23" d="M121.3,119.1h7.1v36.3h-7.1v-15h-13.5v15h-7.1v-36.3h7.1v14.4h13.5V119.1z"/>
		</g>
		<g class="st24">
			<path class="st23" d="M170.9,150.6c-3.7,3.6-8.1,5.5-13.4,5.5c-5.3,0-9.7-1.8-13.3-5.5c-3.6-3.6-5.5-8.1-5.5-13.4
				c0-5.3,1.8-9.7,5.5-13.4c3.6-3.6,8.1-5.5,13.3-5.5c5.2,0,9.7,1.8,13.4,5.5c3.7,3.6,5.5,8.1,5.5,13.4
				C176.4,142.5,174.5,147,170.9,150.6z M149.2,145.7c2.2,2.2,5,3.3,8.3,3.3s6.1-1.1,8.3-3.3c2.2-2.2,3.4-5.1,3.4-8.5
				c0-3.5-1.1-6.3-3.4-8.5c-2.2-2.2-5-3.4-8.3-3.4s-6.1,1.1-8.3,3.4c-2.2,2.2-3.4,5.1-3.4,8.5C145.8,140.7,146.9,143.5,149.2,145.7z
				"/>
		</g>
		<g class="st24">
			<path class="st23" d="M192,155.4l-9.6-36.3h7.5l7,26.9l7.6-26.9h6.2l7.6,26.8l6.9-26.8h6.9l-9.5,36.3h-8.1l-6.9-24.1l-6.8,24.1
				H192z"/>
		</g>
		<g class="st24">
			<path class="st23" d="M284,119.1v6.8h-9.8v29.4h-7.1v-29.4h-9.7v-6.8H284z"/>
		</g>
		<g class="st24">
			<path class="st23" d="M321.6,150.6c-3.7,3.6-8.1,5.5-13.4,5.5s-9.7-1.8-13.3-5.5c-3.6-3.6-5.5-8.1-5.5-13.4
				c0-5.3,1.8-9.7,5.5-13.4c3.6-3.6,8.1-5.5,13.3-5.5s9.7,1.8,13.4,5.5c3.7,3.6,5.5,8.1,5.5,13.4C327.1,142.5,325.3,147,321.6,150.6
				z M299.9,145.7c2.2,2.2,5,3.3,8.3,3.3c3.3,0,6.1-1.1,8.3-3.3c2.2-2.2,3.4-5.1,3.4-8.5c0-3.5-1.1-6.3-3.4-8.5
				c-2.2-2.2-5-3.4-8.3-3.4c-3.3,0-6.1,1.1-8.3,3.4c-2.2,2.2-3.4,5.1-3.4,8.5C296.6,140.7,297.7,143.5,299.9,145.7z"/>
			<path class="st23" d="M368.6,119.1c3.5,0,6.4,1.2,8.8,3.5c2.4,2.3,3.6,5.2,3.6,8.7c0,3.4-1.2,6.3-3.6,8.7
				c-2.4,2.3-5.3,3.5-8.8,3.5h-6.4v11.9h-7.2v-36.3H368.6z M368.6,136.8c1.5,0,2.8-0.5,3.8-1.6c1-1.1,1.5-2.4,1.5-3.9
				c0-1.6-0.5-2.9-1.5-3.9c-1-1-2.3-1.6-3.8-1.6h-6.4v11H368.6z"/>
		</g>
		<g class="st24">
			<path class="st23" d="M398.4,148.5h13.8v6.8h-21v-36.3h7.1V148.5z"/>
		</g>
		<g class="st24">
			<path class="st23" d="M446.3,155.4l-2.3-6.5h-14.9l-2.2,6.5h-7.7l12.7-36.3h8.9l12.8,36.3H446.3z M431.4,142.1h10.2l-5.2-14.8
				L431.4,142.1z"/>
		</g>
		<g class="st24">
			<path class="st23" d="M486.3,119.1l-12.4,22.1v14.1h-7.1v-14.1l-12.4-22.1h8.1l7.9,15.1l7.9-15.1H486.3z"/>
		</g>
		<path id="Rectangle_131" class="st22" d="M115.4,751.3l91.1,3.3c13.9,0.2,24.9,11.7,24.7,25.5l-0.7,41.8
			c-0.2,13.8-11.7,24.9-25.5,24.7l-91.1-3.3C100,843,89,831.6,89.2,817.7l0.7-41.8C90.1,762.1,101.6,751.1,115.4,751.3z"/>
		<g>
			<path class="st23" d="M112.2,437.9h4.1v31.4h-4.1v-14.1h-15v14.1h-4.1v-31.4h4.1v13.3h15V437.9z"/>
			<path class="st23" d="M141.1,466.5c-2.3,2.3-5,3.4-8.3,3.4s-6-1.1-8.2-3.4s-3.4-5.1-3.4-8.4s1.1-6.1,3.4-8.4
				c2.2-2.3,5-3.4,8.2-3.4s6,1.1,8.3,3.4s3.4,5.1,3.4,8.4S143.4,464.2,141.1,466.5z M132.9,466.1c2.2,0,4.1-0.8,5.6-2.3
				s2.2-3.4,2.2-5.7s-0.8-4.2-2.2-5.7c-1.5-1.5-3.4-2.3-5.6-2.3s-4,0.8-5.5,2.3s-2.2,3.4-2.2,5.7s0.8,4.2,2.2,5.7
				C128.8,465.4,130.7,466.1,132.9,466.1z"/>
			<path class="st23" d="M149.1,469.4v-32.8h3.8v32.8H149.1z"/>
			<path class="st23" d="M177.1,437.9h3.8v31.4h-3.8v-3.9c-1.9,3-4.7,4.4-8.4,4.4c-3.1,0-5.7-1.1-7.9-3.4s-3.3-5.1-3.3-8.4
				s1.1-6.1,3.3-8.4s4.8-3.4,7.9-3.4c3.6,0,6.4,1.5,8.4,4.4V437.9L177.1,437.9z M169.2,466.2c2.2,0,4.1-0.8,5.6-2.3s2.2-3.5,2.2-5.7
				s-0.8-4.2-2.2-5.7s-3.4-2.3-5.6-2.3s-4.1,0.8-5.6,2.3s-2.2,3.5-2.2,5.7s0.8,4.2,2.2,5.7S167,466.2,169.2,466.2z"/>
			<path class="st23" d="M209.8,450.7h-5.9v12.2c0,1.1,0.2,1.9,0.6,2.4c0.4,0.5,1.1,0.7,2,0.7s2,0,3.3-0.1v3.5
				c-3.4,0.5-5.8,0.2-7.4-0.8c-1.6-1-2.3-2.9-2.3-5.7v-12.2h-4.4v-3.8h4.4v-5.1l3.8-1.2v6.3h5.9L209.8,450.7L209.8,450.7z"/>
			<path class="st23" d="M225.3,446.3c2.6,0,4.7,0.8,6.2,2.5s2.3,3.9,2.3,6.8v13.8H230v-13.6c0-1.8-0.5-3.2-1.5-4.2s-2.3-1.5-4-1.5
				c-1.9,0-3.5,0.6-4.6,1.8s-1.8,3.1-1.8,5.6v11.9h-3.8V438h3.8v12.2C219.7,447.6,222.1,446.3,225.3,446.3L225.3,446.3z"/>
			<path class="st23" d="M241.9,459.9c0.4,2,1.3,3.6,2.7,4.7s3.2,1.7,5.3,1.7c2.9,0,5-1.1,6.4-3.3l3.3,1.9c-2.1,3.4-5.4,5.1-9.7,5.1
				c-3.5,0-6.4-1.1-8.5-3.3c-2.2-2.2-3.3-5-3.3-8.5s1.1-6.2,3.2-8.4c2.1-2.2,4.9-3.4,8.4-3.4c3.2,0,5.9,1.2,7.9,3.5
				c2,2.3,3.1,5.1,3.1,8.4c0,0.6,0,1.2-0.1,1.8L241.9,459.9L241.9,459.9z M249.6,450c-2.1,0-3.8,0.6-5.1,1.8
				c-1.4,1.2-2.2,2.8-2.5,4.7h14.8c-0.3-2.1-1.1-3.7-2.5-4.8S251.3,450,249.6,450L249.6,450z"/>
			<path class="st2" d="M288.3,452.5h-5v9.3c0,0.8,0.2,1.3,0.6,1.7c0.4,0.4,0.9,0.6,1.7,0.6c0.7,0,1.6,0,2.7,0v5.2
				c-3.9,0.5-6.7,0.1-8.3-1.1c-1.6-1.2-2.4-3.3-2.4-6.4v-9.3h-3.8v-5.6h3.8v-4.5l5.7-1.8v6.3h5L288.3,452.5L288.3,452.5z"/>
			<path class="st2" d="M298.4,450.8c0.5-1.4,1.4-2.5,2.6-3.2s2.6-1.1,4.1-1.1v6.5c-1.7-0.2-3.3,0.2-4.7,1.1s-2,2.5-2,4.6v10.7h-5.7
				v-22.5h5.7V450.8L298.4,450.8z"/>
			<path class="st2" d="M324.4,446.9h5.7v22.5h-5.7v-2.7c-1.7,2.2-4.1,3.3-7.2,3.3s-5.5-1.1-7.6-3.4s-3.2-5.1-3.2-8.4s1-6.1,3.2-8.4
				c2.1-2.3,4.6-3.4,7.6-3.4c3.1,0,5.5,1.1,7.2,3.3V446.9L324.4,446.9z M313.9,462.7c1.1,1.2,2.6,1.8,4.4,1.8s3.2-0.6,4.4-1.8
				s1.7-2.7,1.7-4.6s-0.6-3.4-1.7-4.6c-1.2-1.2-2.6-1.8-4.4-1.8s-3.2,0.6-4.4,1.8s-1.7,2.7-1.7,4.6S312.7,461.5,313.9,462.7z"/>
			<path class="st2" d="M347.5,446.3c2.4,0,4.4,0.8,6,2.5s2.4,3.9,2.4,6.8v13.8h-5.7v-13.1c0-1.5-0.4-2.6-1.2-3.4s-1.9-1.2-3.2-1.2
				c-1.5,0-2.6,0.5-3.5,1.4s-1.3,2.3-1.3,4.2v12.1h-5.7v-22.5h5.7v2.5C342.3,447.3,344.5,446.3,347.5,446.3L347.5,446.3z"/>
			<path class="st2" d="M366,453.3c0,0.6,0.4,1.1,1.2,1.5c0.8,0.4,1.7,0.7,2.9,1c1.1,0.3,2.2,0.6,3.4,1.1c1.1,0.4,2.1,1.2,2.9,2.2
				s1.2,2.3,1.2,3.8c0,2.3-0.9,4.1-2.5,5.3s-3.8,1.9-6.3,1.9c-4.5,0-7.6-1.8-9.3-5.3l5-2.8c0.6,2,2.1,2.9,4.3,2.9c2,0,3-0.6,3-1.9
				c0-0.6-0.4-1.1-1.2-1.5c-0.8-0.4-1.7-0.7-2.9-1s-2.2-0.7-3.4-1.1s-2.1-1.2-2.9-2.1c-0.8-1-1.2-2.2-1.2-3.7c0-2.2,0.8-4,2.4-5.2
				c1.6-1.3,3.6-1.9,6-1.9c1.8,0,3.4,0.4,4.9,1.2s2.6,2,3.5,3.5l-4.9,2.7c-0.7-1.5-1.9-2.3-3.5-2.3c-0.7,0-1.4,0.2-1.8,0.5
				C366.2,452.3,366,452.7,366,453.3L366,453.3z"/>
			<path class="st2" d="M397.5,437.9h5.7v31.4h-5.7v-2.7c-1.7,2.2-4.1,3.3-7.1,3.3s-5.5-1.1-7.6-3.4s-3.2-5.1-3.2-8.4s1-6.1,3.2-8.4
				c2.1-2.3,4.6-3.4,7.6-3.4s5.5,1.1,7.1,3.3V437.9L397.5,437.9z M387,462.7c1.2,1.2,2.6,1.8,4.4,1.8s3.2-0.6,4.4-1.8
				s1.7-2.7,1.7-4.6s-0.6-3.4-1.7-4.6s-2.6-1.8-4.4-1.8s-3.2,0.6-4.4,1.8s-1.7,2.7-1.7,4.6S385.8,461.5,387,462.7z"/>
			<path class="st2" d="M422.9,446.9h5.7v22.5h-5.7v-2.5c-1.4,2.1-3.6,3.1-6.6,3.1c-2.4,0-4.4-0.8-6-2.5s-2.4-3.9-2.4-6.8v-13.8h5.7
				V460c0,1.5,0.4,2.6,1.2,3.4c0.8,0.8,1.9,1.2,3.2,1.2c1.5,0,2.6-0.5,3.5-1.4s1.3-2.3,1.3-4.2L422.9,446.9L422.9,446.9z"/>
			<path class="st2" d="M444.4,470c-3.3,0-6.1-1.1-8.3-3.4c-2.2-2.3-3.3-5.1-3.3-8.4s1.1-6.2,3.3-8.4s5-3.4,8.3-3.4
				c2.1,0,4.1,0.5,5.9,1.6c1.8,1,3.1,2.5,4,4.2l-4.9,2.9c-0.4-0.9-1.1-1.7-2-2.2s-1.9-0.8-3-0.8c-1.7,0-3.1,0.6-4.2,1.7
				c-1.1,1.2-1.7,2.6-1.7,4.4s0.6,3.2,1.7,4.4s2.5,1.7,4.2,1.7c1.1,0,2.2-0.3,3.1-0.8s1.6-1.2,2-2.2l5,2.9c-1,1.8-2.3,3.2-4.1,4.2
				S446.5,470,444.4,470L444.4,470z"/>
			<path class="st2" d="M461.8,460.5c0.8,2.8,2.8,4.2,6.2,4.2c2.2,0,3.8-0.8,5-2.2l4.6,2.7c-2.2,3.2-5.4,4.8-9.6,4.8
				c-3.6,0-6.6-1.1-8.8-3.4c-2.2-2.2-3.3-5.1-3.3-8.5s1.1-6.2,3.3-8.5s5-3.4,8.4-3.4c3.2,0,5.9,1.1,8,3.4s3.2,5.1,3.2,8.4
				c0,0.8-0.1,1.5-0.2,2.4L461.8,460.5L461.8,460.5z M461.7,456H473c-0.3-1.5-1-2.7-2-3.4c-1-0.8-2.2-1.1-3.5-1.1
				c-1.5,0-2.8,0.4-3.8,1.2S462,454.6,461.7,456L461.7,456z"/>
			<path class="st2" d="M488.3,450.8c0.5-1.4,1.4-2.5,2.6-3.2s2.6-1.1,4.1-1.1v6.5c-1.7-0.2-3.3,0.2-4.7,1.1s-2,2.5-2,4.6v10.7h-5.7
				v-22.5h5.7V450.8L488.3,450.8z"/>
			<path class="st2" d="M109.1,491.8h5.7v31.4h-5.7v-2.7c-1.7,2.2-4.1,3.3-7.2,3.3s-5.5-1.1-7.6-3.4s-3.2-5.1-3.2-8.4
				s1.1-6.1,3.2-8.4s4.6-3.4,7.6-3.4s5.5,1.1,7.2,3.3V491.8L109.1,491.8z M98.6,516.6c1.2,1.2,2.6,1.8,4.4,1.8s3.2-0.6,4.4-1.8
				s1.7-2.7,1.7-4.6s-0.6-3.4-1.7-4.6c-1.2-1.2-2.6-1.8-4.4-1.8s-3.2,0.6-4.4,1.8c-1.2,1.2-1.7,2.7-1.7,4.6S97.5,515.4,98.6,516.6z"
				/>
			<path class="st2" d="M124.8,514.4c0.8,2.8,2.8,4.2,6.2,4.2c2.2,0,3.8-0.8,4.9-2.2l4.6,2.7c-2.2,3.2-5.4,4.8-9.6,4.8
				c-3.7,0-6.6-1.1-8.8-3.4c-2.2-2.2-3.3-5.1-3.3-8.5s1.1-6.2,3.3-8.5s5-3.4,8.4-3.4c3.2,0,5.9,1.1,8,3.4s3.2,5.1,3.2,8.4
				c0,0.8-0.1,1.5-0.2,2.4L124.8,514.4L124.8,514.4z M124.7,509.9H136c-0.3-1.5-1-2.7-2-3.4c-1-0.8-2.2-1.1-3.5-1.1
				c-1.5,0-2.8,0.4-3.8,1.2S125.1,508.5,124.7,509.9L124.7,509.9z"/>
			<path class="st2" d="M159.3,500.8h6.3l-8.4,22.5h-6.5l-8.4-22.5h6.3l5.4,15.7L159.3,500.8L159.3,500.8z"/>
			<path class="st2" d="M171.1,498.1c-0.9,0-1.8-0.3-2.4-1.1c-0.7-0.7-1-1.5-1-2.5s0.4-1.8,1-2.5c0.7-0.7,1.5-1.1,2.4-1.1
				s1.8,0.4,2.5,1.1s1,1.6,1,2.5s-0.4,1.8-1,2.5C172.9,497.7,172.1,498.1,171.1,498.1z M168.3,523.2v-22.5h5.7v22.5H168.3z"/>
			<path class="st2" d="M189.7,523.9c-3.3,0-6.1-1.1-8.3-3.4c-2.2-2.3-3.3-5.1-3.3-8.4s1.1-6.2,3.3-8.4s5-3.4,8.3-3.4
				c2.1,0,4.1,0.5,5.9,1.6c1.8,1,3.1,2.5,4,4.2l-4.9,2.9c-0.4-0.9-1.1-1.7-2-2.2s-1.9-0.8-3-0.8c-1.7,0-3.1,0.6-4.2,1.7
				c-1.1,1.2-1.7,2.6-1.7,4.4c0,1.8,0.6,3.2,1.7,4.4s2.5,1.7,4.2,1.7c1.1,0,2.2-0.3,3.1-0.8c0.9-0.5,1.6-1.2,2-2.2l4.9,2.9
				c-1,1.8-2.3,3.2-4.1,4.2S191.9,523.9,189.7,523.9L189.7,523.9z"/>
			<path class="st2" d="M207.2,514.4c0.8,2.8,2.8,4.2,6.2,4.2c2.2,0,3.8-0.8,4.9-2.2l4.6,2.7c-2.2,3.2-5.4,4.8-9.6,4.8
				c-3.6,0-6.6-1.1-8.8-3.4c-2.2-2.2-3.3-5.1-3.3-8.5s1.1-6.2,3.3-8.5s5-3.4,8.4-3.4c3.2,0,5.9,1.1,8,3.4s3.2,5.1,3.2,8.4
				c0,0.8-0.1,1.5-0.2,2.4L207.2,514.4L207.2,514.4z M207.1,509.9h11.3c-0.3-1.5-1-2.7-2-3.4c-1-0.8-2.2-1.1-3.5-1.1
				c-1.5,0-2.8,0.4-3.8,1.2S207.4,508.5,207.1,509.9L207.1,509.9z"/>
			<path class="st23" d="M251.4,504.6h-5.9v12.2c0,1.1,0.2,1.9,0.6,2.4c0.4,0.5,1.1,0.7,2,0.7s2,0,3.3-0.1v3.5
				c-3.4,0.5-5.8,0.2-7.4-0.8c-1.6-1-2.3-2.9-2.3-5.7v-12.2h-4.4v-3.8h4.4v-5.1l3.8-1.2v6.3h5.9L251.4,504.6L251.4,504.6z"/>
			<path class="st23" d="M273.5,520.4c-2.3,2.3-5,3.4-8.3,3.4s-6-1.1-8.2-3.4c-2.2-2.3-3.4-5.1-3.4-8.4s1.1-6.1,3.4-8.4
				c2.2-2.3,5-3.4,8.2-3.4s6,1.1,8.3,3.4s3.4,5.1,3.4,8.4S275.7,518.1,273.5,520.4z M265.2,520c2.2,0,4.1-0.8,5.6-2.3
				s2.2-3.4,2.2-5.7s-0.8-4.2-2.2-5.7c-1.5-1.5-3.4-2.3-5.6-2.3s-4,0.8-5.5,2.3s-2.2,3.4-2.2,5.7c0,2.3,0.8,4.2,2.2,5.7
				C261.2,519.3,263,520,265.2,520z"/>
			<path class="st23" d="M295.1,513.8c0.4,2,1.3,3.6,2.7,4.7s3.2,1.7,5.3,1.7c2.9,0,5-1.1,6.4-3.3l3.3,1.9c-2.1,3.4-5.4,5.1-9.7,5.1
				c-3.5,0-6.4-1.1-8.5-3.3c-2.2-2.2-3.3-5-3.3-8.5s1.1-6.2,3.2-8.4c2.1-2.2,4.9-3.4,8.4-3.4c3.2,0,5.9,1.2,7.9,3.5s3.1,5.1,3.1,8.4
				c0,0.6,0,1.2-0.1,1.8L295.1,513.8L295.1,513.8z M302.8,503.9c-2.1,0-3.8,0.6-5.1,1.8s-2.2,2.8-2.5,4.7H310
				c-0.3-2.1-1.1-3.7-2.5-4.8S304.6,503.9,302.8,503.9L302.8,503.9z"/>
			<path class="st23" d="M336.4,500.8h3.8v22.5h-3.8v-3.9c-1.9,3-4.7,4.4-8.4,4.4c-3.1,0-5.7-1.1-7.9-3.4c-2.2-2.3-3.3-5.1-3.3-8.4
				s1.1-6.1,3.3-8.4s4.8-3.4,7.9-3.4c3.6,0,6.4,1.5,8.4,4.4V500.8L336.4,500.8z M328.6,520.1c2.2,0,4.1-0.8,5.6-2.3s2.2-3.5,2.2-5.7
				s-0.8-4.2-2.2-5.7s-3.4-2.3-5.6-2.3s-4.1,0.8-5.6,2.3s-2.2,3.5-2.2,5.7s0.8,4.2,2.2,5.7S326.4,520.1,328.6,520.1z"/>
			<path class="st23" d="M356.5,523.8c-3.3,0-6.1-1.1-8.3-3.4s-3.3-5.1-3.3-8.4s1.1-6.2,3.3-8.4s5-3.4,8.3-3.4
				c2.2,0,4.1,0.5,5.9,1.6c1.7,1.1,3,2.5,3.9,4.3L363,508c-0.6-1.2-1.4-2.2-2.6-2.9c-1.2-0.7-2.5-1.1-4-1.1c-2.2,0-4.1,0.8-5.5,2.3
				c-1.5,1.5-2.2,3.4-2.2,5.7c0,2.3,0.7,4.1,2.2,5.7c1.5,1.5,3.3,2.3,5.5,2.3c1.5,0,2.8-0.3,4-1.1c1.2-0.7,2.1-1.7,2.7-2.8l3.3,1.9
				c-0.9,1.8-2.3,3.2-4.1,4.2C360.6,523.3,358.6,523.8,356.5,523.8L356.5,523.8z"/>
			<path class="st23" d="M381.2,500.2c2.6,0,4.7,0.8,6.2,2.5s2.3,3.9,2.3,6.8v13.8h-3.8v-13.6c0-1.8-0.5-3.2-1.5-4.2s-2.3-1.5-4-1.5
				c-1.9,0-3.5,0.6-4.6,1.8c-1.2,1.2-1.8,3.1-1.8,5.6v11.9h-3.8v-31.4h3.8V504C375.6,501.5,378,500.2,381.2,500.2L381.2,500.2z"/>
			<path class="st23" d="M418.4,500.2c3.1,0,5.7,1.1,7.9,3.4c2.2,2.3,3.3,5.1,3.3,8.4s-1.1,6.1-3.3,8.4s-4.8,3.4-7.9,3.4
				c-3.6,0-6.4-1.5-8.4-4.4v3.9h-3.8v-31.4h3.8v12.8C411.9,501.7,414.7,500.2,418.4,500.2L418.4,500.2z M417.9,520.1
				c2.2,0,4.1-0.8,5.6-2.3s2.2-3.5,2.2-5.7s-0.8-4.2-2.2-5.7s-3.4-2.3-5.6-2.3s-4.1,0.8-5.6,2.3s-2.2,3.5-2.2,5.7s0.8,4.2,2.2,5.7
				S415.6,520.1,417.9,520.1z"/>
			<path class="st23" d="M452.8,520.4c-2.3,2.3-5,3.4-8.3,3.4s-6-1.1-8.2-3.4c-2.2-2.3-3.4-5.1-3.4-8.4s1.1-6.1,3.4-8.4
				c2.2-2.3,5-3.4,8.2-3.4s6,1.1,8.3,3.4s3.4,5.1,3.4,8.4S455,518.1,452.8,520.4z M444.5,520c2.2,0,4.1-0.8,5.6-2.3s2.2-3.4,2.2-5.7
				s-0.8-4.2-2.2-5.7c-1.5-1.5-3.4-2.3-5.6-2.3s-4,0.8-5.5,2.3s-2.2,3.4-2.2,5.7c0,2.3,0.8,4.2,2.2,5.7
				C440.5,519.3,442.3,520,444.5,520z"/>
			<path class="st23" d="M460.7,523.2v-32.8h3.8v32.8H460.7z"/>
			<path class="st23" d="M482.4,504.6h-5.9v12.2c0,1.1,0.2,1.9,0.6,2.4s1.1,0.7,2,0.7s2,0,3.3-0.1v3.5c-3.4,0.5-5.8,0.2-7.4-0.8
				s-2.3-2.9-2.3-5.7v-12.2h-4.4v-3.8h4.4v-5.1l3.8-1.2v6.3h5.9V504.6L482.4,504.6z"/>
			<path class="st23" d="M94.6,550.6c-0.7,0-1.3-0.2-1.8-0.8S92,548.7,92,548s0.2-1.3,0.8-1.9c0.5-0.5,1.1-0.8,1.8-0.8
				s1.3,0.3,1.8,0.8s0.8,1.2,0.8,1.9s-0.2,1.3-0.8,1.8S95.3,550.6,94.6,550.6z M92.7,577.1v-22.5h3.8v22.5H92.7z"/>
			<path class="st23" d="M113.4,554.1c2.6,0,4.7,0.8,6.2,2.5c1.6,1.7,2.3,3.9,2.3,6.8v13.8h-3.8v-13.6c0-1.8-0.5-3.2-1.5-4.2
				s-2.3-1.5-4-1.5c-1.9,0-3.5,0.6-4.6,1.8s-1.8,3.1-1.8,5.6v11.9h-3.8v-22.5h3.8v3.2C107.8,555.4,110.2,554.1,113.4,554.1
				L113.4,554.1z"/>
			<path class="st23" d="M150.3,558.4h-5.9v12.2c0,1.1,0.2,1.9,0.6,2.4c0.4,0.5,1.1,0.7,2,0.7s2,0,3.3-0.1v3.5
				c-3.4,0.5-5.8,0.2-7.4-0.8c-1.6-1-2.3-2.9-2.3-5.7v-12.2h-4.4v-3.8h4.4v-5.1l3.8-1.2v6.3h5.9L150.3,558.4L150.3,558.4z"/>
			<path class="st23" d="M170.3,554.7h3.8v22.5h-3.8V574c-1.6,2.5-3.9,3.8-7.1,3.8c-2.6,0-4.7-0.8-6.2-2.5s-2.3-3.9-2.3-6.8v-13.8
				h3.8v13.6c0,1.8,0.5,3.2,1.5,4.2s2.3,1.5,4,1.5c1.9,0,3.5-0.6,4.6-1.8s1.8-3.1,1.8-5.6L170.3,554.7L170.3,554.7z"/>
			<path class="st23" d="M183.8,558.4c1.3-2.8,3.6-4.2,6.9-4.2v4.1c-1.9-0.1-3.5,0.4-4.9,1.5s-2,2.9-2,5.3V577H180v-22.5h3.8V558.4
				L183.8,558.4z"/>
			<path class="st23" d="M205.4,554.1c2.6,0,4.7,0.8,6.2,2.5s2.3,3.9,2.3,6.8v13.8h-3.8v-13.6c0-1.8-0.5-3.2-1.5-4.2s-2.3-1.5-4-1.5
				c-1.9,0-3.5,0.6-4.6,1.8s-1.8,3.1-1.8,5.6v11.9h-3.8v-22.5h3.8v3.2C199.8,555.4,202.2,554.1,205.4,554.1L205.4,554.1z"/>
			<path class="st23" d="M225.1,572.5l-2.9,10.9h-3.3l1.8-10.9H225.1L225.1,572.5z"/>
			<path class="st23" d="M241.5,577.1v-32.8h3.8v32.8H241.5z"/>
			<path class="st23" d="M253.2,550.6c-0.7,0-1.4-0.2-1.9-0.8s-0.8-1.1-0.8-1.8s0.2-1.3,0.8-1.9c0.5-0.5,1.1-0.8,1.9-0.8
				s1.3,0.3,1.8,0.8s0.8,1.2,0.8,1.9s-0.2,1.3-0.8,1.8S253.9,550.6,253.2,550.6z M251.2,577.1v-22.5h3.8v22.5H251.2z"/>
			<path class="st23" d="M264.2,560.7c0,0.8,0.4,1.5,1.3,2s1.9,1,3.1,1.3s2.4,0.7,3.6,1.1c1.2,0.4,2.2,1,3.1,2s1.3,2.3,1.3,3.8
				c0,2-0.8,3.7-2.3,4.9s-3.5,1.8-5.9,1.8c-2.1,0-4-0.5-5.5-1.4s-2.6-2.2-3.3-3.8l3.3-1.9c0.4,1.1,1,1.9,2,2.6s2.1,0.9,3.5,0.9
				c1.3,0,2.3-0.2,3.1-0.7s1.2-1.3,1.2-2.3c0-0.9-0.4-1.6-1.3-2.1s-1.9-1-3.1-1.3c-1.2-0.4-2.4-0.7-3.6-1.1s-2.2-1-3.1-2
				s-1.3-2.2-1.3-3.7c0-2,0.7-3.5,2.2-4.8s3.4-1.9,5.6-1.9c1.8,0,3.4,0.4,4.8,1.2s2.5,2,3.2,3.4l-3.2,1.8c-0.8-1.9-2.4-2.9-4.7-2.9
				c-1.1,0-2,0.3-2.8,0.8C264.6,559,264.2,559.7,264.2,560.7L264.2,560.7z"/>
			<path class="st23" d="M292.3,558.4h-5.9v12.2c0,1.1,0.2,1.9,0.6,2.4s1.1,0.7,2,0.7s2,0,3.3-0.1v3.5c-3.4,0.5-5.8,0.2-7.4-0.8
				s-2.3-2.9-2.3-5.7v-12.2h-4.4v-3.8h4.4v-5.1l3.8-1.2v6.3h5.9V558.4L292.3,558.4z"/>
			<path class="st23" d="M298.4,567.7c0.4,2,1.3,3.6,2.7,4.7s3.2,1.7,5.3,1.7c2.9,0,5-1.1,6.4-3.3l3.3,1.9c-2.1,3.4-5.4,5.1-9.7,5.1
				c-3.5,0-6.4-1.1-8.5-3.3c-2.2-2.2-3.3-5-3.3-8.5s1.1-6.2,3.2-8.4s4.9-3.4,8.4-3.4c3.2,0,5.9,1.2,7.9,3.5s3.1,5.1,3.1,8.4
				c0,0.6,0,1.2-0.1,1.8L298.4,567.7L298.4,567.7z M306.1,557.8c-2.1,0-3.8,0.6-5.1,1.8s-2.2,2.8-2.5,4.7h14.8
				c-0.3-2.1-1.1-3.7-2.5-4.8S307.8,557.8,306.1,557.8L306.1,557.8z"/>
			<path class="st23" d="M332.5,554.1c2.6,0,4.7,0.8,6.2,2.5s2.3,3.9,2.3,6.8v13.8h-3.8v-13.6c0-1.8-0.5-3.2-1.5-4.2s-2.3-1.5-4-1.5
				c-1.9,0-3.5,0.6-4.6,1.8c-1.2,1.2-1.8,3.1-1.8,5.6v11.9h-3.8v-22.5h3.8v3.2C326.9,555.4,329.2,554.1,332.5,554.1L332.5,554.1z"/>
			<path class="st23" d="M348.3,550.6c-0.7,0-1.4-0.2-1.9-0.8s-0.8-1.1-0.8-1.8s0.2-1.3,0.8-1.9c0.5-0.5,1.1-0.8,1.9-0.8
				s1.3,0.3,1.8,0.8s0.8,1.2,0.8,1.9s-0.2,1.3-0.8,1.8S349,550.6,348.3,550.6z M346.4,577.1v-22.5h3.8v22.5H346.4z"/>
			<path class="st23" d="M367.1,554.1c2.6,0,4.7,0.8,6.2,2.5s2.3,3.9,2.3,6.8v13.8h-3.8v-13.6c0-1.8-0.5-3.2-1.5-4.2s-2.3-1.5-4-1.5
				c-1.9,0-3.5,0.6-4.6,1.8c-1.2,1.2-1.8,3.1-1.8,5.6v11.9h-3.8v-22.5h3.8v3.2C361.5,555.4,363.9,554.1,367.1,554.1L367.1,554.1z"/>
			<path class="st23" d="M399.3,554.7h3.8v21.5c0,3.3-1.1,5.9-3.3,7.7c-2.2,1.8-4.9,2.8-8,2.8c-2.5,0-4.6-0.5-6.4-1.4
				s-3.1-2.3-4.1-4.1l3.4-1.9c1.2,2.5,3.6,3.8,7.2,3.8c2.3,0,4.1-0.6,5.4-1.8s2-2.9,2-5V573c-1.9,3-4.7,4.5-8.3,4.5
				c-3.1,0-5.8-1.1-8-3.4c-2.2-2.3-3.3-5-3.3-8.3s1.1-6,3.3-8.3s4.8-3.4,8-3.4c3.6,0,6.4,1.5,8.3,4.4V554.7L399.3,554.7z
				 M385.8,571.5c1.5,1.5,3.4,2.3,5.6,2.3s4.1-0.8,5.6-2.3s2.2-3.4,2.2-5.7s-0.8-4.1-2.2-5.7s-3.4-2.3-5.6-2.3s-4.1,0.8-5.6,2.3
				s-2.2,3.4-2.2,5.7S384.3,569.9,385.8,571.5z"/>
			<path class="st23" d="M438.3,554.7h3.8v22.5h-3.8v-3.9c-1.9,3-4.7,4.4-8.4,4.4c-3.1,0-5.7-1.1-7.9-3.4c-2.2-2.3-3.3-5.1-3.3-8.4
				s1.1-6.1,3.3-8.4s4.8-3.4,7.9-3.4c3.6,0,6.4,1.5,8.4,4.4V554.7L438.3,554.7z M430.4,573.9c2.2,0,4.1-0.8,5.6-2.3s2.2-3.5,2.2-5.7
				s-0.8-4.2-2.2-5.7s-3.4-2.3-5.6-2.3s-4.1,0.8-5.6,2.3s-2.2,3.5-2.2,5.7s0.8,4.2,2.2,5.7S428.2,573.9,430.4,573.9z"/>
			<path class="st23" d="M458.9,554.1c2.6,0,4.7,0.8,6.2,2.5s2.3,3.9,2.3,6.8v13.8h-3.8v-13.6c0-1.8-0.5-3.2-1.5-4.2s-2.3-1.5-4-1.5
				c-1.9,0-3.5,0.6-4.6,1.8c-1.2,1.2-1.8,3.1-1.8,5.6v11.9h-3.8v-22.5h3.8v3.2C453.3,555.4,455.7,554.1,458.9,554.1L458.9,554.1z"/>
			<path class="st23" d="M491.1,545.7h3.8v31.4h-3.8v-3.9c-1.9,3-4.7,4.4-8.4,4.4c-3.1,0-5.7-1.1-7.9-3.4c-2.2-2.3-3.3-5.1-3.3-8.4
				s1.1-6.1,3.3-8.4s4.8-3.4,7.9-3.4c3.6,0,6.4,1.5,8.4,4.4V545.7L491.1,545.7z M483.3,573.9c2.2,0,4.1-0.8,5.6-2.3s2.2-3.5,2.2-5.7
				s-0.8-4.2-2.2-5.7s-3.4-2.3-5.6-2.3s-4.1,0.8-5.6,2.3s-2.2,3.5-2.2,5.7s0.8,4.2,2.2,5.7S481.1,573.9,483.3,573.9z"/>
			<path class="st23" d="M111.3,628.2c-2.3,2.3-5,3.4-8.3,3.4s-6-1.1-8.2-3.4c-2.2-2.3-3.4-5.1-3.4-8.4s1.1-6.1,3.4-8.4
				c2.2-2.3,5-3.4,8.2-3.4s6,1.1,8.3,3.4c2.3,2.3,3.4,5.1,3.4,8.4S113.6,625.9,111.3,628.2z M103,627.8c2.2,0,4.1-0.8,5.6-2.3
				s2.2-3.4,2.2-5.7s-0.8-4.2-2.2-5.7c-1.5-1.5-3.4-2.3-5.6-2.3s-4,0.8-5.5,2.3s-2.2,3.4-2.2,5.7s0.8,4.2,2.2,5.7
				C99,627,100.9,627.8,103,627.8z"/>
			<path class="st23" d="M131.4,608c3.1,0,5.7,1.1,7.9,3.4c2.2,2.3,3.3,5.1,3.3,8.4s-1.1,6.1-3.3,8.4c-2.2,2.3-4.8,3.4-7.9,3.4
				c-3.7,0-6.4-1.5-8.3-4.4v3.9h-3.8v-31.4h3.8v12.8C125,609.4,127.8,608,131.4,608L131.4,608z M130.9,627.8c2.2,0,4.1-0.8,5.6-2.3
				s2.2-3.5,2.2-5.7s-0.8-4.2-2.2-5.7s-3.4-2.3-5.6-2.3s-4.1,0.8-5.6,2.3s-2.2,3.5-2.2,5.7s0.8,4.2,2.2,5.7S128.7,627.8,130.9,627.8
				z"/>
			<path class="st23" d="M150,614.5c0,0.8,0.4,1.5,1.3,2c0.9,0.5,1.9,1,3.1,1.3c1.2,0.4,2.4,0.7,3.6,1.1c1.2,0.4,2.2,1,3.1,2
				s1.3,2.3,1.3,3.8c0,2-0.8,3.7-2.3,4.9c-1.6,1.2-3.5,1.8-5.9,1.8c-2.1,0-4-0.5-5.5-1.4s-2.6-2.2-3.3-3.8l3.3-1.9
				c0.4,1.1,1,1.9,2,2.6s2.1,0.9,3.5,0.9c1.3,0,2.3-0.2,3.1-0.7s1.2-1.3,1.2-2.3c0-0.9-0.4-1.6-1.3-2.1s-1.9-1-3.1-1.3
				c-1.2-0.4-2.4-0.7-3.6-1.1c-1.2-0.4-2.2-1-3.1-2c-0.9-1-1.3-2.2-1.3-3.7c0-2,0.7-3.5,2.2-4.8s3.4-1.9,5.6-1.9
				c1.8,0,3.4,0.4,4.8,1.2s2.4,2,3.2,3.4l-3.2,1.8c-0.8-1.9-2.4-2.9-4.7-2.9c-1.1,0-2,0.3-2.8,0.8C150.4,612.9,150,613.6,150,614.5
				L150,614.5z"/>
			<path class="st23" d="M169,621.6c0.4,2,1.3,3.6,2.7,4.7c1.4,1.1,3.2,1.7,5.3,1.7c2.9,0,5-1.1,6.4-3.3l3.3,1.9
				c-2.1,3.4-5.4,5.1-9.7,5.1c-3.5,0-6.4-1.1-8.5-3.3c-2.2-2.2-3.3-5-3.3-8.5s1.1-6.2,3.2-8.4c2.1-2.2,4.9-3.4,8.4-3.4
				c3.2,0,5.9,1.2,7.9,3.5c2.1,2.3,3.1,5.1,3.1,8.4c0,0.6,0,1.2-0.1,1.8L169,621.6L169,621.6z M176.7,611.7c-2.1,0-3.8,0.6-5.1,1.8
				c-1.4,1.2-2.2,2.8-2.5,4.7h14.8c-0.3-2.1-1.1-3.7-2.5-4.8S178.4,611.7,176.7,611.7L176.7,611.7z"/>
			<path class="st23" d="M195.9,612.3c1.3-2.8,3.6-4.2,6.9-4.2v4.1c-1.9-0.1-3.5,0.4-4.9,1.5s-2,2.9-2,5.3v12h-3.8v-22.5h3.8V612.3
				L195.9,612.3z"/>
			<path class="st23" d="M222,608.5h4.1l-8.8,22.5h-4.5l-8.8-22.5h4.1l6.9,18.2L222,608.5L222,608.5z"/>
			<path class="st23" d="M231.4,604.5c-0.7,0-1.4-0.2-1.9-0.8s-0.8-1.1-0.8-1.8s0.2-1.3,0.8-1.9c0.5-0.5,1.1-0.8,1.9-0.8
				s1.3,0.3,1.8,0.8s0.8,1.2,0.8,1.9s-0.2,1.3-0.8,1.8S232.1,604.5,231.4,604.5z M229.4,631v-22.5h3.8V631H229.4z"/>
			<path class="st23" d="M250.1,608c2.6,0,4.7,0.8,6.2,2.5c1.5,1.7,2.3,3.9,2.3,6.8V631h-3.8v-13.6c0-1.8-0.5-3.2-1.5-4.2
				s-2.3-1.5-4-1.5c-1.9,0-3.5,0.6-4.6,1.8s-1.8,3.1-1.8,5.6V631h-3.8v-22.5h3.8v3.2C244.5,609.2,246.9,608,250.1,608L250.1,608z"/>
			<path class="st23" d="M282.4,608.5h3.8V630c0,3.3-1.1,5.9-3.3,7.7c-2.2,1.8-4.9,2.8-8,2.8c-2.5,0-4.6-0.5-6.4-1.4
				s-3.1-2.3-4.1-4.1l3.4-1.9c1.2,2.5,3.6,3.8,7.2,3.8c2.3,0,4.1-0.6,5.4-1.8s2-2.9,2-5v-3.2c-1.9,3-4.7,4.5-8.3,4.5
				c-3.1,0-5.8-1.1-8-3.4c-2.2-2.3-3.3-5-3.3-8.3s1.1-6,3.3-8.3s4.8-3.4,8-3.4c3.6,0,6.4,1.5,8.3,4.4V608.5L282.4,608.5z
				 M268.9,625.3c1.5,1.5,3.4,2.3,5.6,2.3s4.1-0.8,5.6-2.3s2.2-3.4,2.2-5.7s-0.8-4.1-2.2-5.7s-3.4-2.3-5.6-2.3s-4.1,0.8-5.6,2.3
				s-2.2,3.4-2.2,5.7S267.4,623.8,268.9,625.3z"/>
			<path class="st23" d="M315.1,612.3h-5.9v12.2c0,1.1,0.2,1.9,0.6,2.4s1.1,0.7,2,0.7s2,0,3.3-0.1v3.5c-3.4,0.5-5.8,0.2-7.4-0.8
				s-2.3-2.9-2.3-5.7v-12.2H301v-3.8h4.4v-5.1l3.8-1.2v6.3h5.9L315.1,612.3L315.1,612.3z"/>
			<path class="st23" d="M330.6,608c2.6,0,4.7,0.8,6.2,2.5s2.3,3.9,2.3,6.8V631h-3.8v-13.6c0-1.8-0.5-3.2-1.5-4.2s-2.3-1.5-4-1.5
				c-1.9,0-3.5,0.6-4.6,1.8c-1.2,1.2-1.8,3.1-1.8,5.6V631h-3.8v-31.4h3.8v12.2C325,609.2,327.4,608,330.6,608L330.6,608z"/>
			<path class="st23" d="M347.2,621.6c0.4,2,1.3,3.6,2.7,4.7s3.2,1.7,5.3,1.7c2.9,0,5-1.1,6.4-3.3l3.3,1.9c-2.1,3.4-5.4,5.1-9.7,5.1
				c-3.5,0-6.4-1.1-8.5-3.3c-2.2-2.2-3.3-5-3.3-8.5s1.1-6.2,3.2-8.4s4.9-3.4,8.4-3.4c3.2,0,5.9,1.2,7.9,3.5s3.1,5.1,3.1,8.4
				c0,0.6,0,1.2-0.1,1.8L347.2,621.6L347.2,621.6z M354.9,611.7c-2.1,0-3.8,0.6-5.1,1.8s-2.2,2.8-2.5,4.7H362
				c-0.3-2.1-1.1-3.7-2.5-4.8S356.6,611.7,354.9,611.7L354.9,611.7z"/>
			<path class="st23" d="M393.3,612.3h-5.9v12.2c0,1.1,0.2,1.9,0.6,2.4s1.1,0.7,2,0.7s2,0,3.3-0.1v3.5c-3.4,0.5-5.8,0.2-7.4-0.8
				s-2.3-2.9-2.3-5.7v-12.2h-4.4v-3.8h4.4v-5.1l3.8-1.2v6.3h5.9V612.3L393.3,612.3z"/>
			<path class="st23" d="M399.5,621.6c0.4,2,1.3,3.6,2.7,4.7s3.2,1.7,5.3,1.7c2.9,0,5-1.1,6.4-3.3l3.3,1.9c-2.1,3.4-5.4,5.1-9.7,5.1
				c-3.5,0-6.4-1.1-8.5-3.3c-2.2-2.2-3.3-5-3.3-8.5s1.1-6.2,3.2-8.4s4.9-3.4,8.4-3.4c3.2,0,5.9,1.2,7.9,3.5s3.1,5.1,3.1,8.4
				c0,0.6,0,1.2-0.1,1.8L399.5,621.6L399.5,621.6z M407.1,611.7c-2.1,0-3.8,0.6-5.1,1.8s-2.2,2.8-2.5,4.7h14.8
				c-0.3-2.1-1.1-3.7-2.5-4.8S408.9,611.7,407.1,611.7L407.1,611.7z"/>
			<path class="st23" d="M424.9,614.5c0,0.8,0.4,1.5,1.3,2s1.9,1,3.1,1.3s2.4,0.7,3.6,1.1c1.2,0.4,2.2,1,3.1,2s1.3,2.3,1.3,3.8
				c0,2-0.8,3.7-2.3,4.9s-3.5,1.8-5.9,1.8c-2.1,0-4-0.5-5.5-1.4s-2.6-2.2-3.3-3.8l3.3-1.9c0.4,1.1,1,1.9,2,2.6s2.1,0.9,3.5,0.9
				c1.3,0,2.3-0.2,3.1-0.7s1.2-1.3,1.2-2.3c0-0.9-0.4-1.6-1.3-2.1s-1.9-1-3.1-1.3c-1.2-0.4-2.4-0.7-3.6-1.1s-2.2-1-3.1-2
				s-1.3-2.2-1.3-3.7c0-2,0.7-3.5,2.2-4.8s3.4-1.9,5.6-1.9c1.8,0,3.4,0.4,4.8,1.2s2.5,2,3.2,3.4l-3.2,1.8c-0.8-1.9-2.4-2.9-4.7-2.9
				c-1.1,0-2,0.3-2.8,0.8C425.3,612.9,424.9,613.6,424.9,614.5L424.9,614.5z"/>
			<path class="st23" d="M453,612.3h-5.9v12.2c0,1.1,0.2,1.9,0.6,2.4s1.1,0.7,2,0.7s2,0,3.3-0.1v3.5c-3.4,0.5-5.8,0.2-7.4-0.8
				s-2.3-2.9-2.3-5.7v-12.2h-4.4v-3.8h4.4v-5.1l3.8-1.2v6.3h5.9V612.3L453,612.3z"/>
			<path class="st23" d="M96.5,666.2c1.3-2.8,3.6-4.2,6.9-4.2v4.1c-1.9-0.1-3.5,0.4-4.9,1.5c-1.3,1.1-2,2.9-2,5.3v11.9h-3.8v-22.5
				h3.8V666.2L96.5,666.2z"/>
			<path class="st23" d="M108.7,675.4c0.4,2,1.3,3.6,2.7,4.7s3.2,1.7,5.3,1.7c2.9,0,5-1.1,6.4-3.3l3.3,1.9c-2.2,3.4-5.4,5.1-9.7,5.1
				c-3.5,0-6.3-1.1-8.5-3.3s-3.3-5-3.3-8.5s1.1-6.2,3.2-8.4c2.2-2.2,4.9-3.4,8.3-3.4c3.2,0,5.9,1.2,7.9,3.5s3.1,5.1,3.1,8.4
				c0,0.6,0,1.2-0.1,1.8L108.7,675.4L108.7,675.4z M116.3,665.5c-2.1,0-3.8,0.6-5.1,1.8c-1.3,1.2-2.2,2.8-2.5,4.7h14.8
				c-0.3-2.1-1.2-3.7-2.5-4.8S118.1,665.5,116.3,665.5L116.3,665.5z"/>
			<path class="st23" d="M134.1,668.4c0,0.8,0.4,1.5,1.3,2c0.9,0.5,1.9,1,3.1,1.3c1.2,0.4,2.4,0.7,3.6,1.1c1.2,0.4,2.2,1,3.1,2
				s1.3,2.3,1.3,3.8c0,2-0.8,3.7-2.3,4.9c-1.6,1.2-3.5,1.8-5.9,1.8c-2.1,0-4-0.5-5.5-1.4s-2.6-2.2-3.3-3.8l3.3-1.9
				c0.4,1.1,1,1.9,2,2.6s2.1,0.9,3.5,0.9c1.3,0,2.3-0.2,3.1-0.7s1.2-1.3,1.2-2.3c0-0.9-0.4-1.6-1.3-2.1s-1.9-1-3.1-1.3
				c-1.2-0.4-2.4-0.7-3.6-1.1c-1.2-0.4-2.2-1-3.1-2c-0.9-1-1.3-2.2-1.3-3.7c0-2,0.7-3.5,2.2-4.8s3.4-1.9,5.6-1.9
				c1.8,0,3.4,0.4,4.8,1.2s2.4,2,3.2,3.4l-3.2,1.8c-0.8-1.9-2.4-2.9-4.7-2.9c-1.1,0-2,0.3-2.8,0.8
				C134.5,666.8,134.1,667.5,134.1,668.4L134.1,668.4z"/>
			<path class="st23" d="M166.1,662.4h3.8v22.5h-3.8v-3.2c-1.6,2.5-3.9,3.8-7.1,3.8c-2.6,0-4.7-0.8-6.2-2.5s-2.3-3.9-2.3-6.8v-13.8
				h3.8V676c0,1.8,0.5,3.2,1.5,4.2s2.3,1.5,4,1.5c1.9,0,3.5-0.6,4.6-1.8s1.8-3.1,1.8-5.6L166.1,662.4L166.1,662.4z"/>
			<path class="st23" d="M175.7,684.9v-32.8h3.8v32.8H175.7z"/>
			<path class="st23" d="M197.5,666.2h-5.9v12.2c0,1.1,0.2,1.9,0.6,2.4c0.4,0.5,1.1,0.7,2,0.7s2,0,3.3-0.1v3.5
				c-3.4,0.5-5.8,0.2-7.4-0.8c-1.6-1-2.3-2.9-2.3-5.7v-12.2h-4.4v-3.8h4.4v-5.1l3.8-1.2v6.3h5.9L197.5,666.2L197.5,666.2z"/>
			<path class="st23" d="M204.3,668.4c0,0.8,0.4,1.5,1.3,2c0.9,0.5,1.9,1,3.1,1.3c1.2,0.4,2.4,0.7,3.6,1.1c1.2,0.4,2.2,1,3.1,2
				s1.3,2.3,1.3,3.8c0,2-0.8,3.7-2.3,4.9c-1.6,1.2-3.5,1.8-5.9,1.8c-2.1,0-4-0.5-5.5-1.4s-2.6-2.2-3.3-3.8l3.3-1.9
				c0.4,1.1,1,1.9,2,2.6s2.1,0.9,3.5,0.9c1.3,0,2.3-0.2,3.1-0.7s1.2-1.3,1.2-2.3c0-0.9-0.4-1.6-1.3-2.1s-1.9-1-3.1-1.3
				c-1.2-0.4-2.4-0.7-3.6-1.1c-1.2-0.4-2.2-1-3.1-2c-0.9-1-1.3-2.2-1.3-3.7c0-2,0.7-3.5,2.2-4.8s3.4-1.9,5.6-1.9
				c1.8,0,3.4,0.4,4.8,1.2s2.4,2,3.2,3.4l-3.2,1.8c-0.8-1.9-2.4-2.9-4.7-2.9c-1.1,0-2,0.3-2.8,0.8
				C204.6,666.8,204.3,667.5,204.3,668.4L204.3,668.4z"/>
			<path class="st23" d="M223.1,685.4c-0.8,0-1.5-0.3-2-0.8c-0.6-0.6-0.8-1.3-0.8-2.1s0.3-1.5,0.8-2.1s1.2-0.8,2-0.8
				s1.5,0.3,2.1,0.8c0.5,0.6,0.8,1.3,0.8,2.1s-0.3,1.5-0.8,2.1C224.6,685.1,223.9,685.4,223.1,685.4z"/>
		</g>
		<circle class="st2" cx="98.7" cy="369.6" r="6"/>
		<circle class="st23" cx="128.4" cy="369.6" r="6"/>
		<circle class="st23" cx="158.2" cy="369.6" r="6"/>
		<circle class="st23" cx="187.9" cy="369.6" r="6"/>
		<circle class="st23" cx="1885" cy="1041.2" r="8.6"/>
		<circle class="st23" cx="1885" cy="29.9" r="8.6"/>
	</g>
</g>
</svg>
