<?xml version="1.0" encoding="utf-8"?>
<!-- Generator: Adobe Illustrator 26.2.1, SVG Export Plug-In . SVG Version: 6.00 Build 0)  -->
<svg version="1.1" id="Layer_1" xmlns="http://www.w3.org/2000/svg" xmlns:xlink="http://www.w3.org/1999/xlink" x="0px" y="0px"
	 viewBox="0 0 1920 1080" style="enable-background:new 0 0 1920 1080;" xml:space="preserve">
<style type="text/css">
	.st0{fill:#32315B;}
	.st1{opacity:0.3;fill:#19192D;}
	.st2{fill:#FFFFFF;}
	.st3{fill:none;stroke:#FFFFFF;stroke-width:6;stroke-miterlimit:10;}
	.st4{fill:#BC1E44;}
	.st5{font-family:'Gilroy-Bold';}
	.st6{font-size:31.7006px;}
	.st7{fill:#FC6D02;}
	.st8{font-size:24.6463px;}
	.st9{clip-path:url(#SVGID_00000147920110139974928600000017631966611180874147_);}
	.st10{opacity:0.3;}
	.st11{fill:#19192D;}
	.st12{fill:#B6B6B6;}
	.st13{fill:#E4E4E4;}
	.st14{opacity:0.23;fill:#FFFFFF;}
	.st15{opacity:0.8;fill:#2D2D4C;}
	.st16{clip-path:url(#SVGID_00000142878847321115000240000003077245451476950414_);}
	.st17{fill:none;stroke:#51B7AE;stroke-width:0.75;stroke-miterlimit:10;}
	.st18{fill:none;stroke:#51B7AE;stroke-width:2;stroke-miterlimit:10;}
	.st19{fill:none;stroke:#FC6D02;stroke-width:2;stroke-miterlimit:10;}
	.st20{clip-path:url(#SVGID_00000170244945030860916380000004575116541193939621_);}
	.st21{fill:#393866;}
	.st22{font-family:'Gilroy-Medium';}
	.st23{font-size:28.5063px;}
	.st24{fill:none;stroke:#393866;stroke-width:2;stroke-miterlimit:10;}
	.st25{opacity:0.51;clip-path:url(#SVGID_00000131351290890982000010000008448375345465655998_);}
	.st26{fill:none;stroke:#D5D4D9;stroke-width:3;stroke-miterlimit:10;}
	.st27{fill:#D5D4D9;}
	.st28{opacity:0.51;clip-path:url(#SVGID_00000103949217581082453630000010317866383358965413_);}
	.st29{fill:none;stroke:#D5D4D9;stroke-width:2;stroke-miterlimit:10;}
	.st30{opacity:0.51;clip-path:url(#SVGID_00000067924393514394603420000013774951636692443050_);}
	.st31{fill:none;stroke:#51B7AE;stroke-width:4;stroke-linejoin:round;stroke-miterlimit:10;}
	.st32{fill:none;stroke:#19192D;stroke-width:6;stroke-miterlimit:10;}
	.st33{fill:#2FD987;}
	.st34{clip-path:url(#SVGID_00000040557283124939760390000011276675706527740057_);}
	.st35{clip-path:url(#SVGID_00000031172857731450954260000010566245615249990553_);}
	.st36{clip-path:url(#SVGID_00000172407765718093260470000002200094686272425130_);}
	.st37{opacity:0.51;clip-path:url(#SVGID_00000121276821575471603110000009508646741628621720_);}
	.st38{opacity:0.51;clip-path:url(#SVGID_00000087401632687498537830000011842183531649708440_);}
	.st39{opacity:0.51;clip-path:url(#SVGID_00000109000034054285716730000005969689612441463963_);}
</style>
<g>
	<rect x="0" class="st0" width="1919.9" height="1079.4"/>
	<rect x="-21.4" y="-18.3" class="st0" width="1962.6" height="1116"/>
	<rect y="0" class="st1" width="610.8" height="1079.4"/>
	<circle class="st2" cx="1885" cy="1041.2" r="8.6"/>
	<circle class="st2" cx="1885" cy="29.9" r="8.6"/>
	<circle class="st2" cx="34.5" cy="1041.2" r="8.6"/>
	<circle class="st2" cx="34.5" cy="35.5" r="8.6"/>
</g>
<path class="st3" d="M1137.4,50.9"/>
<path class="st3" d="M882,50.9"/>
<g>
	<polygon class="st1" points="1870.5,830.9 1870.5,297.8 1870.5,297.8 1870.5,290.3 1866,283.4 1495.2,276.3 1488.5,282.4 
		1487.7,287 1487.7,287 1486.4,295.4 1288.1,295.4 1288.1,831.3 1870.5,831 1870.5,831.2 1870.5,831.2 1870.5,830.9 	"/>
	<g>
		<path class="st4" d="M1673.1,398.5l0-168.4c0-9.1-7.4-16.6-16.6-16.6h-178c-9.1,0-16.6,7.4-16.6,16.6v168.4
			c0,9.1,7.4,16.6,16.6,16.6h178C1665.7,415,1673.1,407.6,1673.1,398.5z"/>
		<g>
			<text transform="matrix(0.9836 0 0 1 1534.6431 258.0645)" class="st2 st5 st6">Faulty!</text>
		</g>
		<g>
			<circle class="st7" cx="1503.9" cy="246.8" r="16.3"/>
			<text transform="matrix(1 0 0 1 1500.5508 255.2764)" class="st2 st5 st8">!</text>
		</g>
	</g>
	<g>
		<defs>
			<rect id="SVGID_1_" x="1211" y="275.6" width="713.6" height="538.2"/>
		</defs>
		<clipPath id="SVGID_00000023959393891699158970000005279279591747751578_">
			<use xlink:href="#SVGID_1_"  style="overflow:visible;"/>
		</clipPath>
		<g style="clip-path:url(#SVGID_00000023959393891699158970000005279279591747751578_);">
			<g class="st10">
				<path class="st11" d="M1595,273.5v15.7h156.7v-15.7C1665.3,249,1595,273.5,1595,273.5z"/>
			</g>
			<rect x="1280.4" y="286.8" class="st11" width="572.7" height="973.7"/>
			<rect x="1280.2" y="286.8" class="st12" width="572.7" height="8.5"/>
			<rect x="1280.4" y="295.1" class="st7" width="14" height="965.6"/>
			<rect x="1838.8" y="295.1" class="st7" width="14" height="965.6"/>
			<polygon class="st13" points="1852.9,288.5 1280.2,288.8 1280.2,282.3 1285.9,275.1 1847.2,274.8 1852.9,280.9 			"/>
			<g>
				<rect x="1336.9" y="341.6" class="st14" width="464" height="430"/>
				<path class="st13" d="M1795.9,782.6l-455.7,0.3c-8.6,0-15.6-7-15.6-15.6l-0.2-419.4c0-8.6,7-15.6,15.6-15.6l455.7-0.3
					c8.6,0,15.6,7,15.6,15.6l0.2,419.4C1811.4,775.6,1804.5,782.6,1795.9,782.6z"/>
				<rect x="1336.9" y="341.6" class="st11" width="464" height="430"/>
				<rect x="1336.9" y="341.6" class="st15" width="464" height="430"/>
				<g>
					<defs>
						<rect id="SVGID_00000128459351645930231980000004891524839148637627_" x="1348.9" y="353.5" width="438.1" height="406"/>
					</defs>
					<clipPath id="SVGID_00000002363151697610882910000001448819930975742128_">
						<use xlink:href="#SVGID_00000128459351645930231980000004891524839148637627_"  style="overflow:visible;"/>
					</clipPath>
					<g style="clip-path:url(#SVGID_00000002363151697610882910000001448819930975742128_);">
						<rect x="1064.5" y="114" class="st17" width="949.8" height="1119.9"/>
						<line class="st17" x1="1958.5" y1="1233.9" x2="1958.5" y2="114"/>
						<line class="st17" x1="1902.6" y1="1233.9" x2="1902.6" y2="114"/>
						<line class="st17" x1="1846.7" y1="1233.9" x2="1846.7" y2="114"/>
						<line class="st17" x1="1790.8" y1="1233.9" x2="1790.8" y2="114"/>
						<line class="st17" x1="1735" y1="1233.9" x2="1735" y2="114"/>
						<line class="st17" x1="1679.1" y1="1233.9" x2="1679.1" y2="114"/>
						<line class="st17" x1="1623.2" y1="1233.9" x2="1623.2" y2="114"/>
						<line class="st17" x1="1567.3" y1="1233.9" x2="1567.3" y2="114"/>
						<line class="st17" x1="1511.5" y1="1233.9" x2="1511.5" y2="114"/>
						<line class="st17" x1="1455.6" y1="1233.9" x2="1455.6" y2="114"/>
						<line class="st17" x1="1399.7" y1="1233.9" x2="1399.7" y2="114"/>
						<line class="st17" x1="1343.9" y1="1233.9" x2="1343.9" y2="114"/>
						<line class="st17" x1="1288" y1="1233.9" x2="1288" y2="114"/>
						<line class="st17" x1="1232.1" y1="1233.9" x2="1232.1" y2="114"/>
						<line class="st17" x1="1176.2" y1="1233.9" x2="1176.2" y2="114"/>
						<line class="st17" x1="1120.4" y1="1233.9" x2="1120.4" y2="114"/>
						<line class="st17" x1="1064.5" y1="172.9" x2="2014.3" y2="172.9"/>
						<line class="st17" x1="1064.5" y1="231.9" x2="2014.3" y2="231.9"/>
						<line class="st17" x1="1064.5" y1="290.8" x2="2014.3" y2="290.8"/>
						<line class="st17" x1="1064.5" y1="349.7" x2="2014.3" y2="349.7"/>
						<line class="st17" x1="1064.5" y1="408.7" x2="2014.3" y2="408.7"/>
						<line class="st17" x1="1064.5" y1="467.6" x2="2014.3" y2="467.6"/>
						<line class="st17" x1="1064.5" y1="526.6" x2="2014.3" y2="526.6"/>
						<line class="st17" x1="1064.5" y1="585.5" x2="2014.3" y2="585.5"/>
						<line class="st17" x1="1064.5" y1="644.5" x2="2014.3" y2="644.5"/>
						<line class="st17" x1="1064.5" y1="703.4" x2="2014.3" y2="703.4"/>
						<line class="st17" x1="1064.5" y1="762.3" x2="2014.3" y2="762.3"/>
						<line class="st17" x1="1064.5" y1="821.3" x2="2014.3" y2="821.3"/>
						<line class="st17" x1="1064.5" y1="880.2" x2="2014.3" y2="880.2"/>
						<line class="st17" x1="1064.5" y1="939.2" x2="2014.3" y2="939.2"/>
						<line class="st17" x1="1064.5" y1="998.1" x2="2014.3" y2="998.1"/>
						<line class="st17" x1="1064.5" y1="1057.1" x2="2014.3" y2="1057.1"/>
						<line class="st17" x1="1064.5" y1="1116" x2="2014.3" y2="1116"/>
						<line class="st17" x1="1064.5" y1="1175" x2="2014.3" y2="1175"/>
					</g>
				</g>
				<rect x="1348.9" y="353.5" class="st18" width="438.1" height="406"/>
			</g>
			<circle class="st12" cx="1345.7" cy="861.2" r="11.8"/>
			<circle class="st12" cx="1383" cy="861.2" r="11.8"/>
			<g>
				<path class="st19" d="M1467.1,1049.6h-120.2c-6.6,0-12-5.4-12-12V917.4c0-6.6,5.4-12,12-12h120.2c6.6,0,12,5.4,12,12v120.2
					C1479.1,1044.2,1473.7,1049.6,1467.1,1049.6z"/>
				<path class="st19" d="M1631.4,1049.6h-120.2c-6.6,0-12-5.4-12-12V917.4c0-6.6,5.4-12,12-12h120.2c6.6,0,12,5.4,12,12v120.2
					C1643.4,1044.2,1638,1049.6,1631.4,1049.6z"/>
				<path class="st19" d="M1795.6,1049.6h-120.2c-6.6,0-12-5.4-12-12V917.4c0-6.6,5.4-12,12-12h120.2c6.6,0,12,5.4,12,12v120.2
					C1807.6,1044.2,1802.2,1049.6,1795.6,1049.6z"/>
			</g>
			<g>
				<path class="st19" d="M1467.1,1214.3h-120.2c-6.6,0-12-5.4-12-12v-120.2c0-6.6,5.4-12,12-12h120.2c6.6,0,12,5.4,12,12v120.2
					C1479.1,1208.9,1473.7,1214.3,1467.1,1214.3z"/>
				<path class="st19" d="M1631.4,1214.3h-120.2c-6.6,0-12-5.4-12-12v-120.2c0-6.6,5.4-12,12-12h120.2c6.6,0,12,5.4,12,12v120.2
					C1643.4,1208.9,1638,1214.3,1631.4,1214.3z"/>
				<path class="st19" d="M1795.6,1214.3h-120.2c-6.6,0-12-5.4-12-12v-120.2c0-6.6,5.4-12,12-12h120.2c6.6,0,12,5.4,12,12v120.2
					C1807.6,1208.9,1802.2,1214.3,1795.6,1214.3z"/>
			</g>
			<g>
				<defs>
					<rect id="SVGID_00000046335647366413602260000013131434113418721166_" x="1249.6" y="1153.5" width="598.2" height="105.9"/>
				</defs>
				<clipPath id="SVGID_00000010308968580648305940000007766150805232143534_">
					<use xlink:href="#SVGID_00000046335647366413602260000013131434113418721166_"  style="overflow:visible;"/>
				</clipPath>
				<g style="clip-path:url(#SVGID_00000010308968580648305940000007766150805232143534_);">
					<path class="st19" d="M1467.1,1379h-120.2c-6.6,0-12-5.4-12-12v-120.2c0-6.6,5.4-12,12-12h120.2c6.6,0,12,5.4,12,12V1367
						C1479.1,1373.6,1473.7,1379,1467.1,1379z"/>
					<path class="st19" d="M1631.4,1379h-120.2c-6.6,0-12-5.4-12-12v-120.2c0-6.6,5.4-12,12-12h120.2c6.6,0,12,5.4,12,12V1367
						C1643.4,1373.6,1638,1379,1631.4,1379z"/>
					<path class="st19" d="M1795.6,1379h-120.2c-6.6,0-12-5.4-12-12v-120.2c0-6.6,5.4-12,12-12h120.2c6.6,0,12,5.4,12,12V1367
						C1807.6,1373.6,1802.2,1379,1795.6,1379z"/>
				</g>
			</g>
			<text transform="matrix(0.9836 0 0 1 1367.104 986.7412)" class="st21 st22 st23">MENU</text>
			<text transform="matrix(0.9836 0 0 1 1545.4917 986.7412)" class="st21 st22 st23">CLR</text>
			<text transform="matrix(0.9836 0 0 1 1700.1733 986.7412)" class="st21 st22 st23">MEAS</text>
			<text transform="matrix(0.9836 0 0 1 1385.0347 1153.4497)" class="st21 st22 st23">OK</text>
			<text transform="matrix(0.9836 0 0 1 1710.1128 1153.4497)" class="st21 st22 st23">ESC</text>
			<g>
				<path class="st24" d="M1566.3,1109.7l-30.7,53.2c-2.6,4.6,0.7,10.3,5.9,10.3h61.4c5.3,0,8.6-5.7,5.9-10.3l-30.7-53.2
					C1575.5,1105.1,1569,1105.1,1566.3,1109.7z"/>
				<line class="st24" x1="1572.2" y1="1133.8" x2="1572.2" y2="1156.4"/>
				<line class="st24" x1="1583.5" y1="1145.1" x2="1561" y2="1145.1"/>
			</g>
			<g>
				<rect x="1558.4" y="259.1" class="st12" width="156.7" height="15.7"/>
				<path class="st12" d="M1715.1,259.1h-156.7C1558.4,259.1,1628.7,234.6,1715.1,259.1z"/>
				<g>
					<defs>
						<rect id="SVGID_00000053526586838399191020000008271676366574476952_" x="1558.4" y="259.1" width="156.7" height="15.7"/>
					</defs>
					<clipPath id="SVGID_00000122716562908507659930000010193603019898058646_">
						<use xlink:href="#SVGID_00000053526586838399191020000008271676366574476952_"  style="overflow:visible;"/>
					</clipPath>
					<g style="opacity:0.51;clip-path:url(#SVGID_00000122716562908507659930000010193603019898058646_);">
						<line class="st26" x1="1565.5" y1="251" x2="1565.5" y2="280.7"/>
						<line class="st26" x1="1573.9" y1="251" x2="1573.9" y2="280.7"/>
						<line class="st26" x1="1582.2" y1="251" x2="1582.2" y2="280.7"/>
						<line class="st26" x1="1590.6" y1="251" x2="1590.6" y2="280.7"/>
						<line class="st26" x1="1599" y1="251" x2="1599" y2="280.7"/>
						<line class="st26" x1="1607.4" y1="251" x2="1607.4" y2="280.7"/>
						<line class="st26" x1="1615.8" y1="251" x2="1615.8" y2="280.7"/>
						<line class="st26" x1="1624.2" y1="251" x2="1624.2" y2="280.7"/>
						<line class="st26" x1="1632.6" y1="251" x2="1632.6" y2="280.7"/>
						<line class="st26" x1="1641" y1="251" x2="1641" y2="280.7"/>
						<line class="st26" x1="1649.4" y1="251" x2="1649.4" y2="280.7"/>
						<line class="st26" x1="1657.8" y1="251" x2="1657.8" y2="280.7"/>
						<line class="st26" x1="1666.2" y1="251" x2="1666.2" y2="280.7"/>
						<line class="st26" x1="1674.6" y1="251" x2="1674.6" y2="280.7"/>
						<line class="st26" x1="1683" y1="251" x2="1683" y2="280.7"/>
						<line class="st26" x1="1691.4" y1="251" x2="1691.4" y2="280.7"/>
						<line class="st26" x1="1699.8" y1="251" x2="1699.8" y2="280.7"/>
						<line class="st26" x1="1708.2" y1="251" x2="1708.2" y2="280.7"/>
					</g>
				</g>
				<rect x="1346.8" y="261.1" class="st27" width="69.3" height="14.4"/>
				<rect x="1360.6" y="197" class="st12" width="41.8" height="64.1"/>
				<g>
					<defs>
						<rect id="SVGID_00000006687679911861847700000012378062137473174179_" x="1360.6" y="223.8" width="41.8" height="21.2"/>
					</defs>
					<clipPath id="SVGID_00000111193745461823796770000015091113718132419999_">
						<use xlink:href="#SVGID_00000006687679911861847700000012378062137473174179_"  style="overflow:visible;"/>
					</clipPath>
					<g style="opacity:0.51;clip-path:url(#SVGID_00000111193745461823796770000015091113718132419999_);">
						<line class="st29" x1="1362.6" y1="221.2" x2="1362.6" y2="250.9"/>
						<line class="st29" x1="1366.7" y1="221.2" x2="1366.7" y2="250.9"/>
						<line class="st29" x1="1370.7" y1="221.2" x2="1370.7" y2="250.9"/>
						<line class="st29" x1="1374.7" y1="221.2" x2="1374.7" y2="250.9"/>
						<line class="st29" x1="1378.8" y1="221.2" x2="1378.8" y2="250.9"/>
						<line class="st29" x1="1382.8" y1="221.2" x2="1382.8" y2="250.9"/>
						<line class="st29" x1="1386.8" y1="221.2" x2="1386.8" y2="250.9"/>
						<line class="st29" x1="1390.9" y1="221.2" x2="1390.9" y2="250.9"/>
						<line class="st29" x1="1394.9" y1="221.2" x2="1394.9" y2="250.9"/>
						<line class="st29" x1="1398.9" y1="221.2" x2="1398.9" y2="250.9"/>
						<line class="st29" x1="1403" y1="221.2" x2="1403" y2="250.9"/>
						<line class="st29" x1="1407" y1="221.2" x2="1407" y2="250.9"/>
						<line class="st29" x1="1411" y1="221.2" x2="1411" y2="250.9"/>
						<line class="st29" x1="1415.1" y1="221.2" x2="1415.1" y2="250.9"/>
						<line class="st29" x1="1419.1" y1="221.2" x2="1419.1" y2="250.9"/>
						<line class="st29" x1="1423.1" y1="221.2" x2="1423.1" y2="250.9"/>
						<line class="st29" x1="1427.2" y1="221.2" x2="1427.2" y2="250.9"/>
						<line class="st29" x1="1431.2" y1="221.2" x2="1431.2" y2="250.9"/>
					</g>
				</g>
				<g>
					<defs>
						<rect id="SVGID_00000086685649314367226880000017573058560895685270_" x="1360.6" y="197.3" width="41.8" height="6.5"/>
					</defs>
					<clipPath id="SVGID_00000023276547568866570650000000443023408103334335_">
						<use xlink:href="#SVGID_00000086685649314367226880000017573058560895685270_"  style="overflow:visible;"/>
					</clipPath>
					<g style="opacity:0.51;clip-path:url(#SVGID_00000023276547568866570650000000443023408103334335_);">
						<line class="st29" x1="1362.6" y1="180.1" x2="1362.6" y2="209.8"/>
						<line class="st29" x1="1366.7" y1="180.1" x2="1366.7" y2="209.8"/>
						<line class="st29" x1="1370.7" y1="180.1" x2="1370.7" y2="209.8"/>
						<line class="st29" x1="1374.7" y1="180.1" x2="1374.7" y2="209.8"/>
						<line class="st29" x1="1378.8" y1="180.1" x2="1378.8" y2="209.8"/>
						<line class="st29" x1="1382.8" y1="180.1" x2="1382.8" y2="209.8"/>
						<line class="st29" x1="1386.8" y1="180.1" x2="1386.8" y2="209.8"/>
						<line class="st29" x1="1390.9" y1="180.1" x2="1390.9" y2="209.8"/>
						<line class="st29" x1="1394.9" y1="180.1" x2="1394.9" y2="209.8"/>
						<line class="st29" x1="1398.9" y1="180.1" x2="1398.9" y2="209.8"/>
						<line class="st29" x1="1403" y1="180.1" x2="1403" y2="209.8"/>
						<line class="st29" x1="1407" y1="180.1" x2="1407" y2="209.8"/>
						<line class="st29" x1="1411" y1="180.1" x2="1411" y2="209.8"/>
						<line class="st29" x1="1415.1" y1="180.1" x2="1415.1" y2="209.8"/>
						<line class="st29" x1="1419.1" y1="180.1" x2="1419.1" y2="209.8"/>
						<line class="st29" x1="1423.1" y1="180.1" x2="1423.1" y2="209.8"/>
						<line class="st29" x1="1427.2" y1="180.1" x2="1427.2" y2="209.8"/>
						<line class="st29" x1="1431.2" y1="180.1" x2="1431.2" y2="209.8"/>
					</g>
				</g>
			</g>
		</g>
	</g>
	<path class="st31" d="M1348.9,702.5h161.7V386.4c0,0,14.8,103.3,46.3,170.3v-56.5c0,0,16.1,64.7,27.3,107.7v-51.3
		c0,0,26.9,145.8,58.6,145.8h28.8h115.2"/>
	<line class="st32" x1="1279.8" y1="811.1" x2="1852.4" y2="811.9"/>
</g>
<g>
	<path class="st33" d="M1061.6,398.5l0-168.4c0-9.1-7.4-16.6-16.6-16.6H867c-9.1,0-16.6,7.4-16.6,16.6l0,168.4
		c0,9.1,7.4,16.6,16.6,16.6h178C1054.2,415,1061.6,407.6,1061.6,398.5z"/>
	<text transform="matrix(0.9836 0 0 1 903.7871 258.0645)" class="st11 st5 st6">Normal</text>
	<polygon class="st1" points="1265,830.9 1265,297.8 1265,297.8 1265,290.3 1260.5,283.4 889.7,276.3 883,282.4 882.2,287 
		882.2,287 880.9,295.4 682.6,295.4 682.6,831.3 1265,831 1265,831.2 1265,831.2 1265,830.9 	"/>
	<g>
		<defs>
			<rect id="SVGID_00000101069475125490641190000011474327668976883611_" x="603.7" y="275.6" width="713.6" height="538.2"/>
		</defs>
		<clipPath id="SVGID_00000101088409627418926650000014525284639956458668_">
			<use xlink:href="#SVGID_00000101069475125490641190000011474327668976883611_"  style="overflow:visible;"/>
		</clipPath>
		<g style="clip-path:url(#SVGID_00000101088409627418926650000014525284639956458668_);">
			<g class="st10">
				<path class="st11" d="M987.7,273.5v15.7h156.7v-15.7C1058,249,987.7,273.5,987.7,273.5z"/>
			</g>
			<rect x="673.1" y="286.8" class="st11" width="572.7" height="973.7"/>
			<rect x="672.9" y="286.8" class="st12" width="572.7" height="8.5"/>
			<path class="st33" d="M819.3-1758.4h-250c-13.6,0-24.6,11-24.6,24.6v264.3c0,13.6,11,24.6,24.6,24.6h250
				c13.6,0,24.6-11,24.6-24.6v-264.3C843.9-1747.4,832.9-1758.4,819.3-1758.4z"/>
			<rect x="673.1" y="295.1" class="st7" width="14" height="965.6"/>
			<rect x="1231.5" y="295.1" class="st7" width="14" height="965.6"/>
			<polygon class="st13" points="1245.6,288.5 672.9,288.8 672.9,282.3 678.6,275.1 1239.9,274.8 1245.6,280.9 			"/>
			<g>
				<rect x="729.6" y="341.6" class="st14" width="464" height="430"/>
				<path class="st13" d="M1188.6,782.6l-455.7,0.3c-8.6,0-15.6-7-15.6-15.6l-0.2-419.4c0-8.6,7-15.6,15.6-15.6l455.7-0.3
					c8.6,0,15.6,7,15.6,15.6l0.2,419.4C1204.1,775.6,1197.2,782.6,1188.6,782.6z"/>
				<rect x="729.6" y="341.6" class="st11" width="464" height="430"/>
				<rect x="729.6" y="341.6" class="st15" width="464" height="430"/>
				<g>
					<defs>
						<rect id="SVGID_00000033348601922994995960000014915231484124123808_" x="741.6" y="353.5" width="438.1" height="406"/>
					</defs>
					<clipPath id="SVGID_00000162316193410274134860000015042353402936296866_">
						<use xlink:href="#SVGID_00000033348601922994995960000014915231484124123808_"  style="overflow:visible;"/>
					</clipPath>
					<g style="clip-path:url(#SVGID_00000162316193410274134860000015042353402936296866_);">
						<rect x="457.2" y="114" class="st17" width="949.8" height="1119.9"/>
						<line class="st17" x1="1351.2" y1="1233.9" x2="1351.2" y2="114"/>
						<line class="st17" x1="1295.3" y1="1233.9" x2="1295.3" y2="114"/>
						<line class="st17" x1="1239.4" y1="1233.9" x2="1239.4" y2="114"/>
						<line class="st17" x1="1183.5" y1="1233.9" x2="1183.5" y2="114"/>
						<line class="st17" x1="1127.7" y1="1233.9" x2="1127.7" y2="114"/>
						<line class="st17" x1="1071.8" y1="1233.9" x2="1071.8" y2="114"/>
						<line class="st17" x1="1015.9" y1="1233.9" x2="1015.9" y2="114"/>
						<line class="st17" x1="960" y1="1233.9" x2="960" y2="114"/>
						<line class="st17" x1="904.2" y1="1233.9" x2="904.2" y2="114"/>
						<line class="st17" x1="848.3" y1="1233.9" x2="848.3" y2="114"/>
						<line class="st17" x1="792.4" y1="1233.9" x2="792.4" y2="114"/>
						<line class="st17" x1="736.6" y1="1233.9" x2="736.6" y2="114"/>
						<line class="st17" x1="680.7" y1="1233.9" x2="680.7" y2="114"/>
						<line class="st17" x1="624.8" y1="1233.9" x2="624.8" y2="114"/>
						<line class="st17" x1="568.9" y1="1233.9" x2="568.9" y2="114"/>
						<line class="st17" x1="513.1" y1="1233.9" x2="513.1" y2="114"/>
						<line class="st17" x1="457.2" y1="172.9" x2="1407" y2="172.9"/>
						<line class="st17" x1="457.2" y1="231.9" x2="1407" y2="231.9"/>
						<line class="st17" x1="457.2" y1="290.8" x2="1407" y2="290.8"/>
						<line class="st17" x1="457.2" y1="349.7" x2="1407" y2="349.7"/>
						<line class="st17" x1="457.2" y1="408.7" x2="1407" y2="408.7"/>
						<line class="st17" x1="457.2" y1="467.6" x2="1407" y2="467.6"/>
						<line class="st17" x1="457.2" y1="526.6" x2="1407" y2="526.6"/>
						<line class="st17" x1="457.2" y1="585.5" x2="1407" y2="585.5"/>
						<line class="st17" x1="457.2" y1="644.5" x2="1407" y2="644.5"/>
						<line class="st17" x1="457.2" y1="703.4" x2="1407" y2="703.4"/>
						<line class="st17" x1="457.2" y1="762.3" x2="1407" y2="762.3"/>
						<line class="st17" x1="457.2" y1="821.3" x2="1407" y2="821.3"/>
						<line class="st17" x1="457.2" y1="880.2" x2="1407" y2="880.2"/>
						<line class="st17" x1="457.2" y1="939.2" x2="1407" y2="939.2"/>
						<line class="st17" x1="457.2" y1="998.1" x2="1407" y2="998.1"/>
						<line class="st17" x1="457.2" y1="1057.1" x2="1407" y2="1057.1"/>
						<line class="st17" x1="457.2" y1="1116" x2="1407" y2="1116"/>
						<line class="st17" x1="457.2" y1="1175" x2="1407" y2="1175"/>
					</g>
				</g>
				<rect x="741.6" y="353.5" class="st18" width="438.1" height="406"/>
			</g>
			<circle class="st12" cx="738.4" cy="861.2" r="11.8"/>
			<circle class="st12" cx="775.7" cy="861.2" r="11.8"/>
			<g>
				<path class="st19" d="M859.8,1049.6H739.6c-6.6,0-12-5.4-12-12V917.4c0-6.6,5.4-12,12-12h120.2c6.6,0,12,5.4,12,12v120.2
					C871.8,1044.2,866.4,1049.6,859.8,1049.6z"/>
				<path class="st19" d="M1024.1,1049.6H903.9c-6.6,0-12-5.4-12-12V917.4c0-6.6,5.4-12,12-12h120.2c6.6,0,12,5.4,12,12v120.2
					C1036.1,1044.2,1030.7,1049.6,1024.1,1049.6z"/>
				<path class="st19" d="M1188.3,1049.6h-120.2c-6.6,0-12-5.4-12-12V917.4c0-6.6,5.4-12,12-12h120.2c6.6,0,12,5.4,12,12v120.2
					C1200.3,1044.2,1194.9,1049.6,1188.3,1049.6z"/>
			</g>
			<g>
				<path class="st19" d="M859.8,1214.3H739.6c-6.6,0-12-5.4-12-12v-120.2c0-6.6,5.4-12,12-12h120.2c6.6,0,12,5.4,12,12v120.2
					C871.8,1208.9,866.4,1214.3,859.8,1214.3z"/>
				<path class="st19" d="M1024.1,1214.3H903.9c-6.6,0-12-5.4-12-12v-120.2c0-6.6,5.4-12,12-12h120.2c6.6,0,12,5.4,12,12v120.2
					C1036.1,1208.9,1030.7,1214.3,1024.1,1214.3z"/>
				<path class="st19" d="M1188.3,1214.3h-120.2c-6.6,0-12-5.4-12-12v-120.2c0-6.6,5.4-12,12-12h120.2c6.6,0,12,5.4,12,12v120.2
					C1200.3,1208.9,1194.9,1214.3,1188.3,1214.3z"/>
			</g>
			<g>
				<defs>
					<rect id="SVGID_00000163061863006670646900000013448652417752044955_" x="642.3" y="1153.5" width="598.2" height="105.9"/>
				</defs>
				<clipPath id="SVGID_00000168800602187257043440000007226503183620003750_">
					<use xlink:href="#SVGID_00000163061863006670646900000013448652417752044955_"  style="overflow:visible;"/>
				</clipPath>
				<g style="clip-path:url(#SVGID_00000168800602187257043440000007226503183620003750_);">
					<path class="st19" d="M859.8,1379H739.6c-6.6,0-12-5.4-12-12v-120.2c0-6.6,5.4-12,12-12h120.2c6.6,0,12,5.4,12,12V1367
						C871.8,1373.6,866.4,1379,859.8,1379z"/>
					<path class="st19" d="M1024.1,1379H903.9c-6.6,0-12-5.4-12-12v-120.2c0-6.6,5.4-12,12-12h120.2c6.6,0,12,5.4,12,12V1367
						C1036.1,1373.6,1030.7,1379,1024.1,1379z"/>
					<path class="st19" d="M1188.3,1379h-120.2c-6.6,0-12-5.4-12-12v-120.2c0-6.6,5.4-12,12-12h120.2c6.6,0,12,5.4,12,12V1367
						C1200.3,1373.6,1194.9,1379,1188.3,1379z"/>
				</g>
			</g>
			<text transform="matrix(0.9836 0 0 1 759.8079 986.7412)" class="st21 st22 st23">MENU</text>
			<text transform="matrix(0.9836 0 0 1 938.1948 986.7412)" class="st21 st22 st23">CLR</text>
			<text transform="matrix(0.9836 0 0 1 1092.8772 986.7412)" class="st21 st22 st23">MEAS</text>
			<text transform="matrix(0.9836 0 0 1 777.7383 1153.4497)" class="st21 st22 st23">OK</text>
			<text transform="matrix(0.9836 0 0 1 1102.8167 1153.4497)" class="st21 st22 st23">ESC</text>
			<g>
				<path class="st24" d="M959,1109.7l-30.7,53.2c-2.6,4.6,0.7,10.3,5.9,10.3h61.4c5.3,0,8.6-5.7,5.9-10.3l-30.7-53.2
					C968.2,1105.1,961.7,1105.1,959,1109.7z"/>
				<line class="st24" x1="965" y1="1133.8" x2="965" y2="1156.4"/>
				<line class="st24" x1="976.2" y1="1145.1" x2="953.7" y2="1145.1"/>
			</g>
			<g>
				<rect x="951.1" y="259.1" class="st12" width="156.7" height="15.7"/>
				<path class="st12" d="M1107.8,259.1H951.1C951.1,259.1,1021.4,234.6,1107.8,259.1z"/>
				<g>
					<defs>
						<rect id="SVGID_00000045588547024619543790000006626054983124194694_" x="951.1" y="259.1" width="156.7" height="15.7"/>
					</defs>
					<clipPath id="SVGID_00000000206270524417710300000007225598938323031426_">
						<use xlink:href="#SVGID_00000045588547024619543790000006626054983124194694_"  style="overflow:visible;"/>
					</clipPath>
					<g style="opacity:0.51;clip-path:url(#SVGID_00000000206270524417710300000007225598938323031426_);">
						<line class="st26" x1="958.2" y1="251" x2="958.2" y2="280.7"/>
						<line class="st26" x1="966.6" y1="251" x2="966.6" y2="280.7"/>
						<line class="st26" x1="974.9" y1="251" x2="974.9" y2="280.7"/>
						<line class="st26" x1="983.3" y1="251" x2="983.3" y2="280.7"/>
						<line class="st26" x1="991.7" y1="251" x2="991.7" y2="280.7"/>
						<line class="st26" x1="1000.1" y1="251" x2="1000.1" y2="280.7"/>
						<line class="st26" x1="1008.5" y1="251" x2="1008.5" y2="280.7"/>
						<line class="st26" x1="1016.9" y1="251" x2="1016.9" y2="280.7"/>
						<line class="st26" x1="1025.3" y1="251" x2="1025.3" y2="280.7"/>
						<line class="st26" x1="1033.7" y1="251" x2="1033.7" y2="280.7"/>
						<line class="st26" x1="1042.1" y1="251" x2="1042.1" y2="280.7"/>
						<line class="st26" x1="1050.5" y1="251" x2="1050.5" y2="280.7"/>
						<line class="st26" x1="1058.9" y1="251" x2="1058.9" y2="280.7"/>
						<line class="st26" x1="1067.3" y1="251" x2="1067.3" y2="280.7"/>
						<line class="st26" x1="1075.7" y1="251" x2="1075.7" y2="280.7"/>
						<line class="st26" x1="1084.1" y1="251" x2="1084.1" y2="280.7"/>
						<line class="st26" x1="1092.5" y1="251" x2="1092.5" y2="280.7"/>
						<line class="st26" x1="1100.9" y1="251" x2="1100.9" y2="280.7"/>
					</g>
				</g>
				<rect x="739.5" y="261.1" class="st27" width="69.3" height="14.4"/>
				<rect x="753.3" y="197" class="st12" width="41.8" height="64.1"/>
				<g>
					<defs>
						<rect id="SVGID_00000060732686830806822970000008967633658025173934_" x="753.3" y="223.8" width="41.8" height="21.2"/>
					</defs>
					<clipPath id="SVGID_00000031171621358285094460000002864005145085224623_">
						<use xlink:href="#SVGID_00000060732686830806822970000008967633658025173934_"  style="overflow:visible;"/>
					</clipPath>
					<g style="opacity:0.51;clip-path:url(#SVGID_00000031171621358285094460000002864005145085224623_);">
						<line class="st29" x1="755.3" y1="221.2" x2="755.3" y2="250.9"/>
						<line class="st29" x1="759.4" y1="221.2" x2="759.4" y2="250.9"/>
						<line class="st29" x1="763.4" y1="221.2" x2="763.4" y2="250.9"/>
						<line class="st29" x1="767.4" y1="221.2" x2="767.4" y2="250.9"/>
						<line class="st29" x1="771.5" y1="221.2" x2="771.5" y2="250.9"/>
						<line class="st29" x1="775.5" y1="221.2" x2="775.5" y2="250.9"/>
						<line class="st29" x1="779.5" y1="221.2" x2="779.5" y2="250.9"/>
						<line class="st29" x1="783.6" y1="221.2" x2="783.6" y2="250.9"/>
						<line class="st29" x1="787.6" y1="221.2" x2="787.6" y2="250.9"/>
						<line class="st29" x1="791.6" y1="221.2" x2="791.6" y2="250.9"/>
						<line class="st29" x1="795.7" y1="221.2" x2="795.7" y2="250.9"/>
						<line class="st29" x1="799.7" y1="221.2" x2="799.7" y2="250.9"/>
						<line class="st29" x1="803.7" y1="221.2" x2="803.7" y2="250.9"/>
						<line class="st29" x1="807.8" y1="221.2" x2="807.8" y2="250.9"/>
						<line class="st29" x1="811.8" y1="221.2" x2="811.8" y2="250.9"/>
						<line class="st29" x1="815.8" y1="221.2" x2="815.8" y2="250.9"/>
						<line class="st29" x1="819.9" y1="221.2" x2="819.9" y2="250.9"/>
						<line class="st29" x1="823.9" y1="221.2" x2="823.9" y2="250.9"/>
					</g>
				</g>
				<g>
					<defs>
						<rect id="SVGID_00000062156984584464738340000013100311223944262572_" x="753.3" y="197.3" width="41.8" height="6.5"/>
					</defs>
					<clipPath id="SVGID_00000161596335382074907320000004029053594873384637_">
						<use xlink:href="#SVGID_00000062156984584464738340000013100311223944262572_"  style="overflow:visible;"/>
					</clipPath>
					<g style="opacity:0.51;clip-path:url(#SVGID_00000161596335382074907320000004029053594873384637_);">
						<line class="st29" x1="755.3" y1="180.1" x2="755.3" y2="209.8"/>
						<line class="st29" x1="759.4" y1="180.1" x2="759.4" y2="209.8"/>
						<line class="st29" x1="763.4" y1="180.1" x2="763.4" y2="209.8"/>
						<line class="st29" x1="767.4" y1="180.1" x2="767.4" y2="209.8"/>
						<line class="st29" x1="771.5" y1="180.1" x2="771.5" y2="209.8"/>
						<line class="st29" x1="775.5" y1="180.1" x2="775.5" y2="209.8"/>
						<line class="st29" x1="779.5" y1="180.1" x2="779.5" y2="209.8"/>
						<line class="st29" x1="783.6" y1="180.1" x2="783.6" y2="209.8"/>
						<line class="st29" x1="787.6" y1="180.1" x2="787.6" y2="209.8"/>
						<line class="st29" x1="791.6" y1="180.1" x2="791.6" y2="209.8"/>
						<line class="st29" x1="795.7" y1="180.1" x2="795.7" y2="209.8"/>
						<line class="st29" x1="799.7" y1="180.1" x2="799.7" y2="209.8"/>
						<line class="st29" x1="803.7" y1="180.1" x2="803.7" y2="209.8"/>
						<line class="st29" x1="807.8" y1="180.1" x2="807.8" y2="209.8"/>
						<line class="st29" x1="811.8" y1="180.1" x2="811.8" y2="209.8"/>
						<line class="st29" x1="815.8" y1="180.1" x2="815.8" y2="209.8"/>
						<line class="st29" x1="819.9" y1="180.1" x2="819.9" y2="209.8"/>
						<line class="st29" x1="823.9" y1="180.1" x2="823.9" y2="209.8"/>
					</g>
				</g>
			</g>
		</g>
	</g>
	<line class="st32" x1="672.2" y1="812" x2="1246" y2="812.8"/>
	<path class="st31" d="M742.2,702.5h161.1c0,0,0-307.9,0-307.9c16.2,113.5,68.4,212,128.8,307.9h28.1h119.2"/>
</g>
<path class="st3" d="M1813.8,50.9"/>
</svg>
