<?xml version="1.0" encoding="UTF-8"?><svg id="Layer_2" xmlns="http://www.w3.org/2000/svg" viewBox="0 0 1919.91 1079.41"><defs><style>.cls-1{fill:none;stroke:#fff;stroke-miterlimit:10;stroke-width:6px;}.cls-2{fill:#f6f6f4;}.cls-3{fill:#fff;}.cls-4{fill:#323258;}.cls-5{fill:#6db6af;}.cls-6{opacity:.1;}.cls-6,.cls-7{isolation:isolate;}.cls-8{fill:#19192d;opacity:.8;}</style></defs><g id="Layer_1-2"><g><rect class="cls-8" width="1919.91" height="1079.41"/><g><rect class="cls-1" x="526.86" y="280.57" width="844.34" height="546.78" rx="41.27" ry="41.27"/><path class="cls-4" d="M716.91,151.79h464.25c11.74,0,21.26,9.53,21.26,21.26V934.87c0,11.74-9.53,21.27-21.27,21.27h-464.24c-11.74,0-21.27-9.53-21.27-21.27V173.05c0-11.74,9.53-21.26,21.26-21.26Z" transform="translate(1503 -395.07) rotate(90)"/><path id="Rectangle_131" class="cls-6" d="M861.27,703.46l198.72,2.53c10.72,.18,19.26,9.02,19.08,19.74l-.55,32.32c-.18,10.72-9.02,19.26-19.74,19.08l-198.72-2.53c-10.72-.18-19.26-9.02-19.08-19.74l.55-32.32c.18-10.72,9.02-19.26,19.74-19.08Z"/><path id="Rectangle_29-2" class="cls-5" d="M841.9,688.74h215.37c11.62,0,21.04,8.69,21.04,19.41v32.32c0,10.72-9.42,19.41-21.04,19.41h-215.37c-11.62,0-21.04-8.69-21.04-19.41v-32.32c0-10.72,9.42-19.41,21.04-19.41Z"/><g id="Test_" class="cls-7" transform="translate(957.319 991.487)"><g class="cls-7"><path class="cls-2" d="M868.16,723.44c2.14,1.23,3.21,3.1,3.21,5.59,0,2.07-.73,3.77-2.2,5.1-1.47,1.33-3.27,1.99-5.42,1.99h-10.38v-24.46h9.64c2.1,0,3.86,.65,5.29,1.94,1.43,1.29,2.15,2.94,2.15,4.94s-.77,3.66-2.31,4.89Zm-5.14-7.27h-4.82v5.38h4.82c.75,0,1.37-.26,1.87-.77,.5-.51,.75-1.15,.75-1.92s-.24-1.41-.73-1.92c-.49-.51-1.12-.77-1.89-.77Zm.73,15.44c.82,0,1.49-.27,2.03-.82,.54-.55,.8-1.24,.8-2.08s-.27-1.5-.8-2.04c-.54-.55-1.21-.82-2.03-.82h-5.56v5.76h5.56Z"/><path class="cls-2" d="M887.87,718.65h4.51v17.47h-4.51v-2.06c-1.35,1.7-3.25,2.55-5.69,2.55s-4.33-.89-5.99-2.67c-1.67-1.78-2.5-3.97-2.5-6.55s.83-4.77,2.5-6.55c1.67-1.78,3.66-2.67,5.99-2.67,2.45,0,4.34,.85,5.69,2.55v-2.06Zm-8.32,12.28c.91,.92,2.06,1.38,3.46,1.38s2.56-.46,3.48-1.38c.92-.92,1.38-2.1,1.38-3.55s-.46-2.63-1.38-3.55c-.92-.92-2.08-1.38-3.48-1.38s-2.55,.46-3.46,1.38c-.91,.92-1.36,2.1-1.36,3.55s.45,2.63,1.36,3.55Z"/><path class="cls-2" d="M904.78,736.61c-2.63,0-4.83-.88-6.59-2.66-1.76-1.77-2.64-3.96-2.64-6.57s.88-4.8,2.64-6.57c1.76-1.77,3.95-2.66,6.59-2.66,1.7,0,3.25,.41,4.65,1.22s2.46,1.91,3.18,3.28l-3.88,2.27c-.35-.72-.88-1.29-1.59-1.71-.71-.42-1.51-.63-2.39-.63-1.35,0-2.47,.45-3.35,1.35-.89,.9-1.33,2.04-1.33,3.44s.44,2.51,1.33,3.41c.88,.9,2,1.34,3.35,1.34,.91,0,1.72-.2,2.43-.61,.71-.41,1.24-.97,1.59-1.69l3.91,2.24c-.77,1.37-1.85,2.47-3.25,3.3-1.4,.83-2.95,1.24-4.65,1.24Z"/><path class="cls-2" d="M931.15,736.12h-5.24l-6.36-7.94v7.94h-4.51v-24.46h4.51v14.7l6.01-7.72h5.38l-7.02,8.63,7.23,8.84Z"/><path class="cls-2" d="M952.12,722.98h-3.95v7.27c0,.61,.15,1.05,.45,1.33,.3,.28,.75,.44,1.33,.47,.58,.04,1.3,.03,2.17-.02v4.09c-3.1,.35-5.28,.06-6.55-.87-1.27-.93-1.9-2.6-1.9-5v-7.27h-3.04v-4.33h3.04v-3.53l4.51-1.36v4.89h3.95v4.33Z"/><path class="cls-2" d="M969.66,733.94c-1.79,1.78-3.98,2.67-6.57,2.67s-4.77-.89-6.55-2.67-2.67-3.97-2.67-6.55,.89-4.77,2.67-6.55c1.78-1.78,3.97-2.67,6.55-2.67s4.77,.89,6.57,2.67c1.79,1.78,2.69,3.96,2.69,6.55s-.9,4.77-2.69,6.55Zm-9.94-3.09c.9,.91,2.02,1.36,3.37,1.36s2.48-.45,3.39-1.36c.91-.91,1.36-2.06,1.36-3.46s-.45-2.55-1.36-3.46c-.91-.91-2.04-1.36-3.39-1.36s-2.48,.45-3.37,1.36c-.9,.91-1.35,2.06-1.35,3.46s.45,2.55,1.35,3.46Z"/><path class="cls-2" d="M988.42,723.61c0,.47,.31,.84,.93,1.14,.62,.29,1.37,.55,2.25,.77,.88,.22,1.77,.5,2.66,.84,.88,.34,1.64,.9,2.25,1.7s.93,1.78,.93,2.97c0,1.79-.67,3.17-2.01,4.14-1.34,.97-3.01,1.45-5.01,1.45-3.59,0-6.03-1.39-7.34-4.16l3.91-2.2c.51,1.51,1.65,2.27,3.42,2.27,1.61,0,2.41-.5,2.41-1.5,0-.47-.31-.84-.93-1.14s-1.37-.55-2.25-.79c-.89-.23-1.77-.52-2.66-.87-.89-.35-1.64-.9-2.25-1.66-.62-.76-.93-1.71-.93-2.85,0-1.72,.63-3.08,1.9-4.07,1.27-.99,2.85-1.48,4.73-1.48,1.42,0,2.71,.32,3.88,.96,1.16,.64,2.08,1.55,2.76,2.74l-3.84,2.1c-.56-1.19-1.49-1.78-2.79-1.78-.58,0-1.07,.13-1.45,.38-.38,.26-.58,.61-.58,1.05Z"/><path class="cls-2" d="M1009.8,722.98h-3.95v7.27c0,.61,.15,1.05,.45,1.33,.3,.28,.75,.44,1.33,.47,.58,.04,1.3,.03,2.17-.02v4.09c-3.1,.35-5.28,.06-6.55-.87-1.27-.93-1.9-2.6-1.9-5v-7.27h-3.04v-4.33h3.04v-3.53l4.51-1.36v4.89h3.95v4.33Z"/><path class="cls-2" d="M1025.73,718.65h4.51v17.47h-4.51v-2.06c-1.35,1.7-3.25,2.55-5.69,2.55s-4.33-.89-5.99-2.67c-1.67-1.78-2.5-3.97-2.5-6.55s.83-4.77,2.5-6.55c1.67-1.78,3.66-2.67,5.99-2.67,2.45,0,4.34,.85,5.69,2.55v-2.06Zm-8.32,12.28c.91,.92,2.06,1.38,3.46,1.38s2.56-.46,3.48-1.38c.92-.92,1.38-2.1,1.38-3.55s-.46-2.63-1.38-3.55c-.92-.92-2.08-1.38-3.48-1.38s-2.55,.46-3.46,1.38c-.91,.92-1.36,2.1-1.36,3.55s.45,2.63,1.36,3.55Z"/><path class="cls-2" d="M1038.83,721.65c.42-1.12,1.11-1.96,2.08-2.52,.97-.56,2.04-.84,3.23-.84v5.03c-1.37-.16-2.6,.12-3.69,.84-1.08,.72-1.62,1.92-1.62,3.6v8.35h-4.51v-17.47h4.51v3Z"/><path class="cls-2" d="M1057.25,722.98h-3.95v7.27c0,.61,.15,1.05,.45,1.33,.3,.28,.75,.44,1.33,.47,.58,.04,1.3,.03,2.17-.02v4.09c-3.1,.35-5.28,.06-6.55-.87-1.27-.93-1.9-2.6-1.9-5v-7.27h-3.04v-4.33h3.04v-3.53l4.51-1.36v4.89h3.95v4.33Z"/></g></g><g><path class="cls-3" d="M714.89,422.35l-15.29-57.75h11.91l11.11,42.82,12.04-42.82h9.86l12.1,42.71,10.96-42.71h10.97l-15.17,57.75h-12.95l-10.94-38.32-10.86,38.32h-13.72Z"/><path class="cls-3" d="M803.71,411.46h24.34v10.89h-35.72v-57.75h35.31v10.89h-23.92v12.29h21.86v10.72h-21.86v12.95Z"/><path class="cls-3" d="M853.62,411.46h22.03v10.89h-33.41v-57.75h11.38v46.86Z"/><path class="cls-3" d="M899.65,411.46h22.03v10.89h-33.41v-57.75h11.38v46.86Z"/><path class="cls-3" d="M984.05,364.6c7.92,0,14.53,2.78,19.84,8.33,5.31,5.56,7.96,12.4,7.96,20.54s-2.65,14.99-7.96,20.54c-5.31,5.56-11.92,8.33-19.84,8.33h-22.93v-57.75h22.93Zm0,46.86c5,0,9.07-1.66,12.21-4.99,3.13-3.33,4.7-7.66,4.7-12.99s-1.57-9.67-4.7-12.99c-3.14-3.33-7.21-4.99-12.21-4.99h-11.55v35.97h11.55Z"/><path class="cls-3" d="M1074.71,414.8c-5.83,5.8-12.92,8.7-21.28,8.7s-15.44-2.9-21.24-8.7c-5.8-5.8-8.7-12.91-8.7-21.33s2.9-15.52,8.7-21.33c5.8-5.8,12.88-8.7,21.24-8.7s15.45,2.9,21.28,8.7c5.83,5.8,8.74,12.91,8.74,21.33s-2.92,15.52-8.74,21.33Zm-34.57-7.75c3.57,3.55,8,5.32,13.28,5.32s9.71-1.77,13.28-5.32c3.57-3.55,5.36-8.07,5.36-13.57s-1.79-10.04-5.36-13.61c-3.58-3.57-8-5.36-13.28-5.36s-9.71,1.79-13.28,5.36c-3.58,3.58-5.36,8.11-5.36,13.61s1.79,10.02,5.36,13.57Z"/><path class="cls-3" d="M1131.05,364.6h11.38v57.75h-8.66l-24.75-35.31v35.31h-11.38v-57.75h8.65l24.76,35.18v-35.18Z"/><path class="cls-3" d="M1170.74,411.46h24.34v10.89h-35.72v-57.75h35.31v10.89h-23.92v12.29h21.86v10.72h-21.86v12.95Z"/><path class="cls-3" d="M790.38,511.35l-11.67-20.05h-8.62v20.05h-11.38v-57.75h23.1c5.33,0,9.87,1.87,13.61,5.61,3.74,3.74,5.61,8.25,5.61,13.53,0,3.58-1.02,6.89-3.05,9.94-2.03,3.05-4.73,5.35-8.08,6.89l12.79,21.78h-12.29Zm-20.29-47.11v17.08h11.71c2.15,0,3.99-.84,5.53-2.52,1.54-1.68,2.31-3.7,2.31-6.06s-.77-4.37-2.31-6.02c-1.54-1.65-3.38-2.48-5.53-2.48h-11.71Z"/><path class="cls-3" d="M826.93,500.46h24.34v10.89h-35.72v-57.75h35.31v10.89h-23.92v12.29h21.86v10.72h-21.86v12.95Z"/><path class="cls-3" d="M892.43,512.5c-8.69,0-15.87-2.89-21.53-8.66-5.67-5.78-8.5-12.9-8.5-21.37s2.83-15.66,8.5-21.41c5.66-5.75,12.84-8.62,21.53-8.62,5.22,0,10.05,1.22,14.48,3.67,4.43,2.45,7.88,5.76,10.35,9.94l-9.82,5.69c-1.43-2.58-3.46-4.61-6.1-6.06-2.64-1.46-5.61-2.19-8.91-2.19-5.61,0-10.13,1.76-13.57,5.28-3.44,3.52-5.16,8.08-5.16,13.69s1.72,10.09,5.16,13.61c3.44,3.52,7.96,5.28,13.57,5.28,3.3,0,6.28-.73,8.95-2.19,2.67-1.46,4.69-3.45,6.06-5.98l9.82,5.69c-2.47,4.18-5.91,7.49-10.31,9.94-4.4,2.45-9.24,3.67-14.52,3.67Z"/><path class="cls-3" d="M962.14,511.35l-11.67-20.05h-8.62v20.05h-11.38v-57.75h23.1c5.33,0,9.87,1.87,13.61,5.61,3.74,3.74,5.61,8.25,5.61,13.53,0,3.58-1.02,6.89-3.05,9.94-2.03,3.05-4.73,5.35-8.08,6.89l12.79,21.78h-12.29Zm-20.29-47.11v17.08h11.71c2.15,0,3.99-.84,5.53-2.52,1.54-1.68,2.31-3.7,2.31-6.06s-.77-4.37-2.31-6.02c-1.54-1.65-3.38-2.48-5.53-2.48h-11.71Z"/><path class="cls-3" d="M1008.43,512.5c-6.43,0-11.71-1.82-15.84-5.45s-6.19-8.5-6.19-14.6v-38.86h11.3v37.95c0,3.03,.87,5.42,2.6,7.18,1.73,1.76,4.44,2.64,8.13,2.64s6.39-.88,8.13-2.64c1.73-1.76,2.6-4.15,2.6-7.18v-37.95h11.38v38.86c0,6.1-2.06,10.97-6.19,14.6-4.12,3.63-9.43,5.45-15.92,5.45Z"/><path class="cls-3" d="M1046.95,453.6h11.38v57.75h-11.38v-57.75Z"/><path class="cls-3" d="M1113.44,453.6v10.89h-15.59v46.86h-11.38v-46.86h-15.51v-10.89h42.49Z"/><path class="cls-3" d="M1136.62,510.36c-1.38,1.37-3.03,2.06-4.95,2.06s-3.58-.69-4.95-2.06c-1.38-1.37-2.06-3.02-2.06-4.95s.69-3.58,2.06-4.95c1.37-1.37,3.02-2.06,4.95-2.06s3.57,.69,4.95,2.06c1.37,1.38,2.06,3.03,2.06,4.95s-.69,3.58-2.06,4.95Zm-9.16-18.4l-2.23-21.86v-16.5h12.79v16.5l-2.14,21.86h-8.42Z"/></g><g><path class="cls-3" d="M617.75,587.86l-2.04-5.62h-11.27l-2.05,5.62h-3.54l9.34-25.05h3.76l9.34,25.05h-3.54Zm-12.18-8.73h9l-4.5-12.37-4.5,12.37Z"/><path class="cls-3" d="M625.01,587.86v-26.13h3.11v26.13h-3.11Z"/><path class="cls-3" d="M633.96,587.86v-26.13h3.11v26.13h-3.11Z"/><path class="cls-3" d="M662.81,569.5c2.51,0,4.64,.91,6.41,2.74,1.77,1.83,2.65,4.05,2.65,6.67s-.88,4.85-2.65,6.68c-1.77,1.83-3.9,2.74-6.41,2.74-2.96,0-5.21-1.18-6.77-3.54v3.08h-3.11v-25.05h3.11v10.24c1.55-2.36,3.81-3.54,6.77-3.54Zm-.39,15.82c1.79,0,3.29-.61,4.51-1.84,1.22-1.23,1.83-2.75,1.83-4.56s-.61-3.33-1.83-4.56c-1.22-1.23-2.72-1.84-4.51-1.84s-3.33,.62-4.55,1.84c-1.22,1.23-1.83,2.75-1.83,4.56s.61,3.33,1.83,4.56c1.22,1.23,2.73,1.84,4.55,1.84Z"/><path class="cls-3" d="M691.76,585.6c-1.84,1.81-4.07,2.72-6.69,2.72s-4.85-.91-6.68-2.72c-1.83-1.81-2.74-4.04-2.74-6.69s.91-4.88,2.74-6.69c1.83-1.81,4.05-2.72,6.68-2.72s4.86,.91,6.69,2.72c1.84,1.81,2.76,4.04,2.76,6.69s-.92,4.88-2.76,6.69Zm-6.69-.32c1.79,0,3.29-.61,4.51-1.83,1.22-1.22,1.83-2.73,1.83-4.55s-.61-3.33-1.83-4.55c-1.22-1.22-2.72-1.83-4.51-1.83s-3.26,.61-4.47,1.83c-1.22,1.22-1.83,2.73-1.83,4.55s.61,3.33,1.83,4.55c1.22,1.22,2.71,1.83,4.47,1.83Z"/><path class="cls-3" d="M699.28,587.86v-26.13h3.11v26.13h-3.11Z"/><path class="cls-3" d="M717.96,572.97h-4.76v9.7c0,.88,.17,1.51,.52,1.88,.35,.37,.88,.56,1.59,.57,.72,.01,1.6,0,2.65-.05v2.79c-2.72,.36-4.71,.14-5.98-.66-1.27-.8-1.9-2.31-1.9-4.53v-9.7h-3.54v-3.01h3.54v-4.08l3.11-.93v5.01h4.76v3.01Z"/><path class="cls-3" d="M724.55,574.74c0,.68,.35,1.22,1.05,1.63,.7,.41,1.54,.76,2.51,1.04,.97,.29,1.95,.57,2.93,.86,.98,.29,1.82,.83,2.5,1.62s1.02,1.81,1.02,3.06c0,1.62-.63,2.92-1.88,3.9-1.25,.98-2.86,1.47-4.81,1.47-1.74,0-3.23-.38-4.47-1.14-1.24-.76-2.12-1.78-2.65-3.04l2.68-1.54c.29,.86,.82,1.54,1.61,2.04s1.73,.75,2.83,.75c1.03,0,1.87-.2,2.54-.59,.67-.39,1-1.01,1-1.84,0-.69-.35-1.24-1.04-1.66-.69-.42-1.53-.77-2.5-1.06-.97-.29-1.95-.59-2.93-.88-.98-.3-1.82-.82-2.51-1.59-.69-.76-1.04-1.74-1.04-2.93,0-1.55,.6-2.83,1.81-3.83,1.2-1,2.71-1.5,4.53-1.5,1.46,0,2.75,.33,3.88,.98,1.13,.66,1.99,1.57,2.56,2.74l-2.61,1.47c-.64-1.53-1.92-2.29-3.83-2.29-.88,0-1.63,.2-2.25,.61-.62,.41-.93,.99-.93,1.73Z"/><path class="cls-3" d="M758.26,569.5c2.1,0,3.78,.66,5.05,1.99,1.26,1.32,1.9,3.12,1.9,5.39v10.99h-3.11v-10.81c0-1.46-.39-2.58-1.18-3.38s-1.87-1.2-3.26-1.2c-1.55,0-2.8,.48-3.76,1.45-.96,.97-1.43,2.45-1.43,4.46v9.49h-3.11v-25.05h3.11v9.74c1.26-2.03,3.2-3.04,5.8-3.04Z"/><path class="cls-3" d="M785.43,569.96h3.11v17.9h-3.11v-3.08c-1.55,2.36-3.81,3.54-6.77,3.54-2.51,0-4.64-.91-6.41-2.74-1.77-1.83-2.65-4.05-2.65-6.68s.88-4.85,2.65-6.67c1.77-1.83,3.9-2.74,6.41-2.74,2.96,0,5.21,1.18,6.77,3.54v-3.08Zm-6.37,15.36c1.81,0,3.33-.61,4.55-1.84,1.22-1.23,1.83-2.75,1.83-4.56s-.61-3.33-1.83-4.56c-1.22-1.23-2.73-1.84-4.55-1.84s-3.29,.62-4.51,1.84c-1.22,1.23-1.83,2.75-1.83,4.56s.61,3.33,1.83,4.56c1.22,1.23,2.72,1.84,4.51,1.84Z"/><path class="cls-3" d="M806.87,569.96h3.36l-7.16,17.9h-3.65l-7.16-17.9h3.36l5.62,14.53,5.62-14.53Z"/><path class="cls-3" d="M815.43,580.34c.31,1.6,1.04,2.84,2.2,3.72,1.16,.88,2.58,1.32,4.28,1.32,2.36,0,4.08-.87,5.15-2.61l2.65,1.5c-1.74,2.7-4.37,4.04-7.87,4.04-2.84,0-5.15-.89-6.93-2.67-1.78-1.78-2.67-4.03-2.67-6.75s.87-4.94,2.61-6.73c1.74-1.79,4-2.68,6.76-2.68,2.62,0,4.77,.92,6.42,2.77,1.66,1.85,2.49,4.08,2.49,6.68,0,.45-.04,.92-.11,1.4h-15Zm6.19-7.91c-1.67,0-3.05,.47-4.15,1.41-1.1,.94-1.78,2.2-2.04,3.78h11.95c-.26-1.69-.93-2.98-2-3.87-1.07-.88-2.33-1.32-3.76-1.32Z"/><path class="cls-3" d="M855.08,569.5c2.51,0,4.64,.91,6.41,2.74,1.77,1.83,2.65,4.05,2.65,6.67s-.88,4.85-2.65,6.68c-1.77,1.83-3.9,2.74-6.41,2.74-2.96,0-5.21-1.18-6.77-3.54v3.08h-3.11v-25.05h3.11v10.24c1.55-2.36,3.81-3.54,6.77-3.54Zm-.39,15.82c1.79,0,3.29-.61,4.51-1.84,1.22-1.23,1.83-2.75,1.83-4.56s-.61-3.33-1.83-4.56c-1.22-1.23-2.72-1.84-4.51-1.84s-3.33,.62-4.55,1.84c-1.22,1.23-1.83,2.75-1.83,4.56s.61,3.33,1.83,4.56c1.22,1.23,2.73,1.84,4.55,1.84Z"/><path class="cls-3" d="M871.12,580.34c.31,1.6,1.04,2.84,2.2,3.72,1.16,.88,2.58,1.32,4.28,1.32,2.36,0,4.08-.87,5.15-2.61l2.65,1.5c-1.74,2.7-4.37,4.04-7.87,4.04-2.84,0-5.15-.89-6.93-2.67-1.78-1.78-2.67-4.03-2.67-6.75s.87-4.94,2.61-6.73c1.74-1.79,4-2.68,6.76-2.68,2.62,0,4.77,.92,6.42,2.77,1.66,1.85,2.49,4.08,2.49,6.68,0,.45-.04,.92-.11,1.4h-15Zm6.19-7.91c-1.67,0-3.05,.47-4.15,1.41-1.1,.94-1.78,2.2-2.04,3.78h11.95c-.26-1.69-.93-2.98-2-3.87-1.07-.88-2.33-1.32-3.76-1.32Z"/><path class="cls-3" d="M893.02,580.34c.31,1.6,1.04,2.84,2.2,3.72,1.16,.88,2.58,1.32,4.28,1.32,2.36,0,4.08-.87,5.15-2.61l2.65,1.5c-1.74,2.7-4.37,4.04-7.87,4.04-2.84,0-5.15-.89-6.93-2.67-1.78-1.78-2.67-4.03-2.67-6.75s.87-4.94,2.61-6.73c1.74-1.79,4-2.68,6.76-2.68,2.62,0,4.77,.92,6.42,2.77,1.66,1.85,2.49,4.08,2.49,6.68,0,.45-.04,.92-.11,1.4h-15Zm6.19-7.91c-1.67,0-3.05,.47-4.15,1.41-1.1,.94-1.78,2.2-2.04,3.78h11.95c-.26-1.69-.93-2.98-2-3.87-1.07-.88-2.33-1.32-3.76-1.32Z"/><path class="cls-3" d="M921.69,569.5c2.1,0,3.78,.66,5.05,1.99,1.26,1.32,1.9,3.12,1.9,5.39v10.99h-3.11v-10.81c0-1.46-.39-2.58-1.18-3.38s-1.87-1.2-3.26-1.2c-1.55,0-2.8,.48-3.76,1.45-.96,.97-1.43,2.45-1.43,4.46v9.49h-3.11v-17.9h3.11v2.58c1.26-2.03,3.2-3.04,5.8-3.04Z"/><path class="cls-3" d="M952.47,588.32c-2.7,0-4.94-.9-6.73-2.7-1.79-1.8-2.68-4.04-2.68-6.71s.89-4.91,2.68-6.71,4.03-2.7,6.73-2.7c1.77,0,3.35,.42,4.76,1.27,1.41,.85,2.46,1.99,3.15,3.42l-2.61,1.5c-.45-.95-1.15-1.72-2.09-2.29-.94-.57-2.01-.86-3.2-.86-1.79,0-3.29,.61-4.49,1.83-1.21,1.22-1.81,2.73-1.81,4.55s.6,3.29,1.81,4.51c1.2,1.22,2.7,1.83,4.49,1.83,1.19,0,2.27-.28,3.22-.84,.95-.56,1.68-1.32,2.18-2.27l2.65,1.54c-.76,1.41-1.86,2.54-3.29,3.38-1.43,.85-3.02,1.27-4.76,1.27Z"/><path class="cls-3" d="M979.53,585.6c-1.84,1.81-4.07,2.72-6.69,2.72s-4.85-.91-6.68-2.72c-1.83-1.81-2.74-4.04-2.74-6.69s.91-4.88,2.74-6.69c1.83-1.81,4.05-2.72,6.68-2.72s4.86,.91,6.69,2.72c1.84,1.81,2.76,4.04,2.76,6.69s-.92,4.88-2.76,6.69Zm-6.69-.32c1.79,0,3.29-.61,4.51-1.83,1.22-1.22,1.83-2.73,1.83-4.55s-.61-3.33-1.83-4.55c-1.22-1.22-2.72-1.83-4.51-1.83s-3.26,.61-4.47,1.83c-1.22,1.22-1.83,2.73-1.83,4.55s.61,3.33,1.83,4.55c1.22,1.22,2.71,1.83,4.47,1.83Z"/><path class="cls-3" d="M990.16,572.97c1.03-2.22,2.89-3.33,5.58-3.33v3.26c-1.53-.07-2.84,.33-3.94,1.22s-1.65,2.3-1.65,4.26v9.49h-3.11v-17.9h3.11v3.01Z"/><path class="cls-3" d="M1002.98,572.97c1.03-2.22,2.89-3.33,5.58-3.33v3.26c-1.53-.07-2.84,.33-3.94,1.22s-1.65,2.3-1.65,4.26v9.49h-3.11v-17.9h3.11v3.01Z"/><path class="cls-3" d="M1013.89,580.34c.31,1.6,1.04,2.84,2.2,3.72,1.16,.88,2.58,1.32,4.28,1.32,2.36,0,4.08-.87,5.15-2.61l2.65,1.5c-1.74,2.7-4.37,4.04-7.87,4.04-2.84,0-5.15-.89-6.93-2.67-1.78-1.78-2.67-4.03-2.67-6.75s.87-4.94,2.61-6.73c1.74-1.79,4-2.68,6.76-2.68,2.62,0,4.77,.92,6.42,2.77,1.66,1.85,2.49,4.08,2.49,6.68,0,.45-.04,.92-.11,1.4h-15Zm6.19-7.91c-1.67,0-3.05,.47-4.15,1.41-1.1,.94-1.78,2.2-2.04,3.78h11.95c-.26-1.69-.93-2.98-2-3.87-1.07-.88-2.33-1.32-3.76-1.32Z"/><path class="cls-3" d="M1042.03,588.32c-2.7,0-4.94-.9-6.73-2.7-1.79-1.8-2.68-4.04-2.68-6.71s.89-4.91,2.68-6.71,4.03-2.7,6.73-2.7c1.77,0,3.35,.42,4.76,1.27,1.41,.85,2.46,1.99,3.15,3.42l-2.61,1.5c-.45-.95-1.15-1.72-2.09-2.29-.94-.57-2.01-.86-3.2-.86-1.79,0-3.29,.61-4.49,1.83-1.21,1.22-1.81,2.73-1.81,4.55s.6,3.29,1.81,4.51c1.2,1.22,2.7,1.83,4.49,1.83,1.19,0,2.27-.28,3.22-.84,.95-.56,1.68-1.32,2.18-2.27l2.65,1.54c-.76,1.41-1.86,2.54-3.29,3.38-1.43,.85-3.02,1.27-4.76,1.27Z"/><path class="cls-3" d="M1063.97,572.97h-4.76v9.7c0,.88,.17,1.51,.52,1.88,.35,.37,.88,.56,1.59,.57,.72,.01,1.6,0,2.65-.05v2.79c-2.72,.36-4.71,.14-5.98-.66-1.27-.8-1.9-2.31-1.9-4.53v-9.7h-3.54v-3.01h3.54v-4.08l3.11-.93v5.01h4.76v3.01Z"/><path class="cls-3" d="M1068.73,587.86v-26.13h3.11v26.13h-3.11Z"/><path class="cls-3" d="M1090.17,569.96h3.33l-7.3,19.01c-.76,2.03-1.83,3.57-3.2,4.64-1.37,1.06-2.95,1.53-4.74,1.41v-2.9c2.19,.17,3.79-1.05,4.81-3.66l.34-.67-7.8-17.83h3.33l5.97,13.72,5.27-13.72Z"/><path class="cls-3" d="M1122.02,562.8h3.11v25.05h-3.11v-3.08c-1.55,2.36-3.81,3.54-6.77,3.54-2.51,0-4.64-.91-6.41-2.74-1.77-1.83-2.65-4.05-2.65-6.68s.88-4.85,2.65-6.67c1.77-1.83,3.9-2.74,6.41-2.74,2.96,0,5.21,1.18,6.77,3.54v-10.24Zm-6.37,22.51c1.81,0,3.33-.61,4.55-1.84,1.22-1.23,1.83-2.75,1.83-4.56s-.61-3.33-1.83-4.56c-1.22-1.23-2.73-1.84-4.55-1.84s-3.29,.62-4.51,1.84c-1.22,1.23-1.83,2.75-1.83,4.56s.61,3.33,1.83,4.56c1.22,1.23,2.72,1.84,4.51,1.84Z"/><path class="cls-3" d="M1132.51,566.71c-.6,0-1.1-.2-1.5-.61-.41-.41-.61-.89-.61-1.47s.2-1.07,.61-1.49c.41-.42,.91-.63,1.5-.63s1.06,.21,1.47,.63c.41,.42,.61,.91,.61,1.49s-.2,1.06-.61,1.47-.9,.61-1.47,.61Zm-1.57,21.15v-17.9h3.11v17.9h-3.11Z"/><path class="cls-3" d="M1154.7,569.96h3.11v17.9h-3.11v-3.08c-1.55,2.36-3.81,3.54-6.77,3.54-2.51,0-4.64-.91-6.41-2.74-1.77-1.83-2.65-4.05-2.65-6.68s.88-4.85,2.65-6.67c1.77-1.83,3.9-2.74,6.41-2.74,2.96,0,5.21,1.18,6.77,3.54v-3.08Zm-6.37,15.36c1.81,0,3.33-.61,4.55-1.84,1.22-1.23,1.83-2.75,1.83-4.56s-.61-3.33-1.83-4.56c-1.22-1.23-2.73-1.84-4.55-1.84s-3.29,.62-4.51,1.84c-1.22,1.23-1.83,2.75-1.83,4.56s.61,3.33,1.83,4.56c1.22,1.23,2.72,1.84,4.51,1.84Z"/><path class="cls-3" d="M1178.47,569.96h3.08v17.14c0,2.65-.9,4.71-2.68,6.17-1.79,1.47-3.94,2.2-6.44,2.2-2,0-3.73-.38-5.19-1.13-1.46-.75-2.55-1.83-3.29-3.24l2.72-1.54c.98,2,2.92,3.01,5.83,3.01,1.86,0,3.32-.49,4.38-1.47,1.06-.98,1.59-2.31,1.59-4.01v-2.54c-1.58,2.39-3.82,3.58-6.73,3.58-2.55,0-4.71-.91-6.48-2.72-1.77-1.81-2.65-4.02-2.65-6.62s.88-4.8,2.65-6.6c1.77-1.8,3.92-2.7,6.48-2.7,2.94,0,5.18,1.18,6.73,3.54v-3.08Zm-10.92,13.39c1.22,1.22,2.73,1.83,4.55,1.83s3.33-.61,4.55-1.83c1.22-1.22,1.83-2.73,1.83-4.55s-.61-3.29-1.83-4.51c-1.22-1.22-2.73-1.83-4.55-1.83s-3.33,.61-4.55,1.83c-1.22,1.22-1.83,2.72-1.83,4.51s.61,3.33,1.83,4.55Z"/><path class="cls-3" d="M1196.26,569.5c2.1,0,3.78,.66,5.05,1.99,1.26,1.32,1.9,3.12,1.9,5.39v10.99h-3.11v-10.81c0-1.46-.39-2.58-1.18-3.38s-1.87-1.2-3.26-1.2c-1.55,0-2.8,.48-3.76,1.45-.96,.97-1.43,2.45-1.43,4.46v9.49h-3.11v-17.9h3.11v2.58c1.26-2.03,3.2-3.04,5.8-3.04Z"/><path class="cls-3" d="M1223.71,585.6c-1.84,1.81-4.07,2.72-6.69,2.72s-4.85-.91-6.68-2.72c-1.83-1.81-2.74-4.04-2.74-6.69s.91-4.88,2.74-6.69c1.83-1.81,4.05-2.72,6.68-2.72s4.86,.91,6.69,2.72c1.84,1.81,2.76,4.04,2.76,6.69s-.92,4.88-2.76,6.69Zm-6.69-.32c1.79,0,3.29-.61,4.51-1.83,1.22-1.22,1.83-2.73,1.83-4.55s-.61-3.33-1.83-4.55c-1.22-1.22-2.72-1.83-4.51-1.83s-3.26,.61-4.47,1.83c-1.22,1.22-1.83,2.73-1.83,4.55s.61,3.33,1.83,4.55c1.22,1.22,2.71,1.83,4.47,1.83Z"/><path class="cls-3" d="M1233.52,574.74c0,.68,.35,1.22,1.05,1.63,.7,.41,1.54,.76,2.51,1.04,.97,.29,1.95,.57,2.93,.86,.98,.29,1.82,.83,2.5,1.62s1.02,1.81,1.02,3.06c0,1.62-.63,2.92-1.88,3.9-1.25,.98-2.86,1.47-4.81,1.47-1.74,0-3.23-.38-4.47-1.14-1.24-.76-2.12-1.78-2.65-3.04l2.68-1.54c.29,.86,.82,1.54,1.61,2.04s1.73,.75,2.83,.75c1.03,0,1.87-.2,2.54-.59,.67-.39,1-1.01,1-1.84,0-.69-.35-1.24-1.04-1.66-.69-.42-1.53-.77-2.5-1.06-.97-.29-1.95-.59-2.93-.88-.98-.3-1.82-.82-2.51-1.59-.69-.76-1.04-1.74-1.04-2.93,0-1.55,.6-2.83,1.81-3.83,1.2-1,2.71-1.5,4.53-1.5,1.46,0,2.75,.33,3.88,.98,1.13,.66,1.99,1.57,2.56,2.74l-2.61,1.47c-.64-1.53-1.92-2.29-3.83-2.29-.88,0-1.63,.2-2.25,.61-.62,.41-.93,.99-.93,1.73Z"/><path class="cls-3" d="M1249.98,580.34c.31,1.6,1.04,2.84,2.2,3.72,1.16,.88,2.58,1.32,4.28,1.32,2.36,0,4.08-.87,5.15-2.61l2.65,1.5c-1.74,2.7-4.37,4.04-7.87,4.04-2.84,0-5.15-.89-6.93-2.67-1.78-1.78-2.67-4.03-2.67-6.75s.87-4.94,2.61-6.73c1.74-1.79,4-2.68,6.76-2.68,2.62,0,4.77,.92,6.42,2.77,1.66,1.85,2.49,4.08,2.49,6.68,0,.45-.04,.92-.11,1.4h-15Zm6.19-7.91c-1.67,0-3.05,.47-4.15,1.41-1.1,.94-1.78,2.2-2.04,3.78h11.95c-.26-1.69-.93-2.98-2-3.87-1.07-.88-2.33-1.32-3.76-1.32Z"/><path class="cls-3" d="M1284.52,562.8h3.11v25.05h-3.11v-3.08c-1.55,2.36-3.81,3.54-6.77,3.54-2.51,0-4.64-.91-6.41-2.74-1.77-1.83-2.65-4.05-2.65-6.68s.88-4.85,2.65-6.67c1.77-1.83,3.9-2.74,6.41-2.74,2.96,0,5.21,1.18,6.77,3.54v-10.24Zm-6.37,22.51c1.81,0,3.33-.61,4.55-1.84,1.22-1.23,1.83-2.75,1.83-4.56s-.61-3.33-1.83-4.56c-1.22-1.23-2.73-1.84-4.55-1.84s-3.29,.62-4.51,1.84c-1.22,1.23-1.83,2.75-1.83,4.56s.61,3.33,1.83,4.56c1.22,1.23,2.72,1.84,4.51,1.84Z"/><path class="cls-3" d="M1295.4,588.25c-.64,0-1.19-.23-1.65-.68-.45-.45-.68-1-.68-1.65s.23-1.19,.68-1.65c.45-.45,1-.68,1.65-.68s1.22,.23,1.66,.68c.44,.45,.66,1,.66,1.65s-.22,1.19-.66,1.65c-.44,.45-1,.68-1.66,.68Z"/><path class="cls-3" d="M711.97,605.76v25.05h-3.29v-19.58l-8.2,13.64h-.41l-8.22-13.65v19.6h-3.33v-25.05h3.76l8.02,13.3,7.95-13.3h3.72Z"/><path class="cls-3" d="M733.19,628.56c-1.84,1.81-4.07,2.72-6.69,2.72s-4.85-.91-6.68-2.72c-1.83-1.81-2.74-4.04-2.74-6.69s.91-4.88,2.74-6.69c1.83-1.81,4.05-2.72,6.68-2.72s4.86,.91,6.69,2.72c1.84,1.81,2.76,4.04,2.76,6.69s-.92,4.88-2.76,6.69Zm-6.69-.32c1.79,0,3.29-.61,4.51-1.83,1.22-1.22,1.83-2.73,1.83-4.55s-.61-3.33-1.83-4.55c-1.22-1.22-2.72-1.83-4.51-1.83s-3.26,.61-4.47,1.83c-1.22,1.22-1.83,2.73-1.83,4.55s.61,3.33,1.83,4.55c1.22,1.22,2.71,1.83,4.47,1.83Z"/><path class="cls-3" d="M752.52,612.91h3.36l-7.16,17.9h-3.65l-7.16-17.9h3.36l5.62,14.53,5.62-14.53Z"/><path class="cls-3" d="M761.08,623.29c.31,1.6,1.04,2.84,2.2,3.72,1.16,.88,2.58,1.32,4.28,1.32,2.36,0,4.08-.87,5.15-2.61l2.65,1.5c-1.74,2.7-4.37,4.04-7.87,4.04-2.84,0-5.15-.89-6.93-2.67-1.78-1.78-2.67-4.03-2.67-6.75s.87-4.94,2.61-6.73c1.74-1.79,4-2.68,6.76-2.68,2.62,0,4.77,.92,6.42,2.77,1.66,1.85,2.49,4.08,2.49,6.68,0,.45-.04,.92-.11,1.4h-15Zm6.19-7.91c-1.67,0-3.05,.47-4.15,1.41-1.1,.94-1.78,2.2-2.04,3.78h11.95c-.26-1.69-.93-2.98-2-3.87-1.07-.88-2.33-1.32-3.76-1.32Z"/><path class="cls-3" d="M805.96,628.56c-1.84,1.81-4.07,2.72-6.69,2.72s-4.85-.91-6.68-2.72c-1.83-1.81-2.74-4.04-2.74-6.69s.91-4.88,2.74-6.69c1.83-1.81,4.05-2.72,6.68-2.72s4.86,.91,6.69,2.72c1.84,1.81,2.76,4.04,2.76,6.69s-.92,4.88-2.76,6.69Zm-6.69-.32c1.79,0,3.29-.61,4.51-1.83,1.22-1.22,1.83-2.73,1.83-4.55s-.61-3.33-1.83-4.55c-1.22-1.22-2.72-1.83-4.51-1.83s-3.26,.61-4.47,1.83c-1.22,1.22-1.83,2.73-1.83,4.55s.61,3.33,1.83,4.55c1.22,1.22,2.71,1.83,4.47,1.83Z"/><path class="cls-3" d="M822.39,612.45c2.1,0,3.78,.66,5.05,1.99,1.26,1.32,1.9,3.12,1.9,5.39v10.99h-3.11v-10.81c0-1.46-.39-2.58-1.18-3.38s-1.87-1.2-3.26-1.2c-1.55,0-2.8,.48-3.76,1.45-.96,.97-1.43,2.45-1.43,4.46v9.49h-3.11v-17.9h3.11v2.58c1.26-2.03,3.2-3.04,5.8-3.04Z"/><path class="cls-3" d="M844.47,615.92h-4.76v9.7c0,.88,.17,1.51,.52,1.88,.35,.37,.88,.56,1.59,.57,.72,.01,1.6,0,2.65-.05v2.79c-2.72,.36-4.71,.14-5.98-.66-1.27-.8-1.9-2.31-1.9-4.53v-9.7h-3.54v-3.01h3.54v-4.08l3.11-.93v5.01h4.76v3.01Z"/><path class="cls-3" d="M863.44,628.56c-1.84,1.81-4.07,2.72-6.69,2.72s-4.85-.91-6.68-2.72c-1.83-1.81-2.74-4.04-2.74-6.69s.91-4.88,2.74-6.69c1.83-1.81,4.05-2.72,6.68-2.72s4.86,.91,6.69,2.72c1.84,1.81,2.76,4.04,2.76,6.69s-.92,4.88-2.76,6.69Zm-6.69-.32c1.79,0,3.29-.61,4.51-1.83,1.22-1.22,1.83-2.73,1.83-4.55s-.61-3.33-1.83-4.55c-1.22-1.22-2.72-1.83-4.51-1.83s-3.26,.61-4.47,1.83c-1.22,1.22-1.83,2.73-1.83,4.55s.61,3.33,1.83,4.55c1.22,1.22,2.71,1.83,4.47,1.83Z"/><path class="cls-3" d="M890.72,615.92h-4.76v9.7c0,.88,.17,1.51,.52,1.88,.35,.37,.88,.56,1.59,.57,.72,.01,1.6,0,2.65-.05v2.79c-2.72,.36-4.71,.14-5.98-.66-1.27-.8-1.9-2.31-1.9-4.53v-9.7h-3.54v-3.01h3.54v-4.08l3.11-.93v5.01h4.76v3.01Z"/><path class="cls-3" d="M904.39,612.45c2.1,0,3.78,.66,5.05,1.99,1.26,1.32,1.9,3.12,1.9,5.39v10.99h-3.11v-10.81c0-1.46-.39-2.58-1.18-3.38s-1.87-1.2-3.26-1.2c-1.55,0-2.8,.48-3.76,1.45-.96,.97-1.43,2.45-1.43,4.46v9.49h-3.11v-25.05h3.11v9.74c1.26-2.03,3.2-3.04,5.8-3.04Z"/><path class="cls-3" d="M918.92,623.29c.31,1.6,1.04,2.84,2.2,3.72,1.16,.88,2.58,1.32,4.28,1.32,2.36,0,4.08-.87,5.15-2.61l2.65,1.5c-1.74,2.7-4.37,4.04-7.87,4.04-2.84,0-5.15-.89-6.93-2.67-1.78-1.78-2.67-4.03-2.67-6.75s.87-4.94,2.61-6.73c1.74-1.79,4-2.68,6.76-2.68,2.62,0,4.77,.92,6.42,2.77,1.66,1.85,2.49,4.08,2.49,6.68,0,.45-.04,.92-.11,1.4h-15Zm6.19-7.91c-1.67,0-3.05,.47-4.15,1.41-1.1,.94-1.78,2.2-2.04,3.78h11.95c-.26-1.69-.93-2.98-2-3.87-1.07-.88-2.33-1.32-3.76-1.32Z"/><path class="cls-3" d="M957.61,612.45c2.1,0,3.78,.66,5.05,1.99,1.26,1.32,1.9,3.12,1.9,5.39v10.99h-3.11v-10.81c0-1.46-.39-2.58-1.18-3.38s-1.87-1.2-3.26-1.2c-1.55,0-2.8,.48-3.76,1.45-.96,.97-1.43,2.45-1.43,4.46v9.49h-3.11v-17.9h3.11v2.58c1.26-2.03,3.2-3.04,5.8-3.04Z"/><path class="cls-3" d="M972.14,623.29c.31,1.6,1.04,2.84,2.2,3.72,1.16,.88,2.58,1.32,4.28,1.32,2.36,0,4.08-.87,5.15-2.61l2.65,1.5c-1.74,2.7-4.37,4.04-7.87,4.04-2.84,0-5.15-.89-6.93-2.67-1.78-1.78-2.67-4.03-2.67-6.75s.87-4.94,2.61-6.73c1.74-1.79,4-2.68,6.76-2.68,2.62,0,4.77,.92,6.42,2.77,1.66,1.85,2.49,4.08,2.49,6.68,0,.45-.04,.92-.11,1.4h-15Zm6.19-7.91c-1.67,0-3.05,.47-4.15,1.41-1.1,.94-1.78,2.2-2.04,3.78h11.95c-.26-1.69-.93-2.98-2-3.87-1.07-.88-2.33-1.32-3.76-1.32Z"/><path class="cls-3" d="M1006.61,630.81h-3.65l-5.03-6.76-5.03,6.76h-3.65l6.85-9.21-6.46-8.68h3.69l4.61,6.21,4.62-6.21h3.65l-6.45,8.67,6.85,9.23Z"/><path class="cls-3" d="M1020.32,615.92h-4.76v9.7c0,.88,.17,1.51,.52,1.88,.35,.37,.88,.56,1.59,.57,.72,.01,1.6,0,2.65-.05v2.79c-2.72,.36-4.71,.14-5.98-.66-1.27-.8-1.9-2.31-1.9-4.53v-9.7h-3.54v-3.01h3.54v-4.08l3.11-.93v5.01h4.76v3.01Z"/><path class="cls-3" d="M1043.62,631.27c-2.7,0-4.94-.9-6.73-2.7-1.79-1.8-2.68-4.04-2.68-6.71s.89-4.91,2.68-6.71,4.03-2.7,6.73-2.7c1.77,0,3.35,.42,4.76,1.27,1.41,.85,2.46,1.99,3.15,3.42l-2.61,1.5c-.45-.95-1.15-1.72-2.09-2.29-.94-.57-2.01-.86-3.2-.86-1.79,0-3.29,.61-4.49,1.83-1.21,1.22-1.81,2.73-1.81,4.55s.6,3.29,1.81,4.51c1.2,1.22,2.7,1.83,4.49,1.83,1.19,0,2.27-.28,3.22-.84,.95-.56,1.68-1.32,2.18-2.27l2.65,1.54c-.76,1.41-1.86,2.54-3.29,3.38-1.43,.85-3.02,1.27-4.76,1.27Z"/><path class="cls-3" d="M1064.74,612.45c2.1,0,3.78,.66,5.05,1.99,1.26,1.32,1.9,3.12,1.9,5.39v10.99h-3.11v-10.81c0-1.46-.39-2.58-1.18-3.38s-1.87-1.2-3.26-1.2c-1.55,0-2.8,.48-3.76,1.45-.96,.97-1.43,2.45-1.43,4.46v9.49h-3.11v-25.05h3.11v9.74c1.26-2.03,3.2-3.04,5.8-3.04Z"/><path class="cls-3" d="M1091.91,612.91h3.11v17.9h-3.11v-3.08c-1.55,2.36-3.81,3.54-6.77,3.54-2.51,0-4.64-.91-6.41-2.74-1.77-1.83-2.65-4.05-2.65-6.68s.88-4.85,2.65-6.67c1.77-1.83,3.9-2.74,6.41-2.74,2.96,0,5.21,1.18,6.77,3.54v-3.08Zm-6.37,15.36c1.81,0,3.33-.61,4.55-1.84,1.22-1.23,1.83-2.75,1.83-4.56s-.61-3.33-1.83-4.56c-1.22-1.23-2.73-1.84-4.55-1.84s-3.29,.62-4.51,1.84c-1.22,1.23-1.83,2.75-1.83,4.56s.61,3.33,1.83,4.56c1.22,1.23,2.72,1.84,4.51,1.84Z"/><path class="cls-3" d="M1100.82,630.81v-26.13h3.11v26.13h-3.11Z"/><path class="cls-3" d="M1109.77,630.81v-26.13h3.11v26.13h-3.11Z"/><path class="cls-3" d="M1120.9,623.29c.31,1.6,1.04,2.84,2.2,3.72,1.16,.88,2.58,1.32,4.28,1.32,2.36,0,4.08-.87,5.15-2.61l2.65,1.5c-1.74,2.7-4.37,4.04-7.87,4.04-2.84,0-5.15-.89-6.93-2.67-1.78-1.78-2.67-4.03-2.67-6.75s.87-4.94,2.61-6.73c1.74-1.79,4-2.68,6.76-2.68,2.62,0,4.77,.92,6.42,2.77,1.66,1.85,2.49,4.08,2.49,6.68,0,.45-.04,.92-.11,1.4h-15Zm6.19-7.91c-1.67,0-3.05,.47-4.15,1.41-1.1,.94-1.78,2.2-2.04,3.78h11.95c-.26-1.69-.93-2.98-2-3.87-1.07-.88-2.33-1.32-3.76-1.32Z"/><path class="cls-3" d="M1149.57,612.45c2.1,0,3.78,.66,5.05,1.99,1.26,1.32,1.9,3.12,1.9,5.39v10.99h-3.11v-10.81c0-1.46-.39-2.58-1.18-3.38s-1.87-1.2-3.26-1.2c-1.55,0-2.8,.48-3.76,1.45-.96,.97-1.43,2.45-1.43,4.46v9.49h-3.11v-17.9h3.11v2.58c1.26-2.03,3.2-3.04,5.8-3.04Z"/><path class="cls-3" d="M1176.77,612.91h3.08v17.14c0,2.65-.9,4.71-2.68,6.17-1.79,1.47-3.94,2.2-6.44,2.2-2,0-3.73-.38-5.19-1.13-1.46-.75-2.55-1.83-3.29-3.24l2.72-1.54c.98,2,2.92,3.01,5.83,3.01,1.86,0,3.32-.49,4.38-1.47,1.06-.98,1.59-2.31,1.59-4.01v-2.54c-1.58,2.39-3.82,3.58-6.73,3.58-2.55,0-4.71-.91-6.48-2.72-1.77-1.81-2.65-4.02-2.65-6.62s.88-4.8,2.65-6.6c1.77-1.8,3.92-2.7,6.48-2.7,2.94,0,5.18,1.18,6.73,3.54v-3.08Zm-10.92,13.39c1.22,1.22,2.73,1.83,4.55,1.83s3.33-.61,4.55-1.83c1.22-1.22,1.83-2.73,1.83-4.55s-.61-3.29-1.83-4.51c-1.22-1.22-2.73-1.83-4.55-1.83s-3.33,.61-4.55,1.83c-1.22,1.22-1.83,2.72-1.83,4.51s.61,3.33,1.83,4.55Z"/><path class="cls-3" d="M1187.83,623.29c.31,1.6,1.04,2.84,2.2,3.72,1.16,.88,2.58,1.32,4.28,1.32,2.36,0,4.08-.87,5.15-2.61l2.65,1.5c-1.74,2.7-4.37,4.04-7.87,4.04-2.84,0-5.15-.89-6.93-2.67-1.78-1.78-2.67-4.03-2.67-6.75s.87-4.94,2.61-6.73c1.74-1.79,4-2.68,6.76-2.68,2.62,0,4.77,.92,6.42,2.77,1.66,1.85,2.49,4.08,2.49,6.68,0,.45-.04,.92-.11,1.4h-15Zm6.19-7.91c-1.67,0-3.05,.47-4.15,1.41-1.1,.94-1.78,2.2-2.04,3.78h11.95c-.26-1.69-.93-2.98-2-3.87-1.07-.88-2.33-1.32-3.76-1.32Z"/><path class="cls-3" d="M1208.12,631.2c-.64,0-1.19-.23-1.65-.68-.45-.45-.68-1-.68-1.65s.23-1.19,.68-1.65c.45-.45,1-.68,1.65-.68s1.22,.23,1.66,.68c.44,.45,.66,1,.66,1.65s-.22,1.19-.66,1.65c-.44,.45-1,.68-1.66,.68Z"/></g><circle class="cls-3" cx="578.96" cy="331.62" r="8.59"/><circle class="cls-3" cx="578.96" cy="771.87" r="8.59"/><circle class="cls-3" cx="1322.86" cy="331.62" r="8.59"/><circle class="cls-3" cx="1322.86" cy="771.87" r="8.59"/></g></g></g></svg>